<svg xmlns="http://www.w3.org/2000/svg" width="730" height="495" viewBox="0 0 730 495">
  <g id="Group_2505" data-name="Group 2505" transform="translate(-55 -1230)">
    <rect id="Rectangle_1352" data-name="Rectangle 1352" width="730" height="495" transform="translate(55 1230)" fill="#fec739"/>
    <g id="Group_2504" data-name="Group 2504" transform="translate(294.656 1303.659)">
      <path id="Path_3635" data-name="Path 3635" d="M2053.346,1062.605s26.475-21.7,8.361-46.049c-18.116-18.155-45.985-.886-51.559,11.07,0,0-55.739-20.369-114.265-4.429-12.54-24.8-40.555-15.661-48.306-9.3-11.113,9.125-19.509,38.079,8.36,48.264-19.044,23.91-45.985,58.447-41.34,101.4s21.367,75.716,101.26,101.4c-18.115,14.169-29.726,30.552,1.394,45.164,3.251,22.139,1.442,17.331,3.745,24.793s5.065,17.122,3.454,17.122a21.549,21.549,0,0,1-3.686-.44s-5.352,4.362,5.038,2.73c3.118-.49,3.16,1.158,3.647-4.636s7.778-20.624,26.012-20.624,26.255,9.038,28.442,21.088c4.863,1.623,10.453,2.78,10.453.7s-6.563-2.78-6.563-2.78-.244-12.747,1.216-12.747,1.7-4.866,1.7-11.123.487-15.989.487-15.989,20.42-3.709,20.42-18.772-17.261-22.711-17.261-22.711,100.8-17.079,103.117-86.69S2053.346,1062.605,2053.346,1062.605ZM1919.2,1297.212c-9.76-.689-15.183-5.858.361-17.23C1919.561,1279.983,1919.2,1289.631,1919.2,1297.212Zm71.938,0c0-9.3-2.893-19.987-2.893-19.987S2010.3,1289.976,1991.138,1297.212Z" transform="translate(-1814.067 -1006.863)" fill="#160200"/>
      <path id="Path_3636" data-name="Path 3636" d="M1930.7,1159.418c16.633,0,46.273-10.481,46.634-34.937s-23.86-38.043-47.356-37.655-48.8,17.469-47.718,35.325S1897.8,1159.418,1930.7,1159.418Z" transform="translate(-1767.726 -962.465)" fill="#fffdfd"/>
      <path id="Path_3637" data-name="Path 3637" d="M1885.042,1175.7s30,22.9,43.019,3.107C1922.277,1193.552,1908.179,1216.067,1885.042,1175.7Z" transform="translate(-1765.811 -907.448)" fill="#fffdfd"/>
      <path id="Path_3638" data-name="Path 3638" d="M1845.575,1046.755s6.508-12.812,23.135-22.515c-9.76-10.87-16.989-11.646-24.219-5.047S1845.575,1046.755,1845.575,1046.755Z" transform="translate(-1795.389 -1000.336)" fill="#3e3734"/>
      <path id="Path_3639" data-name="Path 3639" d="M1938.84,1029.282s20.242,12.005,23.136,21.709c7.952-11.256,10.121-23.291,1.807-31.443S1942.092,1024.653,1938.84,1029.282Z" transform="translate(-1729.234 -998.751)" fill="#3e3734"/>
      <path id="Path_3788" data-name="Path 3788" d="M14.734,0C22.669-.16,28.941,8.089,28.742,18.426S21.948,37.275,14.012,37.437-.195,29.351,0,19.013,6.8.165,14.734,0Z" transform="matrix(0.957, -0.291, 0.291, 0.957, 204.018, 113.489)" fill="#fffdfd"/>
      <path id="Path_3789" data-name="Path 3789" d="M19.013,0C29.351-.195,37.6,6.077,37.437,14.012s-8.674,14.53-19.011,14.729S-.16,22.669,0,14.734,8.676.2,19.013,0Z" transform="matrix(0.291, -0.957, 0.957, 0.291, 85.442, 139.578)" fill="#fffdfd"/>
      <path id="Path_3640" data-name="Path 3640" d="M1919.31,1094.357c8.315,0,17.82-.388,18.309,4.658s-8.55,14.363-17.948,11.258-22.05-15.931-11.2-15.924Z" transform="translate(-1752.723 -955.033)" fill="#160200"/>
      <path id="Path_3641" data-name="Path 3641" d="M1905.7,1111.569l26.75.776S1916.907,1125.156,1905.7,1111.569Z" transform="translate(-1751.766 -944.24)" fill="#160200"/>
      <ellipse id="Ellipse_370" data-name="Ellipse 370" cx="7.049" cy="7.181" rx="7.049" ry="7.181" transform="translate(217.92 118.511)" fill="#160200"/>
      <ellipse id="Ellipse_371" data-name="Ellipse 371" cx="3.313" cy="3.376" rx="3.313" ry="3.376" transform="translate(223.567 120.168)" fill="#fffdfd"/>
      <ellipse id="Ellipse_372" data-name="Ellipse 372" cx="7.049" cy="7.181" rx="7.049" ry="7.181" transform="translate(98.167 118.511)" fill="#160200"/>
      <ellipse id="Ellipse_373" data-name="Ellipse 373" cx="3.313" cy="3.376" rx="3.313" ry="3.376" transform="translate(103.814 120.168)" fill="#fffdfd"/>
    </g>
  </g>
</svg>
