<svg xmlns="http://www.w3.org/2000/svg" width="639.657" height="350.556" viewBox="0 0 639.657 350.556">
  <g id="Group_3305" data-name="Group 3305" transform="translate(12042 13970.354)">
    <g id="Group_3303" data-name="Group 3303" transform="translate(-12671 -14171.453)">
      <path id="Path_3546" data-name="Path 3546" d="M3065.04-3007.472c29.2-2.347,84.071-16.188,84.593-67.361s-74.933-50.129-86.943-48.823-85.637,9.138-87.2,59.006S3035.8-3005.122,3065.04-3007.472Z" transform="translate(-2346.457 3558.805)" fill="#019e96"/>
      <g id="Group_2348" data-name="Group 2348" transform="translate(290.385 411.082)">
        <g id="Group_2346" data-name="Group 2346">
          <path id="Path_3549" data-name="Path 3549" d="M454.152,87.007a1.331,1.331,0,0,1-.893-.342l-5.216-4.688c-4.842-4.345-9.849-8.838-14.668-13.3A1.334,1.334,0,0,1,433.4,66.7q4.773-4.173,9.488-8.346c4.19-3.7,8.38-7.395,12.639-11.093a1.334,1.334,0,0,1,1.84.087q5.465,5.733,10.858,11.535,3.986,4.26,7.986,8.508a1.335,1.335,0,0,1-.131,1.954C469.159,74.935,462,80.72,455.019,86.688A1.335,1.335,0,0,1,454.152,87.007Zm-17.875-19.28c4.467,4.115,9.078,8.253,13.547,12.265l4.35,3.908c6.349-5.4,12.818-10.643,19.111-15.729q-3.513-3.726-7.006-7.469-4.967-5.312-9.962-10.594c-3.922,3.414-7.792,6.829-11.661,10.243Q440.477,64.04,436.277,67.727Z" fill="#ffc517"/>
        </g>
        <g id="Group_2347" data-name="Group 2347" transform="translate(44.106 -50.909)">
          <path id="Path_3550" data-name="Path 3550" d="M339.949,138.075a1.335,1.335,0,0,1-1.041-2.168c2.937-3.671,6.066-7.27,9.379-11.079,1.849-2.126,3.722-4.28,5.588-6.479a1.334,1.334,0,0,1,2.035,1.726c-1.873,2.208-3.753,4.371-5.609,6.5-3.295,3.789-6.407,7.367-9.31,11A1.332,1.332,0,0,1,339.949,138.075Z" fill="#ff8e9e"/>
        </g>
        <g id="Group_2078" data-name="Group 2078" transform="translate(45.232 -135)">
          <path id="Path_2779" data-name="Path 2779" d="M367.159,247.186c-3.5,0-5.742-1.531-7.723-2.883-1.681-1.147-3.133-2.138-5.156-2.138a7.732,7.732,0,0,0-5.994,3.452,1.093,1.093,0,0,1-1.8-1.246l.017-.024a9.936,9.936,0,0,1,7.773-4.368c2.7,0,4.574,1.281,6.388,2.518,1.886,1.288,3.668,2.5,6.491,2.5,3.579,0,5.12-1.482,6.752-3.052,1.542-1.483,3.136-3.017,6.2-3.017,2.4,0,4.455,1.447,6.44,2.846,2.071,1.46,4.213,2.97,6.818,2.97,1.722,0,3.385-1.158,5.145-2.384a14.607,14.607,0,0,1,5.6-2.811,1.093,1.093,0,0,1,.412,2.147l-.029.005a12.849,12.849,0,0,0-4.734,2.453c-1.96,1.365-3.986,2.776-6.395,2.776-3.3,0-5.837-1.79-8.078-3.369-1.862-1.313-3.47-2.447-5.181-2.447-2.183,0-3.286,1.062-4.684,2.407C373.73,245.156,371.619,247.186,367.159,247.186Z" fill="#ffc517"/>
        </g>
      </g>
    </g>
    <g id="Group_3302" data-name="Group 3302" transform="translate(-12707.721 -14150.922)">
      <path id="Path_3548" data-name="Path 3548" d="M89.583,116.58c29.2-2.347,84.071-16.188,84.593-67.361S99.243-.911,87.233.4,1.6,9.533.029,59.4,60.341,118.93,89.583,116.58Z" transform="translate(699.404 180.567) rotate(13)" fill="#ffc517"/>
      <g id="Group_2079" data-name="Group 2079" transform="translate(15.825 216.404)">
        <path id="Path_2780" data-name="Path 2780" d="M793.05,55.8a1.095,1.095,0,0,1-1.569,1.224A275.339,275.339,0,0,0,764.99,44.889a1.1,1.1,0,0,1-.689-.817,1.092,1.092,0,0,1,.336-1.015c6-5.473,11.679-10.882,18.47-17.388a1.092,1.092,0,0,1,1.545.033,1.08,1.08,0,0,1,.25.416C788.1,35.884,790.616,46.006,793.05,55.8ZM767.418,43.479c7.058,2.767,16.065,7.006,22.926,10.5-2.1-8.46-4.306-17.125-6.984-25.529-5.769,5.523-10.77,10.279-15.943,15.025Z" fill="#ff8e9e"/>
      </g>
      <g id="Group_2080" data-name="Group 2080" transform="translate(-142.175 228.402)">
        <path id="Path_2781" data-name="Path 2781" d="M888.271,29.035a7.657,7.657,0,0,0-2.425-.4c-4.778,0-8.706,4.592-8.706,8.923a7.636,7.636,0,0,0,7.677,7.6c.1,0,.21,0,.315-.008a9.223,9.223,0,0,0,9.54-8.628,10.543,10.543,0,0,0-2.7-5.631A7.953,7.953,0,0,0,888.271,29.035Z" fill="#e68c8c"/>
      </g>
    </g>
    <g id="Group_3304" data-name="Group 3304" transform="translate(0 -542)">
      <path id="Path_4562" data-name="Path 4562" d="M89.583,116.58c29.2-2.347,84.071-16.188,84.593-67.361S99.243-.911,87.233.395,1.6,9.533.029,59.4,60.341,118.929,89.583,116.58Z" transform="translate(-11566.018 -13283.424) rotate(20)" fill="#ff8e9e"/>
      <g id="Group_2077" data-name="Group 2077" transform="translate(-12557.584 -13297.394)">
        <g id="Group_2075" data-name="Group 2075">
          <path id="Path_2774" data-name="Path 2774" d="M1024.634,96.788a.82.82,0,0,1-.7-1.255,33.47,33.47,0,0,0,5.143-15.741,6.406,6.406,0,0,1-1.016.081,5.46,5.46,0,0,1-5.666-5.246l0-.079c0-3.859,3.8-7.506,7.817-7.506s8.086,3.5,8.086,10.2c0,6.289-4.807,13.358-13.188,19.393A.822.822,0,0,1,1024.634,96.788Zm5.312-18.875a.82.82,0,0,1,.82.82v.019a34.345,34.345,0,0,1-3.474,14.1c6-5.1,9.369-10.662,9.369-15.611,0-5.881-3.341-8.559-6.446-8.559-3.06,0-6.177,2.96-6.177,5.867a3.839,3.839,0,0,0,3.984,3.688l.044,0a4.96,4.96,0,0,0,1.615-.276.8.8,0,0,1,.266-.046Z" fill="#313131"/>
        </g>
        <g id="Group_2076" data-name="Group 2076">
          <path id="Path_2775" data-name="Path 2775" d="M1044.552,96.788a.82.82,0,0,1-.695-1.255A33.47,33.47,0,0,0,1049,79.792a6.427,6.427,0,0,1-1.017.081,5.46,5.46,0,0,1-5.665-5.247l0-.078c0-3.859,3.8-7.506,7.818-7.506s8.085,3.5,8.085,10.2c0,6.29-4.807,13.359-13.188,19.393A.818.818,0,0,1,1044.552,96.788Zm5.313-18.875a.82.82,0,0,1,.82.82v.019a34.347,34.347,0,0,1-3.474,14.1c6-5.1,9.369-10.662,9.369-15.612,0-5.881-3.341-8.559-6.445-8.559-3.061,0-6.179,2.96-6.179,5.867a3.839,3.839,0,0,0,3.984,3.688l.044,0a4.96,4.96,0,0,0,1.615-.276A.8.8,0,0,1,1049.865,77.913Z" fill="#313131"/>
        </g>
      </g>
      <g id="Group_2078-2" data-name="Group 2078" transform="translate(-12557.584 -13297.394)">
        <path id="Path_2779-2" data-name="Path 2779" d="M1054.492,135.239c-3.5,0-5.742-1.531-7.723-2.883-1.681-1.147-3.133-2.138-5.156-2.138a7.729,7.729,0,0,0-5.994,3.452,1.093,1.093,0,1,1-1.8-1.246l.016-.024a9.936,9.936,0,0,1,7.773-4.368c2.7,0,4.574,1.281,6.388,2.518,1.886,1.288,3.668,2.5,6.491,2.5,3.579,0,5.12-1.482,6.752-3.052,1.542-1.483,3.136-3.017,6.2-3.017,2.4,0,4.455,1.447,6.44,2.846,2.071,1.46,4.213,2.97,6.818,2.97,1.722,0,3.385-1.158,5.145-2.384a14.614,14.614,0,0,1,5.6-2.811,1.093,1.093,0,1,1,.412,2.147l-.029.005a12.835,12.835,0,0,0-4.734,2.453c-1.96,1.365-3.986,2.776-6.395,2.776-3.3,0-5.837-1.79-8.078-3.369-1.862-1.313-3.47-2.447-5.181-2.447-2.183,0-3.286,1.062-4.684,2.407C1061.063,133.208,1058.952,135.239,1054.492,135.239Z" fill="#019e96"/>
      </g>
    </g>
  </g>
</svg>
