<svg xmlns="http://www.w3.org/2000/svg" width="567" height="472.882" viewBox="0 0 567 472.882">
  <g id="Group_3276" data-name="Group 3276" transform="translate(-701.932 -1705)">
    <path id="Path_3555" data-name="Path 3555" d="M3267.074-2744.552c95.07-7.64,273.675-52.7,275.375-219.28s-243.928-163.185-283.024-158.935-278.773,29.747-283.872,192.081S3171.884-2736.9,3267.074-2744.552Z" transform="translate(-2273.525 4875.051)" fill="#fff1be"/>
    <g id="Group_2806" data-name="Group 2806" transform="translate(743.992 1705)">
      <path id="Path_4078" data-name="Path 4078" d="M3567.541,1091.716c0,12.758,13.831,32.663,27.863,30.153,28.575-5.111,27.332-18.788,25.545-32.157-1.689-12.646-13.343-21.1-27.6-21.1S3567.541,1078.957,3567.541,1091.716Z" transform="translate(-3377.677 -1057.929)" fill="#313131"/>
      <rect id="Rectangle_1424" data-name="Rectangle 1424" width="21.141" height="53.806" rx="10.571" transform="matrix(0.993, -0.121, 0.121, 0.993, 211.759, 38.853)" fill="#ffc517"/>
      <path id="Path_4079" data-name="Path 4079" d="M3617.363,1108.714h.009l-.5-4.111a9.069,9.069,0,0,0,2.559-.9c3.283-1.73,4.949-5.018,3.721-7.345-1.15-2.184-4.443-2.744-7.559-1.371a21.661,21.661,0,0,0-42.634,7.368l1.409,11.585.007,0c.012.1.017.206.03.31a21.66,21.66,0,0,0,43-5.224C3617.4,1108.918,3617.377,1108.817,3617.363,1108.714Z" transform="translate(-3383.55 -1060.094)" fill="#ffc517"/>
      <circle id="Ellipse_549" data-name="Ellipse 549" cx="2.528" cy="2.528" r="2.528" transform="translate(194.137 43.611)" fill="#313131"/>
      <circle id="Ellipse_550" data-name="Ellipse 550" cx="2.528" cy="2.528" r="2.528" transform="translate(208.954 41.811)" fill="#313131"/>
      <path id="Path_4080" data-name="Path 4080" d="M3617.77,1112.483l-.015,9.646,0,1.364-1.152-.9,2.512-.178c1.324-.094,1.579,1.958.25,2.053l-2.512.178a1.041,1.041,0,0,1-1.151-.9l.015-9.645,0-1.364a1.066,1.066,0,0,1,.9-1.152,1.039,1.039,0,0,1,1.151.9Z" transform="translate(-3413.319 -1067.757)" fill="#313131"/>
      <path id="Path_4081" data-name="Path 4081" d="M3608.6,1133.644l.053,0c.212.007-.312,0-.122,0,.157,0,.315,0,.473-.01a11.37,11.37,0,0,0,1.577-.172q.234-.043.468-.1c.115-.028.186-.1-.015.006a1.471,1.471,0,0,1,.255-.074,6.343,6.343,0,0,0,.9-.349c.069-.034.137-.071.206-.106.164-.084-.2.124.052-.035a4.042,4.042,0,0,0,.37-.268c.027-.023.166-.177.193-.173-.052-.007-.161.173-.007,0a2.432,2.432,0,0,0,.163-.2c.041-.052.2-.311.046-.047a1.061,1.061,0,0,1,1.359-.539,1.042,1.042,0,0,1,.538,1.36c-1.351,2.284-4.338,2.86-6.812,2.754a1.037,1.037,0,0,1-.871-1.175,1.064,1.064,0,0,1,1.175-.871Z" transform="translate(-3401.902 -1072.313)" fill="#313131"/>
      <g id="shadow-4" transform="translate(137.031 456.158)">
        <ellipse id="Ellipse_244" data-name="Ellipse 244" cx="39.022" cy="6.768" rx="39.022" ry="6.768" transform="translate(0 3.187)" fill="#e0d098"/>
        <ellipse id="Ellipse_245" data-name="Ellipse 245" cx="25.085" cy="3.982" rx="25.085" ry="3.982" transform="translate(129.811)" fill="#e0d098"/>
      </g>
      <g id="back_line-4" data-name="back line-4" transform="translate(0 50.275)">
        <g id="Group_1666" data-name="Group 1666" transform="translate(400.352)">
          <g id="Group_1662" data-name="Group 1662">
            <path id="Path_2304" data-name="Path 2304" d="M3297.07,1176.963a.948.948,0,0,0,.319-.061,67.318,67.318,0,0,0,16.165-9.245,23.352,23.352,0,0,0,10.63,2.62c13.309,0,24.981-11.292,24.981-24.161,0-14.185-11.477-26.167-25.064-26.167a20.7,20.7,0,0,0-7.751,1.482,12.943,12.943,0,0,1-1.6.476,13.082,13.082,0,0,0-2.082.641c-9.023,4.011-13.062,14.17-13.062,22.461a25.416,25.416,0,0,0,5.73,15.957,88.976,88.976,0,0,1-8.973,14.587.885.885,0,0,0,.714,1.429Zm16.4-11.239a.879.879,0,0,0-.541.184,69.238,69.238,0,0,1-13.265,8.115,89.091,89.091,0,0,0,7.521-12.819.892.892,0,0,0-.125-.953,23.68,23.68,0,0,1-5.68-15.242c0-7.716,3.713-17.147,12.011-20.839a11.609,11.609,0,0,1,1.791-.54,14.75,14.75,0,0,0,1.829-.541,19,19,0,0,1,7.1-1.354c12.408,0,23.289,11.4,23.289,24.392,0,11.927-10.843,22.387-23.206,22.387a21.7,21.7,0,0,1-10.3-2.669.839.839,0,0,0-.422-.12Z" transform="translate(-3296.175 -1119.949)" fill="#313131"/>
          </g>
          <g id="Group_1663" data-name="Group 1663" transform="translate(35.321 22.357)">
            <path id="Path_2305" data-name="Path 2305" d="M3313.467,1156.292a3.457,3.457,0,0,0,3.438-3.473v-.067a3.878,3.878,0,0,0-1.667-3.173,3.061,3.061,0,0,0-1.763-.642c-2.381,0-3.919,1.314-3.919,3.35A4.213,4.213,0,0,0,3313.467,1156.292Zm0-5.58a1.385,1.385,0,0,1,.744.321,2.111,2.111,0,0,1,.92,1.719,1.686,1.686,0,0,1-1.6,1.763h-.067c-1.478,0-2.144-1.711-2.144-2.23,0-1.369,1.346-1.574,2.144-1.574Z" transform="translate(-3309.556 -1148.938)" fill="#313131"/>
          </g>
          <g id="Group_1664" data-name="Group 1664" transform="translate(25.246 21.907)">
            <path id="Path_2306" data-name="Path 2306" d="M3326.959,1155.392a3.424,3.424,0,0,0,3.161-3.67h0v-.1a3.041,3.041,0,0,0-2.794-3.267h-.23a4.43,4.43,0,0,0-3.145,1.2,2.457,2.457,0,0,0-.625,1.693A4.066,4.066,0,0,0,3326.959,1155.392Zm.378-5.28a1.43,1.43,0,0,1,1,1.51c0,.967-.478,2-1.38,2a2.382,2.382,0,0,1-1.866-2.367.861.861,0,0,1,.114-.453,2.668,2.668,0,0,1,1.878-.672.823.823,0,0,0,.252-.012Z" transform="translate(-3323.325 -1148.355)" fill="#313131"/>
          </g>
          <g id="Group_1665" data-name="Group 1665" transform="translate(15.42 20.854)">
            <path id="Path_2307" data-name="Path 2307" d="M3339.748,1153.981a3.4,3.4,0,0,0,3.142-3.572,3.244,3.244,0,0,0-2.894-3.4c-.175-.015-.352-.024-.528-.024a3.414,3.414,0,0,0-3.3,3.53h0v.012A3.671,3.671,0,0,0,3339.748,1153.981Zm-.28-5.222a3.016,3.016,0,0,1,.381.017,1.482,1.482,0,0,1,1.269,1.629c0,.872-.55,1.8-1.37,1.8a1.906,1.906,0,0,1-1.8-1.667c0-.028.064-1.781,1.52-1.781Z" transform="translate(-3336.17 -1146.989)" fill="#313131"/>
          </g>
        </g>
        <g id="Group_1669" data-name="Group 1669" transform="translate(0 205.663)">
          <g id="Group_1667" data-name="Group 1667">
            <path id="Path_2308" data-name="Path 2308" d="M3835.379,1447.983a30.119,30.119,0,0,0,22.708-50.628,77.876,77.876,0,0,1,5.984-9.309.887.887,0,0,0-.888-1.4,46.759,46.759,0,0,0-13.928,5.137,51.1,51.1,0,0,0-8.782-2.21,36.393,36.393,0,0,0-6.307-.557,31.435,31.435,0,0,0-19.124,6.211,23.575,23.575,0,0,0-9.05,19.291C3806.008,1433.674,3821.513,1447.983,3835.379,1447.983Zm25.891-59.082a80.936,80.936,0,0,0-5.06,8.2.891.891,0,0,0,.16,1.053c.115.112.24.238.347.346a28.341,28.341,0,0,1-21.338,47.707c-13.027,0-27.6-13.551-27.6-31.675,0-16.3,13.685-23.725,26.4-23.725a34.705,34.705,0,0,1,6,.531,47.959,47.959,0,0,1,8.848,2.265.88.88,0,0,0,.757-.057,45.208,45.208,0,0,1,11.491-4.649Z" transform="translate(-3805.982 -1386.624)" fill="#313131"/>
          </g>
          <g id="Group_1668" data-name="Group 1668" transform="translate(16.042 16.878)">
            <path id="Path_2309" data-name="Path 2309" d="M3841.21,1434.645a13.321,13.321,0,0,0,13.924-12.685c0-.2.015-.392.015-.59,0-8.776-9.318-12.86-15.612-12.86-5.563,0-11.548,2.955-11.548,9.44,0,5.494,3.951,8.86,6.1,8.86a4.075,4.075,0,0,0,3.932-3.311,7.183,7.183,0,0,0,6.064,4.7,4.508,4.508,0,0,0,4.444-4.57v-.076a7.545,7.545,0,0,0-7.562-7.528h-.3a11.9,11.9,0,0,0-2.874.373,3.8,3.8,0,0,0-.85,1.571c0,4.683-.952,7.055-2.858,7.055a6.925,6.925,0,0,1-4.33-7.085c0-6.055,6.142-7.666,9.766-7.666,5.582,0,13.841,3.524,13.841,11.09a11.477,11.477,0,0,1-11.432,11.52c-.237,0-.49,0-.738-.019a17.7,17.7,0,0,1-11.193-4.584.891.891,0,1,0-1.43,1.063v0A19.139,19.139,0,0,0,3841.21,1434.645Zm-.533-16.84a5.772,5.772,0,0,1,6.071,5.459v.287a2.724,2.724,0,0,1-2.572,2.858h-.1c-2.218,0-5.343-2.62-5.357-8.409A9.716,9.716,0,0,1,3840.677,1417.8Z" transform="translate(-3827.988 -1408.509)" fill="#313131"/>
          </g>
        </g>
        <g id="Group_1670" data-name="Group 1670" transform="translate(317.77 396.906)">
          <path id="Path_2310" data-name="Path 2310" d="M3417.182,1637.229c11.432-.271,24.011-.562,41.173-.852a.887.887,0,1,0-.032-1.774c-17.165.293-29.748.583-41.162.854a.887.887,0,0,0-.877.9v0a.887.887,0,0,0,.9.876h0Z" transform="translate(-3416.284 -1634.602)" fill="#313131"/>
        </g>
        <g id="Group_1671" data-name="Group 1671" transform="translate(205.79 398.478)">
          <path id="Path_2311" data-name="Path 2311" d="M3579.271,1638.646c6.528,0,12.562-.019,18.233-.057a.888.888,0,0,0,.881-.891h0a.861.861,0,0,0-.842-.881h-.052c-9.38.061-19.766.073-31.728.033-10.677-.036-20.7-.107-29.788-.21a.887.887,0,1,0-.019,1.774h0c9.094.1,19.119.174,29.8.209C3570.5,1638.638,3574.992,1638.646,3579.271,1638.646Z" transform="translate(-3535.078 -1636.64)" fill="#313131"/>
        </g>
        <g id="Group_1672" data-name="Group 1672" transform="translate(111.933 395.99)">
          <path id="Path_2312" data-name="Path 2312" d="M3729.594,1636a.886.886,0,0,0,.037-1.772h0c-7.892-.276-16.435-.565-26.437-.812a.908.908,0,0,0-.908.865.889.889,0,0,0,.866.906h0C3713.134,1635.43,3721.68,1635.72,3729.594,1636Z" transform="translate(-3702.281 -1633.413)" fill="#313131"/>
        </g>
        <g id="Group_1673" data-name="Group 1673" transform="translate(289.779 274.338)">
          <path id="Path_2313" data-name="Path 2313" d="M3388.765,1544.054a.888.888,0,0,0,.872-1.046,115.611,115.611,0,0,1-2.038-20.481c0-30.961,16.292-45.077,31.437-45.077,5.528,0,11.909,3.379,17.5,9.274,11.08,11.67,16.83,30.1,15.771,50.566a.887.887,0,0,0,1.24.858,18.56,18.56,0,0,1,20.393,4.048.886.886,0,0,0,1.257-1.249l0,0a20.4,20.4,0,0,0-21.06-4.94c.757-20.4-5.156-38.75-16.319-50.505-5.929-6.245-12.779-9.827-18.79-9.827-10.408,0-19.1,5.216-25.143,15.085a62.552,62.552,0,0,0-8.062,31.767,114.121,114.121,0,0,0,1.644,18.337,42.2,42.2,0,0,0-21.634-9.849.883.883,0,1,0-.145,1.76c7.04.6,15.653,4.822,22.485,11.029A.893.893,0,0,0,3388.765,1544.054Z" transform="translate(-3364.875 -1475.672)" fill="#313131"/>
        </g>
        <g id="Group_1674" data-name="Group 1674" transform="translate(223.523 356.317)">
          <path id="Path_2314" data-name="Path 2314" d="M3556.259,1632.594a.89.89,0,0,0,.885-.893.906.906,0,0,0-.114-.434,19.658,19.658,0,0,1-2.273-10.082c0-23.444,10.386-37.44,27.775-37.44.429,0,.86,0,1.294.026a.873.873,0,0,0,.918-.826h0v-.024a.885.885,0,0,0-.848-.922h0c-.456-.019-.91-.029-1.365-.029-18.5,0-29.544,14.66-29.544,39.215a21.361,21.361,0,0,0,2.5,10.956A.894.894,0,0,0,3556.259,1632.594Z" transform="translate(-3552.966 -1581.971)" fill="#313131"/>
        </g>
        <g id="Group_1675" data-name="Group 1675" transform="translate(337.596 274.978)">
          <path id="Path_2315" data-name="Path 2315" d="M3436.825,1595.265a.877.877,0,0,0,.325-.062.889.889,0,0,0,.5-1.15c-4.191-10.67-6.737-19.229-6.737-48.075a194.287,194.287,0,0,1,11.368-68.275.89.89,0,1,0-1.667-.623,196,196,0,0,0-11.48,68.9c0,29.158,2.594,37.868,6.861,48.725A.893.893,0,0,0,3436.825,1595.265Z" transform="translate(-3429.113 -1476.502)" fill="#313131"/>
        </g>
        <g id="Group_1676" data-name="Group 1676" transform="translate(316.844 292.29)">
          <path id="Path_2316" data-name="Path 2316" d="M3464.869,1518.384a.886.886,0,0,0,.886-.885h0a.886.886,0,0,0-.477-.781,91.651,91.651,0,0,1-22.984-17.493.884.884,0,0,0-1.251-.029h0a.886.886,0,0,0-.03,1.253h0a93.408,93.408,0,0,0,23.43,17.831A.867.867,0,0,0,3464.869,1518.384Z" transform="translate(-3440.767 -1498.951)" fill="#313131"/>
        </g>
        <g id="Group_1677" data-name="Group 1677" transform="translate(310.743 318.898)">
          <path id="Path_2317" data-name="Path 2317" d="M3471.667,1553.852a.885.885,0,0,0,.386-1.684,105.259,105.259,0,0,1-26.727-18.471.886.886,0,0,0-1.252.031h0a.888.888,0,0,0,.031,1.252h0a107.084,107.084,0,0,0,27.176,18.779A.9.9,0,0,0,3471.667,1553.852Z" transform="translate(-3443.831 -1533.452)" fill="#313131"/>
        </g>
        <g id="Group_1678" data-name="Group 1678" transform="translate(235.447 361.968)">
          <path id="Path_2318" data-name="Path 2318" d="M3571.129,1627.807a.885.885,0,0,0,.889-.884.933.933,0,0,0-.059-.326,174.979,174.979,0,0,0-20.939-36.981.886.886,0,0,0-1.43,1.04,173.215,173.215,0,0,1,20.721,36.589A.882.882,0,0,0,3571.129,1627.807Z" transform="translate(-3549.454 -1589.299)" fill="#313131"/>
        </g>
      </g>
      <path id="Path_2319" data-name="Path 2319" d="M3600.026,1158.416c-1.243.238-2.485.477-3.742.731a96.576,96.576,0,0,0,2.9,12.723c2.114-2.423,4.176-4.907,6.521-7.112l-5.677-6.482Z" transform="translate(-3383.804 -1078.442)" fill="#fff"/>
      <path id="Path_2320" data-name="Path 2320" d="M3581.37,1153.743a57.555,57.555,0,0,1-9.725,10.1c3.383,2.217,7.622,5.239,11.506,8.336.679-6.06,1.43-12.068,2.191-18.076-1.255.09-2.5.2-3.741.321C3581.521,1154.19,3581.448,1153.96,3581.37,1153.743Z" transform="translate(-3344.444 -1077.405)" fill="#fff"/>
      <path id="Path_2321" data-name="Path 2321" d="M3502.163,1220.329c9.239,23.432,15.044,34.49,23.05,63.879h.012c.076-.447.155-.872.238-1.293,35.936-1.627,57.244-7.6,81.843-17.988a52.8,52.8,0,0,0-1.345-10.3c-5.817-25.073-11.582-32.58-22.125-60.492,7.457,6.392,14.554,12.234,22.355,18.463a186.7,186.7,0,0,0,20.434-20.972A197.5,197.5,0,0,0,3591.5,1158a22.39,22.39,0,0,0-12.211-4.409,254.593,254.593,0,0,0-33.913.36c-.769,6.009-1.512,12.017-2.191,18.079-3.882-3.1-8.124-6.111-11.508-8.336q-1.428,1.191-3.062,2.46l-2.242-2.574c-2.346,2.2-4.409,4.69-6.521,7.111a96.794,96.794,0,0,1-2.9-12.721c-4.985,1-10.032,2.165-15.21,3.5a22.524,22.524,0,0,0-15.22,13.337,478.716,478.716,0,0,0-20.243,60.2,215.331,215.331,0,0,1,25.032,10.262c3.707-7.919,7.1-16.014,10.443-24.791Z" transform="translate(-3304.468 -1077.28)" fill="#fff"/>
      <path id="Path_2322" data-name="Path 2322" d="M3730.486,1250.917a1.861,1.861,0,0,0-1.6,2.091v0a2.1,2.1,0,0,0,.048.238l5.8,20.958c5.7,2,11.433,3.933,17.131,6.047q-.33,4.494-.41,8.993h.923c2.775,0,5.557-.038,8.349-.193a1.84,1.84,0,0,0,1.712-1.961h0a1.845,1.845,0,0,0-.135-.574l-.239-.551-14.514-35.157a1.836,1.836,0,0,0-1.776-1.147C3740.7,1249.9,3735.585,1250.3,3730.486,1250.917Z" transform="translate(-3642.806 -1099.35)" fill="#313131"/>
      <path id="Path_2323" data-name="Path 2323" d="M3746.406,1281.071l-3.809-1.346a124.55,124.55,0,0,0,6.521,21.306c4.933,1.475,9.636,2.768,14.145,3.871q-.171-3.191-.167-6.381c0-.807.012-1.6.026-2.407q.073-4.5.41-8.993C3757.837,1285.008,3752.107,1283.079,3746.406,1281.071Z" transform="translate(-3654.473 -1106.228)" fill="#ffc517"/>
      <path id="Path_2324" data-name="Path 2324" d="M3641.761,1291.432c0,.807-.026,1.6-.026,2.408,0,2.127.049,4.254.164,6.381v.012a146.489,146.489,0,0,0,49.147,4.689,20.342,20.342,0,0,0,16.078-10.376c4.762-8.56,8.954-16.672,12.825-25.008a215.869,215.869,0,0,0-25.033-10.261c-1.527,5.676-3.027,11.608-4.525,17.911a203.336,203.336,0,0,0-38,10.957l.238.55a1.842,1.842,0,0,1-1,2.4h0a1.936,1.936,0,0,1-.575.134c-2.793.155-5.574.192-8.353.192Z" transform="translate(-3533.106 -1101.55)" fill="#ffc517"/>
      <path id="Path_2325" data-name="Path 2325" d="M3644.615,1624.146a2.54,2.54,0,0,0-1.525,4.42c15.516,13.9,23.074,18,33.541,22.78a3.506,3.506,0,0,0,4.644-1.737v0a3.291,3.291,0,0,0,.223-.657c1.025-4.406,1.821-8.891,2.423-13.4a159.13,159.13,0,0,0-22.97-11.669v-.039c-1.6-.038-3.334-.051-5.406-.051C3651.892,1623.807,3648.242,1623.908,3644.615,1624.146Z" transform="translate(-3497.476 -1184.946)" fill="#313131"/>
      <path id="Path_2326" data-name="Path 2326" d="M3491.284,1549.34v.039a159.351,159.351,0,0,1,22.974,11.669,121.611,121.611,0,0,1,10.288,7.047c8.786-48.453,15.554-83.117,24.893-117.215,3.754-13.734,7.93-27.388,12.837-41.8a90.139,90.139,0,0,0,11.966-10.622c9.429-9.622,19.179-21.753,24.531-27.981,17.092-19.884,32.836-46.918,31.875-72.386-24.6,10.391-45.905,16.361-81.844,17.988-.077.422-.154.846-.238,1.294-2.62,15.054-3.728,42.984-4.882,55.693C3514.595,1419.048,3500.25,1468.109,3491.284,1549.34Z" transform="translate(-3327.817 -1110.429)" fill="#019e96"/>
      <path id="Path_2330" data-name="Path 2330" d="M3497.4,1438.839c-4.907,14.413-9.084,28.07-12.838,41.8,22,33.926,35.425,60.561,53.936,102.251,2.358-1.115,4.715-2.218,7.071-3.334a132.412,132.412,0,0,0,21.51-12.172c1.346-.953,2.641-1.987,3.908-3.048-22.268-47.108-38.552-75.771-66.363-108.21q2.015-14.033,4.737-27.9A90.145,90.145,0,0,1,3497.4,1438.839Z" transform="translate(-3262.933 -1140.204)" fill="#019e96"/>
      <path id="Path_2331" data-name="Path 2331" d="M3485.363,1633.348a4.884,4.884,0,0,0,3.091,6.174h0a4.886,4.886,0,0,0,3.573-.193,159.948,159.948,0,0,0,20.525-11.193,3.752,3.752,0,0,0,1.666-3.663,107.849,107.849,0,0,0-3.446-15.8,132.665,132.665,0,0,1-21.509,12.172C3488.256,1624.515,3486.856,1628.785,3485.363,1633.348Z" transform="translate(-3206.627 -1181.489)" fill="#313131"/>
      <path id="Path_2332" data-name="Path 2332" d="M3438.1,1203.032A186.774,186.774,0,0,1,3417.665,1224c4.227,3.356,8.672,6.828,13.492,10.543,4.828,46.224,12.582,71.465,28.876,94.295a36.926,36.926,0,0,0,9.841,9.05q1.822,1.072,3.622,2.143a120.6,120.6,0,0,1,2.1-15.028,75.753,75.753,0,0,1-11.338-8.238c-2.563-29.979-5.137-55.053-8.711-84.032a29.79,29.79,0,0,0-5.173-13.5C3446.271,1213.4,3442.212,1208.033,3438.1,1203.032Z" transform="translate(-3115.949 -1088.682)" fill="#ffc517"/>
      <g id="Group_1679" data-name="Group 1679" transform="translate(189.297 122.217)">
        <path id="Path_2333" data-name="Path 2333" d="M3628.631,1292.132a.89.89,0,0,0,.886-.891h0a.955.955,0,0,0-.033-.238,359.978,359.978,0,0,0-15.149-42.314c-1.905-4.625-3.866-9.408-6.05-14.944-2.493-6.288-4.949-12.808-7.511-19.936a.886.886,0,0,0-1.14-.519h0a.886.886,0,0,0-.526,1.118c2.569,7.145,5.031,13.683,7.531,19.987,2.187,5.547,4.156,10.336,6.059,14.965a358.352,358.352,0,0,1,15.085,42.133A.888.888,0,0,0,3628.631,1292.132Z" transform="translate(-3599.057 -1213.232)" fill="#313131"/>
      </g>
      <g id="Group_1680" data-name="Group 1680" transform="translate(187.75 148.336)">
        <path id="Path_2334" data-name="Path 2334" d="M3630.963,1263.757a.9.9,0,0,0,.81-.522c2.17-4.806,4.239-9.686,6.325-14.918a.887.887,0,1,0-1.647-.657h0c-2.074,5.209-4.135,10.065-6.295,14.847a.883.883,0,0,0,.438,1.169l0,0a.871.871,0,0,0,.364.079Z" transform="translate(-3630.077 -1247.101)" fill="#313131"/>
      </g>
      <g id="Group_1681" data-name="Group 1681" transform="translate(91.106 173.976)">
        <path id="Path_2335" data-name="Path 2335" d="M3758.968,1299.706a.886.886,0,0,0,.886-.886h0c0-3.7.145-7.561.428-11.489a.88.88,0,0,0-.573-.9c-4.124-1.528-8.321-2.984-12.385-4.391q-2.38-.824-4.762-1.668a.886.886,0,0,0-.586,1.668l4.763,1.667c3.846,1.333,7.814,2.712,11.718,4.148-.258,3.741-.386,7.423-.386,10.955a.885.885,0,0,0,.881.891h.017Z" transform="translate(-3741.441 -1280.346)" fill="#fff"/>
      </g>
      <g id="Group_1683" data-name="Group 1683" transform="translate(162.05 80.737)">
        <path id="Path_2337" data-name="Path 2337" d="M3613.888,1233.224a.886.886,0,0,0,.854-.652,475.131,475.131,0,0,1,19.1-55.987,21.7,21.7,0,0,1,14.621-12.813c3.681-.953,7.308-1.812,10.786-2.57a.886.886,0,0,0-.358-1.736h-.019c-3.5.762-7.145,1.634-10.853,2.587a23.485,23.485,0,0,0-15.821,13.864,476.16,476.16,0,0,0-19.164,56.183.884.884,0,0,0,.621,1.088h0A.785.785,0,0,0,3613.888,1233.224Z" transform="translate(-3613.001 -1159.447)" fill="#313131"/>
      </g>
      <g id="Group_1684" data-name="Group 1684" transform="translate(226.308 75.78)">
        <path id="Path_2338" data-name="Path 2338" d="M3582.9,1172.887a.888.888,0,0,0,.88-.788c.6-5.312,1.27-10.882,2.189-18.064v-.126a.887.887,0,1,0-1.773,0v0c-.825,6.392-1.453,11.554-2.009,16.407-3.238-2.525-6.929-5.166-10.316-7.383a.883.883,0,0,0-1.224.251l0,0a.889.889,0,0,0,.256,1.228h0c3.793,2.484,7.961,5.5,11.432,8.279A.883.883,0,0,0,3582.9,1172.887Z" transform="translate(-3570.502 -1153.02)" fill="#313131"/>
      </g>
      <g id="Group_1685" data-name="Group 1685" transform="translate(211.596 79.824)">
        <path id="Path_2339" data-name="Path 2339" d="M3598.908,1172.753a.879.879,0,0,0,.669-.3l1.078-1.235a76.154,76.154,0,0,1,5.384-5.811.887.887,0,1,0-1.214-1.294,78.363,78.363,0,0,0-5.512,5.954,96.985,96.985,0,0,1-2.419-11.038.893.893,0,0,0-.877-.762.878.878,0,0,0-.886.872v0h0a.726.726,0,0,0,.011.162,96.25,96.25,0,0,0,2.922,12.836.892.892,0,0,0,.666.6A1.1,1.1,0,0,0,3598.908,1172.753Z" transform="translate(-3595.13 -1158.264)" fill="#313131"/>
      </g>
      <g id="Group_1686" data-name="Group 1686" transform="translate(243.272 75.031)">
        <path id="Path_2340" data-name="Path 2340" d="M3544.542,1190.1a.886.886,0,0,0,.889-.883.875.875,0,0,0-.208-.575,198.2,198.2,0,0,0-33.5-31.616,23.194,23.194,0,0,0-12.7-4.581,258.847,258.847,0,0,0-30.75.118.884.884,0,0,0-.829.939v.026a.9.9,0,0,0,.952.827,256.825,256.825,0,0,1,30.539-.119,21.434,21.434,0,0,1,11.725,4.233,196.333,196.333,0,0,1,33.209,31.328A.876.876,0,0,0,3544.542,1190.1Z" transform="translate(-3467.446 -1152.048)" fill="#313131"/>
      </g>
      <g id="Group_1687" data-name="Group 1687" transform="translate(278.481 115.973)">
        <path id="Path_2341" data-name="Path 2341" d="M3514.936,1267.4a.914.914,0,0,0,.2-.023.885.885,0,0,0,.665-1.062h0a194.422,194.422,0,0,0-12.77-37.479c-2.382-5.6-5.054-11.858-8.151-19.872,5.6,4.764,11.194,9.364,17.387,14.335a.886.886,0,0,0,1.245-.138h0a.887.887,0,0,0-.135-1.245h0c-7.145-5.743-13.5-11-19.979-16.557a.884.884,0,0,0-1.248.087l0,0a.88.88,0,0,0-.157.9c3.645,9.643,6.712,16.838,9.417,23.187a192.818,192.818,0,0,1,12.675,37.184A.884.884,0,0,0,3514.936,1267.4Z" transform="translate(-3491.93 -1205.137)" fill="#313131"/>
      </g>
      <g id="Group_1688" data-name="Group 1688" transform="translate(220.734 290.215)">
        <path id="Path_2342" data-name="Path 2342" d="M3568.235,1482.182a.893.893,0,0,0,.855-.653c3.791-13.875,7.957-27.445,12.727-41.48a78.611,78.611,0,0,0,8.736-7.454.887.887,0,0,0-1.231-1.276h0a75.228,75.228,0,0,1-8.759,7.444.867.867,0,0,0-.331.441c-4.823,14.166-9.026,27.865-12.861,41.856a.885.885,0,0,0,.618,1.089l0,0A.976.976,0,0,0,3568.235,1482.182Z" transform="translate(-3567.338 -1431.07)" fill="#313131"/>
      </g>
      <g id="Group_1689" data-name="Group 1689" transform="translate(217.82 229.895)">
        <path id="Path_2343" data-name="Path 2343" d="M3574.354,1382.079a.888.888,0,0,0,.743-.4c5.876-8.955,12.368-17.917,19.853-27.388a.887.887,0,0,0-1.393-1.1v0c-7.515,9.527-14.051,18.527-19.942,27.524a.884.884,0,0,0,.254,1.226l0,0a.9.9,0,0,0,.476.145Z" transform="translate(-3573.468 -1352.855)" fill="#fff"/>
      </g>
      <g id="Group_1690" data-name="Group 1690" transform="translate(9.284 368.58)">
        <path id="Path_2344" data-name="Path 2344" d="M3869.258,1543.606a.889.889,0,0,0,.536-1.6,11.344,11.344,0,0,1-4.018-8.479.913.913,0,0,0-.924-.847.885.885,0,0,0-.849.917v0h0a13.138,13.138,0,0,0,4.721,9.817A.887.887,0,0,0,3869.258,1543.606Z" transform="translate(-3864.003 -1532.682)" fill="#313131"/>
      </g>
      <g id="Group_1691" data-name="Group 1691" transform="translate(279.155 195.515)">
        <path id="Path_2345" data-name="Path 2345" d="M3517.395,1326.764a.887.887,0,0,0,.169-1.758c-5.367-.976-10.185-2.427-10.185-9.356a16.31,16.31,0,0,1,1.359-6.148.885.885,0,1,0-1.635-.681,18.012,18.012,0,0,0-1.492,6.823c0,8.291,6.008,10.076,11.641,11.1A1.268,1.268,0,0,0,3517.395,1326.764Z" transform="translate(-3505.612 -1308.276)" fill="#fff"/>
      </g>
      <g id="Group_1692" data-name="Group 1692" transform="translate(324.312 182.385)">
        <path id="Path_2346" data-name="Path 2346" d="M3457.314,1293.672a10.763,10.763,0,0,0,2.619-.429c.346-.085.691-.174,1.037-.238a.886.886,0,0,0-.348-1.738h0c-.371.074-.745.167-1.12.259a6.945,6.945,0,0,1-2.838.315.886.886,0,0,0-1.046.691v0a.886.886,0,0,0,.691,1.045h0A5.088,5.088,0,0,0,3457.314,1293.672Z" transform="translate(-3455.6 -1291.25)" fill="#fff"/>
      </g>
      <g id="Group_1693" data-name="Group 1693" transform="translate(324.888 188.689)">
        <path id="Path_2347" data-name="Path 2347" d="M3455.742,1301.772a23.063,23.063,0,0,0,4.475-.591.887.887,0,1,0-.34-1.74,21.473,21.473,0,0,1-4.134.557.887.887,0,1,0,0,1.775Z" transform="translate(-3454.853 -1299.425)" fill="#fff"/>
      </g>
      <g id="symbols-4" transform="translate(65.743)">
        <g id="Group_1694" data-name="Group 1694" transform="translate(53.975 111.253)">
          <path id="Path_2348" data-name="Path 2348" d="M3706.144,1211.487a1.2,1.2,0,0,0,.631-.184l16.119-10.182a1.184,1.184,0,0,0-1.25-1.993l-16.12,10.181a1.192,1.192,0,0,0,.634,2.182Z" transform="translate(-3704.994 -1199.016)" fill="#fec739"/>
        </g>
        <g id="Group_1695" data-name="Group 1695" transform="translate(0 381.231)">
          <path id="Path_2349" data-name="Path 2349" d="M3788.272,1550.134a9.576,9.576,0,0,1,5.281,8.612,7.551,7.551,0,0,1-7.365,7.723h-.431a9.979,9.979,0,0,1-9.748-10.052c0-5.089,5.373-7.331,8.055-7.331A9.319,9.319,0,0,1,3788.272,1550.134Z" transform="translate(-3776.009 -1549.086)" fill="#ff8e9e"/>
        </g>
        <g id="Group_1696" data-name="Group 1696" transform="translate(398.173 353.059)">
          <path id="Path_2350" data-name="Path 2350" d="M3264.8,1512.988a8.225,8.225,0,0,1,2.62-.431,10,10,0,0,1,9.417,9.653,8.258,8.258,0,0,1-8.3,8.214h-.345a9.978,9.978,0,0,1-10.321-9.333,11.41,11.41,0,0,1,2.918-6.089A8.583,8.583,0,0,1,3264.8,1512.988Z" transform="translate(-3257.873 -1512.557)" fill="#019e96"/>
        </g>
        <g id="Group_1697" data-name="Group 1697" transform="translate(47.93 278.477)">
          <path id="Path_2351" data-name="Path 2351" d="M3719.883,1431.532a1.18,1.18,0,0,0,.606-.169,33.637,33.637,0,0,0,10.062-11.067c.551-.827,1.1-1.653,1.667-2.467a1.191,1.191,0,0,0-.1-1.681h0a1.19,1.19,0,0,0-1.68.1h0a1.3,1.3,0,0,0-.159.238c-.571.824-1.131,1.668-1.69,2.5a31.415,31.415,0,0,1-9.315,10.353,1.19,1.19,0,0,0,.609,2.2Z" transform="translate(-3718.717 -1415.849)" fill="#019e96"/>
        </g>
        <g id="Group_1698" data-name="Group 1698" transform="translate(36.03 67.716)">
          <path id="Path_2352" data-name="Path 2352" d="M3742.381,1165.174a1.191,1.191,0,0,0,1.058-.653,74.268,74.268,0,0,0,5.414-17.507q.343-1.557.7-3.132a1.19,1.19,0,0,0-2.3-.528q-.358,1.58-.715,3.148a72.289,72.289,0,0,1-5.217,16.962,1.192,1.192,0,0,0,.549,1.591,1.18,1.18,0,0,0,.506.121Z" transform="translate(-3741.198 -1142.564)" fill="#ff8e9e"/>
        </g>
        <g id="Group_1699" data-name="Group 1699" transform="translate(227.428)">
          <path id="Path_2353" data-name="Path 2353" d="M3496.75,1067.653a1.192,1.192,0,0,0,.532-2.241c-3.793-1.9-7.677-4.322-11.433-6.669-2.081-1.3-4.231-2.643-6.354-3.891a1.191,1.191,0,0,0-1.56.636h0a1.188,1.188,0,0,0,.37,1.4c2.1,1.232,4.231,2.565,6.3,3.859,3.812,2.382,7.733,4.832,11.625,6.778A1.2,1.2,0,0,0,3496.75,1067.653Z" transform="translate(-3477.843 -1054.759)" fill="#fec739"/>
        </g>
        <g id="Group_1700" data-name="Group 1700" transform="translate(335.574 275.364)">
          <path id="Path_2354" data-name="Path 2354" d="M3338.052,1425.979a1.19,1.19,0,0,0,.646-.193c1.99-1.3,3.885-2.723,5.717-4.1a53.008,53.008,0,0,1,12.22-7.536,1.192,1.192,0,0,0-.622-2.3h0a1.137,1.137,0,0,0-.257.1A55.646,55.646,0,0,0,3343,1419.8c-1.8,1.352-3.67,2.75-5.594,4.01a1.189,1.189,0,0,0-.316,1.653l.009.014a1.193,1.193,0,0,0,.952.516Z" transform="translate(-3336.879 -1411.812)" fill="#ff8e9e"/>
        </g>
      </g>
      <path id="Path_4082" data-name="Path 4082" d="M3583.016,1094.077s10.657,4.084,18.665-3.966c3.852-3.871,11.376-2.068,12.825,3.309.724,2.688,3.413,2.875,5.922,2.388a21.611,21.611,0,0,0,4.835-1.645s2.361-21.327-18.033-19.565C3582.659,1076.721,3583.016,1094.077,3583.016,1094.077Z" transform="translate(-3393.219 -1059.274)" fill="#313131"/>
    </g>
  </g>
</svg>
