<svg xmlns="http://www.w3.org/2000/svg" xmlns:xlink="http://www.w3.org/1999/xlink" width="667.576" height="549.25" viewBox="0 0 667.576 549.25">
  <defs>
    <radialGradient id="radial-gradient" cx="0.5" cy="0.5" r="0.309" gradientUnits="objectBoundingBox">
      <stop offset="0" stop-color="#f76d6d"/>
      <stop offset="1" stop-color="#f7a5a5" stop-opacity="0"/>
    </radialGradient>
  </defs>
  <g id="Group_3274" data-name="Group 3274" transform="translate(-634.081 -139)">
    <g id="Group_2811" data-name="Group 2811" transform="translate(-2416.08 -2247.775)">
      <path id="Path_3544-2" data-name="Path 3544-2" d="M3386.282,2567.763c52.819-14.855,269.255-88.866,308.716,86.3s-122.964,233.232-298.129,250.556-411.566-102.579-330.116-270.445C3145.672,2471.519,3263.09,2602.411,3386.282,2567.763Z" fill="#fff1be"/>
      <path id="Union_7" data-name="Union 7" d="M10453.082,15992.862c9.109-51.448,12.466-68.431,12.466-68.431a51.724,51.724,0,0,1,51.017-51.718c20.951-6.727,49.389-14.637,75.273-17.729,48.134-5.75,114.591,2.236,149.436,27.246q.545.387,1.078.786l.079.059a48.833,48.833,0,0,1,4.6,3.9l.051.049.016.016q1.443,1.378,2.774,2.862c27.762,30.709,31.723,99.076,31.723,99.076s-82.59,30.295-182.593,30.3C10551.952,16019.28,10501.067,16012.578,10453.082,15992.862Z" transform="translate(-7236.25 -13112.807)" fill="#fff" stroke="rgba(0,0,0,0)" stroke-miterlimit="10" stroke-width="1"/>
      <path id="Path_4113" data-name="Path 4113" d="M3404.063,2388.545c52.819-14.855,246.89,63.724,286.35,238.889s-103.844,267.756-293.544,277.183c-175.8,8.737-411.566-102.579-330.116-270.445C3145.673,2471.519,3280.871,2423.194,3404.063,2388.545Z" fill="none"/>
      <path id="Path_3522" data-name="Path 3522" d="M3439.343,2936.025" fill="#019e96"/>
      <path id="Path_3525" data-name="Path 3525" d="M3375.985,2591.185" fill="#313131"/>
      <path id="Path_3526" data-name="Path 3526" d="M3434.052,2744.082" fill="#313131"/>
      <path id="Union_6" data-name="Union 6" d="M10529.077,16079.262l-2.205-38.878a76.826,76.826,0,0,1-40.812-64.669h-.007l-.542-9.553a31.867,31.867,0,0,1-10.685-2.746c-12.012-5.379-18.657-16.639-14.843-25.155,3.278-7.327,13.237-10.231,23.606-7.474,0-.248,0-.5,0-.749a76.83,76.83,0,0,1,153.573-3.651l.278,4.9c10.962-3.564,21.846-.755,25.308,6.972,3.813,8.513-2.836,19.776-14.847,25.155a32.49,32.49,0,0,1-8.5,2.506l.063,1.094h0q.19,2.7.19,5.451a76.809,76.809,0,0,1-39.44,67.135l2.015,35.51a36.638,36.638,0,0,1-34.5,38.652c-.705.04-1.408.06-2.105.06A36.633,36.633,0,0,1,10529.077,16079.262Z" transform="translate(-7184.755 -13347.829)" fill="#fec739" stroke="rgba(0,0,0,0)" stroke-miterlimit="10" stroke-width="1"/>
      <circle id="Ellipse_580" data-name="Ellipse 580" cx="8.967" cy="8.967" r="8.967" transform="translate(3332.716 2592.982)" fill="#313131"/>
      <circle id="Ellipse_581" data-name="Ellipse 581" cx="8.967" cy="8.967" r="8.967" transform="translate(3385.577 2589.984)" fill="#313131"/>
      <path id="Path_4114" data-name="Path 4114" d="M3362.237,2599.131l-2.25,34.141-.318,4.828c-.135,2.048,2.087,3.466,3.87,3.454l8.933-.06c4.724-.031,4.3-7.355-.416-7.324l-8.932.06,3.869,3.455,2.25-34.141.318-4.829c.131-1.979-2.064-3.556-3.869-3.454-2.181.124-3.324,1.884-3.455,3.87Z" fill="#313131"/>
      <path id="Path_4115" data-name="Path 4115" d="M3358.706,2659.713c8.291,2.912,19.023,4.039,25.967-2.32,1.422-1.3,1-4.061-.426-5.171a3.782,3.782,0,0,0-5.171.427c.8-.737-.016-.023-.2.114q-.371.275-.764.517c-.64.393-.18-.058.026.013-.112-.039-.708.331-.837.385a13.62,13.62,0,0,1-1.534.531c-1,.284.428-.053-.209.065-.231.043-.462.09-.694.129a22.159,22.159,0,0,1-3.527.277,4.6,4.6,0,0,0-.937-.014c.415-.1.7.037.057,0q-.847-.054-1.691-.151a39.973,39.973,0,0,1-5.456-1.022c-.567-.146-1.128-.311-1.69-.476-.648-.19,1.127.368.416.132l-.183-.062c-1.8-.633-4.064-.216-4.887,1.741-.7,1.673-.2,4.208,1.741,4.888Z" fill="#313131"/>
      <path id="Union_5" data-name="Union 5" d="M10460.155,16022.729c-24.349-16.085,17.529-75.353,73.971-78.705q5.229-.311,10.007-.321c-3.328-8.871-4.44-21.389-2.5-34.892,3.555-24.783,16.028-43.492,27.859-41.8,4.981.715,9.055,4.933,11.837,11.425,12.134-12.585,25.535-18.351,33.249-13.18,7.319,4.906,7.474,18.294,1.46,33.323,5.333-.162,9.663,1.257,12.3,4.434,7.637,9.189-1.774,29.605-21.023,45.6a91.378,91.378,0,0,1-11.971,8.451,48.715,48.715,0,0,1,10.9,11.16c7.451,8.781,21.377,27.556,21.377,45.21,0,17.773-16.373,4.87-25.733-10.12-5.595,8.251-12.465,15-18.685,11.582-13.48-7.391-10-35.651-10-35.651s-18.7,30.435-43.477,27.392c-22.75-2.79-6.663-30.867-3.87-35.454-3.811,6.08-34.566,54-57.488,54A14.584,14.584,0,0,1,10460.155,16022.729Z" transform="translate(-7169.571 -13438.897)" fill="#313131" stroke="rgba(0,0,0,0)" stroke-miterlimit="10" stroke-width="1"/>
      <path id="Path_4116" data-name="Path 4116" d="M3492.94,2761.5a48.242,48.242,0,0,0-14.179,5.528,55.12,55.12,0,0,0-23,24.213,67.066,67.066,0,0,0-6.068,23.021c-.989,10.938.7,21.681,2.171,32.493l6.048,44.349a76.343,76.343,0,0,0,1.053,7.72v.011c.219,1.607,2.277,2.484,3.69,2.095,1.733-.476,2.316-2.078,2.1-3.69l-.72-5.28-4.988-36.58-2.461-18.043a116.42,116.42,0,0,1-1.218-15.235c-.009-2.3.069-4.6.249-6.9q.12-1.547.3-3.087c.024-.2.05-.4.075-.6.12-.96-.048.321.034-.245q.116-.8.248-1.608a62.685,62.685,0,0,1,2.872-11.091c.286-.789.595-1.567.909-2.345.048-.119.231-.528-.015.035.1-.224.195-.449.295-.672q.246-.552.5-1.1,1.047-2.216,2.3-4.328,1.182-2,2.541-3.883c.209-.289.422-.575.635-.861.084-.114.171-.225.257-.338-.485.638-.045.059.049-.057.456-.564.913-1.126,1.388-1.674a51.59,51.59,0,0,1,5.747-5.665c.466-.392.944-.768,1.417-1.151.135-.11.448-.339-.182.139l.425-.324q.386-.29.778-.574,1.406-1.018,2.874-1.946a55.655,55.655,0,0,1,5.523-3.061,17.45,17.45,0,0,0,2.479-1.122c-.765.544-.36.149-.033.018.184-.074.368-.149.553-.222q.579-.228,1.162-.443c1.821-.671,3.666-1.169,5.539-1.658.082-.021.167-.035.251-.051a3.026,3.026,0,0,0,2.095-3.69,3.064,3.064,0,0,0-3.69-2.095Z" fill="#313131"/>
      <path id="Path_4117" data-name="Path 4117" d="M3271.4,2767.285a30.961,30.961,0,0,1,3.9,1.053q1.006.326,2,.693.532.2,1.06.406c.385.152,1.526.653.578.228,1.769.794,3.518,1.6,5.215,2.544a54.7,54.7,0,0,1,5.674,3.612q.356.259.707.523c.143.108.284.216.425.324-.041-.032-.57-.454-.182-.139.521.422,1.047.837,1.558,1.271q1.486,1.262,2.876,2.631,1.456,1.44,2.8,2.992c.451.523.887,1.058,1.321,1.6.094.116.534.7.049.057.086.113.172.224.257.338.256.344.511.688.761,1.036a52.2,52.2,0,0,1,4.71,8.036q.258.547.5,1.1c.1.223.2.448.295.672-.044-.1-.228-.561-.015-.035.346.857.685,1.715,1,2.585q.934,2.616,1.622,5.313.7,2.742,1.163,5.538c.316,1.9.513,3.546.684,5.859.8,10.736-.911,21.219-2.355,31.807l-5.794,42.488q-.505,3.709-1.012,7.419v.009a3.1,3.1,0,0,0,2.1,3.69c1.4.385,3.47-.479,3.69-2.095l.746-5.473,5.225-38.313q1.265-9.279,2.53-18.558a108.182,108.182,0,0,0,1.095-15.748,71.719,71.719,0,0,0-4.255-24.486,55.772,55.772,0,0,0-22.341-27.57,51.2,51.2,0,0,0-16.7-7.131c-.092-.019-.184-.039-.276-.056a3.082,3.082,0,0,0-3.69,2.095,3.025,3.025,0,0,0,2.095,3.69Z" fill="#313131"/>
      <path id="Path_4118" data-name="Path 4118" d="M3341.026,2691.215s12.028,10.2,32.548,9.388c-24.1,18.306-22.3,5.108-29.736,22.328C3342.8,2710.364,3341.026,2691.215,3341.026,2691.215Z" fill="#313131"/>
    </g>
    <g id="Group_2812" data-name="Group 2812" transform="translate(33 -27.531)">
      <path id="Path_3546" data-name="Path 3546" d="M3065.04-3007.472c29.2-2.347,84.071-16.188,84.593-67.361s-74.933-50.129-86.943-48.823-85.637,9.138-87.2,59.006S3035.8-3005.122,3065.04-3007.472Z" transform="translate(-2346.457 3558.805)" fill="#019e96"/>
      <g id="Group_2348" data-name="Group 2348" transform="translate(290.385 411.082)">
        <g id="Group_2346" data-name="Group 2346">
          <path id="Path_3549" data-name="Path 3549" d="M454.152,87.007a1.331,1.331,0,0,1-.893-.342l-5.216-4.688c-4.842-4.345-9.849-8.838-14.668-13.3A1.334,1.334,0,0,1,433.4,66.7q4.773-4.173,9.488-8.346c4.19-3.7,8.38-7.395,12.639-11.093a1.334,1.334,0,0,1,1.84.087q5.465,5.733,10.858,11.535,3.986,4.26,7.986,8.508a1.335,1.335,0,0,1-.131,1.954C469.159,74.935,462,80.72,455.019,86.688A1.335,1.335,0,0,1,454.152,87.007Zm-17.875-19.28c4.467,4.115,9.078,8.253,13.547,12.265l4.35,3.908c6.349-5.4,12.818-10.643,19.111-15.729q-3.513-3.726-7.006-7.469-4.967-5.312-9.962-10.594c-3.922,3.414-7.792,6.829-11.661,10.243Q440.477,64.04,436.277,67.727Z" fill="#ffc517"/>
        </g>
        <g id="Group_2347" data-name="Group 2347" transform="translate(44.106 -50.909)">
          <path id="Path_3550" data-name="Path 3550" d="M339.949,138.075a1.335,1.335,0,0,1-1.041-2.168c2.937-3.671,6.066-7.27,9.379-11.079,1.849-2.126,3.722-4.28,5.588-6.479a1.334,1.334,0,0,1,2.035,1.726c-1.873,2.208-3.753,4.371-5.609,6.5-3.295,3.789-6.407,7.367-9.31,11A1.332,1.332,0,0,1,339.949,138.075Z" fill="#ff8e9e"/>
        </g>
        <g id="Group_2078" data-name="Group 2078" transform="translate(45.232 -135)">
          <path id="Path_2779" data-name="Path 2779" d="M367.159,247.186c-3.5,0-5.742-1.531-7.723-2.883-1.681-1.147-3.133-2.138-5.156-2.138a7.732,7.732,0,0,0-5.994,3.452,1.093,1.093,0,0,1-1.8-1.246l.017-.024a9.936,9.936,0,0,1,7.773-4.368c2.7,0,4.574,1.281,6.388,2.518,1.886,1.288,3.668,2.5,6.491,2.5,3.579,0,5.12-1.482,6.752-3.052,1.542-1.483,3.136-3.017,6.2-3.017,2.4,0,4.455,1.447,6.44,2.846,2.071,1.46,4.213,2.97,6.818,2.97,1.722,0,3.385-1.158,5.145-2.384a14.607,14.607,0,0,1,5.6-2.811,1.093,1.093,0,0,1,.412,2.147l-.029.005a12.849,12.849,0,0,0-4.734,2.453c-1.96,1.365-3.986,2.776-6.395,2.776-3.3,0-5.837-1.79-8.078-3.369-1.862-1.313-3.47-2.447-5.181-2.447-2.183,0-3.286,1.062-4.684,2.407C373.73,245.156,371.619,247.186,367.159,247.186Z" fill="#ffc517"/>
        </g>
      </g>
    </g>
    <g id="Group_2813" data-name="Group 2813" transform="translate(-3.721 -7)">
      <path id="Path_3548" data-name="Path 3548" d="M89.583,116.58c29.2-2.347,84.071-16.188,84.593-67.361S99.243-.911,87.233.4,1.6,9.533.029,59.4,60.341,118.93,89.583,116.58Z" transform="translate(699.404 180.567) rotate(13)" fill="#ffc517"/>
      <g id="Group_2079" data-name="Group 2079" transform="translate(15.825 216.404)">
        <path id="Path_2780" data-name="Path 2780" d="M793.05,55.8a1.095,1.095,0,0,1-1.569,1.224A275.339,275.339,0,0,0,764.99,44.889a1.1,1.1,0,0,1-.689-.817,1.092,1.092,0,0,1,.336-1.015c6-5.473,11.679-10.882,18.47-17.388a1.092,1.092,0,0,1,1.545.033,1.08,1.08,0,0,1,.25.416C788.1,35.884,790.616,46.006,793.05,55.8ZM767.418,43.479c7.058,2.767,16.065,7.006,22.926,10.5-2.1-8.46-4.306-17.125-6.984-25.529-5.769,5.523-10.77,10.279-15.943,15.025Z" fill="#ff8e9e"/>
      </g>
      <g id="Group_2080" data-name="Group 2080" transform="translate(-142.175 228.402)">
        <path id="Path_2781" data-name="Path 2781" d="M888.271,29.035a7.657,7.657,0,0,0-2.425-.4c-4.778,0-8.706,4.592-8.706,8.923a7.636,7.636,0,0,0,7.677,7.6c.1,0,.21,0,.315-.008a9.223,9.223,0,0,0,9.54-8.628,10.543,10.543,0,0,0-2.7-5.631A7.953,7.953,0,0,0,888.271,29.035Z" fill="#e68c8c"/>
      </g>
    </g>
    <path id="Path_3547" data-name="Path 3547" d="M89.583,116.58c29.2-2.347,84.071-16.188,84.593-67.361S99.243-.911,87.233.395,1.6,9.533.029,59.4,60.341,118.929,89.583,116.58Z" transform="translate(1137.982 318.498) rotate(20)" fill="#ff8e9e"/>
    <g id="Group_2077" data-name="Group 2077" transform="translate(146.417 304.528)">
      <g id="Group_2075" data-name="Group 2075">
        <path id="Path_2774" data-name="Path 2774" d="M1024.634,96.788a.82.82,0,0,1-.7-1.255,33.47,33.47,0,0,0,5.143-15.741,6.406,6.406,0,0,1-1.016.081,5.46,5.46,0,0,1-5.666-5.246l0-.079c0-3.859,3.8-7.506,7.817-7.506s8.086,3.5,8.086,10.2c0,6.289-4.807,13.358-13.188,19.393A.822.822,0,0,1,1024.634,96.788Zm5.312-18.875a.82.82,0,0,1,.82.82v.019a34.345,34.345,0,0,1-3.474,14.1c6-5.1,9.369-10.662,9.369-15.611,0-5.881-3.341-8.559-6.446-8.559-3.06,0-6.177,2.96-6.177,5.867a3.839,3.839,0,0,0,3.984,3.688l.044,0a4.96,4.96,0,0,0,1.615-.276.8.8,0,0,1,.266-.046Z" fill="#313131"/>
      </g>
      <g id="Group_2076" data-name="Group 2076">
        <path id="Path_2775" data-name="Path 2775" d="M1044.552,96.788a.82.82,0,0,1-.695-1.255A33.47,33.47,0,0,0,1049,79.792a6.427,6.427,0,0,1-1.017.081,5.46,5.46,0,0,1-5.665-5.247l0-.078c0-3.859,3.8-7.506,7.818-7.506s8.085,3.5,8.085,10.2c0,6.29-4.807,13.359-13.188,19.393A.818.818,0,0,1,1044.552,96.788Zm5.313-18.875a.82.82,0,0,1,.82.82v.019a34.347,34.347,0,0,1-3.474,14.1c6-5.1,9.369-10.662,9.369-15.612,0-5.881-3.341-8.559-6.445-8.559-3.061,0-6.179,2.96-6.179,5.867a3.839,3.839,0,0,0,3.984,3.688l.044,0a4.96,4.96,0,0,0,1.615-.276A.8.8,0,0,1,1049.865,77.913Z" fill="#313131"/>
      </g>
    </g>
    <g id="Group_2078-2" data-name="Group 2078" transform="translate(146.417 304.528)">
      <path id="Path_2779-2" data-name="Path 2779" d="M1054.492,135.239c-3.5,0-5.742-1.531-7.723-2.883-1.681-1.147-3.133-2.138-5.156-2.138a7.729,7.729,0,0,0-5.994,3.452,1.093,1.093,0,1,1-1.8-1.246l.016-.024a9.936,9.936,0,0,1,7.773-4.368c2.7,0,4.574,1.281,6.388,2.518,1.886,1.288,3.668,2.5,6.491,2.5,3.579,0,5.12-1.482,6.752-3.052,1.542-1.483,3.136-3.017,6.2-3.017,2.4,0,4.455,1.447,6.44,2.846,2.071,1.46,4.213,2.97,6.818,2.97,1.722,0,3.385-1.158,5.145-2.384a14.614,14.614,0,0,1,5.6-2.811,1.093,1.093,0,1,1,.412,2.147l-.029.005a12.835,12.835,0,0,0-4.734,2.453c-1.96,1.365-3.986,2.776-6.395,2.776-3.3,0-5.837-1.79-8.078-3.369-1.862-1.313-3.47-2.447-5.181-2.447-2.183,0-3.286,1.062-4.684,2.407C1061.063,133.208,1058.952,135.239,1054.492,135.239Z" fill="#019e96"/>
    </g>
    <circle id="Ellipse_286" data-name="Ellipse 286" cx="19" cy="19" r="19" transform="translate(982 365.21)" opacity="0.514" fill="url(#radial-gradient)"/>
    <circle id="Ellipse_285" data-name="Ellipse 285" cx="19" cy="19" r="19" transform="translate(894 369.339)" opacity="0.514" fill="url(#radial-gradient)"/>
  </g>
</svg>
