<svg xmlns="http://www.w3.org/2000/svg" width="764.641" height="450.932" viewBox="0 0 764.641 450.932">
  <path id="Subtraction_6" data-name="Subtraction 6" d="M10882.14,17472.932H10117.5v-413.768c12.738-4.467,25.895-8.639,39.1-12.406,16.255-4.635,32.686-8.687,48.835-12.041,40.6-8.437,80.194-12.717,117.692-12.717a454.243,454.243,0,0,1,62.188,4.166c10.693,1.49,21.272,3.393,31.441,5.65,10.663,2.367,21.207,5.2,31.34,8.412a253.171,253.171,0,0,1,29.014,11.127,205.327,205.327,0,0,1,24.315,13.158,181.1,181.1,0,0,1,37.184,31.207,205.121,205.121,0,0,1,14.211,17.457c4.116,5.645,8.1,11.627,12.173,18.291,7.568,12.373,14.325,25.289,20.859,37.779l.041.078.018.035.018.025c7.139,13.656,14.521,27.777,22.97,41.156a237.732,237.732,0,0,0,13.641,19.5,183.408,183.408,0,0,0,16.235,18.252,170.655,170.655,0,0,0,19.721,16.6,181.373,181.373,0,0,0,24.085,14.568,220.519,220.519,0,0,0,29.317,12.139,295.457,295.457,0,0,0,35.443,9.313,207.634,207.634,0,0,1,38.255,11.385,160.407,160.407,0,0,1,30.6,16.545,140.017,140.017,0,0,1,41.3,44.75,164.237,164.237,0,0,1,14.587,33.148,209.021,209.021,0,0,1,7.72,34.842,266.4,266.4,0,0,1,2.34,31.344Z" transform="translate(-10117.499 -17022)" fill="#fff"/>
</svg>
