<svg xmlns="http://www.w3.org/2000/svg" xmlns:xlink="http://www.w3.org/1999/xlink" width="270.835" height="237.309" viewBox="0 0 270.835 237.309">
  <defs>
    <clipPath id="clip-path">
      <rect width="270.835" height="237.309" fill="none"/>
    </clipPath>
  </defs>
  <g id="Repeat_Grid_5" data-name="Repeat Grid 5" clip-path="url(#clip-path)">
    <g transform="translate(-1095.166 -530.693)">
      <path id="Subtraction_8" data-name="Subtraction 8" d="M10734,17259.307v0h-270.835c.278-2.672.6-5.311.944-7.844a208.351,208.351,0,0,1,7.722-34.84,163.955,163.955,0,0,1,14.586-33.146,139.958,139.958,0,0,1,41.3-44.746,160.227,160.227,0,0,1,30.592-16.547,207.97,207.97,0,0,1,38.256-11.389c9.366-1.871,18.4-4.092,26.854-6.6a246.053,246.053,0,0,0,23.382-8.213,203.339,203.339,0,0,0,20.255-9.65,179.355,179.355,0,0,0,17.491-10.936,170.923,170.923,0,0,0,15.088-12.059,175.044,175.044,0,0,0,13.032-13.027A215.605,215.605,0,0,0,10734,17022v237.309Z" transform="translate(-9368 -16491.305)" fill="#fff"/>
    </g>
  </g>
</svg>
