<svg xmlns="http://www.w3.org/2000/svg" width="343.874" height="321.479" viewBox="0 0 343.874 321.479">
  <g id="Group_3328" data-name="Group 3328" transform="translate(-1781.144 -7535.649)">
    <path id="Path_4549" data-name="Path 4549" d="M151.593.85c49.421,6.19,142.266,42.7,143.149,177.676s-126.8,132.224-147.126,128.78S2.7,283.2.049,151.668,102.109-5.348,151.593.85Z" transform="matrix(-0.017, -1, 1, -0.017, 1816.718, 7847.391)" fill="#fff3c7"/>
    <g id="Group_3326" data-name="Group 3326" transform="translate(-814.58 5530.631)">
      <path id="Path_3959" data-name="Path 3959" d="M2708.408,2036.709s2.736,12.368-3.009,14.124-7.82,7.5-7.82,7.5l34.786,4.309-2.729-23.855Z" transform="translate(102.741 31.967)" fill="#313131"/>
      <path id="Path_3960" data-name="Path 3960" d="M2725.7,2080.342s-.207,22.936-7.483,26.932c-2.386,1.312-8.867.515-8.867.515l-12.08,43.874,51.37,10.473,29.315-52.448-27.055-1.414.733-27.931s36.908-49.874-2.993-65.835-35.909,21.447-38.4,33.915S2703.755,2079.844,2725.7,2080.342Z" transform="translate(102.43 5.64)" fill="#fec739"/>
      <path id="Path_3961" data-name="Path 3961" d="M2787.113,2145.2c14.063,9.7,28.849,5.3,32.748,3.861a1.622,1.622,0,0,0,1.054-1.426c.339-5.221,1.868-29.269,2.655-50.141.891-23.564-21.784-35.123-30.231-35.123-7.276,0-20.159-.661-23.592-.843a1.639,1.639,0,0,0-1.388.642l-21.054,13.321c-.221.289,5.387,6.937,5.035,7.031l-31.28,8.34a1.644,1.644,0,0,1-1.993-1.1l-3.833-12.265c-.094-.3,6.96-3.046,7.043-3.347l-3.245-11.694a1.644,1.644,0,0,0-1.416-2.065l-26.045-2.722a1.643,1.643,0,0,0-1.814,1.643l.488,115.522a1.646,1.646,0,0,0,1.609,1.639l67.516,1.464a1.644,1.644,0,0,0,1.523-.94l22.832-48.329a1.645,1.645,0,0,1,3.132.755l-.463,14.346A1.676,1.676,0,0,0,2787.113,2145.2Z" transform="translate(94.853 53.105)" fill="#ff8e9e"/>
      <circle id="Ellipse_478" data-name="Ellipse 478" cx="2.454" cy="2.454" r="2.454" transform="translate(2832.653 2048.646)" fill="#313131"/>
      <circle id="Ellipse_479" data-name="Ellipse 479" cx="2.454" cy="2.454" r="2.454" transform="translate(2818.663 2047.523)" fill="#313131"/>
      <path id="Path_3962" data-name="Path 3962" d="M2790.7,2092.53s-35.534,8.463-54.7,2.075c-9.842-16.274,5.05-48.618.559-59.905-5.157-12.956-21.256-12.02-21.256-12.02s-18.733-22.582,33.571-16.678c24.43,2.758,27.614,19.846,26.606,38.5S2763.229,2066.45,2790.7,2092.53Z" transform="translate(117.329 0)" fill="#313131"/>
      <path id="Path_3963" data-name="Path 3963" d="M2731.134,2019.578s-17.09-6.319-19.779,19.233h-13.113s2.9-36.709,30.047-29.783C2754.273,2015.66,2731.134,2019.578,2731.134,2019.578Z" transform="translate(103.41 3.167)" fill="#313131"/>
      <path id="Path_3964" data-name="Path 3964" d="M2644.7,2209.894a15.9,15.9,0,0,1,19.5,16.3c-.974,18.753-3.851,44.44-12.213,52.206,22.825-25.407,38.425-43.974,43.782-68.45a15.8,15.8,0,0,1,12.462-12.094c26.677-5.167,64.127-13.87,84.751-18.764a15.892,15.892,0,0,0,11.869-18.789l-20.253-95.015a15.909,15.909,0,0,0-18.986-12.217l-156.672,34.59a15.9,15.9,0,0,0-12.11,18.919l20.308,93.167a15.9,15.9,0,0,0,19.155,12.1Z" transform="translate(0.748 48.094)" fill="#019e96"/>
      <path id="Path_3965" data-name="Path 3965" d="M2604.4,2101.2l18.738,1.54,2.771,32.92-23.912,3.12s-13.88-36.187-.355-47.9" transform="translate(0 86.614)" fill="#fec739"/>
      <path id="Path_3966" data-name="Path 3966" d="M2666.231,2122.957s2.489,29.853,44.364,21.145c41.876,8.292,71.727,14.1,88.727,14.1s36.9,7.394,42.289-28.021c2.9-25.049,3.316-27.951,3.316-27.951l-34.826-1.243s2.9,21.146-9.122,21.973-67.661,3.624-67.661,3.624a72.054,72.054,0,0,1-14.135,4.949l-7.96,1.868s-18.831-14.951-21.427-20.154C2681.842,2114.96,2666.231,2122.957,2666.231,2122.957Z" transform="translate(71.12 96.799)" fill="#fec739"/>
      <path id="Path_3967" data-name="Path 3967" d="M2739.112,2078.159a376.918,376.918,0,0,0-2.359,45.041" transform="translate(144.635 73.777)" fill="none" stroke="#313131" stroke-linecap="round" stroke-miterlimit="10" stroke-width="2"/>
      <circle id="Ellipse_480" data-name="Ellipse 480" cx="10.713" cy="10.713" r="10.713" transform="translate(2647.851 2178.883)" fill="#fff"/>
      <circle id="Ellipse_481" data-name="Ellipse 481" cx="10.713" cy="10.713" r="10.713" transform="translate(2691.606 2170.412)" fill="#fff"/>
      <circle id="Ellipse_482" data-name="Ellipse 482" cx="10.713" cy="10.713" r="10.713" transform="translate(2733.896 2161.533)" fill="#fff"/>
      <path id="Path_3971" data-name="Path 3971" d="M2780.21,2074.646s-35.533,8.463-54.7,2.075c-7.406-28.8.771-41.869,1.78-53.973" transform="translate(127.818 17.884)" fill="#313131"/>
      <path id="Path_4008" data-name="Path 4008" d="M2820.07,2065.919s3.11,3.741,9.082.747" transform="translate(2.538 0.288)" fill="none" stroke="#313131" stroke-linecap="round" stroke-width="2"/>
      <path id="Path_4009" data-name="Path 4009" d="M2829.371,2048.646l-4.444,14.754h4.444" transform="translate(0 -2.335)" fill="none" stroke="#313131" stroke-linecap="round" stroke-linejoin="round" stroke-width="2"/>
      <path id="Path_4010" data-name="Path 4010" d="M2825.457,2086.831c4.063.094,10.046,1.586,28.83-7.447" fill="none" stroke="#313131" stroke-linecap="round" stroke-width="2"/>
    </g>
  </g>
</svg>
