<svg xmlns="http://www.w3.org/2000/svg" xmlns:xlink="http://www.w3.org/1999/xlink" width="210" height="170" viewBox="0 0 210 170">
  <defs>
    <clipPath id="clip-path">
      <rect x="20" y="24" width="210" height="170" fill="none"/>
    </clipPath>
  </defs>
  <g id="Group_3305" data-name="Group 3305" transform="translate(7804 2882)">
    <g id="Scroll_Group_38" data-name="Scroll Group 38" transform="translate(-7824 -2906)" clip-path="url(#clip-path)" style="isolation: isolate">
      <ellipse id="Ellipse_767" data-name="Ellipse 767" cx="106.5" cy="81.5" rx="106.5" ry="81.5" transform="translate(46.779) rotate(17)" fill="#ffe2e0"/>
    </g>
    <g id="Group_3302" data-name="Group 3302" transform="translate(-8338.557 -4487.319)">
      <path id="Path_2776" data-name="Path 2776" d="M735.011,1904.8c-8.172-8.647-26.574-14.678-47.969-14.678s-39.8,6.031-47.969,14.678H634.56v10.04c0,13.651,23.5,24.718,52.482,24.718s52.482-11.067,52.482-24.718V1904.8Z" transform="translate(-55.003 -187.598)" fill="#019e96"/>
      <ellipse id="Ellipse_254" data-name="Ellipse 254" cx="52.482" cy="24.718" rx="52.482" ry="24.718" transform="translate(579.557 1692.484)" fill="#fec739"/>
      <path id="Path_2777" data-name="Path 2777" d="M778.089,1853.326c-8.172-8.648-26.574-14.678-47.968-14.678s-39.8,6.03-47.969,14.678h-4.513v10.04c0,13.651,23.5,24.718,52.482,24.718s52.481-11.067,52.481-24.718v-10.04Z" transform="translate(-82.134 -155.181)" fill="#019e96"/>
      <ellipse id="Ellipse_255" data-name="Ellipse 255" cx="52.482" cy="24.718" rx="52.482" ry="24.718" transform="translate(595.505 1673.427)" fill="#fec739"/>
      <path id="Path_2778" data-name="Path 2778" d="M747.641,1798.826c-8.172-8.648-26.574-14.678-47.968-14.678s-39.8,6.03-47.969,14.678h-4.513v10.04c0,13.652,23.5,24.718,52.482,24.718s52.482-11.066,52.482-24.718v-10.04Z" transform="translate(-62.958 -120.858)" fill="#019e96"/>
      <ellipse id="Ellipse_256" data-name="Ellipse 256" cx="52.482" cy="24.718" rx="52.482" ry="24.718" transform="translate(584.233 1653.25)" fill="#fec739"/>
      <path id="Path_2782" data-name="Path 2782" d="M764.6,1744.15c-8.172-8.648-26.574-14.678-47.969-14.678s-39.8,6.03-47.968,14.678h-4.513v10.04c0,13.651,23.5,24.718,52.482,24.718s52.482-11.067,52.482-24.718v-10.04Z" transform="translate(-73.639 -86.424)" fill="#019e96"/>
      <ellipse id="Ellipse_257" data-name="Ellipse 257" cx="52.482" cy="24.718" rx="52.482" ry="24.718" transform="translate(590.512 1633.008)" fill="#fec739"/>
      <ellipse id="Ellipse_258" data-name="Ellipse 258" cx="45.384" cy="18.598" rx="45.384" ry="18.598" transform="translate(597.018 1638.287)" fill="#fff"/>
      <path id="Path_2783" data-name="Path 2783" d="M773.537,1782.794c-6.6,6.928-23.047,11.837-42.292,11.837-20.885,0-38.475-5.781-43.761-13.652" transform="translate(-88.334 -118.863)" fill="none" stroke="#313131" stroke-linecap="round" stroke-miterlimit="10" stroke-width="1"/>
      <path id="Path_2784" data-name="Path 2784" d="M829.524,1718.332c15.943,1.287,28.887,6,34.092,12.182" transform="translate(-177.788 -79.408)" fill="none" stroke="#313131" stroke-linecap="round" stroke-miterlimit="10" stroke-width="1"/>
      <path id="Path_2785" data-name="Path 2785" d="M691.647,1731.311c4.624-4.793,13.968-8.61,25.683-10.489" transform="translate(-90.956 -80.976)" fill="none" stroke="#313131" stroke-linecap="round" stroke-miterlimit="10" stroke-width="1"/>
      <ellipse id="Ellipse_503" data-name="Ellipse 503" cx="40" cy="15" rx="40" ry="15" transform="translate(602.557 1642.319)" fill="#fec739"/>
    </g>
  </g>
</svg>
