<?xml version="1.0" encoding="utf-8"?>
<!-- Generator: Adobe Illustrator 25.2.3, SVG Export Plug-In . SVG Version: 6.00 Build 0)  -->
<svg version="1.1" id="圖層_1" xmlns="http://www.w3.org/2000/svg" xmlns:xlink="http://www.w3.org/1999/xlink" x="0px" y="0px"
	 viewBox="0 0 1367 135.2" style="enable-background:new 0 0 1367 135.2;" xml:space="preserve">
<style type="text/css">
	.st0{fill:#F19419;}
	.st1{fill:#FCC35A;}
</style>
<g id="Group_3285" transform="translate(11196.5 3244.724)">
	<path id="Subtraction_17" class="st0" d="M-9829.5-3116.9h-1367v-95.5c30.2,4.5,61.6,8.8,93.2,12.6c38.4,4.6,77.4,8.7,116,12
		c96.1,8.4,191,12.6,282.1,12.6c33.5,0,67-0.6,99.5-1.7c34.5-1.2,68.8-3.1,101.9-5.6c35-2.7,69.7-6.1,103.2-10.2
		c35.2-4.3,69.9-9.5,103.2-15.4c36.9-6.5,73.4-12.3,108.4-17.1c33.3-4.6,66.2-8.4,97.7-11.3c29.8-2.8,59.2-4.9,87.3-6.3
		c26.5-1.3,52.6-1.9,77.4-1.9c33.9,0,66.6,1.2,97.1,3.6L-9829.5-3116.9L-9829.5-3116.9z"/>
	<path id="Subtraction_21" class="st1" d="M-9829.5-3096.8h-1367v-80.4c30.3-7,61-12.1,92-15.3c18.6-2,38.3-3.6,58.4-4.6
		c21.5-1.1,44.2-1.7,67.3-1.7c24.9,0,50.9,0.7,77.4,1.9c28.1,1.4,57.5,3.5,87.3,6.3c31.5,3,64.4,6.8,97.7,11.3
		c35,4.8,71.5,10.5,108.4,17.1c33.3,5.9,68,11.1,103.2,15.4c33.4,4.1,68.2,7.5,103.2,10.2c33.1,2.5,67.4,4.4,101.9,5.6
		c32.5,1.1,65.9,1.7,99.5,1.7c64.8,0,132-2.2,199.8-6.4c56.5-3.6,114-8.6,170.9-15l0,41.2V-3096.8z"/>
</g>
</svg>
