<svg xmlns="http://www.w3.org/2000/svg" width="513.848" height="507.255" viewBox="0 0 513.848 507.255">
  <g id="Group_2830" data-name="Group 2830" transform="translate(0 0)">
    <g id="Group_1759" data-name="Group 1759" transform="translate(104.526 491.565)">
      <ellipse id="Ellipse_248" data-name="Ellipse 248" cx="93.866" cy="7.845" rx="93.866" ry="7.845" transform="translate(0 0)" fill="#acd5ff"/>
    </g>
    <g id="Group_1761" data-name="Group 1761" transform="translate(0 201.094)">
      <g id="Group_1760" data-name="Group 1760" transform="translate(0 0)">
        <path id="Path_2424" data-name="Path 2424" d="M1763.31,1326.091a12.963,12.963,0,0,1-7.78-2.909,9.088,9.088,0,0,0-5.244-2.172,7.873,7.873,0,0,0-6.1,3.51,1.068,1.068,0,0,1-1.888-1,1.127,1.127,0,0,1,.165-.232,10,10,0,0,1,7.823-4.4,10.971,10.971,0,0,1,6.435,2.54,10.934,10.934,0,0,0,6.589,2.54,8.654,8.654,0,0,0,6.86-3.1,8.318,8.318,0,0,1,6.242-3.039,11.782,11.782,0,0,1,6.484,2.868,12.347,12.347,0,0,0,6.921,3.013,10.083,10.083,0,0,0,5.232-2.42,14.769,14.769,0,0,1,5.643-2.834,1.065,1.065,0,0,1,.639,2.032,1.118,1.118,0,0,1-.267.049,13.068,13.068,0,0,0-4.808,2.486,11.685,11.685,0,0,1-6.442,2.8,14.164,14.164,0,0,1-8.141-3.4,10.176,10.176,0,0,0-5.267-2.484,6.346,6.346,0,0,0-4.77,2.447A10.791,10.791,0,0,1,1763.31,1326.091Z" transform="translate(-1742.174 -1317.83)" fill="#fec739"/>
      </g>
    </g>
    <g id="Group_1763" data-name="Group 1763" transform="translate(293.942 331.807)">
      <g id="Group_1762" data-name="Group 1762" transform="translate(0 0)">
        <path id="Path_2425" data-name="Path 2425" d="M2092.175,1491.392a9.915,9.915,0,0,1-10.15-9.674v-.4a12.138,12.138,0,0,1,6.785-11.02h0a11.906,11.906,0,0,1,5.342-1.335c3.537,0,10.464,2.905,10.464,9.615A12.659,12.659,0,0,1,2092.175,1491.392Zm-2.5-19.17a10.131,10.131,0,0,0-5.547,9.082,7.745,7.745,0,0,0,7.526,7.959h.518a10.535,10.535,0,0,0,10.326-10.683c0-5.342-5.892-7.506-8.349-7.506a9.8,9.8,0,0,0-4.477,1.136Z" transform="translate(-2082.024 -1468.959)" fill="#019e96"/>
      </g>
    </g>
    <g id="Group_1765" data-name="Group 1765" transform="translate(355.585 163.916)">
      <g id="Group_1764" data-name="Group 1764">
        <path id="Path_2426" data-name="Path 2426" d="M2153.295,1274.846c5.057,1,10.016,2.246,15.027,3.205.761,5.074,1.237,10.259,1.96,15.352-4.786-.534-9.576-.862-14.29-1.429C2155.208,1286.256,2154.214,1280.556,2153.295,1274.846Z" transform="translate(-2153.295 -1274.846)" fill="#acd5ff"/>
      </g>
    </g>
    <g id="Group_1767" data-name="Group 1767" transform="translate(441.873 71.537)">
      <g id="Group_1766" data-name="Group 1766" transform="translate(0 0)">
        <path id="Path_2427" data-name="Path 2427" d="M2254.09,1186.93a1.07,1.07,0,0,1-.441-2.025c2.441-1.109,4.851-2.23,7.257-3.35a191.158,191.158,0,0,1,34.8-13.509,1.067,1.067,0,0,1,.51,2.056,189.882,189.882,0,0,0-34.419,13.374c-2.4,1.121-4.828,2.249-7.27,3.359A1.086,1.086,0,0,1,2254.09,1186.93Z" transform="translate(-2253.059 -1168.038)" fill="#fec739"/>
      </g>
    </g>
    <g id="Group_1769" data-name="Group 1769" transform="translate(485.677 301.391)">
      <g id="Group_1768" data-name="Group 1768" transform="translate(0 0)">
        <path id="Path_2428" data-name="Path 2428" d="M2318.2,1437.429a1.091,1.091,0,0,1-.266-.033,46.9,46.9,0,0,0-13.02-1.468,1.068,1.068,0,1,1-.279-2.119.928.928,0,0,1,.279,0,48.75,48.75,0,0,1,13.532,1.53,1.065,1.065,0,0,1-.266,2.081Z" transform="translate(-2303.704 -1433.791)" fill="#019e96"/>
      </g>
    </g>
    <g id="Group_1771" data-name="Group 1771" transform="translate(118.031 218.553)">
      <g id="Group_1770" data-name="Group 1770" transform="translate(0 0)">
        <path id="Path_2429" data-name="Path 2429" d="M1898.547,1358.975h-.12c-4.927-.569-11.263-1.186-18.825-1.833a1.066,1.066,0,0,1-.958-1.167,1.028,1.028,0,0,1,.133-.422l.991-1.707a149.146,149.146,0,0,1,9.821-15.414,1.059,1.059,0,0,1,1.837.277c2.223,6.112,5.04,12.2,7.768,18.086l.317.684a1.064,1.064,0,0,1-.956,1.5Zm-17.094-3.806c5.952.518,11.1,1.018,15.351,1.485-2.324-5.018-4.685-10.173-6.678-15.384-3.13,4.353-5.875,9.065-8.52,13.622Z" transform="translate(-1878.639 -1338.016)" fill="#fec739"/>
      </g>
    </g>
    <g id="Group_1773" data-name="Group 1773" transform="translate(19.901 29.757)">
      <g id="Group_1772" data-name="Group 1772" transform="translate(0)">
        <path id="Path_2430" data-name="Path 2430" d="M1766.231,1135.692a1.069,1.069,0,0,1-1.047-1.09h0a1.076,1.076,0,0,1,.3-.719,69.668,69.668,0,0,1,10.094-7.93c2.6-1.8,5.289-3.656,7.958-5.876a1.068,1.068,0,1,1,1.569,1.448,1.191,1.191,0,0,1-.213.179c-2.743,2.284-5.47,4.173-8.109,5.994a67.97,67.97,0,0,0-9.794,7.686A1.068,1.068,0,0,1,1766.231,1135.692Z" transform="translate(-1765.183 -1119.734)" fill="#019e96"/>
      </g>
    </g>
    <g id="Group_1775" data-name="Group 1775" transform="translate(116.559 67.925)">
      <g id="Group_1774" data-name="Group 1774">
        <path id="Path_2431" data-name="Path 2431" d="M1926.534,1163.862a41.158,41.158,0,0,0-11.272,16.664,65.5,65.5,0,0,0-3.079,27.171l-22.81,8.78c-4.493-8.061-8.349-16.448-12.043-24.893l-.393-.732C1895.065,1181.1,1914.122,1171.277,1926.534,1163.862Z" transform="translate(-1876.937 -1163.862)" fill="#fff"/>
      </g>
    </g>
    <g id="Group_1777" data-name="Group 1777" transform="translate(106.69 94.928)">
      <g id="Group_1776" data-name="Group 1776" transform="translate(0 0)">
        <path id="Path_2432" data-name="Path 2432" d="M1887.831,1220.694l-10.494,4.039a195.3,195.3,0,0,1-11.368-23.469l-.442-.8c3.223-1.784,6.527-3.582,9.882-5.38l.392.732C1879.48,1204.246,1883.339,1212.631,1887.831,1220.694Z" transform="translate(-1865.527 -1195.083)" fill="#fff"/>
      </g>
    </g>
    <g id="Group_1779" data-name="Group 1779" transform="translate(267.778 55.702)">
      <g id="Group_1778" data-name="Group 1778" transform="translate(0 0)">
        <path id="Path_2433" data-name="Path 2433" d="M2063.924,1151.361c-.469,5.354-.9,10.745-1.533,16.1-.347,2.922-.753,5.847-1.269,8.745-3.063-.361-6.18-.694-9.348-1.041q.7-5.139,1.305-10.3c.6-5.042,1.166-10.1,1.737-15.131h0C2057.911,1150.273,2060.954,1150.807,2063.924,1151.361Z" transform="translate(-2051.774 -1149.731)" fill="#fff"/>
      </g>
    </g>
    <g id="Group_1781" data-name="Group 1781" transform="translate(179.443 27.16)">
      <g id="Group_1780" data-name="Group 1780" transform="translate(0 0)">
        <path id="Path_2434" data-name="Path 2434" d="M2041.012,1145.262h0c-.574,5.032-1.138,10.088-1.737,15.131q-.608,5.155-1.306,10.3c3.173.347,6.291.683,9.349,1.042,30.1,3.472,55.238,7.668,90.195,14.172a26.279,26.279,0,0,0,.887,8.459,71.393,71.393,0,0,1-26.358,5.4c-32.874,0-34.957-8.314-56.09-8.314-11.464,0-22.666,2.551-34.058,2.564h-.072c-27.143,0-37.642-20.63-51.525-31.9a28.237,28.237,0,0,0-17.361-7.153c-1.127-1.774-2.227-3.547-3.294-5.342,16.974-9.751,32.682-23.648,45.057-23.648,19.084,0,11.515,9.5,23.72,9.5,16.173,0,40.433-12.553,65.29-12.553,10.854,0,9.463,15.048,29.028,15.048,13.021,0,43.114-13.2,63.014-21.24.446,4.493.71,10.038.71,18.593,0,22.043-8.1,37.184-19.11,47.236-23.373-16.827-55.823-26.272-107.218-35.642C2047.157,1146.352,2044.112,1145.813,2041.012,1145.262Z" transform="translate(-1949.643 -1116.731)" fill="#fff"/>
      </g>
    </g>
    <g id="Group_1783" data-name="Group 1783" transform="translate(478.047 245.083)">
      <g id="Group_1782" data-name="Group 1782">
        <path id="Path_2435" data-name="Path 2435" d="M2330.683,1392.189l-9.655,1.677-22.14-13.13c-.945-2.169-2.2-4.709-4.006-8.04l11.044-4.007Z" transform="translate(-2294.883 -1368.69)" fill="#313131"/>
      </g>
    </g>
    <g id="Group_1785" data-name="Group 1785" transform="translate(400.046 249.106)">
      <g id="Group_1784" data-name="Group 1784" transform="translate(0)">
        <path id="Path_2436" data-name="Path 2436" d="M2286.7,1381.367l-.8-.478a568.684,568.684,0,0,1-77.978,20.834,101.114,101.114,0,0,0-3.224-25.337c16.042-.419,35.2-.313,61.061-.024a46.12,46.12,0,0,0,16.2-2.754l.728-.267C2284.5,1376.658,2285.76,1379.2,2286.7,1381.367Z" transform="translate(-2204.7 -1373.341)" fill="#fec739"/>
      </g>
    </g>
    <g id="Group_1787" data-name="Group 1787" transform="translate(387.273 252.159)">
      <g id="Group_1786" data-name="Group 1786">
        <path id="Path_2437" data-name="Path 2437" d="M2205.932,1402.184v1.234c0,1.581-.117,5.008-.311,8.768q-5.967.881-11.581,1.571c.034-1.186.048-2.468.048-3.822a121.781,121.781,0,0,0-4.156-32.586h0c4.062-.193,8.28-.358,12.771-.478A101.037,101.037,0,0,1,2205.932,1402.184Z" transform="translate(-2189.932 -1376.871)" fill="#313131"/>
      </g>
    </g>
    <g id="Group_1789" data-name="Group 1789" transform="translate(168.021 150.303)">
      <g id="Group_1788" data-name="Group 1788">
        <path id="Path_2438" data-name="Path 2438" d="M2060.687,1283.537c21.1,22.677,36.86,44.555,55.682,76.1a9.436,9.436,0,0,0,9.348,4.506c9.8-1.317,19.325-2.18,29.974-2.719h0a121.778,121.778,0,0,1,4.156,32.585c0,1.354,0,2.636-.047,3.822-9.153,1.1-17.6,1.784-25.481,2.1a63.693,63.693,0,0,1-35.126-8.936c-30.117-17.875-56.713-42.912-89.25-81.919-13.142,40.516-23.938,67.1-38.959,95.946a30,30,0,0,0-2.049,22.7c3.473,11.262,6.156,21.515,8.508,32.5-12.3,3.643-27.172,7.745-38.251,10.277a345.276,345.276,0,0,1-2.671-51.034c.083-3.739.226-7.452.443-11.218,1.87-33.425,8.745-69.4,21.119-117.415.408-.1.815-.193,1.224-.3,26.4-6.435,48-15.465,77.054-31.424.4.382.8.756,1.2,1.138C2046.068,1268.353,2053.677,1275.992,2060.687,1283.537Z" transform="translate(-1936.437 -1259.106)" fill="#313131"/>
      </g>
    </g>
    <g id="Group_1791" data-name="Group 1791" transform="translate(277.126 57.337)">
      <g id="Group_1790" data-name="Group 1790" transform="translate(0 0)">
        <path id="Path_2439" data-name="Path 2439" d="M2187,1199.717c-7.212-1.055-21.368-3.043-21.536-3.067a17.555,17.555,0,0,0-11.44,3.74c-.12-.419-.24-.852-.36-1.293a26.215,26.215,0,0,1-.887-8.459c-34.96-6.5-60.1-10.71-90.2-14.173.515-2.9.921-5.823,1.269-8.744.635-5.356,1.068-10.746,1.532-16.1,51.405,9.367,83.847,18.808,107.221,35.639A104.8,104.8,0,0,1,2187,1199.717Z" transform="translate(-2062.582 -1151.621)" fill="#fec739"/>
      </g>
    </g>
    <g id="Group_1793" data-name="Group 1793" transform="translate(151.488 72.556)">
      <g id="Group_1792" data-name="Group 1792" transform="translate(0)">
        <path id="Path_2440" data-name="Path 2440" d="M2033.766,1246.993c-.168.1-.333.179-.491.267-28.969,16.15-51.283,25.2-77.773,31.421-22.738-24.954-33.136-44.514-37.8-69.338q-.041-.469-.072-.935a65.466,65.466,0,0,1,3.079-27.171,43.352,43.352,0,0,0,12.995,1.869,45.143,45.143,0,0,0,32.217-13.889c13.889,11.274,24.381,31.9,51.525,31.9h.073A271.138,271.138,0,0,0,2033.766,1246.993Z" transform="translate(-1917.322 -1169.217)" fill="#019e96"/>
      </g>
    </g>
    <g id="Group_1795" data-name="Group 1795" transform="translate(170.779 351.426)">
      <g id="Group_1794" data-name="Group 1794" transform="translate(0)">
        <path id="Path_2441" data-name="Path 2441" d="M1977.874,1491.641c.945,4.4,1.834,8.913,2.7,13.656-1.991.454-3.978.887-5.981,1.283-8.889,1.869-17.837,3.354-26.8,4.949-2.228.4-4.469.8-6.7,1.221q-.8-5.481-1.474-10.828C1950.707,1499.393,1965.574,1495.282,1977.874,1491.641Z" transform="translate(-1939.626 -1491.641)" fill="#313131"/>
      </g>
    </g>
    <g id="Group_1797" data-name="Group 1797" transform="translate(178.95 366.362)">
      <g id="Group_1796" data-name="Group 1796" transform="translate(0 0)">
        <path id="Path_2442" data-name="Path 2442" d="M1975.87,1508.923a394.085,394.085,0,0,1,3.427,93.814c-2.9-.5-5.775-1.068-8.648-1.642-9.284-32.981-15.145-56.438-21.576-87.236,8.962-1.6,17.9-3.091,26.8-4.95Z" transform="translate(-1949.072 -1508.91)" fill="#fec739"/>
      </g>
    </g>
    <g id="Group_1799" data-name="Group 1799" transform="translate(174.31 458.55)">
      <g id="Group_1798" data-name="Group 1798" transform="translate(0 0)">
        <path id="Path_2443" data-name="Path 2443" d="M1978.569,1617.138c-.385,5.462-.849,11.154-1.389,17.156H1944l-.289-5.919,26.354-12.363c-.047-.169-.1-.348-.144-.516C1972.8,1616.07,1975.674,1616.633,1978.569,1617.138Z" transform="translate(-1943.708 -1615.496)" fill="#313131"/>
      </g>
    </g>
    <g id="Group_1801" data-name="Group 1801" transform="translate(154.879 51.287)">
      <g id="Group_1800" data-name="Group 1800" transform="translate(0 0)">
        <path id="Path_2444" data-name="Path 2444" d="M1966.454,1165.9a45.137,45.137,0,0,1-32.215,13.889,43.523,43.523,0,0,1-13-1.869,41.159,41.159,0,0,1,11.274-16.664c.312-.19.623-.383.935-.564l-.038-.24a106.7,106.7,0,0,0-5.21-10.853l3.472.864a21.781,21.781,0,0,0,9.369-5.834c1.45,2.984,3.043,5.9,4.745,8.758,1.068,1.809,2.169,3.582,3.293,5.355A28.235,28.235,0,0,1,1966.454,1165.9Z" transform="translate(-1921.242 -1144.626)" fill="#ffc517"/>
      </g>
    </g>
    <g id="Group_1807" data-name="Group 1807" transform="translate(83.043 100.286)">
      <g id="Group_1806" data-name="Group 1806">
        <path id="Path_2447" data-name="Path 2447" d="M1873.634,1225.57l-2.84,1.09a6.736,6.736,0,0,0-4.169,4.84c-2.458,10.951-7.669,28.847-9.045,40.983l2.816-.515,3.87,11.2-17.528,9.023-7.9-9.979a4.172,4.172,0,0,1,2.78-6.338c-.336-3.331-.478-6.888-.478-10.59,0-16.042,2.646-34.573,3.809-46.878a15.568,15.568,0,0,1,7.8-12.051c2.922-1.664,5.967-3.365,9.082-5.075l.445.8A195.746,195.746,0,0,0,1873.634,1225.57Z" transform="translate(-1838.188 -1201.278)" fill="#fec739"/>
      </g>
    </g>
    <g id="Group_1809" data-name="Group 1809" transform="translate(138.658 480.959)">
      <g id="Group_1808" data-name="Group 1808">
        <path id="Path_2448" data-name="Path 2448" d="M1920.987,1650.657a9.246,9.246,0,0,0-9.241-9.252h0a9.249,9.249,0,0,0-9.255,9.244v0a9.251,9.251,0,0,0,9.246,9.252h0A9.258,9.258,0,0,0,1920.987,1650.657Z" transform="translate(-1902.488 -1641.405)" fill="#195f5f"/>
      </g>
    </g>
    <g id="Group_1811" data-name="Group 1811" transform="translate(250.024 480.959)">
      <g id="Group_1810" data-name="Group 1810" transform="translate(0)">
        <path id="Path_2449" data-name="Path 2449" d="M2049.749,1650.657a9.251,9.251,0,0,0-18.5-.008v0a9.251,9.251,0,0,0,9.247,9.252h0A9.252,9.252,0,0,0,2049.749,1650.657Z" transform="translate(-2031.247 -1641.405)" fill="#195f5f"/>
      </g>
    </g>
    <g id="Group_1824" data-name="Group 1824" transform="translate(151.871 82.089)">
      <g id="Group_1813" data-name="Group 1813" transform="translate(37.287 41.779)">
        <g id="Group_1812" data-name="Group 1812">
          <path id="Path_2450" data-name="Path 2450" d="M2030.465,1232.192c-1.558-.411-3.075-.831-4.509-1.226a52.759,52.759,0,0,0-11.282-2.423c-21.161,0-30.286,17.6-39.108,34.616-4.514,8.707-8.889,17.137-14.69,22.97l.515.571.722-.176c5.694-5.922,10.015-14.247,14.471-22.84,8.664-16.714,17.629-34,38.09-34a52.65,52.65,0,0,1,10.975,2.383c1.667.462,3.435.954,5.261,1.429C2030.764,1233.07,2030.614,1232.637,2030.465,1232.192Z" transform="translate(-1960.875 -1228.543)" fill="#fff"/>
        </g>
      </g>
      <g id="Group_1815" data-name="Group 1815" transform="translate(33.894)">
        <g id="Group_1814" data-name="Group 1814">
          <path id="Path_2451" data-name="Path 2451" d="M1975.375,1193.526a21.123,21.123,0,0,0,12.938-6.033l-.8-.773a19.822,19.822,0,0,1-12.137,5.66c-8.814,0-15.572-4.919-17.385-12.141-.344.165-.692.323-1.037.48A18.294,18.294,0,0,0,1975.375,1193.526Z" transform="translate(-1956.953 -1180.239)" fill="#fff"/>
        </g>
      </g>
      <g id="Group_1817" data-name="Group 1817" transform="translate(73.983 58.689)">
        <g id="Group_1816" data-name="Group 1816">
          <path id="Path_2452" data-name="Path 2452" d="M2020.64,1248.094c-.428,0-.858.018-1.293.053-9.183.765-16.044,11.056-16.044,19.747a14.424,14.424,0,0,0,3.147,8.9l1.145-.475a13.283,13.283,0,0,1-3.147-8.419c0-8.191,6.411-17.9,15-18.606.4-.032.8-.047,1.2-.047,10.392,0,14.281,7.107,14.5,13.979l1.125-.6C2035.84,1255.383,2031.574,1248.094,2020.64,1248.094Z" transform="translate(-2003.303 -1248.094)" fill="#fff"/>
        </g>
      </g>
      <g id="Group_1819" data-name="Group 1819" transform="translate(2.081 37.962)">
        <g id="Group_1818" data-name="Group 1818">
          <path id="Path_2453" data-name="Path 2453" d="M1947.663,1266.179a30.182,30.182,0,0,0,6.815-15.908,26.854,26.854,0,0,0-26.153-26.141,18.255,18.255,0,0,0-8.155,1.907c.1.381.206.758.31,1.137a17.174,17.174,0,0,1,7.845-1.9,25.679,25.679,0,0,1,25.008,24.995c0,4.712-4.084,13.942-10.935,19.765l.694.911A31.973,31.973,0,0,0,1947.663,1266.179Z" transform="translate(-1920.171 -1224.13)" fill="#fff"/>
        </g>
      </g>
      <g id="Group_1821" data-name="Group 1821" transform="translate(7.025 53.876)">
        <g id="Group_1820" data-name="Group 1820">
          <path id="Path_2454" data-name="Path 2454" d="M1929.4,1242.563a10.106,10.106,0,0,0-3.518.638q.221.526.446,1.05a9.01,9.01,0,0,1,3.072-.535,6.077,6.077,0,0,1,6.754,5.312v0a6.07,6.07,0,0,1,.016,1.261,12.557,12.557,0,0,1-2.754,7.877l.625,1.031a13.806,13.806,0,0,0,3.275-8.907,7.253,7.253,0,0,0-6.723-7.745h-.01A7.04,7.04,0,0,0,1929.4,1242.563Z" transform="translate(-1925.887 -1242.53)" fill="#fff"/>
        </g>
      </g>
      <g id="Group_1823" data-name="Group 1823" transform="translate(0 15.264)">
        <g id="Group_1822" data-name="Group 1822">
          <path id="Path_2455" data-name="Path 2455" d="M1917.765,1199.2a78.442,78.442,0,0,1,24.656,6.523c8.122,3.14,15.794,6.105,24.129,6.105,10.509,0,20.169-5.772,27.485-13.3-.347-.21-.7-.422-1.041-.643-8.056,8.16-17.588,12.8-26.443,12.8-8.122,0-15.694-2.938-23.715-6.031a79.48,79.48,0,0,0-24.971-6.594Z" transform="translate(-1917.765 -1197.887)" fill="#fff"/>
        </g>
      </g>
    </g>
    <g id="Group_1827" data-name="Group 1827" transform="translate(182.838 26.349)">
      <path id="Path_2458" data-name="Path 2458" d="M2159.879,1181.3a.8.8,0,0,1-.785-.817h0a.8.8,0,0,1,.219-.535c11.2-11.255,16.88-26.317,16.88-44.765,0-7.318-.187-12.764-.6-17.457-2.425.984-4.989,2.036-7.644,3.129-19.281,7.917-43.27,17.77-54.677,17.77a23.089,23.089,0,0,1-19.834-9.434c-2.749-3.136-4.917-5.609-9.19-5.609-13.652,0-27.244,3.857-39.242,7.257-9.615,2.729-18.718,5.31-26.05,5.31a9.86,9.86,0,0,1-9.249-4.255c-2.089-2.58-4.247-5.246-14.471-5.246-8.435,0-18.806,6.867-29.784,14.137-3.472,2.3-7.078,4.688-10.737,6.944a.8.8,0,0,1-1.064-.388l0-.009a.8.8,0,0,1,.227-.956c3.635-2.236,7.212-4.613,10.684-6.91,11.183-7.407,21.749-14.4,30.662-14.4,10.983,0,13.49,3.1,15.705,5.833a8.281,8.281,0,0,0,8.013,3.665c7.109,0,16.1-2.548,25.616-5.248,12.094-3.43,25.805-7.319,39.675-7.319,4.992,0,7.612,2.989,10.385,6.144a21.476,21.476,0,0,0,18.641,8.891c11.089,0,34.925-9.789,54.073-17.652,3.023-1.242,5.927-2.433,8.644-3.531a.8.8,0,0,1,1.039.453h0a.941.941,0,0,1,.047.2c.491,4.984.711,10.743.711,18.671,0,18.883-5.836,34.322-17.346,45.887A.8.8,0,0,1,2159.879,1181.3Z" transform="translate(-1953.568 -1115.793)" fill="#313131"/>
    </g>
    <g id="Group_1829" data-name="Group 1829" transform="translate(254.601 101.104)">
      <path id="Path_2460" data-name="Path 2460" d="M2123.789,1212.127a107.839,107.839,0,0,1-35.024-4.872,65.889,65.889,0,0,0-21.077-3.443,151.888,151.888,0,0,0-17.03,1.28c-4.342.491-8.836,1-13.288,1.2a.794.794,0,1,1-.07-1.586c4.4-.2,8.863-.7,13.177-1.189a153.364,153.364,0,0,1,17.211-1.29,68.04,68.04,0,0,1,21.523,3.507,106.431,106.431,0,0,0,34.577,4.807,68.307,68.307,0,0,0,19.9-3.141.8.8,0,0,1,.929.649v0a.8.8,0,0,1-.46.869A69.991,69.991,0,0,1,2123.789,1212.127Z" transform="translate(-2036.54 -1202.223)" fill="#313131"/>
    </g>
    <g id="Group_1830" data-name="Group 1830" transform="translate(118.65 71.044)">
      <path id="Path_2461" data-name="Path 2461" d="M1880.133,1190.591a.8.8,0,0,1-.377-1.5c4.033-2.162,8.1-4.319,12.1-6.45,10.15-5.393,19.725-10.487,27.752-15.016a.8.8,0,0,1,1.122.16h0a.8.8,0,0,1-.16,1.122.892.892,0,0,1-.179.1c-8.043,4.541-17.629,9.639-27.779,15.037-4.006,2.137-8.06,4.274-12.094,6.448A.807.807,0,0,1,1880.133,1190.591Z" transform="translate(-1879.354 -1167.469)" fill="#313131"/>
    </g>
    <g id="Group_1831" data-name="Group 1831" transform="translate(119.429 111.865)">
      <path id="Path_2462" data-name="Path 2462" d="M1881.026,1227.517a.8.8,0,0,1-.769-.832v0a.8.8,0,0,1,.481-.7l29.146-11.218a.8.8,0,0,1,1.086.32h0a.8.8,0,0,1-.32,1.086h0a.8.8,0,0,1-.2.076l-29.145,11.217A.8.8,0,0,1,1881.026,1227.517Z" transform="translate(-1880.256 -1214.666)" fill="#313131"/>
    </g>
    <g id="Group_1833" data-name="Group 1833" transform="translate(115.777 93.981)">
      <path id="Path_2464" data-name="Path 2464" d="M1887.307,1217.758a.8.8,0,0,1-.7-.422c-4.049-7.647-7.556-15.492-10.455-22.132a.8.8,0,0,1,1.367-.833.838.838,0,0,1,.086.2c2.882,6.623,6.375,14.423,10.4,22.021a.811.811,0,0,1-.7,1.17Z" transform="translate(-1876.033 -1193.987)" fill="#313131"/>
    </g>
    <g id="Group_1834" data-name="Group 1834" transform="translate(255.951 79.222)">
      <path id="Path_2465" data-name="Path 2465" d="M2057.095,1180.423H2057q-2.692-.3-5.443-.6l-1.734-.19c-3.579-.381-7.241-.753-11.012-1.125a.794.794,0,0,1,.155-1.581c3.777.372,7.444.742,11.029,1.127l1.733.19q2.754.3,5.446.6a.8.8,0,0,1,.631.942h0a.8.8,0,0,1-.718.642Z" transform="translate(-2038.099 -1176.924)" fill="#313131"/>
    </g>
    <g id="Group_1835" data-name="Group 1835" transform="translate(267.296 55)">
      <path id="Path_2466" data-name="Path 2466" d="M2052.009,1173.452h-.1a.8.8,0,0,1-.682-.892q.519-3.943.983-7.9.651-5.507,1.269-11.02l.47-4.119a.8.8,0,0,1,1.576.179l-.468,4.119q-.625,5.51-1.272,11.028-.467,3.959-.985,7.917A.8.8,0,0,1,2052.009,1173.452Z" transform="translate(-2051.217 -1148.919)" fill="#313131"/>
    </g>
    <g id="Group_1836" data-name="Group 1836" transform="translate(111.842 460.32)">
      <path id="Path_2467" data-name="Path 2467" d="M2028.682,1635.361h-132.34a37.328,37.328,0,0,1-8.357-.881,20.061,20.061,0,0,1-16.448-15.847.8.8,0,0,1,.46-1.036h0a.8.8,0,0,1,1.084.678,18.38,18.38,0,0,0,15.249,14.656,35.893,35.893,0,0,0,8.013.841h132.34a35.85,35.85,0,0,0,8.014-.841,18.356,18.356,0,0,0,15.251-14.656.8.8,0,0,1,.867-.729h0a.8.8,0,0,1,.729.867h0a.7.7,0,0,1-.051.219,20.032,20.032,0,0,1-16.447,15.847A37.232,37.232,0,0,1,2028.682,1635.361Z" transform="translate(-1871.484 -1617.542)" fill="#313131"/>
    </g>
    <g id="Group_1837" data-name="Group 1837" transform="translate(144.438 486.739)">
      <path id="Path_2468" data-name="Path 2468" d="M1912.643,1655.013a3.463,3.463,0,1,1,3.454-3.485v.027a3.456,3.456,0,0,1-3.454,3.459Zm0-5.859a2.4,2.4,0,0,0-2.4,2.4h0a2.4,2.4,0,0,0,2.4,2.4h0a2.4,2.4,0,0,0,2.4-2.4h0a2.4,2.4,0,0,0-2.4-2.4Z" transform="translate(-1909.171 -1648.088)" fill="#fff"/>
    </g>
    <g id="Group_1838" data-name="Group 1838" transform="translate(255.831 486.747)">
      <path id="Path_2469" data-name="Path 2469" d="M2041.4,1655.015a3.459,3.459,0,0,1,.024-6.918h.005a3.461,3.461,0,0,1-.026,6.923Zm0-5.86a2.4,2.4,0,0,0-2.4,2.4h0a2.4,2.4,0,0,0,2.4,2.4h0a2.4,2.4,0,0,0,2.4-2.4h0a2.4,2.4,0,0,0-2.4-2.4Z" transform="translate(-2037.961 -1648.097)" fill="#fff"/>
    </g>
    <g id="Group_1839" data-name="Group 1839" transform="translate(113.452 402.174)">
      <path id="Path_2470" data-name="Path 2470" d="M1942.281,1555.99h-.073c-22.751-2.045-45.69-3.422-68.176-4.087a.8.8,0,0,1-.678-.907h0a.8.8,0,0,1,.7-.681h.024c22.517.665,45.486,2.04,68.27,4.092a.8.8,0,0,1-.069,1.586Z" transform="translate(-1873.345 -1550.315)" fill="#313131"/>
    </g>
    <g id="Group_1840" data-name="Group 1840" transform="translate(207.708 403.421)">
      <path id="Path_2471" data-name="Path 2471" d="M1983.032,1556.185a.8.8,0,0,1-.042-1.586l9.936-.555c28.044-1.582,44.989-2.537,84.49-2.228,26.753.208,46.023.938,66.427,1.707,9.305.353,18.923.716,29.618,1.045a.8.8,0,0,1,.766.817.778.778,0,0,1-.785.77h-.043c-10.7-.328-20.32-.691-29.626-1.044-20.393-.773-39.653-1.5-66.379-1.706-39.453-.311-56.357.646-84.4,2.224l-9.938.556Z" transform="translate(-1982.322 -1551.758)" fill="#313131"/>
    </g>
    <g id="Group_1841" data-name="Group 1841" transform="translate(436.211 406.264)">
      <path id="Path_2472" data-name="Path 2472" d="M2270.613,1557.741c-4.648,0-10.238-.083-20.089-.23l-3.228-.048a.8.8,0,0,1-.782-.8.818.818,0,0,1,.8-.783l3.229.048c22.76.339,22.76.339,40.94-.248,5.075-.163,11.584-.372,20.4-.633a.757.757,0,0,1,.8.7.648.648,0,0,1,0,.069.8.8,0,0,1-.771.817c-8.815.267-15.31.471-20.394.633C2281.193,1557.6,2276.721,1557.741,2270.613,1557.741Z" transform="translate(-2246.513 -1555.044)" fill="#313131"/>
    </g>
    <g id="Group_1842" data-name="Group 1842" transform="translate(50.081 347.498)">
      <path id="Path_2473" data-name="Path 2473" d="M1800.87,1545.2a.827.827,0,0,1-.2-.027.8.8,0,0,1-.569-.97c4.524-17.339,13.923-38.011,33.013-38.011,11.058,0,19.875,9.349,24.191,19.232a239.539,239.539,0,0,1,15.4-37.978.8.8,0,0,1,1.413.729,239.742,239.742,0,0,0-15.959,39.848.8.8,0,0,1-.737.564h-.024a.8.8,0,0,1-.746-.518c-3.739-10.093-12.47-20.275-23.544-20.275-18.074,0-27.091,20.032-31.475,36.819A.8.8,0,0,1,1800.87,1545.2Z" transform="translate(-1800.076 -1487.1)" fill="#313131"/>
    </g>
    <g id="Group_1843" data-name="Group 1843" transform="translate(146.577 296.384)">
      <path id="Path_2474" data-name="Path 2474" d="M1912.426,1445.835a.8.8,0,0,1-.782-.819h0a.81.81,0,0,1,.2-.515,100.759,100.759,0,0,1,19.523-16.293.8.8,0,0,1,1.132.063h0a.8.8,0,0,1-.063,1.131h0a.878.878,0,0,1-.222.139A99.147,99.147,0,0,0,1913,1445.568.8.8,0,0,1,1912.426,1445.835Z" transform="translate(-1911.644 -1428.003)" fill="#313131"/>
    </g>
    <g id="Group_1844" data-name="Group 1844" transform="translate(220.025 286.143)">
      <path id="Path_2475" data-name="Path 2475" d="M2030.29,1537.869a.8.8,0,0,1-.8-.8h0a.968.968,0,0,1,.027-.2,110.925,110.925,0,0,0,4.522-30.47c0-30.887-15.606-31.785-17.385-31.785-6.328,0-13.764,4.829-18.086,11.753a.8.8,0,0,1-1.119.179h0a.8.8,0,0,1-.3-.881c.678-1.79,1.38-3.6,2.089-5.417,4.73-12.166,9.615-24.749,9.615-37.393,0-8.908-2.068-20.516-11.929-25.217a.8.8,0,0,1,.684-1.434c8.4,4.006,12.821,13.218,12.821,26.648,0,12.951-4.947,25.673-9.728,37.977l-.114.305a23.007,23.007,0,0,1,16.049-8.088c8.753,0,18.964,8.739,18.964,33.367a112.675,112.675,0,0,1-4.584,30.908A.8.8,0,0,1,2030.29,1537.869Z" transform="translate(-1996.563 -1416.162)" fill="#313131"/>
    </g>
    <g id="Group_1845" data-name="Group 1845" transform="translate(310.008 375.501)">
      <path id="Path_2476" data-name="Path 2476" d="M2101.382,1555.949a.835.835,0,0,1-.267-.05.8.8,0,0,1-.468-1.023c6.031-16.293,21.9-33.884,37.02-33.884a19.5,19.5,0,0,1,15.566,9.348c5.094-7.016,11.023-10.862,16.787-10.862,3.362,0,7.372,1.976,7.372,11.378a107.558,107.558,0,0,1-.511,11.638l.182-.171a13.709,13.709,0,0,1,9.7-3.288,17.7,17.7,0,0,1,17.9,16,.8.8,0,0,1-.782.82h0a.8.8,0,0,1-.8-.577,16.171,16.171,0,0,0-16.333-14.655c-7.6,0-9.93,4.169-10.435,5.342-.268.943-.535.943-.889.943a.8.8,0,0,1-.8-.8h0a1.961,1.961,0,0,1,.14-.552,65.767,65.767,0,0,0,1.028-14.691c0-6.49-1.948-9.786-5.785-9.786-5.483,0-11.218,3.959-16.167,11.149a.766.766,0,0,1-.678.342.8.8,0,0,1-.657-.385,18.245,18.245,0,0,0-14.853-9.589c-13.982,0-29.648,16.982-35.524,32.853A.8.8,0,0,1,2101.382,1555.949Z" transform="translate(-2100.599 -1519.477)" fill="#313131"/>
    </g>
    <g id="Group_1846" data-name="Group 1846" transform="translate(155.361 368.815)">
      <path id="Path_2477" data-name="Path 2477" d="M1922.591,1545.433a.892.892,0,0,1-.216-.029.8.8,0,0,1-.548-.98,333.929,333.929,0,0,1,11.015-32.076.8.8,0,0,1,.976-.577h0a.8.8,0,0,1,.576.976.821.821,0,0,1-.077.19,330.987,330.987,0,0,0-10.95,31.92A.8.8,0,0,1,1922.591,1545.433Z" transform="translate(-1921.799 -1511.745)" fill="#313131"/>
    </g>
    <g id="Group_1847" data-name="Group 1847" transform="translate(227.31 344.274)">
      <path id="Path_2478" data-name="Path 2478" d="M2005.769,1546.947h0a.8.8,0,0,1-.783-.8c.441-28.983,7.289-45.941,17.441-62.471a.8.8,0,0,1,1.357.83c-13.889,22.636-16.88,40.376-17.206,61.668A.8.8,0,0,1,2005.769,1546.947Z" transform="translate(-2004.986 -1483.372)" fill="#313131"/>
    </g>
    <g id="Group_1848" data-name="Group 1848" transform="translate(232.603 357.69)">
      <path id="Path_2479" data-name="Path 2479" d="M2011.883,1512.5a.8.8,0,0,1-.441-1.455,135.549,135.549,0,0,1,22.631-12.049.8.8,0,0,1,1.095.292h0a.8.8,0,0,1-.291,1.1.786.786,0,0,1-.192.079,134.131,134.131,0,0,0-22.365,11.907A.789.789,0,0,1,2011.883,1512.5Z" transform="translate(-2011.105 -1498.883)" fill="#313131"/>
    </g>
    <g id="Group_1849" data-name="Group 1849" transform="translate(227.991 383.367)">
      <path id="Path_2480" data-name="Path 2480" d="M2006.553,1540.008a.8.8,0,0,1-.78-.823h0a.8.8,0,0,1,.406-.676c4.963-2.623,12.653-5.222,29.381-9.93a.8.8,0,0,1,.911.675h0a.8.8,0,0,1-.481.854c-16.611,4.674-24.22,7.239-29.072,9.805A.8.8,0,0,1,2006.553,1540.008Z" transform="translate(-2005.773 -1528.571)" fill="#313131"/>
    </g>
    <path id="Path_2481" data-name="Path 2481" d="M1856.375,1334.355a2,2,0,0,1-2.55-1.226v0a2.078,2.078,0,0,1-.073-.251l-4.645-22.9c4.49-4.693,9.036-9.349,13.466-14.143q-2.5-4.151-4.775-8.418l.884-.448c2.671-1.355,5.342-2.671,8.1-3.887a1.98,1.98,0,0,1,2.6,1.048v0a1.968,1.968,0,0,1,.15.614l.049.641,3.22,40.764a1.972,1.972,0,0,1-1.151,1.96C1866.653,1330.349,1861.562,1332.462,1856.375,1334.355Z" transform="translate(-1756.619 -1112.02)" fill="#313131"/>
    <path id="Path_2482" data-name="Path 2482" d="M1847.994,1309.354,1845,1312.5a134.372,134.372,0,0,1-4.132-23.6q6.01-5.721,11.67-10.6,1.392,3.141,2.938,6.194c.393.774.8,1.527,1.2,2.3q2.268,4.272,4.776,8.418C1857.038,1300.006,1852.484,1304.658,1847.994,1309.354Z" transform="translate(-1755.506 -1111.396)" fill="#ffc517"/>
    <rect id="Rectangle_1422" data-name="Rectangle 1422" width="20.832" height="53.018" rx="10.416" transform="matrix(0.934, -0.356, 0.356, 0.934, 150.157, 33.134)" fill="#ffc517"/>
    <path id="Path_4067" data-name="Path 4067" d="M1935.762,1124.555l.007,0-1.454-3.813a8.973,8.973,0,0,0,2.234-1.469c2.728-2.434,3.54-5.974,1.813-7.908-1.62-1.816-4.9-1.568-7.554.483a21.343,21.343,0,0,0-39.021,17.172l4.1,10.744.007,0c.036.1.066.194.1.29a21.343,21.343,0,0,0,39.884-15.209C1935.841,1124.743,1935.8,1124.65,1935.762,1124.555Z" transform="translate(-1762.194 -1087.319)" fill="#ffc517"/>
    <path id="Path_4068" data-name="Path 4068" d="M1932.767,1110.487S1917.3,1125,1895.45,1107.91c-1.282-7.293,5.685-9.549,5.685-9.549S1930.93,1088.642,1932.767,1110.487Z" transform="translate(-1762.858 -1086.798)" fill="#313131"/>
    <path id="Path_4069" data-name="Path 4069" d="M1897.111,1110.724c.707-.279-1.185,9.264-6.864,16.32-12.808-18.463,6.463-23.568,6.463-23.568" transform="translate(-1761.583 -1087.78)" fill="#313131"/>
    <ellipse id="Ellipse_545" data-name="Ellipse 545" cx="2.491" cy="2.491" rx="2.491" ry="2.491" transform="translate(134.961 41.195)" fill="#313131"/>
    <ellipse id="Ellipse_546" data-name="Ellipse 546" cx="2.491" cy="2.491" rx="2.491" ry="2.491" transform="translate(148.704 35.954)" fill="#313131"/>
    <path id="Path_4070" data-name="Path 4070" d="M1909.009,1132.035l2.275,9.228.323,1.3-1.315-.589,2.36-.767c1.243-.4,1.976,1.5.726,1.905l-2.36.767a1.028,1.028,0,0,1-1.316-.589l-2.276-9.228-.322-1.3a1.052,1.052,0,0,1,.589-1.316,1.026,1.026,0,0,1,1.316.589Z" transform="translate(-1764.447 -1091.55)" fill="#313131"/>
    <path id="Path_4071" data-name="Path 4071" d="M1916.217,1149.346l.053-.011c.2-.044-.3.076-.119.029.151-.039.3-.078.452-.122a11.23,11.23,0,0,0,1.467-.539q.214-.1.425-.205c.1-.053.154-.141-.014.009a1.431,1.431,0,0,1,.226-.13,6.191,6.191,0,0,0,.777-.548c.059-.049.115-.1.172-.15.135-.119-.157.164.041-.046a3.778,3.778,0,0,0,.29-.345c.021-.028.119-.207.146-.211-.052.006-.114.2-.009,0,.04-.077.076-.153.109-.233.026-.059.118-.346.032-.055a1.046,1.046,0,0,1,1.172-.838,1.027,1.027,0,0,1,.838,1.172c-.75,2.506-3.47,3.766-5.862,4.252a1.023,1.023,0,0,1-1.112-.917,1.05,1.05,0,0,1,.918-1.113Z" transform="translate(-1765.56 -1093.515)" fill="#313131"/>
    <g id="Group_1805" data-name="Group 1805" transform="translate(121.402 0)">
      <g id="Group_1804" data-name="Group 1804">
        <path id="Path_2446" data-name="Path 2446" d="M1928.881,1098.835a56.6,56.6,0,0,1,1.954,9.723c-17.167,2.473-31.042,3.928-45.558,4.933l-2.74.188a37.8,37.8,0,0,1,25.593-27.543C1914.922,1083.88,1924.562,1085.824,1928.881,1098.835Z" transform="translate(-1882.537 -1085.329)" fill="#019e96"/>
      </g>
    </g>
    <g id="Group_1832" data-name="Group 1832" transform="translate(80.792 21.982)">
      <path id="Path_2463" data-name="Path 2463" d="M1924.89,1113.2a1.1,1.1,0,0,1-.206.069c-16.539,2.38-30.621,3.9-45.647,4.947l-2.748.182c-11.755.749-24.31,1.258-39.553,1.755a1.29,1.29,0,0,1-1.148-1.4v-.008a1.263,1.263,0,0,1,1.041-1.133c15.217-.5,27.757-.99,39.474-1.756l2.741-.185c14.967-1.038,28.99-2.55,45.464-4.923a1.281,1.281,0,0,1,1.369,1.172v.005a1.269,1.269,0,0,1-.781,1.288Z" transform="translate(-1835.584 -1110.744)" fill="#313131"/>
    </g>
  </g>
</svg>
