<svg xmlns="http://www.w3.org/2000/svg" width="184" height="210" viewBox="0 0 184 210">
  <g id="Group_3338" data-name="Group 3338" transform="translate(-1238 2604)">
    <g id="Group_3333" data-name="Group 3333" transform="translate(1839.607 -3537.175)">
      <rect id="Rectangle_1473" data-name="Rectangle 1473" width="144.93" height="26.277" rx="13.138" transform="translate(-581.607 987.69)" fill="#313131"/>
      <path id="Path_4256" data-name="Path 4256" d="M-560.182,1005.878h96.2c4.419,0,8.864.135,13.282,0,.063,0,.127,0,.192,0,3.093,0,3.1-4.808,0-4.808h-96.2c-4.419,0-8.863-.135-13.281,0-.064,0-.128,0-.192,0-3.094,0-3.1,4.808,0,4.808Z" transform="translate(-3.795 -2.646)" fill="#fff"/>
      <path id="Path_4247" data-name="Path 4247" d="M-557.417,1005.759l-18.931,86.777a10.353,10.353,0,0,0,10.026,12.558l115.74,1a10.352,10.352,0,0,0,10.248-12.345l-17.262-87.992Z" transform="translate(-0.997 -3.59)" fill="#019e96"/>
      <g id="Group_2871" data-name="Group 2871" transform="translate(-489.428 1011.712)">
        <path id="Path_4248" data-name="Path 4248" d="M-433.207,1049.624a1.51,1.51,0,0,1-1.5,1.411h-7.508v-9.009h7.868Z" transform="translate(461.736 -1022.506)" fill="#ff8e9e"/>
        <path id="Path_4249" data-name="Path 4249" d="M-442.216,1036.79v-6.006h6.5l.9,6.006Z" transform="translate(461.736 -1020.273)" fill="#ff8e9e"/>
        <path id="Path_4250" data-name="Path 4250" d="M-453.459,1025.175v-7.508h13.934l1.126,7.508Z" transform="translate(463.969 -1017.667)" fill="#ff8e9e"/>
        <rect id="Rectangle_1474" data-name="Rectangle 1474" width="6.006" height="10.511" transform="translate(10.511 10.511)" fill="#ff8e9e"/>
        <rect id="Rectangle_1475" data-name="Rectangle 1475" width="6.006" height="4.505" transform="translate(10.511 24.024)" fill="#ff8e9e"/>
        <path id="Path_4251" data-name="Path 4251" d="M-458.766,1032.682h-6.291l1.5-15.015h4.79Z" transform="translate(466.273 -1017.667)" fill="#ff8e9e"/>
        <path id="Path_4252" data-name="Path 4252" d="M-459.067,1040.153v10.51h-6.006a1.5,1.5,0,0,1-1.5-1.442l.916-9.069Z" transform="translate(466.575 -1022.134)" fill="#ff8e9e"/>
      </g>
      <g id="Group_2872" data-name="Group 2872" transform="translate(-565.81 1034.026)">
        <path id="Path_4253" data-name="Path 4253" d="M-541.37,1102.115a6.956,6.956,0,0,1,2.713-2.249,8.142,8.142,0,0,1,4.441-.543,8.97,8.97,0,0,1,3.487,1.116,6.472,6.472,0,0,1,2.55,2.646,7.115,7.115,0,0,1,.663,4.205l-.028.262,3.4.367-.081.749-3.44-.371a7.978,7.978,0,0,1-1.692,3.534,7.953,7.953,0,0,1-2.991,2.236,8.826,8.826,0,0,1-3.538.736l.081-.749a8.019,8.019,0,0,0,2.858-.6,7.758,7.758,0,0,0,2.783-1.9,7,7,0,0,0,1.736-3.339l-14.481-1.565a26.011,26.011,0,0,1-2.015,3.746,6.778,6.778,0,0,1-2.605,2.24,7.519,7.519,0,0,1-4.249.565,7.309,7.309,0,0,1-4.916-2.409,6.837,6.837,0,0,1-1.448-5.485l.032-.3-3.779-.409.081-.749,3.822.413a7.183,7.183,0,0,1,2.708-4.391,8.608,8.608,0,0,1,4.437-1.7l-.081.749a8.2,8.2,0,0,0-3.8,1.525,6.358,6.358,0,0,0-2.505,3.9l13.8,1.491A24.449,24.449,0,0,1-541.37,1102.115Zm-6.605,9.848a6.117,6.117,0,0,0,2.366-2.019,22.43,22.43,0,0,0,1.848-3.385l-13.589-1.468-.032.3a6.434,6.434,0,0,0,1.176,4.811,6.242,6.242,0,0,0,4.5,2.25A6.7,6.7,0,0,0-547.976,1111.964Zm18.3-9.723a7.122,7.122,0,0,0-4.62-2.168,7.219,7.219,0,0,0-3.9.49,6.421,6.421,0,0,0-2.5,2.024,20.25,20.25,0,0,0-1.886,3.342l14.269,1.542.028-.262A5.978,5.978,0,0,0-529.677,1102.241Z" transform="translate(561.894 -1055.975)"/>
        <path id="Path_4254" data-name="Path 4254" d="M-538.84,1078.543l.7-6.485.765.083-.737,6.823,1.329.826,2.8.3.81-7.5.849.092-.81,7.5,8.876.958-.082.75-8.875-.959-.81,7.5-.849-.092.81-7.5-2.8-.3-1.474.523-.737,6.823-.764-.083.7-6.486-15.984,5.593.1-.9,17.264-5.909-15.6-9.461.1-.9Z" transform="translate(560.549 -1050.327)"/>
        <path id="Path_4255" data-name="Path 4255" d="M-520.672,1048.663l-13.8,5.639-.077.712-.64,5.923,13.037,1.409-.081.749-29.894-3.229.712-6.6q.47-4.349,2.949-6.223a8.676,8.676,0,0,1,6.387-1.454,8.8,8.8,0,0,1,5.58,2.423,7.671,7.671,0,0,1,2.035,5.416l13.891-5.705Zm-14.682,6.264q.417-3.861-1.455-6.016a7.9,7.9,0,0,0-5.354-2.532q-7.557-.816-8.4,6.981l-.632,5.849,15.2,1.642Z" transform="translate(559.953 -1045.514)"/>
      </g>
    </g>
    <rect id="Rectangle_1566" data-name="Rectangle 1566" width="184" height="210" transform="translate(1238 -2604)" fill="none"/>
  </g>
</svg>
