<?xml version="1.0" encoding="utf-8"?>
<!-- Generator: Adobe Illustrator 25.2.3, SVG Export Plug-In . SVG Version: 6.00 Build 0)  -->
<svg version="1.1" id="圖層_1" xmlns="http://www.w3.org/2000/svg" xmlns:xlink="http://www.w3.org/1999/xlink" x="0px" y="0px"
	 viewBox="0 0 1366 143.8" style="enable-background:new 0 0 1366 143.8;" xml:space="preserve">
<style type="text/css">
	.st0{fill:#2DC99A;}
</style>
<path id="Subtraction_13" class="st0" d="M1157.4,143.8c-32.9,0-67.4-0.9-102.5-2.6c-37.2-1.8-76.1-4.6-115.6-8.3
	c-41.7-3.9-85.2-9-129.3-15c-46.3-6.3-94.6-13.9-143.5-22.6c-46.4-8.2-94.8-15.4-144-21.4c-46.6-5.7-94.9-10.4-143.8-14.1
	c-46.1-3.5-93.8-6.1-141.8-7.8c-45-1.6-91.4-2.4-137.9-2.4c-32.5,0-65.8,0.4-99,1.2V0h1366v130.2c-29.7,4.3-61.4,7.6-94.4,9.9
	C1235.5,142.6,1197.1,143.8,1157.4,143.8z"/>
</svg>
