<svg xmlns="http://www.w3.org/2000/svg" xmlns:xlink="http://www.w3.org/1999/xlink" width="210" height="170" viewBox="0 0 210 170">
  <defs>
    <clipPath id="clip-path">
      <rect x="20" y="24" width="210" height="170" fill="none"/>
    </clipPath>
  </defs>
  <g id="Group_3281" data-name="Group 3281" transform="translate(10131 3598)">
    <g id="Scroll_Group_30" data-name="Scroll Group 30" transform="translate(-10151 -3622)" clip-path="url(#clip-path)" style="isolation: isolate">
      <ellipse id="Ellipse_759" data-name="Ellipse 759" cx="106.5" cy="81.5" rx="106.5" ry="81.5" transform="translate(46.779) rotate(17)" fill="#fff0c6"/>
    </g>
    <g id="Group_3277" data-name="Group 3277" transform="translate(-12913.158 -6412.093)">
      <path id="Path_3148" data-name="Path 3148" d="M2902.935,2977.687l-74.2-49.729,7.011-37.141,28.36-29.456,74.954,42.039-30.531,36.573Z" fill="#efb635"/>
      <path id="Path_3149" data-name="Path 3149" d="M2919.413,2919.038l-63.877-41.164c-2.046-1.319.26-4.326,2.3-3.01l63.876,41.164c2.046,1.32-.26,4.325-2.3,3.01Z" fill="#f7d48f"/>
      <path id="Path_3150" data-name="Path 3150" d="M2913.943,2923.631l-63.877-41.164c-2.045-1.319.261-4.326,2.3-3.009l63.876,41.164c2.046,1.318-.26,4.324-2.3,3.01Z" fill="#f7d48f"/>
      <path id="Path_3151" data-name="Path 3151" d="M2908.945,2929.69l-63.876-41.164c-2.048-1.319.259-4.325,2.3-3.01l63.876,41.166C2913.292,2928,2910.986,2931.007,2908.945,2929.69Z" fill="#f7d48f"/>
      <path id="Path_3152" data-name="Path 3152" d="M2900.355,2950.1l-63.877-41.164c-2.046-1.318.26-4.324,2.3-3.01l63.876,41.164C2904.7,2948.413,2902.4,2951.42,2900.355,2950.1Z" fill="#f7d48f"/>
      <path id="Path_3153" data-name="Path 3153" d="M2898.146,2959.042l-30.57-19.7c-2.048-1.319.259-4.325,2.3-3.01l30.571,19.7c2.046,1.318-.26,4.324-2.3,3.007Z" fill="#f7d48f"/>
      <path id="Path_3154" data-name="Path 3154" d="M2918.91,2888.676l20.153,14.721-28.542.224Z" fill="#ff8e9e"/>
      <path id="Path_3155" data-name="Path 3155" d="M2941.329,2868.107l-72.708-47.014-30.973,34.749,72.869,47.781Z" fill="#fec739"/>
      <path id="Path_3156" data-name="Path 3156" d="M2930.532,2873.014l-63.876-41.166c-2.046-1.319.26-4.325,2.3-3.008L2932.834,2870c2.046,1.318-.26,4.325-2.3,3.01Z" fill="#fff"/>
      <path id="Path_3157" data-name="Path 3157" d="M2923.856,2880.322l-21.186-14.061c-2.029-1.348.275-4.355,2.3-3.009l21.185,14.06c2.029,1.348-.275,4.355-2.3,3.01Z" fill="#fff"/>
      <path id="Path_3158" data-name="Path 3158" d="M2883.329,2852.778l-21.538-13.447c-2.067-1.291.247-4.294,2.3-3.01l21.537,13.447C2887.7,2851.059,2885.385,2854.062,2883.329,2852.778Z" fill="#fff"/>
      <path id="Path_3159" data-name="Path 3159" d="M2917.224,2886.949l-30.205-19.666c-2.04-1.328.267-4.335,2.3-3.01l30.2,19.666c2.041,1.328-.264,4.335-2.3,3.01Z" fill="#fff"/>
      <path id="Path_3160" data-name="Path 3160" d="M2868.013,2853.9l-12.47-7.941c-2.054-1.307.253-4.312,2.3-3.008l12.47,7.94C2872.368,2852.2,2870.06,2855.205,2868.013,2853.9Z" fill="#fff"/>
      <path id="Path_3161" data-name="Path 3161" d="M2910.3,2894.857l-21.184-14.066c-2.029-1.347.276-4.354,2.3-3.01l21.183,14.066C2914.635,2893.194,2912.333,2896.2,2910.3,2894.857Z" fill="#fff"/>
      <path id="Path_3162" data-name="Path 3162" d="M2869.778,2867.315l-21.185-14.06c-2.029-1.348.275-4.355,2.3-3.01l21.186,14.06C2874.109,2865.653,2871.8,2868.66,2869.778,2867.315Z" fill="#fff"/>
      <g id="Group_2246" data-name="Group 2246">
        <path id="Path_3163" data-name="Path 3163" d="M2935.7,2874.642q7.4,3.381,14.444,7.486c13.816,8.181,20.882,16.169,19.388,21.92s-11.558,9.291-27.61,9.716c-16.753.444-38.141-2.467-60.221-8.2-44.4-11.527-79.2-31.7-75.99-44.046,1.494-5.75,11.559-9.292,27.61-9.717q3.764-.1,7.824.025l2.123-2.286c-3.483-.151-6.829-.186-10.01-.1-17.434.46-28.031,4.539-29.834,11.485-2.55,9.811,13.309,22.819,39.174,33.949a270.5,270.5,0,0,0,38.508,12.977c22.289,5.789,43.908,8.728,60.877,8.28,17.434-.461,28.028-4.54,29.833-11.486s-5.463-15.663-20.469-24.547a155.464,155.464,0,0,0-14.057-7.311" fill="#019e96"/>
        <path id="Path_3164" data-name="Path 3164" d="M2921.19,2891.29l.84.355h0c22.349,9.615,36.79,20.581,34.9,28.05-1.285,5.065-10.378,8.067-24.938,8.241-15.2.181-34.648-2.662-54.76-8.005-40.443-10.746-72.279-29.01-69.521-39.884,1.284-5.063,10.377-8.067,24.938-8.241a156.614,156.614,0,0,1,20.247,1.2l1.784-1.855a161.018,161.018,0,0,0-22.121-1.436c-15.822.187-25.384,3.657-26.935,9.776-2.191,8.64,12.368,20.337,35.981,30.5a256.311,256.311,0,0,0,35.112,11.955c20.3,5.4,39.962,8.265,55.356,8.08,15.822-.186,25.383-3.658,26.935-9.777,2.2-8.684-12.512-20.457-36.343-30.654" fill="#019e96"/>
      </g>
      <path id="Path_3166" data-name="Path 3166" d="M2890.96,2837.685l-3.551,42.743-6.081-3.428,15.911-14.046c3.655-3.226,8.281,2.776,4.632,5.995L2885.96,2883c-2.531,2.234-6.38-.359-6.08-3.433l3.55-42.743c.475-4.861,8-3.979,7.527.869Z" fill="#019e96"/>
      <path id="Path_3167" data-name="Path 3167" d="M2880.959,2882.545l-14.906-16.651c-3.18-3.549,2.877-8.667,6.038-5.136L2887,2877.407c3.181,3.55-2.877,8.667-6.036,5.139Z" fill="#019e96"/>
    </g>
  </g>
</svg>
