<?xml version="1.0" encoding="utf-8"?>
<!-- Generator: Adobe Illustrator 25.2.3, SVG Export Plug-In . SVG Version: 6.00 Build 0)  -->
<svg version="1.1" id="圖層_1" xmlns="http://www.w3.org/2000/svg" xmlns:xlink="http://www.w3.org/1999/xlink" x="0px" y="0px"
	 viewBox="0 0 212.6 187.1" style="enable-background:new 0 0 212.6 187.1;" xml:space="preserve">
<style type="text/css">
	.st0{fill:none;}
	.st1{fill:#FCF4D7;}
	.st2{fill:#FF957C;}
	.st3{fill:#FFFFFF;}
	.st4{fill:#313131;}
	.st5{fill:#019E96;}
</style>
<g id="Group_3304" transform="translate(-1516 2468.969)">
	<rect x="1517.3" y="-2462" class="st0" width="210" height="170"/>
	<g id="Scroll_Group_32" transform="translate(1496 -2486.627)">
		<path id="Path_4546" class="st1" d="M149.9,31.8c56.2,17.2,91.2,66,78,109.1s-69.4,64-125.7,46.8s-91.2-66-78-109.1
			S93.7,14.6,149.9,31.8z"/>
	</g>
	<g id="Group_3303" transform="translate(-1878.102 -12837.964)">
		<path id="Path_4305" class="st2" d="M3550.3,10402.1c0,0,0.5-6.3-5.4-6.7c-5.9-0.4-8.4,4.4-9.5,7.6c1.2-4.2,0.5-9.6-5.3-10.1
			c-5.8-0.5-9.6,9-10.3,10.7c1.6-4,0.1-7.7-4.5-7.8c-4.5-0.2-7.6,1.8-9,6.2c0.3-4-2.7-5.4-5.7-5.8c-3-0.4-7.9-0.5-10.8,5
			C3498.7,10404.6,3550.3,10402.1,3550.3,10402.1z"/>
		<path id="Path_3142" class="st2" d="M3465.7,10522.9c27.5,25,77.7-21.2,87.7-27.8s9.7-12.7,9.7-12.7l-35.5,5l22.9-85.4l-30.3,0.1
			l-30.4-0.8l-7.3,16.8l-16.7,32.4l3.7,21.9C3469.4,10472.2,3439,10498.5,3465.7,10522.9z"/>
		<path id="Path_3143" class="st3" d="M3484.8,10508c13.5-20.1,42.4-21.6,42.7-21.6l0.1,1.9c-0.3,0-28.3,1.5-41.2,20.8L3484.8,10508
			z"/>
		
			<rect id="Rectangle_267" x="3511.1" y="10444.6" transform="matrix(0.2323 -0.9726 0.9726 0.2323 -7473.9688 11442.7412)" class="st3" width="1.9" height="23.3"/>
		
			<rect id="Rectangle_268" x="3496.3" y="10428.2" transform="matrix(0.3621 -0.9322 0.9322 0.3621 -7472.5718 9939.0879)" class="st3" width="57.8" height="1.5"/>
		
			<rect id="Rectangle_269" x="3480.7" y="10428.6" transform="matrix(0.3621 -0.9322 0.9322 0.3621 -7482.8569 9924.8096)" class="st3" width="57.8" height="1.5"/>
		
			<rect id="Rectangle_270" x="3466.8" y="10428.2" transform="matrix(0.3621 -0.9322 0.9322 0.3621 -7491.3569 9911.6533)" class="st3" width="57.8" height="1.5"/>
		<g id="Group_3019" transform="matrix(0.07, 0.998, -0.998, 0.07, 3564.679, 10416.8)">
			<path id="Rectangle_1446" class="st4" d="M14.1-1.3h41.3c7.4,0,13.3,6,13.3,13.3v98.8c0,7.4-6,13.3-13.3,13.3H14.1
				c-7.4,0-13.3-6-13.3-13.3l0-98.8C0.7,4.7,6.7-1.3,14.1-1.3z"/>
			<path id="Rectangle_1447" class="st5" d="M13.7,2l42,0C61.4,2,66,6.6,66,12.3v98.4c0,5.7-4.6,10.3-10.3,10.3h-42
				c-5.7,0-10.3-4.6-10.3-10.3V12.3C3.4,6.6,8,2,13.7,2z"/>
			<path id="Rectangle_1448" class="st4" d="M22.3-0.4l24.8,0l0,0v3.9c0,1.7-1.3,3-3,3H25.3c-1.7,0-3-1.3-3-3V-0.4L22.3-0.4z"/>
			<g id="Group_2850" transform="translate(6.895 11.998)">
				
					<rect id="Rectangle_1451" x="3.2" y="-3.8" transform="matrix(2.533678e-06 1 -1 2.533678e-06 2.6204 -4.4902)" class="st4" width="0.6" height="5.7"/>
				
					<rect id="Rectangle_1452" x="3.2" y="-2.1" transform="matrix(2.533678e-06 1 -1 2.533678e-06 4.3154 -2.7952)" class="st4" width="0.6" height="5.7"/>
				
					<rect id="Rectangle_1453" x="3.2" y="-0.4" transform="matrix(2.533678e-06 1 -1 2.533678e-06 6.0114 -1.0992)" class="st4" width="0.6" height="5.7"/>
			</g>
			<g id="Group_2851" transform="translate(23.559 118.308)">
				<line id="Line_214" class="st0" x1="1.6" y1="-0.3" x2="19.1" y2="-0.3"/>
				<path id="Path_4190" class="st4" d="M1.6,0.6h17.5c0.5,0,1-0.4,1-1s-0.4-0.9-1-0.9l-17.5,0c-0.5,0-1,0.4-1,1S1.1,0.6,1.6,0.6z"
					/>
			</g>
		</g>
		
			<rect id="Rectangle_284" x="3474" y="10448.9" transform="matrix(0.9975 -6.996838e-02 6.996838e-02 0.9975 -723.708 269.0479)" class="st3" width="9.4" height="32.6"/>
		
			<rect id="Rectangle_285" x="3486.2" y="10430.8" transform="matrix(0.9975 -6.996838e-02 6.996838e-02 0.9975 -723.0161 269.8819)" class="st3" width="9.4" height="49.8"/>
		
			<rect id="Rectangle_286" x="3501" y="10461.6" transform="matrix(0.9975 -6.996838e-02 6.996838e-02 0.9975 -724.0209 270.9545)" class="st3" width="9.4" height="18"/>
		
			<rect id="Rectangle_287" x="3514" y="10440.1" transform="matrix(0.9975 -6.996838e-02 6.996838e-02 0.9975 -723.2032 271.8358)" class="st3" width="9.4" height="38.7"/>
		
			<rect id="Rectangle_288" x="3529.8" y="10449.3" transform="matrix(0.9975 -6.996838e-02 6.996838e-02 0.9975 -723.4485 272.9495)" class="st3" width="9.4" height="28.3"/>
	</g>
</g>
</svg>
