<svg xmlns="http://www.w3.org/2000/svg" width="350" height="233.623" viewBox="0 0 350 233.623">
  <g id="Group_3290" data-name="Group 3290" transform="translate(10928 5002.5)">
    <path id="Subtraction_15" data-name="Subtraction 15" d="M4.135,195.446V0h350V153.55c-7.564,1.276-15.3,2.6-22.991,3.945-26.673,4.655-54.182,9.015-81.762,12.96-26.784,3.831-54.366,7.375-81.98,10.533-52.728,6.031-107.659,10.895-163.267,14.458Z" transform="translate(-10932.135 -5002.5)" fill="#86dec6"/>
    <g id="Group_3287" data-name="Group 3287" transform="translate(-10208.924 -8389.471)">
      <path id="Path_4291" data-name="Path 4291" d="M-598.254,3507.532s-.9-50.146,3.614-59.575,45.516-25.311,45.516-25.311,30.852-3.2,40.923,29.568c2.054,6.682,3.864,54.871,3.864,54.871Z" transform="translate(-5.473)" fill="#313131"/>
      <path id="Path_4292" data-name="Path 4292" d="M-632.041,3625.773l5.243-43.295,130.87-4.035,19.874,49.707s-8.433,8.815-39.21,10.419C-539.594,3639.836-621.976,3632.5-632.041,3625.773Z" transform="translate(0 -25.305)" fill="#313131"/>
      <path id="Path_4293" data-name="Path 4293" d="M-473.167,3622.593s-2.59-48.591-18.992-62.361-48.435-18.186-71.564-15.068-50.542,15.371-50.542,15.371" transform="translate(-2.886 -19.748)" fill="#313131"/>
      <path id="Path_3525" data-name="Path 3525" d="M-542.358,3471.679" transform="translate(-14.558 -7.974)" fill="#313131"/>
      <path id="Path_3526" data-name="Path 3526" d="M-509.416,3558.418" transform="translate(-19.906 -22.054)" fill="#313131"/>
      <rect id="Rectangle_1497" data-name="Rectangle 1497" width="34.818" height="82.293" rx="17.409" transform="translate(-575.638 3465.573) rotate(-3.246)" fill="#fec739"/>
      <circle id="Ellipse_666" data-name="Ellipse 666" cx="36.511" cy="36.511" r="36.511" transform="translate(-593.581 3422.929)" fill="#fec739"/>
      <circle id="Ellipse_667" data-name="Ellipse 667" cx="36.511" cy="36.511" r="36.511" transform="translate(-592.438 3443.092)" fill="#fec739"/>
      <rect id="Rectangle_1498" data-name="Rectangle 1498" width="73.022" height="19.671" transform="matrix(0.998, -0.057, 0.057, 0.998, -593.523, 3461.507)" fill="#fec739"/>
      <circle id="Ellipse_668" data-name="Ellipse 668" cx="4.261" cy="4.261" r="4.261" transform="translate(-577.478 3464.559)" fill="#313131"/>
      <circle id="Ellipse_669" data-name="Ellipse 669" cx="4.261" cy="4.261" r="4.261" transform="translate(-552.358 3463.134)" fill="#313131"/>
      <path id="Path_4294" data-name="Path 4294" d="M-550.394,3475.829l-1.069,16.225-.152,2.294c-.064.973.992,1.647,1.839,1.642l4.245-.029c2.246-.015,2.042-3.5-.2-3.48l-4.245.027,1.839,1.642,1.07-16.224.151-2.294a1.752,1.752,0,0,0-1.839-1.642,1.786,1.786,0,0,0-1.642,1.839Z" transform="translate(-13.055 -8.348)" fill="#313131"/>
      <path id="Path_4295" data-name="Path 4295" d="M-552.348,3509.788c3.94,1.384,9.04,1.919,12.34-1.1a1.747,1.747,0,0,0-.2-2.458,1.8,1.8,0,0,0-2.457.2c.382-.35-.007-.01-.1.054q-.176.131-.364.246c-.3.187-.085-.027.013.007-.053-.018-.336.157-.4.183a6.545,6.545,0,0,1-.729.253c-.475.135.2-.025-.1.031-.111.02-.219.042-.33.061a10.476,10.476,0,0,1-1.676.131,2.146,2.146,0,0,0-.446-.007c.2-.049.332.018.028,0-.269-.017-.536-.041-.8-.071a19.048,19.048,0,0,1-2.594-.486c-.27-.07-.536-.148-.8-.226-.307-.09.536.175.2.062l-.086-.029a1.787,1.787,0,0,0-2.323.828,1.764,1.764,0,0,0,.828,2.323Z" transform="translate(-12.779 -13.518)" fill="#313131"/>
      <ellipse id="Ellipse_670" data-name="Ellipse 670" cx="11.323" cy="8.028" rx="11.323" ry="8.028" transform="matrix(0.913, -0.409, 0.409, 0.913, -532.391, 3465.274)" fill="#fec739"/>
      <ellipse id="Ellipse_671" data-name="Ellipse 671" cx="8.028" cy="11.323" rx="8.028" ry="11.323" transform="matrix(0.409, -0.913, 0.913, 0.409, -608.078, 3470.674)" fill="#fec739"/>
      <path id="Path_3529" data-name="Path 3529" d="M-517.358,3435.49c1.21,2.305,4.107,9.456,2.954,11.791-2.623,5.342-13.94,11.768-18.579,9.222-6.406-3.512-4.754-16.942-4.754-16.942s-8.883,14.463-20.66,13.017-1.654-17.149-1.654-17.149-19.835,32.439-31.406,24.8,8.33-35.809,35.152-37.4C-533.364,3421.458-521.32,3427.982-517.358,3435.49Z" transform="translate(-6.042 -0.013)" fill="#313131"/>
      <path id="Path_3530" data-name="Path 3530" d="M-512.341,3434.118s13,12.446,13,23.9-15.078-3.9-16.033-12.182" transform="translate(-18.939 -1.876)" fill="#313131"/>
      <path id="Path_4296" data-name="Path 4296" d="M-576.966,3583a24.581,24.581,0,0,1-24.58,24.581A24.58,24.58,0,0,1-626.125,3583c0-.431.011-.858.033-1.283a24.581,24.581,0,0,1,24.547-23.3A24.581,24.581,0,0,1-576.966,3583Z" transform="translate(-0.96 -22.054)" fill="#313131"/>
      <circle id="Ellipse_672" data-name="Ellipse 672" cx="24.58" cy="24.58" r="24.58" transform="translate(-534.389 3536.364)" fill="#313131"/>
      <path id="Path_4297" data-name="Path 4297" d="M-479.366,3569.941s-23.23,4.256-19.19,33.883l4.04,29.628" transform="translate(-21.592 -23.924)" fill="none" stroke="#313131" stroke-miterlimit="10" stroke-width="1.135"/>
      <path id="Path_4298" data-name="Path 4298" d="M-601.235,3569.941s23.23,4.256,19.19,33.883l-4.04,29.628" transform="translate(-5.001 -23.924)" fill="none" stroke="#313131" stroke-miterlimit="10" stroke-width="1.135"/>
      <path id="Path_4299" data-name="Path 4299" d="M-561.893,3529.022s4.488,2.3,14.08,3.492c-11.452,8.7-10.595,2.428-14.131,10.611A115.489,115.489,0,0,1-561.893,3529.022Z" transform="translate(-11.345 -17.282)" fill="#313131"/>
      <path id="Path_3259" data-name="Path 3259" d="M-610.417,3585.209l99.3,52.053-4.572-112.024Z" transform="translate(-3.51 -16.668)" fill="#ff8e9e"/>
      <path id="Path_3260" data-name="Path 3260" d="M-390.9,3557.729l-99.335-51.989,4.644,112.021Z" transform="translate(-23.019 -13.503)" fill="#ff8e9e"/>
      <path id="Path_3261" data-name="Path 3261" d="M-532.481,3575.65l2.829,5.733a2.16,2.16,0,0,0,1.625,1.18l6.328.919a2.159,2.159,0,0,1,1.825,2.445,2.161,2.161,0,0,1-.632,1.237l-4.578,4.462a2.157,2.157,0,0,0-.62,1.911l1.081,6.3a2.157,2.157,0,0,1-1.763,2.491,2.156,2.156,0,0,1-1.368-.216l-5.659-2.975a2.157,2.157,0,0,0-2.009,0l-5.659,2.975a2.159,2.159,0,0,1-2.914-.908,2.155,2.155,0,0,1-.216-1.367l1.081-6.3a2.159,2.159,0,0,0-.62-1.911l-4.578-4.462a2.157,2.157,0,0,1-.043-3.051,2.16,2.16,0,0,1,1.236-.632l6.327-.919a2.159,2.159,0,0,0,1.625-1.18l2.83-5.733a2.158,2.158,0,0,1,2.89-.983A2.155,2.155,0,0,1-532.481,3575.65Z" transform="translate(-13.483 -24.656)" fill="#fff"/>
      <path id="Path_3262" data-name="Path 3262" d="M-456.823,3548.247l2.916,5.907a2.081,2.081,0,0,0,1.567,1.139l6.52.947a2.082,2.082,0,0,1,1.76,2.361,2.08,2.08,0,0,1-.606,1.19l-4.717,4.6a2.082,2.082,0,0,0-.6,1.842l1.115,6.493a2.082,2.082,0,0,1-1.7,2.4,2.077,2.077,0,0,1-1.321-.209l-5.83-3.066a2.082,2.082,0,0,0-1.938,0l-5.83,3.066a2.082,2.082,0,0,1-2.811-.875,2.083,2.083,0,0,1-.209-1.32l1.114-6.493a2.08,2.08,0,0,0-.6-1.842l-4.717-4.6a2.08,2.08,0,0,1-.04-2.943,2.083,2.083,0,0,1,1.193-.608l6.52-.947a2.084,2.084,0,0,0,1.567-1.139l2.916-5.907a2.081,2.081,0,0,1,2.79-.937A2.083,2.083,0,0,1-456.823,3548.247Z" transform="translate(-25.763 -20.216)" fill="#019e96"/>
      <path id="Path_3090" data-name="Path 3090" d="M-581.162,3633.557c7.047-5.082.42-.965,10.79-7.427,3.331-9.733-.513-25.6,5.518-33.809.451-.624.927-1.251,1.4-1.879.09.562.18,1.125.295,1.682,1.282,6.764,2.561,10.369,8.816,9.194,5.745-1.07,20.784-14.08,31.522-23.895,1.293-1.16,2.517-2.283,3.651-3.342.358,17.59-1.133,37.407-14.461,47.962-13.228,10.5-18.682,12.866-23.9,17.215" transform="translate(-8.259 -24.597)" fill="#fec739"/>
    </g>
  </g>
</svg>
