<?xml version="1.0" encoding="utf-8"?>
<!-- Generator: Adobe Illustrator 25.2.3, SVG Export Plug-In . SVG Version: 6.00 Build 0)  -->
<svg version="1.1" id="圖層_1" xmlns="http://www.w3.org/2000/svg" xmlns:xlink="http://www.w3.org/1999/xlink" x="0px" y="0px"
	 viewBox="0 0 350 249.8" style="enable-background:new 0 0 350 249.8;" xml:space="preserve">
<style type="text/css">
	.st0{fill:#9FD2EA;}
	.st1{fill:#FFFFFF;}
	.st2{fill:#FF8E9E;}
	.st3{fill:#019E96;}
	.st4{fill:#313131;}
	.st5{font-family:'Montserrat-Bold';}
	.st6{font-size:17px;}
	.st7{font-size:18px;}
	.st8{fill:none;stroke:#313131;stroke-width:0.279;stroke-linecap:round;stroke-miterlimit:10;}
	.st9{font-size:13px;}
	.st10{fill:#FEC739;}
	.st11{fill:none;stroke:#313131;stroke-width:0.35;stroke-miterlimit:10;}
</style>
<path id="Subtraction_17" class="st0" d="M154.8,201.2c-50.6,0-102.7-0.8-154.8-2.5V-172h350v368.9
	C286.8,199.7,221.1,201.2,154.8,201.2z"/>
<g id="Group_3301" transform="translate(1241.915 -7657.231)">
	<path id="Path_3338" class="st1" d="M-1178.5,7903l74.5-0.7c10-0.1,17.6-9,15.7-18.6l-15.6-82c-1.5-7.6-8.3-13-16.1-12.9l-46.3,0.7
		c-7.8,0-14.5,5.7-15.7,13.4l-12.5,82C-1196.1,7894.5-1188.4,7903.1-1178.5,7903z"/>
	<g id="Group_2328" transform="translate(848.74 3085.795)">
		<path id="Path_2787" class="st2" d="M-1967.2,4602.7h-1.9c-3.9,0-7.7,1-11.1,3l-1.7,1c-3.4,2-6.2,4.8-8.1,8.1l-1,1.7
			c-2,3.4-3,7.2-3,11.1v1.9c0,3.9,1,7.7,3,11.1l1,1.7c2,3.4,4.8,6.2,8.1,8.1l1.7,1c3.4,2,7.2,3,11.1,3h1.9c3.9,0,7.7-1,11.1-3l1.7-1
			c3.4-2,6.2-4.8,8.1-8.1l1-1.7c2-3.4,3-7.2,3-11.1v-1.9c0-3.9-1-7.7-3-11.1l-1-1.7c-2-3.4-4.8-6.2-8.1-8.1l-1.7-1
			C-1959.5,4603.7-1963.3,4602.7-1967.2,4602.7z"/>
		<path id="Path_2788" class="st3" d="M-1964.6,4603.6h-1.9c-3.9,0-7.7,1-11.1,3l-1.7,1c-3.4,2-6.2,4.8-8.1,8.1l-1,1.7
			c-2,3.4-3,7.2-3,11.1v1.9c0,3.9,1,7.7,3,11.1l1,1.7c2,3.4,4.8,6.2,8.1,8.1l1.7,1c3.4,2,7.2,3,11.1,3h1.9c3.9,0,7.7-1,11.1-3l1.7-1
			c3.4-2,6.2-4.8,8.1-8.1l1-1.7c2-3.4,3-7.2,3-11.1v-1.9c0-3.9-1-7.7-3-11.1l-1-1.7c-2-3.4-4.8-6.2-8.1-8.1l-1.7-1
			C-1956.8,4604.6-1960.7,4603.6-1964.6,4603.6z"/>
		<circle id="Ellipse_259" class="st1" cx="-1965.5" cy="4629.4" r="20"/>
		<path id="Path_3339" class="st4" d="M-1945.9,4626.7c-0.3,0-0.5-0.2-0.5-0.4c-1.7-10.6-11.7-17.9-22.4-16.1
			c-4.2,0.7-8.1,2.7-11.1,5.9c-0.2,0.2-0.5,0.2-0.7,0c-0.2-0.2-0.2-0.5,0-0.7l0,0c7.8-8.3,20.8-8.6,29.1-0.8
			c3.3,3.1,5.5,7.2,6.2,11.7C-1945.3,4626.4-1945.5,4626.6-1945.9,4626.7C-1945.8,4626.7-1945.8,4626.7-1945.9,4626.7
			C-1945.8,4626.7-1945.8,4626.7-1945.9,4626.7z"/>
		<path id="Path_3340" class="st4" d="M-1965.6,4649.9c-4.9,0-9.7-1.8-13.4-5c-0.2-0.2-0.2-0.5-0.1-0.7c0.2-0.2,0.5-0.2,0.7-0.1l0,0
			c8.1,7,20.5,6.2,27.5-2c1.8-2,3.1-4.4,3.9-7c0.1-0.3,0.4-0.4,0.7-0.3c0.3,0.1,0.4,0.4,0.3,0.7
			C-1948.7,4644-1956.6,4649.9-1965.6,4649.9z"/>
		<g id="_" transform="translate(22.007 15.651)">
			<text transform="matrix(1 0 0 1 -1994 4618.6729)" class="st5 st6">R</text>
		</g>
	</g>
	<g id="Group_2329" transform="translate(823.816 3104.073)">
		<path id="Path_2787-2" class="st2" d="M-1967.2,4602.7h-1.9c-3.9,0-7.7,1-11.1,3l-1.7,1c-3.4,2-6.2,4.8-8.1,8.1l-1,1.7
			c-2,3.4-3,7.2-3,11.1v1.9c0,3.9,1,7.7,3,11.1l1,1.7c2,3.4,4.8,6.2,8.1,8.1l1.7,1c3.4,2,7.2,3,11.1,3h1.9c3.9,0,7.7-1,11.1-3l1.7-1
			c3.4-2,6.2-4.8,8.1-8.1l1-1.7c2-3.4,3-7.2,3-11.1v-1.9c0-3.9-1-7.7-3-11.1l-1-1.7c-2-3.4-4.8-6.2-8.1-8.1l-1.7-1
			C-1959.5,4603.7-1963.3,4602.7-1967.2,4602.7z"/>
		<path id="Path_2788-2" class="st3" d="M-1964.6,4603.6h-1.9c-3.9,0-7.7,1-11.1,3l-1.7,1c-3.4,2-6.2,4.8-8.1,8.1l-1,1.7
			c-2,3.4-3,7.2-3,11.1v1.9c0,3.9,1,7.7,3,11.1l1,1.7c2,3.4,4.8,6.2,8.1,8.1l1.7,1c3.4,2,7.2,3,11.1,3h1.9c3.9,0,7.7-1,11.1-3l1.7-1
			c3.4-2,6.2-4.8,8.1-8.1l1-1.7c2-3.4,3-7.2,3-11.1v-1.9c0-3.9-1-7.7-3-11.1l-1-1.7c-2-3.4-4.8-6.2-8.1-8.1l-1.7-1
			C-1956.8,4604.6-1960.7,4603.6-1964.6,4603.6z"/>
		<circle id="Ellipse_259-2" class="st1" cx="-1965.5" cy="4629.4" r="20"/>
		<path id="Path_3341" class="st4" d="M-1945.9,4626.7c-0.3,0-0.5-0.2-0.5-0.4c-1.7-10.6-11.7-17.9-22.4-16.1
			c-4.2,0.7-8.1,2.7-11.1,5.9c-0.2,0.2-0.5,0.2-0.7,0c-0.2-0.2-0.2-0.5,0-0.7c0,0,0,0,0,0l0,0c7.8-8.3,20.8-8.6,29.1-0.8
			c3.3,3.1,5.5,7.2,6.2,11.7C-1945.3,4626.4-1945.5,4626.6-1945.9,4626.7L-1945.9,4626.7
			C-1945.8,4626.7-1945.8,4626.7-1945.9,4626.7z"/>
		<path id="Path_3342" class="st4" d="M-1965.6,4649.9c-4.9,0-9.7-1.8-13.4-5c-0.2-0.2-0.2-0.5-0.1-0.7c0.2-0.2,0.5-0.2,0.7-0.1
			c8.1,7,20.5,6.2,27.5-2c1.8-2,3.1-4.4,3.9-7c0.1-0.3,0.4-0.4,0.7-0.3c0.3,0.1,0.4,0.4,0.3,0.6
			C-1948.7,4644-1956.6,4649.9-1965.6,4649.9z"/>
		<g id="_2" transform="translate(22.836 15.286)">
			<text transform="matrix(1 0 0 1 -1994 4619.6729)" class="st5 st7">$</text>
		</g>
	</g>
	<g id="Group_2859" transform="translate(823.926 3224.424)">
		<g id="Group_2327">
			<path id="Path_2776" class="st2" d="M-1943.7,4644.8c-4.1-4.3-13.3-7.3-24-7.3c-10.7,0-19.9,3-24,7.3h-2.3v5
				c0,6.8,11.8,12.4,26.3,12.4s26.3-5.5,26.3-12.4v-5H-1943.7z"/>
			<ellipse id="Ellipse_254" class="st3" cx="-1967.7" cy="4644.8" rx="26.3" ry="12.4"/>
			<path id="Path_2777" class="st2" d="M-1935.8,4635.3c-4.1-4.3-13.3-7.3-24-7.3c-10.7,0-19.9,3-24,7.3h-2.3v5
				c0,6.8,11.8,12.4,26.3,12.4c14.5,0,26.3-5.5,26.3-12.4v-5H-1935.8z"/>
			<ellipse id="Ellipse_255" class="st3" cx="-1959.8" cy="4635.3" rx="26.3" ry="12.4"/>
			<path id="Path_2778" class="st2" d="M-1941.4,4625.2c-4.1-4.3-13.3-7.3-24-7.3c-10.7,0-19.9,3-24,7.3h-2.3v5
				c0,6.8,11.8,12.4,26.3,12.4s26.3-5.5,26.3-12.4v-5H-1941.4z"/>
			<ellipse id="Ellipse_256" class="st3" cx="-1965.4" cy="4625.2" rx="26.3" ry="12.4"/>
			<path id="Path_2782" class="st2" d="M-1938.3,4615c-4.1-4.3-13.3-7.3-24-7.3c-10.7,0-19.9,3-24,7.3h-2.3v5
				c0,6.8,11.8,12.4,26.3,12.4c14.5,0,26.3-5.5,26.3-12.4v-5H-1938.3z"/>
			<ellipse id="Ellipse_257" class="st3" cx="-1962.3" cy="4615" rx="26.3" ry="12.4"/>
			<ellipse id="Ellipse_258" class="st1" cx="-1962.6" cy="4614.6" rx="22.7" ry="9.3"/>
			<path id="Path_2783" class="st8" d="M-1941.1,4618.2c-3.3,3.5-11.5,5.9-21.2,5.9c-10.5,0-19.3-2.9-21.9-6.8"/>
		</g>
		<g id="_3" transform="translate(24.945 2.128)">
			<text transform="matrix(0.9983 5.903000e-02 -5.903000e-02 0.9983 -1993.7198 4615.6997)" class="st5 st9">¥</text>
		</g>
	</g>
	<path id="Path_4196" class="st4" d="M-1003.8,7766.9c0,0,13.6,1.7,17.1-1.9c9.7-10.2,6.8-37.8,6.8-37.8l-22.6,1.6"/>
	<path id="Path_4197" class="st2" d="M-969.7,7800.4h-86.2c0,0-21.5-2-25.1,24.2s-10,63.8-10,63.8l117.7,2.3L-969.7,7800.4z"/>
	<path id="Path_4198" class="st4" d="M-1049.8,7815.8l-1.5,7.3l-3.5,17.5l-4.2,21.2l-3.7,18.3l-1.2,6c-0.2,1-0.3,1.9-0.6,2.9
		c0,0,0,0.1,0,0.1c-0.3,1.3-2.3,0.8-2-0.6l1.5-7.3l3.5-17.5l4.2-21.2l3.7-18.3l1.2-6c0.2-0.9,0.3-1.9,0.6-2.9c0,0,0-0.1,0-0.1
		C-1051.6,7813.9-1049.6,7814.5-1049.8,7815.8L-1049.8,7815.8z"/>
	<path id="Rectangle_1460" class="st10" d="M-1018.4,7740.8l15,1.4c5.2,0.5,9,5.1,8.5,10.3l-4.8,51.4c-0.9,9.3-9.1,16.2-18.5,15.4
		l0,0l0,0c-9.3-0.9-16.2-9.1-15.4-18.5l0,0l4.8-51.4C-1028.2,7744.1-1023.6,7740.3-1018.4,7740.8z"/>
	<circle id="Ellipse_629" class="st10" cx="-1022.6" cy="7738.4" r="28.9"/>
	<circle id="Ellipse_630" class="st10" cx="-1024" cy="7754.3" r="28.9"/>
	
		<rect id="Rectangle_1461" x="-1031.1" y="7717.2" transform="matrix(9.197793e-02 -0.9958 0.9958 9.197793e-02 -8642.4209 6014.6895)" class="st10" width="15.6" height="57.8"/>
	<circle id="Ellipse_631" class="st4" cx="-1043" cy="7742.8" r="3.4"/>
	<circle id="Ellipse_632" class="st4" cx="-1023.1" cy="7744.6" r="3.4"/>
	<path id="Path_4199" class="st4" d="M-1035.2,7742.9l-2.7,12.6l-0.4,1.8c-0.2,0.8,0.6,1.4,1.2,1.5l3.3,0.5c1.8,0.3,2-2.5,0.3-2.7
		l-3.3-0.5l1.2,1.5l2.7-12.6l0.4-1.8c0.1-0.8-0.5-1.4-1.2-1.5C-1034.4,7741.6-1035.1,7742.1-1035.2,7742.9L-1035.2,7742.9z"/>
	<path id="Path_4200" class="st4" d="M-1035.2,7768c3.2,0.8,7.3,0.9,9.7-1.7c0.4-0.6,0.3-1.5-0.3-1.9c-0.6-0.4-1.5-0.3-1.9,0.3
		c0.3-0.3,0,0-0.1,0c-0.1,0.1-0.2,0.1-0.3,0.2c-0.2,0.2-0.1,0,0,0c0,0-0.3,0.1-0.3,0.2c-0.2,0.1-0.4,0.2-0.6,0.2
		c-0.4,0.1,0.2,0-0.1,0c-0.1,0-0.2,0-0.3,0.1c-0.4,0.1-0.9,0.2-1.3,0.2c-0.1,0-0.2,0-0.4,0c0.2-0.1,0.3,0,0,0c-0.2,0-0.4,0-0.6,0
		c-0.7,0-1.4-0.1-2.1-0.2c-0.2,0-0.4-0.1-0.6-0.1c-0.2-0.1,0.4,0.1,0.2,0l-0.1,0c-0.7-0.2-1.5,0.1-1.8,0.8
		C-1036.2,7767-1035.9,7767.8-1035.2,7768L-1035.2,7768z"/>
	
		<ellipse id="Ellipse_633" transform="matrix(0.9632 -0.2686 0.2686 0.9632 -2116.916 17.9641)" class="st10" cx="-992.8" cy="7744.4" rx="9" ry="6.4"/>
	<circle id="Ellipse_634" class="st2" cx="-970.4" cy="7821.3" r="20.9"/>
	<path id="Path_4201" class="st11" d="M-1035.9,7892.4"/>
	<path id="Path_4202" class="st2" d="M-1024.5,7889.7l-29.2-14l63,30.3c10.2,3.5,21.2-1.9,24.8-12.1c0.2-0.6,0.4-1.3,0.5-1.9
		l16-68.1"/>
	<path id="Path_4203" class="st4" d="M-977.7,7813.4c-0.5,0.5-0.9,1-1.4,1.6c-0.2,0.2-0.4,0.5-0.6,0.7c-0.1,0.1-0.2,0.2-0.3,0.4
		c0.2-0.2-0.1,0.2-0.2,0.2c-0.8,1.1-1.5,2.2-2.1,3.4c-0.2,0.3-0.3,0.7-0.5,1c0,0-0.1,0.3-0.1,0.2s-0.1,0.2-0.1,0.2
		c-0.1,0.2-0.2,0.4-0.2,0.6c-0.3,0.9-0.6,1.7-0.9,2.6c-0.7,2.3-1.3,4.7-1.8,7.1c-1.5,6.7-2.7,13.4-4.1,20.1c-1.2,6-2.4,12-3.7,17.9
		c-0.4,2-0.8,4-1.3,6c-0.2,0.9-0.4,1.9-0.6,2.9c0,0,0,0.1,0,0.1c-0.3,1.3-2.3,0.8-2-0.6c0.5-2.5,1-4.9,1.6-7.4
		c1.2-5.7,2.4-11.5,3.6-17.3c1.4-6.8,2.6-13.7,4.1-20.5c0.8-4.5,2.1-8.9,3.8-13.1c1.2-2.5,2.7-4.9,4.6-6.9c0.2-0.3,0.5-0.5,0.7-0.8
		C-978.3,7810.9-976.8,7812.4-977.7,7813.4L-977.7,7813.4z"/>
	<path id="Path_4204" class="st10" d="M-1026.2,7865.1c0,0-1-8-8.1-8.7c-7-0.7-13.7,0.4-20.1-2.7c-6.4-3-9.4-5.7-12.7-4.7
		c-3.2,1,2.8,7.4,11.3,9.6c0,0,0.1,0.1,0.1,0.1c0,0-0.1,0.1-0.1,0.1l0,0c-9.4-0.8-19.5-3-24.4-7.9c-2.3-2.2-9.6-6.6-7.9-2.6
		s14.7,19.4,34.4,16.1c8.7-1.6,8,4.3,8,4.3L-1026.2,7865.1z"/>
	<path id="Path_4205" class="st4" d="M-1021.6,7892.4l-3.4-2.2l-8.3-5.2l-10-6.3l-8.7-5.5c-1.4-0.9-2.8-1.7-4.2-2.6l-0.1,0
		c-0.5-0.3-0.6-1-0.3-1.5c0.2-0.3,0.5-0.5,0.9-0.5l9.8-1.3l17.5-2.3l6-0.8c0.7-0.2,1.5-0.2,2.2,0.1l12,6.4l12,6.4l0.2,0.1
		c1.2,0.6,0.1,2.4-1.1,1.8l-8.3-4.4l-13.2-7l-3-1.6l0.5,0.1l-11.8,1.6l-18.7,2.5l-4.3,0.6l0.5-2l3.4,2.2l8.3,5.2l10,6.3l8.7,5.5
		c1.4,0.9,2.8,1.7,4.2,2.6l0.1,0C-1019.4,7891.2-1020.4,7893.1-1021.6,7892.4L-1021.6,7892.4z"/>
	<path id="Path_4206" class="st10" d="M-1054.7,7859c0,0-18.3-9.3-22.5-10.3c-4.2-1-8.5-2.1-10.9-1.9c2.8,3,11.8,12.7,11.8,12.7
		l23.8,3.7L-1054.7,7859z"/>
	<path id="Path_4207" class="st4" d="M-1031.7,7782.1c1.9,0.6,3.9,0.9,5.9,0.9c-2,2.7-4.3,5.2-6.7,7.6L-1031.7,7782.1z"/>
	<path id="Path_4208" class="st4" d="M-1051.2,7743.3c0,0,4.2-18.7,21.2-19c-0.4,8.8,9.2,19.3,17,15.4s8.2,3.6,8.2,3.6s3,6.3,10-4.6
		c3.4-0.8,11.3-2.3,11.3-2.3s10.2-12.5-3.9-21s-45.9-6-45.9-6s-26.2-1.3-30.3,31.6C-1060.3,7742.1-1051.2,7743.3-1051.2,7743.3z"/>
</g>
</svg>
