<svg id="Group_2831" data-name="Group 2831" xmlns="http://www.w3.org/2000/svg" width="566.583" height="518.323" viewBox="0 0 566.583 518.323">
  <path id="Path_2377" data-name="Path 2377" d="M2932.123,1180.433c11.578,3.145,38.895,8.033,38.895,28.22,0,18.078-14.132,32.622-14.132,49.117,0,8.637,5.4,19.924,5.4,32.455,0,25.815-47.988,24.326-66.738,24.364h-.056c-1.074-8.419,10.745-33.933,12.7-41.324,7.165-27.777,3.241-25.675-1.273-54-.9-6.441,3.2-13.227-3.3-13.2-.172,0-20.845-20.834-4.081-16.7-6.491-11.664,7.1-6.553,1.347-18.559a27.473,27.473,0,0,0,1.947-4.307,55.287,55.287,0,0,1-5.971.277c-12.676.245-23.636-5.135-29.806-16.21-3.8,4.674-6.8,9.066-7.032,15.085,0,.687-2.238.651-2.163,1.334l2.163.74c-2.915-3.488-6.062-8.691-6.211-13.234.365-8.086,5.242-14.9,11-20.592,7.393-6.167,15.087-7.886,28.915-7.7,15.886,0,32.479,19.445,32.479,35.432C2926.177,1168.358,2925.618,1178.659,2932.123,1180.433Z" transform="translate(-2537.971 -1077.434)" fill="#313131"/>
  <path id="Path_4072" data-name="Path 4072" d="M2876.933,1226.828l15.72-14.073,12.263,10.057-23.519,10.536Z" transform="translate(-2540.404 -1086.546)" fill="#ffc517"/>
  <rect id="Rectangle_1423" data-name="Rectangle 1423" width="21.55" height="54.847" rx="10.775" transform="translate(342.921 88.981) rotate(0.322)" fill="#fec739"/>
  <path id="Path_4073" data-name="Path 4073" d="M2902.4,1181.344h.007l.025-4.222a9.261,9.261,0,0,0,2.7-.58c3.542-1.328,5.649-4.439,4.708-6.95-.885-2.356-4.142-3.345-7.468-2.358a22.08,22.08,0,0,0-44.06,1.968l-.065,11.9h.008c0,.106-.009.211-.01.317a22.079,22.079,0,0,0,44.157.248C2902.411,1181.555,2902.406,1181.45,2902.4,1181.344Z" transform="translate(-2538.439 -1079.651)" fill="#fec739"/>
  <ellipse id="Ellipse_547" data-name="Ellipse 547" cx="2.577" cy="2.577" rx="2.577" ry="2.577" transform="translate(324.144 91.83)" fill="#313131"/>
  <ellipse id="Ellipse_548" data-name="Ellipse 548" cx="2.577" cy="2.577" rx="2.577" ry="2.577" transform="translate(339.358 91.916)" fill="#313131"/>
  <path id="Path_4074" data-name="Path 4074" d="M2874.556,1176.608l-1.258,9.752-.177,1.378-1.048-1.06,2.563.143c1.35.075,1.347,2.183-.011,2.108l-2.563-.143c-.516-.028-1.124-.47-1.048-1.059l1.254-9.752.179-1.38a1.087,1.087,0,0,1,1.06-1.048,1.061,1.061,0,0,1,1.05,1.061Z" transform="translate(-2539.781 -1082.63)" fill="#313131"/>
  <path id="Path_4075" data-name="Path 4075" d="M2874.971,1195.651l.054.008c.215.034-.315-.039-.122-.018.159.019.318.038.48.052a11.6,11.6,0,0,0,1.614.029c.164-.009.326-.022.487-.039.12-.013.2-.079-.015,0a1.635,1.635,0,0,1,.265-.041,6.337,6.337,0,0,0,.954-.237c.076-.026.148-.054.223-.081.175-.063-.213.1.056-.028a4.113,4.113,0,0,0,.409-.225c.03-.019.191-.157.219-.15-.052-.013-.187.154-.007,0,.065-.059.13-.119.19-.183.046-.047.243-.289.051-.042a1.085,1.085,0,0,1,1.445-.37,1.063,1.063,0,0,1,.369,1.444c-1.661,2.136-4.755,2.334-7.244,1.908a1.056,1.056,0,0,1-.728-1.3,1.082,1.082,0,0,1,1.3-.728Z" transform="translate(-2540.058 -1084.59)" fill="#313131"/>
  <path id="Path_2423" data-name="Path 2423" d="M2846.251,1257.092h0l-19.816,26.826s-9.843-12.859-14.738-18.733-16.187-18.563-19.412-21.9a70.532,70.532,0,0,1-11.732-17.788c-1.729-5-8.472-28.075-8.472-28.075s-5.284,5.8-5.785,26.484c6.328,17.023,21.748,56.709,42.4,81.538-16.407,10.481-24.637,16.739-34.746,27.72s-18.4,26.874-9.229,33.831c3.592,1.957,7.54-2.106,12.591-9.058s19.148-30.435,45.314-33.015,32.835-7.48,32.835-7.48l31.569-46.334" transform="translate(-2528.178 -1084.932)" fill="#fec739"/>
  <g id="shadow-3" transform="translate(129.534 505.983)">
    <ellipse id="Ellipse_246" data-name="Ellipse 246" cx="60.396" cy="4.407" rx="60.396" ry="4.407" transform="translate(0 3.526)" fill="#f8c279"/>
    <ellipse id="Ellipse_247" data-name="Ellipse 247" cx="44.967" cy="5.731" rx="44.967" ry="5.731" transform="translate(208.08)" fill="#f8c279"/>
  </g>
  <g id="back_line-3" data-name="back line-3" transform="translate(0 93.736)">
    <g id="Group_1705" data-name="Group 1705" transform="translate(454.453 159.955)">
      <g id="Group_1703" data-name="Group 1703">
        <path id="Path_2355" data-name="Path 2355" d="M3010.949,1381.833a.981.981,0,0,1-.975-.986v0a1,1,0,0,1,.146-.514,29.143,29.143,0,0,0,4.449-13.357,5.1,5.1,0,0,1-5.787-4.307q-.041-.294-.053-.591a7.355,7.355,0,0,1,7.115-6.841c3.653,0,7.35,3.16,7.35,9.2,0,5.6-4.253,11.882-11.669,17.212A.976.976,0,0,1,3010.949,1381.833Zm4.656-17.07a.981.981,0,0,1,.98.981v.025a30.2,30.2,0,0,1-2.552,11.329c4.616-4.192,7.184-8.671,7.184-12.672,0-4.973-2.791-7.239-5.386-7.239a5.445,5.445,0,0,0-5.153,4.88,3.106,3.106,0,0,0,3.239,2.967h.033a4.175,4.175,0,0,0,1.327-.227A.936.936,0,0,1,3015.6,1364.762Z" transform="translate(-3008.73 -1355.233)" fill="#313131"/>
      </g>
      <g id="Group_1704" data-name="Group 1704" transform="translate(17.46)">
        <path id="Path_2356" data-name="Path 2356" d="M3030.462,1381.833a.982.982,0,0,1-.976-.986v0a1,1,0,0,1,.146-.514,29.132,29.132,0,0,0,4.449-13.357,5.1,5.1,0,0,1-5.786-4.312,5.592,5.592,0,0,1-.053-.586,7.355,7.355,0,0,1,7.115-6.841c3.652,0,7.349,3.161,7.349,9.2,0,5.6-4.256,11.882-11.667,17.212A.982.982,0,0,1,3030.462,1381.833Zm4.656-17.07a.981.981,0,0,1,.981.981v.024a30.127,30.127,0,0,1-2.554,11.329c4.618-4.192,7.186-8.671,7.186-12.672,0-4.973-2.791-7.239-5.387-7.239a5.444,5.444,0,0,0-5.152,4.879,3.1,3.1,0,0,0,3.237,2.968h.028a4.2,4.2,0,0,0,1.332-.227A.935.935,0,0,1,3035.119,1364.762Z" transform="translate(-3028.244 -1355.233)" fill="#313131"/>
      </g>
    </g>
    <g id="Group_1710" data-name="Group 1710" transform="translate(91.835 0)">
      <g id="Group_1706" data-name="Group 1706">
        <path id="Path_2357" data-name="Path 2357" d="M2626.853,1265.3a.981.981,0,0,1-.98-.981,1,1,0,0,1,.132-.5,84.93,84.93,0,0,0,8.566-21.573c-8.842-.227-18.465-.634-30.187-1.274a.983.983,0,0,1-.925-1.039h0v-.041c1.678-16.247,2.088-32.925,2.45-47.642.124-5.095.244-9.911.407-14.351a.978.978,0,0,1,1.078-.942q2.88.275,5.755.588c8.347.865,16.981,1.761,25.465,1.912a487.5,487.5,0,0,0,56.838-2.99.992.992,0,0,1,.755.241.98.98,0,0,1,.332.721c.1,6.416.176,14.368,0,24.837-.239,13.23-.848,25.44-1.868,37.323a.982.982,0,0,1-.884.893c-13.558,1.312-26.724,1.933-41.389,1.98a114.9,114.9,0,0,1-24.978,22.658A1.018,1.018,0,0,1,2626.853,1265.3Zm-21.345-26.233c11.78.638,21.438,1.036,30.327,1.246a.983.983,0,0,1,.959,1.008h0a.794.794,0,0,1-.028.207,92.907,92.907,0,0,1-7.051,19.572,110.407,110.407,0,0,0,21.428-20.228.971.971,0,0,1,.766-.37c14.492-.022,27.5-.627,40.855-1.9.976-11.582,1.561-23.486,1.79-36.376.177-9.85.116-17.487.028-23.7a487.591,487.591,0,0,1-56.013,2.888c-8.566-.155-17.242-1.053-25.632-1.935q-2.35-.248-4.7-.483c-.144,4.144-.254,8.59-.367,13.284-.366,14.465-.77,30.795-2.367,46.791Z" transform="translate(-2603.457 -1176.462)" fill="#313131"/>
      </g>
      <g id="Group_1707" data-name="Group 1707" transform="translate(28.031 27.903)">
        <path id="Path_2358" data-name="Path 2358" d="M2635.768,1217.987h-.1a.982.982,0,0,1-.878-1.074h0c.083-.829.226-1.658.37-2.509a24.141,24.141,0,0,0,.437-3.592,7.774,7.774,0,0,0-.183-1.962.98.98,0,0,1,.735-1.177h0a.982.982,0,0,1,1.178.735h0a9.8,9.8,0,0,1,.234,2.437,25.571,25.571,0,0,1-.462,3.884c-.137.8-.277,1.6-.352,2.374A.984.984,0,0,1,2635.768,1217.987Z" transform="translate(-2634.786 -1207.647)" fill="#313131"/>
      </g>
      <g id="Group_1708" data-name="Group 1708" transform="translate(42.75 28.151)">
        <path id="Path_2359" data-name="Path 2359" d="M2652.219,1218.054h-.1a.985.985,0,0,1-.878-1.076,27.012,27.012,0,0,1,.641-3.378,18.616,18.616,0,0,0,.649-3.943V1209a.982.982,0,0,1,1.954-.2v.064c.019.275.025.552.019.828a20.517,20.517,0,0,1-.7,4.355,24.571,24.571,0,0,0-.6,3.128A.983.983,0,0,1,2652.219,1218.054Z" transform="translate(-2651.236 -1207.925)" fill="#313131"/>
      </g>
      <g id="Group_1709" data-name="Group 1709" transform="translate(59.286 27.343)">
        <path id="Path_2360" data-name="Path 2360" d="M2670.7,1218.7h-.088a.981.981,0,0,1-.893-1.061h0a73.938,73.938,0,0,1,1.556-9.856.981.981,0,1,1,1.912.443v0h0a71.041,71.041,0,0,0-1.511,9.586A.983.983,0,0,1,2670.7,1218.7Z" transform="translate(-2669.716 -1207.022)" fill="#313131"/>
      </g>
    </g>
    <g id="Group_1711" data-name="Group 1711" transform="translate(0 410.11)">
      <path id="Path_2361" data-name="Path 2361" d="M2501.818,1637.677a.981.981,0,1,1-.035-1.961h0c8.738-.307,18.192-.627,29.289-.9a1,1,0,0,1,1.006.959.977.977,0,0,1-.95,1h0C2520.035,1637.053,2510.593,1637.374,2501.818,1637.677Z" transform="translate(-2500.819 -1634.815)" fill="#313131"/>
    </g>
    <g id="Group_1712" data-name="Group 1712" transform="translate(54.555 409.311)">
      <path id="Path_2362" data-name="Path 2362" d="M2562.783,1636.2a.983.983,0,0,1-.019-1.966h0c13.468-.185,28.151-.275,44.888-.309,16.854-.019,32.327.038,47.275.185a.98.98,0,0,1,.984.978v0a.981.981,0,0,1-.979.983h-.005c-14.954-.149-30.41-.207-47.248-.185C2590.924,1635.911,2576.252,1636.013,2562.783,1636.2Z" transform="translate(-2561.792 -1633.922)" fill="#313131"/>
    </g>
    <g id="Group_1713" data-name="Group 1713" transform="translate(247.12 408.258)">
      <path id="Path_2363" data-name="Path 2363" d="M2785.7,1637.8c-2.584,0-5.148,0-7.709-.025a.98.98,0,0,1-.98-.98v0a.981.981,0,0,1,.98-.98c19.165.12,38.639-.207,63.117-1.061,14.611-.511,27.057-1.075,39.095-1.617l8.619-.387a.991.991,0,0,1,1.024.937.98.98,0,0,1-.934,1.024h0l-8.618.388c-12.042.553-24.494,1.1-39.112,1.616C2819.951,1637.454,2802.481,1637.8,2785.7,1637.8Z" transform="translate(-2777.008 -1632.745)" fill="#313131"/>
    </g>
    <g id="Group_1714" data-name="Group 1714" transform="translate(416.522 406.471)">
      <path id="Path_2364" data-name="Path 2364" d="M3115.438,1637.919h-.077c-41.971-3.286-84.9-5.035-127.589-5.2-7-.024-13.879,0-20.446.053a.981.981,0,0,1-.989-.973v0a.98.98,0,0,1,.972-.989h0c6.563-.061,13.452-.078,20.447-.053,42.737.164,85.714,1.912,127.735,5.2a.977.977,0,0,1,.9,1.047v.006a.984.984,0,0,1-.981.906Z" transform="translate(-2966.337 -1630.748)" fill="#313131"/>
    </g>
    <g id="Group_1715" data-name="Group 1715" transform="translate(300.227 347)">
      <path id="Path_2365" data-name="Path 2365" d="M2838.4,1638.368a.978.978,0,0,1-.967-.828,84.1,84.1,0,0,1-1.07-13.3c0-38.335,24.473-57.749,48.728-59.958a.982.982,0,1,1,.179,1.956h0c-23.364,2.144-46.942,20.914-46.942,58.011a82.518,82.518,0,0,0,1.045,12.986.981.981,0,0,1-.812,1.125h0A.979.979,0,0,1,2838.4,1638.368Z" transform="translate(-2836.362 -1564.281)" fill="#313131"/>
    </g>
    <g id="Group_1716" data-name="Group 1716" transform="translate(354.016 361.619)">
      <path id="Path_2366" data-name="Path 2366" d="M2897.462,1629.4a.982.982,0,0,1-.983-.978,1.153,1.153,0,0,1,.019-.193,207.7,207.7,0,0,0,4.239-40.955c0-1.884-.033-3.783-.1-5.636a.983.983,0,0,1,.948-1.015.954.954,0,0,1,1.011.892v.064c.063,1.879.1,3.8.1,5.706a209.588,209.588,0,0,1-4.275,41.333A.982.982,0,0,1,2897.462,1629.4Z" transform="translate(-2896.479 -1580.62)" fill="#313131"/>
    </g>
    <g id="Group_1717" data-name="Group 1717" transform="translate(358.105 370.492)">
      <path id="Path_2367" data-name="Path 2367" d="M2902.034,1597.158a.978.978,0,0,1-.985-.97v-.005a.976.976,0,0,1,.552-.9c3.059-1.445,6.249-3.009,9.486-4.645a.982.982,0,1,1,.886,1.752c-3.249,1.658-6.454,3.216-9.533,4.67A1.006,1.006,0,0,1,2902.034,1597.158Z" transform="translate(-2901.048 -1590.536)" fill="#313131"/>
    </g>
    <g id="Group_1718" data-name="Group 1718" transform="translate(355.779 390.074)">
      <path id="Path_2368" data-name="Path 2368" d="M2899.434,1622.735a.98.98,0,0,1-.985-.975h0a.985.985,0,0,1,.642-.926c2.421-.912,4.854-1.8,7.291-2.7,4.9-1.8,9.948-3.655,14.858-5.643a.984.984,0,0,1,1.277.549v0a.982.982,0,0,1-.544,1.276l-.009,0h0c-4.926,2-10,3.868-14.921,5.667-2.425.892-4.859,1.784-7.275,2.693A.98.98,0,0,1,2899.434,1622.735Z" transform="translate(-2898.448 -1612.421)" fill="#313131"/>
    </g>
    <g id="Group_1719" data-name="Group 1719" transform="translate(378.391 281.754)">
      <path id="Path_2369" data-name="Path 2369" d="M2984.894,1625.25a1.022,1.022,0,0,1-.3-.044.979.979,0,0,1-.642-1.229h0c1.636-5.181,3.391-10.45,5.084-15.546,7.707-23.154,15.673-47.1,15.673-71.632,0-20.939-9.72-43.475-31.055-43.475-13.6,0-34.5,11.19-48.126,32.579a.982.982,0,0,1-1.659-1.052l0,0c12.367-19.405,33.3-33.489,49.783-33.489a28.7,28.7,0,0,1,24.866,14.324,58.335,58.335,0,0,1,8.163,31.112c0,24.854-8.013,48.951-15.772,72.255-1.694,5.086-3.444,10.35-5.074,15.518A.985.985,0,0,1,2984.894,1625.25Z" transform="translate(-2923.721 -1491.36)" fill="#313131"/>
    </g>
    <g id="Group_1720" data-name="Group 1720" transform="translate(424.201 281.936)">
      <path id="Path_2370" data-name="Path 2370" d="M2977.337,1618.071a.922.922,0,0,1-.182-.017.984.984,0,0,1-.782-1.146h0a259.828,259.828,0,0,0,4.363-46.7c0-31.289-1.9-56.644-5.8-77.485a.984.984,0,0,1,1.935-.359c3.918,20.972,5.824,46.42,5.824,77.847a261.882,261.882,0,0,1-4.4,47.067A.977.977,0,0,1,2977.337,1618.071Z" transform="translate(-2974.918 -1491.563)" fill="#313131"/>
    </g>
    <g id="Group_1721" data-name="Group 1721" transform="translate(428.702 303.4)">
      <path id="Path_2371" data-name="Path 2371" d="M2980.935,1532.73a.981.981,0,0,1-.986-.975h0a.979.979,0,0,1,.553-.882c9.458-4.8,18.329-10.152,26.509-15.217a.981.981,0,0,1,1.317.435h0a.984.984,0,0,1-.275,1.222c-8.219,5.088-17.132,10.461-26.652,15.3A1,1,0,0,1,2980.935,1532.73Z" transform="translate(-2979.949 -1515.552)" fill="#313131"/>
    </g>
    <g id="Group_1722" data-name="Group 1722" transform="translate(430.017 343.432)">
      <path id="Path_2372" data-name="Path 2372" d="M2982.4,1575.316a.98.98,0,0,1-.981-.975v-.007a.976.976,0,0,1,.625-.914,295.249,295.249,0,0,0,28.066-13.017.983.983,0,0,1,1.322.42l0,0a.98.98,0,0,1-.42,1.321l0,0a297.182,297.182,0,0,1-28.255,13.1A1.035,1.035,0,0,1,2982.4,1575.316Z" transform="translate(-2981.418 -1560.293)" fill="#313131"/>
    </g>
    <g id="Group_1723" data-name="Group 1723" transform="translate(427.749 388.78)">
      <path id="Path_2373" data-name="Path 2373" d="M2979.868,1617.507a.981.981,0,0,1-.154-1.951,131.019,131.019,0,0,0,18.867-4.535.978.978,0,0,1,1.228.639l0,.006a.978.978,0,0,1-.638,1.227l-.006,0a132.972,132.972,0,0,1-19.144,4.588A.838.838,0,0,1,2979.868,1617.507Z" transform="translate(-2978.884 -1610.976)" fill="#313131"/>
    </g>
    <g id="Group_1724" data-name="Group 1724" transform="translate(452.853 364.911)">
      <path id="Path_2374" data-name="Path 2374" d="M3075.79,1635.121a.98.98,0,0,1-.98-.98,14.578,14.578,0,0,1,.642-4.114,10.44,10.44,0,0,0,.494-2.923,16.709,16.709,0,0,0-17.312-16.079h-.214a24.241,24.241,0,0,0-14.291,4.6.983.983,0,0,1-1.376-.187l-.006-.01a.982.982,0,0,1-.187-.458q-.277-2.1-.525-4.117c-1.847-14.81-3.066-24.591-18.271-24.591a32.626,32.626,0,0,0-15.371,3.686.981.981,0,0,1-.94-1.723h0a34.613,34.613,0,0,1,16.3-3.923c16.937,0,18.385,11.6,20.22,26.315.1.829.2,1.658.314,2.506a26.525,26.525,0,0,1,14.115-4.054,18.664,18.664,0,0,1,19.479,17.811v.221a12.289,12.289,0,0,1-.551,3.438,12.559,12.559,0,0,0-.577,3.592.98.98,0,0,1-.979.981Z" transform="translate(-3006.941 -1584.299)" fill="#313131"/>
    </g>
  </g>
  <path id="Path_2375" data-name="Path 2375" d="M2746.51,1601.129q-2.129,5.8-4.485,11.561c-.276.171-.362.881-.633,1.039a17.719,17.719,0,0,0-5.526-7.477,91.925,91.925,0,0,1-20.906-15.575,58.717,58.717,0,0,0-.854-8.356,41.481,41.481,0,0,0,8.964-16.609h.013A368.885,368.885,0,0,1,2746.51,1601.129Z" transform="translate(-2523.267 -1123.695)" fill="#fec739"/>
  <path id="Path_2376" data-name="Path 2376" d="M2760.249,1625.73c3.392,8.225,4.029,13.842-.312,13.842a6.71,6.71,0,0,1-3.659-1.1c.495-1.788.992-3.562,1.5-5.305Q2758.889,1629.408,2760.249,1625.73Z" transform="translate(-2527.706 -1130.012)" fill="#fec739"/>
  <path id="Path_2378" data-name="Path 2378" d="M2947.929,1638.956H2910.3c-.3-2.1-.61-4.183-.91-6.255,7.475-2.526,14.766-5.363,22.072-8.342v.014c3.544,0,7.107.014,10.666.014h2.694Q2946.351,1631.415,2947.929,1638.956Z" transform="translate(-2543.82 -1129.868)" fill="#fff"/>
  <path id="Path_2379" data-name="Path 2379" d="M2938.293,1599.8h-2.7c-3.564,0-7.12-.015-10.671-.015v-.014a.934.934,0,0,0,.185-.072c-10.949-28.128-35.367-52.935-59.784-84.738a86.331,86.331,0,0,1-17.827-52.5v-.213q0-3.127.044-6.255c23.033-23.064,41.3-42.809,51.317-65.275l1.179.042a304.131,304.131,0,0,0-11.393,91.1C2915.881,1514.386,2926.684,1546.75,2938.293,1599.8Z" transform="translate(-2537.308 -1105.277)" fill="#019e96"/>
  <path id="Path_2380" data-name="Path 2380" d="M2896.939,1371.814l-1.178-.042a240.862,240.862,0,0,1-76.75-15.02c-3.869-1.49,3.952-22.549,9.475-32.877.95-1.83,1.829-3.659,2.64-5.527v-.014a9.424,9.424,0,0,0,7.093-2.21,345.9,345.9,0,0,0,37.531-36.495c-6.75-5.162-15.146-11.053-23.248-18.425-4.511,5.178-9.007,10.566-13.787,16.523-.027-4.34-.258-8.822-.666-13.517a17.631,17.631,0,0,1,5.161-14.014,220.89,220.89,0,0,1,27.52-23.588,6.213,6.213,0,0,0,4.521,1.575c7.46,0,14.879-10.566,24-17.519a9.675,9.675,0,0,1,9.616,8.328,155.425,155.425,0,0,1-2.993,63.275,96.609,96.609,0,0,0-2.879,16.78c-.52,6.047-7.376,70.088-7.234,72.724" transform="translate(-2534.199 -1086.326)" fill="#fff"/>
  <path id="Path_2381" data-name="Path 2381" d="M2887.966,1388.946c-10.013,22.466-28.281,42.211-51.317,65.275-8.456,8.469-17.56,17.391-27.138,27.064-5.856,38.114-10.679,56.09-28.07,78.084a143.922,143.922,0,0,0-21.551,37.277l-2.211-.3c-.553-.071-13.517-1.8-13.76-2.285a2.665,2.665,0,0,0,.5-.617,13.149,13.149,0,0,0,1.365-2.527q2.005-4.975,3.834-9.972c24.114-66.071,25.278-135.547,61.574-207.019A240.951,240.951,0,0,0,2887.966,1388.946Z" transform="translate(-2526.405 -1103.509)" fill="#019e96"/>
  <path id="Path_2382" data-name="Path 2382" d="M2773.272,1173.295l8.8,51.731a99.864,99.864,0,0,1-11.15-28.737q-.406,1.446-.765,2.894h-.014l-3.7-24.794a3.463,3.463,0,1,1,6.838-1.106h0Z" transform="translate(-2528.771 -1082.085)" fill="#019e96"/>
  <path id="Path_2383" data-name="Path 2383" d="M2754.838,1622.243c.453.993.866,1.957,1.249,2.88q-1.358,3.68-2.466,7.46c-.512,1.743-1.009,3.518-1.5,5.305-.042.171-.1.34-.141.511h-35.249c.045-2.964.155-5.916.2-8.88,8.823-3.916,15.7-5.759,22.71-9.561l2.567.426C2746.384,1621.052,2750.611,1621.677,2754.838,1622.243Z" transform="translate(-2523.543 -1129.405)" fill="#fff"/>
  <path id="Path_2384" data-name="Path 2384" d="M2613.891,1585.045a47.644,47.644,0,0,1-9.6-3.743,54.676,54.676,0,0,1-20.272-18.767v-.015a88.206,88.206,0,0,1-12.709-33.831c5.292-2.487,9.7-4.554,13.4-6.354a142.74,142.74,0,0,0,19.673-10.58c13.729,13.773,30.964,22.638,51.048,22.638,21.885,0,36.24-13.518,72.752-44.21,7.532.979,10.2,5.8,10.2,8.624,0,10.355-26.168,20.058-38.214,29.22a30.943,30.943,0,0,1,8.782,21.972,32.013,32.013,0,0,1-.909,7.737,41.482,41.482,0,0,1-8.962,16.608,58.8,58.8,0,0,1,.85,8.356c.041.892.058,1.829.058,2.807,0,14.794-15.6,45.135-28.695,45.135a7.182,7.182,0,0,1-7.866-6.426c-.018-.159-.028-.312-.033-.467a8.806,8.806,0,0,1,5.206-7.406c11.177-5.8,15.658-16.921,16.822-28.327a46.877,46.877,0,0,1-15.79-19.275c-11.46,10.992-23.66,17.83-41.147,18.043h-.014a63.881,63.881,0,0,0-3.631,12.666c2.212.171,6.156.412,10.5.412h3.49c9.008,0,12.793.158,12.793,3.041,0,4.721-30.469,11.328-40.694,11.5.679-10.682,2.979-19.262,2.979-28.64C2613.891,1585.535,2613.891,1585.28,2613.891,1585.045Z" transform="translate(-2508.238 -1115.745)" fill="#fec739"/>
  <path id="Path_2385" data-name="Path 2385" d="M2600.861,1589.808v.013c-15.858,16.042-52.582,42.341-59.249,42.341a2.472,2.472,0,0,1-2.793-2.807c0-4.5,33.787-31.673,41.772-58.3A54.657,54.657,0,0,0,2600.861,1589.808Z" transform="translate(-2504.816 -1124.257)" fill="#fec739"/>
  <path id="Path_2386" data-name="Path 2386" d="M2587.6,1522.9l-1.037-1.874a19.391,19.391,0,0,0,4.608-9.307h.014c2.78-1.934,5.462-3.887,8.013-5.785.71.879,1.417,1.729,2.158,2.567q2.211,2.552,4.578,4.92A142.818,142.818,0,0,1,2586.266,1524l-.141-.277C2586.611,1523.45,2587.107,1523.18,2587.6,1522.9Z" transform="translate(-2509.797 -1117.403)" fill="#fec739"/>
  <path id="Path_2387" data-name="Path 2387" d="M2580.922,1518.313l1.037,1.874-1.487.829.141.277c-3.7,1.787-8.113,3.867-13.4,6.341-.412-2.382-.75-4.794-.992-7.207a67.342,67.342,0,0,1-22.611,4.269h-.071a10.808,10.808,0,0,1-10.113-7.291q-.489-1.382-.937-2.764a13.536,13.536,0,0,0,4.838-10.126,212.129,212.129,0,0,0,31.262-22.381,8.147,8.147,0,0,1,12.48,2.3l.042.1a121.919,121.919,0,0,0,6.355,10.466,74.467,74.467,0,0,1-1.916,14A19.42,19.42,0,0,1,2580.922,1518.313Zm-20.337-17.277a.221.221,0,0,0,.058-.155c0-.241-.276-.553-.276-.738h-.906c0,.226-.229.226-.453.226,0,.34-.059.611-.059.865,0,.638.3.78.894.78.881,0,.275-.5.739-.978Z" transform="translate(-2504.151 -1114.691)" fill="#fec739"/>
  <path id="Path_2388" data-name="Path 2388" d="M2593.58,1496.915l-1.809,13.854,7.886-5.692Z" transform="translate(-2510.392 -1116.454)" fill="#fec739"/>
  <g id="Group_1725" data-name="Group 1725" transform="translate(118.399 437.144)">
    <path id="Path_2389" data-name="Path 2389" d="M2634.963,1595.184a.98.98,0,0,1-.981-.98,1.066,1.066,0,0,1,.061-.343c.326-.881.657-1.763.986-2.639a52.485,52.485,0,0,0,4.3-15.4,18.05,18.05,0,0,0-3.481-9.281,39.224,39.224,0,0,1-2.63-4.911.981.981,0,0,1,1.81-.758v0h0a37.7,37.7,0,0,0,2.488,4.655,19.8,19.8,0,0,1,3.761,10.291,53.337,53.337,0,0,1-4.421,16.094c-.329.874-.657,1.753-.981,2.628A.984.984,0,0,1,2634.963,1595.184Z" transform="translate(-2633.144 -1560.266)" fill="#313131"/>
  </g>
  <g id="Group_1726" data-name="Group 1726" transform="translate(89.126 448.128)">
    <path id="Path_2390" data-name="Path 2390" d="M2616.956,1595.441a.982.982,0,0,1-.982-.981v-.694c-.211-10.551-5.189-17.028-14.79-19.286a.982.982,0,0,1,.449-1.912c10.437,2.455,16.075,9.756,16.3,21.119.013.221.013.5.013.77a.98.98,0,0,1-.978.984h-.016Z" transform="translate(-2600.427 -1572.541)" fill="#313131"/>
  </g>
  <g id="Group_1727" data-name="Group 1727" transform="translate(53.803 384.47)">
    <path id="Path_2391" data-name="Path 2391" d="M2562.825,1505.231a1.642,1.642,0,0,1-1.862-1.382,1.691,1.691,0,0,1,0-.378,2.346,2.346,0,0,1,.031-.467,3.59,3.59,0,0,0,.027-.4,1.875,1.875,0,0,1,1.437-1.21h.906a.978.978,0,0,1,.959.766,1.971,1.971,0,0,1,.307.952,1.175,1.175,0,0,1-.276.766,1.346,1.346,0,0,1-1.329,1.363h0A1.469,1.469,0,0,1,2562.825,1505.231Z" transform="translate(-2560.952 -1501.396)" fill="#313131"/>
  </g>
  <g id="Group_1728" data-name="Group 1728" transform="translate(27.348 388.83)">
    <path id="Path_2392" data-name="Path 2392" d="M2532.367,1518.368a.981.981,0,0,1-.592-1.765,12.557,12.557,0,0,0,4.449-9.4,1.016,1.016,0,0,1,1.021-.939.977.977,0,0,1,.938,1.019v0a14.538,14.538,0,0,1-5.224,10.869A.971.971,0,0,1,2532.367,1518.368Z" transform="translate(-2531.383 -1506.269)" fill="#313131"/>
  </g>
  <g id="Group_1729" data-name="Group 1729" transform="translate(309.26 284.416)">
    <path id="Path_2393" data-name="Path 2393" d="M2847.438,1456.851a.99.99,0,0,1-.706-1.674c21.887-21.915,40.842-41.93,51.118-64.983a.983.983,0,0,1,1.275-.552h0a.98.98,0,0,1,.556,1.272l0,0-.03.07c-10.412,23.359-29.494,43.516-51.521,65.571A.97.97,0,0,1,2847.438,1456.851Z" transform="translate(-2846.458 -1389.572)" fill="#313131"/>
  </g>
  <g id="Group_1730" data-name="Group 1730" transform="translate(192.205 490.503)">
    <path id="Path_2394" data-name="Path 2394" d="M2751.859,1639.365h-35.247a.985.985,0,0,1-.979-.986h0c.022-1.487.061-2.971.1-4.451s.078-2.949.1-4.421a.979.979,0,0,1,.584-.884c3.645-1.617,6.908-2.866,10.074-4.073,3.768-1.44,7.331-2.8,10.823-4.546a.982.982,0,0,1,.876,1.758,118.961,118.961,0,0,1-11,4.622c-2.969,1.133-6.035,2.305-9.394,3.78-.022,1.273-.056,2.547-.089,3.821-.031,1.144-.061,2.287-.083,3.434h33.5c.483-1.738.958-3.437,1.448-5.112.741-2.514,1.577-5.04,2.486-7.513a.981.981,0,0,1,1.26-.579h0a.984.984,0,0,1,.582,1.262h0c-.9,2.429-1.722,4.913-2.445,7.382-.509,1.741-1,3.509-1.5,5.292l-.134.484A.986.986,0,0,1,2751.859,1639.365Z" transform="translate(-2715.632 -1619.901)" fill="#313131"/>
  </g>
  <g id="Group_1731" data-name="Group 1731" transform="translate(364.577 494.472)">
    <path id="Path_2395" data-name="Path 2395" d="M2947.807,1639.941h-37.632a.983.983,0,0,1-.975-.83q-.258-1.806-.522-3.591l-.386-2.659a.978.978,0,0,1,.657-1.069c5.889-1.99,12.158-4.335,19.713-7.383a.981.981,0,0,1,1.275.544l0,.008a.982.982,0,0,1-.548,1.278h0c-7.265,2.931-13.342,5.216-19.044,7.162l.276,1.849q.2,1.381.4,2.763H2946.6q-1.144-5.454-2.258-10.621a.982.982,0,0,1,.749-1.168h0a.987.987,0,0,1,1.168.754q1.235,5.737,2.508,11.818a.989.989,0,0,1-.961,1.183Z" transform="translate(-2908.282 -1624.338)" fill="#313131"/>
  </g>
  <g id="Group_1733" data-name="Group 1733" transform="translate(317.318 157.633)">
    <path id="Path_2397" data-name="Path 2397" d="M2856.441,1266.1a.985.985,0,0,1-.74-1.628c4.77-5.462,9.671-10.795,14.99-16.3a.977.977,0,1,1,1.406,1.356c-5.3,5.487-10.179,10.795-14.92,16.234A.981.981,0,0,1,2856.441,1266.1Z" transform="translate(-2855.462 -1247.876)" fill="#313131"/>
  </g>
  <g id="Group_1735" data-name="Group 1735" transform="translate(237.286 113.546)">
    <path id="Path_2399" data-name="Path 2399" d="M2821.073,1316.385a.979.979,0,0,1-.554-.169,67.639,67.639,0,0,1-11.975-10.519c-15.379-16.8-28.094-44.668-42.457-81.353a.9.9,0,0,1-.07-.37,96.018,96.018,0,0,1,3.831-24.652.979.979,0,0,1,1.207-.683h0a.984.984,0,0,1,.683,1.21h0a94.234,94.234,0,0,0-3.758,23.959c14.252,36.389,26.856,64.018,42,80.563a65.653,65.653,0,0,0,11.63,10.223.981.981,0,0,1-.566,1.793Z" transform="translate(-2766.017 -1198.603)" fill="#313131"/>
  </g>
  <g id="Group_1736" data-name="Group 1736" transform="translate(340.571 165.078)">
    <path id="Path_2400" data-name="Path 2400" d="M2882.428,1285.4a.983.983,0,0,1-.978-.986.972.972,0,0,1,.241-.644c7.032-8.012,14.2-16.89,21.925-27.174a.985.985,0,0,1,1.378-.2l0,0a.983.983,0,0,1,.2,1.377l0,0c-7.737,10.326-14.953,19.253-22.02,27.294A.988.988,0,0,1,2882.428,1285.4Z" transform="translate(-2881.451 -1256.197)" fill="#313131"/>
  </g>
  <g id="Group_1739" data-name="Group 1739" transform="translate(80.426 387.543)">
    <path id="Path_2403" data-name="Path 2403" d="M2591.675,1512.586a.982.982,0,0,1-.97-.992h0a.977.977,0,0,1,.421-.793c2.677-1.874,5.362-3.813,7.973-5.769a.979.979,0,0,1,1.371.182l.012.015a.985.985,0,0,1-.192,1.377l-.006,0h0c-2.63,1.967-5.326,3.92-8.013,5.8A1,1,0,0,1,2591.675,1512.586Z" transform="translate(-2590.705 -1504.831)" fill="#fff"/>
  </g>
  <g id="Group_1740" data-name="Group 1740" transform="translate(62.066 395.04)">
    <path id="Path_2404" data-name="Path 2404" d="M2571.174,1532.091a.983.983,0,0,1-.989-.979h0a.982.982,0,0,1,.658-.934c5.25-2.462,9.628-4.518,13.307-6.294a144.078,144.078,0,0,0,19.54-10.5.982.982,0,0,1,1.123,1.611l0,0h0a145.372,145.372,0,0,1-19.809,10.66c-3.7,1.788-8.118,3.869-13.412,6.355A.969.969,0,0,1,2571.174,1532.091Z" transform="translate(-2570.185 -1513.209)" fill="#fff"/>
  </g>
  <g id="Group_1741" data-name="Group 1741" transform="translate(90.623 384.791)">
    <path id="Path_2405" data-name="Path 2405" d="M2606.419,1509.256a8.223,8.223,0,0,1-2.763-.5,1.024,1.024,0,0,1-1.332-.553,1.5,1.5,0,0,1-.05-.155,5.489,5.489,0,0,1-.157-1.3,4.645,4.645,0,0,1,4.26-5,4.736,4.736,0,0,1,4.7,4.021,3.584,3.584,0,0,1,.039.521C2611.1,1508.344,2608.363,1509.256,2606.419,1509.256Zm-2.336-2.439a6.492,6.492,0,0,0,2.336.478c1.287,0,2.722-.6,2.722-1a2.1,2.1,0,0,0-.022-.277,2.765,2.765,0,0,0-2.742-2.3c-1.437,0-2.3,1.541-2.3,3.039v.066Z" transform="translate(-2602.103 -1501.754)" fill="#313131"/>
  </g>
  <g id="Group_1742" data-name="Group 1742" transform="translate(97.261 272.367)">
    <path id="Path_2406" data-name="Path 2406" d="M2610.5,1493.887a.978.978,0,0,1-.983-.973v0a.981.981,0,0,1,.505-.864l.129-.08c.078-.051.158-.1.241-.147,57.5-35.668,90.974-59.726,137.2-107.948q3.489-3.633,7.084-7.46a.978.978,0,0,1,1.427,1.338q-3.593,3.829-7.1,7.482c-46.372,48.373-79.933,72.5-137.621,108.283l-.172.1c-.076.049-.157.1-.24.146A.985.985,0,0,1,2610.5,1493.887Z" transform="translate(-2609.521 -1376.106)" fill="#313131"/>
  </g>
  <g id="Group_1743" data-name="Group 1743" transform="translate(64.356 373.327)">
    <path id="Path_2407" data-name="Path 2407" d="M2580.548,1522.1c-6.173,0-7.8-11.248-7.8-17.194,0-2.095.113-4.228.221-6.289s.218-4.145.218-6.205c0-.81-.027-1.622-.056-2.418a.981.981,0,0,1,1.957-.149h0v.077c.03.83.059,1.658.059,2.488,0,2.1-.114,4.241-.221,6.31s-.218,4.145-.218,6.187c0,6.325,1.813,15.23,5.841,15.23a5.651,5.651,0,0,0,3.94-1.622,18.226,18.226,0,0,0,4.33-8.842,72.3,72.3,0,0,0,1.885-13.815.981.981,0,1,1,1.959.1h0a74.061,74.061,0,0,1-1.936,14.192,20.036,20.036,0,0,1-4.89,9.775A7.539,7.539,0,0,1,2580.548,1522.1Z" transform="translate(-2572.745 -1488.941)" fill="#313131"/>
  </g>
  <g id="Group_1744" data-name="Group 1744" transform="translate(189.851 441.036)">
    <path id="Path_2408" data-name="Path 2408" d="M2714.828,1591.545a.985.985,0,0,1-.981-.948,57.707,57.707,0,0,0-.829-8.217.986.986,0,0,1,.2-.793,40.144,40.144,0,0,0,8.771-16.216.982.982,0,1,1,1.909.459h0a41.538,41.538,0,0,1-8.875,16.653,60.445,60.445,0,0,1,.788,8.048.99.99,0,0,1-.963,1.015h-.023Z" transform="translate(-2713.002 -1564.617)" fill="#313131"/>
  </g>
  <g id="symbols-3" transform="translate(33.229 0)">
    <g id="Group_1746" data-name="Group 1746" transform="translate(381.608 304.336)">
      <path id="Path_2410" data-name="Path 2410" d="M2989.452,1421.71a15.412,15.412,0,0,1-9.249-3.455,10.68,10.68,0,0,0-6.17-2.558,9.262,9.262,0,0,0-7.185,4.144,1.3,1.3,0,0,1-1.809.355l0,0a1.3,1.3,0,0,1-.361-1.809l.006-.009.039-.056a11.883,11.883,0,0,1,9.31-5.23,13.063,13.063,0,0,1,7.651,3.015,12.885,12.885,0,0,0,7.772,3,10.205,10.205,0,0,0,8.084-3.655,9.874,9.874,0,0,1,7.422-3.611,13.957,13.957,0,0,1,7.714,3.406,14.609,14.609,0,0,0,8.168,3.555,11.931,11.931,0,0,0,6.162-2.854,14.572,14.572,0,0,1,8.2-3.5,14.383,14.383,0,0,1,6.715,3.429c.773.554,1.595,1.106,2.466,1.694a1.31,1.31,0,0,1-1.345,2.249.949.949,0,0,1-.107-.071c-.887-.592-1.728-1.178-2.515-1.728a15.961,15.961,0,0,0-5.214-2.957,12.555,12.555,0,0,0-6.7,3.04,13.9,13.9,0,0,1-7.659,3.316,16.808,16.808,0,0,1-9.671-4.034,11.807,11.807,0,0,0-6.205-2.929,7.455,7.455,0,0,0-5.608,2.882A12.825,12.825,0,0,1,2989.452,1421.71Z" transform="translate(-2964.454 -1411.835)" fill="#ff8e9e"/>
    </g>
    <g id="Group_1747" data-name="Group 1747" transform="translate(88.271 282.852)">
      <path id="Path_2411" data-name="Path 2411" d="M2637.919,1418.034a1.311,1.311,0,0,1-.99-2.169,329.338,329.338,0,0,0,21.528-27.462,1.31,1.31,0,0,1,1.818-.353,1.28,1.28,0,0,1,.415.453c4.7,8.521,9.413,16.637,15.1,26.36a1.31,1.31,0,0,1-.469,1.79,1.345,1.345,0,0,1-.552.174C2662.486,1417.831,2650.007,1417.934,2637.919,1418.034Zm21.5-26.41c-5.2,7.46-12.639,16.753-18.627,23.763,10.438-.091,21.142-.237,31.677-1.012-4.824-8.253-8.968-15.4-13.05-22.753Z" transform="translate(-2636.61 -1387.825)" fill="#ff8e9e"/>
    </g>
    <g id="Group_1748" data-name="Group 1748" transform="translate(472.539 374.18)">
      <path id="Path_2412" data-name="Path 2412" d="M3079.8,1519.453c-6.562,0-13.592-7.46-13.592-12.71,0-.44-.03-.879-.062-1.321-.035-.5-.068-1-.068-1.5,0-6.485,7.184-14.025,16.43-14.025a14.911,14.911,0,0,1,5.111.879,12.921,12.921,0,0,1,7.772,7.032,14.507,14.507,0,0,1,1.513,6.131c0,6.764-6.234,15.346-13.241,15.346-.694,0-1.344.047-1.969.088S3080.43,1519.453,3079.8,1519.453Zm2.705-26.944c-7.651,0-13.816,6.242-13.816,11.406,0,.437.033.879.063,1.321.032.5.066,1,.066,1.5,0,3.9,5.993,10.1,10.977,10.1.552,0,1.126-.041,1.709-.08.686-.047,1.382-.094,2.149-.094,5.372,0,10.622-7.29,10.622-12.727a11.737,11.737,0,0,0-1.3-5.1,10.367,10.367,0,0,0-6.263-5.6,12.26,12.26,0,0,0-4.209-.721Z" transform="translate(-3066.08 -1489.896)" fill="#ff8e9e"/>
    </g>
    <g id="Group_1749" data-name="Group 1749" transform="translate(145.356 232.47)">
      <path id="Path_2413" data-name="Path 2413" d="M2704.87,1332.4a8.069,8.069,0,0,0-4.457,7.267,6.356,6.356,0,0,0,6.189,6.516h.388a8.415,8.415,0,0,0,8.225-8.483,6.821,6.821,0,0,0-6.8-6.186A7.818,7.818,0,0,0,2704.87,1332.4Z" transform="translate(-2700.41 -1331.516)" fill="#acd5ff"/>
    </g>
    <g id="Group_1750" data-name="Group 1750" transform="translate(414.533 75.107)">
      <path id="Path_2414" data-name="Path 2414" d="M3002.553,1171.2a1.309,1.309,0,0,1-.83-2.315c3.869-3.216,7.771-6.151,11.551-8.985,1.746-1.31,3.488-2.617,5.248-3.958a1.314,1.314,0,0,1,1.848.167v0a1.31,1.31,0,0,1-.17,1.843.669.669,0,0,1-.084.066c-1.753,1.346-3.506,2.659-5.251,3.974-3.752,2.818-7.637,5.731-11.447,8.9A1.305,1.305,0,0,1,3002.553,1171.2Z" transform="translate(-3001.251 -1155.642)" fill="#fec739"/>
    </g>
    <g id="Group_1751" data-name="Group 1751" transform="translate(67.436 226.452)">
      <path id="Path_2415" data-name="Path 2415" d="M2631.654,1339.9a1.319,1.319,0,0,1-.777-.257c-1.775-1.31-3.522-2.628-5.269-3.946-3.749-2.829-7.629-5.755-11.734-8.535a1.31,1.31,0,0,1,1.467-2.169c4.163,2.819,8.066,5.763,11.843,8.612,1.74,1.313,3.481,2.625,5.25,3.93a1.308,1.308,0,0,1-.776,2.362Z" transform="translate(-2613.325 -1324.789)" fill="#fec739"/>
    </g>
    <g id="Group_1752" data-name="Group 1752" transform="translate(435.185 148.713)">
      <path id="Path_2416" data-name="Path 2416" d="M3024.332,1237.906c5.984,1.18,11.858,2.661,17.795,3.807.9,6.016,1.464,12.158,2.32,18.179-5.666-.644-11.328-1.021-16.919-1.691C3026.614,1251.423,3025.433,1244.668,3024.332,1237.906Z" transform="translate(-3024.332 -1237.906)" fill="#acd5ff"/>
    </g>
    <g id="Group_1753" data-name="Group 1753" transform="translate(0 84.669)">
      <path id="Path_2417" data-name="Path 2417" d="M2545.914,1191.44a1.311,1.311,0,0,1-1.171-.724,82.1,82.1,0,0,1-5.99-19.383q-.385-1.724-.775-3.467a1.305,1.305,0,0,1,1.056-1.517h0a1.307,1.307,0,0,1,1.485.935c.277,1.168.525,2.329.783,3.484a80.331,80.331,0,0,0,5.776,18.789,1.306,1.306,0,0,1-.581,1.755l0,0a1.317,1.317,0,0,1-.583.139Z" transform="translate(-2537.956 -1166.328)" fill="#ff8e9e"/>
    </g>
    <g id="Group_1754" data-name="Group 1754" transform="translate(228.846 79.195)">
      <path id="Path_2418" data-name="Path 2418" d="M2795.042,1174.607a1.31,1.31,0,0,1-1.321-1.3h0a1.3,1.3,0,0,1,.734-1.188,106.876,106.876,0,0,0,13.974-8.956c1.259-.9,2.522-1.8,3.8-2.69a1.306,1.306,0,0,1,1.831.255h0a1.308,1.308,0,0,1-.256,1.834h0l-.077.056c-1.266.884-2.523,1.78-3.773,2.675a110.212,110.212,0,0,1-14.329,9.168A1.315,1.315,0,0,1,2795.042,1174.607Z" transform="translate(-2793.721 -1160.21)" fill="#ff8e9e"/>
    </g>
    <g id="Group_1755" data-name="Group 1755" transform="translate(244.983 128.222)">
      <path id="Path_2419" data-name="Path 2419" d="M2822.321,1221a1.3,1.3,0,0,1-.923-.385,10.988,10.988,0,0,0-6.217-2.517c-.828-.157-1.658-.315-2.487-.522a1.31,1.31,0,0,1,.632-2.539c.784.2,1.567.346,2.342.492a13.312,13.312,0,0,1,7.572,3.239,1.308,1.308,0,0,1,0,1.849l0,0a1.3,1.3,0,0,1-.922.384Z" transform="translate(-2811.756 -1215.005)" fill="#019e96"/>
    </g>
    <g id="Group_1756" data-name="Group 1756" transform="translate(254.244 0)">
      <path id="Path_2420" data-name="Path 2420" d="M2837.869,1095.75a1.311,1.311,0,0,1-1.123-.635c-3.166-5.28-6.941-10.668-10.591-15.879-1.267-1.813-2.534-3.623-3.782-5.435a1.309,1.309,0,0,1,.253-1.834h0a1.311,1.311,0,0,1,1.835.251,1.122,1.122,0,0,1,.068.1c1.241,1.8,2.507,3.612,3.772,5.418,3.675,5.251,7.474,10.674,10.688,16.026a1.309,1.309,0,0,1-1.122,1.983Z" transform="translate(-2822.107 -1071.7)" fill="#fec739"/>
    </g>
  </g>
  <path id="Path_4076" data-name="Path 4076" d="M2867.7,1150.961s21.88,18.057,35.68,15.841-6.733-23.48-6.733-23.48S2868.45,1141.368,2867.7,1150.961Z" transform="translate(-2539.433 -1079.221)" fill="#313131"/>
  <path id="Path_2380-2" data-name="Path 2380" d="M2819.134,1369.42c5.269-20.605,3.951-22.549,9.475-32.878.951-1.829,1.829-3.658,2.64-5.527" transform="translate(-2534.321 -1098.993)" fill="#ff8e9e"/>
</svg>
