<svg xmlns="http://www.w3.org/2000/svg" width="772.819" height="619.769" viewBox="0 0 772.819 619.769">
  <g id="Group_3312" data-name="Group 3312" transform="translate(-1298.681 2988.291)">
    <ellipse id="Ellipse_759" data-name="Ellipse 759" cx="250" cy="240" rx="250" ry="240" transform="translate(1491 -2956.245)" fill="#fcf4d7"/>
    <g id="symbols" transform="translate(1298.681 -2988.291)">
      <g id="Group_1746" data-name="Group 1746" transform="translate(585.953 467.14)">
        <path id="Path_2410" data-name="Path 2410" d="M2550.007,821.233c-6.431,0-10.556-2.816-14.2-5.3-3.089-2.108-5.759-3.929-9.479-3.929-4,0-8.223,2.432-11.019,6.346a2.009,2.009,0,1,1-3.271-2.336c3.538-4.954,9.012-8.03,14.29-8.03,4.961,0,8.411,2.354,11.747,4.63,3.466,2.366,6.742,4.6,11.931,4.6,6.58,0,9.412-2.725,12.413-5.611,2.834-2.726,5.765-5.547,11.4-5.547,4.419,0,8.193,2.66,11.841,5.232,3.809,2.684,7.746,5.461,12.534,5.461,3.167,0,6.224-2.13,9.462-4.383,3.791-2.641,7.712-5.372,12.582-5.372,2.771,0,5.934,2.208,10.306,5.263,1.187.829,2.451,1.71,3.785,2.6a2.009,2.009,0,1,1-2.228,3.345c-1.361-.907-2.649-1.806-3.858-2.651-3.195-2.231-6.5-4.538-8.005-4.538-3.607,0-6.852,2.259-10.286,4.651-3.6,2.509-7.331,5.1-11.758,5.1-6.062,0-10.731-3.292-14.851-6.2-3.423-2.413-6.379-4.5-9.525-4.5-4.011,0-6.041,1.952-8.61,4.423C2562.089,817.5,2558.206,821.233,2550.007,821.233Z" transform="translate(-2511.666 -806.057)" fill="#ff8e9e"/>
      </g>
      <g id="Group_1747" data-name="Group 1747" transform="translate(135.549 434.181)">
        <path id="Path_2411" data-name="Path 2411" d="M1975.77,813.069a2.01,2.01,0,0,1-1.517-3.328c10.193-11.718,24.365-29.3,33.051-42.162a2.011,2.011,0,0,1,3.427.154c7.208,13.081,14.454,25.54,23.176,40.47a2.008,2.008,0,0,1-1.572,3.016C2013.5,812.759,1994.329,812.917,1975.77,813.069Zm33.015-40.548c-7.978,11.438-19.405,25.719-28.6,36.492,16.028-.139,32.461-.364,48.635-1.553C2021.416,794.781,2015.051,783.806,2008.785,772.521Z" transform="translate(-1973.76 -766.695)" fill="#ff8e9e"/>
      </g>
      <g id="Group_1748" data-name="Group 1748" transform="translate(725.498 574.385)">
        <path id="Path_2412" data-name="Path 2412" d="M2699.388,979.52c-10.075,0-20.868-11.457-20.868-19.52,0-.672-.048-1.349-.1-2.027-.054-.77-.1-1.54-.1-2.3,0-9.958,11.016-21.532,25.22-21.532a22.907,22.907,0,0,1,7.849,1.347,19.839,19.839,0,0,1,11.934,10.795,22.174,22.174,0,0,1,2.318,9.411c0,10.385-9.57,23.56-20.326,23.56-1.064,0-2.062.071-3.022.137C2701.3,979.456,2700.346,979.52,2699.388,979.52Zm4.152-41.364c-11.745,0-21.2,9.581-21.2,17.513,0,.672.051,1.349.1,2.027.052.77.1,1.54.1,2.3,0,5.98,9.2,15.5,16.849,15.5.865,0,1.731-.062,2.625-.124,1.053-.072,2.139-.145,3.3-.145,8.246,0,16.307-11.189,16.307-19.541,0-2.717-.613-4.611-1.992-7.828a15.93,15.93,0,0,0-9.615-8.6A18.9,18.9,0,0,0,2703.54,938.156Z" transform="translate(-2678.32 -934.137)" fill="#ff8e9e"/>
      </g>
      <g id="Group_1749" data-name="Group 1749" transform="translate(223.192 356.828)">
        <path id="Path_2413" data-name="Path 2413" d="M2085.269,675.677a12.392,12.392,0,0,0-6.839,11.156,9.774,9.774,0,0,0,10.1,10c7.8,0,12.628-6.852,12.628-13.024,0-6.594-6.959-9.5-10.435-9.5A12.045,12.045,0,0,0,2085.269,675.677Z" transform="translate(-2078.43 -674.314)" fill="#acd5ff"/>
      </g>
      <g id="Group_1750" data-name="Group 1750" transform="translate(636.422 115.286)">
        <path id="Path_2414" data-name="Path 2414" d="M2573.952,409.687a2.01,2.01,0,0,1-1.29-3.554c5.927-4.938,11.93-9.442,17.737-13.8,2.681-2.009,5.359-4.018,8.038-6.074a2.009,2.009,0,0,1,2.445,3.188c-2.69,2.065-5.381,4.082-8.071,6.1-5.766,4.325-11.729,8.8-17.575,13.669A2,2,0,0,1,2573.952,409.687Z" transform="translate(-2571.939 -385.848)" fill="#fec739"/>
      </g>
      <g id="Group_1751" data-name="Group 1751" transform="translate(103.519 347.563)">
        <path id="Path_2415" data-name="Path 2415" d="M1963.688,686.477a2,2,0,0,1-1.192-.393c-2.726-2.01-5.408-4.034-8.091-6.058-5.757-4.345-11.712-8.836-18.014-13.1a2.01,2.01,0,1,1,2.253-3.328c6.389,4.326,12.383,8.85,18.183,13.224,2.67,2.016,5.34,4.03,8.056,6.033a2.009,2.009,0,0,1-1.195,3.626Z" transform="translate(-1935.508 -663.249)" fill="#fec739"/>
      </g>
      <g id="Group_1752" data-name="Group 1752" transform="translate(668.149 228.236)">
        <path id="Path_2416" data-name="Path 2416" d="M2609.829,520.741c9.188,1.81,18.2,4.086,27.318,5.847,1.381,9.235,2.247,18.651,3.563,27.909-8.7-.987-17.407-1.566-25.975-2.6C2613.33,541.492,2611.521,531.122,2609.829,520.741Z" transform="translate(-2609.829 -520.741)" fill="#acd5ff"/>
      </g>
      <g id="Group_1753" data-name="Group 1753" transform="translate(0 129.812)">
        <path id="Path_2417" data-name="Path 2417" d="M1824.122,441.849a2.008,2.008,0,0,1-1.8-1.111c-4.666-9.335-6.869-19.256-9.2-29.758q-.585-2.647-1.194-5.325a2.009,2.009,0,0,1,3.917-.9c.413,1.793.808,3.577,1.2,5.35,2.275,10.254,4.425,19.94,8.87,28.832a2.009,2.009,0,0,1-1.8,2.909Z" transform="translate(-1811.878 -403.196)" fill="#ff8e9e"/>
      </g>
      <g id="Group_1754" data-name="Group 1754" transform="translate(351.374 121.56)">
        <path id="Path_2418" data-name="Path 2418" d="M2233.526,415.39a2.01,2.01,0,0,1-.9-3.807c7.366-3.683,14.208-8.573,21.453-13.75,1.934-1.381,3.872-2.767,5.828-4.131a2.009,2.009,0,1,1,2.3,3.295c-1.941,1.356-3.869,2.733-5.79,4.107-7.054,5.04-14.345,10.25-21.994,14.075A2.008,2.008,0,0,1,2233.526,415.39Z" transform="translate(-2231.514 -393.341)" fill="#ff8e9e"/>
      </g>
      <g id="Group_1755" data-name="Group 1755" transform="translate(376.06 196.755)">
        <path id="Path_2419" data-name="Path 2419" d="M2277.3,492.363a2,2,0,0,1-1.421-.589c-2.529-2.529-5.781-3.149-9.544-3.864-1.258-.24-2.535-.485-3.812-.8a2.01,2.01,0,1,1,.973-3.9c1.2.3,2.407.529,3.591.755,4.047.77,8.228,1.567,11.634,4.971a2.01,2.01,0,0,1-1.421,3.431Z" transform="translate(-2260.997 -483.144)" fill="#019e96"/>
      </g>
      <g id="Group_1756" data-name="Group 1756" transform="translate(390.42)">
        <path id="Path_2420" data-name="Path 2420" d="M2302.291,285.012a2.01,2.01,0,0,1-1.726-.976c-4.862-8.106-10.656-16.379-16.258-24.38-1.944-2.781-3.892-5.562-5.807-8.343a2.009,2.009,0,1,1,3.31-2.278c1.909,2.771,3.85,5.544,5.791,8.317,5.642,8.058,11.475,16.389,16.411,24.616a2.01,2.01,0,0,1-1.721,3.045Z" transform="translate(-2278.146 -248.165)" fill="#fec739"/>
      </g>
    </g>
    <g id="Group_3311" data-name="Group 3311" transform="translate(-195.086 -8865.43)">
      <path id="Path_3946" data-name="Path 3946" d="M1817.215,6503.115l24.036,12.877-21.01,20.456-17.5-3.3Z" transform="translate(889.089 -315.847) rotate(8)" fill="#019e96"/>
      <path id="Path_3951" data-name="Path 3951" d="M1844,6577.749c1.492,3.518-1.435,6.793-4.693,5.262-30.273-14.3-41.482-23.052-55.81-35.766a6.163,6.163,0,0,1-.821-8.677c.089-.108.181-.214.279-.315a186.872,186.872,0,0,1,15.91-12.61,288.182,288.182,0,0,1,33,27.122l.051-.025c1.27,2.4,2.612,5.025,4.2,8.179C1838.9,6566.466,1841.571,6572.071,1844,6577.749Z" transform="translate(894.176 -319.874) rotate(8)" fill="#313131"/>
      <path id="Path_3946-2" data-name="Path 3946" d="M1925.578,6462.466l24.036,12.878L1928.6,6495.8l-17.5-3.3Z" transform="translate(865.542 -310.6) rotate(8)" fill="#019e96"/>
      <path id="Path_3951-2" data-name="Path 3951" d="M1952.363,6537.1c1.492,3.518-1.435,6.794-4.693,5.261-30.273-14.3-41.482-23.05-55.81-35.764a6.163,6.163,0,0,1-.821-8.677c.089-.108.182-.213.279-.314a186.892,186.892,0,0,1,15.91-12.61,288.09,288.09,0,0,1,33,27.122l.051-.025c1.27,2.4,2.613,5.025,4.2,8.178C1947.263,6525.817,1949.934,6531.423,1952.363,6537.1Z" transform="translate(870.629 -314.627) rotate(8)" fill="#313131"/>
      <path id="Path_4234" data-name="Path 4234" d="M1803.094,6210.338s-3.88,51.958,40.741,65.169c23.832,40.428,34.462,55.905,37.545,60.786s.692,8.526-14.576,22.866-62.212,67.041-67.622,79.421c15.945,15.107,41.894,34.566,41.894,34.566s31.722-52.476,46.044-64.937c27.875,22.508,34.78,26.682,34.78,26.682s71.234-83.837,78.86-96.763,6.052-22.173-4.708-32.449-102.577-94.819-102.577-94.819l-15.607-.384Z" transform="translate(881.33 -255.311) rotate(8)" fill="#ff8e9e"/>
      <path id="Path_4235" data-name="Path 4235" d="M1911.542,6242.487c4.424,5.921,8.717,11.944,12.967,17.991,8.83,12.563,17.42,25.316,25.4,38.441,3.875,6.376,7.619,12.846,10.981,19.51,3.282,6.508,6.669,13.5,7.449,20.832a21.329,21.329,0,0,1-.936,9.26,27.4,27.4,0,0,1-4.689,8.058,94.227,94.227,0,0,1-8.044,8.556c-3.6,3.493-7.271,6.909-10.867,10.4-4.442,4.316-8.588,8.949-12.754,13.528-6.062,6.661-12.049,13.4-17.867,20.271q-1.932,2.284-3.83,4.6c-.784.957.579,2.335,1.37,1.37,5.709-6.973,11.672-13.738,17.694-20.441,4.782-5.324,9.585-10.644,14.572-15.778,5.858-6.032,12.311-11.472,18.043-17.631,4.524-4.86,8.542-10.364,9.269-17.149.8-7.472-2.176-14.942-5.211-21.6a211.445,211.445,0,0,0-10.046-18.959c-7.981-13.651-16.757-26.841-25.773-39.827-5.164-7.437-10.4-14.832-15.817-22.09-.078-.105-.157-.211-.236-.316-.737-.987-2.42-.022-1.672.978Z" transform="translate(859.531 -264.849) rotate(8)" fill="#313131"/>
      <g id="Group_2866" data-name="Group 2866" transform="translate(1924.873 5953.782)">
        <rect id="Rectangle_1466" data-name="Rectangle 1466" width="149.444" height="275.686" rx="13.334" fill="#313131"/>
        <rect id="Rectangle_1467" data-name="Rectangle 1467" width="137.566" height="261.423" rx="10.283" transform="translate(5.939 7.132)" fill="#019e96"/>
        <path id="Rectangle_1468" data-name="Rectangle 1468" d="M0,0H54.438a0,0,0,0,1,0,0V12.147a3,3,0,0,1-3,3H3a3,3,0,0,1-3-3V0A0,0,0,0,1,0,0Z" transform="translate(47.503 1.771)" fill="#313131"/>
        <g id="Group_2864" data-name="Group 2864" transform="translate(15.15 26.363)">
          <rect id="Rectangle_1469" data-name="Rectangle 1469" width="12.431" height="1.389" fill="#313131"/>
          <rect id="Rectangle_1470" data-name="Rectangle 1470" width="12.431" height="1.389" transform="translate(0 3.725)" fill="#313131"/>
          <rect id="Rectangle_1471" data-name="Rectangle 1471" width="12.431" height="1.389" transform="translate(0 7.45)" fill="#313131"/>
        </g>
        <g id="Group_2865" data-name="Group 2865" transform="translate(51.763 259.947)">
          <line id="Line_216" data-name="Line 216" x2="38.4" transform="translate(2.013 2.084)" fill="#fff"/>
          <path id="Path_4236" data-name="Path 4236" d="M2030.1,6286.351h38.4c2.682,0,2.686-4.169,0-4.169h-38.4c-2.683,0-2.687,4.169,0,4.169Z" transform="translate(-2028.085 -6282.182)" fill="#313131"/>
        </g>
      </g>
      <path id="Path_4237" data-name="Path 4237" d="M1854.646,6016.126l-12.6-5.521s2.642-9.408,4.451-17.419,17.454-19.793,36.79-15.43,24.022,20.632,22.7,28.99" transform="translate(-12.669 -4.801)" fill="#313131"/>
      <path id="Path_4238" data-name="Path 4238" d="M1901.067,6148.36l22.266-38.393-41.428-25.044s-26.547-31.833-47.274-22.015c-18.724,8.869-26.13,21.142-33.177,42.7-8.724,26.695-10.418,75.979-10.418,75.979s36.224,8.7,55.251,12.471,44.653,3.8,59.423-10.651l-16.911-40.958Z" transform="translate(-2.037 -22.355)" fill="#019e96"/>
      <path id="Path_4239" data-name="Path 4239" d="M1862.259,6075.2h0a12.3,12.3,0,0,1-10.607-13.787l3.75-32.6c.879-6.736,7.417-10.46,14.153-9.581h0a12.3,12.3,0,0,1,10.607,13.786l-4.117,31.574A12.3,12.3,0,0,1,1862.259,6075.2Z" transform="translate(-14.651 -13.615)" fill="#fec739"/>
      <circle id="Ellipse_647" data-name="Ellipse 647" cx="25.402" cy="25.402" r="25.402" transform="translate(1842.521 5977.438)" fill="#fec739"/>
      <circle id="Ellipse_648" data-name="Ellipse 648" cx="25.402" cy="25.402" r="25.402" transform="translate(1840.704 5991.37)" fill="#fec739"/>
      <rect id="Rectangle_1472" data-name="Rectangle 1472" width="13.685" height="50.803" transform="translate(1840.965 6013.125) rotate(-82.571)" fill="#fec739"/>
      <circle id="Ellipse_649" data-name="Ellipse 649" cx="2.965" cy="2.965" r="2.965" transform="translate(1881.599 6007.635)" fill="#313131"/>
      <circle id="Ellipse_650" data-name="Ellipse 650" cx="2.965" cy="2.965" r="2.965" transform="translate(1864.241 6005.372)" fill="#313131"/>
      <path id="Path_4240" data-name="Path 4240" d="M1901.863,6023.4l-.082,11.312-.011,1.6a1.229,1.229,0,0,1-1.36,1.046l-2.944-.235c-1.557-.125-1.24-2.529.313-2.405l2.944.235-1.359,1.046.082-11.312.011-1.6a1.22,1.22,0,0,1,1.36-1.046,1.243,1.243,0,0,1,1.046,1.359Z" transform="translate(-24.009 -14.226)" fill="#313131"/>
      <path id="Path_4241" data-name="Path 4241" d="M1895,6049.664c-2.9.1-6.4-.607-7.962-3.3a1.216,1.216,0,0,1,.646-1.59,1.251,1.251,0,0,1,1.589.646c-.18-.312.008,0,.052.057.06.082.124.162.19.239.163.187.063,0-.009,0,.039,0,.191.175.226.206a4.584,4.584,0,0,0,.431.319c.287.188-.13-.059.06.042.069.036.136.074.206.109a7.278,7.278,0,0,0,1.085.436,1.451,1.451,0,0,1,.3.089c-.12-.074-.223-.058-.018-.007q.273.067.549.12a13.21,13.21,0,0,0,1.822.218c.194.009.387.013.58.017.223,0-.392,0-.144,0h.063a1.244,1.244,0,0,1,1.37,1.032,1.227,1.227,0,0,1-1.033,1.37Z" transform="translate(-22.025 -18.948)" fill="#313131"/>
      <path id="Path_4242" data-name="Path 4242" d="M1892.941,5992.08s2.884,11.174,16.274,15.42c1.957-12.77-9.866-25.271-17.276-26.735s-32.036,1.975-33.781,7.857.86,13.942.86,13.942S1885.992,6011.117,1892.941,5992.08Z" transform="translate(-15.903 -5.554)" fill="#313131"/>
      <ellipse id="Ellipse_651" data-name="Ellipse 651" cx="5.585" cy="7.878" rx="5.585" ry="7.878" transform="translate(1831.664 6003.492) rotate(-61.698)" fill="#fec739"/>
      <path id="Path_4243" data-name="Path 4243" d="M1915.039,6162.811l-19.559-9.7-31.132-15.446-7.088-3.517c-1.024-.507-1.927,1.028-.9,1.538l19.559,9.7,31.131,15.446,7.088,3.517c1.023.508,1.927-1.029.9-1.538Z" transform="translate(-15.56 -37.574)" fill="#313131"/>
      <g id="Group_2867" data-name="Group 2867" transform="translate(1951.397 6031.429)">
        <circle id="Ellipse_531" data-name="Ellipse 531" cx="50.095" cy="50.095" r="50.095" fill="#fff"/>
        <path id="Path_4244" data-name="Path 4244" d="M2052.647,6072.8l3.341-4.875a4.727,4.727,0,0,1,8.625,2.8l-.164,5.909a4.728,4.728,0,0,0,6.311,4.584l5.569-1.981a4.727,4.727,0,0,1,5.331,7.337l-3.606,4.684a4.727,4.727,0,0,0,2.41,7.418l5.67,1.671a4.727,4.727,0,0,1,0,9.069l-12.289,3.62,7.814,10.153a4.727,4.727,0,0,1-5.331,7.337l-5.569-1.981a4.727,4.727,0,0,0-6.311,4.584l.164,5.908a4.727,4.727,0,0,1-8.625,2.8l-3.341-4.876a4.727,4.727,0,0,0-7.8,0l-3.34,4.876a4.727,4.727,0,0,1-8.626-2.8l.163-5.908a4.727,4.727,0,0,0-6.31-4.584l-5.569,1.981a4.727,4.727,0,0,1-5.331-7.337l3.606-4.685a4.727,4.727,0,0,0-2.41-7.417l-5.67-1.671a4.727,4.727,0,0,1,0-9.069l5.67-1.671a4.727,4.727,0,0,0,2.41-7.418l-3.606-4.684a4.727,4.727,0,0,1,5.331-7.337l5.569,1.981a4.727,4.727,0,0,0,6.31-4.584l-.163-5.909a4.727,4.727,0,0,1,8.626-2.8l3.34,4.875A4.728,4.728,0,0,0,2052.647,6072.8Z" transform="translate(-1998.652 -6054.791)" fill="#019e96"/>
        <path id="Path_4245" data-name="Path 4245" d="M2030.7,6113.213l12.527,16.064c1.165,1.495,3.6.822,4.453-.574l18.636-30.487,2.676-4.377c1.908-3.122-2.995-5.975-4.9-2.863l-18.636,30.487-2.676,4.377,4.453-.574L2034.71,6109.2c-.942-1.208-3.021-.989-4.01,0a2.908,2.908,0,0,0,0,4.01Z" transform="translate(-2003.223 -6059.745)" fill="#fff"/>
      </g>
      <path id="Path_4246" data-name="Path 4246" d="M1930.042,6161.248s27.282,18.189,41.829,20.95,78.565,8.839,91.009,11.648,44.4,14.205,47.174,11.17,20.292-27.33,6.853-30.363a107.872,107.872,0,0,0-22.351-2.952s15.22-16.444,8.364-18.515-8.107,8.109-11.158,10.037-15.188,7.034-15.188,7.034-15.157-2.375-37.6-9.534-55.549-16.2-55.549-16.2l-31.111-21.668Z" transform="translate(-31.012 -35.242)" fill="#ffc517"/>
    </g>
  </g>
</svg>
