<svg xmlns="http://www.w3.org/2000/svg" width="212.388" height="206.366" viewBox="0 0 212.388 206.366">
  <g id="Group_3327" data-name="Group 3327" transform="translate(3219 1941.366)">
    <g id="Group_3326" data-name="Group 3326">
      <g id="Group_3325" data-name="Group 3325">
        <path id="Path_4267" data-name="Path 4267" d="M2.486,98.808l42.347,46.158a9.448,9.448,0,0,0,13.658.279l82.575-82.927a9.448,9.448,0,0,0,0-13.329L95.128,2.786a9.449,9.449,0,0,0-13.544.149L2.605,85.907A9.448,9.448,0,0,0,2.486,98.808Z" transform="translate(-3212.977 -1839.671) rotate(-45)" fill="#313131"/>
        <path id="Path_4268" data-name="Path 4268" d="M2.486,98.808l42.347,46.158a9.448,9.448,0,0,0,13.658.279l82.575-82.927a9.448,9.448,0,0,0,0-13.329L95.128,2.786a9.449,9.449,0,0,0-13.544.149L2.605,85.907A9.448,9.448,0,0,0,2.486,98.808Z" transform="translate(-3219 -1839.671) rotate(-45)" fill="#e68c8c"/>
        <text id="_" data-name="$" transform="matrix(0.978, 0.208, -0.208, 0.978, -3120.567, -1854.334)" fill="#fcf4d7" font-size="38" font-family="SourceHanSansTW-Bold, Source Han Sans TW" font-weight="700"><tspan x="0" y="0">$</tspan></text>
        <text id="_2" data-name=" ¥" transform="matrix(0.978, -0.208, 0.208, 0.978, -3148.404, -1824.557)" fill="#fcf4d7" font-size="39" font-family="SourceHanSansTW-Bold, Source Han Sans TW" font-weight="700"><tspan x="0" y="0" xml:space="preserve"> ¥</tspan></text>
        <text id="_3" data-name="€" transform="translate(-3117.708 -1810.271) rotate(13)" fill="#fcf4d7" font-size="38" font-family="SourceHanSansTW-Bold, Source Han Sans TW" font-weight="700"><tspan x="0" y="0">€</tspan></text>
        <text id="BANK" transform="matrix(1, 0.017, -0.017, 1, -3130.902, -1781.606)" fill="#fcf4d7" font-size="11" font-family="SourceHanSansTW-Regular, Source Han Sans TW"><tspan x="0" y="0">BANK</tspan></text>
      </g>
    </g>
  </g>
</svg>
