<svg xmlns="http://www.w3.org/2000/svg" width="1367" height="106.504" viewBox="0 0 1367 106.504">
  <path id="Subtraction_22" data-name="Subtraction 22" d="M406.38,817c-24.479,0-48.415-.634-71.141-1.885-21.137-1.164-41.727-2.888-61.2-5.125-34.487-3.962-66.3-9.61-94.541-16.787V710.5h1367v57.421c-55.733-6.133-112.032-10.963-167.335-14.355-65.87-4.039-131.2-6.087-194.186-6.087-33.564,0-67.031.583-99.472,1.732-34.484,1.221-68.775,3.116-101.919,5.632-35.033,2.658-69.741,6.082-103.163,10.176-35.17,4.308-69.894,9.479-103.208,15.369-36.924,6.529-73.395,12.265-108.4,17.051-33.32,4.556-66.176,8.367-97.655,11.328-29.847,2.808-59.232,4.926-87.338,6.293C457.3,816.349,431.246,817,406.38,817Z" transform="translate(-179.5 -710.5)" fill="#fff4cc"/>
</svg>
