<svg xmlns="http://www.w3.org/2000/svg" xmlns:xlink="http://www.w3.org/1999/xlink" width="210" height="170" viewBox="0 0 210 170">
  <defs>
    <clipPath id="clip-path">
      <rect x="20" y="24" width="210" height="170" fill="none"/>
    </clipPath>
  </defs>
  <g id="Group_3290" data-name="Group 3290" transform="translate(11072 2873)">
    <g id="Scroll_Group_29" data-name="Scroll Group 29" transform="translate(-11092 -2897)" clip-path="url(#clip-path)" style="isolation: isolate">
      <ellipse id="Ellipse_758" data-name="Ellipse 758" cx="106.5" cy="81.5" rx="106.5" ry="81.5" transform="translate(46.779) rotate(17)" fill="#fff"/>
    </g>
    <g id="Group_3286" data-name="Group 3286" transform="translate(-14216.326 -5707.224)">
      <path id="Path_3128" data-name="Path 3128" d="M3282.423,2849.6c-24.382-15.432-56.6,26.688-63.334,33.1s-5.7,11.036-5.7,11.036l26.5-8.617-4.526,54.79,23.142-4.179,19.509,10.663,7.2-27.929,8.429-27.026h0S3306.143,2864.611,3282.423,2849.6Z" fill="#ff957c"/>
      <g id="Group_2238" data-name="Group 2238">
        <path id="Path_3129" data-name="Path 3129" d="M3294.077,2987.166l9.628-46.288a7.132,7.132,0,0,0-5.53-8.433c-.1-.022-.21-.041-.316-.058l-87.194-14.061a7.131,7.131,0,0,0-8.169,5.87l-8.072,48.512a7.132,7.132,0,0,0,5.866,8.2l.193.029,85.636,11.838A7.13,7.13,0,0,0,3294.077,2987.166Z" fill="#ffc517"/>
        <rect id="Rectangle_271" data-name="Rectangle 271" width="18" height="19" rx="5" transform="translate(3270.295 2968.901) rotate(-81)" fill="#c4c4c4"/>
      </g>
      <path id="Path_3131" data-name="Path 3131" d="M3269.812,2863.536c-7.629,17.2-29.54,22.242-29.759,22.291l-.316-1.42c.212-.049,21.416-4.942,28.745-21.462Z" fill="#fff"/>
      <path id="Path_3132" data-name="Path 3132" d="M3276.835,2908.5l-.234,1.438-11.454-1.86-4.006,18.455-1.483-.278,4.291-19.67Z" fill="#fff"/>
      <path id="Path_3133" data-name="Path 3133" d="M3287.182,2910.726l-.3,1.423-9.677-2.084-5.2,18.145-1.513-.231,5.746-19.612Z" fill="#fff"/>
      <rect id="Rectangle_265" data-name="Rectangle 265" width="1.456" height="18.061" transform="translate(3246.867 2907.052) rotate(-86.565)" fill="#fff"/>
      <path id="Path_4504" data-name="Path 4504" d="M3250.817,2922.316l-13.588-5.284-1.927,24.991-.038.027s-.4,5.311,4.265,6.082,6.061-3.045,6.339-4.492a.848.848,0,0,0-.055-.409Z" fill="#ff957c"/>
      <rect id="Rectangle_266" data-name="Rectangle 266" width="37.255" height="1.167" transform="translate(3245.123 2943.61) rotate(-77.242)" fill="#fff"/>
    </g>
  </g>
</svg>
