<svg xmlns="http://www.w3.org/2000/svg" width="1366" height="143.817" viewBox="0 0 1366 143.817">
  <path id="Subtraction_13" data-name="Subtraction 13" d="M1839.444,854.5c-32.909,0-67.4-.866-102.528-2.575-37.2-1.81-76.1-4.612-115.624-8.331-41.678-3.921-85.174-8.967-129.281-15-46.338-6.335-94.619-13.929-143.5-22.573-46.389-8.2-94.827-15.4-143.969-21.4-46.556-5.679-94.948-10.425-143.832-14.106-46.093-3.471-93.807-6.084-141.817-7.766-45.011-1.578-91.415-2.378-137.923-2.378-32.519,0-65.816.391-98.966,1.163V710.68H2048V840.9c-29.673,4.293-61.433,7.614-94.4,9.872C1917.485,853.243,1879.076,854.5,1839.444,854.5Z" transform="translate(-682 -710.68)" fill="#ffe8a3"/>
</svg>
