<svg xmlns="http://www.w3.org/2000/svg" width="212" height="212" viewBox="0 0 212 212">
  <g id="Group_3328" data-name="Group 3328" transform="translate(3199 2344)">
    <rect id="Rectangle_1561" data-name="Rectangle 1561" width="212" height="212" transform="translate(-3199 -2344)" fill="none"/>
    <g id="Group_3321" data-name="Group 3321" transform="translate(-6601.168 -12699.901)">
      <path id="Path_4305" data-name="Path 4305" d="M47.2,2.83S43.528-2.259,38.74,1.211,35.1,9.945,36.332,13.174c-1.754-4.029-5.82-7.653-10.561-4.329s-1.58,13.1-1.016,14.853C23.4,19.55,19.867,17.774,16.3,20.568s-4.628,6.285-2.94,10.548c-2.384-3.27-5.567-2.377-8.066-.755S-1.094,35.051.289,41.148C9.267,37.851,47.2,2.83,47.2,2.83Z" transform="translate(3514.667 10368.995) rotate(40)" fill="#ff957c"/>
      <path id="Path_3142" data-name="Path 3142" d="M59.732,147.121c37.119,1.509,45.932-66.2,49.308-77.68s-.75-15.973-.75-15.973l-24,26.67L46.932,0,23.819,19.558,0,38.435,5.151,56.006l8,35.559,16.907,14.352S23.62,145.651,59.732,147.121Z" transform="translate(3513.186 10371.144) rotate(40)" fill="#ff957c"/>
      <path id="Path_3143" data-name="Path 3143" d="M.215,44.016C-2.348,19.923,18.835.2,19.049,0l1.267,1.382c-.206.189-20.7,19.3-18.238,42.435Z" transform="translate(3511.609 10473.529) rotate(40)" fill="#fff"/>
      <rect id="Rectangle_267" data-name="Rectangle 267" width="23.254" height="1.875" transform="translate(3499.688 10451.936) rotate(13.435)" fill="#fff"/>
      <rect id="Rectangle_268" data-name="Rectangle 268" width="1.502" height="57.829" transform="matrix(0.932, 0.362, -0.362, 0.932, 3533.656, 10401.13)" fill="#fff"/>
      <rect id="Rectangle_269" data-name="Rectangle 269" width="1.502" height="57.829" transform="matrix(0.932, 0.362, -0.362, 0.932, 3518.082, 10401.505)" fill="#fff"/>
      <rect id="Rectangle_270" data-name="Rectangle 270" width="1.502" height="57.829" transform="matrix(0.932, 0.362, -0.362, 0.932, 3504.22, 10401.137)" fill="#fff"/>
      <g id="Group_3019" data-name="Group 3019" transform="matrix(0.07, 0.998, -0.998, 0.07, 3564.679, 10416.8)">
        <rect id="Rectangle_1446" data-name="Rectangle 1446" width="68.016" height="125.471" rx="13.334" transform="translate(0 0)" fill="#313131"/>
        <rect id="Rectangle_1447" data-name="Rectangle 1447" width="62.609" height="118.98" rx="10.283" transform="translate(2.703 3.246)" fill="#019e96"/>
        <path id="Rectangle_1448" data-name="Rectangle 1448" d="M0,0H24.776a0,0,0,0,1,0,0V3.894a3,3,0,0,1-3,3H3a3,3,0,0,1-3-3V0A0,0,0,0,1,0,0Z" transform="translate(21.62 0.806)" fill="#313131"/>
        <g id="Group_2850" data-name="Group 2850" transform="translate(6.895 11.998)">
          <rect id="Rectangle_1451" data-name="Rectangle 1451" width="5.658" height="0.632" transform="translate(0)" fill="#313131"/>
          <rect id="Rectangle_1452" data-name="Rectangle 1452" width="5.658" height="0.632" transform="translate(0 1.695)" fill="#313131"/>
          <rect id="Rectangle_1453" data-name="Rectangle 1453" width="5.658" height="0.632" transform="translate(0 3.391)" fill="#313131"/>
        </g>
        <g id="Group_2851" data-name="Group 2851" transform="translate(23.559 118.308)">
          <line id="Line_214" data-name="Line 214" x2="17.477" transform="translate(0.916 0.949)" fill="#fff"/>
          <path id="Path_4190" data-name="Path 4190" d="M.916,1.9H18.393a.949.949,0,0,0,0-1.9H.916a.949.949,0,0,0,0,1.9Z" transform="translate(0 0)" fill="#313131"/>
        </g>
      </g>
      <rect id="Rectangle_284" data-name="Rectangle 284" width="9.445" height="32.628" transform="matrix(0.998, -0.07, 0.07, 0.998, 3471.558, 10448.619)" fill="#fff"/>
      <rect id="Rectangle_285" data-name="Rectangle 285" width="9.445" height="49.801" transform="matrix(0.998, -0.07, 0.07, 0.998, 3483.208, 10430.59)" fill="#fff"/>
      <rect id="Rectangle_286" data-name="Rectangle 286" width="9.445" height="18.031" transform="matrix(0.998, -0.07, 0.07, 0.998, 3499.129, 10461.323)" fill="#fff"/>
      <rect id="Rectangle_287" data-name="Rectangle 287" width="9.445" height="38.638" transform="matrix(0.998, -0.07, 0.07, 0.998, 3511.396, 10439.809)" fill="#fff"/>
      <rect id="Rectangle_288" data-name="Rectangle 288" width="9.445" height="28.335" transform="matrix(0.998, -0.07, 0.07, 0.998, 3527.532, 10449.009)" fill="#fff"/>
    </g>
  </g>
</svg>
