<svg xmlns="http://www.w3.org/2000/svg" width="350" height="249.765" viewBox="0 0 350 249.765">
  <g id="Group_3304" data-name="Group 3304" transform="translate(-1994 4602.673)">
    <path id="Subtraction_17" data-name="Subtraction 17" d="M154.754,231.165c-50.623,0-102.69-.843-154.754-2.506V0H350V226.861C286.787,229.717,221.1,231.165,154.754,231.165Z" transform="translate(1994 -4602.673)" fill="#9fd2ea"/>
    <g id="Group_3301" data-name="Group 3301" transform="translate(1241.915 -7657.231)">
      <path id="Path_3338" data-name="Path 3338" d="M825.9,3306.729l74.486-.715c10.038-.1,17.555-9,15.719-18.616l-15.647-82.006a16.053,16.053,0,0,0-16.123-12.86l-46.307.68a16.018,16.018,0,0,0-15.732,13.421l-12.531,82.041C808.306,3298.246,815.971,3306.824,825.9,3306.729Z" transform="translate(-10.394 -6.421)" fill="#fff"/>
      <g id="Group_2328" data-name="Group 2328" transform="translate(848.74 3085.795)">
        <path id="Path_2787" data-name="Path 2787" d="M874.2,3147.522H872.28a22.224,22.224,0,0,0-11.117,2.98l-1.659.956a22.247,22.247,0,0,0-8.139,8.139l-.957,1.66a22.228,22.228,0,0,0-2.98,11.117v1.915a22.224,22.224,0,0,0,2.98,11.117l.957,1.66a22.223,22.223,0,0,0,8.139,8.139l1.659.957a22.227,22.227,0,0,0,11.117,2.98H874.2a22.227,22.227,0,0,0,11.117-2.98l1.66-.957a22.248,22.248,0,0,0,8.139-8.139l.956-1.66a22.227,22.227,0,0,0,2.98-11.117v-1.916a22.226,22.226,0,0,0-2.98-11.116l-.956-1.66a22.246,22.246,0,0,0-8.139-8.139l-1.66-.959A22.242,22.242,0,0,0,874.2,3147.522Z" transform="translate(-847.428 -3147.522)" fill="#ff8e9e"/>
        <path id="Path_2788" data-name="Path 2788" d="M876.457,3148.275h-1.913a22.243,22.243,0,0,0-11.119,2.979l-1.659.958a22.246,22.246,0,0,0-8.14,8.139l-.958,1.657a22.239,22.239,0,0,0-2.978,11.117v1.915a22.24,22.24,0,0,0,2.978,11.117l.958,1.658a22.235,22.235,0,0,0,8.14,8.139l1.659.959a22.236,22.236,0,0,0,11.119,2.98h1.913a22.232,22.232,0,0,0,11.117-2.98l1.66-.959a22.222,22.222,0,0,0,8.139-8.139l.957-1.658a22.241,22.241,0,0,0,2.979-11.117v-1.912a22.239,22.239,0,0,0-2.979-11.116l-.957-1.658a22.22,22.22,0,0,0-8.139-8.139l-1.66-.958A22.243,22.243,0,0,0,876.457,3148.275Z" transform="translate(-847.033 -3147.391)" fill="#019e96"/>
        <circle id="Ellipse_259" data-name="Ellipse 259" cx="20.018" cy="20.018" r="20.018" transform="translate(8.449 6.675)" fill="#fff"/>
        <path id="Path_3339" data-name="Path 3339" d="M893.6,3170.626a.528.528,0,0,1-.521-.444,19.5,19.5,0,0,0-33.431-10.27.529.529,0,0,1-.782-.712l.013-.013a20.555,20.555,0,0,1,35.237,10.826.528.528,0,0,1-.437.606A.521.521,0,0,1,893.6,3170.626Z" transform="translate(-845.455 -3146.61)" fill="#313131"/>
        <path id="Path_3340" data-name="Path 3340" d="M873.6,3189.969a20.581,20.581,0,0,1-13.443-5.019.529.529,0,1,1,.693-.8h0a19.5,19.5,0,0,0,31.375-8.937.529.529,0,0,1,1.01.315A20.591,20.591,0,0,1,873.6,3189.969Z" transform="translate(-845.237 -3142.753)" fill="#313131"/>
        <g id="_" data-name=" " transform="translate(22.007 15.651)" style="isolation: isolate">
          <text id="R" transform="translate(0 16)" font-size="17" font-family="Montserrat-Bold, Montserrat" font-weight="700" style="isolation: isolate"><tspan x="0" y="0">R</tspan></text>
        </g>
      </g>
      <g id="Group_2329" data-name="Group 2329" transform="translate(823.816 3104.073)">
        <path id="Path_2787-2" data-name="Path 2787-2" d="M852.976,3163.083h-1.916a22.249,22.249,0,0,0-11.117,2.98l-1.66.957a22.246,22.246,0,0,0-8.139,8.139l-.957,1.658a22.241,22.241,0,0,0-2.979,11.116v1.916a22.24,22.24,0,0,0,2.979,11.117l.957,1.659a22.239,22.239,0,0,0,8.139,8.137l1.66.958a22.225,22.225,0,0,0,11.117,2.98h1.916a22.228,22.228,0,0,0,11.117-2.98l1.657-.958a22.22,22.22,0,0,0,8.139-8.137l.957-1.659a22.224,22.224,0,0,0,2.979-11.117v-1.916a22.241,22.241,0,0,0-2.979-11.117l-.957-1.657a22.222,22.222,0,0,0-8.139-8.139l-1.657-.957A22.23,22.23,0,0,0,852.976,3163.083Z" transform="translate(-826.209 -3163.083)" fill="#ff8e9e"/>
        <path id="Path_2788-2" data-name="Path 2788-2" d="M855.238,3163.837h-1.916a22.232,22.232,0,0,0-11.116,2.979l-1.66.957a22.225,22.225,0,0,0-8.139,8.139l-.958,1.659a22.238,22.238,0,0,0-2.978,11.116v1.919a22.239,22.239,0,0,0,2.978,11.116l.958,1.658a22.21,22.21,0,0,0,8.139,8.138l1.66.959a22.234,22.234,0,0,0,11.116,2.979h1.916a22.241,22.241,0,0,0,11.117-2.979l1.659-.959a22.218,22.218,0,0,0,8.139-8.138l.956-1.658a22.223,22.223,0,0,0,2.98-11.116v-1.913a22.227,22.227,0,0,0-2.98-11.117l-.956-1.657a22.22,22.22,0,0,0-8.139-8.139l-1.659-.959A22.232,22.232,0,0,0,855.238,3163.837Z" transform="translate(-825.814 -3162.951)" fill="#019e96"/>
        <circle id="Ellipse_259-2" data-name="Ellipse 259-2" cx="20.018" cy="20.018" r="20.018" transform="translate(8.448 6.676)" fill="#fff"/>
        <path id="Path_3341" data-name="Path 3341" d="M872.383,3186.188a.525.525,0,0,1-.52-.444,19.5,19.5,0,0,0-33.431-10.27.529.529,0,1,1-.769-.726h0a20.556,20.556,0,0,1,35.237,10.827.528.528,0,0,1-.437.6h0A.429.429,0,0,1,872.383,3186.188Z" transform="translate(-824.235 -3162.171)" fill="#313131"/>
        <path id="Path_3342" data-name="Path 3342" d="M852.388,3205.528a20.582,20.582,0,0,1-13.443-5.018.529.529,0,0,1,.693-.8,19.5,19.5,0,0,0,31.375-8.936.529.529,0,0,1,1.009.316A20.591,20.591,0,0,1,852.388,3205.528Z" transform="translate(-824.018 -3158.313)" fill="#313131"/>
        <g id="_2" data-name=" 2" transform="translate(22.836 15.286)" style="isolation: isolate">
          <text id="_2-2" data-name="$" transform="translate(0 17)" font-size="18" font-family="Montserrat-Bold, Montserrat" font-weight="700" style="isolation: isolate"><tspan x="0" y="0">$</tspan></text>
        </g>
      </g>
      <g id="Group_2859" data-name="Group 2859" transform="translate(823.926 3224.424)">
        <g id="Group_2327" data-name="Group 2327">
          <path id="Path_2776" data-name="Path 2776" d="M874.482,3262.112c-4.09-4.328-13.3-7.346-24-7.346s-19.915,3.017-24,7.346h-2.258v5.022c0,6.833,11.756,12.368,26.26,12.368s26.262-5.537,26.262-12.368v-5.022Z" transform="translate(-824.216 -3219.981)" fill="#ff8e9e"/>
          <ellipse id="Ellipse_254" data-name="Ellipse 254" cx="26.262" cy="12.368" rx="26.262" ry="12.368" transform="translate(0.001 29.761)" fill="#019e96"/>
          <path id="Path_2777" data-name="Path 2777" d="M881.278,3253.995c-4.09-4.328-13.3-7.345-24-7.345s-19.915,3.017-24,7.345h-2.258v5.023c0,6.832,11.759,12.369,26.261,12.369s26.262-5.538,26.262-12.369v-5.023Z" transform="translate(-823.03 -3221.398)" fill="#ff8e9e"/>
          <ellipse id="Ellipse_255" data-name="Ellipse 255" cx="26.262" cy="12.368" rx="26.262" ry="12.368" transform="translate(7.983 20.226)" fill="#019e96"/>
          <path id="Path_2778" data-name="Path 2778" d="M876.475,3245.4c-4.089-4.328-13.3-7.345-24-7.345s-19.915,3.017-24,7.345h-2.259v5.025c0,6.83,11.758,12.369,26.262,12.369s26.26-5.539,26.26-12.369V3245.4Z" transform="translate(-823.868 -3222.898)" fill="#ff8e9e"/>
          <ellipse id="Ellipse_256" data-name="Ellipse 256" cx="26.262" cy="12.368" rx="26.262" ry="12.368" transform="translate(2.341 10.13)" fill="#019e96"/>
          <path id="Path_2782" data-name="Path 2782" d="M879.148,3236.774c-4.089-4.328-13.3-7.346-24-7.346s-19.914,3.018-24,7.346h-2.255v5.022c0,6.833,11.759,12.368,26.261,12.368s26.262-5.537,26.262-12.368v-5.022Z" transform="translate(-823.401 -3224.404)" fill="#ff8e9e"/>
          <ellipse id="Ellipse_257" data-name="Ellipse 257" cx="26.262" cy="12.368" rx="26.262" ry="12.368" transform="translate(5.483)" fill="#019e96"/>
          <ellipse id="Ellipse_258" data-name="Ellipse 258" cx="22.71" cy="9.306" rx="22.71" ry="9.306" transform="translate(8.738 2.642)" fill="#fff"/>
          <path id="Path_2783" data-name="Path 2783" d="M875.625,3238.464c-3.3,3.467-11.534,5.925-21.164,5.925-10.454,0-19.254-2.894-21.9-6.833" transform="translate(-822.759 -3222.985)" fill="none" stroke="#313131" stroke-linecap="round" stroke-miterlimit="10" stroke-width="0.279"/>
        </g>
        <g id="_3" data-name=" 3" transform="translate(24.945 2.128)" style="isolation: isolate">
          <text id="_3-2" data-name="¥" transform="translate(0.273 12.977) rotate(3.384)" font-size="13" font-family="Montserrat-Bold, Montserrat" font-weight="700" style="isolation: isolate"><tspan x="0" y="0">¥</tspan></text>
        </g>
      </g>
      <path id="Path_4196" data-name="Path 4196" d="M990.219,3164.2s13.613,1.7,17.085-1.94c9.727-10.207,6.818-37.778,6.818-37.778l-22.581,1.561" fill="#313131"/>
      <path id="Path_4197" data-name="Path 4197" d="M1024.293,3197.7H938.1s-21.508-2.012-25.128,24.235-9.956,63.806-9.956,63.806L1020.673,3288Z" fill="#ff8e9e"/>
      <path id="Path_4198" data-name="Path 4198" d="M944.169,3213.15l-1.46,7.3-3.5,17.521-4.24,21.2-3.666,18.323-1.207,6.037c-.19.95-.337,1.922-.573,2.862-.01.041-.016.082-.024.123-.265,1.324-2.289.764-2.024-.558l1.459-7.3,3.505-17.521,4.24-21.2,3.665-18.323,1.207-6.037c.19-.95.338-1.921.573-2.862.01-.04.016-.082.025-.123.264-1.324,2.288-.764,2.024.558Z" fill="#313131"/>
      <path id="Rectangle_1460" data-name="Rectangle 1460" d="M9.45,0H24.558a9.45,9.45,0,0,1,9.45,9.45V61.022a17,17,0,0,1-17,17h0a17,17,0,0,1-17-17V9.45A9.45,9.45,0,0,1,9.45,0Z" transform="translate(966.174 3137.238) rotate(5.29)" fill="#fec739"/>
      <circle id="Ellipse_629" data-name="Ellipse 629" cx="28.912" cy="28.912" r="28.912" transform="translate(942.523 3106.766)" fill="#fec739"/>
      <circle id="Ellipse_630" data-name="Ellipse 630" cx="28.912" cy="28.912" r="28.912" transform="translate(941.049 3122.691)" fill="#fec739"/>
      <rect id="Rectangle_1461" data-name="Rectangle 1461" width="15.577" height="57.825" transform="matrix(0.092, -0.996, 0.996, 0.092, 941.21, 3148.523)" fill="#fec739"/>
      <circle id="Ellipse_631" data-name="Ellipse 631" cx="3.374" cy="3.374" r="3.374" transform="translate(947.64 3136.75)" fill="#313131"/>
      <circle id="Ellipse_632" data-name="Ellipse 632" cx="3.374" cy="3.374" r="3.374" transform="translate(967.479 3138.588)" fill="#313131"/>
      <path id="Path_4199" data-name="Path 4199" d="M958.821,3140.224l-2.744,12.58-.389,1.779c-.164.755.583,1.407,1.248,1.5l3.327.476c1.76.253,2.01-2.5.255-2.748l-3.328-.477,1.247,1.5,2.745-12.58.388-1.779a1.388,1.388,0,0,0-1.247-1.5,1.414,1.414,0,0,0-1.5,1.247Z" fill="#313131"/>
      <path id="Path_4200" data-name="Path 4200" d="M958.839,3165.364c3.2.837,7.259.93,9.668-1.669a1.384,1.384,0,0,0-.319-1.926,1.423,1.423,0,0,0-1.926.319c.279-.3-.007-.008-.072.049-.087.076-.178.149-.271.217-.228.167-.069-.016.01,0-.043-.011-.255.146-.3.171a5.112,5.112,0,0,1-.559.246c-.366.137.159-.033-.076.031-.086.023-.171.048-.257.069a8.341,8.341,0,0,1-1.314.213,1.786,1.786,0,0,0-.352.023c.153-.051.263-.007.021,0q-.318.006-.638,0a14.9,14.9,0,0,1-2.078-.216c-.217-.037-.433-.082-.649-.126-.248-.052.435.1.16.036l-.07-.017a1.416,1.416,0,0,0-1.78.8,1.4,1.4,0,0,0,.8,1.78Z" fill="#313131"/>
      <ellipse id="Ellipse_633" data-name="Ellipse 633" cx="8.967" cy="6.357" rx="8.967" ry="6.357" transform="translate(990.84 3138.061) rotate(-15.583)" fill="#fec739"/>
      <circle id="Ellipse_634" data-name="Ellipse 634" cx="20.943" cy="20.943" r="20.943" transform="translate(1002.696 3197.665)" fill="#ff8e9e"/>
      <path id="Path_4201" data-name="Path 4201" d="M958.086,3289.756" fill="none" stroke="#313131" stroke-miterlimit="10" stroke-width="0.35"/>
      <path id="Path_4202" data-name="Path 4202" d="M969.485,3287.019l-29.191-14.027,62.974,30.26a19.471,19.471,0,0,0,25.3-13.952l16.012-68.117" fill="#ff8e9e"/>
      <path id="Path_4203" data-name="Path 4203" d="M1016.264,3210.7c-.47.52-.936,1.042-1.39,1.576q-.315.37-.62.749-.144.179-.285.36c.158-.2-.125.165-.182.242a21.87,21.87,0,0,0-2.085,3.415c-.164.334-.318.671-.468,1.011-.017.039-.113.262-.076.174s-.074.178-.094.226q-.12.3-.236.595c-.328.852-.622,1.717-.9,2.588-.728,2.327-1.311,4.7-1.85,7.077-1.51,6.658-2.715,13.388-4.068,20.079q-1.815,8.974-3.689,17.936-.624,2.989-1.254,5.977c-.2.95-.362,1.919-.605,2.86-.011.041-.018.084-.027.126-.281,1.321-2.3.762-2.024-.558q.785-3.684,1.553-7.373,1.806-8.624,3.562-17.259c1.388-6.827,2.647-13.685,4.118-20.494a67.551,67.551,0,0,1,3.809-13.1,26.864,26.864,0,0,1,4.618-6.908q.35-.394.7-.785c.908-1.005,2.389.484,1.485,1.484Z" fill="#313131"/>
      <path id="Path_4204" data-name="Path 4204" d="M967.773,3262.381s-1.044-8.015-8.067-8.684-13.712.375-20.066-2.655-9.364-5.705-12.708-4.7c-3.214.964,2.816,7.36,11.306,9.637a.089.089,0,0,1-.028.176c-9.4-.757-19.457-3.017-24.431-7.874-2.252-2.2-9.588-6.621-7.916-2.608s14.684,19.4,34.431,16.053c8.71-1.556,8.041,4.347,8.041,4.347Z" fill="#fec739"/>
      <path id="Path_4205" data-name="Path 4205" d="M972.412,3289.678l-3.446-2.154-8.331-5.206-10.036-6.273-8.722-5.451c-1.407-.88-2.849-1.72-4.227-2.642l-.063-.039a1.06,1.06,0,0,1,.53-1.956l9.844-1.307,17.517-2.327,5.993-.8a3.393,3.393,0,0,1,2.245.078l12.05,6.427,11.98,6.39.212.112c1.192.636.133,2.449-1.06,1.813l-8.294-4.424-13.161-7.019-3.031-1.616.53.143L961.1,3265l-18.707,2.485-4.28.568.53-1.956,3.447,2.154,8.33,5.207,10.036,6.272,8.722,5.452c1.407.879,2.849,1.719,4.228,2.642l.062.039c1.143.714.09,2.531-1.06,1.812Z" fill="#313131"/>
      <path id="Path_4206" data-name="Path 4206" d="M939.321,3256.361s-18.277-9.288-22.471-10.337-8.459-2.063-10.86-1.917c2.843,2.991,11.759,12.7,11.759,12.7l23.819,3.745Z" fill="#fec739"/>
      <path id="Path_4207" data-name="Path 4207" d="M962.263,3179.477a17.434,17.434,0,0,0,5.867.85,76.7,76.7,0,0,1-6.651,7.616Z" fill="#313131"/>
      <path id="Path_4208" data-name="Path 4208" d="M942.794,3140.673s4.184-18.688,21.233-19.016c-.356,8.8,9.181,19.344,17.049,15.41s8.2,3.606,8.2,3.606,2.962,6.279,10.006-4.565c3.417-.76,11.3-2.32,11.3-2.32s10.164-12.459-3.934-20.983-45.922-5.974-45.922-5.974-26.175-1.278-30.266,31.618C933.741,3139.433,942.794,3140.673,942.794,3140.673Z" fill="#313131"/>
    </g>
  </g>
</svg>
