<svg xmlns="http://www.w3.org/2000/svg" xmlns:xlink="http://www.w3.org/1999/xlink" width="440" height="263.361" viewBox="0 0 440 263.361">
  <defs>
    <clipPath id="clip-path">
      <rect width="440" height="263.361" fill="none"/>
    </clipPath>
  </defs>
  <g id="Repeat_Grid_9" data-name="Repeat Grid 9" clip-path="url(#clip-path)">
    <g id="Group_3278" data-name="Group 3278" transform="translate(10535 4430.612)">
      <path id="Subtraction_16" data-name="Subtraction 16" d="M440,258.966h0c-76.886-1.333-156.127-4.566-235.521-9.607C136.727,245.056,67.931,239.38,0,232.488V0H440V258.965Z" transform="translate(-10535 -4430.613)" fill="#fff0c6"/>
      <g id="Group_3276" data-name="Group 3276" transform="translate(-10725 -5065.674)">
        <g id="Group_2400" data-name="Group 2400" transform="translate(251 670.351)">
          <g id="Group_2216" data-name="Group 2216" transform="translate(0 103.115)">
            <path id="Path_2776" data-name="Path 2776" d="M113.61,236c-6-6.353-19.523-10.783-35.241-10.783S49.132,229.647,43.128,236H39.813v7.376c0,10.029,17.262,18.159,38.556,18.159s38.556-8.13,38.556-18.159V236Z" transform="translate(-39.813 -174.147)" fill="#019e96"/>
            <ellipse id="Ellipse_254" data-name="Ellipse 254" cx="38.556" cy="18.159" rx="38.556" ry="18.159" transform="translate(0 43.694)" fill="#fec739"/>
            <path id="Path_2777" data-name="Path 2777" d="M133.23,212.557c-6-6.353-19.522-10.783-35.24-10.783s-29.237,4.43-35.241,10.783H59.433v7.376c0,10.029,17.262,18.159,38.556,18.159s38.556-8.13,38.556-18.159v-7.376Z" transform="translate(-47.716 -164.704)" fill="#019e96"/>
            <ellipse id="Ellipse_255" data-name="Ellipse 255" cx="38.556" cy="18.159" rx="38.556" ry="18.159" transform="translate(11.717 29.694)" fill="#fec739"/>
            <path id="Path_2778" data-name="Path 2778" d="M119.362,187.735c-6-6.353-19.522-10.783-35.24-10.783s-29.237,4.43-35.241,10.783H45.565v7.376c0,10.029,17.262,18.159,38.556,18.159s38.556-8.13,38.556-18.159v-7.376Z" transform="translate(-42.13 -154.705)" fill="#019e96"/>
            <ellipse id="Ellipse_256" data-name="Ellipse 256" cx="38.556" cy="18.159" rx="38.556" ry="18.159" transform="translate(3.435 14.871)" fill="#fec739"/>
            <path id="Path_2782" data-name="Path 2782" d="M127.087,162.833c-6-6.353-19.522-10.783-35.241-10.783s-29.237,4.43-35.24,10.783H53.29v7.376c0,10.029,17.262,18.159,38.556,18.159s38.556-8.13,38.556-18.159v-7.376Z" transform="translate(-45.242 -144.674)" fill="#019e96"/>
            <ellipse id="Ellipse_257" data-name="Ellipse 257" cx="38.556" cy="18.159" rx="38.556" ry="18.159" transform="translate(8.048 0)" fill="#fec739"/>
            <ellipse id="Ellipse_258" data-name="Ellipse 258" cx="33.342" cy="13.663" rx="33.342" ry="13.663" transform="translate(12.828 3.879)" fill="#fff"/>
            <path id="Path_2783" data-name="Path 2783" d="M127.137,176.842c-4.849,5.09-16.932,8.7-31.07,8.7-15.343,0-28.266-4.247-32.149-10.029" transform="translate(-49.523 -154.124)" fill="none" stroke="#313131" stroke-linecap="round" stroke-miterlimit="10" stroke-width="1"/>
            <ellipse id="Ellipse_499" data-name="Ellipse 499" cx="29" cy="10.5" rx="29" ry="10.5" transform="translate(17 6.896)" fill="#fec739"/>
          </g>
          <path id="Path_3059" data-name="Path 3059" d="M-272.674,155.663c-21.782-1.154-106.26-2.358-125.361.174a5.2,5.2,0,0,1-5.715-5.51c.149-3.63.354-7.2.6-10.779-10.518-.633-19.485-3.523-28.864-3.523-4.414,0-7.361-.1-12.86-.392.726-23.382,4.528-40.858,12.626-63.44a64.681,64.681,0,0,1,42.874-40.733q9.132-2.6,18.152-4.281C-369.664,50.3-353.8,68.339-325.542,67.52c22.117-.614,35.8-17.071,43.209-36.172,24.183,6.628,43.771,15.385,68.253,29.832l.494,1.066c-2.625,12.1-3.7,28.861-13.53,43.9-12.845-5.473-25.672-11.43-40.36-18.616" transform="translate(499.623 60.46)" fill="#fff"/>
          <path id="Path_3060" data-name="Path 3060" d="M-253.094,25.346c-7.41,19.1-21.092,35.558-43.209,36.172-28.26.82-44.121-17.22-45.685-40.342,4.263-.8,8.526-1.452,12.752-1.974v.019l.167-.037c-.056,0-.112.019-.167.019,1.006-4.226,1.787-8.75,2.4-13.143a34.891,34.891,0,0,0,2.774,5.362c5.474,8.75,14.6,15.247,24,15.433,6.72.149,12.771-2.811,17.48-7.447A211.014,211.014,0,0,1-253.094,25.346Z" transform="translate(470.384 66.462)" fill="#fec739"/>
          <path id="Path_3061" data-name="Path 3061" d="M-256.714-11.846A39.654,39.654,0,0,1-268.324,16.7c-5.52,5.434-12.613,8.9-20.491,8.729-11.021-.218-21.713-7.835-28.13-18.091.786-15.734,3.208-23.372,6.875-32.406a122.744,122.744,0,0,0,30.093,2.99,106.74,106.74,0,0,0,21.211-2.75,47.823,47.823,0,0,1,1.222,5A47.5,47.5,0,0,1-256.714-11.846Z" transform="translate(460.206 69.178)" fill="#fec739"/>
          <path id="Path_3062" data-name="Path 3062" d="M-321.491-4.332c-.175-.436-.349-.894-.524-1.332a44.752,44.752,0,0,1-2.968-14.249c-.5-18.309,13.7-38.124,30.486-38.6,10.432-.284,28.348,8.031,34.436,28.3a106.739,106.739,0,0,1-21.211,2.75,122.744,122.744,0,0,1-30.093-2.99c-3.667,9.034-6.088,16.673-6.875,32.406A40.9,40.9,0,0,1-321.491-4.332Z" transform="translate(461.502 74.561)" fill="#313131"/>
          <path id="Path_3063" data-name="Path 3063" d="M-441.579,173.5s1.913,43.517,32.413,28.808a266.869,266.869,0,0,0,39.539-22.82,60.992,60.992,0,0,0,17.309,6.405c.452.107.918.205,1.384.3-.18-.293-.361-.585-.53-.885-2.085-3.6-2.925-5.752.4-7.686,3.049-1.78,15.065-1.773,23.851-1.527,1.049.019,2.053.049,2.989.085-6.785-8.184-15.3-16.654-25.557-16.216-31.788,1.319-54.463,5.6-75.371,13.961" transform="translate(498.685 22.73)" fill="#fec739"/>
          <path id="Path_3064" data-name="Path 3064" d="M-376.106,89.084s-.706,31.656-2.568,53.418" transform="translate(480.809 42.868)" fill="none" stroke="#313131" stroke-linecap="round" stroke-miterlimit="10" stroke-width="2"/>
          <path id="Path_3065" data-name="Path 3065" d="M-257.555-30.646s-10-32.993-37.991-29.993S-324.04-34.645-324.04-34.645-282.049-18.982-257.555-30.646Z" transform="translate(461.348 74.932)" fill="#ff8e9e"/>
          <path id="Path_3066" data-name="Path 3066" d="M-295.491-31.01s38.984,7.788,54.761-9.206c13.672-14.726,7.454-41.58-14.514-36.873S-261.669-41.352-295.491-31.01Z" transform="translate(456.754 77.636)" fill="#313131"/>
          <g id="Group_2206" data-name="Group 2206" transform="translate(151.74 84.571)">
            <path id="Path_3067" data-name="Path 3067" d="M-290.3,32.931c-.174,0-.347,0-.521-.005-6.2-.123-12.636-2.888-18.121-7.785a1.289,1.289,0,0,1-.1-1.82,1.291,1.291,0,0,1,1.82-.1c5.027,4.488,10.871,7.02,16.459,7.131A21.184,21.184,0,0,0-279.4,27.282a1.286,1.286,0,0,1,1.764.455,1.288,1.288,0,0,1-.455,1.764A23.8,23.8,0,0,1-290.3,32.931Z" transform="translate(309.376 -22.892)" fill="#313131"/>
          </g>
          <g id="Group_2207" data-name="Group 2207" transform="translate(223.251 92.634)">
            <path id="Path_3068" data-name="Path 3068" d="M-146.691,64.229a1.3,1.3,0,0,1-.641-.171c-21.4-12.3-41.43-21.259-61.237-27.382a1.289,1.289,0,0,1-.85-1.612,1.289,1.289,0,0,1,1.611-.85c19.992,6.179,40.193,15.21,61.76,27.609a1.289,1.289,0,0,1,.475,1.759A1.287,1.287,0,0,1-146.691,64.229Z" transform="translate(209.477 -34.156)" fill="#313131"/>
          </g>
          <g id="Group_2208" data-name="Group 2208" transform="translate(53.448 87.609)">
            <path id="Path_3069" data-name="Path 3069" d="M-445.4,135.928a1.3,1.3,0,0,1-1.288-1.356A214.051,214.051,0,0,1-433.98,71.746c7.26-20.292,23.61-35.821,43.735-41.538,4.036-1.147,8.082-2.17,12.027-3.04a1.285,1.285,0,0,1,1.536.981,1.29,1.29,0,0,1-.981,1.536c-3.895.859-7.891,1.869-11.878,3-19.327,5.491-35.033,20.417-42.013,39.928a211.584,211.584,0,0,0-12.561,62.092A1.288,1.288,0,0,1-445.4,135.928Z" transform="translate(446.69 -27.136)" fill="#313131"/>
          </g>
          <g id="Group_2209" data-name="Group 2209" transform="translate(155.573 55.496)">
            <path id="Path_3070" data-name="Path 3070" d="M-294.185,7.4c-3.825,0-8.087-3.711-8.087-9.036,0-4.245,2.24-8.873,7.246-9.642a16.853,16.853,0,0,1,2.592-.221A9.112,9.112,0,0,1-283.4-3.088,10.657,10.657,0,0,1-294.185,7.4Zm1.751-15.878a13.88,13.88,0,0,0-2.132.185c-3.237.5-4.685,3.7-4.685,6.657,0,4,3.248,6.015,5.066,6.015a7.631,7.631,0,0,0,7.765-7.47A6.068,6.068,0,0,0-292.434-8.476Z" transform="translate(302.272 11.497)" fill="#fff"/>
          </g>
          <g id="Group_2210" data-name="Group 2210" transform="translate(186.694 54.394)">
            <path id="Path_3071" data-name="Path 3071" d="M-256.478,5.105c-6.014,0-8.7-3.777-8.7-7.52,0-6.422,4.831-10.4,9.306-10.4.223,0,.45.008.675.027a7.07,7.07,0,0,1,4.071,1.411c2.713,2.17,3.82,4.083,3.82,6.6C-247.311,2.051-251.915,5.105-256.478,5.105Zm.6-14.9c-3.035,0-6.285,2.964-6.285,7.376,0,2.175,1.494,4.5,5.684,4.5,2.971,0,6.146-1.8,6.146-6.857,0-1.059-.208-2.259-2.687-4.242a4.219,4.219,0,0,0-2.435-.758C-255.6-9.786-255.737-9.79-255.877-9.79Z" transform="translate(265.183 12.811)" fill="#fff"/>
          </g>
          <g id="Group_2211" data-name="Group 2211" transform="translate(171.979 56.273)">
            <path id="Path_3072" data-name="Path 3072" d="M-281.211-3.759a1.5,1.5,0,0,1-.92-.314,1.509,1.509,0,0,1-.276-2.118c2.141-2.783,5.795-4.38,10.023-4.38a16.108,16.108,0,0,1,8.23,2.208,1.509,1.509,0,0,1,.494,2.078,1.508,1.508,0,0,1-2.078.5,13.007,13.007,0,0,0-6.646-1.76c-3.283,0-6.064,1.167-7.629,3.2A1.51,1.51,0,0,1-281.211-3.759Z" transform="translate(282.721 10.571)" fill="#fff"/>
          </g>
          <g id="Group_2212" data-name="Group 2212" transform="translate(135.475 44.852)">
            <path id="Path_3073" data-name="Path 3073" d="M-303.752-8.842a1.506,1.506,0,0,1-1.068-.442c-2.247-2.248-4.049-4.143-5.551-5.724-4.538-4.776-5.949-6.154-8.25-6.154a6.871,6.871,0,0,0-4.956,2.408,1.511,1.511,0,0,1-2.131.143,1.51,1.51,0,0,1-.143-2.131,9.833,9.833,0,0,1,7.23-3.44c3.7,0,5.812,2.223,10.441,7.095,1.487,1.564,3.271,3.443,5.5,5.669a1.51,1.51,0,0,1,0,2.135A1.5,1.5,0,0,1-303.752-8.842Z" transform="translate(326.224 24.183)" fill="#fff"/>
          </g>
          <path id="Path_3074" data-name="Path 3074" d="M-158.163,153.619h-116.47l10.806-61.286a11.69,11.69,0,0,1,11.513-9.66h92.729a11.69,11.69,0,0,1,11.513,13.72Z" transform="translate(451.244 44.69)" fill="#019e96"/>
          <path id="Path_3075" data-name="Path 3075" d="M-318.39,187.667a5.883,5.883,0,0,0,5.886,5.883l130.159-.077a11.527,11.527,0,0,0,11.33-9.435l.417-2.254h-141.91a5.883,5.883,0,0,0-5.883,5.883Z" transform="translate(463.678 16.525)" fill="#019e96"/>
          <g id="Group_2213" data-name="Group 2213" transform="translate(232.526 157.213)">
            <path id="Path_3076" data-name="Path 3076" d="M-177.722,135.128h-13.639c.107,2.246,1.775,3.619,4.523,3.619A7.211,7.211,0,0,0-182.007,137l2.25,3.016a11.175,11.175,0,0,1-7.954,2.915c-6.233,0-9.6-3.919-8.651-9.281a11.379,11.379,0,0,1,11.254-9.281c5.295,0,8.757,3.551,7.735,9.348C-177.445,134.124-177.611,134.693-177.722,135.128Zm-13.168-3.049h8.881a3.475,3.475,0,0,0-3.762-3.753A5.3,5.3,0,0,0-190.891,132.08Z" transform="translate(196.52 -124.373)" fill="#fff"/>
            <path id="Path_3077" data-name="Path 3077" d="M-168.166,144.441a3.872,3.872,0,0,1,3.818-3.217,2.561,2.561,0,0,1,2.683,3.217,3.972,3.972,0,0,1-3.829,3.283A2.619,2.619,0,0,1-168.166,144.441Z" transform="translate(188.479 -129.162)" fill="#fff"/>
          </g>
        </g>
        <circle id="Ellipse_620" data-name="Ellipse 620" cx="3.618" cy="3.618" r="3.618" transform="translate(412.384 730.775)" fill="#313131"/>
        <ellipse id="Ellipse_619" data-name="Ellipse 619" cx="3.618" cy="3.618" rx="3.618" ry="3.618" transform="translate(443.599 729.316)" fill="#313131"/>
        <path id="Path_4175" data-name="Path 4175" d="M4507.744,2475.281l1.1,16.622.155,2.351c.066,1-1.016,1.688-1.884,1.682l-4.349-.029c-2.3-.016-2.091-3.581.2-3.566l4.348.029-1.883,1.682-1.1-16.622-.155-2.351a1.8,1.8,0,0,1,1.884-1.682,1.83,1.83,0,0,1,1.682,1.884Z" transform="translate(-4073.457 -1748.748)" fill="#313131"/>
        <path id="Path_4176" data-name="Path 4176" d="M4498.917,2537.573c4.037,1.417,9.261,1.966,12.642-1.13a1.789,1.789,0,0,0-.208-2.517,1.841,1.841,0,0,0-2.517.208c.391-.358-.008-.011-.1.056-.12.09-.245.173-.372.252-.312.191-.088-.028.013.006-.055-.019-.345.161-.408.187a6.756,6.756,0,0,1-.747.259c-.487.138.208-.026-.1.031-.112.021-.225.044-.337.063a10.821,10.821,0,0,1-1.718.135,2.226,2.226,0,0,0-.456-.007c.2-.049.339.018.028,0q-.413-.026-.823-.073a19.384,19.384,0,0,1-2.657-.5c-.276-.071-.549-.151-.823-.232-.315-.092.549.18.2.064l-.088-.03a1.831,1.831,0,0,0-2.38.848,1.807,1.807,0,0,0,.848,2.38Z" transform="translate(-4075.322 -1783.354)" fill="#313131"/>
      </g>
    </g>
  </g>
</svg>
