<?xml version="1.0" encoding="utf-8"?>
<!-- Generator: Adobe Illustrator 25.2.3, SVG Export Plug-In . SVG Version: 6.00 Build 0)  -->
<svg version="1.1" id="圖層_1" xmlns="http://www.w3.org/2000/svg" xmlns:xlink="http://www.w3.org/1999/xlink" x="0px" y="0px"
	 viewBox="0 0 141.7 141.7" style="enable-background:new 0 0 141.7 141.7;" xml:space="preserve">
<style type="text/css">
	.st0{fill:#FEC739;}
	.st1{clip-path:url(#SVGID_2_);}
	.st2{fill:#019E96;}
	.st3{fill:#E68C8C;}
	.st4{font-family:'Montserrat-Bold';}
	.st5{font-size:15px;}
</style>
<g id="Group_3306" transform="translate(-169 -1492.472)">
	<g id="Group_2335" transform="translate(-1207.462 624.928)">
		<path id="Path_3347" class="st0" d="M1403.7,979c0,0,13.9-28.6,11.7-53.6c32.1-7.9,42.9-8.5,42.9-8.5l14.9,4.4l-27.7,64.5"/>
		<path id="Path_3348" class="st0" d="M1488,978.8c0,0-17.4-28.4-15.2-53.3c-32.1-7.9-42.9-8.5-42.9-8.5l-14.9,4.4l27.7,64.5"/>
		<ellipse id="Ellipse_325" cx="1445.9" cy="980.4" rx="42.2" ry="14.1"/>
		<circle id="Ellipse_326" class="st0" cx="1444.1" cy="921.4" r="29"/>
		<g id="Group_2333">
			<g>
				<defs>
					<path id="SVGID_1_" d="M1433.9,966.9c0,0,14-1.2,20.4-0.3c4,10.8,2.6,12.7,2.6,12.7l-7.2,9.8l-12.1-0.9l-7.5-9.9L1433.9,966.9z
						"/>
				</defs>
				<clipPath id="SVGID_2_">
					<use xlink:href="#SVGID_1_"  style="overflow:visible;"/>
				</clipPath>
				<g id="Group_2332" class="st1">
					<circle id="Ellipse_327" class="st2" cx="1444.1" cy="971.5" r="12"/>
				</g>
			</g>
		</g>
		<circle id="Ellipse_328" class="st0" cx="1443.9" cy="889.2" r="6.9"/>
		<path id="Path_3350" class="st0" d="M1409.5,943.5c-7.7-0.8-13.3-7.6-12.8-15.3c0.7-7.9,7.6-13.1,15.3-12.8c1.9,0.1,1.9-2.9,0-3
			c-9.3-0.4-17.6,6.2-18.3,15.8c-0.7,9.6,6.5,17.1,15.8,18.3C1411.4,946.7,1411.4,943.7,1409.5,943.5z"/>
		<path id="Path_3351" class="st0" d="M1405.9,953.8c-12.9-1.3-22.4-12.6-21.5-25.5c1.1-13.1,12.7-22.2,25.5-21.5
			c1.9,0.1,1.9-2.9,0-3c-14.5-0.8-27.4,9.8-28.5,24.5c-1.1,14.8,10.1,27,24.5,28.5C1407.9,957,1407.8,954,1405.9,953.8z"/>
		<path id="Path_3352" class="st0" d="M1478.2,946.5c9.2-1.1,16.5-8.7,15.8-18.3c-0.7-9.5-9-16.1-18.3-15.8c-1.9,0.1-1.9,3.1,0,3
			c7.6-0.3,14.6,4.8,15.3,12.8c0.6,7.7-5.1,14.5-12.8,15.3C1476.3,943.7,1476.2,946.7,1478.2,946.5z"/>
		<path id="Path_3353" class="st0" d="M1481.7,956.8c14.4-1.6,25.6-13.8,24.5-28.5c-1.1-14.7-14.1-25.3-28.5-24.5
			c-1.9,0.1-1.9,3.1,0,3c12.8-0.7,24.4,8.4,25.5,21.5c1.1,13-8.7,24.2-21.5,25.5C1479.8,954,1479.8,957,1481.7,956.8z"/>
	</g>
	<circle id="Ellipse_624" class="st3" cx="299.4" cy="1596.3" r="12.5"/>
	<circle id="Ellipse_625" class="st3" cx="260.4" cy="1523.3" r="12.5"/>
	<circle id="Ellipse_626" class="st3" cx="180.4" cy="1575.3" r="12.5"/>
	<text transform="matrix(1 0 0 1 253.3661 1528.8381)" class="st4 st5">€</text>
	<text transform="matrix(1 0 0 1 293.3661 1601.8381)" class="st4 st5">¥</text>
	<text transform="matrix(1 0 0 1 175.3661 1580.6791)" class="st4 st5">$</text>
</g>
</svg>
