<?xml version="1.0" encoding="utf-8"?>
<!-- Generator: Adobe Illustrator 25.2.3, SVG Export Plug-In . SVG Version: 6.00 Build 0)  -->
<svg version="1.1" id="圖層_1" xmlns="http://www.w3.org/2000/svg" xmlns:xlink="http://www.w3.org/1999/xlink" x="0px" y="0px"
	 viewBox="0 0 212.6 187.1" style="enable-background:new 0 0 212.6 187.1;" xml:space="preserve">
<style type="text/css">
	.st0{fill:#FCF4D7;}
	.st1{fill:#FF957C;}
	.st2{fill:#313131;}
	.st3{fill:#019E96;}
	.st4{fill:none;stroke:#FFFFFF;stroke-width:2;stroke-linecap:round;stroke-miterlimit:10;}
	.st5{fill:#FFC517;}
</style>
<g id="Scroll_Group_29" transform="translate(2060 -2264)">
	
		<ellipse id="Ellipse_759" transform="matrix(0.2924 -0.9563 0.9563 0.2924 -3637.2405 -200.2089)" class="st0" cx="-1953.9" cy="2357.6" rx="81.5" ry="106.5"/>
</g>
<g id="Group_3300" transform="translate(1066.786 -5215)">
	<g id="Group_2303" transform="translate(136.117 2255.87)">
		<path id="Path_3135" class="st1" d="M-1025.8,3078.1l6.6-23.2l-17.2-6.6l-24.9,43.7l16.6,11.1L-1025.8,3078.1z"/>
		<path id="Path_3136" class="st2" d="M-1142.2,2991.4l-33.7,54.1c-2.8,4.5-1.4,10.4,3.1,13.3c0.1,0.1,0.2,0.1,0.4,0.2l103.8,58.4
			c4.6,2.6,10.5,1,13.1-3.6l32.8-57.7c2.6-4.6,1-10.5-3.6-13.1c-0.1,0-0.2-0.1-0.2-0.1l-102.9-54.9
			C-1134,2985.7-1139.5,2987.2-1142.2,2991.4z"/>
		<path id="Path_3137" class="st3" d="M-1139.5,2987.1l-33.7,54.1c-2.8,4.5-1.4,10.4,3.1,13.3c0.1,0.1,0.2,0.1,0.4,0.2l103.8,58.4
			c4.6,2.6,10.5,1,13.1-3.6l32.8-57.6c2.6-4.6,1-10.5-3.6-13.1c-0.1,0-0.2-0.1-0.2-0.1l-102.9-54.9
			C-1131.3,2981.3-1136.8,2982.8-1139.5,2987.1z"/>
		<path id="Path_3138" class="st1" d="M-1142.6,3110.2c1.1,15.5,24.9,21.6,46.5,22.1c21.6,0.6,55.9-9.4,68.1-33.8l12.2-24.4
			l-12.7-7.2l-20.5,27.1l-2.8-6.1l-34.5-2.5c-17.2-1.2-34.2,4.6-46.9,16.2L-1142.6,3110.2z"/>
		<path id="Path_3139" class="st4" d="M-1049,3094.2c0,0-16.5,22.3-50.4,14.9"/>
	</g>
	<g id="Group_2878" transform="translate(1105.203 2996.039) rotate(30)">
		<path id="Path_4269" class="st5" d="M-628.5,3015.4l-27.6,18.2l2.5,0.7l1.9,0.6c0,0,0,0,0,0l8.2,2.4l1.2,0.4l19.1-14.3l0,0
			l4.8-3.6l1.7-1.2l0.4-0.3l-11.5-3C-628,3015.2-628.3,3015.3-628.5,3015.4z"/>
		<path id="Path_4270" class="st5" d="M-641.9,3052.3l-0.1-1.4l-0.1-1.4l-0.3-3.6l-0.3-3.9l-0.2-2.3l-9.3-2.7c0,0,0,0,0,0l-3.3-1
			l-0.7-0.2l-1.3-0.4l-6.3,10.2c-0.2,0.3-0.2,0.6-0.1,0.9c0.1,0.3,0.4,0.5,0.7,0.6l21.3,6L-641.9,3052.3L-641.9,3052.3z"/>
		<path id="Path_4271" class="st5" d="M-607.9,3026.6c0-0.3-0.1-0.6-0.3-0.8l-6.2-6.4l-0.9,0.7l-0.7,0.5l-5.8,4.4l-19.1,14.3
			l0.5,6.3l0.4,4.6l0.1,1.9v0.1l0,0.5l31.6-25.4C-608.1,3027.1-608,3026.9-607.9,3026.6z"/>
		<path id="Path_4272" class="st5" d="M-634.8,3006.8c0,0.1,0.1,0.1,0.2,0.2c0.1,0.1,0.1,0.1,0.2,0.2h0l0.1,0.1
			c0.1,0,0.2,0.1,0.3,0.1c3,0,4,4.2,4,4.2c0,0.1,0,0.1,0,0.1c0,0,0,0.1,0,0.1c0,0.1,0.1,0.2,0.2,0.2c0,0.1,0.1,0.1,0.1,0.1
			c0.3,0.3,0.8,0.3,1.1,0c0.1,0,0.1-0.1,0.2-0.1c0.1-0.1,0.1-0.1,0.2-0.2c0,0,0-0.1,0-0.1c0,0,0-0.1,0-0.1c0,0,1-4.2,4-4.2
			c0.1,0,0.2,0,0.3-0.1l0.1-0.1h0c0.1,0,0.1-0.1,0.2-0.2c0.1-0.1,0.1-0.1,0.2-0.2c0-0.1,0.1-0.2,0.1-0.2c0-0.1,0-0.2,0-0.2
			c0,0,0,0,0-0.1c0-0.1,0-0.1,0-0.2c0,0,0-0.1,0-0.1c0,0,0,0,0,0c0-0.1,0-0.1-0.1-0.2c-0.2-0.3-0.5-0.4-0.8-0.4c-3,0-4-4.2-4-4.2
			c0-0.2-0.2-0.4-0.3-0.5c0,0-0.1-0.1-0.1-0.1c-0.3-0.2-0.7-0.2-1,0c0,0-0.1,0.1-0.1,0.1c0,0-0.1,0.1-0.1,0.1
			c-0.1,0.1-0.2,0.3-0.2,0.4c0,0-1,4.2-4,4.2c-0.3,0-0.6,0.2-0.8,0.4c0,0.1-0.1,0.1-0.1,0.2c0,0,0,0,0,0c0,0,0,0.1,0,0.1
			c0,0.1,0,0.1,0,0.2c0,0,0,0,0,0.1c0,0.1,0,0.2,0,0.2C-634.9,3006.6-634.8,3006.7-634.8,3006.8z"/>
		<path id="Path_4273" class="st5" d="M-663.8,3021.8c0,0.1,0.1,0.1,0.2,0.2c0.1,0.1,0.1,0.1,0.2,0.2h0l0.1,0.1h0
			c0.1,0,0.2,0.1,0.3,0.1c3,0,4,4.2,4,4.2c0,0.1,0,0.1,0,0.1c0,0,0,0.1,0,0.1c0,0.1,0.1,0.2,0.2,0.2c0,0.1,0.1,0.1,0.1,0.1
			c0.3,0.3,0.8,0.3,1.1,0c0.1,0,0.1-0.1,0.2-0.1c0.1-0.1,0.1-0.1,0.2-0.2c0,0,0-0.1,0-0.1c0,0,0-0.1,0.1-0.1c0,0,1-4.2,4-4.2
			c0.1,0,0.2,0,0.3-0.1h0l0.1-0.1h0c0.1,0,0.1-0.1,0.2-0.2c0.1-0.1,0.1-0.1,0.2-0.2c0-0.1,0.1-0.2,0.1-0.2c0-0.1,0-0.2,0-0.2
			c0,0,0,0,0-0.1c0-0.1,0-0.1,0-0.2c0,0,0-0.1,0-0.1c0,0,0,0,0,0c0-0.1,0-0.1-0.1-0.2c-0.2-0.3-0.5-0.4-0.8-0.4c-3,0-4-4.2-4-4.2
			c0-0.2-0.1-0.3-0.2-0.4c0,0-0.1-0.1-0.1-0.1c0,0-0.1-0.1-0.1-0.1c-0.3-0.2-0.7-0.2-1,0c0,0-0.1,0.1-0.1,0.1c0,0-0.1,0.1-0.1,0.1
			c-0.1,0.1-0.2,0.3-0.2,0.4c0,0-1,4.2-4,4.2c-0.3,0-0.6,0.2-0.8,0.4c0,0.1-0.1,0.1-0.1,0.2c0,0,0,0,0,0c0,0,0,0.1,0,0.1
			c0,0.1,0,0.1,0,0.2c0,0,0,0,0,0.1c0,0.1,0,0.2,0,0.2C-663.9,3021.6-663.8,3021.7-663.8,3021.8z"/>
		<path id="Path_4274" class="st5" d="M-608,3043c0,0,0-0.1,0-0.1c0,0,0,0,0,0c0-0.1,0-0.1-0.1-0.2c-0.2-0.3-0.5-0.4-0.8-0.4
			c-3,0-4-4.2-4-4.2c0-0.2-0.1-0.3-0.2-0.4c0,0-0.1-0.1-0.1-0.1c0,0-0.1-0.1-0.1-0.1c-0.3-0.2-0.7-0.2-1,0c0,0-0.1,0.1-0.1,0.1
			c0,0-0.1,0.1-0.1,0.1c-0.1,0.1-0.2,0.3-0.2,0.4c0,0-1,4.2-4,4.2c-0.3,0-0.6,0.2-0.8,0.4c0,0.1-0.1,0.1-0.1,0.2c0,0,0,0,0,0
			c0,0,0,0.1,0,0.1c0,0.1,0,0.1,0,0.2c0,0,0,0,0,0.1c0,0.1,0,0.2,0,0.2c0,0.1,0.1,0.2,0.1,0.2c0,0.1,0.1,0.1,0.2,0.2
			c0.1,0.1,0.1,0.1,0.2,0.2h0l0.1,0.1h0c0.1,0,0.2,0.1,0.3,0.1c3,0,4,4.2,4,4.2c0,0.1,0,0.1,0,0.1c0,0,0,0.1,0,0.1
			c0,0.1,0.1,0.2,0.2,0.2c0,0.1,0.1,0.1,0.1,0.1c0.3,0.3,0.8,0.3,1.1,0c0.1,0,0.1-0.1,0.2-0.1c0.1-0.1,0.1-0.1,0.2-0.2
			c0,0,0-0.1,0-0.1c0,0,0-0.1,0-0.1c0,0,1-4.2,4-4.2c0.1,0,0.2,0,0.3-0.1h0l0.1-0.1h0c0.1,0,0.1-0.1,0.2-0.2
			c0.1-0.1,0.1-0.1,0.2-0.2c0-0.1,0.1-0.2,0.1-0.2c0-0.1,0-0.2,0-0.2c0,0,0,0,0-0.1C-607.9,3043.2-607.9,3043.1-608,3043z"/>
	</g>
</g>
</svg>
