<svg xmlns="http://www.w3.org/2000/svg" width="563.059" height="474.328" viewBox="0 0 563.059 474.328">
  <g id="Group_3299" data-name="Group 3299" transform="translate(7785.229 5098.283)">
    <g id="Group_3298" data-name="Group 3298">
      <g id="Group_3295" data-name="Group 3295" transform="translate(-6056.61 -5951.257)">
        <g id="shadow" transform="translate(-1672.917 1293.552)">
          <ellipse id="Ellipse_243" data-name="Ellipse 243" cx="175.716" cy="16.875" rx="175.716" ry="16.875" fill="#f88"/>
        </g>
        <g id="back_line" data-name="back line" transform="translate(-1457.903 859.707)">
          <g id="Group_1640" data-name="Group 1640">
            <g id="Group_1629" data-name="Group 1629">
              <path id="Path_2260" data-name="Path 2260" d="M-1571.822,1024.168c-33.786,0-50.917-13.007-50.917-38.659,0-11.83,2.938-23.183,6.049-35.2l.511-1.982c2.951-11.434,5-23.444,6.985-35.059,5.282-30.938,9.844-57.659,29.056-57.659,32.592,0,51.451,93.649,51.737,111.851.021,1.383.054,2.764.087,4.152.056,2.391.113,4.792.113,7.215,0,15.085-4.891,27.271-14.142,35.21A45.057,45.057,0,0,1-1571.822,1024.168Zm-8.315-166.1c-17.13,0-21.531,25.77-26.626,55.611-1.992,11.664-4.053,23.727-7.029,35.261l-.511,1.984c-3.068,11.864-5.973,23.068-5.973,34.586,0,24.016,16.3,36.195,48.455,36.195,19.9,0,41.165-11.265,41.165-42.881,0-2.406-.056-4.786-.113-7.159-.033-1.394-.067-2.782-.089-4.17-.345-21.9-20.135-109.427-49.28-109.427Z" transform="translate(1622.739 -855.607)" fill="#313131"/>
            </g>
            <g id="Group_1630" data-name="Group 1630" transform="translate(39.611 17.617)">
              <path id="Path_2261" data-name="Path 2261" d="M-1597.987,1115.318a1.234,1.234,0,0,1-1.235-1.232v-.008c.192-28.279.45-66.989.45-67.9,0-5.19-.215-10.483-.424-15.6s-.424-10.457-.424-15.694c0-2.188.038-4.214.112-6.19.166-4.362.256-8.624.256-12.677a185.783,185.783,0,0,0-3.2-34.711,172.663,172.663,0,0,1-2.618-21.378c-.606-12.1-.57-19.928-.532-28.212.054-11.488.107-23.369-1.642-47.859a1.232,1.232,0,0,1,1.1-1.353,1.23,1.23,0,0,1,1.353,1.1l.005.082c1.756,24.581,1.7,36.509,1.649,48.045-.038,8.251-.074,16.044.529,28.076a169.629,169.629,0,0,0,2.585,21.094,187.745,187.745,0,0,1,3.229,35.121c0,4.091-.084,8.378-.255,12.769-.074,1.943-.11,3.94-.11,6.1,0,5.188.215,10.483.425,15.6s.424,10.458.424,15.7c0,.918-.256,39.631-.45,67.919A1.23,1.23,0,0,1-1597.987,1115.318Z" transform="translate(1607.246 -862.497)" fill="#313131"/>
            </g>
            <g id="Group_1631" data-name="Group 1631" transform="translate(48.142 288.089)">
              <path id="Path_2262" data-name="Path 2262" d="M-1602.023,1065.424a1.238,1.238,0,0,1-1.232-1.238v-2.651c0-8.548-.348-84.36-.655-92a1.232,1.232,0,0,1,1.209-1.255,1.23,1.23,0,0,1,1.253,1.156c.307,7.67.657,83.5.657,92.1v2.667A1.231,1.231,0,0,1-1602.023,1065.424Z" transform="translate(1603.91 -968.282)" fill="#313131"/>
            </g>
            <g id="Group_1633" data-name="Group 1633" transform="translate(25.609 50.579)">
              <path id="Path_2264" data-name="Path 2264" d="M-1595.853,894.99a1.226,1.226,0,0,1-.4-.064c-10.227-3.441-12.528-8.849-16.036-17.034l-.039-.092a1.233,1.233,0,0,1-.4-.905v-.274a1.233,1.233,0,0,1,1.232-1.232,1.236,1.236,0,0,1,1.135.747l.335.788c3.467,8.11,5.369,12.577,14.559,15.668a1.23,1.23,0,0,1,.767,1.565,1.232,1.232,0,0,1-1.161.833Z" transform="translate(1612.723 -875.389)" fill="#313131"/>
            </g>
            <g id="Group_1634" data-name="Group 1634" transform="translate(18.232 81.464)">
              <path id="Path_2265" data-name="Path 2265" d="M-1589.659,914.383a1.274,1.274,0,0,1-.4-.066,43.261,43.261,0,0,1-25.463-25.164,1.237,1.237,0,0,1,.7-1.6,1.238,1.238,0,0,1,1.6.7h0a40.776,40.776,0,0,0,23.978,23.735,1.235,1.235,0,0,1,.757,1.57,1.234,1.234,0,0,1-1.158.826Z" transform="translate(1615.608 -887.468)" fill="#313131"/>
            </g>
            <g id="Group_1635" data-name="Group 1635" transform="translate(9.228 104.998)">
              <path id="Path_2266" data-name="Path 2266" d="M-1583.539,925.667c-21.377,0-29.948-13.807-35.509-27.325a1.232,1.232,0,0,1,.714-1.59,1.235,1.235,0,0,1,1.564.652c5.518,13.4,13.362,25.8,33.239,25.8.78,0,1.563-.013,2.342-.028h.79a1.234,1.234,0,0,1,1.3,1.158,1.233,1.233,0,0,1-1.161,1.3c-.033,0-.069,0-.1,0l-.785.013C-1581.954,925.655-1582.744,925.667-1583.539,925.667Z" transform="translate(1619.13 -896.673)" fill="#313131"/>
            </g>
            <g id="Group_1636" data-name="Group 1636" transform="translate(47.521 112.844)">
              <path id="Path_2267" data-name="Path 2267" d="M-1602.926,933.235a1.231,1.231,0,0,1-1.228-1.238,1.232,1.232,0,0,1,.9-1.181c14.939-4.117,21.879-18.652,25.059-30.122a1.233,1.233,0,0,1,1.48-.92,1.233,1.233,0,0,1,.918,1.483c-.008.033-.015.064-.026.1-3.357,12.084-10.739,27.417-26.78,31.837A1.261,1.261,0,0,1-1602.926,933.235Z" transform="translate(1604.153 -899.741)" fill="#313131"/>
            </g>
            <g id="Group_1637" data-name="Group 1637" transform="translate(41.584 71.082)">
              <path id="Path_2268" data-name="Path 2268" d="M-1605.245,904.2a1.23,1.23,0,0,1-1.23-1.232,1.233,1.233,0,0,1,.946-1.2c10.877-2.575,20.242-13.068,20.242-17.131a1.235,1.235,0,0,1,1.24-1.227,1.234,1.234,0,0,1,1.225,1.227c0,5.975-11.156,16.928-22.14,19.529A1.169,1.169,0,0,1-1605.245,904.2Z" transform="translate(1606.475 -883.408)" fill="#313131"/>
            </g>
            <g id="Group_1638" data-name="Group 1638" transform="translate(41.196 37.78)">
              <path id="Path_2269" data-name="Path 2269" d="M-1605.4,885.593a1.235,1.235,0,0,1-1.23-1.235,1.236,1.236,0,0,1,1.022-1.212,15.968,15.968,0,0,0,12.915-10.7c.256-.6.483-1.1.69-1.47a1.232,1.232,0,0,1,1.693-.417,1.231,1.231,0,0,1,.46,1.613c-.177.317-.363.749-.585,1.261a18.378,18.378,0,0,1-14.758,12.14A1.084,1.084,0,0,1-1605.4,885.593Z" transform="translate(1606.627 -870.383)" fill="#313131"/>
            </g>
            <g id="Group_1639" data-name="Group 1639" transform="translate(44.767 100.023)">
              <path id="Path_2270" data-name="Path 2270" d="M-1604.013,914.3a1.231,1.231,0,0,1-1.217-1.245,1.233,1.233,0,0,1,1.153-1.217c8.01-.43,13.3-8.992,17-16.4a1.233,1.233,0,0,1,1.644-.583,1.233,1.233,0,0,1,.583,1.641l-.023.043C-1588.889,904.543-1594.673,913.8-1604.013,914.3Z" transform="translate(1605.23 -894.727)" fill="#313131"/>
            </g>
          </g>
          <g id="Group_1641" data-name="Group 1641" transform="translate(25.742 383.726)">
            <path id="Path_2271" data-name="Path 2271" d="M-1528.071,1008.695l-3.49-.033c-29.444-.276-55.575-.445-79.883-.511a1.234,1.234,0,0,1-1.228-1.235,1.2,1.2,0,0,1,1.167-1.227.316.316,0,0,1,.071,0c24.313.066,50.444.235,79.9.511l3.475.033a1.231,1.231,0,0,1,1.227,1.237,1.234,1.234,0,0,1-1.227,1.227Z" transform="translate(1612.671 -1005.686)" fill="#313131"/>
          </g>
        </g>
        <path id="Path_2272" data-name="Path 2272" d="M-1649.875,1045.6c-10.053-.606-20.056-.693-27.5-.481q-6.324.184-12.6.639a205.022,205.022,0,0,1,12.273-64.547,61.827,61.827,0,0,1,40.991-38.938q8.729-2.481,17.351-4.091c1.5,22.1,16.658,39.347,43.671,38.565,21.142-.588,34.22-16.318,41.3-34.579a287.038,287.038,0,0,1,69.581,30.557v.018a123.052,123.052,0,0,1-16.8,40.929c-12.272-5.231-24.545-10.925-38.582-17.8-4.4,37.531,30.96,97.814,40.625,127.071-14.085,9.343-60.51.038-75.894,7.034-15.08,6.85-31.771-.5-48.332-.754-5.392-.074-12.764-.378-19.258-.378-5.428,0-10.483-4.745-15.911-4.638-1.833-7.99-3.222-16.141-4.449-24.328,26.391-4.628,52.018-14.487,85.011-33.047,10.66-5.98,13.971-19.879,15.714-32.407-.925.624-1.923,1.278-2.971,1.956-.462-8.31-.818-16.479-1.316-24.7a5.181,5.181,0,0,0-.089-.767,7.762,7.762,0,0,0-8.133-6.745c-5.837.481-11.639,1.023-17.476,1.639a7.882,7.882,0,0,0-6.8,8.632l.212,2.6,2.063,25.146a72.583,72.583,0,0,0-13.508,17.315,273.36,273.36,0,0,0-54.294,1.654,4.966,4.966,0,0,1-5.449-4.431,5.036,5.036,0,0,1-.015-.836C-1650.3,1052.431-1650.108,1049.012-1649.875,1045.6Z" transform="translate(60.168 132.65)" fill="#fff"/>
        <path id="Path_2275" data-name="Path 2275" d="M-1542.717,1035.108a11.441,11.441,0,0,1-6.569.8,522.378,522.378,0,0,1-60.182-14.3,123.066,123.066,0,0,0,18.9-40c12.217,5.569,24.116,11.455,37.476,18.534.639.335,1.26.68,1.907,1.01a10.563,10.563,0,0,0,11.39-1.146,263.906,263.906,0,0,1,63.721-37.81l.016-.013c5.244-2.306,10.94-4.671,17.184-7.254a62.149,62.149,0,0,1,8.389-22.405,80.58,80.58,0,0,0,6.663,10.71c4.05,4.712,13.733.21,22.505-5.413-5.021,6.535-9.8,12.6-14.471,18.248-18.959,22.97-35.967,39.314-58.265,53.716A338.714,338.714,0,0,1-1542.717,1035.108Z" transform="translate(185.497 123.852)" fill="#fec739"/>
        <path id="Path_2279" data-name="Path 2279" d="M-1577.378,950.965c-7.082,18.258-20.163,33.99-41.3,34.578-27.013.782-42.187-16.461-43.671-38.565,4.076-.767,8.151-1.388,12.191-1.887v.018l.161-.036c-.054,0-.107.018-.161.018.961-4.04,1.71-8.363,2.3-12.564a33.8,33.8,0,0,0,2.651,5.114c5.234,8.364,13.953,14.574,22.94,14.753a23.083,23.083,0,0,0,16.711-7.118A201.457,201.457,0,0,1-1577.378,950.965Z" transform="translate(103.166 123.852)" fill="#fec739"/>
        <path id="Path_2281" data-name="Path 2281" d="M-1598.708,934.447A38.588,38.588,0,0,1-1610,962.217a27.576,27.576,0,0,1-19.946,8.5c-10.726-.215-21.132-7.63-27.378-17.609a83.915,83.915,0,0,1,6.688-31.541,119.575,119.575,0,0,0,29.3,2.912,103.993,103.993,0,0,0,20.644-2.677,47.073,47.073,0,0,1,2,12.638Z" transform="translate(110.995 106.781)" fill="#fec739"/>
        <path id="Path_2282" data-name="Path 2282" d="M-1656.485,963.629c-.171-.425-.34-.869-.509-1.3a43.509,43.509,0,0,1-2.892-13.871c-.488-17.821,13.339-37.107,29.672-37.575,10.153-.273,27.591,7.816,33.515,27.547a103.8,103.8,0,0,1-20.644,2.677,119.456,119.456,0,0,1-29.3-2.912,83.919,83.919,0,0,0-6.688,31.543A39.878,39.878,0,0,1-1656.485,963.629Z" transform="translate(106.987 90.151)" fill="#313131"/>
        <path id="Path_2283" data-name="Path 2283" d="M-1644.294,1005.558l-2.421-30.426s-.3-8.07,4.894-9.13a111.855,111.855,0,0,1,21.316-1.956,9.661,9.661,0,0,1,6.277,8.552c.6,5.114,1.517,16.854,1.616,25.313a28.268,28.268,0,0,1-23,14.83C-1639.309,1011.523-1644.294,1005.558-1644.294,1005.558Z" transform="translate(127.503 172.918)" fill="#ff8e9e"/>
        <path id="Path_2284" data-name="Path 2284" d="M-1545.595,977.783c1.051-.675,2.045-1.334,2.971-1.956-1.744,12.528-5.055,26.427-15.714,32.408-32.983,18.56-58.62,28.419-85.012,33.047a239.445,239.445,0,0,1-35.11,3.344,8.715,8.715,0,0,1-8.667-7.811,318.751,318.751,0,0,1-2.8-49.669q6.275-.453,12.6-.639c7.438-.212,17.44-.125,27.5.48-.233,3.416-.427,6.834-.57,10.3a4.969,4.969,0,0,0,4.628,5.282,5.053,5.053,0,0,0,.836-.015,273.384,273.384,0,0,1,54.294-1.654,72.626,72.626,0,0,1,13.507-17.315c.392-.391.8-.782,1.209-1.176,0,.409,0,.818.021,1.227.144,4.948.639,7.653,5.213,7.527C-1566.492,991.06-1554.336,983.533-1545.595,977.783Z" transform="translate(60.122 191.261)" fill="#fec739"/>
        <g id="lineart" transform="translate(-1630.831 1035.677)">
          <g id="Group_1642" data-name="Group 1642" transform="translate(93.921 32.189)">
            <path id="Path_2285" data-name="Path 2285" d="M-1635.37,946.648h-.5a27.34,27.34,0,0,1-17.323-7.443,1.236,1.236,0,0,1-.168-1.736,1.235,1.235,0,0,1,1.736-.169l.072.066a24.893,24.893,0,0,0,15.735,6.817,20.242,20.242,0,0,0,10.872-2.933,1.233,1.233,0,0,1,1.672.5,1.234,1.234,0,0,1-.422,1.626A22.753,22.753,0,0,1-1635.37,946.648Z" transform="translate(1653.64 -937.02)" fill="#313131"/>
          </g>
          <g id="Group_1645" data-name="Group 1645" transform="translate(162.368 39.942)">
            <path id="Path_2288" data-name="Path 2288" d="M-1566.9,968.784a1.236,1.236,0,0,1-.613-.164,287.4,287.4,0,0,0-58.539-26.174,1.233,1.233,0,0,1-.744-1.575,1.229,1.229,0,0,1,1.473-.777,289.955,289.955,0,0,1,59.04,26.392,1.231,1.231,0,0,1,.455,1.682,1.234,1.234,0,0,1-1.072.619Z" transform="translate(1626.87 -940.053)" fill="#313131"/>
          </g>
          <g id="Group_1646" data-name="Group 1646" transform="translate(40.19 93.881)">
            <path id="Path_2289" data-name="Path 2289" d="M-1673.421,1006.873h-.1a1.232,1.232,0,0,1-1.13-1.322v0c.987-12.552,2.664-25.918,5.433-43.346a1.232,1.232,0,0,1,1.4-1.041,1.23,1.23,0,0,1,1.041,1.4l-.005.031c-2.759,17.361-4.428,30.669-5.41,43.151A1.231,1.231,0,0,1-1673.421,1006.873Z" transform="translate(1674.654 -961.149)" fill="#313131"/>
          </g>
          <g id="Group_1647" data-name="Group 1647" transform="translate(0 35.13)">
            <path id="Path_2290" data-name="Path 2290" d="M-1689.143,1042.16a1.247,1.247,0,0,1-1.23-1.26v-.036a204.678,204.678,0,0,1,12.147-60.057,63.157,63.157,0,0,1,41.807-39.708c3.858-1.1,7.727-2.073,11.506-2.907a1.231,1.231,0,0,1,1.437.987,1.234,1.234,0,0,1-.908,1.419c-3.723.821-7.543,1.79-11.355,2.869a60.689,60.689,0,0,0-40.163,38.168,202.326,202.326,0,0,0-12.017,59.354A1.232,1.232,0,0,1-1689.143,1042.16Z" transform="translate(1690.373 -938.171)" fill="#313131"/>
          </g>
          <g id="Group_1648" data-name="Group 1648" transform="translate(46.372 195.666)">
            <path id="Path_2291" data-name="Path 2291" d="M-1667.239,1024.66a1.234,1.234,0,0,1-1.2-.974c-1.314-6.136-2.518-12.907-3.784-21.344a1.233,1.233,0,0,1,1.074-1.373,1.227,1.227,0,0,1,1.363,1.007c1.258,8.386,2.452,15.121,3.756,21.194a1.231,1.231,0,0,1-.946,1.462A1.238,1.238,0,0,1-1667.239,1024.66Z" transform="translate(1672.236 -1000.958)" fill="#313131"/>
          </g>
          <g id="Group_1649" data-name="Group 1649" transform="translate(110.262 99.916)">
            <path id="Path_2292" data-name="Path 2292" d="M-1643.969,1000.608a1.233,1.233,0,0,1-1.228-1.13l-2-24.356a9.059,9.059,0,0,1,7.893-9.956c5.5-.588,11.225-1.122,17.507-1.641a9.032,9.032,0,0,1,9.46,7.785,5.911,5.911,0,0,1,.1.869c.292,4.8.532,9.583.767,14.382l.34,6.586a1.229,1.229,0,0,1-1.212,1.25,1.234,1.234,0,0,1-1.248-1.12l-.337-6.591c-.243-4.789-.483-9.56-.767-14.349a3.635,3.635,0,0,0-.064-.583,6.578,6.578,0,0,0-6.829-5.773c-6.262.511-11.966,1.051-17.445,1.634a6.69,6.69,0,0,0-5.7,7.3l2,24.356a1.232,1.232,0,0,1-1.125,1.33h0Z" transform="translate(1647.249 -963.509)" fill="#313131"/>
          </g>
          <g id="Group_1650" data-name="Group 1650" transform="translate(110.524 106.294)">
            <path id="Path_2293" data-name="Path 2293" d="M-1645.916,974.966a1.234,1.234,0,0,1-1.229-1.235,1.248,1.248,0,0,1,.207-.683c4.283-6.392,14.436-6.576,19.312-6.666l.88-.018c1.452-.054,2.9-.09,4.362-.125,1.943-.054,3.889-.123,5.816-.23h.174a8.73,8.73,0,0,1,3.068.437,1.233,1.233,0,0,1,.686,1.6,1.236,1.236,0,0,1-1.453.734,6.256,6.256,0,0,0-2.237-.312c-2.045.107-4,.179-5.973.233-1.457.036-2.894.072-4.347.125l-.91.021c-4.462.082-13.746.256-17.312,5.574A1.229,1.229,0,0,1-1645.916,974.966Z" transform="translate(1647.146 -966.004)" fill="#313131"/>
          </g>
          <g id="Group_1651" data-name="Group 1651" transform="translate(98.796 8.701)">
            <path id="Path_2294" data-name="Path 2294" d="M-1645.116,943.234a7.191,7.191,0,0,1-6.594-7.369,7.417,7.417,0,0,1,5.909-7.852,13.618,13.618,0,0,1,2.114-.179,7.432,7.432,0,0,1,7.372,6.857A8.7,8.7,0,0,1-1645.116,943.234Zm1.429-12.948a11.274,11.274,0,0,0-1.736.151,5.059,5.059,0,0,0-3.823,5.428,4.744,4.744,0,0,0,4.135,4.906,6.224,6.224,0,0,0,6.333-6.09,4.951,4.951,0,0,0-4.909-4.4Z" transform="translate(1651.733 -927.834)" fill="#fff"/>
          </g>
          <g id="Group_1652" data-name="Group 1652" transform="translate(124.186 7.783)">
            <path id="Path_2295" data-name="Path 2295" d="M-1634.691,942.09a6.284,6.284,0,0,1-7.046-5.415,6.76,6.76,0,0,1-.054-.721,8.065,8.065,0,0,1,7.589-8.479,4.481,4.481,0,0,1,.552.023,5.755,5.755,0,0,1,3.324,1.151,6.583,6.583,0,0,1,3.114,5.382,7.353,7.353,0,0,1-6.617,8.026A7.458,7.458,0,0,1-1634.691,942.09Zm.491-12.147a5.684,5.684,0,0,0-5.114,6.014c0,1.774,1.217,3.669,4.635,3.669a4.927,4.927,0,0,0,5.058-4.791,5,5,0,0,0-.046-.8c0-.864-.169-1.844-2.191-3.459a3.416,3.416,0,0,0-1.984-.619c-.13-.008-.246-.013-.36-.013Z" transform="translate(1641.802 -927.475)" fill="#fff"/>
          </g>
          <g id="Group_1653" data-name="Group 1653" transform="translate(112.199 9.304)">
            <path id="Path_2296" data-name="Path 2296" d="M-1645.261,933.644a1.234,1.234,0,0,1-1.229-1.235,1.255,1.255,0,0,1,.255-.749,10.1,10.1,0,0,1,8.182-3.58,13.111,13.111,0,0,1,6.712,1.79,1.232,1.232,0,0,1,.48,1.675,1.232,1.232,0,0,1-1.677.478c-.031-.018-.063-.036-.095-.056a10.575,10.575,0,0,0-5.42-1.434,7.66,7.66,0,0,0-6.218,2.61A1.237,1.237,0,0,1-1645.261,933.644Z" transform="translate(1646.491 -928.07)" fill="#fff"/>
          </g>
          <g id="Group_1654" data-name="Group 1654" transform="translate(82.381)">
            <path id="Path_2297" data-name="Path 2297" d="M-1639.792,936.949a1.232,1.232,0,0,1-.869-.361c-1.833-1.833-3.3-3.377-4.528-4.669-3.7-3.894-4.858-5.019-6.727-5.019a5.6,5.6,0,0,0-4.042,1.964,1.231,1.231,0,0,1-1.731.192,1.229,1.229,0,0,1-.192-1.731c.021-.028.046-.056.069-.082a8.021,8.021,0,0,1,5.9-2.812c3.017,0,4.74,1.813,8.514,5.786,1.212,1.279,2.67,2.813,4.482,4.623a1.233,1.233,0,0,1,0,1.744,1.238,1.238,0,0,1-.87.358Z" transform="translate(1658.153 -924.431)" fill="#fff"/>
          </g>
        </g>
        <g id="symbols" transform="translate(-1728.619 852.974)">
          <g id="Group_1655" data-name="Group 1655" transform="translate(106.361 58.216)">
            <path id="Path_2298" data-name="Path 2298" d="M-1660.922,925.067a1.652,1.652,0,0,1-1.1-.422l-6.42-5.768c-5.96-5.349-12.122-10.879-18.051-16.364a1.641,1.641,0,0,1-.092-2.319c.041-.043.082-.084.125-.123q5.875-5.135,11.68-10.273c5.157-4.551,10.314-9.1,15.553-13.653a1.64,1.64,0,0,1,2.265.107q6.727,7.057,13.365,14.2,4.909,5.243,9.829,10.483a1.645,1.645,0,0,1-.067,2.324c-.03.028-.061.056-.094.082-8.522,6.885-17.333,14.006-25.926,21.35A1.631,1.631,0,0,1-1660.922,925.067Zm-21.988-23.732c5.5,5.065,11.173,10.158,16.675,15.085l5.354,4.809c7.814-6.648,15.776-13.1,23.522-19.36q-4.322-4.587-8.621-9.2-6.114-6.535-12.273-13.04c-4.827,4.2-9.588,8.4-14.354,12.608q-5.147,4.571-10.319,9.11Z" transform="translate(1687.02 -875.742)" fill="#019e96"/>
          </g>
          <g id="Group_1656" data-name="Group 1656" transform="translate(75.692)">
            <path id="Path_2299" data-name="Path 2299" d="M-1664.378,848.3a1.641,1.641,0,0,1-1.636-1.647,1.642,1.642,0,0,1,.358-1.02c3.615-4.518,7.468-8.949,11.544-13.638,2.275-2.615,4.582-5.267,6.878-7.975a1.645,1.645,0,0,1,2.316-.192,1.642,1.642,0,0,1,.189,2.317c-2.3,2.715-4.62,5.369-6.9,8.005-4.055,4.664-7.885,9.067-11.459,13.533A1.635,1.635,0,0,1-1664.378,848.3Z" transform="translate(1666.015 -823.442)" fill="#ff8e9e"/>
          </g>
          <g id="Group_1657" data-name="Group 1657" transform="translate(410.04 195.897)">
            <path id="Path_2300" data-name="Path 2300" d="M-1551.524,930.192a11.453,11.453,0,0,0-3.643-.6A13.891,13.891,0,0,0-1568.248,943a11.475,11.475,0,0,0,11.534,11.411c.161,0,.323-.005.484-.013a13.86,13.86,0,0,0,14.333-12.963,15.846,15.846,0,0,0-4.052-8.46A11.94,11.94,0,0,0-1551.524,930.192Z" transform="translate(1568.248 -929.591)" fill="#019e96"/>
          </g>
          <g id="Group_1658" data-name="Group 1658" transform="translate(0 171.254)">
            <path id="Path_2301" data-name="Path 2301" d="M-1711.636,919.953c3.674,6.714,6.965,13.551,10.631,20.2-5.073,5.7-10.527,11.173-15.648,16.844-3.935-5.975-8.128-11.743-11.966-17.66C-1722.828,933.008-1717.266,926.445-1711.636,919.953Z" transform="translate(1728.619 -919.953)" fill="#acd5ff"/>
          </g>
          <g id="Group_1659" data-name="Group 1659" transform="translate(401.1 0)">
            <path id="Path_2302" data-name="Path 2302" d="M-1550.547,872.48a1.646,1.646,0,0,1-1.115-.432c-2.974-2.733-6.136-5.162-9.179-7.509a105.562,105.562,0,0,1-10.424-8.762,1.645,1.645,0,0,1,0-2.322,1.641,1.641,0,0,1,2.322,0,102.949,102.949,0,0,0,10.107,8.481c3.1,2.391,6.315,4.858,9.4,7.693a1.639,1.639,0,0,1,.1,2.319,1.634,1.634,0,0,1-1.212.532Z" transform="translate(1571.745 -852.974)" fill="#019e96"/>
          </g>
          <g id="Group_1660" data-name="Group 1660" transform="translate(534.551 240.236)">
            <path id="Path_2303" data-name="Path 2303" d="M-1492.692,966.519a1.628,1.628,0,0,1-.895-.256c-2.761-1.808-5.395-3.781-7.939-5.691A73.775,73.775,0,0,0-1518.5,950.1a1.643,1.643,0,0,1-.936-2.125,1.642,1.642,0,0,1,2.125-.936l.033.013a77.4,77.4,0,0,1,17.726,10.887c2.5,1.879,5.091,3.82,7.765,5.569a1.637,1.637,0,0,1,.48,2.27,1.643,1.643,0,0,1-1.381.747Z" transform="translate(1519.55 -946.932)" fill="#ff8e9e"/>
          </g>
        </g>
        <path id="Path_3866" data-name="Path 3866" d="M-1683.48,1012.67s76.219.222,96.06,0,107.558-1.534,115.954-1.989c19.529-1.061,29.452,1.78,29.452,1.78,3.723,53.7-96.85,40.927-171.292,31.357S-1683.48,1012.67-1683.48,1012.67Z" transform="translate(70.202 245.152)" fill="#019e96"/>
        <path id="Path_2278" data-name="Path 2278" d="M-1597.713,1036.384c3.753,6.8,7.926,13.17,12.991,20.946-.427.036-.854.09-1.278.125a30.519,30.519,0,0,1-16.425-2.989,175.547,175.547,0,0,0-22.548-8.862l-1.46-.054a139.032,139.032,0,0,0-6.121-19.557h.036l25.875-8.757A153.015,153.015,0,0,0-1597.713,1036.384Z" transform="translate(149.555 255.727)" fill="#313131"/>
        <path id="Path_2280" data-name="Path 2280" d="M-1542.042,1054.66c-41.324-.107-87.932,5.091-128.273,6.87a24.464,24.464,0,0,1-24.944-23.968c0-.174,0-.348,0-.519s-.021-.333-.018-.5a24.364,24.364,0,0,1,23.4-25.294c.376-.016.751-.021,1.125-.018,3.648.125,7.225.256,10.738.463,39.153,2.153,71.379,9.005,113.664,20.483C-1544.533,1039.567-1543.129,1047.112-1542.042,1054.66Z" transform="translate(51.868 246.38)" fill="#fec739"/>
        <path id="Path_2278-2" data-name="Path 2278" d="M-1639.031,1017.3l25.875,8.757h.036a139.315,139.315,0,0,0-6.121,19.557l-1.459.054a176.492,176.492,0,0,0-22.549,8.862,30.476,30.476,0,0,1-16.425,2.989c-.424-.035-.851-.089-1.278-.125,5.065-7.775,9.238-14.147,12.991-20.946A152.482,152.482,0,0,0-1639.031,1017.3Z" transform="translate(105.344 255.824)" fill="#313131"/>
        <path id="Path_2280-2" data-name="Path 2280" d="M-1634.723,1032.178c42.285-11.478,74.511-18.33,113.664-20.483,3.513-.207,7.09-.338,10.739-.463.376,0,.752,0,1.125.018a24.364,24.364,0,0,1,23.4,25.294,4.541,4.541,0,0,1-.018.5c0,.171,0,.345,0,.519a24.464,24.464,0,0,1-24.944,23.968c-40.342-1.78-86.95-6.978-128.273-6.87C-1637.953,1047.112-1636.549,1039.567-1634.723,1032.178Z" transform="translate(139.46 246.38)" fill="#fec739"/>
        <circle id="Ellipse_542" data-name="Ellipse 542" cx="2.291" cy="2.291" r="2.291" transform="translate(-1503.227 1049.028)" fill="#313131"/>
        <circle id="Ellipse_543" data-name="Ellipse 543" cx="2.291" cy="2.291" r="2.291" transform="translate(-1525.753 1050.387)" fill="#313131"/>
        <path id="Path_4060" data-name="Path 4060" d="M543.925,1153.356l1.068,8.675.151,1.227.937-.937-2.279.114c-1.2.06-1.208,1.934,0,1.874l2.279-.114c.459-.024,1-.414.937-.937l-1.067-8.676-.151-1.227a.966.966,0,0,0-.937-.937.943.943,0,0,0-.937.937Z" transform="translate(-2057.019 -102.032)" fill="#313131"/>
        <path id="Path_4061" data-name="Path 4061" d="M542.363,1172.343l-.049.007c-.189.029.281-.033.11-.014-.142.016-.284.031-.427.043a10.119,10.119,0,0,1-1.437.017c-.144-.009-.288-.02-.432-.037-.106-.012-.178-.071.014,0a1.332,1.332,0,0,0-.236-.038,5.668,5.668,0,0,1-.847-.217c-.066-.022-.131-.048-.2-.072-.155-.058.189.09-.049-.026a3.6,3.6,0,0,1-.363-.2c-.027-.017-.169-.14-.193-.133.047-.013.165.137.007,0-.059-.052-.115-.106-.169-.164-.041-.042-.216-.259-.046-.037a.962.962,0,0,0-1.281-.337.946.946,0,0,0-.337,1.282c1.466,1.907,4.216,2.1,6.431,1.733a.941.941,0,0,0,.655-1.153.965.965,0,0,0-1.153-.655Z" transform="translate(-2055.61 -105.902)" fill="#313131"/>
      </g>
      <g id="Group_3297" data-name="Group 3297" transform="translate(-8041.916 -5545.843)">
        <path id="Path_3174" data-name="Path 3174" d="M-262.421-32.855s-9.266-30.578-35.211-27.8S-324.04-36.561-324.04-36.561-285.123-22.045-262.421-32.855Z" transform="translate(760.807 651.743)" fill="#019e96"/>
        <path id="Path_3173" data-name="Path 3173" d="M-295.491-34.423s36.131,7.218,50.753-8.533c12.671-13.648,6.908-38.537-13.451-34.174S-264.144-44.008-295.491-34.423Z" transform="translate(754.46 655.479)" fill="#195f5f"/>
      </g>
    </g>
  </g>
</svg>
