<svg xmlns="http://www.w3.org/2000/svg" xmlns:xlink="http://www.w3.org/1999/xlink" width="210" height="170" viewBox="0 0 210 170">
  <defs>
    <clipPath id="clip-path">
      <rect x="20" y="24" width="210" height="170" fill="none"/>
    </clipPath>
  </defs>
  <g id="Group_3280" data-name="Group 3280" transform="translate(9859 3598)">
    <g id="Scroll_Group_31" data-name="Scroll Group 31" transform="translate(-9879 -3622)" clip-path="url(#clip-path)" style="isolation: isolate">
      <path id="Path_4535" data-name="Path 4535" d="M106.5,0C165.318,0,213,36.489,213,81.5S165.318,163,106.5,163,0,126.511,0,81.5,47.682,0,106.5,0Z" transform="translate(46.779) rotate(17)" fill="#fff0c6"/>
    </g>
    <g id="Group_3278" data-name="Group 3278" transform="translate(-9398.174 -4358.904)">
      <rect id="Rectangle_1446" data-name="Rectangle 1446" width="69.655" height="128.496" rx="13.334" transform="translate(-429.826 784.091)" fill="#313131"/>
      <rect id="Rectangle_1447" data-name="Rectangle 1447" width="64.119" height="121.848" rx="10.283" transform="translate(-427.058 787.415)" fill="#ffc517"/>
      <path id="Rectangle_1448" data-name="Rectangle 1448" d="M0,0H25.373a0,0,0,0,1,0,0V4.061a3,3,0,0,1-3,3H3a3,3,0,0,1-3-3V0A0,0,0,0,1,0,0Z" transform="translate(-407.685 784.916)" fill="#313131"/>
      <g id="Group_2847" data-name="Group 2847" transform="translate(-411.12 831.89)">
        <path id="Path_4178" data-name="Path 4178" d="M-407.683,844.571h1.284v.078c0,.273.1.428.454.428h3.232a.392.392,0,0,0,.389-.4.4.4,0,0,0-.389-.429h-3.232a2.211,2.211,0,0,1-2.219-2.375,2.255,2.255,0,0,1,2.219-2.426h2.388c3.063,0,3.439,2.621,3.439,4.568s-.364,4.516-3.777,4.516h-3.789Zm5.347-1.505a.329.329,0,0,0-.312-.364h-2.531a.388.388,0,0,0-.415.415.385.385,0,0,0,.4.415h2.856Z" transform="translate(408.164 -839.445)"/>
        <path id="Path_4179" data-name="Path 4179" d="M-397.915,844.571h1.284v.078c0,.273.1.428.454.428h3.232a.392.392,0,0,0,.389-.4.4.4,0,0,0-.389-.429h-3.232a2.211,2.211,0,0,1-2.219-2.375,2.255,2.255,0,0,1,2.219-2.426h2.388c3.063,0,3.439,2.621,3.439,4.568s-.364,4.516-3.777,4.516h-3.789Zm5.347-1.505a.329.329,0,0,0-.312-.364h-2.531a.388.388,0,0,0-.415.415.385.385,0,0,0,.4.415h2.856Z" transform="translate(406.831 -839.445)"/>
        <path id="Path_4180" data-name="Path 4180" d="M-388.147,844.571h1.285v.078c0,.273.1.428.453.428h3.232a.392.392,0,0,0,.389-.4.4.4,0,0,0-.389-.429h-3.232a2.211,2.211,0,0,1-2.218-2.375,2.255,2.255,0,0,1,2.218-2.426h2.388c3.063,0,3.439,2.621,3.439,4.568s-.364,4.516-3.777,4.516h-3.789Zm5.347-1.505a.329.329,0,0,0-.312-.364h-2.531a.388.388,0,0,0-.415.415.385.385,0,0,0,.4.415h2.856Z" transform="translate(405.498 -839.445)"/>
        <path id="Path_4181" data-name="Path 4181" d="M-378.379,844.571h1.285v.078c0,.273.1.428.453.428h3.232a.392.392,0,0,0,.389-.4.4.4,0,0,0-.389-.429h-3.232a2.211,2.211,0,0,1-2.218-2.375,2.255,2.255,0,0,1,2.218-2.426h2.388c3.063,0,3.439,2.621,3.439,4.568s-.364,4.516-3.777,4.516h-3.789Zm5.347-1.505a.328.328,0,0,0-.312-.364h-2.531a.388.388,0,0,0-.415.415.386.386,0,0,0,.4.415h2.855Z" transform="translate(404.164 -839.445)"/>
      </g>
      <path id="Path_4182" data-name="Path 4182" d="M-372.456,851.751h-43.653V833.834h43.653Zm-42.789-.864h41.926V834.7h-41.926Z" transform="translate(-1.872 -6.789)"/>
      <g id="Group_2848" data-name="Group 2848" transform="translate(-380.555 816.704)">
        <path id="Rectangle_1449" data-name="Rectangle 1449" d="M0,0H99.15a0,0,0,0,1,0,0V54.662a5,5,0,0,1-5,5H5a5,5,0,0,1-5-5V0A0,0,0,0,1,0,0Z" transform="translate(0 8.506)" fill="#ff8e9e"/>
        <path id="Rectangle_1450" data-name="Rectangle 1450" d="M5,0H94.15a5,5,0,0,1,5,5V8.582a0,0,0,0,1,0,0H0a0,0,0,0,1,0,0V5A5,5,0,0,1,5,0Z" fill="#fff"/>
        <circle id="Ellipse_621" data-name="Ellipse 621" cx="1.236" cy="1.236" r="1.236" transform="translate(2.642 3.459)" fill="#313131"/>
        <circle id="Ellipse_622" data-name="Ellipse 622" cx="1.236" cy="1.236" r="1.236" transform="translate(7.534 3.459)" fill="#313131"/>
        <circle id="Ellipse_623" data-name="Ellipse 623" cx="1.236" cy="1.236" r="1.236" transform="translate(12.465 3.459)" fill="#313131"/>
      </g>
      <g id="Group_2849" data-name="Group 2849" transform="translate(-350.034 849.816)">
        <path id="Path_4183" data-name="Path 4183" d="M-336.943,865.33h1.285v.078c0,.272.1.428.454.428h3.232a.392.392,0,0,0,.389-.4.4.4,0,0,0-.389-.428H-335.2a2.211,2.211,0,0,1-2.219-2.375A2.255,2.255,0,0,1-335.2,860.2h2.388c3.062,0,3.439,2.621,3.439,4.568s-.364,4.516-3.777,4.516h-3.79Zm5.348-1.505a.329.329,0,0,0-.312-.364h-2.531a.388.388,0,0,0-.415.415.385.385,0,0,0,.4.415h2.856Z" transform="translate(337.423 -860.204)"/>
        <path id="Path_4184" data-name="Path 4184" d="M-327.175,865.33h1.285v.078c0,.272.1.428.454.428h3.232a.392.392,0,0,0,.389-.4.4.4,0,0,0-.389-.428h-3.232a2.211,2.211,0,0,1-2.219-2.375,2.255,2.255,0,0,1,2.219-2.426h2.388c3.063,0,3.439,2.621,3.439,4.568s-.364,4.516-3.777,4.516h-3.79Zm5.347-1.505a.328.328,0,0,0-.311-.364h-2.531a.388.388,0,0,0-.415.415.385.385,0,0,0,.4.415h2.855Z" transform="translate(336.09 -860.204)"/>
        <path id="Path_4185" data-name="Path 4185" d="M-317.407,865.33h1.285v.078c0,.272.1.428.454.428h3.232a.392.392,0,0,0,.389-.4.4.4,0,0,0-.389-.428h-3.232a2.211,2.211,0,0,1-2.219-2.375,2.255,2.255,0,0,1,2.219-2.426h2.388c3.063,0,3.439,2.621,3.439,4.568s-.364,4.516-3.777,4.516h-3.79Zm5.348-1.505a.329.329,0,0,0-.312-.364H-314.9a.388.388,0,0,0-.415.415.385.385,0,0,0,.4.415h2.856Z" transform="translate(334.757 -860.204)"/>
        <path id="Path_4186" data-name="Path 4186" d="M-307.639,865.33h1.285v.078c0,.272.1.428.454.428h3.232a.393.393,0,0,0,.389-.4.4.4,0,0,0-.389-.428H-305.9a2.211,2.211,0,0,1-2.219-2.375A2.255,2.255,0,0,1-305.9,860.2h2.389c3.063,0,3.439,2.621,3.439,4.568s-.364,4.516-3.777,4.516h-3.79Zm5.347-1.505a.328.328,0,0,0-.311-.364h-2.531a.388.388,0,0,0-.415.415.385.385,0,0,0,.4.415h2.855Z" transform="translate(333.424 -860.204)"/>
      </g>
      <path id="Path_4187" data-name="Path 4187" d="M-301.715,872.51h-43.653V854.592h43.653Zm-42.79-.864h41.926V855.456H-344.5Z" transform="translate(-11.527 -9.622)"/>
      <circle id="Ellipse_531" data-name="Ellipse 531" cx="22.883" cy="22.883" r="22.883" transform="translate(-395.248 829.776)" fill="#019e96"/>
      <path id="Path_4188" data-name="Path 4188" d="M-364.446,846.025l1.527-2.228a2.159,2.159,0,0,1,3.939,1.281l-.074,2.7a2.159,2.159,0,0,0,2.882,2.094l2.544-.9a2.16,2.16,0,0,1,2.435,3.352l-1.647,2.14a2.159,2.159,0,0,0,1.1,3.388l2.59.763a2.16,2.16,0,0,1,0,4.143l-5.614,1.654,3.57,4.638a2.159,2.159,0,0,1-2.435,3.351l-2.544-.9a2.159,2.159,0,0,0-2.882,2.094l.074,2.7a2.159,2.159,0,0,1-3.939,1.28l-1.527-2.227a2.159,2.159,0,0,0-3.563,0l-1.526,2.227a2.159,2.159,0,0,1-3.94-1.28l.075-2.7a2.16,2.16,0,0,0-2.882-2.094l-2.544.9a2.159,2.159,0,0,1-2.435-3.351l1.647-2.14a2.159,2.159,0,0,0-1.1-3.388l-2.591-.763a2.16,2.16,0,0,1,0-4.143l2.591-.763a2.159,2.159,0,0,0,1.1-3.388l-1.647-2.14a2.16,2.16,0,0,1,2.435-3.352l2.544.9a2.159,2.159,0,0,0,2.882-2.094l-.075-2.7a2.16,2.16,0,0,1,3.94-1.281l1.526,2.228A2.16,2.16,0,0,0-364.446,846.025Z" transform="translate(-6.138 -8.02)" fill="#fff"/>
      <path id="Path_4189" data-name="Path 4189" d="M-375.305,863.579l5.722,7.338a1.305,1.305,0,0,0,2.034-.262l8.513-13.927,1.223-2c.871-1.427-1.368-2.73-2.237-1.307l-8.513,13.926-1.222,2,2.034-.262-5.722-7.338a1.3,1.3,0,0,0-1.832,0,1.327,1.327,0,0,0,0,1.832Z" transform="translate(-7.391 -9.379)" fill="#019e96"/>
      <g id="Group_2850" data-name="Group 2850" transform="translate(-422.765 796.379)">
        <rect id="Rectangle_1451" data-name="Rectangle 1451" width="5.794" height="0.648" fill="#313131"/>
        <rect id="Rectangle_1452" data-name="Rectangle 1452" width="5.794" height="0.648" transform="translate(0 1.736)" fill="#313131"/>
        <rect id="Rectangle_1453" data-name="Rectangle 1453" width="5.794" height="0.648" transform="translate(0 3.473)" fill="#313131"/>
      </g>
      <g id="Group_2851" data-name="Group 2851" transform="translate(-405.699 905.251)">
        <line id="Line_214" data-name="Line 214" x2="17.898" transform="translate(0.938 0.972)" fill="#fff"/>
        <path id="Path_4190" data-name="Path 4190" d="M-400.947,926.344h17.9a.972.972,0,0,0,0-1.943h-17.9a.972.972,0,0,0,0,1.943Z" transform="translate(401.886 -924.401)" fill="#313131"/>
      </g>
    </g>
  </g>
</svg>
