<svg xmlns="http://www.w3.org/2000/svg" width="524.833" height="513.964" viewBox="0 0 524.833 513.964">
  <g id="Group_2832" data-name="Group 2832" transform="translate(0)">
    <path id="Path_4078" data-name="Path 4078" d="M3626.448,1093.723c0,13.866-15.032,35.5-30.284,32.773-31.057-5.554-29.705-20.42-27.763-34.951,1.836-13.745,14.5-22.931,29.994-22.931S3626.448,1079.855,3626.448,1093.723Z" transform="translate(-3307.974 -1057)" fill="#313131"/>
    <rect id="Rectangle_1424" data-name="Rectangle 1424" width="22.978" height="58.48" rx="11.489" transform="translate(287.625 100.282) rotate(-173.074)" fill="#ffc517"/>
    <path id="Path_4079" data-name="Path 4079" d="M3579.531,1111.375h-.01l.543-4.469a9.863,9.863,0,0,1-2.781-.979c-3.568-1.88-5.379-5.454-4.044-7.983,1.25-2.374,4.83-2.982,8.215-1.49a23.543,23.543,0,0,1,46.339,8.008l-1.531,12.592-.008,0c-.013.113-.018.224-.032.338a23.542,23.542,0,0,1-46.74-5.678C3579.495,1111.6,3579.516,1111.487,3579.531,1111.375Z" transform="translate(-3308.824 -1058.531)" fill="#ffc517"/>
    <ellipse id="Ellipse_549" data-name="Ellipse 549" cx="2.747" cy="2.747" rx="2.747" ry="2.747" transform="translate(308.335 47.4)" fill="#313131"/>
    <ellipse id="Ellipse_550" data-name="Ellipse 550" cx="2.747" cy="2.747" rx="2.747" ry="2.747" transform="translate(292.23 45.443)" fill="#313131"/>
    <path id="Path_4080" data-name="Path 4080" d="M3618.386,1112.561l.015,10.484,0,1.483,1.253-.981-2.73-.194c-1.44-.1-1.717,2.128-.272,2.231l2.73.194a1.132,1.132,0,0,0,1.251-.98l-.016-10.483,0-1.483a1.159,1.159,0,0,0-.979-1.251,1.129,1.129,0,0,0-1.251.981Z" transform="translate(-3315.765 -1063.951)" fill="#313131"/>
    <path id="Path_4081" data-name="Path 4081" d="M3614.6,1133.832l-.059,0c-.23.007.339,0,.133,0-.171,0-.343,0-.515-.01a12.337,12.337,0,0,1-1.713-.187c-.17-.031-.34-.066-.51-.106-.125-.031-.2-.111.016.007a1.57,1.57,0,0,0-.276-.08,6.837,6.837,0,0,1-.977-.38c-.076-.037-.149-.077-.224-.116-.177-.092.213.135-.056-.038a4.4,4.4,0,0,1-.4-.291c-.029-.025-.18-.192-.211-.188.057-.007.176.188.008,0a2.733,2.733,0,0,1-.177-.219c-.044-.057-.221-.338-.05-.052a1.154,1.154,0,0,0-1.477-.586,1.132,1.132,0,0,0-.585,1.478c1.469,2.483,4.715,3.109,7.4,2.993a1.127,1.127,0,0,0,.946-1.277,1.155,1.155,0,0,0-1.277-.946Z" transform="translate(-3314.424 -1067.172)" fill="#313131"/>
    <g id="shadow-4" transform="translate(180.279 495.787)">
      <ellipse id="Ellipse_244" data-name="Ellipse 244" cx="42.413" cy="7.356" rx="42.413" ry="7.356" transform="translate(110.793 3.463)" fill="#26ed98"/>
      <ellipse id="Ellipse_245" data-name="Ellipse 245" cx="27.265" cy="4.328" rx="27.265" ry="4.328" fill="#26ed98"/>
    </g>
    <g id="back_line-4" data-name="back line-4" transform="translate(32.106 54.643)">
      <g id="Group_1666" data-name="Group 1666">
        <g id="Group_1662" data-name="Group 1662">
          <path id="Path_2304" data-name="Path 2304" d="M3352.8,1181.916a1.024,1.024,0,0,1-.346-.066,73.159,73.159,0,0,1-17.569-10.048,25.382,25.382,0,0,1-11.554,2.847c-14.465,0-27.152-12.273-27.152-26.26,0-15.417,12.475-28.44,27.243-28.44a22.511,22.511,0,0,1,8.425,1.611,14.023,14.023,0,0,0,1.741.517,14.137,14.137,0,0,1,2.262.7c9.807,4.359,14.2,15.4,14.2,24.412a27.625,27.625,0,0,1-6.228,17.343,96.7,96.7,0,0,0,9.752,15.854.962.962,0,0,1-.776,1.553Zm-17.821-12.215a.953.953,0,0,1,.588.2,75.248,75.248,0,0,0,14.417,8.821,96.848,96.848,0,0,1-8.175-13.933.969.969,0,0,1,.135-1.036,25.729,25.729,0,0,0,6.173-16.566c0-8.387-4.035-18.637-13.053-22.65a12.647,12.647,0,0,0-1.947-.587,15.929,15.929,0,0,1-1.987-.588,20.661,20.661,0,0,0-7.713-1.473c-13.486,0-25.312,12.389-25.312,26.511,0,12.963,11.785,24.332,25.221,24.332a23.573,23.573,0,0,0,11.19-2.9.912.912,0,0,1,.458-.13Z" transform="translate(-3296.175 -1119.949)" fill="#313131"/>
        </g>
        <g id="Group_1663" data-name="Group 1663" transform="translate(11.216 24.299)">
          <path id="Path_2305" data-name="Path 2305" d="M3313.293,1156.931a3.757,3.757,0,0,1-3.737-3.774v-.072a4.213,4.213,0,0,1,1.811-3.449,3.329,3.329,0,0,1,1.917-.7c2.588,0,4.26,1.428,4.26,3.641A4.58,4.58,0,0,1,3313.293,1156.931Zm0-6.065a1.509,1.509,0,0,0-.809.349,2.3,2.3,0,0,0-1,1.868,1.831,1.831,0,0,0,1.74,1.917h.073c1.607,0,2.329-1.859,2.329-2.424,0-1.487-1.463-1.71-2.329-1.71Z" transform="translate(-3309.556 -1148.938)" fill="#313131"/>
        </g>
        <g id="Group_1664" data-name="Group 1664" transform="translate(22.758 23.811)">
          <path id="Path_2306" data-name="Path 2306" d="M3326.771,1156a3.722,3.722,0,0,1-3.436-3.989h0v-.107a3.305,3.305,0,0,1,3.037-3.551h.25a4.814,4.814,0,0,1,3.418,1.307,2.667,2.667,0,0,1,.679,1.84A4.418,4.418,0,0,1,3326.771,1156Zm-.41-5.739a1.554,1.554,0,0,0-1.09,1.641c0,1.051.519,2.169,1.5,2.169a2.588,2.588,0,0,0,2.029-2.573.934.934,0,0,0-.123-.492,2.9,2.9,0,0,0-2.042-.731.89.89,0,0,1-.274-.013Z" transform="translate(-3323.325 -1148.355)" fill="#313131"/>
        </g>
        <g id="Group_1665" data-name="Group 1665" transform="translate(33.524 22.665)">
          <path id="Path_2307" data-name="Path 2307" d="M3339.59,1154.588a3.7,3.7,0,0,1-3.415-3.882,3.526,3.526,0,0,1,3.145-3.691c.191-.016.383-.026.574-.026a3.71,3.71,0,0,1,3.583,3.837h0v.013A3.99,3.99,0,0,1,3339.59,1154.588Zm.3-5.676a3.369,3.369,0,0,0-.415.018,1.612,1.612,0,0,0-1.379,1.77c0,.948.6,1.96,1.489,1.96a2.072,2.072,0,0,0,1.957-1.812c0-.031-.07-1.936-1.652-1.936Z" transform="translate(-3336.17 -1146.989)" fill="#313131"/>
        </g>
      </g>
      <g id="Group_1669" data-name="Group 1669" transform="translate(427.326 223.53)">
        <g id="Group_1667" data-name="Group 1667">
          <path id="Path_2308" data-name="Path 2308" d="M3839.432,1453.313a32.735,32.735,0,0,1-24.68-55.026,84.8,84.8,0,0,0-6.505-10.118.964.964,0,0,1,.964-1.524,50.816,50.816,0,0,1,15.139,5.583,55.527,55.527,0,0,1,9.544-2.4,39.542,39.542,0,0,1,6.854-.6,34.168,34.168,0,0,1,20.786,6.75,25.626,25.626,0,0,1,9.836,20.967C3871.355,1437.761,3854.5,1453.313,3839.432,1453.313Zm-28.14-64.214a87.939,87.939,0,0,1,5.5,8.917.968.968,0,0,1-.174,1.145c-.124.121-.26.259-.376.375a30.8,30.8,0,0,0,23.192,51.852c14.159,0,30-14.729,30-34.427,0-17.715-14.873-25.786-28.691-25.786a37.706,37.706,0,0,0-6.515.577,52.139,52.139,0,0,0-9.617,2.462.957.957,0,0,1-.823-.062,49.134,49.134,0,0,0-12.489-5.053Z" transform="translate(-3805.982 -1386.624)" fill="#313131"/>
        </g>
        <g id="Group_1668" data-name="Group 1668" transform="translate(18.446 18.344)">
          <path id="Path_2309" data-name="Path 2309" d="M3843.137,1436.915A14.478,14.478,0,0,1,3828,1423.127c0-.214-.015-.426-.015-.641,0-9.539,10.127-13.978,16.967-13.978,6.047,0,12.552,3.212,12.552,10.26,0,5.971-4.294,9.629-6.634,9.629a4.429,4.429,0,0,1-4.274-3.6,7.8,7.8,0,0,1-6.591,5.109,4.9,4.9,0,0,1-4.83-4.967v-.082a8.2,8.2,0,0,1,8.219-8.182h.324a12.919,12.919,0,0,1,3.123.406,4.139,4.139,0,0,1,.925,1.708c0,5.09,1.034,7.667,3.106,7.667a7.525,7.525,0,0,0,4.706-7.7c0-6.581-6.676-8.332-10.614-8.332-6.067,0-15.043,3.83-15.043,12.054A12.474,12.474,0,0,0,3842.35,1435c.258,0,.532,0,.8-.021a19.24,19.24,0,0,0,12.166-4.982.968.968,0,1,1,1.554,1.155v0A20.8,20.8,0,0,1,3843.137,1436.915Zm.58-18.3a6.275,6.275,0,0,0-6.6,5.933v.313a2.961,2.961,0,0,0,2.8,3.106h.108c2.411,0,5.808-2.847,5.823-9.14A10.564,10.564,0,0,0,3843.716,1418.612Z" transform="translate(-3827.989 -1408.509)" fill="#313131"/>
        </g>
      </g>
      <g id="Group_1670" data-name="Group 1670" transform="translate(100.677 431.388)">
        <path id="Path_2310" data-name="Path 2310" d="M3461.981,1637.456c-12.424-.294-26.1-.61-44.75-.926a.964.964,0,1,1,.035-1.928c18.656.318,32.333.634,44.738.929a.964.964,0,0,1,.953.973v0a.963.963,0,0,1-.973.952h0Z" transform="translate(-3416.284 -1634.602)" fill="#313131"/>
      </g>
      <g id="Group_1671" data-name="Group 1671" transform="translate(200.251 433.096)">
        <path id="Path_2311" data-name="Path 2311" d="M3555.852,1638.819c-7.095,0-13.654-.02-19.816-.062a.965.965,0,0,1-.958-.968h0a.936.936,0,0,1,.916-.957h.055c10.2.067,21.483.08,34.484.036,11.6-.039,22.5-.117,32.376-.228a.964.964,0,1,1,.02,1.928h0c-9.884.111-20.78.189-32.388.228C3565.386,1638.812,3560.5,1638.819,3555.852,1638.819Z" transform="translate(-3535.077 -1636.64)" fill="#313131"/>
      </g>
      <g id="Group_1672" data-name="Group 1672" transform="translate(340.403 430.392)">
        <path id="Path_2312" data-name="Path 2312" d="M3703.262,1636.222a.963.963,0,0,1-.04-1.926h.006c8.577-.3,17.862-.614,28.733-.883a.987.987,0,0,1,.987.94.967.967,0,0,1-.94.986h0C3721.152,1635.605,3711.863,1635.921,3703.262,1636.222Z" transform="translate(-3702.28 -1633.413)" fill="#313131"/>
      </g>
      <g id="Group_1673" data-name="Group 1673" transform="translate(57.585 298.171)">
        <path id="Path_2313" data-name="Path 2313" d="M3459.1,1550a.965.965,0,0,1-.963-.963,1.026,1.026,0,0,1,.015-.174,125.689,125.689,0,0,0,2.216-22.26c0-33.651-17.708-48.993-34.168-48.993-6.008,0-12.943,3.672-19.022,10.079-12.042,12.684-18.292,32.714-17.141,54.959a.963.963,0,0,1-1.348.932,20.174,20.174,0,0,0-22.165,4.4.963.963,0,0,1-1.366-1.358l0,0a22.172,22.172,0,0,1,22.889-5.369c-.822-22.175,5.6-42.116,17.738-54.893,6.444-6.787,13.889-10.681,20.422-10.681,11.313,0,20.763,5.669,27.328,16.4a67.988,67.988,0,0,1,8.763,34.526,123.938,123.938,0,0,1-1.787,19.93,45.862,45.862,0,0,1,23.514-10.7.96.96,0,1,1,.159,1.912c-7.652.647-17.013,5.241-24.439,11.987A.973.973,0,0,1,3459.1,1550Z" transform="translate(-3364.875 -1475.672)" fill="#313131"/>
      </g>
      <g id="Group_1674" data-name="Group 1674" transform="translate(215.245 387.272)">
        <path id="Path_2314" data-name="Path 2314" d="M3583.927,1636.992a.969.969,0,0,1-.962-.971.98.98,0,0,1,.125-.472,21.365,21.365,0,0,0,2.471-10.957c0-25.481-11.288-40.693-30.187-40.693-.465,0-.936,0-1.406.028a.951.951,0,0,1-1-.9h0V1583a.963.963,0,0,1,.922-1h0q.743-.031,1.484-.031c20.11,0,32.111,15.934,32.111,42.621a23.219,23.219,0,0,1-2.721,11.907A.973.973,0,0,1,3583.927,1636.992Z" transform="translate(-3552.966 -1581.971)" fill="#313131"/>
      </g>
      <g id="Group_1675" data-name="Group 1675" transform="translate(111.43 298.867)">
        <path id="Path_2315" data-name="Path 2315" d="M3435.1,1605.583a.956.956,0,0,1-.352-.068.966.966,0,0,1-.544-1.25c4.556-11.6,7.323-20.9,7.323-52.251a211.142,211.142,0,0,0-12.355-74.206.967.967,0,1,1,1.813-.677,213.038,213.038,0,0,1,12.477,74.882c0,31.691-2.82,41.158-7.458,52.958A.97.97,0,0,1,3435.1,1605.583Z" transform="translate(-3429.113 -1476.502)" fill="#313131"/>
      </g>
      <g id="Group_1676" data-name="Group 1676" transform="translate(121.199 317.683)">
        <path id="Path_2316" data-name="Path 2316" d="M3441.73,1520.072a.962.962,0,0,1-.963-.961h0a.964.964,0,0,1,.518-.849,99.606,99.606,0,0,0,24.982-19.012.962.962,0,0,1,1.361-.032h0a.964.964,0,0,1,.033,1.362h0a101.531,101.531,0,0,1-25.464,19.379A.941.941,0,0,1,3441.73,1520.072Z" transform="translate(-3440.767 -1498.95)" fill="#313131"/>
      </g>
      <g id="Group_1677" data-name="Group 1677" transform="translate(123.766 346.603)">
        <path id="Path_2317" data-name="Path 2317" d="M3444.8,1555.625a.963.963,0,0,1-.419-1.831,114.384,114.384,0,0,0,29.049-20.076.962.962,0,0,1,1.361.034h0a.966.966,0,0,1-.033,1.361h0a116.4,116.4,0,0,1-29.539,20.411A.987.987,0,0,1,3444.8,1555.625Z" transform="translate(-3443.831 -1533.452)" fill="#313131"/>
      </g>
      <g id="Group_1678" data-name="Group 1678" transform="translate(212.301 393.415)">
        <path id="Path_2318" data-name="Path 2318" d="M3550.419,1631.152a.963.963,0,0,1-.966-.96,1.006,1.006,0,0,1,.065-.355,190.168,190.168,0,0,1,22.758-40.193.963.963,0,0,1,1.554,1.13,188.222,188.222,0,0,0-22.521,39.767A.959.959,0,0,1,3550.419,1631.152Z" transform="translate(-3549.453 -1589.299)" fill="#313131"/>
      </g>
    </g>
    <path id="Path_2319" data-name="Path 2319" d="M3602.45,1158.428c1.352.259,2.7.518,4.067.795a105.014,105.014,0,0,1-3.146,13.828c-2.3-2.633-4.54-5.333-7.088-7.73l6.17-7.045Z" transform="translate(-3312.623 -1071.507)" fill="#fff"/>
    <path id="Path_2320" data-name="Path 2320" d="M3575.961,1153.743a62.516,62.516,0,0,0,10.57,10.972c-3.677,2.41-8.284,5.695-12.506,9.06-.737-6.586-1.554-13.117-2.381-19.647,1.364.1,2.714.222,4.066.349C3575.8,1154.229,3575.876,1153.979,3575.961,1153.743Z" transform="translate(-3308.637 -1070.773)" fill="#fff"/>
    <path id="Path_2321" data-name="Path 2321" d="M3601.554,1226.161c-10.041,25.468-16.351,37.486-25.052,69.428h-.015c-.081-.486-.168-.948-.258-1.406-39.058-1.768-62.217-8.257-88.953-19.55a57.34,57.34,0,0,1,1.462-11.2c6.322-27.251,12.588-35.411,24.046-65.748-8.1,6.948-15.817,13.3-24.3,20.067a202.873,202.873,0,0,1-22.208-22.795,214.607,214.607,0,0,1,38.182-36.539,24.335,24.335,0,0,1,13.272-4.792,276.726,276.726,0,0,1,36.86.391c.836,6.531,1.643,13.061,2.381,19.649,4.219-3.365,8.829-6.642,12.508-9.06q1.551,1.295,3.327,2.674l2.436-2.8c2.551,2.4,4.792,5.1,7.088,7.729a105.158,105.158,0,0,0,3.147-13.827c5.419,1.084,10.9,2.353,16.532,3.8a24.48,24.48,0,0,1,16.543,14.5,520.471,520.471,0,0,1,22,65.432,234.078,234.078,0,0,0-27.207,11.154c-4.028-8.607-7.714-17.405-11.351-26.944Z" transform="translate(-3291.591 -1070.685)" fill="#313131"/>
    <path id="Path_2322" data-name="Path 2322" d="M3763.611,1251.026a2.022,2.022,0,0,1,1.738,2.273v0a2.016,2.016,0,0,1-.053.259l-6.308,22.779c-6.2,2.172-12.426,4.274-18.619,6.572q.358,4.885.445,9.774h-1c-3.017,0-6.04-.042-9.074-.209a2,2,0,0,1-1.862-2.132h0a2.041,2.041,0,0,1,.148-.624l.26-.6,15.775-38.211a2,2,0,0,1,1.93-1.247C3752.513,1249.92,3758.068,1250.358,3763.611,1251.026Z" transform="translate(-3334.074 -1086.292)" fill="#313131"/>
    <path id="Path_2323" data-name="Path 2323" d="M3761.208,1281.188l4.14-1.463a135.387,135.387,0,0,1-7.088,23.157c-5.36,1.6-10.473,3.008-15.373,4.207q.186-3.468.181-6.936c0-.877-.014-1.739-.028-2.616q-.079-4.888-.446-9.774C3748.784,1285.467,3755.012,1283.37,3761.208,1281.188Z" transform="translate(-3336.295 -1091.156)" fill="#ffc517"/>
    <path id="Path_2324" data-name="Path 2324" d="M3726.716,1294.225c0,.878.028,1.743.028,2.617,0,2.312-.054,4.624-.177,6.935v.013a159.223,159.223,0,0,1-53.418,5.1,22.109,22.109,0,0,1-17.474-11.277c-5.176-9.3-9.732-18.12-13.939-27.18a234.642,234.642,0,0,1,27.207-11.153c1.66,6.168,3.29,12.616,4.918,19.467a220.981,220.981,0,0,1,41.3,11.908l-.258.6a2,2,0,0,0,1.088,2.611h0a2.089,2.089,0,0,0,.625.146c3.036.168,6.058.209,9.078.209Z" transform="translate(-3319.977 -1087.847)" fill="#ffc517"/>
    <path id="Path_2325" data-name="Path 2325" d="M3684.972,1624.176a2.761,2.761,0,0,1,1.657,4.8c-16.864,15.109-25.078,19.564-36.455,24.759a3.809,3.809,0,0,1-5.046-1.888v0a3.607,3.607,0,0,1-.242-.714c-1.115-4.789-1.979-9.663-2.633-14.566a172.913,172.913,0,0,1,24.965-12.683v-.042c1.739-.041,3.624-.055,5.875-.055C3677.061,1623.808,3681.03,1623.917,3684.972,1624.176Z" transform="translate(-3320.061 -1146.821)" fill="#313131"/>
    <path id="Path_2326" data-name="Path 2326" d="M3642.8,1571.168v.042a173.24,173.24,0,0,0-24.969,12.683,132.138,132.138,0,0,0-11.181,7.66c-9.548-52.662-16.905-90.338-27.055-127.4-4.081-14.928-8.62-29.767-13.953-45.436a97.952,97.952,0,0,1-13.006-11.545c-10.248-10.458-20.845-23.642-26.662-30.412-18.577-21.611-35.689-50.994-34.645-78.675,26.737,11.293,49.893,17.783,88.955,19.551.083.458.167.92.258,1.406,2.848,16.362,4.052,46.718,5.307,60.532C3617.465,1429.557,3633.057,1482.879,3642.8,1571.168Z" transform="translate(-3295.636 -1094.126)" fill="#ff8e9e"/>
    <path id="Path_2330" data-name="Path 2330" d="M3564.544,1439.76c5.333,15.666,9.874,30.509,13.953,45.437-23.91,36.873-38.5,65.822-58.621,111.134-2.563-1.212-5.125-2.41-7.685-3.624a143.98,143.98,0,0,1-23.38-13.23c-1.463-1.035-2.87-2.159-4.247-3.313,24.2-51.2,41.9-82.353,72.128-117.611q-2.19-15.253-5.148-30.327A97.958,97.958,0,0,0,3564.544,1439.76Z" transform="translate(-3294.549 -1115.181)" fill="#ff8e9e"/>
    <path id="Path_2331" data-name="Path 2331" d="M3516.519,1635.491a5.308,5.308,0,0,1-3.36,6.711h0a5.308,5.308,0,0,1-3.883-.21,173.836,173.836,0,0,1-22.308-12.166,4.08,4.08,0,0,1-1.811-3.981,117.422,117.422,0,0,1,3.745-17.169,144.227,144.227,0,0,0,23.379,13.229C3513.375,1625.891,3514.9,1630.531,3516.519,1635.491Z" transform="translate(-3294.638 -1144.376)" fill="#313131"/>
    <path id="Path_2332" data-name="Path 2332" d="M3458.423,1203.032a202.919,202.919,0,0,0,22.207,22.794c-4.594,3.647-9.425,7.421-14.664,11.459-5.248,50.24-13.676,77.673-31.386,102.487a40.139,40.139,0,0,1-10.7,9.836q-1.979,1.165-3.937,2.33a131.142,131.142,0,0,0-2.281-16.333,82.378,82.378,0,0,0,12.322-8.954c2.787-32.584,5.583-59.836,9.468-91.333a32.371,32.371,0,0,1,5.624-14.676C3449.538,1214.3,3453.95,1208.468,3458.423,1203.032Z" transform="translate(-3283.726 -1078.748)" fill="#ffc517"/>
    <g id="Group_1679" data-name="Group 1679" transform="translate(285.985 132.835)">
      <path id="Path_2333" data-name="Path 2333" d="M3600.021,1298.986a.966.966,0,0,1-.963-.968h0a.99.99,0,0,1,.036-.259,391.126,391.126,0,0,1,16.465-45.99c2.071-5.028,4.2-10.225,6.574-16.243,2.71-6.834,5.38-13.921,8.165-21.669a.962.962,0,0,1,1.239-.565h0a.963.963,0,0,1,.572,1.216c-2.792,7.765-5.468,14.871-8.186,21.723-2.376,6.029-4.517,11.234-6.584,16.265a389.552,389.552,0,0,0-16.4,45.793A.965.965,0,0,1,3600.021,1298.986Z" transform="translate(-3599.057 -1213.232)" fill="#313131"/>
    </g>
    <g id="Group_1680" data-name="Group 1680" transform="translate(311.985 161.223)">
      <path id="Path_2334" data-name="Path 2334" d="M3637.9,1265.2a.972.972,0,0,1-.879-.568c-2.359-5.224-4.608-10.527-6.875-16.214a.964.964,0,1,1,1.79-.714h0c2.255,5.661,4.495,10.939,6.842,16.137a.96.96,0,0,1-.477,1.271l-.006,0a.947.947,0,0,1-.4.086Z" transform="translate(-3630.077 -1247.101)" fill="#313131"/>
    </g>
    <g id="Group_1681" data-name="Group 1681" transform="translate(405.333 189.09)">
      <path id="Path_2335" data-name="Path 2335" d="M3742.873,1301.388a.963.963,0,0,1-.963-.963h0c0-4.017-.158-8.218-.466-12.487a.958.958,0,0,1,.624-.973c4.481-1.661,9.044-3.243,13.461-4.772q2.586-.9,5.176-1.812a.963.963,0,0,1,.637,1.812l-5.177,1.812c-4.18,1.449-8.493,2.948-12.736,4.508.28,4.066.419,8.069.419,11.907a.962.962,0,0,1-.958.968h-.017Z" transform="translate(-3741.441 -1280.346)" fill="#fff"/>
    </g>
    <g id="Group_1683" data-name="Group 1683" transform="translate(297.673 87.752)">
      <path id="Path_2337" data-name="Path 2337" d="M3663.07,1239.633a.964.964,0,0,1-.929-.709,516.342,516.342,0,0,0-20.758-60.851,23.591,23.591,0,0,0-15.892-13.926c-4-1.035-7.942-1.97-11.723-2.793a.963.963,0,0,1,.389-1.887h.02c3.8.829,7.766,1.776,11.8,2.811a25.526,25.526,0,0,1,17.2,15.069A517.5,517.5,0,0,1,3664,1238.41a.961.961,0,0,1-.674,1.183h0A.872.872,0,0,1,3663.07,1239.633Z" transform="translate(-3613.002 -1159.447)" fill="#313131"/>
    </g>
    <g id="Group_1684" data-name="Group 1684" transform="translate(262.05 82.364)">
      <path id="Path_2338" data-name="Path 2338" d="M3573.838,1174.613a.964.964,0,0,1-.957-.856c-.647-5.773-1.38-11.827-2.379-19.634v-.137a.964.964,0,1,1,1.927,0v0c.9,6.947,1.579,12.558,2.183,17.832,3.521-2.744,7.531-5.614,11.212-8.024a.96.96,0,0,1,1.33.273l0,0a.967.967,0,0,1-.278,1.335h0c-4.123,2.7-8.653,5.98-12.425,9A.961.961,0,0,1,3573.838,1174.613Z" transform="translate(-3570.502 -1153.02)" fill="#313131"/>
    </g>
    <g id="Group_1685" data-name="Group 1685" transform="translate(282.693 86.759)">
      <path id="Path_2339" data-name="Path 2339" d="M3603.185,1174.012a.952.952,0,0,1-.726-.329l-1.172-1.342a82.827,82.827,0,0,0-5.852-6.316.964.964,0,1,1,1.32-1.406,85.232,85.232,0,0,1,5.99,6.471,105.184,105.184,0,0,0,2.629-12,.972.972,0,0,1,.953-.829.954.954,0,0,1,.962.948v.005h0a.763.763,0,0,1-.012.176,104.56,104.56,0,0,1-3.176,13.952.968.968,0,0,1-.723.655A1.228,1.228,0,0,1,3603.185,1174.012Z" transform="translate(-3595.13 -1158.264)" fill="#313131"/>
    </g>
    <g id="Group_1686" data-name="Group 1686" transform="translate(175.666 81.549)">
      <path id="Path_2340" data-name="Path 2340" d="M3468.411,1193.409a.962.962,0,0,1-.965-.96.951.951,0,0,1,.225-.625,215.423,215.423,0,0,1,36.411-34.362,25.209,25.209,0,0,1,13.8-4.979,281.218,281.218,0,0,1,33.422.129.961.961,0,0,1,.9,1.021v.028a.978.978,0,0,1-1.035.9,279.024,279.024,0,0,0-33.191-.13,23.3,23.3,0,0,0-12.744,4.6,213.343,213.343,0,0,0-36.094,34.049A.953.953,0,0,1,3468.411,1193.409Z" transform="translate(-3467.446 -1152.047)" fill="#313131"/>
    </g>
    <g id="Group_1687" data-name="Group 1687" transform="translate(196.189 126.049)">
      <path id="Path_2341" data-name="Path 2341" d="M3492.894,1272.805a.991.991,0,0,1-.217-.025.964.964,0,0,1-.723-1.155h0a211.3,211.3,0,0,1,13.88-40.735c2.588-6.086,5.492-12.888,8.858-21.6-6.081,5.178-12.167,10.178-18.9,15.58a.964.964,0,0,1-1.354-.15h0a.963.963,0,0,1,.147-1.354h0c7.767-6.241,14.673-11.96,21.715-18a.96.96,0,0,1,1.356.094l0,0a.96.96,0,0,1,.171.973c-3.962,10.481-7.3,18.3-10.235,25.2a209.605,209.605,0,0,0-13.776,40.415A.959.959,0,0,1,3492.894,1272.805Z" transform="translate(-3491.929 -1205.137)" fill="#313131"/>
    </g>
    <g id="Group_1688" data-name="Group 1688" transform="translate(259.397 315.428)">
      <path id="Path_2342" data-name="Path 2342" d="M3591.889,1486.622a.97.97,0,0,1-.93-.71c-4.121-15.08-8.648-29.83-13.833-45.083a85.483,85.483,0,0,1-9.494-8.1.964.964,0,0,1,1.338-1.387h0a81.8,81.8,0,0,0,9.521,8.091.947.947,0,0,1,.36.479c5.242,15.4,9.81,30.286,13.978,45.493a.963.963,0,0,1-.672,1.184l0,0A1.053,1.053,0,0,1,3591.889,1486.622Z" transform="translate(-3567.338 -1431.07)" fill="#313131"/>
    </g>
    <g id="Group_1689" data-name="Group 1689" transform="translate(264.535 249.868)">
      <path id="Path_2343" data-name="Path 2343" d="M3596.06,1384.618a.966.966,0,0,1-.808-.434c-6.387-9.733-13.441-19.474-21.578-29.768a.964.964,0,0,1,1.514-1.195l0,0c8.167,10.354,15.272,20.136,21.676,29.916a.962.962,0,0,1-.276,1.332l0,0a.979.979,0,0,1-.517.158Z" transform="translate(-3573.468 -1352.854)" fill="#fff"/>
    </g>
    <g id="Group_1690" data-name="Group 1690" transform="translate(508.065 400.6)">
      <path id="Path_2344" data-name="Path 2344" d="M3864.968,1544.555a.966.966,0,0,1-.582-1.737,12.332,12.332,0,0,0,4.367-9.216.993.993,0,0,1,1-.921.962.962,0,0,1,.923,1v0h0a14.279,14.279,0,0,1-5.131,10.67A.961.961,0,0,1,3864.968,1544.555Z" transform="translate(-3864.001 -1532.682)" fill="#313131"/>
    </g>
    <g id="Group_1691" data-name="Group 1691" transform="translate(207.657 212.501)">
      <path id="Path_2345" data-name="Path 2345" d="M3506.573,1328.369a.964.964,0,0,1-.184-1.91c5.833-1.061,11.07-2.637,11.07-10.169a17.73,17.73,0,0,0-1.478-6.682.963.963,0,0,1,1.777-.74,19.591,19.591,0,0,1,1.622,7.416c0,9.011-6.531,10.952-12.652,12.068A1.311,1.311,0,0,1,3506.573,1328.369Z" transform="translate(-3505.611 -1308.276)" fill="#fff"/>
    </g>
    <g id="Group_1692" data-name="Group 1692" transform="translate(165.736 198.23)">
      <path id="Path_2346" data-name="Path 2346" d="M3460.346,1293.883a11.7,11.7,0,0,1-2.848-.466c-.375-.093-.75-.189-1.125-.258a.963.963,0,0,1,.377-1.889h0c.4.08.81.181,1.218.281a7.55,7.55,0,0,0,3.085.342.963.963,0,0,1,1.136.751v0a.963.963,0,0,1-.751,1.136h0A5.522,5.522,0,0,1,3460.346,1293.883Z" transform="translate(-3455.599 -1291.25)" fill="#fff"/>
    </g>
    <g id="Group_1693" data-name="Group 1693" transform="translate(165.111 205.082)">
      <path id="Path_2347" data-name="Path 2347" d="M3460.495,1301.976a25.056,25.056,0,0,1-4.863-.642.964.964,0,1,1,.37-1.891,23.3,23.3,0,0,0,4.493.6.964.964,0,1,1,0,1.929Z" transform="translate(-3454.853 -1299.425)" fill="#fff"/>
    </g>
    <g id="symbols-4">
      <g id="Group_1694" data-name="Group 1694" transform="translate(374.782 120.918)">
        <path id="Path_2348" data-name="Path 2348" d="M3723.677,1212.571a1.293,1.293,0,0,1-.686-.2l-17.52-11.066a1.287,1.287,0,0,1,1.359-2.166l17.52,11.066a1.3,1.3,0,0,1-.69,2.372Z" transform="translate(-3704.994 -1199.016)" fill="#fec739"/>
      </g>
      <g id="Group_1695" data-name="Group 1695" transform="translate(434.308 414.351)">
        <path id="Path_2349" data-name="Path 2349" d="M3781.751,1550.225a10.406,10.406,0,0,0-5.74,9.36,8.207,8.207,0,0,0,8.005,8.394h.469a10.845,10.845,0,0,0,10.594-10.926c0-5.531-5.839-7.967-8.754-7.967A10.13,10.13,0,0,0,3781.751,1550.225Z" transform="translate(-3776.009 -1549.086)" fill="#ff8e9e"/>
      </g>
      <g id="Group_1696" data-name="Group 1696" transform="translate(0 383.732)">
        <path id="Path_2350" data-name="Path 2350" d="M3270.956,1513.026a8.936,8.936,0,0,0-2.848-.469,10.873,10.873,0,0,0-10.235,10.491,8.975,8.975,0,0,0,9.021,8.927h.375a10.843,10.843,0,0,0,11.217-10.144,12.4,12.4,0,0,0-3.171-6.618A9.334,9.334,0,0,0,3270.956,1513.026Z" transform="translate(-3257.873 -1512.557)" fill="#019e96"/>
      </g>
      <g id="Group_1697" data-name="Group 1697" transform="translate(386.285 302.67)">
        <path id="Path_2351" data-name="Path 2351" d="M3732.45,1432.894a1.287,1.287,0,0,1-.66-.184,36.561,36.561,0,0,1-10.936-12.028c-.6-.9-1.2-1.8-1.812-2.682a1.3,1.3,0,0,1,.11-1.828h0a1.293,1.293,0,0,1,1.826.113h0a1.392,1.392,0,0,1,.172.259c.622.9,1.23,1.813,1.837,2.721a34.142,34.142,0,0,0,10.125,11.252,1.294,1.294,0,0,1-.664,2.386Z" transform="translate(-3718.717 -1415.848)" fill="#019e96"/>
      </g>
      <g id="Group_1698" data-name="Group 1698" transform="translate(405.128 73.599)">
        <path id="Path_2352" data-name="Path 2352" d="M3749,1167.138a1.3,1.3,0,0,1-1.15-.709,80.75,80.75,0,0,1-5.884-19.028q-.372-1.692-.764-3.4a1.295,1.295,0,0,1,2.506-.574q.388,1.718.777,3.421a78.6,78.6,0,0,0,5.669,18.436,1.3,1.3,0,0,1-.6,1.729,1.277,1.277,0,0,1-.549.132Z" transform="translate(-3741.197 -1142.564)" fill="#ff8e9e"/>
      </g>
      <g id="Group_1699" data-name="Group 1699" transform="translate(184.381)">
        <path id="Path_2353" data-name="Path 2353" d="M3479.1,1068.773a1.295,1.295,0,0,1-.579-2.436c4.122-2.07,8.344-4.7,12.426-7.248,2.261-1.413,4.6-2.873,6.905-4.229a1.294,1.294,0,0,1,1.7.691h0a1.292,1.292,0,0,1-.4,1.522c-2.277,1.339-4.6,2.789-6.844,4.194-4.143,2.588-8.405,5.252-12.635,7.367A1.3,1.3,0,0,1,3479.1,1068.773Z" transform="translate(-3477.843 -1054.759)" fill="#fec739"/>
      </g>
      <g id="Group_1700" data-name="Group 1700" transform="translate(66.223 299.286)">
        <path id="Path_2354" data-name="Path 2354" d="M3358.031,1427.209a1.292,1.292,0,0,1-.7-.209c-2.163-1.414-4.222-2.959-6.213-4.452a57.623,57.623,0,0,0-13.281-8.19,1.3,1.3,0,0,1,.674-2.5h0a1.251,1.251,0,0,1,.281.114,60.477,60.477,0,0,1,13.869,8.519c1.959,1.47,3.989,2.989,6.081,4.359a1.292,1.292,0,0,1,.344,1.8l-.01.015a1.293,1.293,0,0,1-1.034.561Z" transform="translate(-3336.878 -1411.812)" fill="#ff8e9e"/>
      </g>
    </g>
    <path id="Path_4082" data-name="Path 4082" d="M3629.025,1095.778s-11.583,4.438-20.288-4.31c-4.187-4.207-12.364-2.248-13.938,3.6-.787,2.922-3.71,3.125-6.437,2.6a23.506,23.506,0,0,1-5.256-1.788s-2.565-23.18,19.6-21.265C3629.412,1076.914,3629.025,1095.778,3629.025,1095.778Z" transform="translate(-3310.477 -1057.952)" fill="#313131"/>
  </g>
</svg>
