<svg xmlns="http://www.w3.org/2000/svg" width="178" height="178" viewBox="0 0 178 178">
  <g id="Group_3315" data-name="Group 3315" transform="translate(5623 1867)">
    <rect id="Rectangle_1561" data-name="Rectangle 1561" width="178" height="178" transform="translate(-5623 -1867)" fill="none"/>
    <g id="Group_2280" data-name="Group 2280" transform="translate(-6113.629 -2303.042)">
      <rect id="Rectangle_257" data-name="Rectangle 257" width="77.072" height="142.178" rx="13.334" transform="translate(546.839 454.29)" fill="#313131"/>
      <rect id="Rectangle_258" data-name="Rectangle 258" width="70.946" height="134.822" rx="10.283" transform="translate(549.902 457.968)" fill="#ffc517"/>
      <path id="Rectangle_259" data-name="Rectangle 259" d="M0,0H28.075a0,0,0,0,1,0,0V4.812a3,3,0,0,1-3,3H3a3,3,0,0,1-3-3V0A0,0,0,0,1,0,0Z" transform="translate(571.338 455.203)" fill="#313131"/>
      <g id="Group_2227" data-name="Group 2227" transform="translate(568.074 516.093)">
        <path id="Path_3095" data-name="Path 3095" d="M604.486,541.777H588.052c.51,2.7,2.752,4.36,6.063,4.36a7.62,7.62,0,0,0,5.525-2.1l3.221,3.634c-2.1,2.3-5.172,3.512-9.089,3.512-7.511,0-12.228-4.723-12-11.183.232-6.5,5.366-11.183,11.988-11.183,6.38,0,11.153,4.279,10.9,11.264C604.651,540.566,604.546,541.252,604.486,541.777ZM588.1,538.1h10.7a4.943,4.943,0,0,0-5.169-4.522A5.371,5.371,0,0,0,588.1,538.1Z" transform="translate(-581.77 -528.817)" fill="#fff"/>
        <path id="Path_3096" data-name="Path 3096" d="M611.112,549.545a3.928,3.928,0,0,1,4.055-3.876,3.61,3.61,0,0,1,3.779,3.876,4.024,4.024,0,0,1-4.059,3.955A3.7,3.7,0,0,1,611.112,549.545Z" transform="translate(-585.804 -531.134)" fill="#fff"/>
      </g>
      <path id="Path_3097" data-name="Path 3097" d="M558.992,534.947" transform="translate(-10.563 -13.567)" fill="none" stroke="#313131" stroke-miterlimit="10" stroke-width="1"/>
      <rect id="Rectangle_260" data-name="Rectangle 260" width="73.09" height="36.324" rx="18.162" transform="translate(584.158 466.687)" fill="#019e96"/>
      <rect id="Rectangle_261" data-name="Rectangle 261" width="72.557" height="36.324" rx="18.162" transform="translate(573.172 548.185)" fill="#019e96"/>
      <rect id="Rectangle_262" data-name="Rectangle 262" width="56.167" height="36.324" rx="18.162" transform="translate(502.009 508.401)" fill="#019e96"/>
      <g id="Group_2078" data-name="Group 2078" transform="translate(595.766 479.242)">
        <path id="Path_2779" data-name="Path 2779" d="M18,7.122a11.081,11.081,0,0,1-6.661-2.487c-1.45-.989-2.7-1.844-4.447-1.844a6.664,6.664,0,0,0-5.17,2.977A.943.943,0,0,1,.168,4.695l.015-.021A8.567,8.567,0,0,1,6.887.906c2.329,0,3.945,1.1,5.51,2.172C14.023,4.189,15.56,5.234,18,5.234c3.087,0,4.416-1.278,5.824-2.632,1.33-1.279,2.7-2.6,5.347-2.6,2.07,0,3.842,1.248,5.554,2.455,1.786,1.259,3.634,2.562,5.88,2.562,1.485,0,2.92-1,4.437-2.056A12.574,12.574,0,0,1,49.868.536a.943.943,0,0,1,.355,1.852l-.025,0a11.068,11.068,0,0,0-4.083,2.116C44.425,5.685,42.678,6.9,40.6,6.9,37.754,6.9,35.566,5.358,33.633,4c-1.606-1.132-2.993-2.11-4.469-2.11-1.883,0-2.834.916-4.04,2.076A9.218,9.218,0,0,1,18,7.122Z" transform="translate(0.373 0) rotate(3)" fill="#fff"/>
      </g>
      <g id="Group_2228" data-name="Group 2228" transform="translate(522.829 516.257)">
        <path id="Path_3100" data-name="Path 3100" d="M529.212,551.426a1.151,1.151,0,0,1-.9-1.87c2.533-3.166,5.232-6.27,8.089-9.556,1.595-1.834,3.21-3.691,4.82-5.588a1.151,1.151,0,0,1,1.755,1.49c-1.615,1.9-3.238,3.769-4.838,5.609-2.842,3.268-5.526,6.354-8.03,9.483A1.146,1.146,0,0,1,529.212,551.426Z" transform="translate(-528.061 -534.006)" fill="#fff"/>
      </g>
      <g id="Group_2079" data-name="Group 2079" transform="translate(597.388 554.673)">
        <path id="Path_2780" data-name="Path 2780" d="M647.222,602.927a.8.8,0,0,1-1.152.9,202.344,202.344,0,0,0-19.458-8.916.8.8,0,0,1-.259-1.346c4.41-4.019,8.578-7.993,13.567-12.772a.8.8,0,0,1,1.319.33C643.589,588.3,645.435,595.73,647.222,602.927Zm-18.828-9.053c5.185,2.032,11.8,5.146,16.84,7.715-1.545-6.214-3.163-12.579-5.131-18.752-4.237,4.058-7.911,7.55-11.71,11.036Z" transform="translate(-626.09 -580.569)" fill="#fff"/>
      </g>
      <path id="Path_3101" data-name="Path 3101" d="M656.178,504.873" transform="translate(-23.928 -9.432)" fill="none" stroke="#313131" stroke-miterlimit="10" stroke-width="1"/>
    </g>
  </g>
</svg>
