<?xml version="1.0" encoding="utf-8"?>
<!-- Generator: Adobe Illustrator 25.2.3, SVG Export Plug-In . SVG Version: 6.00 Build 0)  -->
<svg version="1.1" id="圖層_1" xmlns="http://www.w3.org/2000/svg" xmlns:xlink="http://www.w3.org/1999/xlink" x="0px" y="0px"
	 viewBox="0 0 141.7 141.7" style="enable-background:new 0 0 141.7 141.7;" xml:space="preserve">
<style type="text/css">
	.st0{fill:#313131;}
	.st1{fill:#FFC517;}
	.st2{fill:none;}
	.st3{font-family:'Montserrat-Bold';}
	.st4{font-size:15px;}
	.st5{fill:#019E96;}
	.st6{fill:#FF8E9E;}
	.st7{fill:none;stroke:#FCF4D7;stroke-width:3;stroke-linecap:round;}
	.st8{fill:none;stroke:#FCF4D7;stroke-width:3;stroke-linecap:round;stroke-linejoin:round;}
</style>
<g id="Group_3307" transform="translate(-469 -1480.288)">
	<g id="Group_2856" transform="translate(134.368 810.402)">
		<path id="Rectangle_1454" class="st0" d="M382.5,673.7h46c7.4,0,13.3,6,13.3,13.3v107.4c0,7.4-6,13.3-13.3,13.3h-46
			c-7.4,0-13.3-6-13.3-13.3V687.1C369.2,679.7,375.1,673.7,382.5,673.7z"/>
		<path id="Rectangle_1455" class="st1" d="M382.3,677.2h46.3c5.7,0,10.3,4.6,10.3,10.3V794c0,5.7-4.6,10.3-10.3,10.3h-46.3
			c-5.7,0-10.3-4.6-10.3-10.3V687.5C372.1,681.8,376.7,677.2,382.3,677.2z"/>
		<path id="Rectangle_1456" class="st0" d="M392.3,674.6h26.5l0,0v4.4c0,1.7-1.3,3-3,3h-20.5c-1.7,0-3-1.3-3-3V674.6L392.3,674.6z"
			/>
		<g id="Group_2854" transform="translate(359.166 682.704)">
			<rect id="Rectangle_1457" x="17.4" y="3.8" class="st0" width="6" height="0.7"/>
			<rect id="Rectangle_1458" x="17.4" y="5.7" class="st0" width="6" height="0.7"/>
			<rect id="Rectangle_1459" x="17.4" y="7.5" class="st0" width="6" height="0.7"/>
		</g>
		<g id="Group_2855" transform="translate(376.968 796.279)">
			<line id="Line_215" class="st2" x1="18.3" y1="4.9" x2="37" y2="4.9"/>
			<path id="Path_4191" class="st0" d="M18.3,5.9H37c0.6,0,1-0.5,1-1c0-0.5-0.4-1-1-1H18.3c-0.6,0-1,0.5-1,1
				C17.4,5.4,17.8,5.9,18.3,5.9z"/>
		</g>
	</g>
	<text transform="matrix(1 0 0 1 540.3661 1539.8427)" class="st3 st4">¥</text>
	<text transform="matrix(1 0 0 1 519.3661 1552.8427)" class="st3 st4">R</text>
	<text transform="matrix(1 0 0 1 545.3661 1574.8427)" class="st3 st4">$</text>
	<circle id="Ellipse_334" class="st5" cx="580.9" cy="1585.3" r="12.5"/>
	<circle id="Ellipse_627" class="st6" cx="498.9" cy="1567.3" r="12.5"/>
	<circle id="Ellipse_628" class="st6" cx="567.9" cy="1515.3" r="12.5"/>
	<path id="Path_3354" class="st7" d="M573.6,1591.3h14.5"/>
	<path id="Path_4193" class="st7" d="M506.1,1561.4h-14.5"/>
	<path id="Path_4195" class="st7" d="M575.1,1509.4h-14.5"/>
	<path id="Path_3355" class="st8" d="M572.9,1580.8l8.2,7.7l7.1-7.7"/>
	<path id="Path_4192" class="st8" d="M506.9,1571.9l-8.2-7.7l-7.1,7.7"/>
	<path id="Path_4194" class="st8" d="M575.9,1519.9l-8.2-7.7l-7.1,7.7"/>
</g>
</svg>
