<?xml version="1.0" encoding="utf-8"?>
<!-- Generator: Adobe Illustrator 25.2.3, SVG Export Plug-In . SVG Version: 6.00 Build 0)  -->
<svg version="1.1" id="圖層_1" xmlns="http://www.w3.org/2000/svg" xmlns:xlink="http://www.w3.org/1999/xlink" x="0px" y="0px"
	 viewBox="0 0 1367 106.5" style="enable-background:new 0 0 1367 106.5;" xml:space="preserve">
<style type="text/css">
	.st0{fill:#FCC35A;}
</style>
<path id="Subtraction_22" class="st0" d="M226.9,106.5c-24.5,0-48.4-0.6-71.1-1.9c-21.1-1.2-41.7-2.9-61.2-5.1
	c-34.5-4-66.3-9.6-94.5-16.8V0h1367v57.4c-55.7-6.1-112-11-167.3-14.4c-65.9-4-131.2-6.1-194.2-6.1c-33.6,0-67,0.6-99.5,1.7
	c-34.5,1.2-68.8,3.1-101.9,5.6c-35,2.7-69.7,6.1-103.2,10.2C665.8,58.8,631,64,597.7,69.9c-36.9,6.5-73.4,12.3-108.4,17.1
	c-33.3,4.6-66.2,8.4-97.7,11.3c-29.8,2.8-59.2,4.9-87.3,6.3C277.8,105.8,251.7,106.5,226.9,106.5z"/>
</svg>
