<svg xmlns="http://www.w3.org/2000/svg" xmlns:xlink="http://www.w3.org/1999/xlink" width="210" height="170" viewBox="0 0 210 170">
  <defs>
    <clipPath id="clip-path">
      <rect x="20" y="24" width="210" height="170" fill="none"/>
    </clipPath>
  </defs>
  <g id="Group_3316" data-name="Group 3316" transform="translate(-2358 2268.275)">
    <g id="Scroll_Group_32" data-name="Scroll Group 32" transform="translate(2338 -2292.275)" clip-path="url(#clip-path)" style="isolation: isolate">
      <path id="Path_4556" data-name="Path 4556" d="M106.5,0C165.318,0,213,36.489,213,81.5S165.318,163,106.5,163,0,126.511,0,81.5,47.682,0,106.5,0Z" transform="translate(46.779) rotate(17)" fill="#cbeeff"/>
    </g>
    <g id="Group_3314" data-name="Group 3314" transform="translate(2579.346 -3204.182)">
      <path id="Path_4257" data-name="Path 4257" d="M-72.837,1006.677A54.765,54.765,0,0,0-127.6,951.911a54.766,54.766,0,0,0-54.765,54.766v7.97c-2.262,4.773-10.632,12.98-12.449,16.626s-1.742,8.755,5.21,9.642l7.124-.788h.136c0,.263-.02.523-.02.788,0,26.95,19.473,45.392,45.113,49.954v5.49c0,17.789,64.417,17.789,64.417,0v-53.613c0-.791-.062-1.565-.118-2.341.07-1.138.118-2.281.118-3.435,0-.265-.016-.525-.019-.788h.019Z" transform="translate(5.471 -10.004)" fill="#ffc517"/>
      <circle id="Ellipse_652" data-name="Ellipse 652" cx="22.344" cy="22.344" r="22.344" transform="translate(-87.906 997.18)" fill="#ff8e9e"/>
      <circle id="Ellipse_653" data-name="Ellipse 653" cx="22.344" cy="22.344" r="22.344" transform="translate(-135.328 945.956)" fill="#019e96"/>
      <circle id="Ellipse_654" data-name="Ellipse 654" cx="22.344" cy="22.344" r="22.344" transform="translate(-153.604 1010.887)" fill="#fff"/>
      <g id="Group_2874" data-name="Group 2874" transform="translate(-120.001 954.456)">
        <path id="Path_4258" data-name="Path 4258" d="M-97.5,963.921a6.485,6.485,0,0,1-2.265,2.328,7.882,7.882,0,0,1-3.541,1.133v2.55h-2.046v-2.55a8.331,8.331,0,0,1-4.784-1.857,5.215,5.215,0,0,1-1.825-4.154h3.839a3.418,3.418,0,0,0,.786,2.03,3.236,3.236,0,0,0,1.984,1.023V957.5a25.279,25.279,0,0,1-3.431-1.086,5.5,5.5,0,0,1-2.25-1.747,5.208,5.208,0,0,1-.928-3.273,5.683,5.683,0,0,1,1.825-4.327,7.85,7.85,0,0,1,4.784-2V942.52h2.046v2.549a7.537,7.537,0,0,1,4.453,1.746,5.923,5.923,0,0,1,1.9,4.108h-3.84a3.084,3.084,0,0,0-.755-1.747,3.349,3.349,0,0,0-1.762-1.054v6.8a23.188,23.188,0,0,1,3.43,1.055,5.432,5.432,0,0,1,2.235,1.731,5.211,5.211,0,0,1,.912,3.257A5.987,5.987,0,0,1-97.5,963.921Zm-10.04-10.7a5.565,5.565,0,0,0,2.188,1.165v-6.358a3.481,3.481,0,0,0-2.156.976,3.01,3.01,0,0,0-.8,2.2A2.623,2.623,0,0,0-107.541,953.22Zm6.4,10.087a3.161,3.161,0,0,0,.788-2.156,2.537,2.537,0,0,0-.772-1.967,5.7,5.7,0,0,0-2.187-1.149v6.389A3.508,3.508,0,0,0-101.136,963.308Z" transform="translate(111.962 -942.52)"/>
      </g>
      <g id="Group_2875" data-name="Group 2875" transform="translate(-140.204 1022.206)">
        <path id="Path_4259" data-name="Path 4259" d="M-120.738,1043.457h3.966v2.581l-5.319.063-.976,1.857v.944h6.295v2.582h-6.295v4.406h-3.588v-4.406h-6.295V1048.9h6.295v-.944l-.976-1.857-5.319-.063v-2.581h3.934l-4.909-9.443h4l5.035,10.669,5.036-10.669h4.028Z" transform="translate(133.925 -1034.014)"/>
      </g>
      <g id="Group_2876" data-name="Group 2876" transform="translate(-73.488 1008.362)">
        <path id="Path_4260" data-name="Path 4260" d="M-47.026,1040.213l-5.035-8.749H-54.8v8.749h-3.589V1018.34h7.554a9.394,9.394,0,0,1,4.264.881,6.11,6.11,0,0,1,2.613,2.36,6.427,6.427,0,0,1,.866,3.305,6.549,6.549,0,0,1-1.244,3.886,6.307,6.307,0,0,1-3.824,2.377l5.413,9.064ZM-54.8,1028.6h3.966a4.156,4.156,0,0,0,3.037-1.008,3.626,3.626,0,0,0,1.023-2.706,3.5,3.5,0,0,0-1.007-2.66,4.281,4.281,0,0,0-3.052-.959H-54.8Z" transform="translate(58.388 -1018.34)"/>
      </g>
      <path id="Path_4261" data-name="Path 4261" d="M-154.1,1000.929h19.039a1.326,1.326,0,0,0,0-2.65H-154.1a1.326,1.326,0,0,0,0,2.65Z" transform="translate(-3.773 -7.635)"/>
      <path id="Path_4262" data-name="Path 4262" d="M-62.4,975.667h19.04a1.326,1.326,0,0,0,0-2.65H-62.4a1.326,1.326,0,0,0,0,2.65Z" transform="translate(-17.481 7.526)"/>
      <path id="Path_4263" data-name="Path 4263" d="M-142,1007.87v-19.04a1.326,1.326,0,0,0-2.65,0v19.04a1.326,1.326,0,0,0,2.65,0Z" transform="translate(-5.026 -6.382)"/>
      <path id="Path_4264" data-name="Path 4264" d="M-77.078,1085.7a6.932,6.932,0,0,1-4.484,6.443A6.953,6.953,0,0,1-89.3,1090a6.922,6.922,0,0,1-.533-7.828,6.913,6.913,0,0,1,7.106-3.235,6.947,6.947,0,0,1,5.647,6.761,1.326,1.326,0,0,0,2.65,0,9.653,9.653,0,0,0-6.225-8.924,9.55,9.55,0,0,0-10.585,2.83,9.617,9.617,0,0,0-.881,10.957,9.636,9.636,0,0,0,9.99,4.473,9.607,9.607,0,0,0,7.7-9.336A1.326,1.326,0,0,0-77.078,1085.7Z" transform="translate(-18.952 -10.733)"/>
      <path id="Path_4265" data-name="Path 4265" d="M-84.4,1004.986c-.045,1.123-1.483,1.849-2.351,2.266a18.958,18.958,0,0,1-5.887,1.547c-4.315.525-9.2.384-13.262-1.32-.937-.392-2.629-1.127-2.835-2.29-.178-1.01,1.026-1.759,1.764-2.175,3.664-2.064,8.52-2.263,12.609-2a22.707,22.707,0,0,1,6.969,1.42c1.018.409,2.941,1.226,2.994,2.551.051,1.274,2.038,1.281,1.987,0-.16-4.006-6.2-5.223-9.224-5.668-5.129-.755-11.153-.619-15.888,1.742-1.365.68-2.84,1.76-3.158,3.349a3.87,3.87,0,0,0,1.92,3.762,15.336,15.336,0,0,0,6.178,2.306,33.3,33.3,0,0,0,8.807.424,22.409,22.409,0,0,0,8.149-1.99c1.568-.782,3.142-2.038,3.217-3.925C-82.358,1003.707-84.345,1003.708-84.4,1004.986Z" transform="matrix(0.985, 0.174, -0.174, 0.985, 164.815, 34.329)"/>
      <path id="Path_4266" data-name="Path 4266" d="M-85.674,1011.37c-.687.94-2.545.643-3.49.473a20.822,20.822,0,0,1-6.062-2.27c-3.717-1.99-7.586-4.787-9.842-8.432-.493-.8-1.327-2.172-.926-3.166.422-1.042,2.065-.931,2.953-.839,4.352.454,8.7,3.153,12,5.865a21.094,21.094,0,0,1,4.521,4.829c.585.921,1.515,2.451.845,3.539s1.046,2.091,1.716,1c2-3.242-2.073-7.484-4.194-9.477-3.843-3.612-9.04-6.955-14.361-7.681-1.576-.215-3.5-.193-4.689,1.039a3.845,3.845,0,0,0-.488,4.063,15.156,15.156,0,0,0,3.591,5.157,32.833,32.833,0,0,0,6.812,5.223,22.966,22.966,0,0,0,8.281,3.171c1.841.251,3.867.119,5.048-1.494C-83.2,1011.34-84.926,1010.348-85.674,1011.37Z" transform="matrix(0.985, 0.174, -0.174, 0.985, 164.428, 34.711)"/>
    </g>
  </g>
</svg>
