<svg xmlns="http://www.w3.org/2000/svg" width="212" height="212" viewBox="0 0 212 212">
  <g id="Group_3329" data-name="Group 3329" transform="translate(3199 2016)">
    <rect id="Rectangle_1562" data-name="Rectangle 1562" width="212" height="212" transform="translate(-3199 -2016)" fill="none"/>
    <g id="Group_3322" data-name="Group 3322" transform="translate(-3653.031 -4975.001)">
      <text id="_" data-name="$" transform="matrix(0.978, -0.208, 0.208, 0.978, 488.75, 3098.456)" fill="#313131" font-size="39" font-family="SourceHanSansTW-Bold, Source Han Sans TW" font-weight="700"><tspan x="0" y="0">$</tspan></text>
      <text id="_2" data-name="$" transform="translate(593.854 3062.134) rotate(22)" fill="#313131" font-size="39" font-family="SourceHanSansTW-Bold, Source Han Sans TW" font-weight="700"><tspan x="0" y="0">$</tspan></text>
      <g id="Group_2852" data-name="Group 2852" transform="translate(947.625 2211.877)">
        <rect id="Rectangle_1446" data-name="Rectangle 1446" width="74.627" height="137.667" rx="13.334" transform="translate(-429.826 784.091)" fill="#313131"/>
        <rect id="Rectangle_1447" data-name="Rectangle 1447" width="68.695" height="130.545" rx="10.283" transform="translate(-426.86 787.652)" fill="#019e96"/>
        <path id="Rectangle_1448" data-name="Rectangle 1448" d="M0,0H27.184a0,0,0,0,1,0,0V4.564a3,3,0,0,1-3,3H3a3,3,0,0,1-3-3V0A0,0,0,0,1,0,0Z" transform="translate(-406.105 784.975)" fill="#313131"/>
        <g id="Group_2850" data-name="Group 2850" transform="translate(-422.261 797.256)">
          <rect id="Rectangle_1451" data-name="Rectangle 1451" width="6.208" height="0.694" fill="#313131"/>
          <rect id="Rectangle_1452" data-name="Rectangle 1452" width="6.208" height="0.694" transform="translate(0 1.86)" fill="#313131"/>
          <rect id="Rectangle_1453" data-name="Rectangle 1453" width="6.208" height="0.694" transform="translate(0 3.72)" fill="#313131"/>
        </g>
        <rect id="Rectangle_1476" data-name="Rectangle 1476" width="60" height="14" transform="translate(-422.625 810.123)" fill="#195f5f"/>
        <rect id="Rectangle_1477" data-name="Rectangle 1477" width="14" height="4" transform="translate(-422.625 826.123)" fill="#195f5f"/>
        <rect id="Rectangle_1479" data-name="Rectangle 1479" width="30" height="4" transform="translate(-422.625 832.123)" fill="#195f5f"/>
        <rect id="Rectangle_1480" data-name="Rectangle 1480" width="60" height="4" transform="translate(-422.625 838.123)" fill="#195f5f"/>
        <rect id="Rectangle_1481" data-name="Rectangle 1481" width="60" height="4" transform="translate(-422.625 844.123)" fill="#195f5f"/>
        <rect id="Rectangle_1482" data-name="Rectangle 1482" width="60" height="4" transform="translate(-422.625 850.123)" fill="#195f5f"/>
        <rect id="Rectangle_1483" data-name="Rectangle 1483" width="60" height="4" transform="translate(-422.625 856.123)" fill="#195f5f"/>
        <rect id="Rectangle_1484" data-name="Rectangle 1484" width="60" height="4" transform="translate(-422.625 862.123)" fill="#195f5f"/>
        <rect id="Rectangle_1485" data-name="Rectangle 1485" width="60" height="4" transform="translate(-422.625 868.123)" fill="#195f5f"/>
        <rect id="Rectangle_1486" data-name="Rectangle 1486" width="60" height="4" transform="translate(-422.625 874.123)" fill="#195f5f"/>
        <rect id="Rectangle_1487" data-name="Rectangle 1487" width="60" height="4" transform="translate(-422.625 880.123)" fill="#195f5f"/>
        <rect id="Rectangle_1488" data-name="Rectangle 1488" width="60" height="4" transform="translate(-422.625 886.123)" fill="#195f5f"/>
        <rect id="Rectangle_1489" data-name="Rectangle 1489" width="60" height="4" transform="translate(-422.625 892.123)" fill="#195f5f"/>
        <rect id="Rectangle_1490" data-name="Rectangle 1490" width="60" height="4" transform="translate(-422.625 898.123)" fill="#195f5f"/>
        <rect id="Rectangle_1491" data-name="Rectangle 1491" width="60" height="4" transform="translate(-422.625 904.123)" fill="#195f5f"/>
        <rect id="Rectangle_1492" data-name="Rectangle 1492" width="60" height="4" transform="translate(-422.625 910.123)" fill="#195f5f"/>
        <rect id="Rectangle_1478" data-name="Rectangle 1478" width="14" height="4" transform="translate(-406.625 826.123)" fill="#195f5f"/>
        <g id="Group_2851" data-name="Group 2851" transform="translate(-403.977 913.899)">
          <line id="Line_214" data-name="Line 214" x2="19.176" transform="translate(1.005 1.041)" fill="#fff"/>
          <path id="Path_4190" data-name="Path 4190" d="M-400.88,926.483H-381.7a1.041,1.041,0,0,0,0-2.082H-400.88a1.041,1.041,0,0,0,0,2.082Z" transform="translate(401.886 -924.401)" fill="#313131"/>
        </g>
      </g>
    </g>
  </g>
</svg>
