<svg xmlns="http://www.w3.org/2000/svg" width="1367" height="135.225" viewBox="0 0 1367 135.225">
  <g id="Group_3285" data-name="Group 3285" transform="translate(11196.5 3244.724)">
    <path id="Subtraction_17" data-name="Subtraction 17" d="M1732.5,401.073H365.5V305.566c30.249,4.53,61.6,8.761,93.169,12.573,38.357,4.632,77.394,8.686,116.027,12.049,96.142,8.37,191.048,12.613,282.081,12.613,33.549,0,67.017-.583,99.475-1.733,34.483-1.221,68.774-3.116,101.921-5.63,35.034-2.658,69.744-6.082,103.164-10.176,35.174-4.309,69.9-9.479,103.205-15.368,36.93-6.53,73.4-12.267,108.4-17.051,33.315-4.555,66.171-8.366,97.653-11.328,29.848-2.809,59.231-4.926,87.334-6.293,26.532-1.291,52.587-1.945,77.443-1.945,33.941,0,66.62,1.217,97.129,3.619V401.072Z" transform="translate(-11562 -3518)" fill="#ffc517"/>
    <path id="Subtraction_21" data-name="Subtraction 21" d="M1585.5,89.277H218.5V21.561a754.45,754.45,0,0,1,92-15.283c18.63-2.007,38.3-3.554,58.449-4.6C390.491.565,413.132,0,436.242,0c24.856,0,50.911.654,77.443,1.944,28.1,1.367,57.483,3.485,87.33,6.293,31.5,2.964,64.352,6.775,97.653,11.328,35,4.785,71.473,10.522,108.407,17.052,33.293,5.887,68.013,11.057,103.193,15.366,33.441,4.1,68.153,7.52,103.17,10.176,33.146,2.514,67.439,4.409,101.928,5.631,32.471,1.15,65.938,1.733,99.472,1.733,64.782,0,132-2.164,199.777-6.433,56.5-3.558,113.992-8.612,170.886-15.024V89.276Z" transform="translate(-11415 -3198.776)" fill="#fff4cc"/>
  </g>
</svg>
