<?xml version="1.0" encoding="utf-8"?>
<!-- Generator: Adobe Illustrator 25.2.3, SVG Export Plug-In . SVG Version: 6.00 Build 0)  -->
<svg version="1.1" id="圖層_1" xmlns="http://www.w3.org/2000/svg" xmlns:xlink="http://www.w3.org/1999/xlink" x="0px" y="0px"
	 viewBox="0 0 141.7 143.2" style="enable-background:new 0 0 141.7 143.2;" xml:space="preserve">
<style type="text/css">
	.st0{fill:#313131;}
	.st1{fill:url(#Path_3360_1_);}
	.st2{fill:url(#Path_3361_1_);}
	.st3{fill:url(#Path_3362_1_);}
	.st4{fill:url(#Path_3363_1_);}
	.st5{fill:#FFFFFF;}
	.st6{fill:none;stroke:#019E96;stroke-width:3;stroke-linejoin:round;}
</style>
<g id="Group_3310" transform="translate(-2156.231 3602.589)">
	<g id="Group_3309" transform="translate(747.72 -4344.816)">
		<circle id="Ellipse_337" class="st0" cx="1477.5" cy="811.2" r="46.7"/>
		
			<linearGradient id="Path_3360_1_" gradientUnits="userSpaceOnUse" x1="1186.1746" y1="1229.4846" x2="1186.0586" y2="1228.5707" gradientTransform="matrix(75.0854 0 0 -62.8837 -87583.6953 78107.1562)">
			<stop  offset="0" style="stop-color:#0052E4;stop-opacity:0"/>
			<stop  offset="1" style="stop-color:#FEC739"/>
		</linearGradient>
		<path id="Path_3360" class="st1" d="M1446.4,787.5c0,0-23.3,37.1,13.7,59c15.4,7.8,39.8,4.7,54.2-17.4"/>
		
			<linearGradient id="Path_3361_1_" gradientUnits="userSpaceOnUse" x1="1186.1515" y1="1229.7338" x2="1186.0045" y2="1228.6018" gradientTransform="matrix(76.1696 0 0 -65.4809 -88864.375 81299.9219)">
			<stop  offset="0" style="stop-color:#FF8E9E;stop-opacity:0.8"/>
			<stop  offset="1" style="stop-color:#FEC739"/>
		</linearGradient>
		<path id="Path_3361" class="st2" d="M1445.9,791.2c0,0,7.5-18.1,33-18.8c29.7-0.8,37.8,30,37.8,33.3s-4.2,9.5-15.7,7.3
			s-42.6-9.5-53,17.2s16.7-26.4,35.3-15.2s30.8,19.7,31.9,11.9s-25-32.4-66.4-9.3c-16.9,9.5-4.1-37.5,5.9-34.5"/>
		
			<linearGradient id="Path_3362_1_" gradientUnits="userSpaceOnUse" x1="1186.296" y1="1228.6022" x2="1186.1681" y2="1227.4641" gradientTransform="matrix(72.5337 0 0 -54.113 -84560.5234 67267.0625)">
			<stop  offset="0" style="stop-color:#0052E4;stop-opacity:0"/>
			<stop  offset="1" style="stop-color:#FEC739"/>
		</linearGradient>
		<path id="Path_3362" class="st3" d="M1480.7,780.2c0,0-7,31.9-10.7,34s-25.5,14.7-25.5,14.7s3.1,0.3,3.1,4.9s24.2-26.1,38.7-24.5
			s28.8,4.3,30.7-3.1s-15,12-35-6.1"/>
		
			<linearGradient id="Path_3363_1_" gradientUnits="userSpaceOnUse" x1="1189.2991" y1="1230.3776" x2="1188.9971" y2="1229.3715" gradientTransform="matrix(37.4707 0 0 -74.5402 -43089.7969 92491.7734)">
			<stop  offset="0" style="stop-color:#FF8E9E;stop-opacity:0.8"/>
			<stop  offset="1" style="stop-color:#FEC739"/>
		</linearGradient>
		<path id="Path_3363" class="st4" d="M1456.1,779.4c12-8.3,17.1-2.5,17.1-2.5c10.4,5,11,18.9,11,30.2s-5.3,30.2-1.6,38.7
			s5,0.6,3.8-6.9c-1-6.1-22.6-26.3-30.9-33.9c-3.5-3.1-5.6-7.4-6.1-12C1449.2,788.5,1450.4,783.4,1456.1,779.4z"/>
		<g id="Group_2336" transform="translate(1461.797 788.84)">
			<path id="Rectangle_294" class="st5" d="M14.4,0H17c3.9,0,7.1,3.2,7.1,7.1v17.9c0,3.9-3.2,7.1-7.1,7.1h-2.5
				c-3.9,0-7.1-3.2-7.1-7.1V7.1C7.3,3.2,10.5,0,14.4,0z"/>
			<path id="Path_3364" class="st5" d="M0.2,14.7c0,4.5-0.5,9.3,1.5,13.6c3.6,7.8,12.9,11.1,20.6,7.5c3.3-1.5,6-4.2,7.5-7.5
				c1.9-4.1,1.5-8.8,1.5-13.2c0-1-0.9-1.7-1.8-1.7c-0.9,0-1.7,0.8-1.7,1.7c0,2.2,0.1,4.4,0,6.6c-0.3,6.5-5.3,12-12,12
				s-11.7-5.5-12-12c-0.1-2.3,0-4.7,0-7c0-1-0.9-1.7-1.8-1.7C0.9,13,0.2,13.7,0.2,14.7L0.2,14.7z"/>
			<path id="Path_3365" class="st5" d="M13.9,35.4v7c0,1,0.9,1.7,1.8,1.7c0.9,0,1.7-0.8,1.7-1.7v-7c0-1-0.9-1.7-1.8-1.7
				C14.7,33.7,14,34.5,13.9,35.4z"/>
			<path id="Path_3366" class="st5" d="M5.7,44.7h20.1c1,0,1.7-0.9,1.7-1.8c0-0.9-0.8-1.7-1.7-1.7H5.7c-1,0-1.7,0.9-1.7,1.8
				C4,43.9,4.7,44.6,5.7,44.7z"/>
		</g>
	</g>
	<path id="Path_4551" class="st6" d="M2179.7-3526.7c0,0-23.4,10.7-21.8,17.8s38,5.4,74.7-7.7c36.7-13.1,65.7-28.8,63.7-35.3
		c-2-6.6-9.4-6.6-29.5-2"/>
	<path id="Path_4552" class="st6" d="M2190.9-3563.9c0,0-23.5-10.7-27.7-4.8s20.8,32.2,54.8,51.3s64.8,30.7,68.4,24.9
		c3.6-5.8-1.1-11.5-17.8-23.6"/>
</g>
</svg>
