<?xml version="1.0" encoding="utf-8"?>
<!-- Generator: Adobe Illustrator 25.2.3, SVG Export Plug-In . SVG Version: 6.00 Build 0)  -->
<svg version="1.1" id="圖層_1" xmlns="http://www.w3.org/2000/svg" xmlns:xlink="http://www.w3.org/1999/xlink" x="0px" y="0px"
	 viewBox="0 0 350 239.7" style="enable-background:new 0 0 350 239.7;" xml:space="preserve">
<style type="text/css">
	.st0{fill:#9FD2EA;}
	.st1{fill:#FEC739;}
	.st2{fill:#FFFFFF;}
	.st3{fill:#313131;}
	.st4{fill:#019E96;}
	.st5{fill:none;stroke:#313131;stroke-width:2;stroke-linecap:round;stroke-miterlimit:10;}
	.st6{fill:none;stroke:#313131;stroke-width:3;stroke-linecap:round;stroke-miterlimit:10;}
	.st7{fill:#FF8E9E;}
	.st8{font-family:'Montserrat-Bold';}
	.st9{font-size:8px;}
	.st10{font-size:7px;}
</style>
<g id="Group_3303" transform="translate(-2419 4588.49)">
	<path id="Subtraction_18" class="st0" d="M2419-4398.6v-368.9h350v319.7c-8.3,1.6-16.7,3.3-25.2,5c-52.3,10.6-107,19.8-162.6,27.2
		C2528.8-4408.5,2474.2-4402.8,2419-4398.6z"/>
	<g id="Group_3302" transform="translate(1249.194 -7648.304)">
		<g id="Group_2862" transform="translate(1193.576 3093.199)">
			<path id="Path_4226" class="st1" d="M104.7,83c0,0,27.2,0,27-8.5c-0.1-3.7,28-1.7,28-1.7s2.3,6.1,17.3,6.8
				c9.1,11.3,2.4,33,2.4,33l-45.1,8.1l-29.9-16.1L104.7,83z"/>
			<path id="Path_3300" class="st2" d="M87.3,205.4c20,0.9,96.8-2.1,112.3,0c2.3,0.2,3.7-22.6,3.9-24.9c0-0.2,0-0.5,0-0.7
				c-0.1-3-0.3-5.9-0.5-8.8c8.6-0.5,15.9-2.9,23.5-2.9c3.6,0,6-0.1,10.5-0.3c-0.6-19-3.7-33.2-10.3-51.6
				c-5.6-16-18.6-28.4-34.9-33.1c-5-1.4-9.9-2.6-14.8-3.5c-1.3,18.8-14.2,33.5-37.2,32.8c-18-0.5-29.1-13.9-35.2-29.4
				C85,88.4,69.1,95.5,49.2,107.2l-0.4,0.9c2.1,9.8,3,23.5,11,35.7c10.5-4.5,20.9-9.3,32.8-15.2C92.6,128.7,101.1,177.8,87.3,205.4z
				"/>
			<path id="Path_3297" class="st1" d="M38.4,70.8c14.9-17,30.8-29.3,52.5-42.4c5.3-3.2,11-6.5,17.2-9.9
				c-5.8,6.7-10.8,14.3-7.4,18.3c2.5,2.5,5.3,4.9,8.2,6.9c-6.2,3-13.1,3.9-19.9,4.3c-2.9,4.9-5.7,9.4-8.3,13.6l0,0
				c-12.6,20.1-23.5,31.2-41.1,48.1c-2.6,2.5,3.1,2.7,9.6-2.4c0.8,4.1,6.5,30.2,10.6,36.6c-66.1,21.5-63.1-3-56.6-20.3
				c1.9-5.3,4.5-10.3,7.8-14.9C20.5,93.4,29.2,81.2,38.4,70.8z"/>
			<g id="Group_2316" transform="translate(58.932 127.516)">
				<path id="Path_3298" class="st3" d="M28.4,78.8c0.5,0,0.9-0.3,1-0.7c7.5-24.2,9.1-46.5,5.6-77.1c-0.1-0.6-0.6-1-1.2-0.9
					c0,0,0,0,0,0c-0.1,0-0.2,0-0.3,0.1C22.7,5.4,9.3,11.3,0.6,15c-0.5,0.2-0.8,0.8-0.6,1.4c0.2,0.5,0.8,0.8,1.4,0.6c0,0,0,0,0,0
					c8.3-3.6,21.3-9.3,31.6-14.3c3.3,29.5,1.7,51.3-5.7,74.8c-0.2,0.6,0.1,1.1,0.7,1.3l0,0C28.2,78.8,28.3,78.8,28.4,78.8z"/>
			</g>
			<path id="Path_4230" class="st3" d="M194.7,115.6c0.2,10.3,0.6,20.6,1.2,30.8c0.2,4.2,0.5,8.4,0.9,12.6c0.2,2.1,3.4,2.1,3.2,0
				c-1.1-13.3-1.6-26.7-2-40c0-1.1-0.1-2.3-0.1-3.4C197.9,113.5,194.6,113.5,194.7,115.6z"/>
			<g id="Group_2318" transform="translate(47.719 83.642)">
				<path id="Path_3308" class="st3" d="M1,24.5c0.2,0,0.4,0,0.5-0.1C19,14.3,35.3,7,51.4,2c0.5-0.2,0.8-0.8,0.6-1.4
					c-0.2-0.5-0.7-0.8-1.2-0.6c-16.3,5-32.7,12.4-50.3,22.5c-0.5,0.3-0.7,0.9-0.4,1.4C0.3,24.3,0.7,24.5,1,24.5L1,24.5z"/>
			</g>
			<g id="Group_2319" transform="translate(181.059 79.552)">
				<path id="Path_3309" class="st3" d="M55.9,88.5c0.6,0,1.1-0.5,1-1.1c0,0,0,0,0,0v0C56.1,70,52.6,52.7,46.6,36.3
					C40.9,20,27.7,7.4,11,2.5C7.8,1.6,4.5,0.7,1.3,0C0.7-0.1,0.1,0.3,0,0.9c-0.1,0.5,0.2,1.1,0.8,1.2C4,2.8,7.2,3.6,10.5,4.5
					c16,4.7,28.7,16.8,34.2,32.5c5.9,16.2,9.4,33.3,10.2,50.5C54.9,88.1,55.4,88.5,55.9,88.5z"/>
			</g>
			<path id="Path_3316" class="st4" d="M193.2,37.1L179,87.2c0,0,20.3-10.2,44.3,2s53.5,23,67.2,5.2c4.7-29.1,7.5-66.7,7.5-66.7
				s-17.4,25.8-32.4,17.8s-28.8-38.1-67.6-32.9C196.5,23.5,193.2,37.1,193.2,37.1z"/>
			<g id="Group_3018" transform="translate(-2.124 -3)">
				<path id="Path_3303" class="st3" d="M162.8,52c0.1-0.3,0.3-0.6,0.4-1c1.3-3.3,2-6.7,2.1-10.3c0.4-13.2-9.9-27.4-21.9-27.8
					c-7.5-0.2-20.4,5.8-24.8,20.4c5,1.2,10.1,1.8,15.3,2c7.3,0.2,14.6-0.5,21.7-2.2c2.6,6.5,4.4,12,4.9,23.3
					C161.4,55.1,162.2,53.6,162.8,52z"/>
				<path id="Rectangle_1464" class="st1" d="M139.7,39.4L154,39c3.8-0.1,6.9,2.9,7,6.6l0,0l1.2,45.2c0.2,6.8-5.1,12.4-11.9,12.6
					c0,0,0,0,0,0l-3.5,0.1c-6.8,0.2-12.4-5.1-12.6-11.9L133,46.4C132.9,42.6,135.9,39.5,139.7,39.4L139.7,39.4z"/>
				<circle id="Ellipse_642" class="st1" cx="137" cy="37.8" r="23.8"/>
				<circle id="Ellipse_643" class="st1" cx="137.4" cy="50.9" r="23.8"/>
				
					<rect id="Rectangle_1465" x="113.4" y="37.8" transform="matrix(0.9996 -2.699016e-02 2.699016e-02 0.9996 -1.1429 3.7188)" class="st1" width="47.6" height="12.8"/>
				<circle id="Ellipse_644" class="st3" cx="118.6" cy="43.8" r="2.8"/>
				<circle id="Ellipse_645" class="st3" cx="139.1" cy="44.3" r="2.8"/>
				<path id="Path_4227" class="st3" d="M127.1,42.7l-1,10.6l-0.1,1.5c-0.1,0.6,0.6,1.1,1.2,1.1l2.8,0.1c1.5,0,1.4-2.2-0.1-2.3
					l-2.8-0.1l1.2,1.1l1-10.6l0.1-1.5c0-0.6-0.5-1.1-1.2-1.1C127.6,41.6,127.1,42.1,127.1,42.7L127.1,42.7z"/>
				<path id="Path_4228" class="st3" d="M129.6,63.3c2.7,0.4,6,0,7.7-2.3c0.3-0.6,0.1-1.2-0.4-1.5c-0.6-0.3-1.2-0.1-1.5,0.5
					c0.2-0.3,0,0-0.1,0c-0.1,0.1-0.1,0.1-0.2,0.2c-0.2,0.2-0.1,0,0,0c0,0-0.2,0.1-0.2,0.2c-0.1,0.1-0.3,0.2-0.4,0.3
					c-0.3,0.1,0.1,0-0.1,0c-0.1,0-0.1,0.1-0.2,0.1c-0.3,0.1-0.7,0.2-1.1,0.3c-0.1,0-0.2,0-0.3,0.1c0.1-0.1,0.2,0,0,0
					c-0.2,0-0.3,0-0.5,0.1c-0.6,0-1.1,0.1-1.7,0c-0.2,0-0.4,0-0.5,0c-0.2,0,0.4,0,0.1,0l-0.1,0c-0.6-0.1-1.2,0.2-1.4,0.8
					C128.7,62.5,129,63.1,129.6,63.3L129.6,63.3z"/>
				
					<ellipse id="Ellipse_646" transform="matrix(0.9243 -0.3818 0.3818 0.9243 -2.9426 64.8363)" class="st1" cx="161.9" cy="39.8" rx="7.4" ry="5.2"/>
				<g id="Group_2321" transform="translate(111.477 37.369)">
					<path id="Path_3311" class="st2" d="M0,5.8C0,4,0.8,2.6,2.7,1c0.8-0.6,1.9-1,2.9-1C5.8,0,6,0,6.2,0c3.9,0.2,6.9,3.6,6.7,7.5
						c0,2.7-1.9,5.4-6.3,5.4C3.3,12.9,0,10.7,0,5.8z M5.9,2.2c-0.6,0-1.2,0.2-1.8,0.5C2.3,4.1,2.2,5,2.2,5.8c0,3.6,2.3,4.9,4.4,4.9
						c3,0,4.1-1.7,4.1-3.2c0-3.2-2.3-5.3-4.5-5.3C6.1,2.2,6,2.2,5.9,2.2L5.9,2.2z"/>
				</g>
				<g id="Group_2322" transform="translate(121.021 38.708)">
					<path id="Path_3312" class="st2" d="M12.8,4.9c0.6,0,1.1-0.5,1.1-1.1c0-0.2-0.1-0.5-0.2-0.7C11.9,1,9.2-0.1,6.5,0
						C4.4,0,2.3,0.5,0.5,1.6C0,1.9-0.2,2.6,0.1,3.1c0.3,0.5,1,0.7,1.5,0.4l0,0c0,0,0,0,0.1,0c1.5-0.8,3.1-1.3,4.8-1.3
						c2.1-0.1,4.1,0.7,5.5,2.3C12.2,4.8,12.5,4.9,12.8,4.9z"/>
				</g>
				<g id="Group_2320" transform="translate(133.148 38.16)">
					<path id="Path_3310" class="st2" d="M0,6.1C0.3,2.7,3.1,0,6.5,0c0.6,0,1.2,0.1,1.9,0.2C12,0.7,13.6,4,13.6,7.1
						c0.1,3.4-2.5,6.2-5.8,6.5C3.5,13.7,0.1,10.3,0,6.1z M2.2,6.1c0.1,3,2.6,5.4,5.6,5.4c2.2-0.3,3.7-2.2,3.6-4.3
						c0-2.1-1-4.4-3.4-4.8C7.5,2.2,7,2.2,6.5,2.2C4.3,2.2,2.4,3.8,2.2,6.1L2.2,6.1z"/>
				</g>
				<path id="Path_4229" class="st3" d="M145.2,35.6c0,0,10.1,8,10.8,10.7l2.3-0.3c0,0-0.6-10.3,2.6-11.4s-1.8-6.8-1.8-6.8
					L145.2,35.6z"/>
				<path id="Path_3305" class="st4" d="M112.7,33.8c0,0,7.6-25.2,29-22.9s22,19.9,22,19.9S131.4,42.7,112.7,33.8z"/>
				<path id="Path_3306" class="st3" d="M145.2,35.6c0,0-29.8,6-41.8-7C92.9,17.3,97.7-3.2,114.5,0.4S119.4,27.7,145.2,35.6z"/>
				<g id="Group_2323" transform="translate(143.933 30.497)">
					<path id="Path_3313" class="st2" d="M1.1,11c0.3,0,0.6-0.1,0.8-0.3c1.6-1.6,2.9-3,4-4.1c3.3-3.4,4.3-4.4,5.9-4.4
						c1.4,0.1,2.7,0.7,3.6,1.7c0.4,0.4,1.1,0.5,1.5,0.1c0.4-0.4,0.5-1.1,0.1-1.5C15.7,1,13.8,0.1,11.8,0C9.1,0,7.6,1.6,4.3,5.1
						c-1.1,1.1-2.4,2.5-4,4.1c-0.4,0.4-0.4,1.1,0,1.5C0.5,10.9,0.8,11,1.1,11L1.1,11z"/>
				</g>
				<path id="Path_4231" class="st5" d="M133.9,83.7c0,0,17.8,2,27.9-2.9"/>
			</g>
			<path id="Path_4232" class="st2" d="M242.7,41.3c-12.4,0-22.4,10-22.4,22.4c0,12.4,10,22.4,22.4,22.4c12.4,0,22.4-10,22.4-22.4
				l0,0C265.1,51.3,255.1,41.3,242.7,41.3z M263.6,60.7c-0.7,0.6-1.4,1.1-1.5,2s0.5,1.6,0.4,2.4c-0.2,1.2-1.7,1.7-2.3,2.8
				s-0.1,2.5-0.3,3.8c-0.2,2.5-2.8,4.1-3.6,6.5c-0.2,0.4-0.3,1-0.7,1.1c-0.6,0.3-1.2-0.3-1.6-0.7c-1.1-1.1-1.9-2.5-2.3-4
				c0-1.2,0-2.3,0.2-3.5c0-1.5-0.5-2.9-1.4-4.1c-0.3-0.5-0.9-0.9-1.5-1c-0.6,0.1-1.2,0.3-1.8,0.6c-0.9,0.3-2,0.3-2.9-0.1
				c-0.9-0.4-1.8-0.9-2.5-1.5c-0.7-0.4-1.2-0.9-1.7-1.6c-0.5-0.6-0.6-1.5-0.3-2.2c0.3-0.7,1-1.1,1.4-1.8s0.4-1.7,1-2.3
				c0.7-0.9,2.2-1,2.5-2.1c0.2-0.8-0.5-1.6-0.7-2.4c-0.1-0.8,0.1-1.5,0.7-2.1c0.5-0.5,1.2-0.9,2-1.1c0.8-0.2,1.8-0.4,2.1-1.2
				s-0.3-1.6,0.3-2.3c0.3-0.3,0.6-0.5,0.9-0.6c0.3-0.2,0.7-0.3,1-0.3c0.3,0,0.6-0.1,0.9-0.2c0.1,0,0.1-0.1,0.1-0.1
				C258.2,47.7,262.6,53.7,263.6,60.7L263.6,60.7z M245.2,42.7c-0.7,1.5-2.2,2.4-3.8,2.6c-0.5,0-1,0-1.5,0.1
				c-1.6,0.4-2.3,2.4-4.2,2.2c-0.1,0-0.2-0.1-0.3-0.2c0-0.1,0-0.2,0-0.4l0.7-2.2c-0.9-0.3-1.8-0.3-2.8-0.1c2.9-1.4,6.1-2.2,9.3-2.1
				C243.5,42.5,244.4,42.6,245.2,42.7z M232.3,45.3l1.6,0.5c0.1,0.4-0.3,0.8-0.7,1c-0.4,0.1-0.8,0.4-1.1,0.7c-0.9,1.1,1.1,3,0.1,4.1
				c-1.6,1-2-2-2.7,0.7c-0.3,1.2-1.7,1.3-2.5,1.9c-0.7,0.6-1.3,1.3-1.7,2.1c-0.6,1-2.8,2.7-3.4,4.4
				C222.7,54.2,226.6,48.5,232.3,45.3L232.3,45.3z M226.3,77v-0.2c0-0.8,0-1.6-0.2-2.4c-0.4-0.7-0.9-1.4-1.4-2
				c-1.3-1.7-1.4-3.9-1.4-5.9c0-0.4-0.6-1.1-0.8-1.4s-0.5-0.7-0.6-1.1c-0.1-0.2-0.2-0.3-0.2-0.4c0-0.6,0-1.2,0.1-1.8
				c0.2,0.7,0.6,1.2,1.2,1.5c1.2,0.7,2.8-0.2,4,0.4c1.6,0.8,2.3,2.8,3.9,3.7c0.7,0.3,1.5,0.6,2.3,0.8c0.7,0.2,1.3,0.6,1.9,1.1
				c0.5,0.3,0.8,0.9,0.8,1.5c-0.1,0.6-0.6,1.1-0.8,1.7c-0.3,0.8,0.2,1.8-0.2,2.6s-1.8,1-2.1,1.9c-0.3,0.6,0,1.3,0,2
				c-0.1,0.6-0.3,1.3-0.6,1.9c-0.1,0.4-0.2,0.8-0.2,1.1C229.8,80.6,227.9,79,226.3,77L226.3,77z"/>
			<path id="Path_4233" class="st3" d="M263.8,62.9c3.3,1.4,7.2,3.1,9.6,5.9c0.5,0.6,0.9,1.3,0.7,1.8c0.1-0.1-0.1,0.2-0.2,0.3
				c-0.2,0.3-0.5,0.5-0.8,0.6c-2.1,1-4.4,1.5-6.7,1.5c-3.7,0.3-7.4,0.2-11.2-0.2c-9.2-0.8-18.2-2.6-26.9-5.5
				c-3.5-1.1-6.9-2.5-10.2-4.1c-2.3-1-4.4-2.5-6.3-4.2c-0.3-0.3-0.5-0.6-0.8-1c-0.1-0.2-0.2-0.4-0.3-0.7c0-0.2,0-0.4,0.1-0.5
				c0.3-0.3,0.6-0.6,0.9-0.8c3.2-1.9,7.8-1.8,11.4-1.7c0.9,0,1.6-0.8,1.6-1.7c0-0.9-0.7-1.6-1.6-1.6c-4.1,0-8.5,0.1-12.3,1.8
				c-2.2,1-4,3-3.2,5.6c0.7,2.3,2.9,4,4.8,5.3c3.2,2,6.6,3.7,10.2,5c9.6,3.6,19.7,6,30,7c4.4,0.5,8.8,0.7,13.2,0.4
				c2.9-0.2,6.2-0.5,8.8-2c2.4-1.3,3.5-3.9,2.2-6.4c-1-1.6-2.3-2.9-3.9-3.9c-2.3-1.6-4.8-2.9-7.4-4
				C263.6,59.3,261.9,62.1,263.8,62.9L263.8,62.9z"/>
			<line id="Line_117" class="st6" x1="154.2" y1="180.8" x2="197.7" y2="12.1"/>
			<path id="Path_3317" class="st1" d="M235,167.9c0,0-1.6,35.4-26.4,23.4c-11.2-5.3-22-11.5-32.2-18.6c-4.4,2.4-9.2,4.2-14.1,5.2
				c-0.4,0.1-0.7,0.2-1.1,0.2c0.1-0.2,0.3-0.5,0.4-0.7c1.7-2.9,2.4-4.7-0.3-6.3c-2.5-1.4-12.3-1.4-19.4-1.2c-0.9,0-1.7,0-2.4,0.1
				c5.5-6.7,12.4-13.6,20.8-13.2c25.9,1.1,44.3,4.6,61.3,11.4"/>
		</g>
		<g id="Group_2328" transform="translate(1450.365 3164.232)">
			<path id="Path_2787" class="st7" d="M10.2,0H9.5C8,0,6.6,0.4,5.3,1.1L4.6,1.5C3.3,2.3,2.3,3.3,1.5,4.6L1.1,5.3C0.4,6.6,0,8,0,9.5
				v0.7c0,1.5,0.4,3,1.1,4.3l0.4,0.6c0.7,1.3,1.8,2.4,3.1,3.1l0.6,0.4c1.3,0.7,2.8,1.1,4.3,1.1h0.7c1.5,0,3-0.4,4.3-1.1l0.6-0.4
				c1.3-0.7,2.4-1.8,3.1-3.1l0.4-0.6c0.7-1.3,1.1-2.8,1.1-4.3V9.5c0-1.5-0.4-3-1.1-4.3l-0.4-0.6c-0.7-1.3-1.8-2.4-3.1-3.1l-0.6-0.4
				C13.2,0.4,11.7,0,10.2,0z"/>
			<path id="Path_2788" class="st1" d="M11.3,0.3h-0.7c-1.5,0-3,0.4-4.3,1.1L5.6,1.8C4.3,2.6,3.3,3.7,2.5,5L2.2,5.6
				C1.4,6.9,1,8.4,1,9.9v0.7c0,1.5,0.4,3,1.1,4.3l0.4,0.6c0.7,1.3,1.8,2.4,3.1,3.1L6.3,19c1.3,0.7,2.8,1.1,4.3,1.1h0.7
				c1.5,0,3-0.4,4.3-1.1l0.6-0.4c1.3-0.7,2.4-1.8,3.1-3.1l0.4-0.6c0.7-1.3,1.1-2.8,1.1-4.3V9.9c0-1.5-0.4-3-1.1-4.3L19.3,5
				c-0.7-1.3-1.8-2.4-3.1-3.1l-0.6-0.4C14.2,0.7,12.8,0.3,11.3,0.3z"/>
			<ellipse id="Ellipse_259" class="st2" cx="10.9" cy="10.2" rx="7.7" ry="7.7"/>
			<path id="Path_3339" class="st3" d="M18.4,9.2c-0.1,0-0.2-0.1-0.2-0.2C17.6,5,13.7,2.2,9.7,2.8C8.1,3.1,6.6,3.9,5.4,5.1
				c-0.1,0.1-0.2,0.1-0.3,0C5.1,5,5.1,4.9,5.1,4.8l0,0h0c3-3.2,8-3.3,11.1-0.3c1.3,1.2,2.1,2.8,2.4,4.5C18.7,9.1,18.6,9.2,18.4,9.2
				C18.5,9.2,18.5,9.2,18.4,9.2L18.4,9.2z"/>
			<path id="Path_3340" class="st3" d="M10.9,18.1c-1.9,0-3.7-0.7-5.1-1.9c-0.1-0.1-0.1-0.2,0-0.3c0.1-0.1,0.2-0.1,0.3,0l0,0
				c3.1,2.7,7.8,2.4,10.5-0.8c0.7-0.8,1.2-1.7,1.5-2.7c0-0.1,0.1-0.2,0.3-0.1c0.1,0,0.2,0.1,0.1,0.3C17.3,15.8,14.3,18.1,10.9,18.1z
				"/>
			<g id="_" transform="translate(8.675 4.241)">
				<text transform="matrix(1 0 0 1 -0.234 8.468)" class="st8 st9">¥</text>
			</g>
		</g>
		<g id="Group_2328-2" transform="translate(1406.283 3120.882)">
			<path id="Path_2787-2" class="st7" d="M10.2,0H9.5C8,0,6.6,0.4,5.3,1.1L4.6,1.5C3.3,2.3,2.3,3.3,1.5,4.6L1.1,5.3
				C0.4,6.6,0,8,0,9.5v0.7c0,1.5,0.4,3,1.1,4.3l0.4,0.6c0.7,1.3,1.8,2.4,3.1,3.1l0.6,0.4c1.3,0.7,2.8,1.1,4.3,1.1h0.7
				c1.5,0,3-0.4,4.3-1.1l0.6-0.4c1.3-0.7,2.4-1.8,3.1-3.1l0.4-0.6c0.7-1.3,1.1-2.8,1.1-4.3V9.5c0-1.5-0.4-3-1.1-4.3l-0.4-0.6
				c-0.7-1.3-1.8-2.4-3.1-3.1l-0.6-0.4C13.2,0.4,11.7,0,10.2,0z"/>
			<path id="Path_2788-2" class="st1" d="M11.3,0.3h-0.7c-1.5,0-3,0.4-4.3,1.1L5.6,1.8C4.3,2.6,3.3,3.7,2.5,5L2.2,5.6
				C1.4,6.9,1,8.4,1,9.9v0.7c0,1.5,0.4,3,1.1,4.3l0.4,0.6c0.7,1.3,1.8,2.4,3.1,3.1L6.3,19c1.3,0.7,2.8,1.1,4.3,1.1h0.7
				c1.5,0,3-0.4,4.3-1.1l0.6-0.4c1.3-0.7,2.4-1.8,3.1-3.1l0.4-0.6c0.7-1.3,1.1-2.8,1.1-4.3V9.9c0-1.5-0.4-3-1.1-4.3L19.3,5
				c-0.7-1.3-1.8-2.4-3.1-3.1l-0.6-0.4C14.2,0.7,12.8,0.3,11.3,0.3z"/>
			<ellipse id="Ellipse_259-2" class="st2" cx="10.9" cy="10.2" rx="7.7" ry="7.7"/>
			<path id="Path_3339-2" class="st3" d="M18.4,9.2c-0.1,0-0.2-0.1-0.2-0.2C17.6,5,13.7,2.2,9.7,2.8C8.1,3.1,6.6,3.9,5.4,5.1
				c-0.1,0.1-0.2,0.1-0.3,0C5.1,5,5.1,4.9,5.1,4.8l0,0l0,0c3-3.2,8-3.3,11.1-0.3c1.3,1.2,2.1,2.8,2.4,4.5
				C18.7,9.1,18.6,9.2,18.4,9.2C18.5,9.2,18.5,9.2,18.4,9.2L18.4,9.2z"/>
			<path id="Path_3340-2" class="st3" d="M10.9,18.1c-1.9,0-3.7-0.7-5.1-1.9c-0.1-0.1-0.1-0.2,0-0.3c0.1-0.1,0.2-0.1,0.3,0l0,0
				c3.1,2.7,7.8,2.4,10.5-0.8c0.7-0.8,1.2-1.7,1.5-2.7c0-0.1,0.1-0.2,0.3-0.1c0.1,0,0.2,0.1,0.1,0.3C17.3,15.8,14.3,18.1,10.9,18.1z
				"/>
			<g id="_3" transform="translate(8.494 5.382)">
				<text transform="matrix(1 0 0 1 1.826563e-05 7)" class="st8 st10">$</text>
			</g>
		</g>
		<g id="Group_2328-3" transform="translate(1407.284 3156.571)">
			<path id="Path_2787-3" class="st7" d="M10.2,0H9.5C8,0,6.6,0.4,5.3,1.1L4.6,1.5C3.3,2.3,2.3,3.3,1.5,4.6L1.1,5.3
				C0.4,6.6,0,8,0,9.5v0.7c0,1.5,0.4,3,1.1,4.3l0.4,0.6c0.7,1.3,1.8,2.4,3.1,3.1l0.6,0.4c1.3,0.7,2.8,1.1,4.3,1.1h0.7
				c1.5,0,3-0.4,4.3-1.1l0.6-0.4c1.3-0.7,2.4-1.8,3.1-3.1l0.4-0.6c0.7-1.3,1.1-2.8,1.1-4.3V9.5c0-1.5-0.4-3-1.1-4.3l-0.4-0.6
				c-0.7-1.3-1.8-2.4-3.1-3.1l-0.6-0.4C13.2,0.4,11.7,0,10.2,0z"/>
			<path id="Path_2788-3" class="st1" d="M11.3,0.3h-0.7c-1.5,0-3,0.4-4.3,1.1L5.6,1.8C4.3,2.6,3.3,3.7,2.5,5L2.2,5.6
				C1.4,6.9,1,8.4,1,9.9v0.7c0,1.5,0.4,3,1.1,4.3l0.4,0.6c0.7,1.3,1.8,2.4,3.1,3.1L6.3,19c1.3,0.7,2.8,1.1,4.3,1.1h0.7
				c1.5,0,3-0.4,4.3-1.1l0.6-0.4c1.3-0.7,2.4-1.8,3.1-3.1l0.4-0.6c0.7-1.3,1.1-2.8,1.1-4.3V9.9c0-1.5-0.4-3-1.1-4.3L19.3,5
				c-0.7-1.3-1.8-2.4-3.1-3.1l-0.6-0.4C14.2,0.7,12.8,0.3,11.3,0.3z"/>
			<ellipse id="Ellipse_259-3" class="st2" cx="10.9" cy="10.2" rx="7.7" ry="7.7"/>
			<path id="Path_3339-3" class="st3" d="M18.4,9.2c-0.1,0-0.2-0.1-0.2-0.2C17.6,5,13.7,2.2,9.7,2.8C8.1,3.1,6.6,3.9,5.4,5.1
				c-0.1,0.1-0.2,0.1-0.3,0C5.1,5,5.1,4.9,5.1,4.8l0,0l0,0c3-3.2,8-3.3,11.1-0.3c1.3,1.2,2.1,2.8,2.4,4.5
				C18.6,9.1,18.6,9.2,18.4,9.2C18.5,9.2,18.5,9.2,18.4,9.2L18.4,9.2z"/>
			<path id="Path_3340-3" class="st3" d="M10.9,18.1c-1.9,0-3.7-0.7-5.1-1.9c-0.1-0.1-0.1-0.2,0-0.3c0.1-0.1,0.2-0.1,0.3,0l0,0
				c3.1,2.7,7.8,2.4,10.5-0.8c0.7-0.8,1.2-1.7,1.5-2.7c0-0.1,0.1-0.2,0.3-0.1c0.1,0,0.2,0.1,0.1,0.3l0,0
				C17.3,15.8,14.3,18.1,10.9,18.1z"/>
			<g id="_5" transform="translate(8.746 5.24)">
				<text transform="matrix(1 0 0 1 -0.347 7.48)" class="st8 st10">R</text>
			</g>
		</g>
	</g>
</g>
</svg>
