<?xml version="1.0" encoding="utf-8"?>
<!-- Generator: Adobe Illustrator 25.2.3, SVG Export Plug-In . SVG Version: 6.00 Build 0)  -->
<svg version="1.1" id="圖層_1" xmlns="http://www.w3.org/2000/svg" xmlns:xlink="http://www.w3.org/1999/xlink" x="0px" y="0px"
	 viewBox="0 0 1367 135.2" style="enable-background:new 0 0 1367 135.2;" xml:space="preserve">
<style type="text/css">
	.st0{fill:#DF4647;}
	.st1{fill:#F49690;}
</style>
<path id="Subtraction_17" class="st0" d="M0,127.8L0,3.6C30.5,1.2,63.2,0,97.1,0C122,0,148,0.7,174.6,1.9
	c28.1,1.4,57.5,3.5,87.3,6.3c31.5,3,64.3,6.8,97.7,11.3c35,4.8,71.5,10.5,108.4,17.1c33.3,5.9,68,11.1,103.2,15.4
	c33.4,4.1,68.1,7.5,103.2,10.2c33.1,2.5,67.4,4.4,101.9,5.6c32.5,1.1,65.9,1.7,99.5,1.7c91,0,185.9-4.2,282.1-12.6
	c38.6-3.4,77.7-7.4,116-12c31.6-3.8,62.9-8,93.2-12.6v95.5L0,127.8L0,127.8z"/>
<path id="Subtraction_21" class="st1" d="M0,135.2L0,94c56.9,6.4,114.4,11.5,170.9,15c67.8,4.3,135,6.4,199.8,6.4
	c33.5,0,67-0.6,99.5-1.7c34.5-1.2,68.8-3.1,101.9-5.6c35-2.7,69.7-6.1,103.2-10.2c35.2-4.3,69.9-9.5,103.2-15.4
	c36.9-6.5,73.4-12.3,108.4-17.1c33.3-4.6,66.2-8.4,97.7-11.3c29.8-2.8,59.2-4.9,87.3-6.3c26.5-1.3,52.6-1.9,77.4-1.9
	c23.1,0,45.8,0.6,67.3,1.7c20.1,1,39.8,2.6,58.4,4.6c31,3.2,61.7,8.3,92,15.3v67.7L0,135.2L0,135.2z"/>
</svg>
