<?xml version="1.0" encoding="utf-8"?>
<!-- Generator: Adobe Illustrator 25.2.3, SVG Export Plug-In . SVG Version: 6.00 Build 0)  -->
<svg version="1.1" id="圖層_1" xmlns="http://www.w3.org/2000/svg" xmlns:xlink="http://www.w3.org/1999/xlink" x="0px" y="0px"
	 viewBox="0 0 350 239.6" style="enable-background:new 0 0 350 239.6;" xml:space="preserve">
<style type="text/css">
	.st0{fill:#9FD2EA;}
	.st1{fill:#FFC517;}
	.st2{fill:#313131;}
	.st3{fill:#019E96;}
	.st4{fill:#F97253;}
	.st5{fill:#FFFFFF;}
	.st6{fill:#FF8E9E;}
	.st7{font-family:'Montserrat-Bold';}
	.st8{font-size:19px;}
</style>
<path id="Subtraction_16" class="st0" d="M350,195.7L350,195.7c-62.9-3.2-127-7.8-190.7-13.9C106,176.8,52.4,170.7,0,163.8V-138h350
	V195.7L350,195.7z"/>
<g id="Group_3300" transform="translate(1843.054 -7595.861)">
	<path id="Path_4209" class="st1" d="M-1645.3,7834.7h49.2l-21-49.5h-29.4L-1645.3,7834.7z"/>
	<path id="Path_3874" class="st2" d="M-1675.8,7738.7c-13.9,3.6-31-14.3-33.6,2.8c-2.6,17.2,10.6,76.6-9.2,72.3
		s-25.1-17.2-36.3-15.4c-47.5,6.9-59-28.1-32.2-42.7c26.7-14.5-9.4-22.1,9.5-32.7s1.6-24.6,12.7-33.3s10.7-3.3,22.8-12.5
		c12.1-9.2,4.7-21.3,15.5-31.1c22.9-19,57.2-1.9,57.2-1.9C-1633.8,7666.9-1662,7735.1-1675.8,7738.7z"/>
	<circle id="Ellipse_635" class="st3" cx="-1746.3" cy="7750.9" r="16.3"/>
	<path id="Path_4210" class="st3" d="M-1730.8,7745.8l0.3,1.4l8.3,42.3l-40.4,2.2l0.3-42"/>
	<path id="Path_4211" class="st3" d="M-1748.7,7734.8l85.4-6l39.4,105.9h-100.8l-12.9-44.7L-1748.7,7734.8z"/>
	<path id="Rectangle_1462" class="st1" d="M-1700.7,7747.8L-1700.7,7747.8c-8,0-14.5-6.5-14.5-14.5v-37.5c0-8,6.5-14.5,14.5-14.5
		l0,0c8,0,14.5,6.5,14.5,14.5v37.5C-1686.2,7741.3-1692.7,7747.8-1700.7,7747.8z"/>
	<path id="Path_4212" class="st2" d="M-1685.9,7717.5c0,0-4.6,0.8-6.9-1c6.9,11.1,6.6,11,6.6,11L-1685.9,7717.5z"/>
	<circle id="Ellipse_636" class="st1" cx="-1690.6" cy="7679.7" r="24.6"/>
	<circle id="Ellipse_637" class="st1" cx="-1690.6" cy="7693.3" r="24.6"/>
	<rect id="Rectangle_1463" x="-1715.2" y="7679.7" class="st1" width="49.2" height="13.3"/>
	<path id="Path_4213" class="st4" d="M-1779,7664.9"/>
	<circle id="Ellipse_638" class="st2" cx="-1673.6" cy="7685.1" r="2.9"/>
	<circle id="Ellipse_639" class="st2" cx="-1690.6" cy="7685.1" r="2.9"/>
	<path id="Path_4214" class="st2" d="M-1682.6,7684.5l1.3,10.9l0.2,1.5l1.2-1.2l-2.9,0.1c-1.5,0.1-1.5,2.4,0,2.3l2.9-0.1
		c0.6,0,1.3-0.5,1.2-1.2l-1.3-10.9l-0.2-1.5c0-0.6-0.5-1.2-1.2-1.2C-1682,7683.4-1682.6,7683.9-1682.6,7684.5L-1682.6,7684.5z"/>
	<path id="Path_4215" class="st2" d="M-1682.8,7703.6L-1682.8,7703.6C-1683.1,7703.6-1682.5,7703.5-1682.8,7703.6
		c-0.1,0-0.3,0-0.5,0c-0.6,0-1.2,0.1-1.8,0c-0.2,0-0.4,0-0.5,0c-0.1,0-0.2-0.1,0,0c-0.1,0-0.2,0-0.3,0c-0.4-0.1-0.7-0.2-1.1-0.3
		c-0.1,0-0.2-0.1-0.2-0.1c-0.2-0.1,0.2,0.1-0.1,0c-0.2-0.1-0.3-0.2-0.5-0.3c0,0-0.2-0.2-0.2-0.2c0.1,0,0.2,0.2,0,0
		c-0.1-0.1-0.1-0.1-0.2-0.2c-0.1-0.1-0.3-0.3-0.1,0c-0.3-0.5-1-0.7-1.6-0.4c-0.6,0.3-0.7,1-0.4,1.6c1.8,2.4,5.3,2.6,8.1,2.2
		c0.6-0.2,1-0.8,0.8-1.4C-1681.6,7703.8-1682.2,7703.4-1682.8,7703.6L-1682.8,7703.6z"/>
	
		<ellipse id="Ellipse_640" transform="matrix(0.3563 -0.9344 0.9344 0.3563 -8283.082 3341.6482)" class="st1" cx="-1716.2" cy="7682.5" rx="5.4" ry="7.6"/>
	<path id="Path_4216" class="st2" d="M-1672.7,7662.6c0,0-7.6-6.7-15.3,0.9c-3,3-9.7,18.5-28.4,13.4c-18.7-5.1,8.2-23.8,8.2-23.8
		S-1673,7645.8-1672.7,7662.6z"/>
	<circle id="Ellipse_641" class="st3" cx="-1655.7" cy="7744.1" r="17.1"/>
	<path id="Path_4217" class="st3" d="M-1641.8,7734.2l0.7,1.3l24,49.7h-43l-11-33.9"/>
	<path id="Path_4218" class="st2" d="M-1723.9,7834.4l-2-7.2l-4.9-17.2l-5.9-20.8l-5.1-18c-0.8-2.9-1.5-5.9-2.5-8.7c0,0,0-0.1,0-0.1
		c-0.1-0.4-0.6-0.7-1.1-0.6c-0.4,0.1-0.7,0.6-0.6,1l2,7.2l4.9,17.2l5.9,20.8l5.1,18c0.8,2.9,1.5,5.9,2.5,8.7c0,0,0,0.1,0,0.1
		c0.1,0.4,0.6,0.7,1,0.6C-1724,7835.3-1723.8,7834.9-1723.9,7834.4L-1723.9,7834.4z"/>
	<path id="Path_3329" class="st5" d="M-1574.7,7693.4c-20.3,7.1-40.7,13-66.2,7.3c-25.5-5.8-45,36.3-25.2,50.1s38.9,13,44.2,24.3
		c5.2,11.3,21.6,23.8,46.4,11.7s42.7-5.7,53.1-19.7c10.4-14.1-10.7-27.7-12.4-37C-1536.4,7720.6-1522,7675-1574.7,7693.4z"/>
	<g id="Group_2326" transform="translate(-50.92 3106.354)">
		<path id="Path_2787" class="st6" d="M-1541.7,4602.7h-2.2c-4.4,0-8.8,1.2-12.6,3.4l-1.9,1.1c-3.8,2.2-7,5.4-9.2,9.2l-1.1,1.9
			c-2.2,3.8-3.4,8.2-3.4,12.6v2.2c0,4.4,1.2,8.8,3.4,12.6l1.1,1.9c2.2,3.8,5.4,7,9.2,9.2l1.9,1.1c3.8,2.2,8.2,3.4,12.6,3.4h2.2
			c4.4,0,8.8-1.2,12.6-3.4l1.9-1.1c3.8-2.2,7-5.4,9.2-9.2l1.1-1.9c2.2-3.8,3.4-8.2,3.4-12.6v-2.2c0-4.4-1.2-8.8-3.4-12.6l-1.1-1.9
			c-2.2-3.8-5.4-7-9.2-9.2l-1.9-1.1C-1532.9,4603.8-1537.2,4602.7-1541.7,4602.7z"/>
		<path id="Path_2788" class="st3" d="M-1538.7,4603.7h-2.2c-4.4,0-8.8,1.2-12.6,3.4l-1.9,1.1c-3.8,2.2-7,5.4-9.2,9.2l-1.1,1.9
			c-2.2,3.8-3.4,8.2-3.4,12.6v2.2c0,4.4,1.2,8.8,3.4,12.6l1.1,1.9c2.2,3.8,5.4,7,9.2,9.2l1.9,1.1c3.8,2.2,8.2,3.4,12.6,3.4h2.2
			c4.4,0,8.8-1.2,12.6-3.4l1.9-1.1c3.8-2.2,7-5.4,9.2-9.2l1.1-1.9c2.2-3.8,3.4-8.2,3.4-12.6v-2.2c0-4.4-1.2-8.8-3.4-12.6l-1.1-1.9
			c-2.2-3.8-5.4-7-9.2-9.2l-1.9-1.1C-1529.9,4604.8-1534.2,4603.7-1538.7,4603.7z"/>
		<ellipse id="Ellipse_259" class="st5" cx="-1539.7" cy="4632.9" rx="22.7" ry="22.7"/>
		<path id="Path_3228" class="st2" d="M-1517.4,4629.9c-0.3,0-0.5-0.2-0.6-0.5c-1.9-12-13.3-20.2-25.3-18.3
			c-4.8,0.8-9.2,3.1-12.6,6.7c-0.2,0.3-0.6,0.3-0.8,0.1c-0.3-0.2-0.3-0.6-0.1-0.8c0,0,0,0,0,0l0,0c8.8-9.4,23.6-9.8,32.9-1
			c3.7,3.5,6.2,8.2,7,13.2C-1516.8,4629.5-1517,4629.8-1517.4,4629.9L-1517.4,4629.9C-1517.4,4629.9-1517.4,4629.9-1517.4,4629.9z"
			/>
		<path id="Path_3229" class="st2" d="M-1539.8,4656.2c-5.6,0-11-2-15.2-5.7c-0.2-0.2-0.2-0.6,0-0.8c0.2-0.2,0.5-0.2,0.8-0.1
			c9.2,8,23.2,7,31.2-2.2c2-2.3,3.5-5,4.4-7.9c0.1-0.3,0.5-0.5,0.8-0.4c0.3,0.1,0.5,0.4,0.4,0.7l0,0
			C-1520.6,4649.6-1529.7,4656.2-1539.8,4656.2z"/>
		<g id="_" transform="translate(25.49 17.131)">
			<text transform="matrix(1 0 0 1 -1572 4620.6729)" class="st7 st8">$</text>
		</g>
	</g>
	<path id="Path_4219" class="st6" d="M-1628.9,7757.3c-4.4,0-7.8-0.5-9.6-1.5c-1-0.4-1.7-1.3-1.9-2.3c-1.2-5.4,11.5-11.7,15.4-13.5
		l1.1,2.5c-7.1,3.2-14.4,8.2-13.9,10.4c0,0.1,0.2,0.3,0.6,0.5c4.7,2.6,25.6,1.2,47.7-6.7c10.6-3.7,21-8.2,30.9-13.4
		c9.5-5.2,11.1-8,11-8.6c-0.9-2.9-3.9-3.7-18.2-0.4l-0.6-2.6c13.3-3.1,19.6-3.5,21.4,2.3c2.7,8.7-41.7,24.7-43.5,25.4
		C-1603.8,7754.7-1619,7757.3-1628.9,7757.3z"/>
	<path id="Path_4220" class="st6" d="M-1554.1,7766.5c-11.7,0-42.1-17-43.6-17.8c-20.4-11.5-36.2-26.8-37.7-33.4
		c-0.3-1-0.1-2.1,0.5-3c1.6-2.2,5.5-2.3,11.9-0.4c2.9,0.9,5.7,1.9,8.4,3.1l-1.1,2.5c-7.1-3.2-15.6-5.5-17-3.6
		c-0.1,0.3-0.1,0.5,0,0.8c1.1,5.2,15.9,20.1,36.4,31.6c9.8,5.6,19.9,10.5,30.4,14.5c10.2,3.7,13.4,3.1,13.7,2.6
		c1.6-2.5,0.2-5.4-11.6-14l1.6-2.2c11.1,8,15.5,12.5,12.3,17.6C-1550.6,7766-1552.1,7766.5-1554.1,7766.5z"/>
	<path id="Path_4221" class="st2" d="M-1623,7834.4l-5.8-15.2l-9.2-24.2l-2.1-5.6c-0.4-1.1-2.1-0.6-1.7,0.5l5.8,15.2l9.2,24.2
		l2.1,5.6C-1624.3,7836-1622.6,7835.5-1623,7834.4z"/>
	<path id="Path_4222" class="st1" d="M-1762.6,7791.7l0.1,28.1c0.9,11.6,10.5,13.5,21.2,9.7l77.3-28.1l-9.8-23.2l-47,17.6
		c-4.9,1.7-13.8,7.7-15,1.6l-2.6-7.1L-1762.6,7791.7z"/>
	<path id="Path_4223" class="st2" d="M-1640.6,7790.5c5.2-2.3,10.1-5.3,14.7-8.7c0.9-0.7,0-2.2-0.9-1.5c-4.6,3.4-9.5,6.4-14.7,8.7
		C-1642.5,7789.4-1641.6,7791-1640.6,7790.5L-1640.6,7790.5z"/>
	<path id="Path_4224" class="st1" d="M-1666.7,7802c0,0,5-0.4,23.3-11.1c5.9-2.9,18.6-9.5,17.9-11.3c-1.7-3.8-15,5.1-15.7,2.8
		s15.2-9.6,12.8-13.6c-1.3-2.2-14.5,7.4-15.1,5.3c-0.6-2.1,13-11,11.4-14.2c-1.7-3.5-13.5,8.9-15,5.8c-1.5-3.2,13.6-12,10.1-14.9
		c-3.5-2.9-20.3,19.3-26.5,16.4c-2.4-1.2,1.5-12.7-3.4-12.9c-4.9-0.2-4.1,16.5-5.8,20.2C-1678.1,7786.4-1666.7,7802-1666.7,7802z"/>
	<path id="Path_4225" class="st2" d="M-1654.2,7768.6c1.5,2.1,2.8,4.2,3.8,6.5c1.9,3.9,3.6,8.5,2.7,12.9c-0.2,1.2,1.6,1.7,1.8,0.5
		c0.9-4.7-0.6-9.5-2.6-13.7c-1.1-2.5-2.5-4.9-4.1-7.2C-1653.3,7766.6-1654.9,7767.6-1654.2,7768.6L-1654.2,7768.6z"/>
</g>
</svg>
