<?xml version="1.0" encoding="utf-8"?>
<!-- Generator: Adobe Illustrator 25.2.3, SVG Export Plug-In . SVG Version: 6.00 Build 0)  -->
<svg version="1.1" id="圖層_1" xmlns="http://www.w3.org/2000/svg" xmlns:xlink="http://www.w3.org/1999/xlink" x="0px" y="0px"
	 viewBox="0 0 1366 99.2" style="enable-background:new 0 0 1366 99.2;" xml:space="preserve">
<style type="text/css">
	.st0{fill:none;}
	.st1{fill:#F19419;}
</style>
<rect y="10.7" class="st0" width="1366" height="92.5"/>
<g id="Repeat_Grid_8">
	<g transform="translate(11235.999 4645.257)">
		<path id="Subtraction_14" class="st1" d="M-9869-4526.3c-496.3,0.8-1367.1-6-1367.1-6l0.1-86.4c23.5-2.6,89.1-9.4,189.9-15.4
			c57.1-3.4,116.8-6.1,177.6-8c73.5-2.2,149.3-3.3,225.2-3.2c56.2,0.1,113.5,0.9,170.3,2.3c61.8,1.5,124.6,3.9,186.7,6.9
			c66.9,3.3,134.7,7.6,201.5,12.6c71.5,5.4,143.7,11.9,214.8,19.4l-0.1,52.6L-9869-4526.3z"/>
	</g>
</g>
</svg>
