<svg xmlns="http://www.w3.org/2000/svg" width="212" height="212" viewBox="0 0 212 212">
  <g id="Group_3330" data-name="Group 3330" transform="translate(3199 1633)">
    <rect id="Rectangle_1563" data-name="Rectangle 1563" width="212" height="212" transform="translate(-3199 -1633)" fill="none"/>
    <g id="Group_3324" data-name="Group 3324" transform="translate(-4211.214 -4592)">
      <g id="Group_2303" data-name="Group 2303" transform="translate(136.117 2255.87)">
        <path id="Path_3135" data-name="Path 3135" d="M1003.708,801.764l6.641-23.244-17.156-6.641-24.9,43.72,16.6,11.068Z" transform="translate(49.214 27.805)" fill="#ff957c"/>
        <path id="Path_3136" data-name="Path 3136" d="M936.507,741.068,902.769,795.18a9.619,9.619,0,0,0,3.447,13.472l103.837,58.4a9.618,9.618,0,0,0,13.075-3.627l32.8-57.652a9.617,9.617,0,0,0-3.836-13.243l-102.9-54.862A9.616,9.616,0,0,0,936.507,741.068Z" transform="translate(0 1.836)" fill="#313131"/>
        <path id="Path_3137" data-name="Path 3137" d="M938.051,738.569,904.315,792.68a9.619,9.619,0,0,0,3.445,13.472l103.839,58.4a9.619,9.619,0,0,0,13.075-3.628l32.8-57.65a9.62,9.62,0,0,0-3.834-13.245l-102.9-54.862A9.616,9.616,0,0,0,938.051,738.569Z" transform="translate(1.135 0)" fill="#019e96"/>
        <path id="Path_3138" data-name="Path 3138" d="M921.394,825.893c1.107,15.5,24.9,21.582,46.487,22.136s55.9-9.408,68.071-33.757l12.175-24.351-12.728-7.194-20.477,27.116-2.767-6.087-34.5-2.486a63.167,63.167,0,0,0-46.942,16.182Z" transform="translate(14.756 35.775)" fill="#ff957c"/>
        <path id="Path_3139" data-name="Path 3139" d="M996.638,798.357s-16.513,22.276-50.361,14.943" transform="translate(33.04 47.26)" fill="none" stroke="#fff" stroke-linecap="round" stroke-miterlimit="10" stroke-width="2"/>
      </g>
      <g id="Group_2878" data-name="Group 2878" transform="translate(1105.203 2996.039) rotate(30)">
        <path id="Path_4269" data-name="Path 4269" d="M47.45,28.775,19.84,47.025l2.51.74,1.93.57c.02.01.03.01.05.02l8.25,2.42,1.22.36,19.07-14.33.03-.03,4.83-3.63L59.4,31.9l.38-.29-11.53-2.97A.979.979,0,0,0,47.45,28.775Z" fill="#ffc517"/>
        <path id="Path_4270" data-name="Path 4270" d="M34,65.675l-.1-1.42-.11-1.43-.27-3.65-.3-3.86-.17-2.32-9.29-2.73c-.01,0-.03-.01-.04-.01l-3.27-.96-.73-.22-1.26-.37L12.15,58.9a.97.97,0,0,0-.08.89.99.99,0,0,0,.66.6l21.33,5.98-.05-.67Z" fill="#ffc517"/>
        <path id="Path_4271" data-name="Path 4271" d="M68,39.955a1.015,1.015,0,0,0-.28-.76l-6.21-6.39-.9.68-.71.53-5.8,4.36L35.04,52.705l.47,6.33.35,4.6.14,1.9v.06l.03.47,31.6-25.4A.979.979,0,0,0,68,39.955Z" fill="#ffc517"/>
        <path id="Path_4272" data-name="Path 4272" d="M41.14,20.115a1.062,1.062,0,0,0,.16.21,1.16,1.16,0,0,0,.21.16h.01l.14.08a.974.974,0,0,0,.34.06c2.97,0,4.02,4.19,4.03,4.23a.88.88,0,0,0,.05.15.2.2,0,0,0,.04.08,1.122,1.122,0,0,0,.16.22.61.61,0,0,0,.15.13.95.95,0,0,0,1.14,0,.61.61,0,0,0,.15-.13,1.122,1.122,0,0,0,.16-.22.2.2,0,0,0,.04-.08.88.88,0,0,0,.05-.15c.01-.04,1.04-4.23,4.03-4.23a.974.974,0,0,0,.34-.06l.14-.08h.01a1.16,1.16,0,0,0,.21-.16,1.062,1.062,0,0,0,.16-.21,1.014,1.014,0,0,0,.1-.24.69.69,0,0,0,.04-.25.127.127,0,0,0-.01-.06.372.372,0,0,0-.02-.18.5.5,0,0,0-.04-.13c-.01-.01-.01-.02-.02-.03a1.194,1.194,0,0,0-.08-.16,1.022,1.022,0,0,0-.83-.44c-2.97,0-4.02-4.19-4.03-4.23a.936.936,0,0,0-.34-.54.381.381,0,0,0-.13-.09.963.963,0,0,0-1,0,.381.381,0,0,0-.13.09,1.2,1.2,0,0,0-.12.11.93.93,0,0,0-.22.43c-.01.04-1.04,4.23-4.03,4.23a1.022,1.022,0,0,0-.83.44,1.194,1.194,0,0,0-.08.16c-.01.01-.01.02-.02.03a.5.5,0,0,0-.04.13.372.372,0,0,0-.02.18.127.127,0,0,0-.01.06.69.69,0,0,0,.04.25A1.014,1.014,0,0,0,41.14,20.115Z" fill="#ffc517"/>
        <path id="Path_4273" data-name="Path 4273" d="M12.14,35.115a.834.834,0,0,0,.16.21,1.16,1.16,0,0,0,.21.16h.01l.14.08h.01a.919.919,0,0,0,.33.06c2.97,0,4.02,4.19,4.03,4.23a.88.88,0,0,0,.05.15.2.2,0,0,0,.04.08,1.122,1.122,0,0,0,.16.22.61.61,0,0,0,.15.13.95.95,0,0,0,1.14,0,.61.61,0,0,0,.15-.13,1.122,1.122,0,0,0,.16-.22.2.2,0,0,0,.04-.08.88.88,0,0,0,.05-.15c.01-.04,1.04-4.23,4.03-4.23a.919.919,0,0,0,.33-.06h.01l.14-.08h.01a1.16,1.16,0,0,0,.21-.16.834.834,0,0,0,.16-.21,1.014,1.014,0,0,0,.1-.24.69.69,0,0,0,.04-.25.127.127,0,0,0-.01-.06.372.372,0,0,0-.02-.18.5.5,0,0,0-.04-.13c-.01-.01-.01-.02-.02-.03a1.194,1.194,0,0,0-.08-.16,1.022,1.022,0,0,0-.83-.44c-2.97,0-4.02-4.19-4.03-4.23a.93.93,0,0,0-.22-.43,1.2,1.2,0,0,0-.12-.11.381.381,0,0,0-.13-.09.963.963,0,0,0-1,0,.381.381,0,0,0-.13.09,1.2,1.2,0,0,0-.12.11.93.93,0,0,0-.22.43c-.01.04-1.04,4.23-4.03,4.23a1.022,1.022,0,0,0-.83.44,1.194,1.194,0,0,0-.08.16c-.01.01-.01.02-.02.03a.5.5,0,0,0-.04.13.372.372,0,0,0-.02.18.127.127,0,0,0-.01.06.69.69,0,0,0,.04.25A1.014,1.014,0,0,0,12.14,35.115Z" fill="#ffc517"/>
        <path id="Path_4274" data-name="Path 4274" d="M67.97,56.385a.5.5,0,0,0-.04-.13c-.01-.01-.01-.02-.02-.03a1.2,1.2,0,0,0-.08-.16,1.022,1.022,0,0,0-.83-.44c-2.97,0-4.02-4.19-4.03-4.23a.93.93,0,0,0-.22-.43,1.2,1.2,0,0,0-.12-.11.381.381,0,0,0-.13-.09.963.963,0,0,0-1,0,.381.381,0,0,0-.13.09,1.2,1.2,0,0,0-.12.11.93.93,0,0,0-.22.43c-.01.04-1.04,4.23-4.03,4.23a1.022,1.022,0,0,0-.83.44,1.194,1.194,0,0,0-.08.16c-.01.01-.01.02-.02.03a.5.5,0,0,0-.04.13.372.372,0,0,0-.02.18.127.127,0,0,0-.01.06.69.69,0,0,0,.04.25,1.014,1.014,0,0,0,.1.24.834.834,0,0,0,.16.21,1.16,1.16,0,0,0,.21.16h.01l.14.08h.01a.919.919,0,0,0,.33.06c2.97,0,4.02,4.19,4.03,4.23a.88.88,0,0,0,.05.15.2.2,0,0,0,.04.08,1.122,1.122,0,0,0,.16.22.61.61,0,0,0,.15.13.95.95,0,0,0,1.14,0,.61.61,0,0,0,.15-.13,1.122,1.122,0,0,0,.16-.22.2.2,0,0,0,.04-.08.88.88,0,0,0,.05-.15c.01-.04,1.04-4.23,4.03-4.23a.919.919,0,0,0,.33-.06h.01l.14-.08h.01a1.16,1.16,0,0,0,.21-.16.834.834,0,0,0,.16-.21,1.014,1.014,0,0,0,.1-.24.69.69,0,0,0,.04-.25.127.127,0,0,0-.01-.06A.372.372,0,0,0,67.97,56.385Z" fill="#ffc517"/>
      </g>
    </g>
  </g>
</svg>
