<?xml version="1.0" encoding="utf-8"?>
<!-- Generator: Adobe Illustrator 25.2.3, SVG Export Plug-In . SVG Version: 6.00 Build 0)  -->
<svg version="1.1" id="圖層_1" xmlns="http://www.w3.org/2000/svg" xmlns:xlink="http://www.w3.org/1999/xlink" x="0px" y="0px"
	 viewBox="0 0 210 170" style="enable-background:new 0 0 210 170;" xml:space="preserve">
<style type="text/css">
	.st0{fill:none;}
	.st1{fill:#CBEEFF;}
	.st2{fill:#019E96;}
	.st3{fill:#191E35;}
	.st4{fill:#FF8E9E;}
</style>
<g id="Group_3317" transform="translate(-1739 2386.935)">
	<rect x="1739" y="-2387.2" class="st0" width="210" height="170"/>
	<g id="Scroll_Group_30" transform="translate(1719 -2396.496)">
		<path id="Path_4554" class="st1" d="M148.6,16.5c56.2,17.2,91.2,66,78,109.1s-69.4,64-125.7,46.8s-91.2-66-78-109.1
			S92.4-0.7,148.6,16.5z"/>
	</g>
	<g id="Group_3312" transform="translate(1288.67 -5299.279)">
		<g id="Group_2869" transform="matrix(-0.588, -0.809, 0.809, -0.588, 549.796, 3096.284)">
			<path id="Path_3129" class="st2" d="M12.3,62.1l18.9,57.3c1.6,4.8,6.7,7.4,11.5,5.8c0.1,0,0.3-0.1,0.4-0.1L148.4,85
				c4.7-1.8,7-7,5.3-11.7l-22-58.7c-1.8-4.7-7-7.1-11.7-5.3c-0.1,0-0.1,0.1-0.2,0.1L17.6,50.8C13.1,52.6,10.8,57.6,12.3,62.1z"/>
			<path id="Path_3130" class="st3" d="M29.5,112.6L151.3,67l-5.1-13.8L23.6,97.3L29.5,112.6z"/>
		</g>
		<g id="Group_2870" transform="translate(567.446 3121.718) rotate(-137)">
			<path id="Path_3129-2" class="st4" d="M10.5,64.2l18.9,57.3c1.6,4.8,6.7,7.4,11.5,5.8c0.1,0,0.3-0.1,0.4-0.1l105.3-40.1
				c4.7-1.8,7-7,5.3-11.7l-22-58.7c-1.8-4.7-7-7.1-11.7-5.3c-0.1,0-0.1,0.1-0.2,0.1L15.7,53C11.3,54.8,9,59.7,10.5,64.2z"/>
			<path id="Path_3130-2" class="st3" d="M27.6,114.7l121.8-45.6l-5.1-13.8L21.7,99.4L27.6,114.7z"/>
		</g>
	</g>
</g>
</svg>
