<svg xmlns="http://www.w3.org/2000/svg" width="454.67" height="512.182" viewBox="0 0 454.67 512.182">
  <g id="Group_2803" data-name="Group 2803" transform="translate(0 0)">
    <path id="Path_2232" data-name="Path 2232" d="M491.945,1145.31a55.178,55.178,0,0,1-14.582,16.481,94.674,94.674,0,0,0,35.793,15.57c17.1,6.3,18.824-13.028,19.846-18.807l-16.068,1.579a21.329,21.329,0,0,1-10.715-26.9c3.651-8.267,13.015-10.642,14.434-10.987a30.446,30.446,0,0,0,6.258,11.607,31.623,31.623,0,0,0,17.56,10.031,23.063,23.063,0,0,1-14.081,16.444c1.069,6.5,1.565,12.517,2.269,18.8a91.482,91.482,0,0,0,37.518-9.648,182.072,182.072,0,0,1-9.948-22.24c-5.08-13.774-4.2-16.512-8.18-22.233a33.66,33.66,0,0,0-29.167-14.585,28.609,28.609,0,0,0-18.155,7.669C497.192,1125.515,498.809,1133.333,491.945,1145.31Z" transform="translate(-302.817 -1061.846)" fill="#313131"/>
    <g id="shadow-2" transform="translate(188.573 495.266)">
      <path id="Path_2214" data-name="Path 2214" d="M437.451,1675.113a3.166,3.166,0,0,0,1.377,4.26h0a3.227,3.227,0,0,0,.538.217c9.9,3.422,19.791-.1,29.872-.373a3.221,3.221,0,0,0,3.194-3.247v-.006a3.333,3.333,0,0,0-.106-.788,32.186,32.186,0,0,0-1.26-3.029q5.011-.14,10.294-.142c9.477,0,18.4.348,26.254.963a26.757,26.757,0,0,0-1.562,6.715,3.211,3.211,0,0,0,3.245,3.177h0a3.231,3.231,0,0,0,1.557-.42,24,24,0,0,0,7.789-8.352c11.891,1.553,19.405,3.83,19.405,6.372,0,4.668-25.386,8.462-56.7,8.462s-56.7-3.787-56.7-8.462C424.657,1678.434,429.461,1676.569,437.451,1675.113Z" transform="translate(-424.652 -1672.005)" fill="#fcde95"/>
    </g>
    <g id="back_line-2" data-name="back line-2" transform="translate(127.997 146.736)">
      <g id="Group_1596" data-name="Group 1596" transform="translate(221.173 0)">
        <g id="Group_1594" data-name="Group 1594" transform="translate(22.898)">
          <path id="Path_2215" data-name="Path 2215" d="M329.264,1268.028a.939.939,0,0,0,.941-.938.918.918,0,0,0-.142-.5,38.452,38.452,0,0,1-5.912-18.093,7.5,7.5,0,0,0,1.169.093,6.277,6.277,0,0,0,6.51-6.033v-.089a9.283,9.283,0,0,0-8.986-8.629c-4.618,0-9.292,4.028-9.292,11.724,0,7.23,5.524,15.355,15.158,22.292A.933.933,0,0,0,329.264,1268.028Zm-6.106-21.694a.948.948,0,0,0-.946.943v.022a39.437,39.437,0,0,0,3.994,16.212c-6.9-5.863-10.769-12.254-10.769-17.931,0-6.76,3.84-9.838,7.409-9.838a7.509,7.509,0,0,1,7.1,6.752,4.421,4.421,0,0,1-4.6,4.237h-.032a5.688,5.688,0,0,1-1.854-.316.936.936,0,0,0-.308-.059Z" transform="translate(-313.551 -1233.836)" fill="#313131"/>
        </g>
        <g id="Group_1595" data-name="Group 1595">
          <path id="Path_2216" data-name="Path 2216" d="M358.054,1268.028a.94.94,0,0,0,.941-.938.93.93,0,0,0-.142-.5,38.452,38.452,0,0,1-5.913-18.093,7.468,7.468,0,0,0,1.167.093,6.276,6.276,0,0,0,6.509-6.033v-.089a9.282,9.282,0,0,0-8.985-8.629c-4.618,0-9.292,4.028-9.292,11.724,0,7.23,5.524,15.355,15.158,22.292A.94.94,0,0,0,358.054,1268.028Zm-6.106-21.694a.948.948,0,0,0-.946.943v.022A39.44,39.44,0,0,0,355,1263.511c-6.895-5.863-10.769-12.254-10.769-17.931,0-6.76,3.839-9.838,7.409-9.838a7.506,7.506,0,0,1,7.1,6.743,4.421,4.421,0,0,1-4.6,4.237h-.032a5.726,5.726,0,0,1-1.857-.317.914.914,0,0,0-.3-.049Z" transform="translate(-342.339 -1233.836)" fill="#313131"/>
        </g>
      </g>
      <g id="Group_1597" data-name="Group 1597" transform="translate(172.841 337.342)">
        <path id="Path_2217" data-name="Path 2217" d="M395.588,1663.694a.939.939,0,0,0,.923-.958v0a.94.94,0,0,0-.874-.923c-37.241-1.987-75.3-3.29-113.13-3.871a.95.95,0,0,0-.958.928.94.94,0,0,0,.921.959h0C320.284,1660.4,358.324,1661.7,395.588,1663.694Z" transform="translate(-281.55 -1657.939)" fill="#313131"/>
      </g>
      <g id="Group_1598" data-name="Group 1598" transform="translate(109.123 337.014)">
        <path id="Path_2218" data-name="Path 2218" d="M469.765,1659.5c9.307-.086,18.423-.113,27.892-.088a.938.938,0,0,0,0-1.875c-9.474-.024-18.6,0-27.907.089a.939.939,0,0,0,0,1.876Z" transform="translate(-468.855 -1657.526)" fill="#313131"/>
      </g>
      <g id="Group_1599" data-name="Group 1599" transform="translate(0 337.613)">
        <path id="Path_2219" data-name="Path 2219" d="M545.476,1661.754l14.323-.246c14.378-.274,26.966-.56,38.639-.825,8.29-.189,16.121-.366,23.8-.521a.943.943,0,0,0,.921-.96.953.953,0,0,0-.958-.924c-7.684.156-15.514.335-23.809.52-11.672.266-24.256.551-38.631.826-5.014.1-9.771.182-14.3.246a.94.94,0,0,0-.884.993v0a.942.942,0,0,0,.9.887Z" transform="translate(-544.573 -1658.279)" fill="#313131"/>
      </g>
      <g id="Group_1600" data-name="Group 1600" transform="translate(157.369 254.889)">
        <path id="Path_2220" data-name="Path 2220" d="M412.233,1649.262a.945.945,0,0,0,.939-.879q.059-.895.059-1.777c0-12.239-11.721-34.845-28.428-34.845a33.549,33.549,0,0,0-10.5,2.086,31.078,31.078,0,0,1-9.651,1.964c-8.266,0-11.975-10.937-16.271-23.6-5.731-16.9-12.861-37.928-34.657-37.928-13.132,0-17.651,12.665-22.437,26.071-1.118,3.135-2.275,6.387-3.562,9.524a.941.941,0,0,0,.446,1.253l0,0a.944.944,0,0,0,1.255-.452h0c.015-.03.027-.062.04-.091,1.3-3.193,2.456-6.448,3.594-9.6,4.753-13.318,8.86-24.821,20.663-24.821,20.444,0,27.047,19.471,32.873,36.648,4.528,13.353,8.438,24.884,18.055,24.884a33,33,0,0,0,10.221-2.047,31.653,31.653,0,0,1,9.926-2c15.332,0,26.528,21.677,26.528,32.96,0,.546-.019,1.093-.056,1.648a.943.943,0,0,0,.877,1.005Z" transform="translate(-287.639 -1554.28)" fill="#313131"/>
      </g>
      <g id="Group_1601" data-name="Group 1601" transform="translate(112.13 311.279)">
        <path id="Path_2221" data-name="Path 2221" d="M485.565,1631.523a38.815,38.815,0,0,0,10.071-1.248.943.943,0,0,0-.491-1.82,36.871,36.871,0,0,1-9.58,1.183c-3.215,0-7.182-1.982-11.66-4.377a.943.943,0,0,0-1.254.454h0a.944.944,0,0,0,.366,1.207C477.72,1629.443,481.912,1631.523,485.565,1631.523Z" transform="translate(-472.561 -1625.172)" fill="#313131"/>
      </g>
      <g id="Group_1602" data-name="Group 1602" transform="translate(65.005 303.46)">
        <path id="Path_2222" data-name="Path 2222" d="M537.551,1648.832a.947.947,0,0,0,.941-.91c.806-22.148,9.881-28.936,17.357-30.731a.943.943,0,0,0-.44-1.833c-8.106,1.946-17.949,9.165-18.8,32.5a.949.949,0,0,0,.912.983h0Z" transform="translate(-536.61 -1615.342)" fill="#313131"/>
      </g>
      <g id="Group_1603" data-name="Group 1603" transform="translate(246.359 312.477)">
        <path id="Path_2223" data-name="Path 2223" d="M320.812,1658.763a.944.944,0,0,0,.928-.789c3.331-19.99,5.876-24.462,8.826-29.64l.145-.246a.942.942,0,0,0-1.635-.938l0,.007h0l-.145.246c-3.036,5.335-5.65,9.943-9.045,30.264a.94.94,0,0,0,.771,1.083h0A1,1,0,0,0,320.812,1658.763Z" transform="translate(-319.87 -1626.678)" fill="#313131"/>
      </g>
      <g id="Group_1604" data-name="Group 1604" transform="translate(249.188 322.898)">
        <path id="Path_2224" data-name="Path 2224" d="M300.093,1647.189h.074a78.678,78.678,0,0,0,22.931-5.562.943.943,0,1,0-.54-1.808h0a.624.624,0,0,0-.1.037,77.062,77.062,0,0,1-22.436,5.453.943.943,0,0,0,.073,1.882Z" transform="translate(-299.17 -1639.78)" fill="#313131"/>
      </g>
      <g id="Group_1605" data-name="Group 1605" transform="translate(177.823 257.168)">
        <path id="Path_2225" data-name="Path 2225" d="M398.53,1639.286a.945.945,0,0,0,.936-.854l.351-3.758c1.054-11.319,2.051-22.012,4.151-33.215.511-2.729.9-5.4,1.269-7.966a83.4,83.4,0,0,1,3.724-17.062q.752-2.1,1.525-4.176c1.663-4.527,3.383-9.21,4.754-13.937a.943.943,0,0,0-1.81-.526c-1.354,4.667-3.061,9.314-4.711,13.812-.513,1.4-1.027,2.794-1.53,4.194a84.885,84.885,0,0,0-3.815,17.439c-.371,2.555-.754,5.2-1.258,7.89-2.117,11.3-3.117,22.024-4.175,33.387l-.352,3.754a.94.94,0,0,0,.845,1.026h0Z" transform="translate(-397.585 -1557.145)" fill="#313131"/>
      </g>
      <g id="Group_1606" data-name="Group 1606" transform="translate(183.863 276.13)">
        <path id="Path_2226" data-name="Path 2226" d="M377.723,1597.4a.993.993,0,0,0,.321-.057,111.312,111.312,0,0,0,26.578-14.682.942.942,0,0,0,.142-1.326h0a.943.943,0,0,0-1.24-.2,109.457,109.457,0,0,1-26.123,14.442.94.94,0,0,0-.559,1.207v0a.946.946,0,0,0,.879.617Z" transform="translate(-376.784 -1580.983)" fill="#313131"/>
      </g>
      <g id="Group_1607" data-name="Group 1607" transform="translate(179.822 301.479)">
        <path id="Path_2227" data-name="Path 2227" d="M365.817,1630.654a1.069,1.069,0,0,0,.246-.03,211.563,211.563,0,0,0,39.96-15.966.944.944,0,0,0-.769-1.723h0l-.064.032a209.79,209.79,0,0,1-39.6,15.822.943.943,0,0,0,.245,1.854Z" transform="translate(-364.889 -1612.853)" fill="#313131"/>
      </g>
    </g>
    <path id="Path_2228" data-name="Path 2228" d="M695.83,1116.775l-5.542,3.458c.776,7.2,1.756,14.078,2.982,20.708l3.648-3.717,6.141-6.276.408-18.951Z" transform="translate(-612.789 -1062.175)" fill="#ff957c"/>
    <path id="Path_2229" data-name="Path 2229" d="M607.007,1143.709l-3.648,3.717a178.35,178.35,0,0,0,33.161,77.1,12.47,12.47,0,0,0,13.846,3.93C661.2,1225,671.672,1222,682.7,1219.213a126.473,126.473,0,0,1-5.077-27.856c-8.428,2.629-17.249,5.6-27.052,8.821a4.226,4.226,0,0,1-4.82-1.648l-33.778-47.8h-2.682a2.006,2.006,0,0,1-2.014-1.907Z" transform="translate(-522.876 -1068.662)" fill="#ff957c"/>
    <path id="Path_2230" data-name="Path 2230" d="M505.873,1189.694a225.178,225.178,0,0,0-54.215,11.054,126.317,126.317,0,0,0,5.077,27.855c9.639-2.436,19.688-4.723,30.756-7.037a82.247,82.247,0,0,0-4.421,13.981c-5.119,23.309,2.068,40.177,3.881,52.824,3.062,21.456-5.623,52.582-59.142,98.191,17.428-3.336,43.784-3.282,71.667-.192,9.938,1.116,20.069,2.6,30.049,4.466a326.8,326.8,0,0,1,41.959,10.562c4.957-15.384,9.3-34.8,9.3-51.178,0-41.552-18.244-56.5-18.244-85.609a70.129,70.129,0,0,1,1.538-14.6c2.847,4.738,5.623,9.12,8.47,13.328a69.191,69.191,0,0,1,23.812-11.053c-4.043-9.58-8.2-18.914-12.527-27.721-10.808-21.947-26.414-31.056-44.031-34.118" transform="translate(-296.898 -1078.07)" fill="#019e96"/>
    <path id="Path_2230-2" data-name="Path 2230" d="M519.9,1206.16" transform="translate(-293.689 -1081.438)" fill="#019e96"/>
    <path id="Path_2231" data-name="Path 2231" d="M620.693,1436.368c-27.882-3.09-54.242-3.144-71.667.192,25.011,15.166,43.477,21.537,72.143,25.487C620.842,1453.672,620.68,1445.139,620.693,1436.368Z" transform="translate(-418.126 -1128.06)" fill="#313131"/>
    <path id="Path_2233" data-name="Path 2233" d="M503.249,1436.963c-.015,8.781.149,17.3.474,25.676,1.555,40.23,6.956,77.02,16.381,121.485a58.6,58.6,0,0,1-.668,24.369,27.1,27.1,0,0,1-3.854,8.086c6.318-.054,12.648-.177,18.951-.462l-.327-2.75a24.8,24.8,0,0,1,.272-6.657c7.149-40.41,7.748-75.832.477-121.239l2.042-8.427h.014c-1.633-11.354-2.847-23.132-3.716-35.618C523.307,1439.562,513.177,1438.088,503.249,1436.963Z" transform="translate(-300.675 -1128.655)" fill="#ff957c"/>
    <path id="Path_2238" data-name="Path 2238" d="M442.231,1442.577c.872,12.483,2.083,24.261,3.716,35.617,5.65,39.565,16.269,73.846,34.635,114.105a38.3,38.3,0,0,1,3.439,18.516,167.917,167.917,0,0,0,13.588-10.361c-.312-.872-.612-1.756-.911-2.655a30.869,30.869,0,0,1-1.43-7.651c-2.64-44.492-7.651-74.051-24.711-105.705a155.109,155.109,0,0,0,8.563-17.455c1.675-3.99,3.4-8.7,5.077-13.862A326.933,326.933,0,0,0,442.231,1442.577Z" transform="translate(-209.619 -1129.803)" fill="#ff957c"/>
    <path id="Path_2239" data-name="Path 2239" d="M351.3,1279.444a297.92,297.92,0,0,0,18.229,24.166,282.412,282.412,0,0,0,38.162,70.8,19.7,19.7,0,0,0-5.255,8.352,9.635,9.635,0,0,0,4.262,1.741c2.518,0,3.132-3.021,6.222-3.021,4.343,0,8.318,6.06,15.642,6.06a31.016,31.016,0,0,0,7.406-1.145c-4.057-3.974-8.2-12.212-16.391-14.036-14.9-25.868-28.739-66.658-44.46-103.963A69.206,69.206,0,0,0,351.3,1279.444Z" transform="translate(-75.651 -1094.17)" fill="#ff957c"/>
    <g id="Group_1609" data-name="Group 1609" transform="translate(274.711 173.272)">
      <path id="Path_2241" data-name="Path 2241" d="M427.519,1280.139a.939.939,0,0,0,.56-.184,68.547,68.547,0,0,1,23.473-10.884.945.945,0,0,0,.737-1.116v0a.945.945,0,0,0-1.116-.737h0l-.056.015a70.525,70.525,0,0,0-24.151,11.2.937.937,0,0,0-.2,1.311l.005.008a.949.949,0,0,0,.754.381Z" transform="translate(-426.583 -1267.196)" fill="#fff"/>
    </g>
    <g id="Group_1612" data-name="Group 1612" transform="translate(268.61 473.19)">
      <path id="Path_2244" data-name="Path 2244" d="M436.218,1678.84a3.788,3.788,0,0,0,2.537-.982c6.81-6.141,13.164-12.456,20.6-20.469a.942.942,0,0,0,.135-1.1,105.585,105.585,0,0,1-5.453-11.4.943.943,0,0,0-1.2-.593h0a.944.944,0,0,0-.593,1.2h0a.769.769,0,0,0,.041.1,106.648,106.648,0,0,0,5.224,11c-7.2,7.736-13.4,13.876-20.024,19.852a1.9,1.9,0,0,1-3.066-2.049,98.6,98.6,0,0,0,4.267-17.985.944.944,0,0,0-.768-1.091h0a.943.943,0,0,0-1.091.768h0v.056a97.03,97.03,0,0,1-4.176,17.646,3.8,3.8,0,0,0,2.353,4.834,3.846,3.846,0,0,0,1.228.209Z" transform="translate(-432.452 -1644.251)" fill="#313131"/>
    </g>
    <g id="Group_1613" data-name="Group 1613" transform="translate(231.666 311.786)">
      <path id="Path_2245" data-name="Path 2245" d="M510.658,1478.873h.135a.94.94,0,0,0,.8-1.063h0c-1.6-11.157-2.817-22.785-3.709-35.548a.943.943,0,0,0-.96-.926h0a.939.939,0,0,0-.926.955v0a.721.721,0,0,0,0,.1c.894,12.807,2.109,24.48,3.723,35.686A.943.943,0,0,0,510.658,1478.873Z" transform="translate(-505.994 -1441.336)" fill="#313131"/>
    </g>
    <g id="Group_1614" data-name="Group 1614" transform="translate(200.943 489.134)">
      <path id="Path_2246" data-name="Path 2246" d="M510,1679.526h.108l31.49-1.022a.943.943,0,0,0,.911-.974v-.087l-1.417-12.15a.944.944,0,0,0-1.007-.875h0a.94.94,0,0,0-.872,1v.088l1.3,11.132-30.459.983a1.171,1.171,0,0,1-1.164-.764,1.227,1.227,0,0,1,.36-1.4c.919-.786,1.8-1.523,2.638-2.23a72.4,72.4,0,0,0,8.008-7.4.94.94,0,0,0-.132-1.324l0,0a.943.943,0,0,0-1.284.086,69.993,69.993,0,0,1-7.8,7.195l-2.648,2.238a3.1,3.1,0,0,0-.894,3.518A3.054,3.054,0,0,0,510,1679.526Z" transform="translate(-506.916 -1664.296)" fill="#313131"/>
    </g>
    <g id="Group_1615" data-name="Group 1615" transform="translate(183.173 126.322)">
      <path id="Path_2247" data-name="Path 2247" d="M524.18,1388.775a.943.943,0,0,0,.656-.267c37.735-36.713,34.988-83.947,32.567-125.619l-.246-4.087c-1.806-31.606,6.271-49.068,6.352-49.241a.944.944,0,0,0-1.665-.89h0a.66.66,0,0,0-.037.081c-.341.722-8.366,18.072-6.532,50.157l.246,4.087c2.4,41.267,5.117,88.046-32,124.159a.943.943,0,0,0-.017,1.334h0a.935.935,0,0,0,.673.285Z" transform="translate(-523.236 -1208.172)" fill="#fff"/>
    </g>
    <g id="Group_1616" data-name="Group 1616" transform="translate(81.637 40.245)">
      <path id="Path_2248" data-name="Path 2248" d="M685.938,1142.715h8.578a2.963,2.963,0,0,0,2.947-2.948v-36.846a2.967,2.967,0,0,0-2.962-2.964,2.92,2.92,0,0,0-.789.108l-10.39,2.874a2.948,2.948,0,0,0-2.16,3l.194,3.632a.942.942,0,0,0,.943.939h0a.947.947,0,0,0,.941-.948v-.09l-.194-3.638a1.054,1.054,0,0,1,.774-1.083l10.4-2.874a1.077,1.077,0,0,1,1.368,1.036v36.846a1.075,1.075,0,0,1-1.074,1.074h-8.577a1.069,1.069,0,0,1-1.074-1.013l-.14-2.621a.942.942,0,0,0-.948-.938h0a.939.939,0,0,0-.938.943v0a.575.575,0,0,0,0,.094l.14,2.618A2.948,2.948,0,0,0,685.938,1142.715Z" transform="translate(-681.158 -1099.957)" fill="#313131"/>
    </g>
    <g id="Group_1619" data-name="Group 1619" transform="translate(222.597 231.129)">
      <path id="Path_2251" data-name="Path 2251" d="M518.873,1347.661a3.438,3.438,0,0,0,3.662-3.193v-.194a4.219,4.219,0,0,0-3.166-4.279,2.868,2.868,0,0,0-.594-.062,3.686,3.686,0,0,0-3.629,3.456A4.031,4.031,0,0,0,518.873,1347.661Zm.132-5.823a2.365,2.365,0,0,1,1.651,2.431,1.6,1.6,0,0,1-1.688,1.516h-.1c-1.37,0-1.833-1.643-1.833-2.393a1.808,1.808,0,0,1,1.744-1.572,1.242,1.242,0,0,1,.226.024Z" transform="translate(-515.138 -1339.934)" fill="#fff"/>
    </g>
    <g id="Group_1620" data-name="Group 1620" transform="translate(224.21 206.796)">
      <path id="Path_2252" data-name="Path 2252" d="M517.455,1316.182a3.306,3.306,0,0,0,3.242-3.264c0-1.442-1.009-3.528-2.835-3.528a2.577,2.577,0,0,1-.41-.021,3.2,3.2,0,0,0-.492-.025,3.032,3.032,0,0,0-2.947,3.036A3.953,3.953,0,0,0,517.455,1316.182Zm-.491-4.953a2.439,2.439,0,0,1,.339.018c.174.012.353.027.555.027.435,0,.95.892.95,1.643a1.418,1.418,0,0,1-1.26,1.382,2.094,2.094,0,0,1-1.643-1.921,1.142,1.142,0,0,1,1.063-1.15Z" transform="translate(-514.014 -1309.343)" fill="#fff"/>
    </g>
    <g id="Group_1621" data-name="Group 1621" transform="translate(222.255 181.8)">
      <path id="Path_2253" data-name="Path 2253" d="M518.939,1285.681a3.684,3.684,0,0,0,4.014-3.321,2.79,2.79,0,0,0,.015-.3,4.847,4.847,0,0,0-1.651-3.531,2.367,2.367,0,0,0-1.3-.573,1.821,1.821,0,0,1-.3-.016c-.17,0-.346-.025-.513-.025a4,4,0,0,0-3.645,3.93A3.684,3.684,0,0,0,518.939,1285.681Zm1.138-5.728a2.962,2.962,0,0,1,1.009,2.111c0,1.278-1.108,1.72-2.147,1.72-.909,0-1.492-1.147-1.492-1.935a2.118,2.118,0,0,1,1.759-2.056,2.408,2.408,0,0,1,.378.02,2.632,2.632,0,0,0,.319.019,1.02,1.02,0,0,1,.173.123Z" transform="translate(-515.563 -1277.919)" fill="#fff"/>
    </g>
    <g id="symbols-2" transform="translate(0 0)">
      <g id="Group_1622" data-name="Group 1622" transform="translate(386.717 309.278)">
        <path id="Path_2254" data-name="Path 2254" d="M276.643,1447.671a14.784,14.784,0,0,0,8.878-3.313,10.256,10.256,0,0,1,5.927-2.456,8.886,8.886,0,0,1,6.878,3.967,1.254,1.254,0,0,0,1.736.367h0a1.257,1.257,0,0,0,.369-1.739l-.062-.086a11.42,11.42,0,0,0-8.933-5.021,12.5,12.5,0,0,0-7.342,2.894,12.372,12.372,0,0,1-7.46,2.876,9.8,9.8,0,0,1-7.759-3.508,9.491,9.491,0,0,0-7.124-3.468,13.4,13.4,0,0,0-7.4,3.271,14,14,0,0,1-7.838,3.414,11.436,11.436,0,0,1-5.915-2.739,16.771,16.771,0,0,0-6.436-3.23,1.256,1.256,0,0,0-1.456,1.015v0a1.255,1.255,0,0,0,1.015,1.456h0a14.768,14.768,0,0,1,5.441,2.818,13.324,13.324,0,0,0,7.35,3.194,16.143,16.143,0,0,0,9.285-3.874,11.34,11.34,0,0,1,5.954-2.813,7.164,7.164,0,0,1,5.384,2.766A12.3,12.3,0,0,0,276.643,1447.671Z" transform="translate(-232.684 -1438.183)" fill="#019e96"/>
      </g>
      <g id="Group_1758" data-name="Group 1758" transform="translate(0 333.743)">
        <path id="Path_2255-2" data-name="Path 2255-2" d="M779.94,1503.565c8.477,0,15.639-8.155,15.639-17.811a16.154,16.154,0,0,0-10.95-15.966,16.766,16.766,0,0,0-5.323-.848c-8.725,0-17.529,4.421-17.529,14.286,0,.889.054,1.773.106,2.628.047.737.091,1.456.091,2.127C761.974,1495.11,771.714,1503.565,779.94,1503.565Zm-.636-32.124a14.064,14.064,0,0,1,4.529.72,13.788,13.788,0,0,1,9.234,13.593c0,8.293-6.011,15.3-13.127,15.3-7.313,0-15.454-7.8-15.454-13.083,0-.718-.047-1.474-.1-2.282s-.1-1.636-.1-2.474c0-8.691,8.089-11.773,15.016-11.773Z" transform="translate(-761.777 -1468.94)" fill="#ff8e9e"/>
      </g>
      <g id="Group_1624" data-name="Group 1624" transform="translate(335.999 64.423)">
        <path id="Path_2256" data-name="Path 2256" d="M355.94,1155.587a140.979,140.979,0,0,0,20.092-23.335,1.256,1.256,0,0,0-2.127-1.334,139.01,139.01,0,0,1-19.739,22.894Z" transform="translate(-354.166 -1130.353)" fill="#ff8e9e"/>
      </g>
      <g id="Group_1625" data-name="Group 1625" transform="translate(134.446 59.626)">
        <path id="Path_2257" data-name="Path 2257" d="M600.44,1127.884h.158a44.546,44.546,0,0,1,5.669-.3c1.739,0,3.542.062,5.286.118,1.784.062,3.628.123,5.443.123a39.993,39.993,0,0,0,9.9-1.013,1.258,1.258,0,0,0-.535-2.458h0l-.074.02a37.68,37.68,0,0,1-9.292.938c-1.774,0-3.6-.061-5.359-.12s-3.592-.12-5.372-.12a47.022,47.022,0,0,0-5.982.321,1.258,1.258,0,0,0,.155,2.5Z" transform="translate(-599.197 -1124.323)" fill="#019e96"/>
      </g>
      <g id="Group_1626" data-name="Group 1626" transform="translate(122.925)">
        <path id="Path_2258" data-name="Path 2258" d="M633.379,1065.472a1.263,1.263,0,0,0,1.078-.609,71.351,71.351,0,0,1,11.319-13.358,1.256,1.256,0,0,0-1.775-1.777h0a73.245,73.245,0,0,0-11.7,13.842,1.254,1.254,0,0,0,1.076,1.9Z" transform="translate(-632.123 -1049.361)" fill="#fec739"/>
      </g>
    </g>
    <rect id="Rectangle_1420" data-name="Rectangle 1420" width="16.558" height="48.758" rx="8.279" transform="translate(214.584 79.049)" fill="#ff957c"/>
    <circle id="Ellipse_540" data-name="Ellipse 540" cx="19.628" cy="19.628" r="19.628" transform="translate(200.945 59.421)" fill="#ff957c"/>
    <circle id="Ellipse_541" data-name="Ellipse 541" cx="19.628" cy="19.628" r="19.628" transform="translate(200.945 70.278)" fill="#ff957c"/>
    <rect id="Rectangle_1421" data-name="Rectangle 1421" width="39.256" height="10.575" transform="translate(200.945 79.049)" fill="#ff957c"/>
    <circle id="Ellipse_542" data-name="Ellipse 542" cx="2.291" cy="2.291" r="2.291" transform="translate(204.756 81.042)" fill="#313131"/>
    <circle id="Ellipse_543" data-name="Ellipse 543" cx="2.291" cy="2.291" r="2.291" transform="translate(218.282 81.042)" fill="#313131"/>
    <path id="Path_4060" data-name="Path 4060" d="M546,1153.356l-1.068,8.675-.151,1.227-.937-.937,2.279.114c1.2.06,1.208,1.934,0,1.874l-2.279-.114c-.459-.024-1-.414-.937-.937l1.067-8.676.151-1.227a.966.966,0,0,1,.937-.937.943.943,0,0,1,.937.937Z" transform="translate(-331.792 -1070.444)" fill="#313131"/>
    <path id="Path_4061" data-name="Path 4061" d="M537.479,1172.343l.049.007c.189.029-.281-.033-.11-.014.142.016.284.031.427.043a10.119,10.119,0,0,0,1.437.017c.144-.009.288-.02.432-.037.106-.012.178-.071-.014,0a1.332,1.332,0,0,1,.236-.038,5.668,5.668,0,0,0,.847-.217c.066-.022.131-.048.2-.072.155-.058-.189.09.049-.026a3.6,3.6,0,0,0,.363-.2c.027-.017.169-.14.193-.133-.047-.013-.165.137-.007,0,.059-.052.115-.106.169-.164.041-.042.216-.259.046-.037a.962.962,0,0,1,1.281-.337.946.946,0,0,1,.337,1.282c-1.466,1.907-4.216,2.1-6.431,1.733a.941.941,0,0,1-.655-1.153.965.965,0,0,1,1.153-.655Z" transform="translate(-323.064 -1074.246)" fill="#313131"/>
    <ellipse id="Ellipse_544" data-name="Ellipse 544" cx="4.316" cy="6.087" rx="4.316" ry="6.087" transform="matrix(-0.356, -0.934, 0.934, -0.356, 236.914, 87.509)" fill="#ff957c"/>
    <path id="Path_4062" data-name="Path 4062" d="M540.206,1140.547s-18.043,7.4-31.222-14.442c1.289-6.688,8.014-6.344,8.014-6.344S545.785,1121.175,540.206,1140.547Z" transform="translate(-298.716 -1063.763)" fill="#313131"/>
    <path id="Path_4063" data-name="Path 4063" d="M557.967,1129.745s-10.478,2.473-11.245,11.775c0-12.482,1.942-13.542,1.942-13.542l9.053-2.826" transform="translate(-345.777 -1064.866)" fill="#313131"/>
  </g>
</svg>
