<svg xmlns="http://www.w3.org/2000/svg" width="198" height="198" viewBox="0 0 198 198">
  <g id="Group_3319" data-name="Group 3319" transform="translate(6044 1819)">
    <rect id="Rectangle_1559" data-name="Rectangle 1559" width="198" height="198" transform="translate(-6044 -1819)" fill="none"/>
    <g id="Group_3316" data-name="Group 3316" transform="translate(-6656.394 -3261.426)">
      <g id="Group_2866" data-name="Group 2866" transform="translate(638.394 1459.426)">
        <rect id="Rectangle_1466" data-name="Rectangle 1466" width="89.213" height="164.574" rx="13.334" fill="#313131"/>
        <rect id="Rectangle_1467" data-name="Rectangle 1467" width="82.122" height="156.06" rx="10.283" transform="translate(3.546 4.257)" fill="#019e96"/>
        <path id="Rectangle_1468" data-name="Rectangle 1468" d="M0,0H32.5a0,0,0,0,1,0,0V6.043a3,3,0,0,1-3,3H3a3,3,0,0,1-3-3V0A0,0,0,0,1,0,0Z" transform="translate(28.358 1.057)" fill="#313131"/>
        <g id="Group_2864" data-name="Group 2864" transform="translate(9.044 15.738)">
          <rect id="Rectangle_1469" data-name="Rectangle 1469" width="7.421" height="0.829" fill="#313131"/>
          <rect id="Rectangle_1470" data-name="Rectangle 1470" width="7.421" height="0.829" transform="translate(0 2.224)" fill="#313131"/>
          <rect id="Rectangle_1471" data-name="Rectangle 1471" width="7.421" height="0.829" transform="translate(0 4.447)" fill="#313131"/>
        </g>
        <g id="Group_2865" data-name="Group 2865" transform="translate(30.901 155.179)">
          <line id="Line_216" data-name="Line 216" x2="22.923" transform="translate(1.202 1.244)" fill="#fff"/>
          <path id="Path_4236" data-name="Path 4236" d="M2029.287,6284.67h22.924a1.245,1.245,0,0,0,0-2.489h-22.924a1.245,1.245,0,0,0,0,2.489Z" transform="translate(-2028.085 -6282.182)" fill="#313131"/>
        </g>
      </g>
      <g id="Group_2867" data-name="Group 2867" transform="translate(654.228 1505.778)">
        <ellipse id="Ellipse_531" data-name="Ellipse 531" cx="29.905" cy="29.905" rx="29.905" ry="29.905" transform="translate(0 7)" fill="#fff"/>
        <path id="Path_4244" data-name="Path 4244" d="M2034.64,6070.005l1.995-2.911a2.822,2.822,0,0,1,5.149,1.673l-.1,3.527a2.822,2.822,0,0,0,3.767,2.737l3.324-1.183a2.822,2.822,0,0,1,3.182,4.38l-2.153,2.8a2.822,2.822,0,0,0,1.439,4.428l3.385,1a2.822,2.822,0,0,1,0,5.414l-7.336,2.161,4.665,6.062a2.822,2.822,0,0,1-3.182,4.379l-3.324-1.182a2.822,2.822,0,0,0-3.767,2.736l.1,3.527a2.822,2.822,0,0,1-5.149,1.673l-1.995-2.911a2.823,2.823,0,0,0-4.656,0l-1.994,2.911a2.822,2.822,0,0,1-5.149-1.673l.1-3.527a2.821,2.821,0,0,0-3.767-2.736l-3.324,1.182a2.822,2.822,0,0,1-3.182-4.379l2.152-2.8a2.822,2.822,0,0,0-1.439-4.428l-3.385-1a2.822,2.822,0,0,1,0-5.414l3.385-1a2.822,2.822,0,0,0,1.439-4.428l-2.152-2.8a2.822,2.822,0,0,1,3.182-4.38l3.324,1.183a2.822,2.822,0,0,0,3.767-2.737l-.1-3.527a2.822,2.822,0,0,1,5.149-1.673l1.994,2.911A2.823,2.823,0,0,0,2034.64,6070.005Z" transform="translate(-2002.407 -6052.253)" fill="#019e96"/>
        <path id="Path_4245" data-name="Path 4245" d="M2030.376,6103.71l7.478,9.59a1.705,1.705,0,0,0,2.658-.343l11.125-18.2,1.6-2.613c1.139-1.863-1.788-3.566-2.924-1.709l-11.125,18.2-1.6,2.612,2.658-.342-7.478-9.591a1.7,1.7,0,0,0-2.394,0,1.737,1.737,0,0,0,0,2.395Z" transform="translate(-2013.973 -6064.792)" fill="#fff"/>
      </g>
      <g id="Group_2885" data-name="Group 2885" transform="translate(-149.931 -7793.719)">
        <g id="Group_2328" data-name="Group 2328" transform="translate(884.654 9323.719)">
          <path id="Path_2787" data-name="Path 2787" d="M874.2,3147.522H872.28a22.224,22.224,0,0,0-11.117,2.98l-1.659.956a22.247,22.247,0,0,0-8.139,8.139l-.957,1.66a22.228,22.228,0,0,0-2.98,11.117v1.915a22.224,22.224,0,0,0,2.98,11.117l.957,1.66a22.223,22.223,0,0,0,8.139,8.139l1.659.957a22.227,22.227,0,0,0,11.117,2.98H874.2a22.227,22.227,0,0,0,11.117-2.98l1.66-.957a22.248,22.248,0,0,0,8.139-8.139l.956-1.66a22.227,22.227,0,0,0,2.98-11.117v-1.916a22.226,22.226,0,0,0-2.98-11.116l-.956-1.66a22.246,22.246,0,0,0-8.139-8.139l-1.66-.959A22.242,22.242,0,0,0,874.2,3147.522Z" transform="translate(-847.428 -3147.522)" fill="#ff8e9e"/>
          <path id="Path_2788" data-name="Path 2788" d="M876.457,3148.275h-1.913a22.243,22.243,0,0,0-11.119,2.979l-1.659.958a22.246,22.246,0,0,0-8.14,8.139l-.958,1.657a22.239,22.239,0,0,0-2.978,11.117v1.915a22.24,22.24,0,0,0,2.978,11.117l.958,1.658a22.235,22.235,0,0,0,8.14,8.139l1.659.959a22.236,22.236,0,0,0,11.119,2.98h1.913a22.232,22.232,0,0,0,11.117-2.98l1.66-.959a22.222,22.222,0,0,0,8.139-8.139l.957-1.658a22.241,22.241,0,0,0,2.979-11.117v-1.912a22.239,22.239,0,0,0-2.979-11.116l-.957-1.658a22.22,22.22,0,0,0-8.139-8.139l-1.66-.958A22.243,22.243,0,0,0,876.457,3148.275Z" transform="translate(-847.033 -3147.391)" fill="#ffc517"/>
          <circle id="Ellipse_259" data-name="Ellipse 259" cx="20.018" cy="20.018" r="20.018" transform="translate(8.449 6.675)" fill="#fff"/>
          <path id="Path_3339" data-name="Path 3339" d="M893.6,3170.626a.528.528,0,0,1-.521-.444,19.5,19.5,0,0,0-33.431-10.27.529.529,0,0,1-.782-.712l.013-.013a20.555,20.555,0,0,1,35.237,10.826.528.528,0,0,1-.437.606A.521.521,0,0,1,893.6,3170.626Z" transform="translate(-845.455 -3146.61)" fill="#313131"/>
          <path id="Path_3340" data-name="Path 3340" d="M873.6,3189.969a20.581,20.581,0,0,1-13.443-5.019.529.529,0,1,1,.693-.8h0a19.5,19.5,0,0,0,31.375-8.937.529.529,0,0,1,1.01.315A20.591,20.591,0,0,1,873.6,3189.969Z" transform="translate(-845.237 -3142.753)" fill="#313131"/>
          <g id="_" data-name=" " transform="translate(22.007 15.651)" style="isolation: isolate">
            <text id="_2" data-name="$" transform="translate(0 16)" font-size="17" font-family="Montserrat-Bold, Montserrat" font-weight="700" style="isolation: isolate"><tspan x="0" y="0">$</tspan></text>
          </g>
        </g>
        <g id="Group_2329" data-name="Group 2329" transform="translate(859.731 9341.996)">
          <path id="Path_2787-2" data-name="Path 2787-2" d="M852.976,3163.083h-1.916a22.249,22.249,0,0,0-11.117,2.98l-1.66.957a22.246,22.246,0,0,0-8.139,8.139l-.957,1.658a22.241,22.241,0,0,0-2.979,11.116v1.916a22.24,22.24,0,0,0,2.979,11.117l.957,1.659a22.239,22.239,0,0,0,8.139,8.137l1.66.958a22.225,22.225,0,0,0,11.117,2.98h1.916a22.228,22.228,0,0,0,11.117-2.98l1.657-.958a22.22,22.22,0,0,0,8.139-8.137l.957-1.659a22.224,22.224,0,0,0,2.979-11.117v-1.916a22.241,22.241,0,0,0-2.979-11.117l-.957-1.657a22.222,22.222,0,0,0-8.139-8.139l-1.657-.957A22.23,22.23,0,0,0,852.976,3163.083Z" transform="translate(-826.209 -3163.083)" fill="#ff8e9e"/>
          <path id="Path_2788-2" data-name="Path 2788-2" d="M855.238,3163.837h-1.916a22.232,22.232,0,0,0-11.116,2.979l-1.66.957a22.225,22.225,0,0,0-8.139,8.139l-.958,1.659a22.238,22.238,0,0,0-2.978,11.116v1.919a22.239,22.239,0,0,0,2.978,11.116l.958,1.658a22.21,22.21,0,0,0,8.139,8.138l1.66.959a22.234,22.234,0,0,0,11.116,2.979h1.916a22.241,22.241,0,0,0,11.117-2.979l1.659-.959a22.218,22.218,0,0,0,8.139-8.138l.956-1.658a22.223,22.223,0,0,0,2.98-11.116v-1.913a22.227,22.227,0,0,0-2.98-11.117l-.956-1.657a22.22,22.22,0,0,0-8.139-8.139l-1.659-.959A22.232,22.232,0,0,0,855.238,3163.837Z" transform="translate(-825.814 -3162.951)" fill="#ffc517"/>
          <circle id="Ellipse_259-2" data-name="Ellipse 259-2" cx="20.018" cy="20.018" r="20.018" transform="translate(8.448 6.676)" fill="#fff"/>
          <path id="Path_3341" data-name="Path 3341" d="M872.383,3186.188a.525.525,0,0,1-.52-.444,19.5,19.5,0,0,0-33.431-10.27.529.529,0,1,1-.769-.726h0a20.556,20.556,0,0,1,35.237,10.827.528.528,0,0,1-.437.6h0A.429.429,0,0,1,872.383,3186.188Z" transform="translate(-824.235 -3162.171)" fill="#313131"/>
          <path id="Path_3342" data-name="Path 3342" d="M852.388,3205.528a20.582,20.582,0,0,1-13.443-5.018.529.529,0,0,1,.693-.8,19.5,19.5,0,0,0,31.375-8.936.529.529,0,0,1,1.009.316A20.591,20.591,0,0,1,852.388,3205.528Z" transform="translate(-824.018 -3158.313)" fill="#313131"/>
          <g id="_2-2" data-name=" 2" transform="translate(22.836 15.286)" style="isolation: isolate">
            <text id="_3" data-name="$" transform="translate(0 17)" font-size="18" font-family="Montserrat-Bold, Montserrat" font-weight="700" style="isolation: isolate"><tspan x="0" y="0">$</tspan></text>
          </g>
        </g>
      </g>
    </g>
  </g>
</svg>
