<?xml version="1.0" encoding="utf-8"?>
<!-- Generator: Adobe Illustrator 25.2.3, SVG Export Plug-In . SVG Version: 6.00 Build 0)  -->
<svg version="1.1" id="圖層_1" xmlns="http://www.w3.org/2000/svg" xmlns:xlink="http://www.w3.org/1999/xlink" x="0px" y="0px"
	 viewBox="0 0 212.6 187.1" style="enable-background:new 0 0 212.6 187.1;" xml:space="preserve">
<style type="text/css">
	.st0{fill:#FCF4D7;}
	.st1{fill:#313131;}
	.st2{font-family:'SourceHanSansTW-Bold-B5pc-H';}
	.st3{font-size:38.9951px;}
	.st4{font-size:39px;}
	.st5{fill:#019E96;}
	.st6{fill:#195F5F;}
	.st7{fill:none;}
</style>
<g id="Scroll_Group_31" transform="translate(1526 -2269)">
	
		<ellipse id="Ellipse_761" transform="matrix(0.2924 -0.9563 0.9563 0.2924 -3264.1484 313.996)" class="st0" cx="-1419.9" cy="2362.6" rx="81.5" ry="106.5"/>
</g>
<g id="Group_3302" transform="translate(1095.606 -5220)">
	<text transform="matrix(0.9781 -0.208 0.208 0.9781 -1055.9508 5352)" class="st1 st2 st3">$</text>
	<text transform="matrix(0.9272 0.3746 -0.3746 0.9272 -950.8469 5315.6772)" class="st1 st2 st4">$</text>
	<g id="Group_2852" transform="translate(947.625 2211.877)">
		<path id="Rectangle_1446" class="st1" d="M-1961.2,3037.6h48c7.4,0,13.3,6,13.3,13.3v111c0,7.4-6,13.3-13.3,13.3h-48
			c-7.4,0-13.3-6-13.3-13.3v-111C-1974.5,3043.6-1968.6,3037.6-1961.2,3037.6z"/>
		<path id="Rectangle_1447" class="st5" d="M-1961.3,3041.2h48.1c5.7,0,10.3,4.6,10.3,10.3v110c0,5.7-4.6,10.3-10.3,10.3h-48.1
			c-5.7,0-10.3-4.6-10.3-10.3v-110C-1971.6,3045.8-1967,3041.2-1961.3,3041.2z"/>
		<path id="Rectangle_1448" class="st1" d="M-1950.8,3038.5h27.2l0,0v4.6c0,1.7-1.3,3-3,3h-21.2c-1.7,0-3-1.3-3-3V3038.5
			L-1950.8,3038.5z"/>
		<g id="Group_2850" transform="translate(-422.261 797.256)">
			<rect id="Rectangle_1451" x="-1544.7" y="2253.5" class="st1" width="6.2" height="0.7"/>
			<rect id="Rectangle_1452" x="-1544.7" y="2255.4" class="st1" width="6.2" height="0.7"/>
			<rect id="Rectangle_1453" x="-1544.7" y="2257.3" class="st1" width="6.2" height="0.7"/>
		</g>
		<rect id="Rectangle_1476" x="-1967.3" y="3063.7" class="st6" width="60" height="14"/>
		<rect id="Rectangle_1477" x="-1967.3" y="3079.7" class="st6" width="14" height="4"/>
		<rect id="Rectangle_1479" x="-1967.3" y="3085.7" class="st6" width="30" height="4"/>
		<rect id="Rectangle_1480" x="-1967.3" y="3091.7" class="st6" width="60" height="4"/>
		<rect id="Rectangle_1481" x="-1967.3" y="3097.7" class="st6" width="60" height="4"/>
		<rect id="Rectangle_1482" x="-1967.3" y="3103.7" class="st6" width="60" height="4"/>
		<rect id="Rectangle_1483" x="-1967.3" y="3109.7" class="st6" width="60" height="4"/>
		<rect id="Rectangle_1484" x="-1967.3" y="3115.7" class="st6" width="60" height="4"/>
		<rect id="Rectangle_1485" x="-1967.3" y="3121.7" class="st6" width="60" height="4"/>
		<rect id="Rectangle_1486" x="-1967.3" y="3127.7" class="st6" width="60" height="4"/>
		<rect id="Rectangle_1487" x="-1967.3" y="3133.7" class="st6" width="60" height="4"/>
		<rect id="Rectangle_1488" x="-1967.3" y="3139.7" class="st6" width="60" height="4"/>
		<rect id="Rectangle_1489" x="-1967.3" y="3145.7" class="st6" width="60" height="4"/>
		<rect id="Rectangle_1490" x="-1967.3" y="3151.7" class="st6" width="60" height="4"/>
		<rect id="Rectangle_1491" x="-1967.3" y="3157.7" class="st6" width="60" height="4"/>
		<rect id="Rectangle_1492" x="-1967.3" y="3163.7" class="st6" width="60" height="4"/>
		<rect id="Rectangle_1478" x="-1951.3" y="3079.7" class="st6" width="14" height="4"/>
		<g id="Group_2851" transform="translate(-403.977 913.899)">
			<line id="Line_214" class="st7" x1="-1543.7" y1="2254.6" x2="-1524.5" y2="2254.6"/>
			<path id="Path_4190" class="st1" d="M-1543.7,2255.6h19.2c0.6,0,1-0.5,1-1c0-0.6-0.5-1-1-1h-19.2c-0.6,0-1,0.5-1,1
				C-1544.7,2255.2-1544.3,2255.6-1543.7,2255.6z"/>
		</g>
	</g>
</g>
</svg>
