<svg xmlns="http://www.w3.org/2000/svg" xmlns:xlink="http://www.w3.org/1999/xlink" width="210" height="170" viewBox="0 0 210 170">
  <defs>
    <clipPath id="clip-path">
      <rect x="20" y="24" width="210" height="170" fill="none"/>
    </clipPath>
  </defs>
  <g id="Group_3282" data-name="Group 3282" transform="translate(10436 3598)">
    <g id="Scroll_Group_29" data-name="Scroll Group 29" transform="translate(-10456 -3622)" clip-path="url(#clip-path)" style="isolation: isolate">
      <ellipse id="Ellipse_758" data-name="Ellipse 758" cx="106.5" cy="81.5" rx="106.5" ry="81.5" transform="translate(46.779) rotate(17)" fill="#fff0c6"/>
    </g>
    <g id="Group_3276" data-name="Group 3276" transform="translate(-10913.009 -4030.814)">
      <rect id="Rectangle_257" data-name="Rectangle 257" width="71.511" height="131.919" rx="13.334" transform="translate(543.604 454.29)" fill="#313131"/>
      <rect id="Rectangle_258" data-name="Rectangle 258" width="65.827" height="125.094" rx="10.283" transform="translate(546.446 457.703)" fill="#019e96"/>
      <path id="Rectangle_259" data-name="Rectangle 259" d="M0,0H26.049a0,0,0,0,1,0,0V4.249a3,3,0,0,1-3,3H3a3,3,0,0,1-3-3V0A0,0,0,0,1,0,0Z" transform="translate(566.335 455.137)" fill="#313131"/>
      <g id="Group_2227" data-name="Group 2227" transform="translate(563.307 511.633)">
        <path id="Path_3095" data-name="Path 3095" d="M602.847,540.842H587.6c.473,2.51,2.554,4.045,5.626,4.045a7.07,7.07,0,0,0,5.126-1.948l2.989,3.372c-1.949,2.135-4.8,3.259-8.433,3.259-6.969,0-11.345-4.382-11.13-10.376.215-6.031,4.979-10.376,11.123-10.376,5.919,0,10.348,3.97,10.116,10.451C603,539.718,602.9,540.354,602.847,540.842Zm-15.2-3.408h9.929a4.586,4.586,0,0,0-4.8-4.2A4.984,4.984,0,0,0,587.646,537.433Z" transform="translate(-581.77 -528.817)" fill="#fff"/>
        <path id="Path_3096" data-name="Path 3096" d="M611.111,549.265a3.644,3.644,0,0,1,3.763-3.6,3.349,3.349,0,0,1,3.506,3.6,3.734,3.734,0,0,1-3.766,3.67A3.428,3.428,0,0,1,611.111,549.265Z" transform="translate(-587.63 -532.183)" fill="#fff"/>
      </g>
      <path id="Path_3097" data-name="Path 3097" d="M558.992,534.947" transform="translate(-13.913 -18.408)" fill="none" stroke="#313131" stroke-miterlimit="10" stroke-width="1"/>
      <path id="Path_3098" data-name="Path 3098" d="M552.147,478.511c-8.86.421-22.807,2.7-26.771,11.909-6.224,14.451,15.652,18.492,24.922,19.725,15.6,2.075,31.509,2.225,47.209,3.18a203.547,203.547,0,0,1,21.577,2.221c6.992,1.181,14.889,2.708,20.744,6.969,3.427,2.494,5.48,6.165,3.974,10.271-3.149,8.584-15.1,9.353-22.682,9.319a1.2,1.2,0,0,0,0,2.4c9.13.04,25.861-2.221,25.654-14.777-.191-11.538-17.725-14.858-26.215-16.353-13.1-2.309-26.659-2.873-39.936-3.5-9.368-.444-18.764-.739-28.084-1.846-7.3-.866-16.7-1.841-22.549-6.821-7.309-6.225-.487-14.189,6.212-16.935a48.78,48.78,0,0,1,15.944-3.359c1.538-.073,1.547-2.474,0-2.4Z" transform="translate(-6.979 -7.135)" fill="#ffc517"/>
      <path id="Path_3099" data-name="Path 3099" d="M554.958,561.875c-4.517.287-10.622,1.537-13.3,5.58-2.851,4.3.076,9.005,3.458,11.882,5.216,4.437,12.159,6.871,18.68,8.605a117.77,117.77,0,0,0,31.345,3.58,161.207,161.207,0,0,0,44.617-7.013,1.2,1.2,0,0,0-.639-2.315c-24.565,7.362-52.494,10.234-77.407,2.66-5.989-1.821-14.576-4.7-17.9-10.579-3.875-6.843,6.05-9.673,11.151-10,1.534-.1,1.545-2.5,0-2.4Z" transform="translate(-10.22 -23.786)" fill="#ffc517"/>
      <rect id="Rectangle_260" data-name="Rectangle 260" width="67.816" height="33.703" rx="16.851" transform="translate(594.662 465.793)" fill="#ff8e9e"/>
      <rect id="Rectangle_261" data-name="Rectangle 261" width="67.322" height="33.703" rx="16.851" transform="translate(578.725 548.892)" fill="#ff8e9e"/>
      <rect id="Rectangle_262" data-name="Rectangle 262" width="52.114" height="33.703" rx="16.851" transform="translate(502.009 504.496)" fill="#ff8e9e"/>
      <g id="Group_2078" data-name="Group 2078" transform="translate(605.572 477.675)">
        <path id="Path_2779" data-name="Path 2779" d="M651.281,492.992a10.281,10.281,0,0,1-6.18-2.307c-1.345-.918-2.507-1.711-4.126-1.711a6.183,6.183,0,0,0-4.8,2.762.875.875,0,0,1-1.437-1l.014-.019a7.949,7.949,0,0,1,6.22-3.5,8.731,8.731,0,0,1,5.112,2.015,8.6,8.6,0,0,0,5.194,2,6.818,6.818,0,0,0,5.4-2.442c1.234-1.187,2.51-2.414,4.962-2.414,1.921,0,3.565,1.158,5.154,2.278,1.657,1.168,3.371,2.377,5.456,2.377,1.378,0,2.709-.927,4.117-1.908a11.666,11.666,0,0,1,4.482-2.25.875.875,0,0,1,.33,1.718l-.023,0a10.27,10.27,0,0,0-3.788,1.963c-1.569,1.092-3.19,2.221-5.118,2.221-2.641,0-4.671-1.432-6.464-2.7-1.49-1.051-2.777-1.958-4.146-1.958-1.747,0-2.63.85-3.748,1.926A8.553,8.553,0,0,1,651.281,492.992Z" transform="translate(-608.054 -519.161) rotate(3)" fill="#fff"/>
      </g>
      <g id="Group_2228" data-name="Group 2228" transform="translate(520.327 515.786)">
        <path id="Path_3100" data-name="Path 3100" d="M529.129,550.169a1.068,1.068,0,0,1-.833-1.735c2.35-2.938,4.854-5.818,7.506-8.866,1.48-1.7,2.979-3.424,4.472-5.185a1.068,1.068,0,0,1,1.629,1.382c-1.5,1.766-3,3.5-4.489,5.2-2.637,3.032-5.127,5.9-7.45,8.8A1.063,1.063,0,0,1,529.129,550.169Z" transform="translate(-527.061 -538.006)" fill="#fff"/>
      </g>
      <g id="Group_2079" data-name="Group 2079" transform="translate(601.194 554.911)">
        <path id="Path_2780" data-name="Path 2780" d="M645.7,601.314a.745.745,0,0,1-1.069.834,187.727,187.727,0,0,0-18.054-8.273.745.745,0,0,1-.241-1.249c4.092-3.729,7.959-7.416,12.588-11.85a.745.745,0,0,1,1.223.306C642.326,587.738,644.039,594.636,645.7,601.314Zm-17.469-8.4c4.811,1.886,10.949,4.775,15.625,7.158-1.434-5.766-2.935-11.671-4.76-17.4-3.931,3.765-7.34,7.005-10.865,10.24Z" transform="translate(-626.09 -580.569)" fill="#fff"/>
      </g>
      <path id="Path_3101" data-name="Path 3101" d="M656.178,504.873" transform="translate(-33.325 -12.401)" fill="none" stroke="#313131" stroke-miterlimit="10" stroke-width="1"/>
    </g>
  </g>
</svg>
