<svg xmlns="http://www.w3.org/2000/svg" xmlns:xlink="http://www.w3.org/1999/xlink" width="210" height="170" viewBox="0 0 210 170">
  <defs>
    <clipPath id="clip-path">
      <rect x="20" y="24" width="210" height="170" fill="none"/>
    </clipPath>
  </defs>
  <g id="Group_3304" data-name="Group 3304" transform="translate(7541 2860)">
    <g id="Scroll_Group_39" data-name="Scroll Group 39" transform="translate(-7561 -2884)" clip-path="url(#clip-path)" style="isolation: isolate">
      <ellipse id="Ellipse_768" data-name="Ellipse 768" cx="106.5" cy="81.5" rx="106.5" ry="81.5" transform="translate(46.779) rotate(17)" fill="#ffe2e0"/>
    </g>
    <g id="Group_3303" data-name="Group 3303" transform="translate(-8005.009 -3291.29)">
      <rect id="Rectangle_257" data-name="Rectangle 257" width="66.907" height="123.426" rx="13.334" transform="translate(540.926 454.29)" fill="#313131"/>
      <rect id="Rectangle_258" data-name="Rectangle 258" width="61.589" height="117.04" rx="10.283" transform="translate(543.585 457.483)" fill="#ffc517"/>
      <path id="Rectangle_259" data-name="Rectangle 259" d="M0,0H24.372a0,0,0,0,1,0,0V3.782a3,3,0,0,1-3,3H3a3,3,0,0,1-3-3V0A0,0,0,0,1,0,0Z" transform="translate(562.194 455.083)" fill="#313131"/>
      <g id="Group_2227" data-name="Group 2227" transform="translate(559.361 507.942)">
        <path id="Path_3095" data-name="Path 3095" d="M601.49,540.068H587.224c.442,2.348,2.389,3.785,5.263,3.785a6.615,6.615,0,0,0,4.8-1.822l2.8,3.154c-1.824,2-4.49,3.049-7.89,3.049-6.52,0-10.615-4.1-10.413-9.708.2-5.642,4.659-9.708,10.407-9.708,5.538,0,9.682,3.714,9.465,9.779C601.633,539.016,601.542,539.612,601.49,540.068Zm-14.222-3.189h9.29a4.291,4.291,0,0,0-4.487-3.926A4.663,4.663,0,0,0,587.268,536.879Z" transform="translate(-581.77 -528.817)" fill="#fff"/>
        <path id="Path_3096" data-name="Path 3096" d="M611.111,549.034a3.41,3.41,0,0,1,3.521-3.365,3.133,3.133,0,0,1,3.28,3.365,3.493,3.493,0,0,1-3.524,3.434A3.207,3.207,0,0,1,611.111,549.034Z" transform="translate(-589.141 -533.051)" fill="#fff"/>
      </g>
      <path id="Path_3097" data-name="Path 3097" d="M558.992,534.947" transform="translate(-16.686 -22.416)" fill="none" stroke="#313131" stroke-miterlimit="10" stroke-width="1"/>
      <rect id="Rectangle_260" data-name="Rectangle 260" width="63.45" height="31.533" rx="15.766" transform="translate(573.324 465.052)" fill="#019e96"/>
      <rect id="Rectangle_261" data-name="Rectangle 261" width="62.988" height="31.533" rx="15.766" transform="translate(563.786 535.801)" fill="#019e96"/>
      <rect id="Rectangle_262" data-name="Rectangle 262" width="48.759" height="31.533" rx="15.766" transform="translate(502.009 501.264)" fill="#019e96"/>
      <g id="Group_2078" data-name="Group 2078" transform="translate(583.4 475.951)">
        <path id="Path_2779" data-name="Path 2779" d="M15.622,6.183A9.619,9.619,0,0,1,9.839,4.024a6.7,6.7,0,0,0-3.861-1.6A5.785,5.785,0,0,0,1.491,5.008.818.818,0,0,1,.146,4.075l.013-.018A7.437,7.437,0,0,1,5.979.787a8.168,8.168,0,0,1,4.783,1.885,8.049,8.049,0,0,0,4.86,1.872,6.379,6.379,0,0,0,5.055-2.285C21.832,1.149,23.025,0,25.319,0c1.8,0,3.336,1.083,4.822,2.131,1.551,1.093,3.154,2.224,5.1,2.224,1.289,0,2.534-.867,3.852-1.785a10.916,10.916,0,0,1,4.193-2.1A.818.818,0,0,1,43.6,2.073l-.022,0a9.609,9.609,0,0,0-3.544,1.837c-1.468,1.022-2.984,2.078-4.788,2.078-2.471,0-4.37-1.34-6.048-2.523-1.394-.983-2.6-1.832-3.879-1.832-1.634,0-2.46.8-3.507,1.8A8,8,0,0,1,15.622,6.183Z" transform="translate(0.324 0) rotate(3)" fill="#fff"/>
      </g>
      <g id="Group_2228" data-name="Group 2228" transform="translate(520.083 508.084)">
        <path id="Path_3100" data-name="Path 3100" d="M529.06,549.128a1,1,0,0,1-.779-1.623c2.2-2.749,4.542-5.443,7.022-8.3,1.384-1.592,2.787-3.2,4.184-4.851a1,1,0,0,1,1.524,1.293c-1.4,1.653-2.811,3.272-4.2,4.869-2.467,2.837-4.8,5.516-6.971,8.232A1,1,0,0,1,529.06,549.128Z" transform="translate(-528.061 -534.006)" fill="#fff"/>
      </g>
      <g id="Group_2079" data-name="Group 2079" transform="translate(584.809 541.433)">
        <path id="Path_2780" data-name="Path 2780" d="M644.435,599.978a.7.7,0,0,1-1,.78,175.658,175.658,0,0,0-16.892-7.74.7.7,0,0,1-.225-1.168c3.828-3.489,7.446-6.939,11.777-11.087a.7.7,0,0,1,1.145.286C641.281,587.276,642.883,593.731,644.435,599.978Zm-16.345-7.859c4.5,1.764,10.244,4.467,14.619,6.7-1.342-5.394-2.746-10.92-4.454-16.279-3.678,3.522-6.867,6.554-10.165,9.581Z" transform="translate(-626.09 -580.569)" fill="#fff"/>
      </g>
      <path id="Path_3101" data-name="Path 3101" d="M656.178,504.873" transform="translate(-41.105 -14.859)" fill="none" stroke="#313131" stroke-miterlimit="10" stroke-width="1"/>
    </g>
  </g>
</svg>
