<svg xmlns="http://www.w3.org/2000/svg" width="350" height="239.641" viewBox="0 0 350 239.641">
  <g id="Group_3305" data-name="Group 3305" transform="translate(-1572 4602.673)">
    <path id="Subtraction_16" data-name="Subtraction 16" d="M350,197.725h0c-62.86-2.564-127.024-6.349-190.712-11.248C105.974,182.376,52.382,177.448,0,171.832V0H350V197.724Z" transform="translate(1572 -4602.673)" fill="#9fd2ea"/>
    <g id="Group_3300" data-name="Group 3300" transform="translate(1843.054 -7595.861)">
      <path id="Path_4209" data-name="Path 4209" d="M-33.255,3270.217H15.908L-5.1,3220.744H-34.472Z" transform="translate(-40.011 -38.228)" fill="#ffc517"/>
      <path id="Path_3874" data-name="Path 3874" d="M-103.839,3136.052c-13.855,3.627-30.961-14.309-33.6,2.843s10.575,76.574-9.217,72.284-25.087-17.166-36.3-15.429c-47.5,6.928-58.952-28.143-32.219-42.656s-9.428-22.138,9.529-32.673,1.55-24.615,12.706-33.318,10.666-3.271,22.782-12.49,4.741-21.333,15.539-31.078c22.912-18.973,57.151-1.855,57.151-1.855C-61.8,3064.214-89.984,3132.425-103.839,3136.052Z" transform="translate(0 0)" fill="#313131"/>
      <circle id="Ellipse_635" data-name="Ellipse 635" cx="16.26" cy="16.26" r="16.26" transform="translate(-190.519 3131.951)" fill="#019e96"/>
      <path id="Path_4210" data-name="Path 4210" d="M-148.831,3171.149l.274,1.393,8.307,42.282-40.39,2.212.286-42.029" transform="translate(-9.994 -28.043)" fill="#019e96"/>
      <path id="Path_4211" data-name="Path 4211" d="M-163.11,3155.754l85.387-5.984,39.445,105.872H-139.11l-12.927-44.693Z" transform="translate(-13.594 -23.653)" fill="#019e96"/>
      <rect id="Rectangle_1462" data-name="Rectangle 1462" width="28.937" height="66.392" rx="14.469" transform="translate(-114.22 3145.141) rotate(180)" fill="#ffc517"/>
      <path id="Path_4212" data-name="Path 4212" d="M-85.844,3135.251s-4.567.82-6.889-.986c6.889,11.095,6.56,10.976,6.56,10.976Z" transform="translate(-28.047 -20.468)" fill="#313131"/>
      <circle id="Ellipse_636" data-name="Ellipse 636" cx="24.601" cy="24.601" r="24.601" transform="translate(-143.157 3052.414)" fill="#ffc517"/>
      <circle id="Ellipse_637" data-name="Ellipse 637" cx="24.601" cy="24.601" r="24.601" transform="translate(-143.157 3066.022)" fill="#ffc517"/>
      <rect id="Rectangle_1463" data-name="Rectangle 1463" width="49.202" height="13.254" transform="translate(-143.157 3077.015)" fill="#ffc517"/>
      <path id="Path_4213" data-name="Path 4213" d="M-201.255,3069.37" transform="translate(-5.76 -7.142)" fill="#f97253"/>
      <circle id="Ellipse_638" data-name="Ellipse 638" cx="2.871" cy="2.871" r="2.871" transform="translate(-104.473 3079.513)" fill="#313131"/>
      <circle id="Ellipse_639" data-name="Ellipse 639" cx="2.871" cy="2.871" r="2.871" transform="translate(-121.427 3079.513)" fill="#313131"/>
      <path id="Path_4214" data-name="Path 4214" d="M-80.222,3093.767l1.338,10.874.189,1.538L-77.52,3105l-2.857.143c-1.5.076-1.514,2.425,0,2.349l2.857-.143c.575-.029,1.256-.518,1.174-1.175l-1.338-10.873-.189-1.539a1.212,1.212,0,0,0-1.174-1.175,1.182,1.182,0,0,0-1.174,1.175Z" transform="translate(-30.352 -11.911)" fill="#313131"/>
      <path id="Path_4215" data-name="Path 4215" d="M-82.187,3117.588l-.061.009c-.238.036.353-.042.138-.018-.178.02-.356.04-.535.054a12.825,12.825,0,0,1-1.8.022q-.272-.016-.542-.046c-.133-.015-.223-.089.018,0a1.662,1.662,0,0,0-.3-.048,7.089,7.089,0,0,1-1.062-.271c-.083-.029-.164-.061-.247-.092-.195-.072.237.113-.063-.032a4.319,4.319,0,0,1-.454-.253c-.033-.021-.212-.175-.243-.168.059-.015.207.173.01,0-.074-.065-.145-.134-.213-.205-.05-.054-.269-.324-.056-.048a1.208,1.208,0,0,0-1.608-.421,1.186,1.186,0,0,0-.421,1.607c1.837,2.391,5.284,2.631,8.061,2.173a1.179,1.179,0,0,0,.82-1.445,1.209,1.209,0,0,0-1.445-.821Z" transform="translate(-28.649 -16.699)" fill="#313131"/>
      <ellipse id="Ellipse_640" data-name="Ellipse 640" cx="5.409" cy="7.63" rx="5.409" ry="7.63" transform="translate(-153.296 3082.182) rotate(-69.127)" fill="#ffc517"/>
      <path id="Path_4216" data-name="Path 4216" d="M-80.462,3063.585s-7.6-6.723-15.333.883c-3.038,2.987-9.686,18.455-28.369,13.388s8.233-23.75,8.233-23.75S-80.778,3046.81-80.462,3063.585Z" transform="translate(-20.236 -3.683)" fill="#313131"/>
      <circle id="Ellipse_641" data-name="Ellipse 641" cx="17.074" cy="17.074" r="17.074" transform="translate(-100.78 3124.331)" fill="#019e96"/>
      <path id="Path_4217" data-name="Path 4217" d="M-36.169,3156.558l.705,1.313,23.978,49.692H-54.527l-11.044-33.924" transform="translate(-33.625 -25.046)" fill="#019e96"/>
      <path id="Path_4218" data-name="Path 4218" d="M-137.62,3263.944l-2.043-7.167-4.906-17.21-5.935-20.82-5.13-18c-.822-2.885-1.471-5.905-2.489-8.73-.015-.042-.025-.086-.037-.13a.848.848,0,0,0-1.634.45l2.043,7.167,4.906,17.211,5.935,20.82,5.13,18c.822,2.885,1.471,5.9,2.489,8.73.015.042.025.086.037.129a.847.847,0,0,0,1.633-.45Z" transform="translate(-14.267 -32.18)" fill="#313131"/>
      <path id="Path_3329" data-name="Path 3329" d="M29.611,3114.776c-20.326,7.089-40.749,13.031-66.2,7.271s-44.973,36.279-25.155,50.115,38.947,13,44.171,24.286,21.588,23.8,46.428,11.672,42.7-5.664,53.063-19.716-10.7-27.666-12.366-37.011S82.27,3096.415,29.611,3114.776Z" transform="translate(-32.292 -24.092)" fill="#fff"/>
      <g id="Group_2326" data-name="Group 2326" transform="translate(-50.92 3106.354)">
        <path id="Path_2787" data-name="Path 2787" d="M17.1,3132.548H14.925a25.208,25.208,0,0,0-12.6,3.377l-1.88,1.086a25.194,25.194,0,0,0-9.223,9.223l-1.086,1.88a25.187,25.187,0,0,0-3.375,12.6v2.171a25.187,25.187,0,0,0,3.375,12.6l1.086,1.879a25.188,25.188,0,0,0,9.223,9.223l1.88,1.086a25.184,25.184,0,0,0,12.6,3.375H17.1a25.188,25.188,0,0,0,12.6-3.375l1.88-1.086a25.2,25.2,0,0,0,9.223-9.223l1.086-1.879a25.2,25.2,0,0,0,3.375-12.6v-2.171a25.2,25.2,0,0,0-3.375-12.6l-1.086-1.879a25.211,25.211,0,0,0-9.223-9.23l-1.88-1.086A25.212,25.212,0,0,0,17.1,3132.548Z" transform="translate(13.238 -3132.548)" fill="#ff8e9e"/>
        <path id="Path_2788" data-name="Path 2788" d="M20.425,3133.657H18.253a25.205,25.205,0,0,0-12.6,3.375l-1.88,1.086a25.2,25.2,0,0,0-9.223,9.223l-1.086,1.88a25.2,25.2,0,0,0-3.375,12.6v2.172a25.2,25.2,0,0,0,3.375,12.6l1.086,1.88a25.186,25.186,0,0,0,9.223,9.223l1.88,1.086a25.2,25.2,0,0,0,12.6,3.375h2.172a25.2,25.2,0,0,0,12.6-3.375l1.88-1.086a25.193,25.193,0,0,0,9.223-9.223l1.086-1.88a25.186,25.186,0,0,0,3.375-12.6v-2.172a25.187,25.187,0,0,0-3.375-12.6l-1.086-1.88a25.212,25.212,0,0,0-9.223-9.223l-1.88-1.086A25.211,25.211,0,0,0,20.425,3133.657Z" transform="translate(12.921 -3132.653)" fill="#019e96"/>
        <ellipse id="Ellipse_259" data-name="Ellipse 259" cx="22.686" cy="22.686" rx="22.686" ry="22.686" transform="translate(9.575 7.566)" fill="#fff"/>
        <path id="Path_3228" data-name="Path 3228" d="M42.91,3160.494a.6.6,0,0,1-.59-.5,22.09,22.09,0,0,0-37.885-11.637.6.6,0,1,1-.872-.822h0A23.289,23.289,0,0,1,43.5,3159.8a.6.6,0,0,1-.494.686h0A.553.553,0,0,1,42.91,3160.494Z" transform="translate(11.655 -3133.278)" fill="#313131"/>
        <path id="Path_3229" data-name="Path 3229" d="M20.672,3189.883A23.31,23.31,0,0,1,5.439,3184.2a.6.6,0,0,1,.784-.9,22.093,22.093,0,0,0,35.56-10.126.6.6,0,0,1,1.143.362h0A23.335,23.335,0,0,1,20.672,3189.883Z" transform="translate(11.479 -3136.374)" fill="#313131"/>
        <g id="_" data-name=" " transform="translate(25.49 17.131)" style="isolation: isolate">
          <text id="_2" data-name="$" transform="translate(0 18)" font-size="19" font-family="Montserrat-Bold, Montserrat" font-weight="700" style="isolation: isolate"><tspan x="0" y="0">$</tspan></text>
        </g>
      </g>
      <path id="Path_4219" data-name="Path 4219" d="M-21.02,3181.938c-4.426,0-7.791-.515-9.623-1.521a3.571,3.571,0,0,1-1.943-2.3c-1.233-5.423,11.474-11.689,15.4-13.479l1.127,2.468c-7.107,3.247-14.381,8.2-13.878,10.408.018.082.166.285.6.525,4.673,2.565,25.59,1.236,47.728-6.681a223.072,223.072,0,0,0,30.9-13.417c9.5-5.229,11.135-8.032,10.958-8.6-.889-2.865-3.946-3.718-18.191-.42l-.611-2.646c13.35-3.087,19.608-3.494,21.394,2.26,2.711,8.728-41.651,24.7-43.541,25.379C4.071,3179.36-11.127,3181.938-21.02,3181.938Z" transform="translate(-35.833 -27.288)" fill="#ff8e9e"/>
      <path id="Path_4220" data-name="Path 4220" d="M54.292,3190.171c-11.735,0-42.1-16.969-43.6-17.811-20.419-11.469-36.245-26.822-37.679-33.429a3.575,3.575,0,0,1,.463-2.976c1.6-2.18,5.482-2.3,11.879-.371a75.212,75.212,0,0,1,8.4,3.149l-1.124,2.471c-7.113-3.235-15.626-5.477-16.961-3.648a1.194,1.194,0,0,0,0,.8c1.13,5.209,15.855,20.123,36.354,31.638a223.075,223.075,0,0,0,30.4,14.521c10.179,3.739,13.367,3.133,13.682,2.627,1.577-2.549.214-5.416-11.618-14l1.6-2.2c11.089,8.049,15.5,12.5,12.33,17.628C57.716,3189.689,56.267,3190.17,54.292,3190.171Z" transform="translate(-36.362 -26.353)" fill="#ff8e9e"/>
      <path id="Path_4221" data-name="Path 4221" d="M-9.828,3270.937l-5.8-15.177-9.239-24.192-2.122-5.556c-.407-1.064-2.136-.6-1.724.476l5.8,15.176,9.239,24.192,2.122,5.556c.407,1.064,2.136.6,1.724-.475Z" transform="translate(-41.182 -39.186)" fill="#313131"/>
      <path id="Path_4222" data-name="Path 4222" d="M-180.641,3225.4l.111,28.069c.919,11.591,10.458,13.471,21.217,9.727l77.292-28.081-9.753-23.246-46.991,17.626c-4.9,1.694-13.755,7.683-14.995,1.611l-2.6-7.063Z" transform="translate(-9.994 -36.405)" fill="#ffc517"/>
      <path id="Path_4223" data-name="Path 4223" d="M-27.394,3224.748a77.092,77.092,0,0,0,14.679-8.7c.916-.675.025-2.227-.9-1.543a77.114,77.114,0,0,1-14.679,8.7c-1.052.458-.143,2,.9,1.544Z" transform="translate(-41.183 -36.912)" fill="#313131"/>
      <path id="Path_4224" data-name="Path 4224" d="M-61.861,3228.608s4.969-.38,23.3-11.089c5.914-2.855,18.626-9.51,17.856-11.257-1.685-3.825-14.981,5.138-15.652,2.8s15.205-9.644,12.79-13.561c-1.327-2.151-14.5,7.388-15.057,5.275s12.969-10.976,11.423-14.239c-1.657-3.5-13.463,8.941-14.992,5.787s13.638-11.953,10.1-14.893-20.324,19.34-26.542,16.4c-2.443-1.153,1.492-12.683-3.438-12.9s-4.059,16.473-5.774,20.212C-73.276,3212.986-61.861,3228.608-61.861,3228.608Z" transform="translate(-32.856 -29.279)" fill="#ffc517"/>
      <path id="Path_4225" data-name="Path 4225" d="M-44.237,3199.466a42.99,42.99,0,0,1,3.834,6.517c1.894,3.9,3.578,8.542,2.738,12.928-.227,1.188,1.592,1.7,1.821.5.9-4.7-.645-9.493-2.614-13.722a43.046,43.046,0,0,0-4.148-7.177c-.709-.972-2.347-.031-1.631.953Z" transform="translate(-37.969 -33.578)" fill="#313131"/>
    </g>
  </g>
</svg>
