<svg xmlns="http://www.w3.org/2000/svg" width="350" height="278.581" viewBox="0 0 350 278.581">
  <g id="Group_3288" data-name="Group 3288" transform="translate(11818 5002.5)">
    <path id="Subtraction_13" data-name="Subtraction 13" d="M350,198.491c-62.858-2.878-127.024-7.125-190.713-12.624C105.971,181.263,52.379,175.732,0,169.428V0H350V198.49h0Z" transform="translate(-11818 -5002.5)" fill="#86dec6"/>
    <g id="Group_3285" data-name="Group 3285" transform="translate(-11826.225 -4973.088)">
      <path id="Path_3921" data-name="Path 3921" d="M-1614.921,3382.073s-18.93,5.951-23.731,23.589c13.682,3.724,16.251,1.483,16.251,1.483Z" transform="translate(1821.849 -3375.963)" fill="#313131"/>
      <path id="Path_3920" data-name="Path 3920" d="M-1644.639,3422.557l-8.04,54.3,29.579-.774.667-51.977Z" transform="translate(1844.789 -3371.919)" fill="#313131"/>
      <path id="Path_3924" data-name="Path 3924" d="M-1660.839,3461.385l30.405-1.37s2.146-.794,25.9-2.043,32.467,23.441,33.032,30.482,1.036,18.465,2.077,43c-11.42,9.564-33.529,2.719-33.529,2.719l4.085,45.747s-85.909-18.426-86.025-25.071-.916-11.822-6.841-21.424a23.489,23.489,0,0,1-1.55-21.636c1.211-2.426,6.642-6.183,6.127-12.383s-9.96-4.916-9.96-4.916-22.495.861-36.608,1.385c-7.392-12.926.169-32.692.169-32.692" transform="translate(1883.275 -3364.9)" fill="#fff"/>
      <path id="Path_3930" data-name="Path 3930" d="M-1697.365,3510.253" transform="translate(1968.87 -3363.16)" fill="#313131"/>
      <path id="Path_4275" data-name="Path 4275" d="M-1698.045,3539.233a1.252,1.252,0,0,0,.464.035,1.246,1.246,0,0,0,1.1-1.375l-3.068-27.877a1.247,1.247,0,0,0-1.375-1.1,1.247,1.247,0,0,0-1.1,1.375l3.068,27.878A1.249,1.249,0,0,0-1698.045,3539.233Z" transform="translate(1978.039 -3368.759)" fill="#313131"/>
      <rect id="Rectangle_1493" data-name="Rectangle 1493" width="36.044" height="82.698" rx="16.385" transform="translate(215.86 35.417) rotate(2.584)" fill="#fec739"/>
      <circle id="Ellipse_655" data-name="Ellipse 655" cx="30.643" cy="30.643" r="30.643" transform="translate(190.709 2.859)" fill="#fec739"/>
      <circle id="Ellipse_656" data-name="Ellipse 656" cx="30.643" cy="30.643" r="30.643" transform="translate(189.945 19.792)" fill="#fec739"/>
      <rect id="Rectangle_1494" data-name="Rectangle 1494" width="16.509" height="61.287" transform="translate(189.996 48.613) rotate(-87.416)" fill="#fec739"/>
      <circle id="Ellipse_657" data-name="Ellipse 657" cx="3.576" cy="3.576" r="3.576" transform="translate(196.378 35.655)" fill="#313131"/>
      <circle id="Ellipse_658" data-name="Ellipse 658" cx="3.576" cy="3.576" r="3.576" transform="translate(217.474 36.607)" fill="#313131"/>
      <path id="Path_4276" data-name="Path 4276" d="M-1640.69,3412.054l-2.276,13.455-.321,1.9c-.137.807.687,1.461,1.395,1.528l3.547.338c1.876.179,2-2.745.132-2.922l-3.547-.338,1.4,1.527,2.276-13.455.322-1.9a1.472,1.472,0,0,0-1.4-1.528,1.5,1.5,0,0,0-1.527,1.4Z" transform="translate(1848.914 -3373.108)" fill="#313131"/>
      <path id="Path_4277" data-name="Path 4277" d="M-1649.454,3436.533c3.429.726,7.732.621,10.152-2.25a1.467,1.467,0,0,0-.433-2.024,1.511,1.511,0,0,0-2.024.435c.28-.333-.008-.008-.074.055-.088.085-.181.167-.276.244-.232.188-.074-.014.012,0-.046-.009-.264.168-.312.2a5.645,5.645,0,0,1-.578.29c-.381.163.166-.044-.08.037-.089.028-.177.06-.267.085a8.867,8.867,0,0,1-1.382.292,1.814,1.814,0,0,0-.37.041c.158-.061.277-.021.022,0-.225.016-.451.024-.676.027a15.821,15.821,0,0,1-2.211-.124c-.231-.029-.462-.065-.693-.1-.265-.042.465.088.172.031l-.075-.016a1.5,1.5,0,0,0-1.845.94,1.481,1.481,0,0,0,.939,1.844Z" transform="translate(1858.955 -3370.973)" fill="#313131"/>
      <ellipse id="Ellipse_659" data-name="Ellipse 659" cx="6.738" cy="9.503" rx="6.738" ry="9.503" transform="matrix(-0.314, -0.949, 0.949, -0.314, 246.243, 47.847)" fill="#f97253"/>
      <path id="Path_3931" data-name="Path 3931" d="M-1704.3,3384.385s9.808,17.175,35.307,14.31c-8.585,84.251-6.758,86.02-6.758,86.02l44.913-1.821s16.957-93.831-30.367-104.753C-1678.075,3372.9-1702.942,3381.817-1704.3,3384.385Z" transform="translate(1907.025 -3376.518)" fill="#313131"/>
      <path id="Path_2787" data-name="Path 2787" d="M-1570.363,3428.621h5.026a58.356,58.356,0,0,1,29.17,7.817l4.352,2.513a58.334,58.334,0,0,1,21.352,21.352l2.514,4.352a58.346,58.346,0,0,1,7.814,29.167v5.025a58.333,58.333,0,0,1-7.814,29.169l-2.514,4.353a58.334,58.334,0,0,1-21.352,21.353l-4.352,2.513a58.346,58.346,0,0,1-29.17,7.814h-5.026a58.34,58.34,0,0,1-29.169-7.814l-4.353-2.513a58.345,58.345,0,0,1-21.351-21.353l-2.513-4.353a58.338,58.338,0,0,1-7.816-29.169v-5.03a58.329,58.329,0,0,1,7.816-29.166l2.513-4.352a58.34,58.34,0,0,1,21.351-21.352l4.353-2.513A58.331,58.331,0,0,1-1570.363,3428.621Z" transform="translate(1720.267 -3362.683)" fill="#ff8e9e"/>
      <path id="Path_2788" data-name="Path 2788" d="M-1562.821,3431.134h5.023a58.351,58.351,0,0,1,29.168,7.814l4.352,2.513a58.347,58.347,0,0,1,21.355,21.352l2.512,4.354a58.351,58.351,0,0,1,7.815,29.166v5.025a58.355,58.355,0,0,1-7.815,29.167l-2.512,4.352a58.341,58.341,0,0,1-21.355,21.353l-4.352,2.512a58.347,58.347,0,0,1-29.168,7.815h-5.023a58.347,58.347,0,0,1-29.17-7.815l-4.352-2.512a58.337,58.337,0,0,1-21.352-21.353l-2.513-4.352a58.328,58.328,0,0,1-7.814-29.167v-5.021a58.325,58.325,0,0,1,7.814-29.167l2.513-4.353a58.339,58.339,0,0,1,21.352-21.351l4.352-2.513A58.345,58.345,0,0,1-1562.821,3431.134Z" transform="translate(1705.754 -3362.873)" fill="#019e96"/>
      <ellipse id="Ellipse_259" data-name="Ellipse 259" cx="52.521" cy="52.521" rx="52.521" ry="52.521" transform="translate(92.93 83.454)" fill="#fff"/>
      <path id="Path_3228" data-name="Path 3228" d="M-1596.424,3492.946a1.386,1.386,0,0,0,1.366-1.169,51.142,51.142,0,0,1,58.624-42.359,51.144,51.144,0,0,1,29.087,15.418,1.389,1.389,0,0,0,1.962-.044,1.389,1.389,0,0,0,.057-1.855,53.908,53.908,0,0,0-76.2-2.278,53.912,53.912,0,0,0-16.262,30.681,1.386,1.386,0,0,0,1.145,1.588h0A1.275,1.275,0,0,0-1596.424,3492.946Z" transform="translate(1690.237 -3363.997)" fill="#313131"/>
      <path id="Path_3230" data-name="Path 3230" d="M-1516.041,3491.583c1.493,4.706,12,6.536,22.558,12.795,10.618,6.313,24.454,2.191,36.3-2.608-1.011-.5-2.092-1.036-3.214-1.613-9.444-4.752-22.171-11.59-24.384-15.208-2.419-3.94-.3-5.743,3.956-8.365.348-.223.708-.429,1.067-.635-.55-.162-1.1-.322-1.639-.464-7.135-1.97-16.909,4.752-24.378,5.011C-1505.776,3480.49-1518.706,3483.178-1516.041,3491.583Z" transform="translate(1567.168 -3366.202)" fill="#fec739"/>
      <g id="_" data-name=" " transform="translate(130.038 103.691)" style="isolation: isolate">
        <text id="_2" data-name="$" transform="translate(0 44)" font-size="45" font-family="Montserrat-Bold, Montserrat" font-weight="700" style="isolation: isolate"><tspan x="0" y="0">$</tspan></text>
      </g>
      <path id="Path_3928" data-name="Path 3928" d="M-1579.287,3539.692l3.363,37.718a5.356,5.356,0,0,1-4.857,5.815,5.337,5.337,0,0,1-2.093-.227c-23.617-7.462-94.5-29.478-108.345-29.14a156.209,156.209,0,0,0-16.035-22.988s2.722,28.091-31.628,2.18c4.488,28.956,33.476,29.569,40.208,32.116,13.1,10.387,62.177,33.879,99.825,46.414,29.03,9.665,49.288,12.469,51.575-2.342a265.1,265.1,0,0,0,1.518-72.266l-33.527,2.72" transform="translate(1859.609 -3370.421)" fill="#fec739"/>
    </g>
  </g>
</svg>
