<svg xmlns="http://www.w3.org/2000/svg" width="350" height="239.688" viewBox="0 0 350 239.688">
  <g id="Group_3303" data-name="Group 3303" transform="translate(-2419 4588.49)">
    <path id="Subtraction_18" data-name="Subtraction 18" d="M6.911,192.859V0h350V155.5c-8.252,1.226-16.736,2.51-25.218,3.819-52.251,8.061-106.959,15.02-162.6,20.686C116.7,185.342,62.132,189.665,6.911,192.859Z" transform="translate(2412.089 -4588.49)" fill="#9fd2ea"/>
    <g id="Group_3302" data-name="Group 3302" transform="translate(1249.194 -7648.304)">
      <g id="Group_2862" data-name="Group 2862" transform="translate(1193.576 3093.199)">
        <path id="Path_4226" data-name="Path 4226" d="M1290.347,3170.957s27.183-.041,26.953-8.457c-.1-3.675,28.045-1.7,28.045-1.7s2.32,6.083,17.335,6.764c9.12,11.252,2.411,33,2.411,33l-45.131,8.132-29.885-16.061Z" transform="translate(-1185.64 -3087.995)" fill="#fec739"/>
        <path id="Path_3300" data-name="Path 3300" d="M1277.13,3292.564c20.016.891,96.751-2.059,112.292,0,2.322.24,3.7-22.6,3.939-24.922a4.181,4.181,0,0,0,.013-.717c-.122-2.953-.288-5.861-.485-8.766,8.558-.515,15.856-2.866,23.485-2.866,3.592,0,5.99-.079,10.464-.318-.591-19.027-3.68-33.246-10.274-51.623a52.628,52.628,0,0,0-34.886-33.144q-7.43-2.114-14.769-3.484c-1.273,18.813-14.177,33.492-37.174,32.825-18-.5-29.13-13.891-35.159-29.437-19.677,5.393-35.617,12.519-55.536,24.273l-.4.866c2.136,9.848,3.011,23.485,11.01,35.724,10.452-4.453,20.887-9.3,32.84-15.151C1282.488,3215.826,1290.963,3264.976,1277.13,3292.564Z" transform="translate(-1189.87 -3087.152)" fill="#fff"/>
        <path id="Path_3297" data-name="Path 3297" d="M1231.927,3162.568c14.907-16.979,30.789-29.261,52.489-42.362,5.345-3.224,11.039-6.494,17.17-9.912-5.827,6.685-10.822,14.273-7.359,18.275a68.549,68.549,0,0,0,8.185,6.949c-6.212,2.954-13.111,3.887-19.913,4.272-2.947,4.944-5.655,9.437-8.251,13.566l-.012.01c-12.562,20.071-23.486,31.232-41.1,48.109-2.6,2.489,3.08,2.738,9.6-2.442.794,4.079,6.547,30.175,10.612,36.587-66.07,21.5-63.059-2.952-56.576-20.318a61.1,61.1,0,0,1,7.75-14.92C1214.036,3185.167,1222.791,3172.987,1231.927,3162.568Z" transform="translate(-1193.576 -3091.793)" fill="#fec739"/>
        <g id="Group_2316" data-name="Group 2316" transform="translate(58.932 127.516)">
          <path id="Path_3298" data-name="Path 3298" d="M1276.432,3289.812a1.047,1.047,0,0,0,1-.737c7.537-24.188,9.149-46.536,5.566-77.124a1.049,1.049,0,0,0-1.166-.919,1.02,1.02,0,0,0-.337.1c-10.791,5.28-24.194,11.149-32.838,14.923a1.049,1.049,0,1,0,.84,1.922c8.313-3.63,21.35-9.32,31.586-14.309,3.325,29.527,1.668,51.287-5.654,74.782a1.048,1.048,0,0,0,.687,1.312h0A1.06,1.06,0,0,0,1276.432,3289.812Z" transform="translate(-1248.03 -3211.025)" fill="#313131"/>
        </g>
        <path id="Path_4230" data-name="Path 4230" d="M1373.473,3200.161q.346,15.427,1.215,30.839c.239,4.212.517,8.423.875,12.626.175,2.067,3.424,2.085,3.247,0-1.13-13.306-1.627-26.673-2-40.019q-.049-1.723-.09-3.446c-.047-2.085-3.293-2.093-3.247,0Z" transform="translate(-1178.781 -3084.532)" fill="#313131"/>
        <g id="Group_2318" data-name="Group 2318" transform="translate(47.719 83.642)">
          <path id="Path_3308" data-name="Path 3308" d="M1238.718,3194.948a1.044,1.044,0,0,0,.523-.14c17.411-10.011,33.71-17.3,49.827-22.279a1.049,1.049,0,0,0-.62-2c-16.267,5.028-32.7,12.376-50.253,22.465a1.049,1.049,0,0,0,.524,1.958Z" transform="translate(-1237.669 -3170.485)" fill="#313131"/>
        </g>
        <g id="Group_2319" data-name="Group 2319" transform="translate(181.059 79.552)">
          <path id="Path_3309" data-name="Path 3309" d="M1416.791,3255.223a1.059,1.059,0,0,0,1.049-1.07v-.032A174.165,174.165,0,0,0,1407.5,3203a53.753,53.753,0,0,0-35.586-33.8c-3.284-.933-6.577-1.766-9.787-2.474a1.049,1.049,0,0,0-.451,2.047c3.169.7,6.421,1.521,9.664,2.443a51.656,51.656,0,0,1,34.186,32.489,172.152,172.152,0,0,1,10.221,50.523A1.049,1.049,0,0,0,1416.791,3255.223Z" transform="translate(-1360.876 -3166.706)" fill="#313131"/>
        </g>
        <path id="Path_3316" data-name="Path 3316" d="M1370.305,3129.828l-14.2,50.156s20.306-10.232,44.259,1.98,53.545,23.015,67.166,5.167c4.7-29.121,7.516-66.7,7.516-66.7s-17.38,25.832-32.41,17.848-28.755-38.061-67.64-32.878C1373.593,3116.208,1370.305,3129.828,1370.305,3129.828Z" transform="translate(-1177.116 -3092.756)" fill="#019e96"/>
        <g id="Group_3018" data-name="Group 3018" transform="translate(-2.124 -3)">
          <path id="Path_3303" data-name="Path 3303" d="M1346.7,3143.807c.127-.314.252-.644.377-.958a32.191,32.191,0,0,0,2.132-10.254c.361-13.174-9.862-27.434-21.938-27.78-7.506-.2-20.4,5.779-24.78,20.367a76.864,76.864,0,0,0,15.259,1.978,88.319,88.319,0,0,0,21.653-2.152c2.638,6.5,4.381,12,4.946,23.32A29.36,29.36,0,0,0,1346.7,3143.807Z" transform="translate(-1183.885 -3091.783)" fill="#313131"/>
          <path id="Rectangle_1464" data-name="Rectangle 1464" d="M6.809,0H21.2a6.809,6.809,0,0,1,6.809,6.809v45.2A12.251,12.251,0,0,1,15.758,64.262H12.251A12.251,12.251,0,0,1,0,52.011V6.809A6.809,6.809,0,0,1,6.809,0Z" transform="translate(132.855 39.568) rotate(-1.57)" fill="#fec739"/>
          <circle id="Ellipse_642" data-name="Ellipse 642" cx="23.812" cy="23.812" r="23.812" transform="translate(113.192 13.962)" fill="#fec739"/>
          <circle id="Ellipse_643" data-name="Ellipse 643" cx="23.812" cy="23.812" r="23.812" transform="translate(113.553 27.129)" fill="#fec739"/>
          <rect id="Rectangle_1465" data-name="Rectangle 1465" width="47.624" height="12.829" transform="matrix(1, -0.027, 0.027, 1, 113.201, 38.427)" fill="#fec739"/>
          <circle id="Ellipse_644" data-name="Ellipse 644" cx="2.779" cy="2.779" r="2.779" transform="translate(115.831 41.033)" fill="#313131"/>
          <circle id="Ellipse_645" data-name="Ellipse 645" cx="2.779" cy="2.779" r="2.779" transform="translate(136.302 41.565)" fill="#313131"/>
          <path id="Path_4227" data-name="Path 4227" d="M1310.22,3131.415l-1.006,10.556-.142,1.493c-.061.633.615,1.093,1.167,1.1l2.769.063c1.463.032,1.4-2.24-.063-2.273l-2.768-.063,1.167,1.1,1.008-10.556.142-1.493a1.144,1.144,0,0,0-1.168-1.1,1.165,1.165,0,0,0-1.105,1.168Z" transform="translate(-1183.083 -3088.683)" fill="#313131"/>
          <path id="Path_4228" data-name="Path 4228" d="M1312.4,3150.043c2.7.37,6.027.046,7.741-2.316a1.14,1.14,0,0,0-.45-1.544,1.173,1.173,0,0,0-1.544.451c.2-.274-.007-.005-.054.047-.064.071-.13.139-.2.2-.17.159-.057-.007.009,0-.036,0-.194.145-.23.168a4.352,4.352,0,0,1-.433.257c-.285.148.127-.043-.059.032-.068.028-.135.056-.2.082a6.8,6.8,0,0,1-1.054.3,1.427,1.427,0,0,0-.285.055c.12-.057.214-.032.017-.006-.174.025-.348.044-.523.06a12.44,12.44,0,0,1-1.72.028c-.182-.009-.362-.024-.543-.039-.209-.018.366.042.135.013l-.059-.007a1.164,1.164,0,0,0-1.375.831,1.15,1.15,0,0,0,.831,1.376Z" transform="translate(-1182.78 -3086.756)" fill="#313131"/>
          <ellipse id="Ellipse_646" data-name="Ellipse 646" cx="7.385" cy="5.236" rx="7.385" ry="5.236" transform="translate(153.106 37.814) rotate(-22.443)" fill="#fec739"/>
          <g id="Group_2321" data-name="Group 2321" transform="translate(111.477 37.369)">
            <path id="Path_3311" data-name="Path 3311" d="M1296.137,3132.286c0-1.812.8-3.187,2.749-4.749a5.084,5.084,0,0,1,2.929-1.01c.163-.013.325-.02.486-.02a7.118,7.118,0,0,1,6.7,7.481c0,2.692-1.937,5.412-6.265,5.412C1299.45,3139.4,1296.137,3137.2,1296.137,3132.286Zm5.859-3.6a3.034,3.034,0,0,0-1.751.545c-1.784,1.427-1.933,2.291-1.933,3.053,0,3.638,2.286,4.937,4.423,4.937,3.016,0,4.09-1.673,4.09-3.238,0-3.175-2.339-5.308-4.524-5.308-.1,0-.2,0-.305.013Z" transform="translate(-1296.137 -3126.508)" fill="#fff"/>
          </g>
          <g id="Group_2322" data-name="Group 2322" transform="translate(121.021 38.708)">
            <path id="Path_3312" data-name="Path 3312" d="M1317.463,3132.612a1.087,1.087,0,0,0,.861-1.75,8.913,8.913,0,0,0-7.213-3.152,11.593,11.593,0,0,0-5.921,1.589,1.087,1.087,0,0,0,1.084,1.885c.018-.01.037-.021.055-.034a9.359,9.359,0,0,1,4.783-1.266,6.78,6.78,0,0,1,5.491,2.3A1.079,1.079,0,0,0,1317.463,3132.612Z" transform="translate(-1304.644 -3127.701)" fill="#fff"/>
          </g>
          <g id="Group_2320" data-name="Group 2320" transform="translate(133.148 38.16)">
            <path id="Path_3310" data-name="Path 3310" d="M1315.453,3133.263a6.556,6.556,0,0,1,6.5-6.051,12.131,12.131,0,0,1,1.866.158c3.6.554,5.213,3.884,5.213,6.939a6.342,6.342,0,0,1-5.819,6.507A7.668,7.668,0,0,1,1315.453,3133.263Zm2.174,0a5.49,5.49,0,0,0,5.587,5.375,4.181,4.181,0,0,0,3.645-4.328c0-2.132-1.042-4.433-3.366-4.79a10.084,10.084,0,0,0-1.535-.133,4.366,4.366,0,0,0-4.328,3.876Z" transform="translate(-1315.453 -3127.212)" fill="#fff"/>
          </g>
          <path id="Path_4229" data-name="Path 4229" d="M1326.19,3125.784s10.123,7.961,10.778,10.746l2.293-.327s-.578-10.314,2.6-11.368-1.777-6.812-1.777-6.812Z" transform="translate(-1180.996 -3090.173)" fill="#313131"/>
          <path id="Path_3305" data-name="Path 3305" d="M1297.234,3125.853s7.637-25.2,29.017-22.908,21.98,19.915,21.98,19.915S1315.942,3134.762,1297.234,3125.853Z" transform="translate(-1184.526 -3092.029)" fill="#019e96"/>
          <path id="Path_3306" data-name="Path 3306" d="M1331.334,3128.81s-29.77,5.954-41.824-7.032c-10.443-11.246-5.694-31.758,11.084-28.161S1305.495,3120.911,1331.334,3128.81Z" transform="translate(-1186.141 -3093.199)" fill="#313131"/>
          <g id="Group_2323" data-name="Group 2323" transform="translate(143.933 30.497)">
            <path id="Path_3313" data-name="Path 3313" d="M1326.156,3131.423a1.077,1.077,0,0,0,.77-.318c1.618-1.618,2.917-2.982,3.994-4.119,3.266-3.437,4.281-4.429,5.937-4.429a4.944,4.944,0,0,1,3.566,1.733,1.087,1.087,0,0,0,1.636-1.431,7.075,7.075,0,0,0-5.2-2.476c-2.662,0-4.182,1.6-7.517,5.1-1.07,1.122-2.356,2.477-3.956,4.08a1.087,1.087,0,0,0,.767,1.855Z" transform="translate(-1325.066 -3120.382)" fill="#fff"/>
          </g>
          <path id="Path_4231" data-name="Path 4231" d="M1316.159,3168.123s17.791,1.985,27.9-2.878" transform="translate(-1182.219 -3084.416)" fill="none" stroke="#313131" stroke-linecap="round" stroke-miterlimit="10" stroke-width="2"/>
        </g>
        <path id="Path_4232" data-name="Path 4232" d="M1416.747,3132.078a22.418,22.418,0,1,0,22.417,22.419A22.418,22.418,0,0,0,1416.747,3132.078Zm20.963,19.446c-.68.6-1.441,1.131-1.543,1.995s.489,1.607.374,2.42c-.164,1.195-1.671,1.684-2.267,2.764s-.14,2.5-.267,3.766c-.248,2.49-2.776,4.117-3.64,6.468-.159.438-.305.952-.73,1.149-.584.274-1.213-.26-1.64-.749a8.208,8.208,0,0,1-2.254-4.015,24.57,24.57,0,0,1,.164-3.481,6.639,6.639,0,0,0-1.372-4.071,2.167,2.167,0,0,0-1.537-.991,5.289,5.289,0,0,0-1.753.635,3.925,3.925,0,0,1-2.866-.07,10.928,10.928,0,0,1-2.541-1.5,6.843,6.843,0,0,1-1.7-1.563,2.414,2.414,0,0,1-.343-2.236c.3-.7,1-1.137,1.385-1.8s.425-1.671.959-2.319c.712-.857,2.23-1.029,2.484-2.115.191-.819-.508-1.563-.68-2.382a2.4,2.4,0,0,1,.68-2.072,4.28,4.28,0,0,1,1.957-1.087c.807-.228,1.8-.438,2.058-1.238s-.337-1.563.318-2.275a3.063,3.063,0,0,1,.946-.635,3.5,3.5,0,0,1,1.036-.343,2.111,2.111,0,0,0,.877-.184.868.868,0,0,0,.146-.127,21.206,21.206,0,0,1,11.721,16.053Zm-18.448-18.042a4.73,4.73,0,0,1-3.812,2.58,8.112,8.112,0,0,0-1.492.107c-1.6.413-2.338,2.351-4.173,2.173a.4.4,0,0,1-.325-.152.437.437,0,0,1,0-.35l.73-2.242a5.531,5.531,0,0,0-2.756-.1,21.024,21.024,0,0,1,9.313-2.147A21.268,21.268,0,0,1,1419.262,3133.482Zm-12.9,2.6,1.575.515c.083.425-.3.806-.686,1.01a3,3,0,0,0-1.1.686c-.87,1.143,1.125,3.037.127,4.078-1.614,1.023-2.039-1.995-2.732.73-.311,1.22-1.7,1.27-2.541,1.906a6.048,6.048,0,0,0-1.714,2.129c-.635,1.01-2.833,2.706-3.444,4.351A21.19,21.19,0,0,1,1406.36,3136.087Zm-5.978,31.763v-.241a8.01,8.01,0,0,0-.215-2.4,8.612,8.612,0,0,0-1.417-1.962c-1.271-1.658-1.436-3.869-1.417-5.947,0-.425-.635-1.074-.826-1.41s-.451-.7-.635-1.067c-.09-.153-.166-.292-.236-.432,0-.6.032-1.188.083-1.766a2.3,2.3,0,0,0,1.231,1.5c1.195.712,2.777-.241,4.028.375,1.614.795,2.287,2.845,3.862,3.71a13.865,13.865,0,0,0,2.261.755,6.107,6.107,0,0,1,1.906,1.08,1.905,1.905,0,0,1,.839,1.506c-.051.635-.584,1.067-.768,1.658-.261.839.222,1.83-.2,2.6s-1.766.985-2.147,1.868c-.267.635.044,1.333,0,2.008a9.1,9.1,0,0,1-.559,1.855,9.642,9.642,0,0,0-.222,1.136,21.315,21.315,0,0,1-5.571-4.8Z" transform="translate(-1174.066 -3090.814)" fill="#fff"/>
        <path id="Path_4233" data-name="Path 4233" d="M1438.868,3152.963c3.278,1.433,7.224,3.088,9.585,5.907.521.622.87,1.307.693,1.789.054-.147-.136.208-.225.3a2.637,2.637,0,0,1-.834.61,16.751,16.751,0,0,1-6.741,1.539,68.651,68.651,0,0,1-11.157-.153,120,120,0,0,1-26.949-5.5,72.019,72.019,0,0,1-10.168-4.066,22.057,22.057,0,0,1-6.265-4.2,4.516,4.516,0,0,1-.753-.992,2.4,2.4,0,0,1-.253-.656.567.567,0,0,1,.118-.491,3.31,3.31,0,0,1,.918-.785c3.239-1.882,7.838-1.752,11.442-1.746a1.624,1.624,0,0,0,0-3.247c-4.055-.006-8.528.1-12.292,1.793-2.23,1-3.978,3.044-3.241,5.6.666,2.312,2.9,4,4.794,5.281a50.52,50.52,0,0,0,10.168,4.987,119.416,119.416,0,0,0,29.952,7.024,75.4,75.4,0,0,0,13.176.435c2.945-.2,6.167-.539,8.806-1.975,2.437-1.326,3.539-3.85,2.155-6.407a12.35,12.35,0,0,0-3.922-3.9,41.531,41.531,0,0,0-7.367-3.952c-1.9-.829-3.55,1.967-1.639,2.8Z" transform="translate(-1175.033 -3090.058)" fill="#313131"/>
        <line id="Line_117" data-name="Line 117" y1="168.75" x2="43.485" transform="translate(154.245 12.054)" fill="none" stroke="#313131" stroke-linecap="round" stroke-miterlimit="10" stroke-width="3"/>
        <path id="Path_3317" data-name="Path 3317" d="M1418.015,3249.2s-1.556,35.409-26.373,23.44a217.057,217.057,0,0,1-32.173-18.568,49.555,49.555,0,0,1-14.084,5.212c-.369.086-.746.167-1.126.248.147-.238.294-.476.433-.721,1.7-2.928,2.381-4.681-.325-6.253-2.48-1.448-12.257-1.443-19.407-1.242-.854.016-1.671.04-2.433.069,5.519-6.659,12.446-13.552,20.8-13.195,25.865,1.073,44.316,4.557,61.328,11.364" transform="translate(-1182.971 -3081.276)" fill="#fec739"/>
      </g>
      <g id="Group_2328" data-name="Group 2328" transform="translate(1450.365 3164.232)">
        <path id="Path_2787" data-name="Path 2787" d="M1439.307,3158.984h-.734a8.506,8.506,0,0,0-4.256,1.14l-.635.367a8.519,8.519,0,0,0-3.117,3.115l-.366.635a8.512,8.512,0,0,0-1.141,4.257v.733a8.509,8.509,0,0,0,1.141,4.256l.366.636a8.511,8.511,0,0,0,3.117,3.116l.635.367a8.511,8.511,0,0,0,4.256,1.14h.734a8.51,8.51,0,0,0,4.256-1.14l.636-.367a8.528,8.528,0,0,0,3.116-3.116l.365-.636a8.509,8.509,0,0,0,1.141-4.256v-.734a8.511,8.511,0,0,0-1.141-4.256l-.365-.635a8.518,8.518,0,0,0-3.116-3.115l-.636-.367A8.505,8.505,0,0,0,1439.307,3158.984Z" transform="translate(-1429.058 -3158.984)" fill="#ff8e9e"/>
        <path id="Path_2788" data-name="Path 2788" d="M1440.088,3159.244h-.733a8.507,8.507,0,0,0-4.256,1.141l-.635.367a8.513,8.513,0,0,0-3.117,3.116l-.367.635a8.511,8.511,0,0,0-1.14,4.257v.733a8.511,8.511,0,0,0,1.14,4.256l.367.635a8.5,8.5,0,0,0,3.117,3.116l.635.367a8.5,8.5,0,0,0,4.256,1.142h.733a8.5,8.5,0,0,0,4.257-1.142l.635-.367a8.5,8.5,0,0,0,3.116-3.116l.367-.635a8.514,8.514,0,0,0,1.14-4.256v-.733a8.514,8.514,0,0,0-1.14-4.256l-.367-.635a8.506,8.506,0,0,0-3.116-3.116l-.635-.367A8.508,8.508,0,0,0,1440.088,3159.244Z" transform="translate(-1428.822 -3158.905)" fill="#fec739"/>
        <ellipse id="Ellipse_259" data-name="Ellipse 259" cx="7.664" cy="7.664" rx="7.664" ry="7.664" transform="translate(3.235 2.556)" fill="#fff"/>
        <path id="Path_3339" data-name="Path 3339" d="M1446.316,3167.635a.2.2,0,0,1-.2-.171,7.466,7.466,0,0,0-12.8-3.932.2.2,0,0,1-.3-.272l.005,0a7.869,7.869,0,0,1,13.491,4.145.2.2,0,0,1-.167.232Z" transform="translate(-1427.88 -3158.44)" fill="#313131"/>
        <path id="Path_3340" data-name="Path 3340" d="M1438.611,3174.216a7.888,7.888,0,0,1-5.147-1.921.2.2,0,0,1,.266-.307h0a7.464,7.464,0,0,0,12.012-3.422.2.2,0,1,1,.386.121A7.881,7.881,0,0,1,1438.611,3174.216Z" transform="translate(-1427.751 -3156.138)" fill="#313131"/>
        <g id="_" data-name=" " transform="translate(8.675 4.241)" style="isolation: isolate">
          <text id="_2" data-name="¥" transform="translate(-0.234 8.468)" font-size="8" font-family="Montserrat-Bold, Montserrat" font-weight="700" style="isolation: isolate"><tspan x="0" y="0">¥</tspan></text>
        </g>
      </g>
      <g id="Group_2328-2" data-name="Group 2328" transform="translate(1406.283 3120.882)">
        <path id="Path_2787-2" data-name="Path 2787" d="M1398.521,3119.529h-.734a8.519,8.519,0,0,0-4.257,1.14l-.634.367a8.518,8.518,0,0,0-3.117,3.116l-.366.635a8.5,8.5,0,0,0-1.141,4.257v.733a8.5,8.5,0,0,0,1.141,4.256l.366.636a8.508,8.508,0,0,0,3.117,3.116l.634.367a8.514,8.514,0,0,0,4.257,1.141h.734a8.506,8.506,0,0,0,4.256-1.141l.635-.367a8.52,8.52,0,0,0,3.117-3.116l.366-.636a8.514,8.514,0,0,0,1.141-4.256v-.734a8.51,8.51,0,0,0-1.141-4.256l-.366-.635a8.52,8.52,0,0,0-3.117-3.116l-.635-.367A8.511,8.511,0,0,0,1398.521,3119.529Z" transform="translate(-1388.272 -3119.529)" fill="#ff8e9e"/>
        <path id="Path_2788-2" data-name="Path 2788" d="M1399.3,3119.789h-.733a8.519,8.519,0,0,0-4.257,1.14l-.634.367a8.5,8.5,0,0,0-3.117,3.115l-.367.636a8.51,8.51,0,0,0-1.14,4.257v.732a8.513,8.513,0,0,0,1.14,4.256l.367.635a8.5,8.5,0,0,0,3.117,3.116l.634.367a8.505,8.505,0,0,0,4.257,1.142h.733a8.505,8.505,0,0,0,4.257-1.142l.635-.367a8.5,8.5,0,0,0,3.116-3.116l.367-.635a8.513,8.513,0,0,0,1.14-4.256v-.732a8.51,8.51,0,0,0-1.14-4.256l-.367-.635a8.506,8.506,0,0,0-3.116-3.116l-.635-.367A8.524,8.524,0,0,0,1399.3,3119.789Z" transform="translate(-1388.036 -3119.45)" fill="#fec739"/>
        <ellipse id="Ellipse_259-2" data-name="Ellipse 259" cx="7.664" cy="7.664" rx="7.664" ry="7.664" transform="translate(3.235 2.555)" fill="#fff"/>
        <path id="Path_3339-2" data-name="Path 3339" d="M1405.53,3128.18a.2.2,0,0,1-.2-.171,7.466,7.466,0,0,0-12.8-3.932.2.2,0,0,1-.3-.272l.005-.005a7.869,7.869,0,0,1,13.491,4.145.2.2,0,0,1-.167.232Z" transform="translate(-1387.094 -3118.985)" fill="#313131"/>
        <path id="Path_3340-2" data-name="Path 3340" d="M1397.825,3134.76a7.885,7.885,0,0,1-5.147-1.921.2.2,0,1,1,.265-.307h0a7.464,7.464,0,0,0,12.012-3.422.2.2,0,0,1,.387.121A7.881,7.881,0,0,1,1397.825,3134.76Z" transform="translate(-1386.964 -3116.683)" fill="#313131"/>
        <g id="_3" data-name=" " transform="translate(8.494 5.382)" style="isolation: isolate">
          <text id="_4" data-name="$" transform="translate(0 7)" font-size="7" font-family="Montserrat-Bold, Montserrat" font-weight="700" style="isolation: isolate"><tspan x="0" y="0">$</tspan></text>
        </g>
      </g>
      <g id="Group_2328-3" data-name="Group 2328" transform="translate(1407.284 3156.571)">
        <path id="Path_2787-3" data-name="Path 2787" d="M1407.815,3153.866h-.733a8.5,8.5,0,0,0-4.257,1.141l-.635.366a8.52,8.52,0,0,0-3.116,3.116l-.367.635a8.519,8.519,0,0,0-1.14,4.257v.733a8.519,8.519,0,0,0,1.14,4.257l.367.635a8.525,8.525,0,0,0,3.116,3.116l.635.367a8.5,8.5,0,0,0,4.257,1.14h.733a8.5,8.5,0,0,0,4.257-1.14l.635-.367a8.522,8.522,0,0,0,3.116-3.116l.367-.635a8.519,8.519,0,0,0,1.14-4.257v-.733a8.519,8.519,0,0,0-1.14-4.257l-.367-.635a8.517,8.517,0,0,0-3.116-3.116l-.635-.367A8.52,8.52,0,0,0,1407.815,3153.866Z" transform="translate(-1397.567 -3153.866)" fill="#ff8e9e"/>
        <path id="Path_2788-3" data-name="Path 2788" d="M1408.6,3154.126h-.733a8.519,8.519,0,0,0-4.257,1.14l-.635.367a8.521,8.521,0,0,0-3.116,3.117l-.367.634a8.52,8.52,0,0,0-1.14,4.257v.733a8.519,8.519,0,0,0,1.14,4.257l.367.634a8.51,8.51,0,0,0,3.116,3.117l.635.367a8.516,8.516,0,0,0,4.257,1.14h.733a8.509,8.509,0,0,0,4.256-1.14l.636-.367a8.511,8.511,0,0,0,3.116-3.117l.367-.634a8.516,8.516,0,0,0,1.14-4.257v-.733a8.514,8.514,0,0,0-1.14-4.256l-.367-.635a8.515,8.515,0,0,0-3.116-3.116l-.636-.367A8.511,8.511,0,0,0,1408.6,3154.126Z" transform="translate(-1397.331 -3153.787)" fill="#fec739"/>
        <ellipse id="Ellipse_259-3" data-name="Ellipse 259" cx="7.664" cy="7.664" rx="7.664" ry="7.664" transform="translate(3.234 2.556)" fill="#fff"/>
        <path id="Path_3339-3" data-name="Path 3339" d="M1414.824,3162.517a.2.2,0,0,1-.2-.171,7.466,7.466,0,0,0-12.8-3.932.2.2,0,1,1-.3-.272l.005-.005a7.87,7.87,0,0,1,13.491,4.145.2.2,0,0,1-.168.232Z" transform="translate(-1396.39 -3153.322)" fill="#313131"/>
        <path id="Path_3340-3" data-name="Path 3340" d="M1407.119,3169.1a7.874,7.874,0,0,1-5.146-1.921.2.2,0,1,1,.266-.306h0a7.466,7.466,0,0,0,12.012-3.421.2.2,0,1,1,.387.12A7.886,7.886,0,0,1,1407.119,3169.1Z" transform="translate(-1396.26 -3151.02)" fill="#313131"/>
        <g id="_5" data-name=" " transform="translate(8.746 5.24)" style="isolation: isolate">
          <text id="R" transform="translate(-0.347 7.48)" font-size="7" font-family="Montserrat-Bold, Montserrat" font-weight="700" style="isolation: isolate"><tspan x="0" y="0">R</tspan></text>
        </g>
      </g>
    </g>
  </g>
</svg>
