<svg xmlns="http://www.w3.org/2000/svg" width="350" height="252.545" viewBox="0 0 350 252.545">
  <g id="Group_3289" data-name="Group 3289" transform="translate(11386 5002.5)">
    <path id="Subtraction_14" data-name="Subtraction 14" d="M154.759,232.521c-50.62,0-102.688-.946-154.759-2.813V0H350V227.691C286.794,230.9,221.106,232.521,154.759,232.521Z" transform="translate(-11386 -5002.5)" fill="#86dec6"/>
    <g id="Group_3286" data-name="Group 3286" transform="translate(-11323.557 -4965.012)">
      <path id="Path_4278" data-name="Path 4278" d="M-1305.866,3464.894s14.8,1.853,18.571-2.108c10.573-11.1,7.411-41.063,7.411-41.063l-24.545,1.7" transform="translate(1491.735 -3402.153)" fill="#313131"/>
      <path id="Path_4279" data-name="Path 4279" d="M-1186.98,3518.742h-93.689s-23.379-2.187-27.313,26.343-10.821,69.355-10.821,69.355l127.888,2.459Z" transform="translate(1409.887 -3419.582)" fill="#ff8e9e"/>
      <path id="Path_4280" data-name="Path 4280" d="M-1194.486,3538.91l-1.586,7.931-3.809,19.044-4.608,23.041-3.984,19.916-1.312,6.563c-.207,1.032-.367,2.089-.623,3.11-.011.044-.018.089-.027.134-.287,1.439-2.487.83-2.2-.607l1.586-7.93,3.809-19.046,4.609-23.04,3.983-19.916,1.313-6.562c.206-1.033.367-2.089.622-3.11.011-.044.018-.09.027-.135.288-1.439,2.487-.829,2.2.607Z" transform="translate(1330.3 -3422.956)" fill="#313131"/>
      <path id="Rectangle_1495" data-name="Rectangle 1495" d="M9.45,0H27.516a9.45,9.45,0,0,1,9.45,9.45V67.808a17,17,0,0,1-17,17H17a17,17,0,0,1-17-17V9.45A9.45,9.45,0,0,1,9.45,0Z" transform="translate(159.733 33.441) rotate(5.29)" fill="#fec739"/>
      <ellipse id="Ellipse_660" data-name="Ellipse 660" cx="31.427" cy="31.427" rx="31.427" ry="31.427" transform="translate(134.025 0.318)" fill="#fec739"/>
      <ellipse id="Ellipse_661" data-name="Ellipse 661" cx="31.427" cy="31.427" rx="31.427" ry="31.427" transform="translate(132.422 17.628)" fill="#fec739"/>
      <rect id="Rectangle_1496" data-name="Rectangle 1496" width="62.854" height="16.932" transform="translate(195.184 51.502) rotate(-174.71)" fill="#fec739"/>
      <ellipse id="Ellipse_662" data-name="Ellipse 662" cx="3.668" cy="3.668" rx="3.668" ry="3.668" transform="translate(139.587 32.911)" fill="#313131"/>
      <ellipse id="Ellipse_663" data-name="Ellipse 663" cx="3.668" cy="3.668" rx="3.668" ry="3.668" transform="translate(161.152 34.907)" fill="#313131"/>
      <path id="Path_4281" data-name="Path 4281" d="M-1232.452,3442.291l-2.983,13.673-.422,1.934c-.179.82.633,1.529,1.355,1.632l3.617.518c1.913.274,2.184-2.714.276-2.987l-3.617-.519,1.355,1.632,2.984-13.673.422-1.934a1.509,1.509,0,0,0-1.355-1.632,1.537,1.537,0,0,0-1.632,1.356Z" transform="translate(1384.192 -3405.604)" fill="#313131"/>
      <path id="Path_4282" data-name="Path 4282" d="M-1244.285,3474.986c3.478.911,7.89,1.011,10.509-1.813a1.5,1.5,0,0,0-.346-2.094,1.548,1.548,0,0,0-2.094.346c.3-.327-.007-.008-.078.053-.094.084-.193.163-.295.236-.248.182-.075-.017.011.005-.047-.012-.277.158-.329.185a5.519,5.519,0,0,1-.607.268c-.4.149.173-.036-.083.034-.094.024-.185.052-.279.076a9.051,9.051,0,0,1-1.429.23,1.852,1.852,0,0,0-.382.026c.166-.056.286-.009.023,0q-.347.007-.694,0a16.464,16.464,0,0,1-2.259-.234c-.236-.041-.47-.09-.7-.138-.27-.055.473.113.174.04l-.076-.019a1.538,1.538,0,0,0-1.934.873,1.517,1.517,0,0,0,.873,1.934Z" transform="translate(1396.044 -3410.975)" fill="#313131"/>
      <ellipse id="Ellipse_664" data-name="Ellipse 664" cx="6.91" cy="9.746" rx="6.91" ry="9.746" transform="matrix(-0.269, -0.963, 0.963, -0.269, 190.257, 47.646)" fill="#fec739"/>
      <ellipse id="Ellipse_665" data-name="Ellipse 665" cx="22.765" cy="22.765" rx="22.765" ry="22.765" transform="translate(199.431 99.122)" fill="#ff8e9e"/>
      <path id="Path_4283" data-name="Path 4283" d="M-1231.073,3640.733" transform="translate(1382.015 -3441.511)" fill="none" stroke="#313131" stroke-miterlimit="10" stroke-width="0.464"/>
      <path id="Path_4284" data-name="Path 4284" d="M-1313.959,3621.429l-31.73-15.247,68.451,32.891a21.164,21.164,0,0,0,27.5-15.165l17.4-74.042" transform="translate(1477.291 -3425.181)" fill="#ff8e9e"/>
      <path id="Path_4285" data-name="Path 4285" d="M-1286.935,3535.545c-.51.565-1.017,1.133-1.51,1.713q-.342.4-.674.814-.156.2-.31.392c.172-.221-.135.179-.2.264a23.845,23.845,0,0,0-2.266,3.712c-.178.363-.346.729-.509,1.1-.019.043-.123.285-.083.189s-.08.193-.1.246c-.087.214-.173.43-.256.646-.358.926-.677,1.865-.974,2.813-.791,2.53-1.424,5.108-2.011,7.693-1.641,7.236-2.95,14.552-4.421,21.825q-1.974,9.755-4.01,19.5-.678,3.248-1.363,6.5c-.218,1.032-.394,2.086-.658,3.108-.012.045-.02.092-.03.138-.305,1.435-2.505.828-2.2-.607q.853-4,1.688-8.013,1.963-9.376,3.873-18.761c1.508-7.421,2.876-14.875,4.476-22.277a73.408,73.408,0,0,1,4.14-14.236,29.166,29.166,0,0,1,5.02-7.509q.379-.43.764-.854c.987-1.092,2.6.526,1.613,1.614Z" transform="translate(1501.114 -3422.253)" fill="#313131"/>
      <path id="Path_4286" data-name="Path 4286" d="M-1246.19,3633.89l-3.746-2.342-9.054-5.659-10.909-6.819-9.481-5.926c-1.529-.955-3.1-1.869-4.6-2.871-.021-.015-.044-.029-.067-.043a1.152,1.152,0,0,1,.576-2.125l10.7-1.421,19.041-2.529,6.514-.865a3.69,3.69,0,0,1,2.44.084l13.1,6.986,13.022,6.945.23.123c1.3.691.145,2.662-1.152,1.97l-9.016-4.809-14.305-7.629-3.3-1.758.576.156-12.867,1.709-20.333,2.7-4.653.617.576-2.126,3.746,2.342,9.055,5.66,10.909,6.818,9.481,5.926c1.529.955,3.1,1.869,4.594,2.871l.067.042c1.243.776.1,2.751-1.152,1.97Z" transform="translate(1412.703 -3434.752)" fill="#313131"/>
      <path id="Path_4287" data-name="Path 4287" d="M-1172.956,3593.56s-19.866-10.1-24.425-11.236-9.195-2.242-11.8-2.084c3.09,3.252,12.781,13.809,12.781,13.809l25.891,4.072Z" transform="translate(1303.501 -3430.637)" fill="#fec739"/>
      <path id="Path_4288" data-name="Path 4288" d="M-1243.529,3494.6a18.959,18.959,0,0,0,6.378.925,83.2,83.2,0,0,1-7.23,8.278Z" transform="translate(1399.011 -3415.25)" fill="#313131"/>
      <path id="Path_4289" data-name="Path 4289" d="M-1291.93,3435.04s4.548-20.314,23.08-20.671c-.388,9.561,9.978,21.026,18.531,16.75s8.91,3.92,8.91,3.92,3.219,6.824,10.875-4.963c3.714-.826,12.289-2.521,12.289-2.521s11.049-13.542-4.276-22.808-49.916-6.493-49.916-6.493-28.45-1.389-32.9,34.368C-1301.771,3433.691-1291.93,3435.04-1291.93,3435.04Z" transform="translate(1426.25 -3397.865)" fill="#313131"/>
      <g id="Group_2286" data-name="Group 2286" transform="translate(0 34.03)">
        <path id="Path_3244" data-name="Path 3244" d="M-1169.21,3441.143l33.83,54.459-.608,111.083H-1197.3l.949-99.309Z" transform="translate(1258.62 -3439.673)" fill="#efe8d8"/>
        <path id="Path_3245" data-name="Path 3245" d="M-1156.062,3507.791l61.76-.737,27.143-66.232-62.152-1.471Z" transform="translate(1156.57 -3439.351)" fill="#fec739"/>
        <path id="Path_3246" data-name="Path 3246" d="M-1122.967,3621.2h61.314l.949-99.309-61.76.736Z" transform="translate(1122.967 -3454.184)" fill="#fff"/>
        <rect id="Rectangle_275" data-name="Rectangle 275" width="7.494" height="17.799" transform="translate(81.424 49.364)" fill="#ff8e9e"/>
        <rect id="Rectangle_276" data-name="Rectangle 276" width="7.494" height="13.485" transform="translate(90.263 53.783)" fill="#ff8e9e"/>
        <rect id="Rectangle_277" data-name="Rectangle 277" width="7.494" height="3.753" transform="translate(90.086 48.66)" fill="#ff8e9e"/>
        <rect id="Rectangle_278" data-name="Rectangle 278" width="7.494" height="17.799" transform="translate(12.474 85.115)" fill="#ff8e9e"/>
        <rect id="Rectangle_279" data-name="Rectangle 279" width="7.494" height="13.485" transform="translate(21.314 89.535)" fill="#ff8e9e"/>
        <rect id="Rectangle_280" data-name="Rectangle 280" width="7.494" height="3.753" transform="translate(21.137 84.411)" fill="#ff8e9e"/>
        <rect id="Rectangle_281" data-name="Rectangle 281" width="7.494" height="17.799" transform="translate(31.702 131.626)" fill="#ff8e9e"/>
        <rect id="Rectangle_282" data-name="Rectangle 282" width="7.494" height="13.485" transform="translate(40.542 136.045)" fill="#ff8e9e"/>
        <rect id="Rectangle_283" data-name="Rectangle 283" width="7.494" height="3.753" transform="translate(40.365 130.921)" fill="#ff8e9e"/>
      </g>
      <path id="Path_4290" data-name="Path 4290" d="M-1176.718,3599.865s-.765-8.483-8.4-9.211-14.9.408-21.812-2.885-10.178-6.2-13.814-5.111c-3.494,1.048,3.061,8,12.289,10.476a.1.1,0,0,1-.03.191c-10.219-.823-21.15-3.28-26.557-8.559-2.447-2.39-10.422-7.2-8.6-2.834s15.961,21.084,37.425,17.449c9.469-1.692,8.98,3.174,8.98,3.174Z" transform="translate(1337.819 -3430.627)" fill="#fec739"/>
    </g>
  </g>
</svg>
