<svg xmlns="http://www.w3.org/2000/svg" width="232.74" height="29.96" viewBox="0 0 232.74 29.96">
  <g id="Group_3249" data-name="Group 3249" transform="translate(-55 -27.5)">
    <g id="圖層_2" data-name="圖層 2" transform="translate(202.623 31.961)">
      <g id="表頭尾" transform="translate(-0.038 -1.501)">
        <path id="Path_1" data-name="Path 1" d="M72.947.08V1.325h0a.824.824,0,0,1,.124-.206.824.824,0,0,1,.181-.148A.7.7,0,0,1,73.467.88a1.278,1.278,0,0,1,.239,0,.924.924,0,0,1,.437.1.882.882,0,0,1,.305.247,1.113,1.113,0,0,1,.181.371,1.509,1.509,0,0,1,.058.437,1.567,1.567,0,0,1-.091.454,1.072,1.072,0,0,1-.181.363.882.882,0,0,1-.305.247.924.924,0,0,1-.437.091.882.882,0,0,1-.47-.115.676.676,0,0,1-.256-.4h0V3.09H72.7V.08Zm1.427,1.583a.965.965,0,0,0-.132-.3.726.726,0,0,0-.214-.206.61.61,0,0,0-.33-.082.684.684,0,0,0-.355.082.726.726,0,0,0-.239.206,1.2,1.2,0,0,0-.157.3,1.649,1.649,0,0,0,0,.338,1.583,1.583,0,0,0,0,.338,1.2,1.2,0,0,0,.132.3.75.75,0,0,0,.239.214.684.684,0,0,0,.355.082A.61.61,0,0,0,74,2.851a.759.759,0,0,0,.214-.214.965.965,0,0,0,.132-.3,1.584,1.584,0,0,0,0-.338,1.649,1.649,0,0,0,.025-.338Z" transform="translate(-14.737 -0.013)" fill="#fff"/>
        <path id="Path_2" data-name="Path 2" d="M75.589,1.09l.717,1.855.668-1.855h.264L76.3,3.564a1.2,1.2,0,0,1-.115.231.685.685,0,0,1-.107.148.421.421,0,0,1-.148.074.7.7,0,0,1-.206,0h-.2v-.19H75.7a.33.33,0,0,0,.14,0,.206.206,0,0,0,.1-.066.314.314,0,0,0,.074-.107l.066-.165.091-.247L75.3,1.09Z" transform="translate(-15.264 -0.191)" fill="#fff"/>
        <path id="Path_3" data-name="Path 3" d="M81.555.08V.319H79.749v1.1H81.4v.247H79.749V2.851h1.806V3.09H79.46V.08Z" transform="translate(-16.113 -0.013)" fill="#fff"/>
        <path id="Path_4" data-name="Path 4" d="M82.62,3.19h.355v.445H82.62Z" transform="translate(-16.709 -0.559)" fill="#fff"/>
        <path id="Path_5" data-name="Path 5" d="M84.085,2.474a.561.561,0,0,0,.206.247.825.825,0,0,0,.313.132,1.509,1.509,0,0,0,.388,0,1.047,1.047,0,0,0,.264,0,.99.99,0,0,0,.256-.107.627.627,0,0,0,.2-.19.454.454,0,0,0,.082-.28.412.412,0,0,0-.058-.223.528.528,0,0,0-.14-.148.742.742,0,0,0-.2-.1l-.214-.066-.668-.165-.256-.082a.685.685,0,0,1-.223-.14.651.651,0,0,1-.214-.528,1.088,1.088,0,0,1,.041-.231.825.825,0,0,1,.157-.28.932.932,0,0,1,.322-.223A1.3,1.3,0,0,1,84.86,0a1.492,1.492,0,0,1,.429.058,1.113,1.113,0,0,1,.355.181.824.824,0,0,1,.239.289.824.824,0,0,1,.091.412h-.289a.594.594,0,0,0-.091-.305A.758.758,0,0,0,85.429.42a.874.874,0,0,0-.561-.173,1.1,1.1,0,0,0-.289,0,.569.569,0,0,0-.239.1.437.437,0,0,0-.165.181.5.5,0,0,0-.066.3.462.462,0,0,0,0,.19.5.5,0,0,0,.1.132.643.643,0,0,0,.148.091l.173.049.734.181.305.107a1.229,1.229,0,0,1,.247.148.742.742,0,0,1,.173.223.775.775,0,0,1,.058.322.825.825,0,0,1-.058.313,1.645,1.645,0,0,1-.115.19.618.618,0,0,1-.206.173,1,1,0,0,1-.313.132,1.921,1.921,0,0,1-.462,0,1.938,1.938,0,0,1-.495-.058,1.006,1.006,0,0,1-.388-.19.825.825,0,0,1-.247-.322,1.064,1.064,0,0,1-.074-.478h.289a.9.9,0,0,0,.107.445Z" transform="translate(-16.979 0.001)" fill="#fff"/>
        <path id="Path_6" data-name="Path 6" d="M87.4.08V1.944a1.427,1.427,0,0,0,.058.445.742.742,0,0,0,.173.3.577.577,0,0,0,.28.173,1.418,1.418,0,0,0,.742,0,.618.618,0,0,0,.28-.173.742.742,0,0,0,.173-.3,1.427,1.427,0,0,0,.058-.445V.08h.33V2.01a1.559,1.559,0,0,1-.066.437,1.023,1.023,0,0,1-.206.371,1.031,1.031,0,0,1-.363.239,1.328,1.328,0,0,1-.536.091,1.3,1.3,0,0,1-.536-.091.965.965,0,0,1-.363-.239.915.915,0,0,1-.247-.33,1.312,1.312,0,0,1-.066-.437V.08Z" transform="translate(-18.141 -0.013)" fill="#fff"/>
        <path id="Path_7" data-name="Path 7" d="M90.94.08,92.7,2.628h0V.08h.28V3.09h-.322L90.94.542h0V3.09h-.28V.08Z" transform="translate(-18.764 -0.013)" fill="#fff"/>
        <path id="Path_8" data-name="Path 8" d="M96.958.078a1.748,1.748,0,0,1,.363,0,.825.825,0,0,1,.272.157.577.577,0,0,1,.214.231.635.635,0,0,1,.082.346.717.717,0,0,1-.041.231.7.7,0,0,1-.107.206.577.577,0,0,1-.165.148.462.462,0,0,1-.214.091h0a.709.709,0,0,1,.643.734,1.232,1.232,0,0,1,0,.165.924.924,0,0,1-.049.19.7.7,0,0,1-.107.181.66.66,0,0,1-.2.165,1.047,1.047,0,0,1-.289.115,1.649,1.649,0,0,1-.421,0H95.68V.078Zm0,1.319a1.031,1.031,0,0,0,.3-.041.742.742,0,0,0,.214-.107.487.487,0,0,0,.124-.165.5.5,0,0,0,0-.2c0-.379-.223-.569-.676-.569h-.973V1.4Zm0,1.451a1.13,1.13,0,0,0,.3,0,.635.635,0,0,0,.256-.1.478.478,0,0,0,.173-.19.668.668,0,0,0,.066-.305.5.5,0,0,0-.206-.437,1.039,1.039,0,0,0-.585-.157H95.944V2.849Z" transform="translate(-19.644 -0.011)" fill="#fff"/>
        <path id="Path_9" data-name="Path 9" d="M99.063,1.413a.825.825,0,0,1,.181-.231.825.825,0,0,1,.272-.124,1.171,1.171,0,0,1,.346-.049,1.649,1.649,0,0,1,.289,0,.635.635,0,0,1,.256.1.536.536,0,0,1,.19.214.75.75,0,0,1,.074.355v1.2a.14.14,0,0,0,.157.157h.082v.223h-.173a.462.462,0,0,1-.165,0,.165.165,0,0,1-.091-.074.322.322,0,0,1-.049-.124.948.948,0,0,1,0-.157h0a1.9,1.9,0,0,1-.148.19.676.676,0,0,1-.371.223,1.278,1.278,0,0,1-.272,0,1.064,1.064,0,0,1-.289,0,.552.552,0,0,1-.231-.115.536.536,0,0,1-.14-.231.585.585,0,0,1-.091-.313.594.594,0,0,1,.091-.33.651.651,0,0,1,.272-.19,1.3,1.3,0,0,1,.371-.1l.429-.049h.148l.107-.041a.256.256,0,0,0,.074-.115.593.593,0,0,0,0-.14.445.445,0,0,0,0-.223.412.412,0,0,0-.124-.14.437.437,0,0,0-.181-.066.94.94,0,0,0-.223,0,.66.66,0,0,0-.412.115.454.454,0,0,0-.165.388h-.3a.965.965,0,0,1,.082-.346Zm1.328.651a.157.157,0,0,1-.091.066h-.132l-.346.049a1.773,1.773,0,0,0-.33.074.561.561,0,0,0-.239.132.313.313,0,0,0-.1.247.379.379,0,0,0,.041.173.453.453,0,0,0,.107.14.569.569,0,0,0,.157.082.47.47,0,0,0,.181,0,.932.932,0,0,0,.3-.049.742.742,0,0,0,.239-.132.709.709,0,0,0,.165-.214.668.668,0,0,0,.058-.289v-.28Z" transform="translate(-20.207 -0.175)" fill="#fff"/>
        <path id="Path_10" data-name="Path 10" d="M101.94,1.076v.379h0a.643.643,0,0,1,.272-.322.759.759,0,0,1,.421-.124,1.056,1.056,0,0,1,.388.066.569.569,0,0,1,.247.165.61.61,0,0,1,.132.264,1.5,1.5,0,0,1,0,.346v1.4h-.264V1.892a1.277,1.277,0,0,0,0-.256.528.528,0,0,0-.091-.206.363.363,0,0,0-.173-.14.6.6,0,0,0-.264-.049.825.825,0,0,0-.289.049.651.651,0,0,0-.206.157.759.759,0,0,0-.14.239.824.824,0,0,0-.049.3v1.27h-.264V1.076Z" transform="translate(-20.693 -0.176)" fill="#fff"/>
        <path id="Path_11" data-name="Path 11" d="M104.711.08V1.968L105.923.913h.355l-.932.825,1,1.369h-.338l-.825-1.187-.437.363v.825h-.264V.08Z" transform="translate(-21.188 -0.013)" fill="#fff"/>
        <rect id="Rectangle_1" data-name="Rectangle 1" width="7.743" height="3.521" rx="0.85" transform="translate(27.207 7.111)" fill="#00a4ef"/>
        <path id="Path_12" data-name="Path 12" d="M66.78,13.622h0a6.168,6.168,0,0,0-8.807-5.558.7.7,0,0,0-.7-.594H55.161a.7.7,0,0,0-.7.7V19.963a.7.7,0,0,0,.7.7h2.111a.7.7,0,0,0,.709-.7V13.63h0a2.639,2.639,0,1,1,5.277,0v6.358a.7.7,0,0,0,.7.7H66.07a.709.709,0,0,0,.709-.7V13.638h0Z" transform="translate(-11.238 -1.694)" fill="#ffc517"/>
        <path id="Path_13" data-name="Path 13" d="M97.327,7.47a6.6,6.6,0,1,0,6.6,6.6A6.6,6.6,0,0,0,97.327,7.47Zm0,9.673a3.076,3.076,0,1,1,3.084-3.076A3.076,3.076,0,0,1,97.327,17.143Z" transform="translate(-18.776 -1.693)" fill="#ed4848"/>
        <rect id="Rectangle_2" data-name="Rectangle 2" width="3.521" height="13.194" rx="0.85" transform="translate(37.452 5.777)" fill="#00c08b"/>
        <path id="Path_14" data-name="Path 14" d="M84.905,7.47H82.794a.7.7,0,0,0-.709.7v.618a6.6,6.6,0,1,0,0,10.555V22.42A3.208,3.208,0,0,1,75.727,23a.709.709,0,0,0-.693-.577H72.907a.709.709,0,0,0-.7.825,6.721,6.721,0,0,0,13.4-.825V8.171A.7.7,0,0,0,84.905,7.47Zm-6.778,9.673a3.076,3.076,0,1,1,2.18-.9,3.076,3.076,0,0,1-2.18.9Z" transform="translate(-14.824 -2.227)" fill="#f90"/>
        <path id="Path_15" data-name="Path 15" d="M38.348,0H28.511a.7.7,0,0,0-.7.7V18.653a.7.7,0,0,0,.7.7h2.094a.709.709,0,0,0,.709-.7V3.521H41.869A3.521,3.521,0,0,0,38.348,0Z" transform="translate(-5.745 0.001)" fill="#00a4ef"/>
        <circle id="Ellipse_1" data-name="Ellipse 1" cx="1.756" cy="1.756" r="1.756" transform="translate(17.057 15.182)" fill="#00c08b"/>
        <path id="Path_16" data-name="Path 16" d="M49.354.454a.7.7,0,0,0-1.22,0L46.98,2.4a.7.7,0,0,0,.61,1.055h2.251a.709.709,0,0,0,.61-1.055Z" transform="translate(-9.519 -0.017)" fill="#00c08b"/>
        <path id="Path_17" data-name="Path 17" d="M7.976,4.25a7.924,7.924,0,1,0,6.6,12.179.709.709,0,0,0-.561-1.088H11.249a.75.75,0,0,0-.47.173,4.4,4.4,0,0,1-7.034-1.938H15.108a.709.709,0,0,0,.7-.635v-.891a7.941,7.941,0,0,0-7.834-7.8Zm-4.23,6.514a4.4,4.4,0,0,1,8.345,0Z" transform="translate(0.038 -0.745)" fill="#00c08b"/>
      </g>
    </g>
    <g id="圖層_2-2" data-name="圖層 2" transform="translate(55 28.006)">
      <g id="表頭尾-2" data-name="表頭尾" transform="translate(0 -0.006)">
        <path id="Path_18" data-name="Path 18" d="M136.29,7.37a19.532,19.532,0,0,1-4.525,4.341L130.58,9.263A15.5,15.5,0,0,0,134.143,5.9c.708.485,1.416.985,2.147,1.47" transform="translate(-30.086 -1.355)" fill="#019e96"/>
        <rect id="Rectangle_3" data-name="Rectangle 3" width="9.289" height="2.501" transform="translate(107.051 4.976)" fill="#019e96"/>
        <path id="Path_19" data-name="Path 19" d="M147.088,12.8V15.22h-2.47l-.054,6.926a1.855,1.855,0,0,1-1.008,1.278,10.308,10.308,0,0,1-3.848.3l-.985-2.524,3.032-.054a.608.608,0,0,0,.277-.323V15.266l-5.764-.069c0-.608,0-1.239-.054-1.793a11.491,11.491,0,0,1-.831,1.262v9.189H132.85V17.845c-.431.331-.831.731-1.231,1.085l-1.139-2.724A15.977,15.977,0,0,0,134.5,11.48l1.77,1.293Z" transform="translate(-30.063 -2.64)" fill="#019e96"/>
        <path id="Path_20" data-name="Path 20" d="M117.461,19.266c-.2.054-.1-.177-.277-.177-.054-.177-.223-.223-.346-.354s-.262-.169-.231-.423c.069,0,0-.254.177-.154v-.077a4.965,4.965,0,0,0,.577-.377c.054-.077.177-.077.208-.177s.069,0,.123,0v-.054c0-.054.1,0,.123,0V17.4c0-.054.077,0,.1,0V17.35c0-.054.1,0,.131,0v-.077c.046-.054.1,0,.146,0V17.2h.077V17.15c0-.054.077,0,.108,0v-.408c-.208-.046-.108-.354-.331-.4-.077,0,0-.154-.1-.1-.108-.1-.077-.254-.208-.308s-.077-.2-.146-.246-.1-.254-.231-.285a.931.931,0,0,0-.377-.523c-.046.046-.077.123-.177.1s0,.069,0,.069c-.308.131-.508.485-.839.608-.1.154-.277.2-.423.308s-.208-.131-.285-.208c-.046-.323-.323-.77,0-1.008h2.524V6.16h-8l-.046,2.578a7.319,7.319,0,0,1-2.624-2.878h-2.255a12.1,12.1,0,0,1-3.125,3.709c.277.885.577,1.816.931,2.7l.654-.4c.131.123.054.377.077.554h1.285v.631h-2.524V15.28l2.547.054V19.4l-.454.2-2.147.177.131,2.524c2.17-.3,4.317-.708,6.411-1.162.408.177.177.77.254,1.108a1.062,1.062,0,0,0,.708,0c.377.054.477-.223.854-.123.108-.2.477,0,.608-.146a10.49,10.49,0,0,0,1.385-.285,3.909,3.909,0,0,0,.862-.2c.277-.077.685,0,.885-.223V19.651l.123-.077a.446.446,0,0,1,.254.377c.154.054.177.254.331.331s0,.177.1.123c0,.254.3.177.3.431.231.046.231.331.431.377.077.2.254.254.377.377s.285.154.285.354a1.955,1.955,0,0,1,.5.354c.177,0,.1.054.277,0a3.548,3.548,0,0,0,.308-.531c.1-.077.146-.223.246-.277a.283.283,0,0,0,.131-.277c.123,0,.123-.154.177-.223a3.525,3.525,0,0,0,.354-.562c.1,0,.1-.123.177-.223v-.154a4.025,4.025,0,0,1-1.016-.77M106.009,8.831a4.456,4.456,0,0,1,1.085,1.308h-1.97a8.765,8.765,0,0,1,.885-1.339m3.763,10.882h-.554V18.72c-.1,0-.123-.1-.146-.146.246-.839.346-1.693.523-2.524a12.6,12.6,0,0,0-1.839-.454l-.531,2.57.054.131,1.408.323a6.449,6.449,0,0,1-1.639.331V15.357H109.4V13.048L107.086,13V12.44c.523-.046,1.085,0,1.639,0a6.433,6.433,0,0,0,.054-.954c.123-.131.246.1.377.1.269-.354.4-.816.631-1.162ZM112.35,8.746l.123-.1H115.2c.123.2.054.531.077.808l-.077.054h-2.724c-.254-.1-.077-.508-.123-.77m-.131,10.5V14.9c.154-.131.685-.231.631.169a14.86,14.86,0,0,0,1.031,3.771,7.319,7.319,0,0,1-1.662.423m.2-6.719a1.378,1.378,0,0,1,0-.831H115.2c.177.177.077.531.1.77a27.051,27.051,0,0,1-2.855.046" transform="translate(-23.439 -1.346)" fill="#019e96"/>
        <path id="Path_21" data-name="Path 21" d="M102.737,22.3c.408-.077.808-.177,1.208-.254.154-.077.408-.054.462-.2,0-1.039-.231-2.024-.277-2.986-.254-.169-.562,0-.839,0a6.451,6.451,0,0,0-1.031.254l.169,3.155.085.046c.092,0,.2.054.223-.046" transform="translate(-23.561 -4.323)" fill="#019e96"/>
        <path id="Subtraction_4" data-name="Subtraction 4" d="M12.106,24a12.341,12.341,0,0,1-3.849-.615A11.982,11.982,0,0,1,6.349,1.421a12.481,12.481,0,0,1,12.89.8,12.23,12.23,0,0,1,4.25,5.386L23.464,7.6a12.043,12.043,0,0,1-3.139,13.268A12.338,12.338,0,0,1,12.106,24ZM18.8,11.934h0a5.5,5.5,0,0,0,.769.539l.032.02c.109.068.221.138.33.21a11.013,11.013,0,0,0,2.585,1.54l-.121-.1a.133.133,0,0,0-.01-.039c-.008-.024-.015-.045-.008-.056a.019.019,0,0,1,.018-.007l.177.1c.023-.132.153-.132.231-.132a.957.957,0,0,0-.471-.325c-.075-.034-.144-.063-.207-.1a10.341,10.341,0,0,1-2.039-1.332,17.349,17.349,0,0,0,2.309,1.3.251.251,0,0,0,.26.155h.119a.418.418,0,0,1,.152.024.254.254,0,0,0-.046-.015c-.045-.012-.1-.027-.1-.084h.4c-.041-.136-.167-.171-.3-.208a.5.5,0,0,1-.308-.169.767.767,0,0,1,.116-.009.735.735,0,0,1,.229.036.1.1,0,0,1-.039-.128,13.242,13.242,0,0,1-3.169-1.887,3.781,3.781,0,0,1-.916-.841,2.992,2.992,0,0,0-1.225-.988,6.015,6.015,0,0,1-.323-.632l-.1.054a3.985,3.985,0,0,1-.323-.661.711.711,0,0,0-.518-.225h-.035a.475.475,0,0,1-.234.051A1.767,1.767,0,0,1,15.788,8l-.01,0-.013,0a1.47,1.47,0,0,0-.2-.021.236.236,0,0,0-.168.051l.146.078a.243.243,0,0,1-.224.132A9.062,9.062,0,0,1,13.853,6.7c.148-.406-.142-.611-.449-.828l-.008,0a1.672,1.672,0,0,1-.445-.4.683.683,0,0,0-.434-.143,2.08,2.08,0,0,0-.688.169c-.1.038-.2.071-.285.1a11.712,11.712,0,0,0-2.07-.284,1.032,1.032,0,0,0-.543.478c-.031.045-.059.085-.087.122a6.487,6.487,0,0,0-.5.9,5.437,5.437,0,0,1-.679,1.137.593.593,0,0,1-.422.212.62.62,0,0,0-.345.139,2.4,2.4,0,0,0-1.233.379c-.021.049-.043.1-.123.1a4.063,4.063,0,0,1-.4.576,2.531,2.531,0,0,1-1.074.7l-.017.007a5.4,5.4,0,0,0-.519.249A7.24,7.24,0,0,0,1.694,11.61a2.931,2.931,0,0,1-.5.529l-.007.006a3.016,3.016,0,0,0-.444.465.416.416,0,0,0,.229-.19.3.3,0,0,1,.258-.168.36.36,0,0,1,.058,0c.046.119-.033.195-.1.264-.047.044-.1.092-.1.146a.784.784,0,0,1,.331-.1.762.762,0,0,1-.3.323.158.158,0,0,1,.053-.013c.025,0,.027.018.029.039a.069.069,0,0,0,.064.075h.015a.446.446,0,0,0,.176-.064.5.5,0,0,1,.207-.065.193.193,0,0,1,.1.027,3.761,3.761,0,0,1-.424.4l.012,0h.025c.089,0,.148-.013.187-.077a.534.534,0,0,0,.251-.159c.08-.073.154-.141.227-.141l-.278.378.3-.232c.035.047,0,.089-.033.129s-.079.094-.014.148a.721.721,0,0,0,.257-.223.681.681,0,0,1,.22-.2.65.65,0,0,1-.2.33,1.161,1.161,0,0,0-.153.192.654.654,0,0,1,.129-.086c.123-.07.263-.148.225-.291a3.312,3.312,0,0,0,.6-.6c.063-.072.124-.145.184-.215l.021-.026a2.821,2.821,0,0,1,1.581-1.166,2.35,2.35,0,0,1,.727-.36l.006,0a2.089,2.089,0,0,0,.851-.469l.008-.011.017-.023c.069-.093.164-.22.293-.22a.2.2,0,0,1,.059.009V9.918a.2.2,0,0,1,.095-.129.218.218,0,0,1,.1-.028A.169.169,0,0,1,7.1,9.77v.1a1.207,1.207,0,0,1,.646-.324.961.961,0,0,0,.587-.308,2.026,2.026,0,0,0,.9-.768,2.572,2.572,0,0,1,.408-.624,2.389,2.389,0,0,1,.4-.624,1.893,1.893,0,0,1,.77,0,.664.664,0,0,0,.585.25,3.237,3.237,0,0,0,.35-.025,3.223,3.223,0,0,1,.349-.025c.012.116.081.116.148.116s.13,0,.13.115a1.236,1.236,0,0,1,.489.561,2.089,2.089,0,0,0,.334.47,1,1,0,0,0-.5.6c-.179.023-.182.129-.185.233a.424.424,0,0,1-.01.1.274.274,0,0,0-.159.091l.005,0c.111,0,.14-.047.153-.088h.01a.2.2,0,0,1,.035,0,.275.275,0,0,1,.2.095l-.076.076c-.284.139-.6.333-.857.489l-.028.017c-.083.051-.165.1-.247.149l.039-.048c-.037.032-.075.071-.112.11l-.006.007a.89.89,0,0,1-.151.139h.076a.128.128,0,0,1,.047.1.769.769,0,0,0,.2-.042.567.567,0,0,1,.131-.03.054.054,0,0,1,.024,0c.019.008.028.021.023.036a.254.254,0,0,0-.019.026h0a.059.059,0,0,0,.019-.025.142.142,0,0,1,.11-.061.275.275,0,0,1,.136.053.2.2,0,0,0,.086.039l-.6.478h.231a.318.318,0,0,1-.234.188.414.414,0,0,0-.244.167c.046,0,.073.017.079.049a.156.156,0,0,1-.069.14.478.478,0,0,0,.09-.041.313.313,0,0,1,.142-.05.159.159,0,0,1,.083.025.422.422,0,0,1-.16.167c-.085.062-.166.12-.166.234a.717.717,0,0,0,.165-.152c.077-.087.15-.169.249-.169a.217.217,0,0,1,.087.02c.01.027-.012.047-.036.071-.042.039-.085.079-.04.152a1.036,1.036,0,0,0,.146-.051.568.568,0,0,1,.163-.05c.068,0,.068.056.068.1a.269.269,0,0,1,.2-.05.289.289,0,0,0,.208-.051,1.464,1.464,0,0,1,.955-.461h.006a2.834,2.834,0,0,0,.576-.167v-.124c.042-.22.265-.244.481-.268h.005a1.125,1.125,0,0,0,.284-.055c.041-.159.164-.173.3-.189s.246-.032.306-.165a.115.115,0,0,1,.08-.038.22.22,0,0,1,.115.05l.006,0a.267.267,0,0,0,.141.052.193.193,0,0,0,.087-.021,1.059,1.059,0,0,1,.305-.081l.015,0a.865.865,0,0,0,.328-.095.516.516,0,0,1,.1-.009c.359,0,.68.359.915.622.047.054.1.109.142.157a7.177,7.177,0,0,0,2.309,1.677c-.186-.131-.383-.246-.573-.357l-.02-.011a6.783,6.783,0,0,1-.714-.455C18.677,11.934,18.754,11.934,18.8,11.934Z" fill="#019e96"/>
        <path id="Path_24" data-name="Path 24" d="M22.26,11.043l-.1-.323.1.277Z" transform="translate(-5.106 -2.465)" fill="#019e96"/>
        <path id="Path_25" data-name="Path 25" d="M22.483,11.747c-.1,0-.077-.1-.123-.177a.316.316,0,0,1,.123.177" transform="translate(-5.152 -2.661)" fill="#019e96"/>
        <path id="Path_26" data-name="Path 26" d="M6.936,11.9c-.069-.146.131-.192.208-.323a.554.554,0,0,1-.208.323" transform="translate(-1.595 -2.664)" fill="#019e96"/>
        <path id="Path_27" data-name="Path 27" d="M10.08,12.083V12.06h.077Z" transform="translate(-2.322 -2.774)" fill="#019e96"/>
        <path id="Path_28" data-name="Path 28" d="M9.34,12.286c-.046.046-.069.123-.146.1s.1-.154.146-.1" transform="translate(-2.114 -2.823)" fill="#019e96"/>
        <path id="Path_29" data-name="Path 29" d="M15.374,12.826c-.123.1-.377.177-.4.331-.223,0-.377.2-.554.2,0-.2.331-.077.354-.277l.2-.154V13c.077-.077.331,0,.254-.223Z" transform="translate(-3.322 -2.94)" fill="#019e96"/>
        <path id="Path_30" data-name="Path 30" d="M14.537,13a.4.4,0,0,1-.277.2c.046-.123.146-.123.277-.2" transform="translate(-3.285 -2.991)" fill="#019e96"/>
        <path id="Path_31" data-name="Path 31" d="M7.865,13.43c.054.077-.046,0-.077.054s.054-.054.077-.054" transform="translate(-1.793 -3.09)" fill="#019e96"/>
        <rect id="Rectangle_4" data-name="Rectangle 4" width="0.077" height="0.077" transform="translate(11.729 10.463)" fill="#019e96"/>
        <path id="Path_32" data-name="Path 32" d="M15.064,13.81c0,.054-.054.054-.077.1H14.91c0-.077.054-.1.1-.123s0,0,.054,0" transform="translate(-3.435 -3.17)" fill="#019e96"/>
        <path id="Path_33" data-name="Path 33" d="M15.664,14.436c0,.1-.154.1-.2.123s0-.046,0-.1.1-.046.177,0" transform="translate(-3.558 -3.318)" fill="#019e96"/>
        <path id="Path_34" data-name="Path 34" d="M15.7,14.627c0,.1-.2.1-.3.177,0-.1.123-.154.2-.2s.1,0,.1,0" transform="translate(-3.548 -3.356)" fill="#019e96"/>
        <path id="Path_35" data-name="Path 35" d="M23.561,14.924c.1.046.154.169.231.246l-.077.077a1.939,1.939,0,0,1-.385-.577c.077.077.131.2.231.254" transform="translate(-5.375 -3.375)" fill="#019e96"/>
        <path id="Path_36" data-name="Path 36" d="M28.256,16.677c-.077.046-.177-.054-.246-.077Z" transform="translate(-6.453 -3.82)" fill="#019e96"/>
        <path id="Path_37" data-name="Path 37" d="M29.061,17.107c-.208-.131-.477-.131-.631-.277a1.339,1.339,0,0,1,.631.277" transform="translate(-6.55 -3.873)" fill="#019e96"/>
        <path id="Path_38" data-name="Path 38" d="M26.288,17.083l-.308-.223.2.1Z" transform="translate(-5.986 -3.88)" fill="#019e96"/>
        <path id="Path_39" data-name="Path 39" d="M29.15,18.116l.023-.046.077.046Z" transform="translate(-6.716 -4.159)" fill="#019e96"/>
        <path id="Path_40" data-name="Path 40" d="M28.97,18.284h-.1V18.23a.123.123,0,0,1,.1.054" transform="translate(-6.652 -4.196)" fill="#019e96"/>
        <path id="Path_41" data-name="Path 41" d="M83.041,18.466H86.7V7.807h2.624v14.2H86.7v-.954l-10.089-.031-.023.916h-2.7V7.684h2.7V18.466l3.717-.023V5.36h2.732Z" transform="translate(-17.024 -1.23)" fill="#019e96"/>
        <path id="Path_42" data-name="Path 42" d="M59.9,8.4l-5.964.015-.046.046v3.632l5.61.054v2.57H53.868l-.031,4.579,6.8.023V21.95H44.34V19.341l6.772-.023V14.747l-5.564-.031V12.122h5.564V8.39l-5.941-.062V5.75H59.9Z" transform="translate(-10.216 -1.32)" fill="#019e96"/>
        <path id="Path_43" data-name="Path 43" d="M61.506,19.059a1.732,1.732,0,0,1,.2,1.324,1.639,1.639,0,0,1-1.062,1.1,1.662,1.662,0,0,1-1.755-.531,1.608,1.608,0,0,1-.362-1.193,1.628,1.628,0,0,1,2.978-.7" transform="translate(-13.483 -4.217)" fill="#019e96"/>
      </g>
    </g>
    <line id="Line_194" data-name="Line 194" y1="24" transform="translate(187.5 28)" fill="none" stroke="#019e96" stroke-linecap="round" stroke-width="1"/>
  </g>
</svg>
