<svg xmlns="http://www.w3.org/2000/svg" width="282" height="643.124" viewBox="0 0 282 643.124">
  <g id="Group_3276" data-name="Group 3276" transform="translate(3272 12755.001)">
    <rect id="Rectangle_1321" data-name="Rectangle 1321" width="282" height="588.663" rx="100" transform="translate(-3272 -12700.54)" fill="#fff7d9"/>
    <g id="Group_2444" data-name="Group 2444" transform="translate(-3197 -12755.001)">
      <path id="Path_3569" data-name="Path 3569" d="M54.864,129.34c17.886-2.6,51.488-17.959,51.808-74.734S60.78-1.01,53.425.438.977,10.576.018,65.9,36.955,131.947,54.864,129.34Z" transform="matrix(0.017, -1, 1, 0.017, 0, 106.658)" fill="#ffc517"/>
      <text id="STEP_" data-name="STEP " transform="translate(16.225 50.957)" fill="#195f5f" font-size="24" font-family="Poppins-SemiBold, Poppins" font-weight="600"><tspan x="21.573" y="25">STEP </tspan></text>
      <text id="_1" data-name="1" transform="translate(16.225 18.508)" fill="#195f5f" font-size="24" font-family="Poppins-SemiBold, Poppins" font-weight="600"><tspan x="45.141" y="25">1</tspan></text>
    </g>
    <text id="指定卡片" transform="translate(-3186 -12521.528)" fill="#014343" font-size="20" font-family="PingFangTC-Semibold, PingFang TC" font-weight="600"><tspan x="15.5" y="21">指定卡片</tspan></text>
    <text id="玉山_Only_卡_玉山_U_Bear_信用卡_玉山_Pi_拍錢包信用卡_玉山_Pi_拍兔簽帳金融卡_" data-name="玉山 Only 卡
玉山 U Bear 信用卡
玉山 Pi 拍錢包信用卡
玉山 Pi 拍兔簽帳金融卡
" transform="translate(-3152.172 -12621.404)" font-size="12" font-family="SourceHanSansTW-Medium, Source Han Sans TW" font-weight="500"><tspan x="0" y="14">玉山 </tspan><tspan y="14" font-family="Poppins-Medium, Poppins">Only</tspan><tspan y="14" xml:space="preserve"> 卡</tspan><tspan x="0" y="37">玉山 </tspan><tspan y="37" font-family="Poppins-Medium, Poppins">U Bear</tspan><tspan y="37" xml:space="preserve"> 信用卡</tspan><tspan x="0" y="60">玉山 </tspan><tspan y="60" font-family="Poppins-Medium, Poppins">Pi</tspan><tspan y="60" xml:space="preserve"> 拍錢包信用卡</tspan><tspan x="0" y="83">玉山 </tspan><tspan y="83" font-family="Poppins-Medium, Poppins">Pi </tspan><tspan y="83">拍兔簽帳金融卡</tspan></text>
    <g id="Group_2388" data-name="Group 2388" transform="translate(-3891 -16271.209)">
      <path id="Path_3006" data-name="Path 3006" d="M28.058,0h98.2a28.058,28.058,0,0,1,0,56.115h-98.2A28.058,28.058,0,0,1,28.058,0Z" transform="translate(683 3785.68)" fill="#ffe893"/>
      <g id="了解更多" transform="translate(744.406 3802.083)" style="isolation: isolate">
        <text id="立即辦卡" transform="translate(-18.406 19.598)" fill="#014343" font-size="17" font-family="SourceHanSansTW-Medium, Source Han Sans TW" font-weight="500" style="isolation: isolate"><tspan x="0" y="0">立即辦卡</tspan></text>
      </g>
    </g>
    <g id="Group_2385" data-name="Group 2385" transform="translate(-3397.5 -13325.929)">
      <line id="Line_177" data-name="Line 177" x2="27.088" transform="translate(252.5 926.196)" fill="none" stroke="#019e96" stroke-linecap="round" stroke-width="7"/>
      <line id="Line_178" data-name="Line 178" x2="27.088" transform="translate(266.044 912.652) rotate(90)" fill="none" stroke="#019e96" stroke-linecap="round" stroke-width="7"/>
    </g>
    <g id="Group_2985" data-name="Group 2985" transform="translate(-3664.224 -14773.387)">
      <g id="Group_2241" data-name="Group 2241" transform="translate(469.314 2401.745)">
        <path id="Path_3136" data-name="Path 3136" d="M927.253,739.877,902.386,779.76a7.09,7.09,0,0,0,2.541,9.93l76.534,43.047a7.089,7.089,0,0,0,9.637-2.674l24.178-42.493a7.089,7.089,0,0,0-2.827-9.761L936.6,737.372A7.087,7.087,0,0,0,927.253,739.877Z" transform="translate(-901.311 -733.341)" fill="#313131"/>
        <path id="Path_3137" data-name="Path 3137" d="M928.8,737.378l-24.866,39.883a7.09,7.09,0,0,0,2.539,9.93l76.536,43.047a7.089,7.089,0,0,0,9.637-2.674l24.177-42.492a7.09,7.09,0,0,0-2.826-9.762l-75.847-40.437A7.088,7.088,0,0,0,928.8,737.378Z" transform="translate(-900.881 -734.038)" fill="#019e96"/>
        <path id="Path_3138" data-name="Path 3138" d="M921.394,814.542c.816,11.421,18.356,15.908,34.264,16.315s41.2-6.934,50.172-24.881l8.974-17.948-9.381-5.3-15.093,19.986-2.039-4.487-25.428-1.832a46.558,46.558,0,0,0-34.6,11.927Z" transform="translate(-895.716 -720.471)" fill="#ffc517"/>
        <path id="Path_3139" data-name="Path 3139" d="M983.4,798.357s-12.171,16.419-37.119,11.014" transform="translate(-888.782 -716.116)" fill="none" stroke="#fff" stroke-linecap="round" stroke-miterlimit="10" stroke-width="2"/>
      </g>
      <text id="E.SUN" transform="matrix(0.883, 0.469, -0.469, 0.883, 498.862, 2417.625)" fill="#fff" font-size="12" font-family="SourceHanSansTW-Medium, Source Han Sans TW" font-weight="500"><tspan x="0" y="0">E.SUN</tspan></text>
      <circle id="Ellipse_673" data-name="Ellipse 673" cx="5.528" cy="5.528" r="5.528" transform="translate(578.168 2460.898)" fill="#ffc517"/>
    </g>
    <g id="Group_2986" data-name="Group 2986" transform="translate(-4274.174 -15020.408)">
      <g id="Group_2239" data-name="Group 2239" transform="translate(1038.434 2396.136)">
        <path id="Path_3128" data-name="Path 3128" d="M1152.932,647.477c17.784.724,22.005-31.714,23.624-37.215s-.36-7.653-.36-7.653l-11.5,12.777-14.48-30.665-11.074,9.37,2.981,8.944-11.925,8.518,3.833,17.036,4.684-.851S1135.631,646.773,1152.932,647.477Z" transform="translate(-1104.055 -551.717)" fill="#ffc517"/>
        <g id="Group_2238" data-name="Group 2238" transform="translate(0 0)">
          <path id="Path_3129" data-name="Path 3129" d="M1101.312,573.839l9.133,27.693a4.4,4.4,0,0,0,5.742,2.733l50.916-19.381a4.4,4.4,0,0,0,2.553-5.655l-10.65-28.4a4.4,4.4,0,0,0-5.776-2.529l-49.4,20.088A4.4,4.4,0,0,0,1101.312,573.839Z" transform="translate(-1101.089 -547.973)" fill="#019e96"/>
          <path id="Path_3130" data-name="Path 3130" d="M1110.233,600.7l58.925-22.049-2.456-6.654-59.3,21.329Z" transform="translate(-1101.733 -550.42)" fill="#191e35"/>
        </g>
        <path id="Path_3131" data-name="Path 3131" d="M1158.214,639.584c-1.229-11.541,8.92-20.992,9.022-21.086l.607.661c-.1.092-9.916,9.245-8.737,20.33Z" transform="translate(-1106.899 -555.159)" fill="#fff"/>
        <path id="Path_3132" data-name="Path 3132" d="M1149.2,626.487l-5.391-21.279.872-.216,5.282,21.495Z" transform="translate(-1106.182 -553.782)" fill="#fff"/>
        <path id="Path_3133" data-name="Path 3133" d="M1141.575,629.746,1137.545,610l.881-.179,4.007,19.774Z" transform="translate(-1105.713 -554.274)" fill="#fff"/>
        <path id="Path_3134" data-name="Path 3134" d="M1157.788,597.381l-6.7-13.979-6.062,2.322,3.869,13.027Z" transform="translate(-1105.567 -551.583)" fill="#fec739"/>
        <rect id="Rectangle_265" data-name="Rectangle 265" width="11.141" height="0.898" transform="translate(40.186 59.085) rotate(-26.565)" fill="#fff"/>
        <circle id="Ellipse_674" data-name="Ellipse 674" cx="3.393" cy="3.393" r="3.393" transform="translate(39.21 30.141)" fill="#fec739"/>
        <rect id="Rectangle_266" data-name="Rectangle 266" width="0.72" height="22.98" transform="translate(39.12 34.249) rotate(-17.242)" fill="#fff"/>
      </g>
      <circle id="Ellipse_675" data-name="Ellipse 675" cx="4.009" cy="4.009" r="4.009" transform="translate(1074.56 2466.372)" fill="#ffc517"/>
      <circle id="Ellipse_676" data-name="Ellipse 676" cx="3.393" cy="3.393" r="3.393" transform="translate(1068.391 2468.222)" fill="#ffc517"/>
      <path id="Path_4306" data-name="Path 4306" d="M-68.618,8717.86a2.943,2.943,0,0,0,3.74,1.724,2.886,2.886,0,0,0,2.246-3.673c.416,1.354,2.039,3.736,4.807,2.987s3.076-3.184,2.495-5.031-1.022-3.829-1.022-3.829" transform="translate(1137.245 -6244.876)" fill="none" stroke="#fff" stroke-width="1"/>
      <path id="Path_4307" data-name="Path 4307" d="M-60.323,8712.626l1.077,5.187" transform="translate(1134.067 -6245.868)" fill="none" stroke="#fff" stroke-width="1"/>
    </g>
  </g>
</svg>
