<?xml version="1.0" encoding="utf-8"?>
<!-- Generator: Adobe Illustrator 25.2.3, SVG Export Plug-In . SVG Version: 6.00 Build 0)  -->
<svg version="1.1" id="圖層_1" xmlns="http://www.w3.org/2000/svg" xmlns:xlink="http://www.w3.org/1999/xlink" x="0px" y="0px"
	 viewBox="0 0 32 32" style="enable-background:new 0 0 32 32;" xml:space="preserve">
<style type="text/css">
	.st0{fill:#FFFFFF;}
	.st1{fill:#019E96;}
</style>
<ellipse class="st0" cx="16.5" cy="16" rx="15.5" ry="15"/>
<g>
	<path id="Subtraction_4" class="st1" d="M16.08,31.48c-1.71,0-3.41-0.27-5.03-0.8C2.82,27.98-1.67,19.13,1.02,10.9
		c1.26-3.85,3.96-7.06,7.53-8.96c5.38-2.81,11.87-2.41,16.86,1.05c2.49,1.77,4.42,4.21,5.56,7.04l-0.03-0.01
		c2.35,6.08,0.72,12.98-4.11,17.35C23.87,30.02,20.05,31.48,16.08,31.48z M24.84,15.69L24.84,15.69c0.31,0.26,0.65,0.5,1.01,0.71
		l0.04,0.03c0.14,0.09,0.29,0.18,0.43,0.27c1.03,0.82,2.17,1.5,3.38,2.01l-0.16-0.13c0-0.02-0.01-0.03-0.01-0.05
		c-0.01-0.03-0.02-0.06-0.01-0.07c0.01-0.01,0.01-0.01,0.02-0.01l0.23,0.13c0.03-0.17,0.2-0.17,0.3-0.17
		c-0.16-0.2-0.37-0.35-0.62-0.43c-0.1-0.04-0.19-0.08-0.27-0.13c-0.95-0.47-1.85-1.06-2.67-1.74c0.96,0.64,1.97,1.21,3.02,1.7
		c0.06,0.14,0.19,0.22,0.34,0.2h0.16c0.07,0,0.14,0.01,0.2,0.03c-0.02-0.01-0.04-0.02-0.06-0.02c-0.06-0.02-0.13-0.04-0.13-0.11
		h0.52c-0.05-0.18-0.22-0.22-0.39-0.27c-0.16-0.02-0.3-0.1-0.4-0.22c0.05-0.01,0.1-0.01,0.15-0.01c0.1,0,0.2,0.02,0.3,0.05
		c-0.06-0.03-0.08-0.11-0.05-0.17c-1.49-0.63-2.89-1.46-4.15-2.47c-0.46-0.3-0.86-0.67-1.2-1.1c-0.41-0.57-0.96-1.01-1.6-1.29
		c-0.16-0.27-0.3-0.54-0.42-0.83l-0.13,0.07c-0.17-0.27-0.31-0.56-0.42-0.86c-0.18-0.19-0.42-0.29-0.68-0.29h-0.05
		c-0.09,0.05-0.2,0.07-0.31,0.07c-0.11,0-0.22-0.01-0.32-0.03h-0.01h-0.02c-0.09-0.02-0.17-0.02-0.26-0.03
		c-0.08-0.01-0.16,0.02-0.22,0.07l0.19,0.1c-0.06,0.11-0.17,0.18-0.29,0.17c-0.72-0.59-1.36-1.27-1.92-2.01
		c0.19-0.53-0.19-0.8-0.59-1.08h-0.01c-0.22-0.14-0.42-0.32-0.58-0.52c-0.16-0.13-0.36-0.19-0.57-0.19c-0.31,0.02-0.61,0.1-0.9,0.22
		c-0.13,0.05-0.26,0.09-0.37,0.13c-0.89-0.2-1.8-0.33-2.71-0.37c-0.3,0.12-0.56,0.34-0.71,0.63c-0.04,0.06-0.08,0.11-0.11,0.16
		C11.56,8.19,11.35,8.59,11.16,9c-0.23,0.53-0.53,1.03-0.89,1.49c-0.14,0.16-0.34,0.27-0.55,0.28c-0.17,0.01-0.32,0.08-0.45,0.18
		c-0.57,0.01-1.13,0.19-1.61,0.5c-0.03,0.06-0.06,0.13-0.16,0.13c-0.15,0.27-0.33,0.52-0.52,0.75c-0.38,0.42-0.87,0.74-1.4,0.92
		l-0.02,0.01c-0.23,0.1-0.46,0.21-0.68,0.33c-0.88,0.44-1.7,1.01-2.4,1.7c-0.19,0.26-0.41,0.49-0.65,0.69L1.8,15.97
		c-0.21,0.18-0.41,0.39-0.58,0.61c0.13-0.04,0.23-0.13,0.3-0.25c0.06-0.13,0.19-0.21,0.34-0.22c0.03,0,0.05,0,0.08,0
		c0.06,0.16-0.04,0.26-0.13,0.35c-0.06,0.06-0.13,0.12-0.13,0.19c0.13-0.08,0.28-0.12,0.43-0.13c-0.09,0.18-0.22,0.32-0.39,0.42
		c0.02-0.01,0.05-0.02,0.07-0.02c0.03,0,0.04,0.02,0.04,0.05c0,0.05,0.03,0.09,0.08,0.1c0,0,0,0,0,0h0.02
		c0.08-0.01,0.16-0.04,0.23-0.08c0.08-0.05,0.18-0.08,0.27-0.09c0.05,0,0.09,0.01,0.13,0.04C2.38,17.12,2.2,17.3,2,17.46h0.02h0.03
		c0.12,0,0.19-0.02,0.24-0.1c0.13-0.04,0.24-0.11,0.33-0.21c0.1-0.1,0.2-0.18,0.3-0.18l-0.36,0.49l0.39-0.3
		c0.05,0.06,0,0.12-0.04,0.17c-0.04,0.05-0.1,0.12-0.02,0.19c0.13-0.07,0.25-0.17,0.34-0.29c0.08-0.11,0.17-0.2,0.29-0.26
		c-0.04,0.17-0.13,0.32-0.26,0.43c-0.08,0.08-0.14,0.16-0.2,0.25c0.05-0.04,0.11-0.08,0.17-0.11c0.16-0.09,0.34-0.19,0.29-0.38
		c0.29-0.23,0.56-0.49,0.78-0.78c0.08-0.09,0.16-0.19,0.24-0.28l0.03-0.03c0.48-0.74,1.22-1.28,2.07-1.53
		c0.29-0.21,0.61-0.37,0.95-0.47h0.01c0.41-0.11,0.8-0.32,1.11-0.61l0.01-0.01l0.02-0.03c0.09-0.12,0.21-0.29,0.38-0.29
		c0.03,0,0.05,0,0.08,0.01v-0.07c0.02-0.07,0.06-0.13,0.12-0.17c0.04-0.02,0.08-0.04,0.13-0.04c0.03,0,0.06,0,0.08,0.01v0.13
		c0.23-0.22,0.53-0.37,0.84-0.42c0.3-0.04,0.57-0.18,0.77-0.4c0.48-0.21,0.89-0.56,1.18-1c0.14-0.3,0.32-0.57,0.53-0.82
		c0.13-0.3,0.31-0.57,0.52-0.82c0.33-0.07,0.67-0.07,1.01,0c0.18,0.23,0.47,0.36,0.77,0.33c0.15,0,0.31-0.01,0.46-0.03
		c0.15-0.02,0.3-0.03,0.46-0.03c0.02,0.15,0.11,0.15,0.19,0.15c0.09,0,0.17,0,0.17,0.15c0.28,0.17,0.51,0.43,0.64,0.73
		c0.12,0.22,0.26,0.43,0.44,0.61c-0.32,0.16-0.55,0.45-0.65,0.78c-0.23,0.03-0.24,0.17-0.24,0.3c0,0.04,0,0.09-0.01,0.13
		c-0.08,0.01-0.15,0.06-0.21,0.12h0.01c0.15,0,0.18-0.06,0.2-0.12h0.01c0.02,0,0.03,0,0.05,0c0.1,0,0.2,0.05,0.26,0.12l-0.1,0.1
		c-0.37,0.18-0.78,0.44-1.12,0.64l-0.04,0.02c-0.11,0.07-0.22,0.13-0.32,0.19l0.05-0.06c-0.05,0.04-0.1,0.09-0.15,0.14l-0.01,0.01
		c-0.06,0.07-0.12,0.13-0.2,0.18h0.1c0.04,0.03,0.06,0.08,0.06,0.13c0.09-0.01,0.18-0.03,0.26-0.05c0.06-0.02,0.11-0.03,0.17-0.04
		c0.01,0,0.02,0,0.03,0c0.02,0.01,0.04,0.03,0.03,0.05c-0.01,0.01-0.02,0.02-0.02,0.03l0,0c0.01-0.01,0.02-0.02,0.02-0.03
		c0.03-0.05,0.09-0.08,0.14-0.08c0.06,0.01,0.13,0.03,0.18,0.07c0.03,0.03,0.07,0.04,0.11,0.05l-0.78,0.63h0.3
		c-0.05,0.13-0.17,0.22-0.31,0.25c-0.13,0.03-0.24,0.11-0.32,0.22c0.06,0,0.1,0.02,0.1,0.06c0,0.07-0.03,0.14-0.09,0.18
		c0.04-0.01,0.08-0.03,0.12-0.05c0.06-0.04,0.12-0.06,0.19-0.07c0.04,0,0.08,0.01,0.11,0.03c-0.05,0.09-0.12,0.17-0.21,0.22
		c-0.11,0.08-0.22,0.16-0.22,0.31c0.08-0.05,0.15-0.12,0.22-0.2c0.1-0.11,0.2-0.22,0.33-0.22c0.04,0,0.08,0.01,0.11,0.03
		c0.01,0.04-0.02,0.06-0.05,0.09c-0.05,0.05-0.11,0.1-0.05,0.2c0.07-0.02,0.13-0.04,0.19-0.07c0.07-0.03,0.14-0.05,0.21-0.07
		c0.09,0,0.09,0.07,0.09,0.13c0.08-0.06,0.17-0.08,0.26-0.07c0.1,0.01,0.19-0.01,0.27-0.07c0.33-0.35,0.77-0.57,1.25-0.6h0.01
		c0.26-0.05,0.51-0.12,0.75-0.22V14.7c0.05-0.29,0.35-0.32,0.63-0.35h0.01c0.13-0.01,0.25-0.03,0.37-0.07
		c0.05-0.21,0.21-0.23,0.39-0.25c0.18-0.02,0.32-0.04,0.4-0.22c0.03-0.03,0.06-0.05,0.1-0.05c0.06,0.01,0.11,0.03,0.15,0.07h0.01
		c0.05,0.04,0.12,0.06,0.18,0.07c0.04,0,0.08-0.01,0.11-0.03c0.13-0.06,0.26-0.09,0.4-0.11h0.02c0.15-0.01,0.3-0.05,0.43-0.12
		c0.04-0.01,0.09-0.01,0.13-0.01c0.47,0,0.89,0.47,1.2,0.81c0.06,0.07,0.13,0.14,0.19,0.21c0.85,0.93,1.88,1.67,3.02,2.19
		c-0.24-0.17-0.5-0.32-0.75-0.47l-0.03-0.01c-0.32-0.18-0.64-0.38-0.93-0.6C24.68,15.69,24.78,15.69,24.84,15.69z"/>
	<path id="Path_24" class="st1" d="M22.68,11.3l-0.13-0.42l0.13,0.36V11.3z"/>
	<path id="Path_25" class="st1" d="M22.91,11.97c-0.13,0-0.1-0.13-0.16-0.23C22.83,11.79,22.89,11.87,22.91,11.97"/>
	<path id="Path_26" class="st1" d="M7.23,12.16c-0.09-0.19,0.17-0.25,0.27-0.42C7.47,11.91,7.37,12.06,7.23,12.16"/>
	<path id="Path_27" class="st1" d="M10.39,12.26v-0.03h0.1L10.39,12.26z"/>
	<path id="Path_28" class="st1" d="M9.7,12.46c-0.06,0.06-0.09,0.16-0.19,0.13C9.41,12.56,9.64,12.39,9.7,12.46"/>
	<path id="Path_29" class="st1" d="M16.01,13.02c-0.16,0.13-0.49,0.23-0.52,0.43c-0.29,0-0.49,0.26-0.72,0.26
		c0-0.26,0.43-0.1,0.46-0.36l0.26-0.2v0.1c0.1-0.1,0.43,0,0.33-0.29L16.01,13.02z"/>
	<path id="Path_30" class="st1" d="M14.96,13.18c-0.08,0.14-0.21,0.23-0.36,0.26C14.66,13.28,14.79,13.28,14.96,13.18"/>
	<path id="Path_31" class="st1" d="M8.19,13.61c0.07,0.1-0.06,0-0.1,0.07C8.05,13.75,8.16,13.61,8.19,13.61"/>
	<rect id="Rectangle_4" x="15.59" y="13.77" class="st1" width="0.1" height="0.1"/>
	<path id="Path_32" class="st1" d="M15.46,14c0,0.07-0.07,0.07-0.1,0.13h-0.1c0-0.1,0.07-0.13,0.13-0.16c0.06-0.03,0,0,0.07,0"/>
	<path id="Path_33" class="st1" d="M16.08,14.63c0,0.13-0.2,0.13-0.26,0.16s0-0.06,0-0.13s0.13-0.06,0.23,0"/>
	<path id="Path_34" class="st1" d="M16.14,14.83c0,0.13-0.26,0.13-0.39,0.23c0-0.13,0.16-0.2,0.26-0.26s0.13,0,0.13,0"/>
	<path id="Path_35" class="st1" d="M24.03,15.19c0.13,0.06,0.2,0.22,0.3,0.32l-0.1,0.1c-0.21-0.22-0.38-0.47-0.5-0.75
		C23.83,14.96,23.9,15.12,24.03,15.19"/>
	<path id="Path_36" class="st1" d="M28.76,16.9c-0.1,0.06-0.23-0.07-0.32-0.1L28.76,16.9z"/>
	<path id="Path_37" class="st1" d="M29.69,17.39c-0.27-0.17-0.62-0.17-0.83-0.36C29.17,17.08,29.45,17.2,29.69,17.39"/>
	<path id="Path_38" class="st1" d="M26.8,17.35l-0.4-0.29l0.26,0.13L26.8,17.35z"/>
	<path id="Path_39" class="st1" d="M29.59,18.34l0.03-0.06l0.1,0.06H29.59z"/>
	<path id="Path_40" class="st1" d="M29.44,18.51h-0.13v-0.07C29.36,18.44,29.41,18.47,29.44,18.51"/>
</g>
</svg>
