<svg xmlns="http://www.w3.org/2000/svg" width="403.34" height="127.887" viewBox="0 0 403.34 127.887">
  <g id="圖層_2" data-name="圖層 2" transform="translate(0.038)">
    <g id="表頭尾" transform="translate(-0.038 -0.001)">
      <path id="Path_1" data-name="Path 1" d="M73.833.08v5.7h0a3.776,3.776,0,0,1,.567-.944,3.776,3.776,0,0,1,.831-.68,3.21,3.21,0,0,1,.982-.416,5.855,5.855,0,0,1,1.1,0,4.231,4.231,0,0,1,2,.453,4.042,4.042,0,0,1,1.4,1.133,5.1,5.1,0,0,1,.831,1.7,6.913,6.913,0,0,1,.264,2,7.177,7.177,0,0,1-.415,2.078,4.911,4.911,0,0,1-.831,1.662,4.041,4.041,0,0,1-1.4,1.133,4.231,4.231,0,0,1-2,.416A4.042,4.042,0,0,1,75,13.792a3.1,3.1,0,0,1-1.171-1.813h0v1.889H72.7V.08Zm6.535,7.253a4.42,4.42,0,0,0-.6-1.36,3.324,3.324,0,0,0-.982-.944,2.8,2.8,0,0,0-1.511-.378,3.135,3.135,0,0,0-1.624.378,3.324,3.324,0,0,0-1.1.944,5.514,5.514,0,0,0-.718,1.36,7.553,7.553,0,0,0,0,1.549,7.252,7.252,0,0,0,0,1.549,5.516,5.516,0,0,0,.6,1.36,3.437,3.437,0,0,0,1.1.982,3.135,3.135,0,0,0,1.624.378,2.8,2.8,0,0,0,1.511-.378,3.476,3.476,0,0,0,.982-.982,4.419,4.419,0,0,0,.6-1.36,7.252,7.252,0,0,0,0-1.549,7.551,7.551,0,0,0,.113-1.549Z" transform="translate(202.058 0.225)"/>
      <path id="Path_2" data-name="Path 2" d="M76.622,1.09l3.286,8.5,3.06-8.5h1.209L79.871,12.422a5.48,5.48,0,0,1-.529,1.058,3.134,3.134,0,0,1-.491.68,1.927,1.927,0,0,1-.68.34,3.211,3.211,0,0,1-.944,0H76.32v-.869h.831a1.511,1.511,0,0,0,.642,0,.944.944,0,0,0,.453-.3,1.435,1.435,0,0,0,.34-.491l.3-.755.416-1.133-4-9.859Z" transform="translate(209.279 3.03)"/>
      <path id="Path_3" data-name="Path 3" d="M89.055.08v1.1H80.782V6.2h7.555V7.333H80.782v5.439h8.272v1.1H79.46V.08Z" transform="translate(220.833 0.225)"/>
      <path id="Path_4" data-name="Path 4" d="M82.62,3.19h1.624V5.23H82.62Z" transform="translate(229.61 8.863)"/>
      <path id="Path_5" data-name="Path 5" d="M85.513,11.334a2.568,2.568,0,0,0,.944,1.133,3.778,3.778,0,0,0,1.435.6,6.913,6.913,0,0,0,1.775,0,4.8,4.8,0,0,0,1.209,0,4.533,4.533,0,0,0,1.171-.491,2.871,2.871,0,0,0,.907-.869,2.077,2.077,0,0,0,.378-1.284,1.889,1.889,0,0,0-.264-1.02,2.417,2.417,0,0,0-.642-.68,3.4,3.4,0,0,0-.907-.453l-.982-.3-3.06-.755-1.171-.378a3.135,3.135,0,0,1-1.02-.642A2.984,2.984,0,0,1,84.3,3.779a4.983,4.983,0,0,1,.189-1.058,3.777,3.777,0,0,1,.718-1.284A4.269,4.269,0,0,1,86.684.418,5.968,5.968,0,0,1,89.064,0a6.837,6.837,0,0,1,1.964.264,5.1,5.1,0,0,1,1.624.831,3.777,3.777,0,0,1,1.1,1.322,3.777,3.777,0,0,1,.415,1.889H92.841a2.719,2.719,0,0,0-.415-1.4,3.475,3.475,0,0,0-.755-.982A4,4,0,0,0,89.1,1.135a5.062,5.062,0,0,0-1.322,0,2.606,2.606,0,0,0-1.1.453,2,2,0,0,0-.755.831,2.3,2.3,0,0,0-.3,1.36,2.114,2.114,0,0,0,0,.869,2.3,2.3,0,0,0,.453.6,2.946,2.946,0,0,0,.68.416l.793.227,3.362.831,1.4.491a5.628,5.628,0,0,1,1.133.68,3.4,3.4,0,0,1,.793,1.02A3.551,3.551,0,0,1,94.5,10.39a3.778,3.778,0,0,1-.264,1.435,7.55,7.55,0,0,1-.529.869,2.833,2.833,0,0,1-.944.793,4.571,4.571,0,0,1-1.435.6,8.8,8.8,0,0,1-2.115,0,8.877,8.877,0,0,1-2.266-.264,4.608,4.608,0,0,1-1.775-.869,3.777,3.777,0,0,1-1.133-1.473,4.872,4.872,0,0,1-.34-2.191h1.322a4.117,4.117,0,0,0,.491,2.04Z" transform="translate(232.571 0.001)"/>
      <path id="Path_6" data-name="Path 6" d="M88.433.08V8.617a6.535,6.535,0,0,0,.264,2.04,3.4,3.4,0,0,0,.793,1.36,2.644,2.644,0,0,0,1.284.793,6.5,6.5,0,0,0,3.4,0,2.833,2.833,0,0,0,1.284-.793,3.4,3.4,0,0,0,.793-1.36,6.534,6.534,0,0,0,.264-2.04V.08h1.511V8.919a7.139,7.139,0,0,1-.3,2,4.684,4.684,0,0,1-.944,1.7,4.722,4.722,0,0,1-1.662,1.1,6.082,6.082,0,0,1-2.455.416,5.968,5.968,0,0,1-2.455-.416,4.419,4.419,0,0,1-1.662-1.1,4.193,4.193,0,0,1-1.133-1.511,6.007,6.007,0,0,1-.3-2V.08Z" transform="translate(242.079 0.225)"/>
      <path id="Path_7" data-name="Path 7" d="M91.944.08,99.99,11.752h0V.08h1.284V13.867H99.8L91.944,2.2h0V13.867H90.66V.08Z" transform="translate(251.94 0.225)"/>
      <path id="Path_8" data-name="Path 8" d="M101.535.112a8.008,8.008,0,0,1,1.662,0,3.777,3.777,0,0,1,1.247.718,2.644,2.644,0,0,1,.982,1.058,2.908,2.908,0,0,1,.378,1.587,3.287,3.287,0,0,1-.189,1.058,3.212,3.212,0,0,1-.491.944,2.644,2.644,0,0,1-.755.68,2.116,2.116,0,0,1-.982.416h0a3.249,3.249,0,0,1,2.946,3.362,5.653,5.653,0,0,1,0,.755,4.232,4.232,0,0,1-.227.869,3.21,3.21,0,0,1-.491.831,3.022,3.022,0,0,1-.906.755,4.8,4.8,0,0,1-1.322.529,7.555,7.555,0,0,1-1.926,0H95.68V.112Zm0,6.044a4.722,4.722,0,0,0,1.36-.189,3.4,3.4,0,0,0,.982-.491,2.229,2.229,0,0,0,.567-.755,2.267,2.267,0,0,0,0-.907c0-1.738-1.02-2.606-3.1-2.606H96.889V6.156Zm0,6.648a5.175,5.175,0,0,0,1.36,0,2.909,2.909,0,0,0,1.171-.453,2.19,2.19,0,0,0,.793-.869,3.06,3.06,0,0,0,.3-1.4,2.3,2.3,0,0,0-.944-2,4.759,4.759,0,0,0-2.682-.718H96.889V12.8Z" transform="translate(265.882 0.193)"/>
      <path id="Path_9" data-name="Path 9" d="M99.684,2.882a3.778,3.778,0,0,1,.831-1.058,3.777,3.777,0,0,1,1.247-.567,5.363,5.363,0,0,1,1.586-.227,7.555,7.555,0,0,1,1.322,0,2.909,2.909,0,0,1,1.171.453,2.455,2.455,0,0,1,.869.982,3.438,3.438,0,0,1,.34,1.624V9.568a.642.642,0,0,0,.718.718h.378v1.02h-.793a2.115,2.115,0,0,1-.755,0,.755.755,0,0,1-.416-.34,1.474,1.474,0,0,1-.227-.567,4.345,4.345,0,0,1,0-.718h0a8.731,8.731,0,0,1-.68.869,3.1,3.1,0,0,1-1.7,1.02,5.855,5.855,0,0,1-1.247,0,4.873,4.873,0,0,1-1.322,0,2.531,2.531,0,0,1-1.058-.529,2.455,2.455,0,0,1-.642-1.058,2.682,2.682,0,0,1-.416-1.435,2.72,2.72,0,0,1,.416-1.511,2.984,2.984,0,0,1,1.246-.869,5.93,5.93,0,0,1,1.7-.453l1.964-.227h.68l.491-.189a1.17,1.17,0,0,0,.34-.529,2.718,2.718,0,0,0,0-.642,2.039,2.039,0,0,0,0-1.02,1.889,1.889,0,0,0-.567-.642,2,2,0,0,0-.831-.3,4.306,4.306,0,0,0-1.02,0,3.022,3.022,0,0,0-1.889.529,2.078,2.078,0,0,0-.756,1.775h-1.36a4.419,4.419,0,0,1,.378-1.586Zm6.082,2.984a.718.718,0,0,1-.415.3h-.6l-1.586.227a8.121,8.121,0,0,0-1.511.34,2.569,2.569,0,0,0-1.1.6,1.435,1.435,0,0,0-.453,1.133,1.737,1.737,0,0,0,.189.793,2.077,2.077,0,0,0,.491.642,2.607,2.607,0,0,0,.718.378,2.153,2.153,0,0,0,.831,0,4.269,4.269,0,0,0,1.36-.227,3.4,3.4,0,0,0,1.1-.6,3.248,3.248,0,0,0,.755-.982,3.06,3.06,0,0,0,.264-1.322V5.866Z" transform="translate(274.797 2.787)"/>
      <path id="Path_10" data-name="Path 10" d="M102.944,1.313V3.05h0a2.946,2.946,0,0,1,1.247-1.473,3.475,3.475,0,0,1,1.926-.567,4.835,4.835,0,0,1,1.775.3,2.606,2.606,0,0,1,1.133.755,2.8,2.8,0,0,1,.6,1.209,6.875,6.875,0,0,1,0,1.586v6.422h-1.209V5.052a5.849,5.849,0,0,0,0-1.171,2.418,2.418,0,0,0-.416-.944,1.662,1.662,0,0,0-.793-.642A2.758,2.758,0,0,0,106,2.068a3.777,3.777,0,0,0-1.322.227,2.984,2.984,0,0,0-.944.718,3.475,3.475,0,0,0-.642,1.1,3.777,3.777,0,0,0-.227,1.36v5.817H101.66V1.313Z" transform="translate(282.491 2.807)"/>
      <path id="Path_11" data-name="Path 11" d="M105.538.08V8.73L111.09,3.9h1.624l-4.268,3.777,4.571,6.27h-1.549L107.691,8.5l-2,1.662v3.777H104.48V.08Z" transform="translate(290.323 0.225)"/>
      <rect id="Rectangle_1" data-name="Rectangle 1" width="35.47" height="16.129" rx="0.85" transform="translate(129.291 33.848)" fill="#00a4ef"/>
      <path id="Path_12" data-name="Path 12" d="M110.894,35.649h0A28.255,28.255,0,0,0,70.552,10.19a3.211,3.211,0,0,0-3.211-2.72h-9.67a3.211,3.211,0,0,0-3.211,3.211V64.7a3.211,3.211,0,0,0,3.211,3.211h9.67A3.211,3.211,0,0,0,70.589,64.7V35.687h0a12.088,12.088,0,1,1,24.175,0V64.811a3.211,3.211,0,0,0,3.211,3.211h9.67a3.249,3.249,0,0,0,3.249-3.211V35.725h0Z" transform="translate(151.399 20.75)" fill="#ffc517"/>
      <path id="Path_13" data-name="Path 13" d="M120.949,7.47a30.219,30.219,0,1,0,30.219,30.219A30.219,30.219,0,0,0,120.949,7.47Zm0,44.309a14.09,14.09,0,1,1,14.127-14.09,14.09,14.09,0,0,1-14.127,14.09Z" transform="translate(252.134 20.75)" fill="#ed4848"/>
      <rect id="Rectangle_2" data-name="Rectangle 2" width="16.129" height="60.438" rx="0.85" transform="translate(177.642 28.22)" fill="#00c08b"/>
      <path id="Path_14" data-name="Path 14" d="M132.8,7.47h-9.67a3.211,3.211,0,0,0-3.249,3.211v2.833a30.219,30.219,0,1,0,0,48.35v14.09A14.694,14.694,0,0,1,90.757,78.6a3.249,3.249,0,0,0-3.173-2.644H77.838a3.249,3.249,0,0,0-3.211,3.777,30.786,30.786,0,0,0,61.382-3.777V10.681A3.211,3.211,0,0,0,132.8,7.47Zm-31.05,44.309a14.09,14.09,0,1,1,9.987-4.113,14.09,14.09,0,0,1-9.987,4.113Z" transform="translate(198.809 20.749)" fill="#f90"/>
      <path id="Path_15" data-name="Path 15" d="M76.085,0H31.021A3.211,3.211,0,0,0,27.81,3.211V85.444a3.211,3.211,0,0,0,3.211,3.211h9.595a3.249,3.249,0,0,0,3.249-3.211V16.129h48.35A16.129,16.129,0,0,0,76.085,0Z" transform="translate(77.382 0.003)" fill="#00a4ef"/>
      <circle id="Ellipse_1" data-name="Ellipse 1" cx="8.046" cy="8.046" r="8.046" transform="translate(80.903 72.264)" fill="#00c08b"/>
      <path id="Path_16" data-name="Path 16" d="M58.2,1.729a3.211,3.211,0,0,0-5.591,0l-5.288,8.915a3.211,3.211,0,0,0,2.8,4.835H60.432a3.249,3.249,0,0,0,2.8-4.835Z" transform="translate(130.355 0.276)" fill="#00c08b"/>
      <path id="Path_17" data-name="Path 17" d="M36.67,4.252A36.3,36.3,0,1,0,66.889,60.044a3.249,3.249,0,0,0-2.569-4.986H51.666a3.437,3.437,0,0,0-2.153.793,20.133,20.133,0,0,1-32.221-8.877H69.344a3.249,3.249,0,0,0,3.211-2.909v-4.08A36.376,36.376,0,0,0,36.67,4.252ZM17.292,34.093a20.171,20.171,0,0,1,38.227,0Z" transform="translate(0.038 11.805)" fill="#00c08b"/>
    </g>
  </g>
</svg>
