<svg xmlns="http://www.w3.org/2000/svg" width="161.861" height="51.325" viewBox="0 0 161.861 51.325">
  <g id="Group_3344" data-name="Group 3344" transform="translate(-4542.55 -5646.676)">
    <rect id="Rectangle_1" data-name="Rectangle 1" width="14.719" height="6.693" rx="0.85" transform="translate(4594.27 5660.193)" fill="#00a4ef"/>
    <path id="Path_12" data-name="Path 12" d="M77.879,19.164h0A11.725,11.725,0,0,0,61.138,8.6,1.332,1.332,0,0,0,59.805,7.47H55.792A1.332,1.332,0,0,0,54.46,8.8V31.218a1.332,1.332,0,0,0,1.332,1.332h4.013a1.332,1.332,0,0,0,1.348-1.332V19.179h0a5.016,5.016,0,1,1,10.032,0V31.265A1.332,1.332,0,0,0,72.518,32.6h4.013a1.348,1.348,0,0,0,1.348-1.332V19.2h0Z" transform="translate(4570.252 5650.185)" fill="#ffc517"/>
    <path id="Path_13" data-name="Path 13" d="M103.27,7.47a12.54,12.54,0,1,0,12.54,12.54A12.54,12.54,0,0,0,103.27,7.47Zm0,18.387a5.847,5.847,0,1,1,5.863-5.847A5.847,5.847,0,0,1,103.27,25.857Z" transform="translate(4588.6 5650.186)" fill="#ed4848"/>
    <rect id="Rectangle_2" data-name="Rectangle 2" width="6.693" height="25.08" rx="0.85" transform="translate(4613.744 5657.656)" fill="#00c08b"/>
    <path id="Path_14" data-name="Path 14" d="M96.955,7.47H92.942A1.332,1.332,0,0,0,91.594,8.8V9.978a12.54,12.54,0,1,0,0,20.064v5.847a6.1,6.1,0,0,1-12.086,1.1,1.348,1.348,0,0,0-1.317-1.1H74.148a1.348,1.348,0,0,0-1.332,1.568,12.775,12.775,0,0,0,25.472-1.568V8.8A1.332,1.332,0,0,0,96.955,7.47ZM84.07,25.857a5.847,5.847,0,1,1,4.144-1.707,5.847,5.847,0,0,1-4.144,1.707Z" transform="translate(4578.816 5649.171)" fill="#f90"/>
    <path id="Path_15" data-name="Path 15" d="M47.843,0h-18.7A1.332,1.332,0,0,0,27.81,1.332V35.457a1.332,1.332,0,0,0,1.332,1.332h3.982a1.348,1.348,0,0,0,1.348-1.332V6.693H54.536A6.693,6.693,0,0,0,47.843,0Z" transform="translate(4556.685 5646.676)" fill="#00a4ef"/>
    <circle id="Ellipse_1" data-name="Ellipse 1" cx="3.339" cy="3.339" r="3.339" transform="translate(4574.974 5675.536)" fill="#00c08b"/>
    <path id="Path_16" data-name="Path 16" d="M51.581.775a1.332,1.332,0,0,0-2.32,0l-2.195,3.7a1.332,1.332,0,0,0,1.16,2.006h4.279a1.348,1.348,0,0,0,1.16-2.006Z" transform="translate(4566.695 5646.732)" fill="#00c08b"/>
    <path id="Path_17" data-name="Path 17" d="M15.2,4.25A15.064,15.064,0,1,0,27.735,27.4a1.348,1.348,0,0,0-1.066-2.069H21.418a1.426,1.426,0,0,0-.893.329A8.355,8.355,0,0,1,7.154,21.979h21.6a1.348,1.348,0,0,0,1.332-1.207V19.079A15.1,15.1,0,0,0,15.2,4.25ZM7.154,16.634a8.371,8.371,0,0,1,15.863,0Z" transform="translate(4542.587 5649.087)" fill="#00c08b"/>
  </g>
</svg>
