<svg xmlns="http://www.w3.org/2000/svg" xmlns:xlink="http://www.w3.org/1999/xlink" width="502.607" height="422.291" viewBox="0 0 502.607 422.291">
  <defs>
    <clipPath id="clip-path">
      <rect id="Rectangle_1439" data-name="Rectangle 1439" width="140.851" height="119.984" rx="16.107" fill="none"/>
    </clipPath>
  </defs>
  <g id="Group_3302" data-name="Group 3302" transform="translate(7789 12710)">
    <g id="Group_2742" data-name="Group 2742" transform="translate(-8310.013 -12662.365)">
      <g id="Group_2077" data-name="Group 2077" transform="translate(-49 81.627)">
        <g id="Group_2075" data-name="Group 2075">
          <path id="Path_2774" data-name="Path 2774" d="M1024.634,96.788a.82.82,0,0,1-.7-1.255,33.47,33.47,0,0,0,5.143-15.741,6.406,6.406,0,0,1-1.016.081,5.46,5.46,0,0,1-5.666-5.246l0-.079c0-3.859,3.8-7.506,7.817-7.506s8.086,3.5,8.086,10.2c0,6.289-4.807,13.358-13.188,19.393A.822.822,0,0,1,1024.634,96.788Zm5.312-18.875a.82.82,0,0,1,.82.82v.019a34.345,34.345,0,0,1-3.474,14.1c6-5.1,9.369-10.662,9.369-15.611,0-5.881-3.341-8.559-6.446-8.559-3.06,0-6.177,2.96-6.177,5.867a3.839,3.839,0,0,0,3.984,3.688l.044,0a4.96,4.96,0,0,0,1.615-.276.8.8,0,0,1,.266-.046Z" fill="#313131"/>
        </g>
        <g id="Group_2076" data-name="Group 2076">
          <path id="Path_2775" data-name="Path 2775" d="M1044.552,96.788a.82.82,0,0,1-.695-1.255A33.47,33.47,0,0,0,1049,79.792a6.427,6.427,0,0,1-1.017.081,5.46,5.46,0,0,1-5.665-5.247l0-.078c0-3.859,3.8-7.506,7.818-7.506s8.085,3.5,8.085,10.2c0,6.29-4.807,13.359-13.188,19.393A.818.818,0,0,1,1044.552,96.788Zm5.313-18.875a.82.82,0,0,1,.82.82v.019a34.347,34.347,0,0,1-3.474,14.1c6-5.1,9.369-10.662,9.369-15.612,0-5.881-3.341-8.559-6.445-8.559-3.061,0-6.179,2.96-6.179,5.867a3.839,3.839,0,0,0,3.984,3.688l.044,0a4.96,4.96,0,0,0,1.615-.276A.8.8,0,0,1,1049.865,77.913Z" fill="#313131"/>
        </g>
      </g>
      <g id="Group_2078" data-name="Group 2078" transform="translate(-71.881 131.627)">
        <path id="Path_2779" data-name="Path 2779" d="M1054.492,135.239c-3.5,0-5.742-1.531-7.723-2.883-1.681-1.147-3.133-2.138-5.156-2.138a7.729,7.729,0,0,0-5.994,3.452,1.093,1.093,0,1,1-1.8-1.246l.016-.024a9.936,9.936,0,0,1,7.773-4.368c2.7,0,4.574,1.281,6.388,2.518,1.886,1.288,3.668,2.5,6.491,2.5,3.579,0,5.12-1.482,6.752-3.052,1.542-1.483,3.136-3.017,6.2-3.017,2.4,0,4.455,1.447,6.44,2.846,2.071,1.46,4.213,2.97,6.818,2.97,1.722,0,3.385-1.158,5.145-2.384a14.614,14.614,0,0,1,5.6-2.811,1.093,1.093,0,1,1,.412,2.147l-.029.005a12.835,12.835,0,0,0-4.734,2.453c-1.96,1.365-3.986,2.776-6.395,2.776-3.3,0-5.837-1.79-8.078-3.369-1.862-1.313-3.47-2.447-5.181-2.447-2.183,0-3.286,1.062-4.684,2.407C1061.063,133.208,1058.952,135.239,1054.492,135.239Z" fill="#019e96"/>
      </g>
      <g id="Group_2079" data-name="Group 2079" transform="translate(-92 -73)">
        <path id="Path_2780" data-name="Path 2780" d="M793.05,55.8a1.095,1.095,0,0,1-1.569,1.224A275.339,275.339,0,0,0,764.99,44.889a1.1,1.1,0,0,1-.689-.817,1.092,1.092,0,0,1,.336-1.015c6-5.473,11.679-10.882,18.47-17.388a1.092,1.092,0,0,1,1.545.033,1.08,1.08,0,0,1,.25.416C788.1,35.884,790.616,46.006,793.05,55.8ZM767.418,43.479c7.058,2.767,16.065,7.006,22.926,10.5-2.1-8.46-4.306-17.125-6.984-25.529-5.769,5.523-10.77,10.279-15.943,15.025Z" fill="#ff8e9e"/>
      </g>
      <g id="Group_2357" data-name="Group 2357" transform="translate(101.778 39.221)">
        <path id="Path_3553" data-name="Path 3553" d="M454.152,87.007a1.331,1.331,0,0,1-.893-.342l-5.216-4.688c-4.842-4.345-9.849-8.838-14.668-13.3A1.334,1.334,0,0,1,433.4,66.7q4.773-4.173,9.488-8.346c4.19-3.7,8.38-7.395,12.639-11.093a1.334,1.334,0,0,1,1.84.087q5.465,5.733,10.858,11.535,3.986,4.26,7.986,8.508a1.335,1.335,0,0,1-.131,1.954C469.159,74.935,462,80.72,455.019,86.688A1.335,1.335,0,0,1,454.152,87.007Zm-17.875-19.28c4.467,4.115,9.078,8.253,13.547,12.265l4.35,3.908c6.349-5.4,12.818-10.643,19.111-15.729q-3.513-3.726-7.006-7.469-4.967-5.312-9.962-10.594c-3.922,3.414-7.792,6.829-11.661,10.243Q440.477,64.04,436.277,67.727Z" fill="#ffc517"/>
      </g>
      <g id="Group_2079-2" data-name="Group 2079" transform="translate(357.312 -54.884)">
        <path id="Path_2780-2" data-name="Path 2780" d="M666.277,147.322a1.095,1.095,0,0,1-1.569,1.224,275.322,275.322,0,0,0-26.49-12.139,1.105,1.105,0,0,1-.69-.818,1.092,1.092,0,0,1,.336-1.014c6-5.473,11.679-10.882,18.47-17.389a1.094,1.094,0,0,1,1.8.449C661.33,127.4,663.844,137.524,666.277,147.322ZM640.645,135c7.058,2.767,16.065,7.005,22.927,10.5-2.105-8.46-4.307-17.125-6.985-25.529-5.769,5.523-10.77,10.279-15.943,15.025Z" fill="#ff8e9e"/>
      </g>
    </g>
    <g id="Group_2820" data-name="Group 2820" transform="translate(-11116.927 -15724.842)">
      <rect id="Rectangle_1328" data-name="Rectangle 1328" width="140.851" height="119.984" rx="16.107" transform="translate(3649.99 3074.393)" fill="#ff8e9e"/>
      <g id="Group_2455" data-name="Group 2455" transform="translate(3649.99 3074.393)">
        <g id="Group_2736" data-name="Group 2736">
          <g id="Group_2819" data-name="Group 2819">
            <g id="Group_2818" data-name="Group 2818" clip-path="url(#clip-path)">
              <g id="Group_2735" data-name="Group 2735" transform="translate(-8.623 -10.433)">
                <g id="Group_2454" data-name="Group 2454">
                  <rect id="Rectangle_1329" data-name="Rectangle 1329" width="153.893" height="34.561" fill="#fff"/>
                </g>
              </g>
            </g>
          </g>
        </g>
      </g>
      <g id="Group_2457" data-name="Group 2457" transform="translate(3684.644 3106.72)">
        <path id="Path_2776" data-name="Path 2776" d="M3921.166,3191.192c-4.836-5.116-15.722-8.681-28.382-8.681s-23.549,3.567-28.383,8.681h-2.671v5.94c0,8.078,13.9,14.626,31.054,14.626s31.052-6.548,31.052-14.626v-5.94Z" transform="translate(-3861.731 -3141.377)" fill="#019e96"/>
        <ellipse id="Ellipse_254" data-name="Ellipse 254" cx="31.053" cy="14.625" rx="31.053" ry="14.625" transform="translate(0.001 35.19)" fill="#fec739"/>
        <path id="Path_2777" data-name="Path 2777" d="M3933.908,3175.969c-4.835-5.117-15.722-8.681-28.381-8.681s-23.548,3.567-28.383,8.681h-2.671v5.94c0,8.078,13.9,14.625,31.051,14.625s31.054-6.546,31.054-14.625v-5.94Z" transform="translate(-3865.036 -3137.428)" fill="#019e96"/>
        <ellipse id="Ellipse_255" data-name="Ellipse 255" cx="31.053" cy="14.625" rx="31.053" ry="14.625" transform="translate(9.438 23.915)" fill="#fec739"/>
        <path id="Path_2778" data-name="Path 2778" d="M3924.9,3159.847c-4.836-5.118-15.725-8.681-28.383-8.681s-23.549,3.568-28.383,8.681h-2.671v5.941c0,8.077,13.9,14.625,31.054,14.625s31.051-6.548,31.051-14.625v-5.941Z" transform="translate(-3862.699 -3133.247)" fill="#019e96"/>
        <ellipse id="Ellipse_256" data-name="Ellipse 256" cx="31.053" cy="14.625" rx="31.053" ry="14.625" transform="translate(2.767 11.977)" fill="#fec739"/>
        <path id="Path_2782" data-name="Path 2782" d="M3929.921,3143.677c-4.837-5.118-15.724-8.681-28.383-8.681s-23.548,3.568-28.383,8.681h-2.671v5.939c0,8.078,13.9,14.626,31.054,14.626s31.052-6.549,31.052-14.626v-5.939Z" transform="translate(-3864.001 -3129.053)" fill="#019e96"/>
        <ellipse id="Ellipse_257" data-name="Ellipse 257" cx="31.053" cy="14.625" rx="31.053" ry="14.625" transform="translate(6.483)" fill="#fec739"/>
        <ellipse id="Ellipse_258" data-name="Ellipse 258" cx="26.853" cy="11.004" rx="26.853" ry="11.004" transform="translate(10.332 3.124)" fill="#fff"/>
        <path id="Path_4128" data-name="Path 4128" d="M3903.212,3158.425c-12.111,0-22.822-3.355-26.048-8.16a.187.187,0,1,1,.311-.209c3.161,4.708,13.743,7.994,25.737,7.994,10.929,0,20.93-2.79,24.889-6.944a.188.188,0,1,1,.272.259C3924.286,3155.653,3914.409,3158.425,3903.212,3158.425Z" transform="translate(-3865.726 -3132.937)" fill="#313131"/>
        <ellipse id="Ellipse_487" data-name="Ellipse 487" cx="24.417" cy="9.224" rx="24.417" ry="9.224" transform="translate(12.969 4.811)" fill="#fec739"/>
      </g>
      <circle id="Ellipse_375" data-name="Ellipse 375" cx="3.657" cy="3.657" r="3.657" transform="translate(3660.331 3082.338)" fill="#313131"/>
      <circle id="Ellipse_376" data-name="Ellipse 376" cx="3.657" cy="3.657" r="3.657" transform="translate(3670.615 3082.338)" fill="#313131"/>
      <circle id="Ellipse_377" data-name="Ellipse 377" cx="3.657" cy="3.657" r="3.657" transform="translate(3679.758 3082.338)" fill="#313131"/>
      <path id="Path_3645" data-name="Path 3645" d="M3842.3,3292.146c8.553-3.268,23.554-9.356,45-16.981,21.594-7.653,32.135-32.266,39.348-54.852-1.912.855-3.962,1.754-6.114,2.669-17.969,7.833-42.815,17.864-50.607,16.722-8.487-1.226-8.545-6.381-7.232-15.563.1-.764.229-1.518.358-2.275-.88.594-1.762,1.187-2.609,1.785-11.27,7.839-13.285,29.744-21.776,40.7-16.04,3.718-28.584,27.945-39.784,31.349" transform="translate(-122.153 -48.399)" fill="#fec739"/>
      <path id="Path_4129" data-name="Path 4129" d="M3656.888,3120.646l3.793.239,35.675,119.413-83.291.522,11.314-143.393" transform="translate(-73.958 -16.526)" fill="#313131"/>
      <path id="Path_4130" data-name="Path 4130" d="M3569.362,3275.54l102.591,34.09s-42.208,76.739-10.53,177.642c-79.234,25.493-125.121-11.606-125.121-11.606s-22.664-116.53,40.139-214.158" transform="translate(-53.014 -59.084)" fill="#fff"/>
      <path id="Path_3956" data-name="Path 3956" d="M3670.945,3080.859a102.148,102.148,0,0,0-61.761,3.5c-4.515-6.235-17.172-7.59-19.713,5.877s13.468,16.483,13.468,16.483l-12.786,53.64-42.313,1.64s-11.4-81.532,13.659-104.413,45.179-24.472,60.8-23.745S3672.518,3046.523,3670.945,3080.859Z" transform="translate(-56.369)" fill="#313131"/>
      <rect id="Rectangle_1440" data-name="Rectangle 1440" width="55.699" height="127.793" rx="27.849" transform="translate(3589.837 3223.821) rotate(174.71)" fill="#fec739"/>
      <circle id="Ellipse_593" data-name="Ellipse 593" cx="47.353" cy="47.353" r="47.353" transform="translate(3522.083 3046.665)" fill="#fec739"/>
      <circle id="Ellipse_594" data-name="Ellipse 594" cx="47.353" cy="47.353" r="47.353" transform="translate(3524.498 3072.746)" fill="#fec739"/>
      <rect id="Rectangle_1441" data-name="Rectangle 1441" width="94.706" height="25.512" transform="matrix(0.996, -0.092, 0.092, 0.996, 3522.284, 3098.384)" fill="#fec739"/>
      <circle id="Ellipse_595" data-name="Ellipse 595" cx="5.527" cy="5.527" r="5.527" transform="translate(3597.356 3095.774)" fill="#313131"/>
      <circle id="Ellipse_596" data-name="Ellipse 596" cx="5.527" cy="5.527" r="5.527" transform="translate(3564.862 3098.783)" fill="#313131"/>
      <path id="Path_4131" data-name="Path 4131" d="M3680.25,3124.471l4.5,20.6.635,2.914c.27,1.236-.955,2.3-2.042,2.459l-5.45.781c-2.882.412-3.291-4.091-.417-4.5l5.45-.781-2.043,2.46-4.495-20.6-.635-2.914a2.273,2.273,0,0,1,2.042-2.459,2.317,2.317,0,0,1,2.459,2.043Z" transform="translate(-90.154 -23.008)" fill="#313131"/>
      <path id="Path_4132" data-name="Path 4132" d="M3676.173,3178.579c-5.239,1.372-11.889,1.523-15.834-2.733a2.264,2.264,0,0,1,.522-3.154,2.331,2.331,0,0,1,3.154.522c-.457-.493.012-.013.118.08q.215.188.445.356c.372.274.113-.027-.018.007.071-.018.419.239.5.279a8.44,8.44,0,0,0,.915.4c.6.225-.261-.054.125.05.14.038.279.079.42.114a13.57,13.57,0,0,0,2.152.348,2.843,2.843,0,0,1,.576.038c-.25-.083-.429-.012-.035-.005q.523.011,1.047-.007a24.759,24.759,0,0,0,3.4-.353c.355-.062.709-.134,1.062-.207.407-.084-.712.169-.262.06l.115-.029a2.317,2.317,0,0,1,2.915,1.316,2.288,2.288,0,0,1-1.316,2.915Z" transform="translate(-86.106 -35.942)" fill="#313131"/>
      <path id="Path_4133" data-name="Path 4133" d="M3644.69,3062.969s9.832,19.137,35.921,21.362c-1.683-24.024-28.312-41.9-42.388-41.524s-57.444,16.738-58.2,28.151,7.286,25,7.286,25S3639.868,3100.439,3644.69,3062.969Z" transform="translate(-65.373 -2.357)" fill="#313131"/>
      <g id="Group_2464" data-name="Group 2464" transform="translate(3334.231 3207.393)">
        <path id="Path_3658" data-name="Path 3658" d="M3339.013,3292.6l-2.574,15.952,17.254,13.593,107.82,19.839,6.539-50.38-103.026-23.387Z" transform="translate(-3336.439 -3268.218)" fill="#019e96"/>
        <circle id="Ellipse_378" data-name="Ellipse 378" cx="5.299" cy="5.299" r="5.299" transform="translate(9.44 29.039)" fill="#525252"/>
        <g id="Group_2463" data-name="Group 2463" transform="translate(39.13 24.004)">
          <path id="Path_3659" data-name="Path 3659" d="M3392.34,3319.708a9.441,9.441,0,0,1-3.067-2.373l1.82-2.623a10.227,10.227,0,0,0,2.694,2.143,11.044,11.044,0,0,0,3.446,1.284,6.287,6.287,0,0,0,3.441-.083,2.19,2.19,0,0,0,1.447-1.671,1.853,1.853,0,0,0-.345-1.52,4.357,4.357,0,0,0-1.38-1.159q-.881-.49-2.421-1.193a30.377,30.377,0,0,1-3.473-1.774,6.148,6.148,0,0,1-2.092-2.146,4.636,4.636,0,0,1-.42-3.3,5.385,5.385,0,0,1,1.462-2.821,6.149,6.149,0,0,1,3.1-1.628,11.127,11.127,0,0,1,4.564.042,14.525,14.525,0,0,1,3.49,1.131,10.024,10.024,0,0,1,2.783,1.878l-1.7,2.643a11.617,11.617,0,0,0-2.51-1.678,10.264,10.264,0,0,0-2.676-.919,5.85,5.85,0,0,0-3.388.12,2.322,2.322,0,0,0-1.439,1.755,1.8,1.8,0,0,0,.346,1.509,4.448,4.448,0,0,0,1.384,1.143q.88.49,2.42,1.194a26.92,26.92,0,0,1,3.43,1.751,6.36,6.36,0,0,1,2.111,2.144,4.551,4.551,0,0,1,.426,3.255,5.335,5.335,0,0,1-1.459,2.81,6.2,6.2,0,0,1-3.117,1.614,11.267,11.267,0,0,1-4.576-.044A15.4,15.4,0,0,1,3392.34,3319.708Z" transform="translate(-3389.273 -3300.628)" fill="#fff"/>
          <path id="Path_3660" data-name="Path 3660" d="M3427.868,3322.317l-9.934-1.883-2.829,4.232-3.8-.721,12.7-18.167,3.632.689,5.2,21.56-3.857-.732Zm-.672-3.125-2.1-9.392-5.362,7.977Z" transform="translate(-3394.988 -3301.964)" fill="#fff"/>
          <path id="Path_3661" data-name="Path 3661" d="M3447.559,3309.635l3.689.7-3.17,16.736,10.384,1.969-.592,3.121-14.073-2.667Z" transform="translate(-3403.415 -3302.965)" fill="#fff"/>
          <path id="Path_3662" data-name="Path 3662" d="M3482.217,3333.573l-.587,3.094-14.9-2.829,3.765-19.858,14.5,2.746-.587,3.093-10.811-2.046-.977,5.163,9.591,1.817-.575,3.039-9.592-1.818-1.038,5.478Z" transform="translate(-3409.364 -3304.092)" fill="#fff"/>
        </g>
      </g>
      <g id="Group_2467" data-name="Group 2467" transform="translate(3666.692 3303.378)">
        <path id="Path_3663" data-name="Path 3663" d="M3828.836,3549.7h46.555l9.007-89.457-64.184-.6Z" transform="translate(-3810.14 -3441.595)" fill="#ff8e9e"/>
        <path id="Path_3664" data-name="Path 3664" d="M3884.065,3446.506h-62.98l2.006-11.232h58.567Z" transform="translate(-3810.365 -3435.274)" fill="#fec739"/>
        <rect id="Rectangle_1331" data-name="Rectangle 1331" width="84.42" height="11.232" transform="translate(0 10.831)" fill="#fec739"/>
        <path id="Path_3665" data-name="Path 3665" d="M3880.886,3520.491H3822.96l-2.749-19.406h63.626Z" transform="translate(-3810.139 -3452.344)" fill="#fec739"/>
      </g>
      <g id="Group_2465" data-name="Group 2465" transform="translate(3327.927 3310.353)">
        <rect id="Rectangle_1332" data-name="Rectangle 1332" width="121.284" height="58.452" rx="8.4" transform="translate(0 14.072) rotate(-6.663)" fill="#fec739"/>
        <rect id="Rectangle_1333" data-name="Rectangle 1333" width="1.388" height="36.704" transform="translate(78.548 15.793) rotate(-6.891)" fill="#fff"/>
        <path id="Path_3666" data-name="Path 3666" d="M3353.748,3445.986a5.829,5.829,0,0,1-3.845-1.448l-3.859-3.394.917-1.042,3.859,3.394a4.436,4.436,0,0,0,6.616-.868,5.825,5.825,0,0,1,8.41-1.367l1.487,1.152a4.431,4.431,0,0,0,6.1-.634l1.834-2.16a5.792,5.792,0,0,1,8.105-.753l2.26,1.828a4.437,4.437,0,0,0,6.28-.706l5.37-6.837,1.094.858-5.37,6.837a5.825,5.825,0,0,1-8.248.928l-2.26-1.828a4.463,4.463,0,0,0-6.172.575l-1.834,2.16a5.822,5.822,0,0,1-8.01.831l-1.486-1.152a4.442,4.442,0,0,0-6.406,1.045,5.743,5.743,0,0,1-4.842,2.582Z" transform="translate(-3332.626 -3413.957)" fill="#fff"/>
        <path id="Path_3667" data-name="Path 3667" d="M3356.373,3460.739a5.831,5.831,0,0,1-3.847-1.449l-3.859-3.393.917-1.046,3.859,3.394a4.435,4.435,0,0,0,6.617-.867,5.827,5.827,0,0,1,8.413-1.367l1.487,1.151a4.425,4.425,0,0,0,6.1-.633l1.837-2.16a5.794,5.794,0,0,1,8.1-.759l2.26,1.827a4.435,4.435,0,0,0,6.278-.706l5.373-6.836,1.094.858-5.374,6.837a5.825,5.825,0,0,1-8.246.927l-2.259-1.829a4.411,4.411,0,0,0-6.173.575l-1.834,2.16a5.817,5.817,0,0,1-8.007.832l-1.489-1.153a4.439,4.439,0,0,0-6.4,1.043,5.838,5.838,0,0,1-4.089,2.542A5.945,5.945,0,0,1,3356.373,3460.739Z" transform="translate(-3333.306 -3417.782)" fill="#fff"/>
        <path id="Path_3668" data-name="Path 3668" d="M3359,3476.081a5.823,5.823,0,0,1-3.845-1.451l-3.859-3.39.917-1.045,3.86,3.393a4.433,4.433,0,0,0,6.615-.866,5.826,5.826,0,0,1,8.412-1.367l1.486,1.151a4.427,4.427,0,0,0,6.1-.633l1.835-2.16a5.8,5.8,0,0,1,8.1-.76l2.26,1.829a4.438,4.438,0,0,0,6.28-.705l5.37-6.837,1.094.857-5.37,6.837a5.826,5.826,0,0,1-8.248.928l-2.259-1.827a4.411,4.411,0,0,0-6.172.575l-1.835,2.16a5.819,5.819,0,0,1-8.009.832l-1.487-1.152a4.442,4.442,0,0,0-6.406,1.045,5.831,5.831,0,0,1-4.842,2.588Z" transform="translate(-3333.987 -3421.761)" fill="#fff"/>
        <circle id="Ellipse_379" data-name="Ellipse 379" cx="3.849" cy="3.849" r="3.849" transform="translate(109.821 43.921)" fill="#fff"/>
      </g>
      <circle id="Ellipse_597" data-name="Ellipse 597" cx="42.558" cy="42.558" r="42.558" transform="translate(3521.263 3173.262)" fill="#fff"/>
      <path id="Path_4134" data-name="Path 4134" d="M3804.713,3304.124l-110.386,68.11a31.532,31.532,0,0,1-34.6-14.912l-63.11-62.127,75.87-38.685,13.745,32.022c5.9,13.757,17.738,26.759,30.384,18.937l60.006-39.417A59.885,59.885,0,0,1,3804.713,3304.124Z" transform="translate(-69.69 -57.788)" fill="#fff"/>
      <path id="Path_4135" data-name="Path 4135" d="M3679.27,3365.585c-.214-.1-.318-.165-.023-.005-.116-.063-.232-.121-.347-.184-.275-.152-.542-.316-.8-.488a18.635,18.635,0,0,1-1.6-1.192c-.132-.108-.262-.218-.393-.329-.205-.174.167.157-.173-.152-.292-.265-.582-.533-.866-.806-.6-.575-1.178-1.17-1.744-1.778a96.564,96.564,0,0,1-7.756-9.713,297.453,297.453,0,0,1-16.529-26.432c-4.854-8.554-9.487-17.245-13.8-26.087q-.648-1.33-1.285-2.666a18.134,18.134,0,0,0-1.255-2.521c-.065-.094-.132-.188-.2-.281-.226-.318.248.384,0,0-.107-.164-.215-.329-.321-.495a47.7,47.7,0,0,1-3.848-7.487c-3.559-8.656-4.518-18.743-1.1-27.811a33.855,33.855,0,0,1,1.771-3.931,1.717,1.717,0,0,0-.459-2.312,1.681,1.681,0,0,0-2.312.459,37.777,37.777,0,0,0-4.493,16.9,43.38,43.38,0,0,0,2.213,14.359,51.77,51.77,0,0,0,4.305,9.748q.717,1.243,1.519,2.434c.129.192.295.387.407.592.005.01.015.018.02.028-.23-.447-.067.015.022.207q.3.654.615,1.306c4.112,8.677,8.6,17.183,13.266,25.57,5.286,9.493,10.839,18.863,17,27.819a122.38,122.38,0,0,0,8.18,10.8,33.928,33.928,0,0,0,7.151,6.66,14.012,14.012,0,0,0,1.8.953,1.678,1.678,0,0,0,2.106-1.057,1.7,1.7,0,0,0-1.057-2.106Z" transform="translate(-76.202 -56.266)" fill="#313131"/>
      <path id="Path_4136" data-name="Path 4136" d="M3576.549,3135.011l3.793.239,35.675,119.413-83.292.522,11.314-143.393" transform="translate(-53.119 -20.252)" fill="#313131"/>
      <ellipse id="Ellipse_598" data-name="Ellipse 598" cx="10.411" cy="14.686" rx="10.411" ry="14.686" transform="translate(3503.769 3110.087) rotate(-74.417)" fill="#fec739"/>
      <path id="Path_4137" data-name="Path 4137" d="M3695.6,3406.1a23.921,23.921,0,0,0,7.533,3.094,35.545,35.545,0,0,0,19.406-.782,50.826,50.826,0,0,0,14.369-7.474,1.714,1.714,0,0,0,.6-2.279,1.679,1.679,0,0,0-2.28-.6c-6.621,4.81-14.327,8.454-22.618,8.782a29.136,29.136,0,0,1-7.972-.714,29.727,29.727,0,0,1-3.1-.894c-.393-.137-.78-.287-1.167-.437-.107-.041-.213-.086-.32-.13.384.157.177.077.094.04-.2-.089-.408-.179-.61-.272a15.535,15.535,0,0,1-2.249-1.213c-1.777-1.212-3.446,1.674-1.682,2.877Z" transform="translate(-95.171 -94.439)" fill="#313131"/>
    </g>
  </g>
</svg>
