<svg xmlns="http://www.w3.org/2000/svg" xmlns:xlink="http://www.w3.org/1999/xlink" width="365.704" height="277.495" viewBox="0 0 365.704 277.495">
  <defs>
    <clipPath id="clip-path">
      <rect id="Rectangle_1340" data-name="Rectangle 1340" width="37.158" height="73.861" transform="translate(18.287 0) rotate(14.335)" fill="none"/>
    </clipPath>
    <clipPath id="clip-path-2">
      <rect id="Rectangle_1343" data-name="Rectangle 1343" width="37.158" height="73.861" fill="none"/>
    </clipPath>
    <clipPath id="clip-path-3">
      <rect id="Rectangle_1346" data-name="Rectangle 1346" width="37.158" height="73.861" transform="translate(10.134 0) rotate(7.886)" fill="#019e96"/>
    </clipPath>
  </defs>
  <g id="Group_3273" data-name="Group 3273" transform="translate(3926.237 11824.835)">
    <path id="Path_4532" data-name="Path 4532" d="M140.074,360.3c45.477-7.174,130.87-49.781,131.445-207.835S154.572-2.557,135.872,1.444,2.53,29.448.322,183.467,94.539,367.483,140.074,360.3Z" transform="matrix(0.017, -1, 1, 0.017, -3926.491, -11553.359)" fill="#fff7d9"/>
    <g id="Group_2079" data-name="Group 2079" transform="translate(-4619.102 -11798.49)">
      <path id="Path_2780" data-name="Path 2780" d="M793.05,55.8a1.095,1.095,0,0,1-1.569,1.224A275.339,275.339,0,0,0,764.99,44.889a1.1,1.1,0,0,1-.689-.817,1.092,1.092,0,0,1,.336-1.015c6-5.473,11.679-10.882,18.47-17.388a1.092,1.092,0,0,1,1.545.033,1.08,1.08,0,0,1,.25.416C788.1,35.884,790.616,46.006,793.05,55.8ZM767.418,43.479c7.058,2.767,16.065,7.006,22.926,10.5-2.1-8.46-4.306-17.125-6.984-25.529-5.769,5.523-10.77,10.279-15.943,15.025Z" fill="#ff8e9e"/>
    </g>
    <g id="Group_3272" data-name="Group 3272" transform="translate(-6614.427 -12988.367)">
      <g id="Group_2488" data-name="Group 2488" transform="translate(2785.757 1211.71)">
        <path id="Path_3760" data-name="Path 3760" d="M2920.553,1288.465a3.825,3.825,0,0,1,4.479-2.793l.655-2.567a3.819,3.819,0,0,1,1.889-7.393l.656-2.567a3.819,3.819,0,0,1,1.889-7.393l.656-2.566a3.819,3.819,0,0,1,1.889-7.393l1.046-4.1a8.059,8.059,0,0,1-5.813-9.8c.03-.116.071-.226.1-.339l-119.367-30.5a8.059,8.059,0,0,1-9.8,5.813c-.212-.054-.415-.121-.617-.191l-1.145,4.479c.089.016.176.017.265.039a3.834,3.834,0,1,1-1.9,7.429c-.089-.023-.167-.063-.252-.092l-.66,2.583c.089.017.177.018.265.041a3.834,3.834,0,1,1-1.9,7.429c-.088-.023-.166-.064-.252-.092l-.66,2.583c.089.016.177.017.267.04a3.835,3.835,0,0,1-1.9,7.43c-.089-.023-.167-.064-.253-.092l-.659,2.582c.089.017.176.018.265.04a3.834,3.834,0,1,1-1.9,7.429c-.089-.023-.167-.063-.252-.092l-1.8,7.032c.21.036.422.075.632.129a8.061,8.061,0,0,1,5.814,9.8l119.35,30.5a8.058,8.058,0,0,1,9.8-5.813l1.788-6.993A3.825,3.825,0,0,1,2920.553,1288.465Z" transform="translate(-2785.757 -1211.049)" fill="#fec739"/>
        <g id="Group_2486" data-name="Group 2486" transform="translate(97.318 17.172)">
          <g id="Group_2485" data-name="Group 2485" clip-path="url(#clip-path)">
            <path id="Path_3761" data-name="Path 3761" d="M2920.535,1288.534a3.825,3.825,0,0,1,4.479-2.793l.656-2.566a3.819,3.819,0,0,1,1.889-7.393l.656-2.567a3.819,3.819,0,0,1,1.889-7.393l.656-2.566a3.819,3.819,0,0,1,1.889-7.393l1.046-4.1a8.059,8.059,0,0,1-5.813-9.8c.03-.115.071-.225.1-.339l-119.366-30.5a8.059,8.059,0,0,1-9.8,5.813c-.212-.054-.415-.121-.617-.191l-1.145,4.478c.089.017.177.018.265.041a3.834,3.834,0,1,1-1.9,7.429c-.088-.023-.166-.063-.252-.092l-.661,2.583c.089.017.177.018.267.039a3.835,3.835,0,0,1-1.9,7.43c-.088-.023-.166-.064-.252-.092l-.659,2.583c.088.016.176.017.265.039a3.834,3.834,0,0,1-1.9,7.429c-.089-.023-.167-.063-.252-.092l-.66,2.583c.089.017.177.018.265.04a3.834,3.834,0,0,1-1.9,7.429c-.088-.023-.166-.064-.252-.092l-1.8,7.032c.21.036.422.075.633.129a8.059,8.059,0,0,1,5.814,9.8l119.35,30.5a8.06,8.06,0,0,1,9.8-5.814l1.787-6.992A3.827,3.827,0,0,1,2920.535,1288.534Z" transform="translate(-2883.075 -1228.218)" fill="#019e96"/>
          </g>
        </g>
        <g id="Group_2487" data-name="Group 2487" transform="translate(30.275 23.89)">
          <path id="Path_3762" data-name="Path 3762" d="M2815.848,1239.341l7.9,2.02-.892,3.49-7.905-2.02Z" transform="translate(-2814.955 -1233.895)"/>
          <path id="Path_3763" data-name="Path 3763" d="M2839.3,1243.6a6.154,6.154,0,0,1,1.884,2.758,5.942,5.942,0,0,1,.077,3.426,6.283,6.283,0,0,1-1.856,3.185,6.57,6.57,0,0,1-3.249,1.595,8.979,8.979,0,0,1-3.96-.164,8.565,8.565,0,0,1-5.782-4.156q-1.675-3.106-.484-7.769a12.416,12.416,0,0,1,2.712-5.377,8.832,8.832,0,0,1,4.427-2.706,11.038,11.038,0,0,1,5.524.1,13.063,13.063,0,0,1,2.912,1.117,8.288,8.288,0,0,1,2.191,1.615l-2.526,2.9a6.63,6.63,0,0,0-3.408-1.912,5.5,5.5,0,0,0-4.309.446,6.272,6.272,0,0,0-2.642,3.818,6.745,6.745,0,0,1,5.273-.5A7.863,7.863,0,0,1,2839.3,1243.6Zm-3.932,7.178a2.744,2.744,0,0,0,1.45-1.891,2.791,2.791,0,0,0-.362-2.369,3.64,3.64,0,0,0-2.213-1.412,3.691,3.691,0,0,0-2.641.2,2.919,2.919,0,0,0-1.1,4.2,3.79,3.79,0,0,0,2.306,1.453A3.6,3.6,0,0,0,2835.364,1250.78Z" transform="translate(-2814.569 -1234.089)"/>
          <path id="Path_3764" data-name="Path 3764" d="M2856.454,1247.986a6.15,6.15,0,0,1,1.884,2.758,5.949,5.949,0,0,1,.077,3.425,6.289,6.289,0,0,1-1.856,3.186,6.585,6.585,0,0,1-3.25,1.594,8.962,8.962,0,0,1-3.96-.163,8.569,8.569,0,0,1-5.782-4.156q-1.675-3.106-.483-7.77a12.414,12.414,0,0,1,2.713-5.376,8.835,8.835,0,0,1,4.425-2.707,11.037,11.037,0,0,1,5.524.1,13.136,13.136,0,0,1,2.914,1.116,8.307,8.307,0,0,1,2.19,1.615l-2.525,2.9a6.618,6.618,0,0,0-3.408-1.912,5.489,5.489,0,0,0-4.309.446,6.271,6.271,0,0,0-2.643,3.818,6.748,6.748,0,0,1,5.275-.5A7.877,7.877,0,0,1,2856.454,1247.986Zm-3.932,7.177a2.744,2.744,0,0,0,1.45-1.891,2.785,2.785,0,0,0-.361-2.368,3.649,3.649,0,0,0-2.213-1.413,3.69,3.69,0,0,0-2.641.2,2.917,2.917,0,0,0-1.1,4.2,3.793,3.793,0,0,0,2.306,1.453A3.608,3.608,0,0,0,2852.522,1255.164Z" transform="translate(-2813.936 -1233.927)"/>
          <path id="Path_3765" data-name="Path 3765" d="M2873.613,1252.371a6.145,6.145,0,0,1,1.884,2.757,5.949,5.949,0,0,1,.077,3.426,6.294,6.294,0,0,1-1.857,3.186,6.577,6.577,0,0,1-3.249,1.594,8.98,8.98,0,0,1-3.96-.163,8.572,8.572,0,0,1-5.782-4.156q-1.675-3.106-.484-7.77a12.409,12.409,0,0,1,2.712-5.376,8.833,8.833,0,0,1,4.427-2.707,11.045,11.045,0,0,1,5.523.1,13.107,13.107,0,0,1,2.913,1.117,8.286,8.286,0,0,1,2.191,1.615l-2.525,2.9a6.625,6.625,0,0,0-3.409-1.912,5.494,5.494,0,0,0-4.309.445,6.272,6.272,0,0,0-2.642,3.818,6.746,6.746,0,0,1,5.274-.5A7.877,7.877,0,0,1,2873.613,1252.371Zm-3.932,7.177a2.745,2.745,0,0,0,1.45-1.891,2.785,2.785,0,0,0-.362-2.368,3.643,3.643,0,0,0-2.213-1.413,3.69,3.69,0,0,0-2.641.2,2.918,2.918,0,0,0-1.1,4.2,3.784,3.784,0,0,0,2.306,1.453A3.605,3.605,0,0,0,2869.681,1259.549Z" transform="translate(-2813.303 -1233.766)"/>
        </g>
        <rect id="Rectangle_1341" data-name="Rectangle 1341" width="1.037" height="65.675" transform="translate(26.025 46.937) rotate(-75.665)"/>
        <rect id="Rectangle_1342" data-name="Rectangle 1342" width="1.037" height="65.675" transform="translate(23.972 54.97) rotate(-75.665)"/>
        <path id="Path_3766" data-name="Path 3766" d="M2909.042,1245.651l.685,3.247a.764.764,0,0,0,.454.548l3.064,1.275a.763.763,0,0,1,.087,1.367l-2.875,1.657a.758.758,0,0,0-.38.6l-.267,3.309a.764.764,0,0,1-1.273.5l-2.464-2.223a.762.762,0,0,0-.688-.176l-3.229.769a.764.764,0,0,1-.874-1.054l1.353-3.031a.765.765,0,0,0-.046-.709l-1.729-2.833a.764.764,0,0,1,.732-1.158l3.3.352a.763.763,0,0,0,.661-.263l2.16-2.52A.765.765,0,0,1,2909.042,1245.651Z" transform="translate(-2781.515 -1209.795)" fill="#fff"/>
        <path id="Path_3767" data-name="Path 3767" d="M2904.447,1263.63l.686,3.248a.764.764,0,0,0,.454.547l3.064,1.275a.764.764,0,0,1,.087,1.368l-2.876,1.656a.764.764,0,0,0-.381.6l-.265,3.309a.764.764,0,0,1-1.273.5l-2.465-2.223a.762.762,0,0,0-.688-.176l-3.229.769a.764.764,0,0,1-.874-1.054l1.353-3.031a.764.764,0,0,0-.044-.709l-1.73-2.833a.765.765,0,0,1,.733-1.158l3.3.351a.764.764,0,0,0,.661-.263l2.16-2.52A.764.764,0,0,1,2904.447,1263.63Z" transform="translate(-2781.685 -1209.132)" fill="#fff"/>
        <path id="Path_3768" data-name="Path 3768" d="M2899.853,1281.609l.685,3.248a.767.767,0,0,0,.454.547l3.064,1.275a.764.764,0,0,1,.088,1.368l-2.876,1.656a.762.762,0,0,0-.381.6l-.266,3.309a.763.763,0,0,1-1.273.505l-2.464-2.223a.762.762,0,0,0-.688-.176l-3.229.769a.764.764,0,0,1-.874-1.054l1.353-3.031a.761.761,0,0,0-.046-.709l-1.729-2.833a.764.764,0,0,1,.732-1.158l3.3.351a.764.764,0,0,0,.661-.262l2.161-2.521A.764.764,0,0,1,2899.853,1281.609Z" transform="translate(-2781.854 -1208.468)" fill="#fff"/>
      </g>
      <path id="Path_3769" data-name="Path 3769" d="M2932.034,1262.567a3.825,3.825,0,0,1,3.647-3.816V1256.1a3.819,3.819,0,0,1,0-7.63v-2.649a3.819,3.819,0,0,1,0-7.63v-2.65a3.819,3.819,0,0,1,0-7.63v-4.227a8.06,8.06,0,0,1-8.06-8.06c0-.119.014-.235.018-.354h-123.2a8.059,8.059,0,0,1-8.06,8.059c-.218,0-.432-.016-.645-.032v4.622c.09-.006.176-.027.267-.027a3.834,3.834,0,1,1,0,7.668c-.091,0-.176-.02-.267-.026v2.665c.09-.006.176-.027.267-.027a3.834,3.834,0,1,1,0,7.669c-.091,0-.176-.021-.267-.027v2.666c.09-.006.176-.027.267-.027a3.834,3.834,0,1,1,0,7.668c-.091,0-.176-.021-.267-.027v2.666c.09-.006.176-.027.267-.027a3.834,3.834,0,1,1,0,7.668c-.091,0-.176-.02-.267-.026v7.258c.213-.018.427-.033.645-.033a8.059,8.059,0,0,1,8.06,8.059h123.184a8.059,8.059,0,0,1,8.06-8.059v-7.218A3.824,3.824,0,0,1,2932.034,1262.567Z" transform="translate(0.368 0.817)" fill="#ff8e9e"/>
      <g id="Group_2490" data-name="Group 2490" transform="translate(2898.892 1209.767)">
        <g id="Group_2489" data-name="Group 2489" clip-path="url(#clip-path-2)">
          <path id="Path_3770" data-name="Path 3770" d="M2932.034,1262.639a3.825,3.825,0,0,1,3.647-3.816v-2.649a3.819,3.819,0,0,1,0-7.63v-2.649a3.819,3.819,0,0,1,0-7.63v-2.65a3.819,3.819,0,0,1,0-7.63v-4.227a8.06,8.06,0,0,1-8.06-8.06c0-.119.014-.235.018-.354h-123.2a8.059,8.059,0,0,1-8.06,8.059c-.218,0-.432-.016-.645-.032v4.622c.09-.006.176-.027.267-.027a3.834,3.834,0,1,1,0,7.668c-.091,0-.176-.02-.267-.026v2.665c.09-.006.176-.027.267-.027a3.834,3.834,0,1,1,0,7.669c-.091,0-.176-.021-.267-.027v2.666c.09-.006.176-.027.267-.027a3.834,3.834,0,1,1,0,7.668c-.091,0-.176-.021-.267-.027v2.666c.09-.006.176-.027.267-.027a3.834,3.834,0,1,1,0,7.668c-.091,0-.176-.02-.267-.026v7.258c.213-.018.427-.033.645-.033a8.059,8.059,0,0,1,8.06,8.059h123.184a8.059,8.059,0,0,1,8.06-8.059v-7.218A3.824,3.824,0,0,1,2932.034,1262.639Z" transform="translate(-2898.524 -1208.947)" fill="#195f5f"/>
        </g>
      </g>
      <g id="Group_2491" data-name="Group 2491" transform="translate(2820.095 1231.847)">
        <path id="Path_3771" data-name="Path 3771" d="M2818.873,1240.7h8.158v3.6h-8.158Z" transform="translate(-2818.873 -1230.093)"/>
        <path id="Path_3772" data-name="Path 3772" d="M2842.586,1239.119a6.142,6.142,0,0,1,2.508,2.205,5.946,5.946,0,0,1,.923,3.3,6.285,6.285,0,0,1-1.01,3.546,6.58,6.58,0,0,1-2.753,2.349,8.97,8.97,0,0,1-3.877.822,8.567,8.567,0,0,1-6.631-2.6q-2.392-2.594-2.392-7.407a12.417,12.417,0,0,1,1.3-5.881,8.832,8.832,0,0,1,3.618-3.718,11.04,11.04,0,0,1,5.376-1.269,13.124,13.124,0,0,1,3.1.361,8.3,8.3,0,0,1,2.522,1.022l-1.729,3.431a6.613,6.613,0,0,0-3.775-1.009,5.493,5.493,0,0,0-4.065,1.5,6.267,6.267,0,0,0-1.615,4.353,6.745,6.745,0,0,1,4.988-1.788A7.863,7.863,0,0,1,2842.586,1239.119Zm-2.032,7.928a2.746,2.746,0,0,0,.938-2.192,2.79,2.79,0,0,0-.937-2.206,3.647,3.647,0,0,0-2.494-.821,3.69,3.69,0,0,0-2.508.851,2.918,2.918,0,0,0-.028,4.337,3.789,3.789,0,0,0,2.594.837A3.6,3.6,0,0,0,2840.554,1247.047Z" transform="translate(-2818.486 -1230.47)"/>
        <path id="Path_3773" data-name="Path 3773" d="M2860.3,1239.119a6.142,6.142,0,0,1,2.508,2.205,5.946,5.946,0,0,1,.923,3.3,6.285,6.285,0,0,1-1.01,3.546,6.58,6.58,0,0,1-2.753,2.349,8.97,8.97,0,0,1-3.877.822,8.567,8.567,0,0,1-6.631-2.6q-2.392-2.594-2.392-7.407a12.417,12.417,0,0,1,1.3-5.881,8.832,8.832,0,0,1,3.618-3.718,11.04,11.04,0,0,1,5.376-1.269,13.124,13.124,0,0,1,3.1.361,8.3,8.3,0,0,1,2.522,1.022l-1.729,3.431a6.613,6.613,0,0,0-3.775-1.009,5.493,5.493,0,0,0-4.065,1.5,6.266,6.266,0,0,0-1.615,4.353,6.745,6.745,0,0,1,4.988-1.788A7.864,7.864,0,0,1,2860.3,1239.119Zm-2.032,7.928a2.746,2.746,0,0,0,.938-2.192,2.79,2.79,0,0,0-.937-2.206,3.647,3.647,0,0,0-2.494-.821,3.689,3.689,0,0,0-2.508.851,2.918,2.918,0,0,0-.028,4.337,3.788,3.788,0,0,0,2.594.837A3.6,3.6,0,0,0,2858.263,1247.047Z" transform="translate(-2817.833 -1230.47)"/>
        <path id="Path_3774" data-name="Path 3774" d="M2878.006,1239.119a6.141,6.141,0,0,1,2.508,2.205,5.944,5.944,0,0,1,.923,3.3,6.287,6.287,0,0,1-1.01,3.546,6.583,6.583,0,0,1-2.753,2.349,8.972,8.972,0,0,1-3.877.822,8.568,8.568,0,0,1-6.631-2.6q-2.392-2.594-2.392-7.407a12.417,12.417,0,0,1,1.3-5.881,8.832,8.832,0,0,1,3.618-3.718,11.04,11.04,0,0,1,5.376-1.269,13.126,13.126,0,0,1,3.1.361,8.3,8.3,0,0,1,2.522,1.022l-1.73,3.431a6.614,6.614,0,0,0-3.775-1.009,5.492,5.492,0,0,0-4.064,1.5,6.265,6.265,0,0,0-1.615,4.353,6.744,6.744,0,0,1,4.987-1.788A7.864,7.864,0,0,1,2878.006,1239.119Zm-2.032,7.928a2.746,2.746,0,0,0,.937-2.192,2.79,2.79,0,0,0-.937-2.206,3.647,3.647,0,0,0-2.494-.821,3.69,3.69,0,0,0-2.508.851,2.917,2.917,0,0,0-.028,4.337,3.787,3.787,0,0,0,2.594.837A3.6,3.6,0,0,0,2875.973,1247.047Z" transform="translate(-2817.18 -1230.47)"/>
      </g>
      <rect id="Rectangle_1344" data-name="Rectangle 1344" width="65.675" height="1.037" transform="translate(2819.47 1259.747)"/>
      <rect id="Rectangle_1345" data-name="Rectangle 1345" width="65.675" height="1.037" transform="translate(2819.47 1268.038)"/>
      <path id="Path_3775" data-name="Path 3775" d="M2910.729,1223.8l1.469,2.977a.763.763,0,0,0,.574.418l3.285.477a.763.763,0,0,1,.423,1.3l-2.376,2.318a.763.763,0,0,0-.22.676l.561,3.27a.764.764,0,0,1-1.108.806l-2.937-1.544a.761.761,0,0,0-.71,0l-2.938,1.544a.764.764,0,0,1-1.108-.806l.562-3.27a.766.766,0,0,0-.22-.676l-2.377-2.318a.763.763,0,0,1,.423-1.3l3.285-.477a.765.765,0,0,0,.574-.418l1.469-2.977A.764.764,0,0,1,2910.729,1223.8Z" transform="translate(4.339 1.116)" fill="#fff"/>
      <path id="Path_3776" data-name="Path 3776" d="M2910.729,1242.359l1.469,2.976a.758.758,0,0,0,.574.418l3.285.478a.763.763,0,0,1,.423,1.3l-2.376,2.316a.764.764,0,0,0-.22.676l.561,3.271a.764.764,0,0,1-1.108.806l-2.937-1.545a.768.768,0,0,0-.71,0l-2.938,1.545a.764.764,0,0,1-1.108-.806l.562-3.271a.768.768,0,0,0-.22-.676l-2.377-2.316a.763.763,0,0,1,.423-1.3l3.285-.478a.76.76,0,0,0,.574-.418l1.469-2.976A.764.764,0,0,1,2910.729,1242.359Z" transform="translate(4.339 1.8)" fill="#fff"/>
      <path id="Path_3777" data-name="Path 3777" d="M2910.729,1260.916l1.469,2.976a.76.76,0,0,0,.574.418l3.285.477a.764.764,0,0,1,.423,1.3l-2.376,2.316a.763.763,0,0,0-.22.676l.561,3.271a.764.764,0,0,1-1.108.806l-2.937-1.545a.761.761,0,0,0-.71,0l-2.938,1.545a.764.764,0,0,1-1.108-.806l.562-3.271a.767.767,0,0,0-.22-.676l-2.377-2.316a.764.764,0,0,1,.423-1.3l3.285-.477a.762.762,0,0,0,.574-.418l1.469-2.976A.763.763,0,0,1,2910.729,1260.916Z" transform="translate(4.339 2.485)" fill="#fff"/>
      <g id="Group_2495" data-name="Group 2495" transform="translate(2802.08 1193.128)">
        <path id="Path_3778" data-name="Path 3778" d="M2938.029,1257.484a3.825,3.825,0,0,1,4.137-3.277l.364-2.624a3.819,3.819,0,0,1,1.046-7.559l.364-2.624a3.819,3.819,0,0,1,1.047-7.559l.363-2.624a3.819,3.819,0,0,1,1.047-7.558l.58-4.188a8.059,8.059,0,0,1-6.877-9.088c.017-.118.045-.232.066-.348l-122.037-16.905a8.06,8.06,0,0,1-9.09,6.878c-.216-.03-.425-.075-.635-.121l-.635,4.58c.09.005.178,0,.268.009a3.834,3.834,0,0,1-1.051,7.6c-.091-.013-.173-.045-.261-.063l-.366,2.64c.09.006.177,0,.269.01a3.834,3.834,0,1,1-1.052,7.6c-.09-.012-.172-.045-.261-.063l-.365,2.641c.091.005.177,0,.269.009a3.834,3.834,0,0,1-1.052,7.6c-.091-.012-.173-.045-.261-.063l-.366,2.64c.09.006.178,0,.269.01a3.834,3.834,0,1,1-1.052,7.6c-.091-.013-.173-.045-.261-.063l-1,7.19c.214.012.428.026.644.056a8.06,8.06,0,0,1,6.877,9.089l122.02,16.9a8.059,8.059,0,0,1,9.088-6.877l.99-7.149A3.826,3.826,0,0,1,2938.029,1257.484Z" transform="translate(-2801.499 -1193.128)" fill="#fec739"/>
        <g id="Group_2493" data-name="Group 2493" transform="translate(100.56 6.65)">
          <g id="Group_2492" data-name="Group 2492" clip-path="url(#clip-path-3)">
            <path id="Path_3779" data-name="Path 3779" d="M2938.02,1257.556a3.824,3.824,0,0,1,4.136-3.279l.364-2.624a3.819,3.819,0,0,1,1.047-7.559l.363-2.624a3.819,3.819,0,0,1,1.047-7.558l.363-2.624a3.819,3.819,0,0,1,1.047-7.559l.581-4.187a8.06,8.06,0,0,1-6.878-9.089c.017-.118.044-.232.066-.348l-122.038-16.9a8.06,8.06,0,0,1-9.089,6.877c-.216-.03-.425-.075-.635-.12l-.634,4.579c.09.006.178,0,.269.009a3.834,3.834,0,0,1-1.052,7.6c-.091-.012-.173-.045-.261-.063l-.366,2.64c.09.006.178,0,.269.01a3.834,3.834,0,0,1-1.052,7.6c-.09-.012-.172-.046-.261-.064l-.365,2.641c.09.006.177,0,.268.009a3.834,3.834,0,0,1-1.052,7.6c-.091-.013-.173-.045-.261-.063l-.366,2.64c.09.006.178,0,.269.01a3.834,3.834,0,1,1-1.052,7.6c-.091-.013-.173-.046-.261-.063l-1,7.189c.214.012.428.027.644.056a8.06,8.06,0,0,1,6.877,9.089l122.02,16.9a8.059,8.059,0,0,1,9.088-6.878l.99-7.149A3.823,3.823,0,0,1,2938.02,1257.556Z" transform="translate(-2902.059 -1199.775)" fill="#019e96"/>
          </g>
        </g>
        <g id="Group_2494" data-name="Group 2494" transform="translate(27.663 20.485)">
          <path id="Path_3780" data-name="Path 3780" d="M2828.671,1220.343l8.082,1.12-.495,3.568-8.081-1.119Z" transform="translate(-2828.178 -1212.609)"/>
          <path id="Path_3781" data-name="Path 3781" d="M2852.42,1221.984a6.151,6.151,0,0,1,2.182,2.528,5.945,5.945,0,0,1,.461,3.4,6.289,6.289,0,0,1-1.487,3.374,6.588,6.588,0,0,1-3.05,1.949,8.99,8.99,0,0,1-3.953.282,8.569,8.569,0,0,1-6.212-3.48q-2.015-2.9-1.354-7.667a12.425,12.425,0,0,1,2.093-5.648,8.828,8.828,0,0,1,4.094-3.186,11.03,11.03,0,0,1,5.5-.518,13.091,13.091,0,0,1,3.021.782,8.269,8.269,0,0,1,2.358,1.359l-2.184,3.16a6.63,6.63,0,0,0-3.6-1.517,5.492,5.492,0,0,0-4.231.927,6.266,6.266,0,0,0-2.2,4.091,6.746,6.746,0,0,1,5.185-1.087A7.862,7.862,0,0,1,2852.42,1221.984Zm-3.1,7.573a2.743,2.743,0,0,0,1.228-2.042,2.786,2.786,0,0,0-.624-2.313,3.652,3.652,0,0,0-2.358-1.156,3.689,3.689,0,0,0-2.6.5,2.918,2.918,0,0,0-.623,4.293,3.79,3.79,0,0,0,2.455,1.184A3.6,3.6,0,0,0,2849.319,1229.557Z" transform="translate(-2827.784 -1212.884)"/>
          <path id="Path_3782" data-name="Path 3782" d="M2869.962,1224.413a6.147,6.147,0,0,1,2.182,2.529,5.945,5.945,0,0,1,.46,3.4,6.289,6.289,0,0,1-1.486,3.374,6.587,6.587,0,0,1-3.049,1.949,9,9,0,0,1-3.954.282,8.567,8.567,0,0,1-6.212-3.481q-2.013-2.9-1.354-7.666a12.429,12.429,0,0,1,2.092-5.648,8.837,8.837,0,0,1,4.095-3.186,11.041,11.041,0,0,1,5.5-.52,13.143,13.143,0,0,1,3.02.783,8.265,8.265,0,0,1,2.359,1.359l-2.185,3.16a6.615,6.615,0,0,0-3.6-1.517,5.487,5.487,0,0,0-4.231.927,6.266,6.266,0,0,0-2.2,4.089,6.749,6.749,0,0,1,5.184-1.086A7.863,7.863,0,0,1,2869.962,1224.413Zm-3.1,7.574a2.745,2.745,0,0,0,1.229-2.043,2.789,2.789,0,0,0-.625-2.312,4.158,4.158,0,0,0-4.958-.657,2.917,2.917,0,0,0-.624,4.293,3.789,3.789,0,0,0,2.455,1.184A3.6,3.6,0,0,0,2866.861,1231.987Z" transform="translate(-2827.137 -1212.794)"/>
          <path id="Path_3783" data-name="Path 3783" d="M2887.5,1226.843a6.147,6.147,0,0,1,2.182,2.529,5.943,5.943,0,0,1,.461,3.4,6.291,6.291,0,0,1-1.487,3.374,6.589,6.589,0,0,1-3.05,1.949,8.988,8.988,0,0,1-3.953.282,8.567,8.567,0,0,1-6.212-3.481q-2.015-2.9-1.354-7.666a12.425,12.425,0,0,1,2.093-5.648,8.827,8.827,0,0,1,4.094-3.186,11.04,11.04,0,0,1,5.5-.519,13.135,13.135,0,0,1,3.021.783,8.266,8.266,0,0,1,2.358,1.359l-2.184,3.161a6.621,6.621,0,0,0-3.6-1.517,5.487,5.487,0,0,0-4.231.927,6.267,6.267,0,0,0-2.2,4.09,6.75,6.75,0,0,1,5.186-1.086A7.861,7.861,0,0,1,2887.5,1226.843Zm-3.1,7.574a2.743,2.743,0,0,0,1.228-2.043,2.785,2.785,0,0,0-.625-2.312,3.643,3.643,0,0,0-2.357-1.156,3.683,3.683,0,0,0-2.6.5,2.918,2.918,0,0,0-.623,4.293,3.79,3.79,0,0,0,2.454,1.184A3.6,3.6,0,0,0,2884.4,1234.417Z" transform="translate(-2826.49 -1212.704)"/>
        </g>
        <rect id="Rectangle_1347" data-name="Rectangle 1347" width="1.037" height="65.675" transform="translate(25.024 46.287) rotate(-82.114)"/>
        <rect id="Rectangle_1348" data-name="Rectangle 1348" width="1.037" height="65.675" transform="translate(23.886 54.499) rotate(-82.114)"/>
        <path id="Path_3784" data-name="Path 3784" d="M2921.986,1216.175l1.046,3.15a.764.764,0,0,0,.512.493l3.188.924a.764.764,0,0,1,.24,1.348l-2.672,1.969a.763.763,0,0,0-.311.64l.107,3.317a.764.764,0,0,1-1.208.646l-2.7-1.934a.765.765,0,0,0-.7-.1l-3.122,1.127a.764.764,0,0,1-.987-.95l1-3.164a.766.766,0,0,0-.125-.7l-2.035-2.62a.764.764,0,0,1,.6-1.233l3.319-.022a.766.766,0,0,0,.627-.335l1.864-2.747A.764.764,0,0,1,2921.986,1216.175Z" transform="translate(-2797.347 -1192.297)" fill="#fff"/>
        <path id="Path_3785" data-name="Path 3785" d="M2919.44,1234.557l1.046,3.149a.762.762,0,0,0,.512.493l3.189.924a.764.764,0,0,1,.24,1.349l-2.672,1.968a.763.763,0,0,0-.311.64l.107,3.317a.764.764,0,0,1-1.208.646l-2.7-1.933a.759.759,0,0,0-.7-.1l-3.122,1.126a.764.764,0,0,1-.987-.95l1-3.163a.764.764,0,0,0-.125-.7l-2.037-2.621a.765.765,0,0,1,.6-1.233l3.319-.022a.761.761,0,0,0,.627-.335l1.863-2.747A.764.764,0,0,1,2919.44,1234.557Z" transform="translate(-2797.44 -1191.619)" fill="#fff"/>
        <path id="Path_3786" data-name="Path 3786" d="M2916.893,1252.938l1.047,3.149a.762.762,0,0,0,.512.494l3.188.923a.764.764,0,0,1,.24,1.349l-2.672,1.969a.762.762,0,0,0-.31.639l.107,3.318a.763.763,0,0,1-1.208.645l-2.7-1.933a.766.766,0,0,0-.7-.1l-3.122,1.127a.764.764,0,0,1-.987-.95l1-3.164a.764.764,0,0,0-.126-.7l-2.036-2.621a.764.764,0,0,1,.6-1.232l3.319-.023a.764.764,0,0,0,.627-.335l1.863-2.746A.763.763,0,0,1,2916.893,1252.938Z" transform="translate(-2797.534 -1190.941)" fill="#fff"/>
      </g>
    </g>
  </g>
</svg>
