<svg xmlns="http://www.w3.org/2000/svg" width="518.534" height="439.516" viewBox="0 0 518.534 439.516">
  <g id="Group_3300" data-name="Group 3300" transform="translate(7744.613 10367.646)">
    <g id="Group_2743" data-name="Group 2743" transform="translate(-8268.376 -10296.288)">
      <g id="Group_2077" data-name="Group 2077" transform="translate(-49 81.627)">
        <g id="Group_2075" data-name="Group 2075">
          <path id="Path_2774" data-name="Path 2774" d="M1024.634,96.788a.82.82,0,0,1-.7-1.255,33.47,33.47,0,0,0,5.143-15.741,6.406,6.406,0,0,1-1.016.081,5.46,5.46,0,0,1-5.666-5.246l0-.079c0-3.859,3.8-7.506,7.817-7.506s8.086,3.5,8.086,10.2c0,6.289-4.807,13.358-13.188,19.393A.822.822,0,0,1,1024.634,96.788Zm5.312-18.875a.82.82,0,0,1,.82.82v.019a34.345,34.345,0,0,1-3.474,14.1c6-5.1,9.369-10.662,9.369-15.611,0-5.881-3.341-8.559-6.446-8.559-3.06,0-6.177,2.96-6.177,5.867a3.839,3.839,0,0,0,3.984,3.688l.044,0a4.96,4.96,0,0,0,1.615-.276.8.8,0,0,1,.266-.046Z" fill="#313131"/>
        </g>
        <g id="Group_2076" data-name="Group 2076">
          <path id="Path_2775" data-name="Path 2775" d="M1044.552,96.788a.82.82,0,0,1-.695-1.255A33.47,33.47,0,0,0,1049,79.792a6.427,6.427,0,0,1-1.017.081,5.46,5.46,0,0,1-5.665-5.247l0-.078c0-3.859,3.8-7.506,7.818-7.506s8.085,3.5,8.085,10.2c0,6.29-4.807,13.359-13.188,19.393A.818.818,0,0,1,1044.552,96.788Zm5.313-18.875a.82.82,0,0,1,.82.82v.019a34.347,34.347,0,0,1-3.474,14.1c6-5.1,9.369-10.662,9.369-15.612,0-5.881-3.341-8.559-6.445-8.559-3.061,0-6.179,2.96-6.179,5.867a3.839,3.839,0,0,0,3.984,3.688l.044,0a4.96,4.96,0,0,0,1.615-.276A.8.8,0,0,1,1049.865,77.913Z" fill="#313131"/>
        </g>
      </g>
      <g id="Group_2078" data-name="Group 2078" transform="translate(-77.794 -49.088)">
        <path id="Path_2779" data-name="Path 2779" d="M1054.492,135.239c-3.5,0-5.742-1.531-7.723-2.883-1.681-1.147-3.133-2.138-5.156-2.138a7.729,7.729,0,0,0-5.994,3.452,1.093,1.093,0,1,1-1.8-1.246l.016-.024a9.936,9.936,0,0,1,7.773-4.368c2.7,0,4.574,1.281,6.388,2.518,1.886,1.288,3.668,2.5,6.491,2.5,3.579,0,5.12-1.482,6.752-3.052,1.542-1.483,3.136-3.017,6.2-3.017,2.4,0,4.455,1.447,6.44,2.846,2.071,1.46,4.213,2.97,6.818,2.97,1.722,0,3.385-1.158,5.145-2.384a14.614,14.614,0,0,1,5.6-2.811,1.093,1.093,0,1,1,.412,2.147l-.029.005a12.835,12.835,0,0,0-4.734,2.453c-1.96,1.365-3.986,2.776-6.395,2.776-3.3,0-5.837-1.79-8.078-3.369-1.862-1.313-3.47-2.447-5.181-2.447-2.183,0-3.286,1.062-4.684,2.407C1061.063,133.208,1058.952,135.239,1054.492,135.239Z" fill="#ff8e9e"/>
      </g>
      <g id="Group_2079" data-name="Group 2079" transform="translate(-175 60.786)">
        <path id="Path_2780" data-name="Path 2780" d="M793.05,55.8a1.095,1.095,0,0,1-1.569,1.224A275.339,275.339,0,0,0,764.99,44.889a1.1,1.1,0,0,1-.689-.817,1.092,1.092,0,0,1,.336-1.015c6-5.473,11.679-10.882,18.47-17.388a1.092,1.092,0,0,1,1.545.033,1.08,1.08,0,0,1,.25.416C788.1,35.884,790.616,46.006,793.05,55.8ZM767.418,43.479c7.058,2.767,16.065,7.006,22.926,10.5-2.1-8.46-4.306-17.125-6.984-25.529-5.769,5.523-10.77,10.279-15.943,15.025Z" fill="#ff8e9e"/>
      </g>
      <g id="Group_2080" data-name="Group 2080">
        <path id="Path_2781" data-name="Path 2781" d="M888.271,29.035a7.657,7.657,0,0,0-2.425-.4c-4.778,0-8.706,4.592-8.706,8.923a7.636,7.636,0,0,0,7.677,7.6c.1,0,.21,0,.315-.008a9.223,9.223,0,0,0,9.54-8.628,10.543,10.543,0,0,0-2.7-5.631A7.953,7.953,0,0,0,888.271,29.035Z" fill="#019e96"/>
      </g>
      <g id="Group_2078-2" data-name="Group 2078" transform="translate(177.468 -64.642)">
        <path id="Path_2779-2" data-name="Path 2779" d="M367.159,247.186c-3.5,0-5.742-1.531-7.723-2.883-1.681-1.147-3.133-2.138-5.156-2.138a7.732,7.732,0,0,0-5.994,3.452,1.093,1.093,0,0,1-1.8-1.246l.017-.024a9.936,9.936,0,0,1,7.773-4.368c2.7,0,4.574,1.281,6.388,2.518,1.886,1.288,3.668,2.5,6.491,2.5,3.579,0,5.12-1.482,6.752-3.052,1.542-1.483,3.136-3.017,6.2-3.017,2.4,0,4.455,1.447,6.44,2.846,2.071,1.46,4.213,2.97,6.818,2.97,1.722,0,3.385-1.158,5.145-2.384a14.607,14.607,0,0,1,5.6-2.811,1.093,1.093,0,0,1,.412,2.147l-.029.005a12.849,12.849,0,0,0-4.734,2.453c-1.96,1.365-3.986,2.776-6.395,2.776-3.3,0-5.837-1.79-8.078-3.369-1.862-1.313-3.47-2.447-5.181-2.447-2.183,0-3.286,1.062-4.684,2.407C373.73,245.156,371.619,247.186,367.159,247.186Z" fill="#019e96"/>
      </g>
    </g>
    <g id="Group_2731" data-name="Group 2731" transform="matrix(1, -0.017, 0.017, 1, -7392.499, -10095.898)">
      <path id="Path_3567" data-name="Path 3567" d="M12.7,32.882,0,0" transform="matrix(-0.914, -0.407, 0.407, -0.914, 144.362, 43.212)" fill="none" stroke="#fec739" stroke-linecap="round" stroke-width="10"/>
      <path id="Path_3834" data-name="Path 3834" d="M12.7,32.883,0,0" transform="translate(111.317 12.319) rotate(-76)" fill="none" stroke="#fec739" stroke-linecap="round" stroke-width="10"/>
      <path id="Path_3835" data-name="Path 3835" d="M587.585,2344.135s-57.6,75.826-143.086,102" transform="translate(-444.499 -2332.54)" fill="none" stroke="#ffc517" stroke-linecap="round" stroke-width="10"/>
    </g>
    <path id="Path_4151" data-name="Path 4151" d="M569.643,2486.726s135.155,37.022,228.983-4.792c-10.92-52.6-12.871-64.774-12.871-64.774l-210.515,44.514Z" transform="translate(-8175 -12429.977)" fill="#ff8e9e"/>
    <g id="Group_2821" data-name="Group 2821" transform="translate(-11150.693 -13435.213)">
      <path id="Path_4138" data-name="Path 4138" d="M3509.188,3273.333h184.775s46.107-4.313,53.868,51.953,21.342,136.782,21.342,136.782l-252.224,4.851Z" fill="#ff8e9e"/>
      <path id="Path_4139" data-name="Path 4139" d="M3680.953,3306.453l3.128,15.641,7.514,37.561,9.089,45.441,7.857,39.279,2.589,12.941c.407,2.037.723,4.12,1.227,6.136.022.087.035.177.053.264.567,2.838,4.906,1.637,4.339-1.2l-3.128-15.641-7.514-37.561-9.089-45.441-7.857-39.279-2.589-12.941c-.407-2.037-.723-4.12-1.227-6.135-.022-.087-.035-.177-.053-.265-.568-2.838-4.906-1.637-4.339,1.2Z" fill="#313131"/>
      <path id="Path_4140" data-name="Path 4140" d="M3536.352,3134.661s-4.228,47.232,27.324,48.335,116.409-35.563,116.409-35.563,14.857-19.29-1.142-43.014" fill="#313131"/>
      <path id="Rectangle_1442" data-name="Rectangle 1442" d="M36.452,0h0A36.452,36.452,0,0,1,72.9,36.452V147.009a20.258,20.258,0,0,1-20.258,20.258H20.258A20.258,20.258,0,0,1,0,147.009V36.452A36.452,36.452,0,0,1,36.452,0Z" transform="translate(3649.203 3310.274) rotate(174.71)" fill="#fec739"/>
      <circle id="Ellipse_599" data-name="Ellipse 599" cx="61.98" cy="61.98" r="61.98" transform="translate(3560.52 3078.395)" fill="#fec739"/>
      <circle id="Ellipse_600" data-name="Ellipse 600" cx="61.98" cy="61.98" r="61.98" transform="translate(3563.681 3112.533)" fill="#fec739"/>
      <rect id="Rectangle_1443" data-name="Rectangle 1443" width="123.961" height="33.393" transform="matrix(0.996, -0.092, 0.092, 0.996, 3560.783, 3146.091)" fill="#fec739"/>
      <circle id="Ellipse_601" data-name="Ellipse 601" cx="7.234" cy="7.234" r="7.234" transform="translate(3659.044 3142.673)" fill="#313131"/>
      <circle id="Ellipse_602" data-name="Ellipse 602" cx="7.234" cy="7.234" r="7.234" transform="translate(3616.514 3146.612)" fill="#313131"/>
      <path id="Path_4141" data-name="Path 4141" d="M3649.542,3150.12l5.884,26.968.832,3.814c.353,1.618-1.25,3.015-2.674,3.219l-7.134,1.022c-3.773.54-4.308-5.354-.545-5.893l7.133-1.022-2.673,3.219-5.883-26.967-.832-3.814c-.342-1.564,1.22-3.085,2.673-3.219a3.031,3.031,0,0,1,3.219,2.673Z" fill="#313131"/>
      <path id="Path_4142" data-name="Path 4142" d="M3649.5,3204.012c-6.858,1.795-15.561,1.994-20.725-3.577a2.965,2.965,0,0,1,.683-4.129,3.052,3.052,0,0,1,4.129.684c-.6-.645.015-.017.154.1q.28.246.581.466c.489.358.149-.035-.022.009.093-.024.547.313.648.365a11.105,11.105,0,0,0,1.2.528c.785.294-.341-.071.164.066.183.049.365.1.549.149a17.7,17.7,0,0,0,2.818.455,3.681,3.681,0,0,1,.754.051c-.327-.109-.562-.017-.045-.007.456.009.913,0,1.369-.009a32.443,32.443,0,0,0,4.454-.462c.466-.081.928-.176,1.391-.272.533-.11-.931.222-.343.079l.15-.038a3.033,3.033,0,0,1,3.815,1.722c.455,1.391-.121,3.4-1.722,3.815Z" fill="#313131"/>
      <ellipse id="Ellipse_603" data-name="Ellipse 603" cx="13.628" cy="19.222" rx="13.628" ry="19.222" transform="translate(3536.549 3161.408) rotate(-74.417)" fill="#fec739"/>
      <path id="Path_4143" data-name="Path 4143" d="M3684.712,3115.364s-60.673-12.092-68.2,7.091c-9.821,20.8-17.418,18.72-54.127,17.863-16.116-.376-26.034-5.657-26.034-5.657s-6.716-59.486,67.159-66.068S3683.284,3088.234,3684.712,3115.364Z" fill="#313131"/>
      <circle id="Ellipse_604" data-name="Ellipse 604" cx="44.897" cy="44.897" r="44.897" transform="translate(3465.693 3273.257)" fill="#ff8e9e"/>
      <path id="Path_4144" data-name="Path 4144" d="M3651.117,3470.675" fill="none" stroke="#313131" stroke-miterlimit="10" stroke-width="0.75"/>
      <path id="Path_4145" data-name="Path 4145" d="M3626.681,3464.809l62.579-30.07-135,64.869a41.741,41.741,0,0,1-54.241-29.909l-34.326-146.026" fill="#ff8e9e"/>
      <path id="Path_4146" data-name="Path 4146" d="M3526.4,3301.2c1.006,1.114,2.006,2.233,2.978,3.377q.675.8,1.33,1.606c.206.256.409.514.612.773-.341-.436.266.353.389.519a46.919,46.919,0,0,1,4.469,7.321c.351.714.683,1.438,1,2.166.037.084.243.561.163.374s.158.381.2.485q.259.635.506,1.275c.7,1.826,1.335,3.679,1.919,5.547,1.56,4.989,2.81,10.075,3.965,15.171,3.238,14.274,5.82,28.7,8.721,43.045q3.891,19.239,7.909,38.45,1.338,6.408,2.688,12.812c.429,2.037.776,4.115,1.3,6.131.023.089.038.181.058.271.6,2.831,4.941,1.633,4.339-1.2q-1.682-7.9-3.33-15.805-3.87-18.489-7.637-37c-2.974-14.636-5.672-29.336-8.827-43.934-2.052-9.5-4.224-19.154-8.166-28.077a57.5,57.5,0,0,0-9.9-14.809q-.749-.847-1.507-1.684c-1.946-2.153-5.12,1.037-3.182,3.182Z" fill="#313131"/>
      <path id="Path_4147" data-name="Path 4147" d="M3625.062,3412.648s16.277-16.555,31.333-17.99,20.644-.479,34.266-6.975,15.047-9.132,22.216-6.98c7.149,1.113-1.009,12.678-19.21,17.56a.191.191,0,0,0,.06.376c13.493,0,12.513,3.038,30.015-.376,12.36-8.766,33.574-28.638,39.33-22.094-2.076,4.981-22.61,25.473-39.33,34.413-9.815,3.093-16.709,6.09-34.531,3.072-18.673-3.336-23.855,4.857-23.855,4.857Z" fill="#fec739"/>
      <path id="Path_4148" data-name="Path 4148" d="M3614.77,3472.78l13.025-6.888,17.858-11.162,21.515-13.446,18.7-11.687c3.016-1.885,6.107-3.686,9.062-5.664.044-.029.089-.055.133-.083,2.05-1.281.978-3.912-1.135-4.193l-21.1-2.8-37.552-4.988-12.847-1.706c-1.744-.231-3.205-.69-4.813.168l-25.833,13.777-25.682,13.7-.453.242c-2.557,1.363-.286,5.249,2.271,3.886l17.781-9.484,28.212-15.046,6.5-3.466-1.135.307,25.378,3.371,40.1,5.326,9.176,1.218-1.136-4.192-7.389,4.617-17.857,11.162-21.515,13.446-18.7,11.687c-3.015,1.885-11.742,5.957-14.7,7.935-.043.029-50.833,24.919-50.878,24.948-2.45,1.531-.194,5.426,2.271,3.885Z" fill="#313131"/>
      <path id="Path_4150" data-name="Path 4150" d="M3642.165,3234.267a37.406,37.406,0,0,1-12.578,1.824c4.134,6.091,14.258,16.326,14.258,16.326Z" fill="#313131"/>
      <path id="Path_4152" data-name="Path 4152" d="M3715.377,3383.347s-2.073,10.324-22.159,14.817" fill="none" stroke="#313131" stroke-linecap="round" stroke-width="2"/>
    </g>
    <g id="Group_2733" data-name="Group 2733" transform="translate(-7877.677 -13091.961)">
      <g id="Group_2310" data-name="Group 2310" transform="translate(397.969 2867.848)">
        <path id="Path_3289" data-name="Path 3289" d="M2252.9,2022.023h-5.52a64.075,64.075,0,0,0-32.037,8.584l-4.781,2.76a64.081,64.081,0,0,0-23.453,23.453l-2.759,4.78a64.07,64.07,0,0,0-8.585,32.038v5.52a64.068,64.068,0,0,0,8.585,32.038l2.759,4.78a64.08,64.08,0,0,0,23.453,23.453l4.781,2.76a64.078,64.078,0,0,0,32.037,8.584h5.52a64.078,64.078,0,0,0,32.037-8.584l4.781-2.76a64.067,64.067,0,0,0,23.452-23.453l2.761-4.78a64.078,64.078,0,0,0,8.584-32.038v-5.52a64.079,64.079,0,0,0-8.584-32.038l-2.761-4.78a64.068,64.068,0,0,0-23.452-23.453l-4.781-2.76A64.075,64.075,0,0,0,2252.9,2022.023Z" transform="translate(-2175.76 -2022.023)" fill="#019e96"/>
        <path id="Path_3288" data-name="Path 3288" d="M2266.09,2026.421h-5.52a64.07,64.07,0,0,0-32.037,8.585l-4.781,2.759a64.087,64.087,0,0,0-23.453,23.453l-2.76,4.781a64.076,64.076,0,0,0-8.584,32.038v5.52a64.082,64.082,0,0,0,8.584,32.038l2.76,4.78a64.08,64.08,0,0,0,23.453,23.453l4.781,2.76a64.075,64.075,0,0,0,32.037,8.585h5.52a64.08,64.08,0,0,0,32.038-8.585l4.78-2.76a64.083,64.083,0,0,0,23.453-23.453l2.76-4.78a64.077,64.077,0,0,0,8.584-32.038v-5.52a64.071,64.071,0,0,0-8.584-32.038l-2.76-4.781a64.09,64.09,0,0,0-23.453-23.453l-4.78-2.759A64.075,64.075,0,0,0,2266.09,2026.421Z" transform="translate(-2181.298 -2023.869)" fill="#ffc517"/>
        <ellipse id="Ellipse_320" data-name="Ellipse 320" cx="57.689" cy="57.689" rx="57.689" ry="57.689" transform="translate(24.344 19.239)" fill="#fff"/>
        <path id="Path_3291" data-name="Path 3291" d="M2244.344,2073.174a57.7,57.7,0,0,1,98.951,30.4" transform="translate(-2204.542 -2035.883)" fill="none" stroke="#313131" stroke-linecap="round" stroke-miterlimit="10" stroke-width="1.5"/>
        <path id="Path_3290" data-name="Path 3290" d="M2344.473,2184.016a57.7,57.7,0,0,1-92.87,26.449" transform="translate(-2207.588 -2090.006)" fill="none" stroke="#313131" stroke-linecap="round" stroke-miterlimit="10" stroke-width="1.5"/>
      </g>
      <circle id="Ellipse_486" data-name="Ellipse 486" cx="49.5" cy="49.5" r="49.5" transform="translate(431 2895)" fill="#fec739"/>
    </g>
    <path id="Path_4154" data-name="Path 4154" d="M746.084,2394s21.8-16.19,27.2-19.48" transform="translate(-8175 -12429.977)" fill="none" stroke="#313131" stroke-linecap="round" stroke-width="2"/>
  </g>
</svg>
