<svg xmlns="http://www.w3.org/2000/svg" width="568.37" height="518.374" viewBox="0 0 568.37 518.374">
  <g id="Group_3303" data-name="Group 3303" transform="translate(7805.292 11289.082)">
    <g id="Group_2807" data-name="Group 2807" transform="translate(-7805.292 -11289.082)">
      <path id="Path_2232" data-name="Path 2232" d="M1853.588,223.115a35.924,35.924,0,0,1,23.436-7.955,42.268,42.268,0,0,1,35.206,20.919c4.46,7.527,3.114,10.877,8.224,28.59a228.759,228.759,0,0,0,10.438,28.761,114.9,114.9,0,0,1-47.869,8.674c-.31-7.935-.384-15.515-1.132-23.755a28.964,28.964,0,0,0,19.132-19.316,39.711,39.711,0,0,1-21.082-14.161,38.234,38.234,0,0,1-6.784-15.106c-1.808.3-13.753,2.426-19.077,12.448a26.783,26.783,0,0,0,10.974,34.67l20.269-.516c-1.805,7.145-5.718,31.2-26.567,21.752a118.9,118.9,0,0,1-43.415-22.756,69.311,69.311,0,0,0,19.763-19.316C1844.788,241.671,1843.474,231.732,1853.588,223.115Z" transform="translate(-1668.252 -120.682)" fill="#313131"/>
      <path id="Path_4083" data-name="Path 4083" d="M2209.6,293.345c0,15.913-17.25,40.739-34.752,37.609-35.639-6.375-34.088-23.434-31.86-40.108,2.108-15.773,16.641-26.314,34.42-26.314S2209.6,277.432,2209.6,293.345Z" transform="translate(-1780.54 -137.657)" fill="#313131"/>
      <rect id="Rectangle_1425" data-name="Rectangle 1425" width="26.368" height="67.108" rx="12.043" transform="translate(393.656 228.625) rotate(-173.074)" fill="#ffc517"/>
      <path id="Path_4084" data-name="Path 4084" d="M2157.431,316.613h-.01l.623-5.129a11.325,11.325,0,0,1-3.193-1.122c-4.093-2.158-6.171-6.259-4.641-9.161,1.436-2.725,5.542-3.422,9.427-1.71a27.015,27.015,0,0,1,53.175,9.189l-1.756,14.449-.01,0c-.014.129-.021.258-.037.387A27.015,27.015,0,1,1,2157.374,317C2157.39,316.868,2157.414,316.742,2157.431,316.613Z" transform="translate(-1783.189 -142.425)" fill="#ffc517"/>
      <circle id="Ellipse_551" data-name="Ellipse 551" cx="3.153" cy="3.153" r="3.153" transform="translate(417.421 167.94)" fill="#313131"/>
      <circle id="Ellipse_552" data-name="Ellipse 552" cx="3.153" cy="3.153" r="3.153" transform="translate(398.94 165.696)" fill="#313131"/>
      <path id="Path_4085" data-name="Path 4085" d="M2215.667,328.632l.02,12.03,0,1.7,1.437-1.125-3.133-.222c-1.65-.117-1.971,2.443-.312,2.561l3.134.222a1.3,1.3,0,0,0,1.436-1.125l-.019-12.03,0-1.7a1.331,1.331,0,0,0-1.125-1.435,1.3,1.3,0,0,0-1.436,1.125Z" transform="translate(-1804.803 -159.302)" fill="#313131"/>
      <path id="Path_4086" data-name="Path 4086" d="M2208.685,359.375l-.068,0c-.264.008.39,0,.153,0-.2,0-.394,0-.591-.011a14.017,14.017,0,0,1-1.967-.215q-.294-.053-.584-.122c-.143-.034-.232-.127.018.007a1.863,1.863,0,0,0-.316-.091,7.942,7.942,0,0,1-1.121-.436c-.087-.043-.171-.088-.258-.133-.2-.105.244.155-.063-.043a4.715,4.715,0,0,1-.462-.335c-.033-.028-.208-.219-.242-.215.067-.008.2.216.011,0q-.108-.122-.2-.252c-.049-.065-.251-.389-.057-.059a1.324,1.324,0,0,0-1.7-.672,1.3,1.3,0,0,0-.672,1.7c1.687,2.849,5.412,3.567,8.5,3.435a1.294,1.294,0,0,0,1.085-1.466,1.327,1.327,0,0,0-1.467-1.085Z" transform="translate(-1800.628 -169.333)" fill="#313131"/>
      <path id="Path_4087" data-name="Path 4087" d="M2217.478,297.575s-13.292,5.092-23.281-4.946c-4.8-4.828-14.189-2.58-15.995,4.127-.9,3.354-4.256,3.586-7.386,2.979a27.018,27.018,0,0,1-6.032-2.051s-2.944-26.6,22.493-24.4C2217.921,275.928,2217.478,297.575,2217.478,297.575Z" transform="translate(-1788.336 -140.62)" fill="#313131"/>
      <path id="Path_2718" data-name="Path 2718" d="M2193.2,390.071c1.63.3,3.26.621,4.9.958a126.894,126.894,0,0,1-3.8,16.69c-2.773-3.177-5.48-6.438-8.556-9.329l7.445-8.5Z" transform="translate(-1795.58 -180.747)" fill="#fff"/>
      <path id="Path_2719" data-name="Path 2719" d="M2152.992,382.893a75.2,75.2,0,0,0,12.757,13.245c-4.438,2.907-10,6.858-15.093,10.925-.892-7.949-1.865-15.832-2.874-23.716,1.646.117,3.277.27,4.9.421C2152.791,383.482,2152.891,383.178,2152.992,382.893Z" transform="translate(-1782.528 -178.343)" fill="#fff"/>
      <path id="Path_2720" data-name="Path 2720" d="M2148.623,470.126c-12.12,30.742-19.732,45.246-30.237,83.8h-.018c-.1-.589-.2-1.142-.3-1.7-47.146-2.135-75.1-9.968-107.367-23.6a69.215,69.215,0,0,1,1.765-13.513c7.63-32.893,15.194-42.743,29.025-79.35-9.781,8.387-19.089,16.053-29.329,24.22-9.429-8.69-18.943-17.546-26.807-27.514a259.046,259.046,0,0,1,46.087-44.1,29.4,29.4,0,0,1,16.018-5.78,334.065,334.065,0,0,1,44.483.471c1.009,7.881,1.982,15.762,2.874,23.716,5.093-4.066,10.655-8.017,15.093-10.925,1.26,1.042,2.588,2.118,4.018,3.226l2.94-3.378c3.078,2.891,5.779,6.15,8.555,9.327a126.934,126.934,0,0,0,3.8-16.69c6.539,1.31,13.161,2.841,19.951,4.589a29.549,29.549,0,0,1,19.964,17.5,628.1,628.1,0,0,1,26.555,78.984,283.063,283.063,0,0,0-32.842,13.464c-4.856-10.387-9.312-21.015-13.7-32.523Z" transform="translate(-1726.694 -178.061)" fill="#ff8e9e"/>
      <path id="Path_2721" data-name="Path 2721" d="M2432.1,532.416a2.451,2.451,0,0,1,2.092,2.765,2.338,2.338,0,0,1-.06.3l-7.612,27.479c-7.479,2.627-14.993,5.161-22.472,7.933q.428,5.9.536,11.8h-1.209c-3.646,0-7.293-.051-10.959-.252a2.415,2.415,0,0,1-2.242-2.577,2.387,2.387,0,0,1,.176-.751l.3-.724,19.043-46.12a2.413,2.413,0,0,1,2.338-1.5C2418.7,531.089,2425.412,531.611,2432.1,532.416Z" transform="translate(-1865.846 -229.174)" fill="#313131"/>
      <path id="Path_2722" data-name="Path 2722" d="M2433.788,578.892l4.991-1.764a163.779,163.779,0,0,1-8.555,27.951c-6.471,1.927-12.639,3.63-18.564,5.079.151-2.79.219-5.581.219-8.371,0-1.051-.018-2.1-.033-3.153q-.1-5.9-.539-11.8C2418.8,584.05,2426.308,581.516,2433.788,578.892Z" transform="translate(-1873.113 -245.11)" fill="#fec739"/>
      <path id="Path_2723" data-name="Path 2723" d="M2358.411,587.795c.018,1.051.033,2.1.033,3.153,0,2.79-.066,5.581-.219,8.371v.017c-23.75,5.866-43.667,7.916-64.473,6.15a26.682,26.682,0,0,1-21.092-13.613c-6.253-11.227-11.748-21.891-16.826-32.791a283.1,283.1,0,0,1,32.842-13.462c2,7.445,3.967,15.236,5.955,23.5a266.952,266.952,0,0,1,49.851,14.369l-.3.724a2.414,2.414,0,0,0,2.067,3.327c3.664.2,7.312.252,10.957.252Z" transform="translate(-1819.67 -234.28)" fill="#fec739"/>
      <path id="Path_2727" data-name="Path 2727" d="M1959.585,458.882c7.865,9.967,17.378,18.825,26.807,27.515-5.546,4.4-11.383,8.958-17.7,13.835-6.336,60.642-16.5,93.752-37.884,123.7A48.477,48.477,0,0,1,1917.9,635.8c-1.6.941-3.177,1.882-4.757,2.823a157,157,0,0,0-2.757-19.717,99.01,99.01,0,0,0,14.874-10.807c3.363-39.33,6.741-72.221,11.429-110.24a39.065,39.065,0,0,1,6.79-17.714C1948.861,472.479,1954.189,465.437,1959.585,458.882Z" transform="translate(-1700.924 -204.464)" fill="#ff8e9e"/>
      <g id="Group_2042" data-name="Group 2042" transform="translate(407.125 210.316)">
        <path id="Path_2729" data-name="Path 2729" d="M2272,488.471a1.163,1.163,0,0,1-1.121-.856,623.154,623.154,0,0,0-25.053-73.446,28.483,28.483,0,0,0-19.18-16.813c-4.828-1.243-9.59-2.378-14.15-3.372a1.165,1.165,0,0,1,.5-2.277h0c4.588,1,9.378,2.142,14.237,3.392a30.821,30.821,0,0,1,20.754,18.187,625.192,625.192,0,0,1,25.142,73.707,1.162,1.162,0,0,1-.814,1.429h0A1.127,1.127,0,0,1,2272,488.471Z" transform="translate(-2211.583 -391.679)" fill="#313131"/>
      </g>
      <g id="Group_2043" data-name="Group 2043" transform="translate(364.09 203.823)">
        <path id="Path_2730" data-name="Path 2730" d="M2150.044,407.845a1.166,1.166,0,0,1-1.156-1.035c-.78-6.967-1.667-14.275-2.872-23.7-.005-.055-.009-.11-.009-.165a1.163,1.163,0,1,1,2.326,0c1.081,8.387,1.908,15.159,2.627,21.525,4.25-3.31,9.088-6.778,13.536-9.69a1.164,1.164,0,0,1,1.274,1.948h0c-4.973,3.26-10.443,7.217-15,10.858A1.161,1.161,0,0,1,2150.044,407.845Z" transform="translate(-2146.007 -381.786)" fill="#313131"/>
      </g>
      <g id="Group_2044" data-name="Group 2044" transform="translate(389.024 209.108)">
        <path id="Path_2731" data-name="Path 2731" d="M2193.713,408.865a1.164,1.164,0,0,1-.875-.4l-1.4-1.622a101.757,101.757,0,0,0-7.069-7.623,1.164,1.164,0,0,1,1.594-1.7,103.785,103.785,0,0,1,7.233,7.795,127.343,127.343,0,0,0,3.173-14.483,1.169,1.169,0,0,1,1.151-1,1.156,1.156,0,0,1,1.163,1.149v.005a1.285,1.285,0,0,1-.016.212,126.085,126.085,0,0,1-3.835,16.842,1.162,1.162,0,0,1-1.11.816Z" transform="translate(-2184.002 -389.838)" fill="#313131"/>
      </g>
      <g id="Group_2045" data-name="Group 2045" transform="translate(259.831 202.849)">
        <path id="Path_2732" data-name="Path 2732" d="M1988.3,430.224a1.163,1.163,0,0,1-.89-1.912,259.971,259.971,0,0,1,43.941-41.474,30.438,30.438,0,0,1,16.652-6.013,339.911,339.911,0,0,1,40.341.156,1.165,1.165,0,0,1,1.084,1.238,1.181,1.181,0,0,1-1.238,1.084,336.911,336.911,0,0,0-40.063-.156,28.105,28.105,0,0,0-15.379,5.551,257.634,257.634,0,0,0-43.559,41.114A1.16,1.16,0,0,1,1988.3,430.224Z" transform="translate(-1987.138 -380.301)" fill="#313131"/>
      </g>
      <path id="Path_2733" data-name="Path 2733" d="M1651.23,230.766l-6.84,4.27c.957,8.891,2.167,17.38,3.677,25.569l4.5-4.589,7.58-7.748.5-23.4Z" transform="translate(-1609.489 -124.025)" fill="#fec739"/>
      <path id="Path_2734" data-name="Path 2734" d="M1654.493,272.324l-4.5,4.589c6.48,35.211,18.563,64.709,40.944,95.181,3.832,5.21,10.943,6.79,17.093,4.841,13.38-4.27,26.3-7.968,39.917-11.414a156.2,156.2,0,0,1-6.269-34.388c-10.405,3.245-21.3,6.908-33.4,10.891a5.213,5.213,0,0,1-5.954-2.033l-41.7-59.019h-3.312a2.478,2.478,0,0,1-2.487-2.353Z" transform="translate(-1611.414 -140.336)" fill="#fec739"/>
      <path id="Path_2735" data-name="Path 2735" d="M1913.073,415.6c3.514,5.85,6.942,11.261,10.455,16.462a85.5,85.5,0,0,1,29.4-13.63c-4.992-11.816-10.118-23.362-15.48-34.22-13.33-27.094-32.608-38.338-54.355-42.121-2.4,8.406-4.186,16.756-5.967,25.329a40.614,40.614,0,0,0-3.546-2.741c-3.883-2.588-6.774-4.858-10.656-7.11-.151-.085-.3-.176-.436-.253-2.018,1.462-3.832,2.721-5.312,3.664-1.276-1.6-2.555-3.194-3.816-4.79-4.4,1.849-8.606,3.966-12.784,6.151.488-5.5.69-11.009.69-16.506q0-2.343-.051-4.688c-24.707,1.733-44.674,6.691-66.928,13.648a156.224,156.224,0,0,0,6.27,34.388c11.9-3.009,24.3-5.834,37.968-8.69a101.816,101.816,0,0,0-5.462,17.261c-6.32,28.774,2.555,49.6,4.789,65.214,3.781,26.488-6.942,64.91-73.011,121.216,21.512-4.117,54.054-4.05,88.473-.235,12.27,1.379,24.774,3.211,37.095,5.513a403.63,403.63,0,0,1,51.8,13.026c6.117-18.993,11.48-42.959,11.48-63.18,0-51.3-22.522-69.734-22.522-105.685A86.649,86.649,0,0,1,1913.073,415.6Z" transform="translate(-1644.018 -163.993)" fill="#019e96"/>
      <path id="Path_2737" data-name="Path 2737" d="M1891.347,340.362q.051,2.345.052,4.69c0,5.5-.2,11.009-.691,16.5,4.186-2.186,44.782-7.289,49.18-9.136,8.516-14.658-34-15.024-48.244-12.091C1891.549,340.346,1891.449,340.346,1891.347,340.362Z" transform="translate(-1694.16 -163.213)" fill="#019e96"/>
      <path id="Path_2740" data-name="Path 2740" d="M1924.106,357.777c.135.085.286.176.438.253,3.883,2.252,6.774,4.522,10.656,7.111a40.389,40.389,0,0,1,3.547,2.74c1.781-8.573,3.563-16.926,5.966-25.329-.135-.018-.285-.051-.42-.067C1938.644,346.845,1930.409,353.232,1924.106,357.777Z" transform="translate(-1705.64 -164.453)" fill="#019e96"/>
      <path id="Path_2741" data-name="Path 2741" d="M2017.129,472.529a368.062,368.062,0,0,0,22.506,29.833c14.438,36.943,25.615,57.313,47.11,87.4-3.06,2.4-4.691,6.051-6.48,10.32a11.918,11.918,0,0,0,5.254,2.152c3.108,0,3.867-3.732,7.681-3.732,5.364,0,10.27,7.479,19.312,7.479a38.152,38.152,0,0,0,9.144-1.412c-5.009-4.9-10.118-15.076-20.236-17.338-18.388-31.933-35.481-82.29-54.892-128.341A85.482,85.482,0,0,0,2017.129,472.529Z" transform="translate(-1737.616 -204.467)" fill="#ff8e9e"/>
      <g id="Group_2048" data-name="Group 2048" transform="translate(217.271 176.924)">
        <path id="Path_2743" data-name="Path 2743" d="M1938.117,368.454a1.166,1.166,0,0,0,1.141-.927c1.852-8.914,3.577-16.968,5.954-25.246a1.164,1.164,0,1,0-2.238-.639h0c-2.221,7.765-3.878,15.306-5.594,23.529-.692-.55-1.4-1.084-2.154-1.587-1.331-.888-2.545-1.737-3.722-2.562-2.268-1.587-4.41-3.086-7-4.587-.156-.086-.286-.158-.4-.231a1.163,1.163,0,1,0-1.315,1.918c.029.02.059.039.089.056.153.094.322.191.492.284,2.476,1.438,4.579,2.909,6.8,4.467,1.191.834,2.42,1.694,3.767,2.592a39.483,39.483,0,0,1,3.445,2.664A1.162,1.162,0,0,0,1938.117,368.454Z" transform="translate(-1922.285 -340.797)" fill="#fff"/>
      </g>
      <g id="Group_2049" data-name="Group 2049" transform="translate(195.387 175.985)">
        <path id="Path_2744" data-name="Path 2744" d="M1890.1,362.887a1.161,1.161,0,0,0,.538-.131c3.947-2.059,8.217-4.228,12.7-6.11a1.164,1.164,0,1,0-.9-2.145h0c-3.853,1.62-7.546,3.437-11.009,5.223.351-4.613.526-9.38.526-14.5q0-2.356-.051-4.714a1.133,1.133,0,0,0-1.126-1.139h-.063a1.165,1.165,0,0,0-1.138,1.189q.049,2.333.051,4.664c0,5.837-.224,11.208-.684,16.4a1.163,1.163,0,0,0,1.055,1.261c.034,0,.069,0,.1,0Z" transform="translate(-1888.938 -339.366)" fill="#fff"/>
      </g>
      <g id="Group_2050" data-name="Group 2050" transform="translate(165.371 195.34)">
        <path id="Path_2745" data-name="Path 2745" d="M1844.355,591.763a1.16,1.16,0,0,0,.811-.329c46.584-45.323,43.194-103.633,40.205-155.079l-.293-5.045c-2.231-39.019,7.74-60.576,7.842-60.788a1.163,1.163,0,0,0-2.1-1c-.422.893-10.333,22.311-8.056,61.918l.293,5.047c2.961,50.947,6.317,108.692-39.5,153.275a1.163,1.163,0,0,0,.811,2Z" transform="translate(-1843.2 -368.86)" fill="#fff"/>
      </g>
      <g id="Group_2051" data-name="Group 2051" transform="translate(40.012 89.018)">
        <path id="Path_2746" data-name="Path 2746" d="M1658.069,259.635h10.588a3.655,3.655,0,0,0,3.651-3.65V210.5a3.655,3.655,0,0,0-4.63-3.525l-12.826,3.548a3.637,3.637,0,0,0-2.667,3.709l.238,4.485a1.164,1.164,0,0,0,2.324-.124l-.24-4.489a1.308,1.308,0,0,1,.956-1.336l12.832-3.548a1.334,1.334,0,0,1,1.167.226,1.316,1.316,0,0,1,.525,1.051v45.481a1.325,1.325,0,0,1-1.324,1.324h-10.588a1.321,1.321,0,0,1-1.326-1.248l-.175-3.237a1.164,1.164,0,1,0-2.324.125h0l.175,3.233A3.647,3.647,0,0,0,1658.069,259.635Z" transform="translate(-1652.179 -206.846)" fill="#313131"/>
      </g>
      <g id="Group_2066" data-name="Group 2066" transform="translate(78.418 198.729)">
        <path id="Path_2749" data-name="Path 2749" d="M1971.69,596.011" transform="translate(-1800.415 -450.33)" fill="#fff"/>
        <path id="Path_2750" data-name="Path 2750" d="M1969.315,639.032" transform="translate(-1799.599 -465.119)" fill="#fff"/>
        <path id="Path_2751" data-name="Path 2751" d="M2038.555,603.624c-.158-3.853-.375-7.634-.633-11.423,11.147-.671,22.242-.769,30.483-.526q7.006.207,13.969.709a227.228,227.228,0,0,0-13.615-71.561,68.544,68.544,0,0,0-45.437-43.169q-9.678-2.753-19.238-4.538c-1.656,24.5-18.467,43.623-48.416,42.755-23.44-.651-37.94-18.092-45.793-38.335-25.63,7.023-51.2,18.564-77.145,33.875v.019a136.445,136.445,0,0,0,18.625,45.38c13.613-5.8,27.208-12.114,42.776-19.73,4.872,41.611,2.229,71.461-8.485,103.9a353.69,353.69,0,0,0,49.089,27.227,124.2,124.2,0,0,0,53.271,11.109c5.979-.079,12.529-.119,19.73-.119,6.017,0,12.056.06,18.073.176,2.033-8.859,3.571-17.895,4.933-26.97" transform="translate(-1752.648 -408.086)" fill="#fff"/>
        <path id="Path_2752" data-name="Path 2752" d="M1950.283,469.139c7.853,20.244,22.354,37.685,45.792,38.336,29.947.875,46.759-18.25,48.416-42.754-4.518-.847-9.036-1.539-13.515-2.092v.02l-.175-.041c.06,0,.119.02.175.02-1.066-4.478-1.895-9.282-2.544-13.93a37.037,37.037,0,0,1-2.941,5.683c-5.8,9.273-15.469,16.16-25.432,16.356a25.611,25.611,0,0,1-18.527-7.892A223.687,223.687,0,0,0,1950.283,469.139Z" transform="translate(-1793.057 -399.692)" fill="#fec739"/>
        <path id="Path_2755" data-name="Path 2755" d="M1714.063,634.245c-4.872,29.022-4.2,55.166.435,87.857,1.145,8.056,2.525,16.493,4.125,25.49,1.952-11.384,5.5-22.669,12.39-22.473a89.442,89.442,0,0,1,13.751,2.544c-2.132-8.7-6.867-16.434-12.075-23.616,2.566-7.043,4.873-13.475,6.905-19.494v-.019c9.924-29.2,14.126-48.774,16.672-80.439a11.7,11.7,0,0,1,7.577-10.18c.749-.277,1.5-.526,2.249-.809,15.784-5.643,29.5-10.989,43.188-16.83a136.47,136.47,0,0,1-18.625-45.38,579.611,579.611,0,0,0-56.7,38.591,12.687,12.687,0,0,0-4.261,5.979A375.3,375.3,0,0,0,1714.063,634.245Z" transform="translate(-1710.702 -427.947)" fill="#fec739"/>
        <path id="Path_2756" data-name="Path 2756" d="M2003.617,630.258l2.685-33.744s.331-8.948-5.429-10.121a124.019,124.019,0,0,0-23.632-2.17c-3.677,1.9-6.305,3.8-6.96,9.48s-1.681,18.684-1.793,28.056a31.335,31.335,0,0,0,25.493,16.429C1998.091,636.867,2003.617,630.258,2003.617,630.258Z" transform="translate(-1799.314 -446.278)" fill="#ff8e9e"/>
        <path id="Path_2757" data-name="Path 2757" d="M1967.392,637.306c-1.165-.75-2.276-1.48-3.3-2.172,1.926,13.889,5.6,29.3,17.421,35.927,36.579,20.578,64.991,31.507,94.25,36.639a265.266,265.266,0,0,0,38.928,3.709,9.658,9.658,0,0,0,9.609-8.662,352.9,352.9,0,0,0,3.1-55.066q-6.954-.5-13.968-.711c-8.247-.237-19.334-.138-30.483.525.256,3.789.473,7.577.63,11.424a5.506,5.506,0,0,1-6.058,5.839,303.207,303.207,0,0,0-60.2-1.836,80.4,80.4,0,0,0-14.976-19.2c-.435-.434-.888-.876-1.341-1.3,0,.453,0,.907-.02,1.363-.157,5.485-.711,8.483-5.779,8.344C1990.554,652.023,1977.078,643.677,1967.392,637.306Z" transform="translate(-1797.805 -463.779)" fill="#fec739"/>
        <g id="Group_2055" data-name="Group 2055" transform="translate(168.435 136.44)">
          <path id="Path_2758" data-name="Path 2758" d="M2003.786,623.055a1.364,1.364,0,0,0,1.358-1.254l2.218-27a10.041,10.041,0,0,0-8.756-11.033c-6.1-.65-12.447-1.246-19.411-1.82a10.02,10.02,0,0,0-10.479,8.632,6.842,6.842,0,0,0-.111.963c-.324,5.326-.592,10.623-.862,15.937l-.375,7.3a1.366,1.366,0,1,0,2.722.233c0-.03,0-.059.005-.089l.374-7.308c.268-5.31.538-10.6.858-15.909a4.583,4.583,0,0,1,.072-.646,7.294,7.294,0,0,1,7.571-6.4c6.941.57,13.268,1.164,19.34,1.812a7.416,7.416,0,0,1,6.32,8.1l-2.217,27a1.367,1.367,0,0,0,1.249,1.474Z" transform="translate(-1967.362 -581.929)" fill="#313131"/>
        </g>
        <g id="Group_2056" data-name="Group 2056" transform="translate(169.733 143.507)">
          <path id="Path_2759" data-name="Path 2759" d="M2006.444,602.634a1.363,1.363,0,0,0,1.132-2.126c-4.747-7.081-16-7.291-21.41-7.39l-.975-.019c-1.61-.06-3.214-.1-4.836-.138-2.154-.058-4.312-.136-6.45-.256h-.192a9.731,9.731,0,0,0-3.393.485,1.366,1.366,0,0,0,.771,2.621c.031-.009.062-.02.092-.031a6.979,6.979,0,0,1,2.478-.35c2.256.117,4.438.2,6.621.257,1.615.039,3.209.077,4.822.138l1.011.021c4.945.091,15.236.284,19.194,6.181A1.365,1.365,0,0,0,2006.444,602.634Z" transform="translate(-1969.34 -592.698)" fill="#313131"/>
        </g>
        <g id="Group_2058" data-name="Group 2058" transform="translate(102.92 127.624)">
          <path id="Path_2761" data-name="Path 2761" d="M1898.9,671.115a1.365,1.365,0,0,0,1.3-.96c9.807-31.5,11.908-60.607,7.25-100.453a1.368,1.368,0,0,0-1.957-1.068c-14.055,6.878-25.845,12.368-37.1,17.282a1.366,1.366,0,0,0,1.016,2.536q.04-.016.077-.033c10.828-4.728,22.142-9.982,35.475-16.483,4.329,38.456,2.171,66.8-7.365,97.4a1.366,1.366,0,0,0,.894,1.71,1.385,1.385,0,0,0,.41.062Z" transform="translate(-1867.532 -568.496)" fill="#313131"/>
        </g>
        <g id="Group_2059" data-name="Group 2059" transform="translate(82.999 70.332)">
          <path id="Path_2762" data-name="Path 2762" d="M1838.544,513.052a1.374,1.374,0,0,0,.679-.175,318.777,318.777,0,0,1,64.9-29.019,1.366,1.366,0,0,0-.807-2.609,321.505,321.505,0,0,0-65.455,29.259,1.366,1.366,0,0,0,.683,2.55Z" transform="translate(-1837.176 -481.195)" fill="#313131"/>
        </g>
        <g id="Group_2060" data-name="Group 2060" transform="translate(277.55 130.118)">
          <path id="Path_2763" data-name="Path 2763" d="M2141.014,623.009h.108a1.366,1.366,0,0,0,1.254-1.47c-1.1-13.914-2.955-28.735-6.025-48.054a1.366,1.366,0,0,0-2.709.357c0,.024.007.049.012.073,3.058,19.247,4.9,34,6,47.842A1.365,1.365,0,0,0,2141.014,623.009Z" transform="translate(-2133.631 -572.297)" fill="#313131"/>
        </g>
        <g id="Group_2061" data-name="Group 2061" transform="translate(256.608 64.979)">
          <path id="Path_2764" data-name="Path 2764" d="M2174.613,588.342a1.381,1.381,0,0,0,1.366-1.394c0-.015,0-.028,0-.042a226.871,226.871,0,0,0-13.469-66.584,70.015,70.015,0,0,0-46.35-44.022c-4.276-1.215-8.566-2.3-12.748-3.222a1.366,1.366,0,0,0-.65,2.653l.061.014c4.128.91,8.365,1.981,12.589,3.182a67.277,67.277,0,0,1,44.525,42.317,224.2,224.2,0,0,1,13.311,65.8A1.366,1.366,0,0,0,2174.613,588.342Z" transform="translate(-2101.72 -473.038)" fill="#313131"/>
        </g>
        <g id="Group_2057" data-name="Group 2057" transform="translate(191.556 65.03)">
          <path id="Path_2760" data-name="Path 2760" d="M2018.185,478.8h.552a30.294,30.294,0,0,0,19.2-8.251,1.366,1.366,0,1,0-1.819-2.038,27.59,27.59,0,0,1-17.443,7.559,22.456,22.456,0,0,1-12.055-3.25,1.366,1.366,0,1,0-1.464,2.306c.025.016.051.031.077.046A25.224,25.224,0,0,0,2018.185,478.8Z" transform="translate(-2004.526 -468.16)" fill="#313131"/>
        </g>
      </g>
      <g id="Group_2070" data-name="Group 2070" transform="translate(0 306.197)">
        <path id="Path_2770" data-name="Path 2770" d="M1620.782,549.493a18.243,18.243,0,0,1-10.96-4.093c-2.385-1.627-4.445-3.033-7.315-3.033a10.964,10.964,0,0,0-8.5,4.9,1.552,1.552,0,0,1-2.525-1.8,14.1,14.1,0,0,1,11.033-6.2,15.485,15.485,0,0,1,9.065,3.573,15.262,15.262,0,0,0,9.21,3.552,12.1,12.1,0,0,0,9.581-4.331c2.187-2.1,4.45-4.282,8.8-4.282,3.41,0,6.323,2.053,9.138,4.038,2.938,2.073,5.979,4.214,9.676,4.214,2.443,0,4.8-1.643,7.3-3.383a20.714,20.714,0,0,1,7.948-3.988,1.552,1.552,0,0,1,.633,3.039l-.09.016a18.206,18.206,0,0,0-6.718,3.48c-2.781,1.937-5.657,3.94-9.074,3.94-4.679,0-8.283-2.539-11.462-4.781-2.642-1.864-4.924-3.471-7.355-3.471-3.1,0-4.662,1.508-6.646,3.415A15.181,15.181,0,0,1,1620.782,549.493Z" transform="translate(-1591.209 -537.783)" fill="#019e96"/>
      </g>
      <g id="Group_2071" data-name="Group 2071" transform="translate(491.434 205.442)">
        <path id="Path_2771" data-name="Path 2771" d="M2364.7,430.842a1.55,1.55,0,0,1-1.038-.4l-6.064-5.45c-5.628-5.05-11.448-10.273-17.051-15.459a1.551,1.551,0,0,1-.087-2.19,1.5,1.5,0,0,1,.12-.116q5.548-4.851,11.033-9.7c4.872-4.3,9.742-8.6,14.691-12.895a1.554,1.554,0,0,1,2.141.1q6.351,6.666,12.623,13.408,4.632,4.955,9.282,9.89a1.552,1.552,0,0,1-.058,2.194c-.031.029-.062.056-.095.083-8.056,6.5-16.372,13.228-24.487,20.165A1.552,1.552,0,0,1,2364.7,430.842Zm-20.779-22.417c5.192,4.783,10.553,9.594,15.75,14.258l5.057,4.543c7.38-6.278,14.9-12.371,22.215-18.283q-4.081-4.331-8.144-8.683-5.78-6.173-11.58-12.313c-4.553,3.968-9.056,7.937-13.554,11.909q-4.861,4.294-9.743,8.581Z" transform="translate(-2340.053 -384.252)" fill="#019e96"/>
      </g>
      <g id="Group_2072" data-name="Group 2072" transform="translate(377.216 0)">
        <path id="Path_2772" data-name="Path 2772" d="M2080.1,154.883a10.817,10.817,0,0,0-3.439-.568c-6.782,0-12.354,6.517-12.354,12.662a10.837,10.837,0,0,0,10.894,10.777q.223,0,.445-.012a13.09,13.09,0,0,0,13.538-12.243,14.957,14.957,0,0,0-3.827-7.989A11.278,11.278,0,0,0,2080.1,154.883Z" transform="translate(-2064.304 -154.315)" fill="#019e96"/>
      </g>
      <g id="Group_2073" data-name="Group 2073" transform="translate(162.043 0.001)">
        <path id="Path_2773" data-name="Path 2773" d="M1797.112,218.427a1.55,1.55,0,0,1-1.331-.753c-3.753-6.257-8.231-12.643-12.548-18.816-1.5-2.147-3-4.294-4.484-6.439a1.55,1.55,0,0,1,2.471-1.873,1.427,1.427,0,0,1,.083.121c1.473,2.14,2.978,4.279,4.47,6.42,4.354,6.219,8.856,12.65,12.667,19a1.552,1.552,0,0,1-1.33,2.35Z" transform="translate(-1778.434 -189.932)" fill="#fec739"/>
      </g>
      <rect id="Rectangle_1426" data-name="Rectangle 1426" width="24.059" height="61.231" rx="12.029" transform="matrix(0.997, 0.072, -0.072, 0.997, 207.755, 131.995)" fill="#fec739"/>
      <circle id="Ellipse_553" data-name="Ellipse 553" cx="24.649" cy="24.649" r="24.649" transform="translate(181.988 108.046)" fill="#fec739"/>
      <circle id="Ellipse_554" data-name="Ellipse 554" cx="24.649" cy="24.649" r="24.649" transform="translate(181 121.645)" fill="#fec739"/>
      <rect id="Rectangle_1427" data-name="Rectangle 1427" width="13.28" height="49.297" transform="matrix(0.072, -0.997, 0.997, 0.072, 181.091, 144.156)" fill="#fec739"/>
      <circle id="Ellipse_555" data-name="Ellipse 555" cx="2.877" cy="2.877" r="2.877" transform="translate(186.428 133.954)" fill="#313131"/>
      <circle id="Ellipse_556" data-name="Ellipse 556" cx="2.877" cy="2.877" r="2.877" transform="translate(203.37 135.184)" fill="#313131"/>
      <path id="Path_4088" data-name="Path 4088" d="M1890.881,279.229,1888.755,290l-.3,1.523-1.089-1.259,2.845.35c1.5.184,1.336,2.533-.171,2.347l-2.844-.35c-.572-.07-1.217-.608-1.089-1.259l2.126-10.769.3-1.522a1.214,1.214,0,0,1,1.259-1.089,1.185,1.185,0,0,1,1.089,1.259Z" transform="translate(-1692.572 -142.275)" fill="#313131"/>
      <path id="Path_4090" data-name="Path 4090" d="M1890.864,308.266l.06.014c.235.054-.349-.068-.137-.028.177.033.354.066.532.093a12.79,12.79,0,0,0,1.8.152c.182,0,.364,0,.545-.007.134-.005.23-.072-.019,0a1.753,1.753,0,0,1,.3-.026,7.113,7.113,0,0,0,1.08-.194c.085-.022.169-.049.253-.074.2-.058-.245.1.065-.028a4.375,4.375,0,0,0,.472-.219c.035-.019.225-.16.255-.15-.058-.019-.219.157-.009,0,.079-.06.155-.123.227-.19.054-.05.293-.3.06-.043a1.21,1.21,0,0,1,1.637-.3,1.189,1.189,0,0,1,.3,1.637c-2.01,2.256-5.472,2.245-8.213,1.586a1.182,1.182,0,0,1-.715-1.5,1.211,1.211,0,0,1,1.5-.715Z" transform="translate(-1693.673 -152.274)" fill="#313131"/>
      <g id="Group_3023" data-name="Group 3023">
        <path id="Path_2753" data-name="Path 2753" d="M1981.91,426.581a41.6,41.6,0,0,0,12.177,29.942,29.708,29.708,0,0,0,21.494,9.157c11.56-.23,22.776-8.217,29.507-18.976-.824-16.5-3.364-24.516-7.21-33.993a128.8,128.8,0,0,1-31.568,3.135,112,112,0,0,1-22.248-2.883,50.645,50.645,0,0,0-2.152,13.614Z" transform="translate(-1731.553 -194.584)" fill="#fec739"/>
        <path id="Path_2754" data-name="Path 2754" d="M2049.176,430.878c.183-.457.366-.938.549-1.4a46.96,46.96,0,0,0,3.113-14.948c.526-19.2-7.909-40.114-31.977-40.493-20.012-.464-29.737,8.424-36.123,29.69a112.018,112.018,0,0,0,22.249,2.883,128.781,128.781,0,0,0,31.567-3.135c3.846,9.477,6.386,17.488,7.211,33.993A42.908,42.908,0,0,0,2049.176,430.878Z" transform="translate(-1732.228 -185.353)" fill="#313131"/>
        <g id="Group_2062" data-name="Group 2062" transform="translate(280.825 230.073)">
          <path id="Path_2765" data-name="Path 2765" d="M2021.927,437.222a9.55,9.55,0,0,1,9.476-8.821,17.779,17.779,0,0,1,2.719.231c5.251.813,7.6,5.661,7.6,10.115a9.248,9.248,0,0,1-8.484,9.479A11.176,11.176,0,0,1,2021.927,437.222Zm3.167,0a8.006,8.006,0,0,0,8.146,7.835,6.1,6.1,0,0,0,5.313-6.309c0-3.1-1.52-6.461-4.915-6.984a14.565,14.565,0,0,0-2.235-.2A6.365,6.365,0,0,0,2025.095,437.222Z" transform="translate(-2021.927 -428.401)" fill="#fff"/>
        </g>
        <g id="Group_2063" data-name="Group 2063" transform="translate(249.232 228.913)">
          <path id="Path_2766" data-name="Path 2766" d="M1980.433,435.312c0-2.641,1.16-4.647,4.006-6.924a7.417,7.417,0,0,1,4.267-1.482c.238-.021.476-.028.71-.028a10.374,10.374,0,0,1,9.753,10.9c0,3.928-2.823,7.89-9.131,7.89C1985.262,445.672,1980.433,442.471,1980.433,435.312Zm8.533-5.246a4.425,4.425,0,0,0-2.554.794c-2.6,2.081-2.818,3.341-2.818,4.449,0,5.3,3.331,7.194,6.448,7.194,4.395,0,5.963-2.439,5.963-4.721a7.315,7.315,0,0,0-6.593-7.735c-.141,0-.288.005-.437.018Z" transform="translate(-1980.433 -426.878)" fill="#fff"/>
        </g>
        <g id="Group_2064" data-name="Group 2064" transform="translate(263.229 230.874)">
          <path id="Path_2767" data-name="Path 2767" d="M2017.418,436.611a1.584,1.584,0,0,0,1.254-2.55,12.986,12.986,0,0,0-10.512-4.594,16.9,16.9,0,0,0-8.634,2.315,1.585,1.585,0,0,0,1.66,2.7,13.649,13.649,0,0,1,6.971-1.845,9.878,9.878,0,0,1,8,3.359A1.581,1.581,0,0,0,2017.418,436.611Z" transform="translate(-1998.817 -429.453)" fill="#fff"/>
        </g>
        <g id="Group_2065" data-name="Group 2065" transform="translate(296.547 218.904)">
          <path id="Path_2768" data-name="Path 2768" d="M2044.161,429.826a1.577,1.577,0,0,0,1.12-.466c2.359-2.356,4.247-4.345,5.824-6,4.76-5.01,6.238-6.457,8.652-6.457a7.207,7.207,0,0,1,5.2,2.526,1.583,1.583,0,1,0,2.384-2.085h0a10.306,10.306,0,0,0-7.583-3.608c-3.881,0-6.1,2.331-10.951,7.441-1.56,1.642-3.432,3.611-5.766,5.947a1.585,1.585,0,0,0,1.119,2.7Z" transform="translate(-2042.576 -413.732)" fill="#fff"/>
        </g>
        <ellipse id="Ellipse_557" data-name="Ellipse 557" cx="3.338" cy="3.338" rx="3.338" ry="3.338" transform="translate(284.63 236.177)" fill="#313131"/>
        <ellipse id="Ellipse_558" data-name="Ellipse 558" cx="3.338" cy="3.338" rx="3.338" ry="3.338" transform="translate(258.138 236.239)" fill="#313131"/>
        <path id="Path_4089" data-name="Path 4089" d="M2013.693,430.836l-2.466,12.494-.349,1.767-1.263-1.46,3.3.406c1.739.214,1.552,2.938-.2,2.723l-3.3-.407c-.664-.081-1.411-.706-1.262-1.46l2.465-12.494.35-1.767a1.408,1.408,0,0,1,1.46-1.263,1.373,1.373,0,0,1,1.262,1.461Z" transform="translate(-1737.811 -198.56)" fill="#313131"/>
        <path id="Path_4091" data-name="Path 4091" d="M2011.933,458.761l.07.016c.272.062-.405-.078-.159-.033.206.038.41.077.616.108a14.856,14.856,0,0,0,2.088.177c.211,0,.421,0,.631-.008.155-.006.266-.084-.021,0a2.028,2.028,0,0,1,.347-.03,8.213,8.213,0,0,0,1.253-.225c.1-.026.2-.056.294-.085.232-.068-.284.111.076-.032a4.962,4.962,0,0,0,.547-.254c.042-.022.261-.186.3-.174-.067-.022-.255.183-.01,0,.09-.069.178-.143.263-.22.063-.058.341-.353.07-.05a1.4,1.4,0,0,1,1.9-.353,1.379,1.379,0,0,1,.354,1.9c-2.332,2.617-6.348,2.6-9.528,1.84a1.371,1.371,0,0,1-.83-1.744,1.406,1.406,0,0,1,1.745-.83Z" transform="translate(-1738.282 -205.237)" fill="#313131"/>
      </g>
      <ellipse id="Ellipse_559" data-name="Ellipse 559" cx="7.644" cy="5.419" rx="7.644" ry="5.419" transform="matrix(0.958, -0.288, 0.288, 0.958, 223.216, 134.397)" fill="#fec739"/>
      <path id="Path_4092" data-name="Path 4092" d="M1926.519,257.213s-23.271,7.632-37.792-20.927c2.222-8.259,10.615-7.216,10.615-7.216S1935.268,233.456,1926.519,257.213Z" transform="translate(-1693.479 -125.453)" fill="#313131"/>
      <path id="Path_4093" data-name="Path 4093" d="M1884.106,242.169s-13.349,2.145-15.155,13.726c1.135-15.633,3.663-16.784,3.663-16.784l11.6-2.717" transform="translate(-1686.681 -127.985)" fill="#313131"/>
    </g>
  </g>
</svg>
