<svg xmlns="http://www.w3.org/2000/svg" xmlns:xlink="http://www.w3.org/1999/xlink" width="647.544" height="505.304" viewBox="0 0 647.544 505.304">
  <defs>
    <clipPath id="clip-path">
      <rect width="647.544" height="505.304" fill="none"/>
    </clipPath>
  </defs>
  <g id="Repeat_Grid_6" data-name="Repeat Grid 6" clip-path="url(#clip-path)">
    <g id="Group_3168" data-name="Group 3168" transform="translate(-617.228 -166.499)">
      <g id="Group_2816" data-name="Group 2816" transform="translate(-3562.646 -2146.92)">
        <path id="Path_3551" data-name="Path 3551" d="M4516.167,2770.787c-249.442-20.87-331.7-56.519-336.132-198.4s83.453-177.928,157.059-167.062,137.238,75.313,186.957,27.824,92.9-128.4,191.493-71.984,168.854,301.84,47.81,299.107S4765.607,2791.656,4516.167,2770.787Z" fill="#fff1be"/>
        <path id="Path_4120" data-name="Path 4120" d="M4379.515,2589.647s121.528,56.763,257.661-2.365c-38.888-17.739-42.435-31.93-42.435-60.311s23.123-165.559-76.54-169.106-105.244,55.711-102.453,114.773S4413.809,2574.273,4379.515,2589.647Z" transform="translate(-14.257 -1.128)" fill="#313131"/>
        <path id="Union_8" data-name="Union 8" d="M10113.646,15915l10.575-87.351q.146-1.632.392-3.232l0-.039h0a51.447,51.447,0,0,1,20.936-33.969l-.745-.328s1.243-.556,3.518-1.523a51.127,51.127,0,0,1,16.277-6.583c20.994-8.1,55.3-19.927,85.994-24.065,48.41-6.522,115.456,2.717,149.789,31.54a56.287,56.287,0,0,1,10.891,12.815,51.339,51.339,0,0,1,5.975,10.868c19.246,40.485,22.844,106.068,22.886,106.831l0,.011s-17.65,18.451-82.075,21.809c-3.91.2-8.539.3-13.758.3C10281.554,15942.088,10133.092,15928,10113.646,15915Z" transform="translate(-5776.458 -13168.791)" fill="#019e96" stroke="rgba(0,0,0,0)" stroke-miterlimit="10" stroke-width="1"/>
        <path id="Path_3525" data-name="Path 3525" d="M4518.619,2469.034" transform="translate(-24.19 -9.077)" fill="#313131"/>
        <path id="Path_3526" data-name="Path 3526" d="M4580.818,2632.81" transform="translate(-28.632 -20.773)" fill="#313131"/>
        <path id="Union_10" data-name="Union 10" d="M10189.232,15980.767l-2.192-38.671a76.413,76.413,0,0,1-40.593-64.322h-.007l-.539-9.5a31.677,31.677,0,0,1-10.624-2.733c-11.945-5.35-18.558-16.553-14.768-25.021,3.266-7.288,13.17-10.177,23.482-7.431,0-.249,0-.5,0-.745a76.42,76.42,0,0,1,152.753-3.644l.277,4.889c10.9-3.548,21.732-.756,25.172,6.931,3.79,8.469-2.817,19.672-14.764,25.021a32.343,32.343,0,0,1-8.454,2.5l.062,1.087h0q.189,2.688.189,5.422a76.4,76.4,0,0,1-39.229,66.774l2,35.322a36.438,36.438,0,0,1-34.319,38.442c-.7.04-1.4.06-2.1.06A36.436,36.436,0,0,1,10189.232,15980.767Z" transform="translate(-5726.301 -13381.311)" fill="#fec739" stroke="rgba(0,0,0,0)" stroke-miterlimit="10" stroke-width="1"/>
        <circle id="Ellipse_588" data-name="Ellipse 588" cx="8.919" cy="8.919" r="8.919" transform="translate(4451.391 2461.744)" fill="#313131"/>
        <circle id="Ellipse_589" data-name="Ellipse 589" cx="8.919" cy="8.919" r="8.919" transform="translate(4503.969 2458.762)" fill="#313131"/>
        <path id="Path_4122" data-name="Path 4122" d="M4503.7,2477.249l-2.238,33.958-.316,4.8c-.134,2.037,2.076,3.448,3.85,3.436l8.885-.059c4.7-.032,4.273-7.316-.413-7.285l-8.885.06,3.849,3.436,2.238-33.958.316-4.8c.129-1.969-2.053-3.537-3.849-3.436-2.169.124-3.306,1.874-3.437,3.849Z" transform="translate(-22.942 -9.389)" fill="#313131"/>
        <path id="Path_4123" data-name="Path 4123" d="M4499.955,2541.8c8.247,2.9,18.921,4.017,25.829-2.309,1.414-1.293,1-4.038-.424-5.142a3.762,3.762,0,0,0-5.143.424c.8-.733-.016-.022-.2.113q-.368.274-.76.514c-.636.391-.179-.057.027.013-.111-.038-.7.33-.833.383a13.763,13.763,0,0,1-1.526.529c-.994.282.425-.053-.208.064-.23.042-.46.09-.691.128a22.009,22.009,0,0,1-3.508.276,4.527,4.527,0,0,0-.931-.014c.412-.1.692.036.056,0q-.843-.053-1.681-.15a39.683,39.683,0,0,1-5.428-1.017c-.564-.145-1.122-.309-1.681-.474-.644-.188,1.122.367.413.131-.06-.02-.121-.04-.181-.062-1.794-.63-4.043-.215-4.861,1.732-.7,1.664-.194,4.186,1.732,4.862Z" transform="translate(-22.713 -13.682)" fill="#313131"/>
        <path id="Union_9" data-name="Union 9" d="M10120.683,15834.526c-24.218-16,17.436-74.948,73.576-78.286,42.379-2.518,62.012,10.25,71.737,24.086,7.413,8.738,21.255,27.407,21.255,44.96,0,17.675-16.284,4.843-25.594-10.068-5.564,8.207-12.4,14.914-18.585,11.52-13.41-7.351-9.949-35.459-9.949-35.459s-18.6,30.272-43.248,27.245c-22.63-2.776-6.618-30.716-3.846-35.271-3.783,6.038-34.38,53.714-57.182,53.715A14.5,14.5,0,0,1,10120.683,15834.526Z" transform="translate(-5710.871 -13381.312)" fill="#313131" stroke="rgba(0,0,0,0)" stroke-miterlimit="10" stroke-width="1"/>
        <path id="Path_4125" data-name="Path 4125" d="M4641.585,2654.565s-48.623,8.909-40.167,70.92l8.457,62.011" transform="translate(-30.032 -22.327)" fill="none" stroke="#313131" stroke-miterlimit="10" stroke-width="2.142"/>
        <path id="Path_4126" data-name="Path 4126" d="M4407.452,2654.565s48.622,8.909,40.166,70.92l-8.457,62.011" transform="translate(-16.252 -22.327)" fill="none" stroke="#313131" stroke-miterlimit="10" stroke-width="2.142"/>
        <path id="Path_4127" data-name="Path 4127" d="M4481.787,2577.306s9.394,4.8,29.469,7.31c-23.97,18.208-22.176,5.08-29.577,22.208C4480.644,2594.324,4481.787,2577.306,4481.787,2577.306Z" transform="translate(-21.522 -16.809)" fill="#313131"/>
        <g id="Group_2220" data-name="Group 2220" transform="translate(4372.491 2550.286)">
          <path id="Path_2782" data-name="Path 2782" d="M4470.554,2637.75c-6.053-10.969-19.686-25.708-35.536-37.653s-29.482-17.75-35.537-15.9l-3.343-2.521v7.435c0,10.113,17.407,31.429,38.879,47.61s38.88,21.1,38.88,10.986v-7.43Z" transform="translate(-4387.935 -2567.407)" fill="#ff8e9e"/>
          <ellipse id="Ellipse_257" data-name="Ellipse 257" cx="14.223" cy="50" rx="14.223" ry="50" transform="translate(0 21.461) rotate(-48.976)" fill="#fec739"/>
          <ellipse id="Ellipse_258" data-name="Ellipse 258" cx="10.782" cy="42.965" rx="10.782" ry="42.965" transform="translate(6.81 23.235) rotate(-49.972)" fill="#fff"/>
          <path id="Path_2783" data-name="Path 2783" d="M4466.78,2639.753c-4.889,1.449-17.075-4.1-31.332-14.84-15.472-11.66-28.507-25.763-32.42-34.543" transform="translate(-4388.427 -2568.028)" fill="none" stroke="#313131" stroke-linecap="round" stroke-miterlimit="10" stroke-width="0.418"/>
          <path id="Path_2784" data-name="Path 2784" d="M4444.983,2603.48c11.81,9.853,21.4,20.568,25.258,28.056" transform="translate(-4391.423 -2568.964)" fill="none" stroke="#313131" stroke-linecap="round" stroke-miterlimit="10" stroke-width="0.418"/>
          <path id="Path_2785" data-name="Path 2785" d="M4404.259,2581.881c3.427-.972,10.348,1.42,19.03,6.571" transform="translate(-4388.515 -2567.406)" fill="none" stroke="#313131" stroke-linecap="round" stroke-miterlimit="10" stroke-width="0.418"/>
          <ellipse id="Ellipse_485" data-name="Ellipse 485" cx="7.893" cy="36.679" rx="7.893" ry="36.679" transform="translate(12.457 24.518) rotate(-50)" fill="#fec739"/>
        </g>
        <rect id="Rectangle_256" data-name="Rectangle 256" width="91.839" height="160.718" rx="11.396" transform="translate(4463.354 2613.949)" fill="#313131"/>
        <path id="Path_3090" data-name="Path 3090" d="M4445.352,2786.87c14.75-10.635.877-2.019,22.583-15.545,6.971-20.371-1.073-53.579,11.55-70.763.945-1.305,1.941-2.619,2.937-3.934.188,1.176.376,2.354.617,3.521,2.686,14.156,5.361,21.7,18.453,19.242,12.023-2.24,43.5-29.469,65.977-50.014,2.708-2.427,5.27-4.779,7.643-6.995.75,36.817-2.372,78.295-30.266,100.388-27.687,21.984-39.1,26.931-50.029,36.034" transform="translate(-18.958 -22.885)" fill="#fec739"/>
        <circle id="Ellipse_284" data-name="Ellipse 284" cx="5.086" cy="5.086" r="5.086" transform="translate(4473.708 2627.357)" fill="#8b8c8e"/>
        <g id="Group_2814" data-name="Group 2814" transform="translate(4640.685 2545.431)">
          <g id="Group_2224" data-name="Group 2224">
            <path id="Path_2782-3" data-name="Path 2782-3" d="M4806.452,2588.648c-9.472-2.623-30.809,7.057-55.612,26.432s-46.139,43.037-55.611,60.466l-5.233,4.086v11.64c0,15.826,27.241,7.373,60.845-18.88s60.843-60.367,60.843-76.193v-11.638Z" transform="translate(-4677.114 -2562.758)" fill="#ff8e9e"/>
            <ellipse id="Ellipse_257-3" data-name="Ellipse 257-3" cx="79.365" cy="21.963" rx="79.365" ry="21.963" transform="translate(0 106.045) rotate(-41.919)" fill="#fec739"/>
            <ellipse id="Ellipse_258-3" data-name="Ellipse 258-3" cx="68.174" cy="16.646" rx="68.174" ry="16.646" transform="translate(10.657 101.018) rotate(-40.987)" fill="#fff"/>
            <path id="Path_2783-3" data-name="Path 2783-3" d="M4800.545,2602.328c-7.651,14.011-26.718,34.6-49.029,52.03-24.213,18.917-44.6,28.148-50.733,23.814" transform="translate(-4677.884 -2564.027)" fill="none" stroke="#313131" stroke-linecap="round" stroke-miterlimit="10" stroke-width="0.655"/>
            <path id="Path_2784-3" data-name="Path 2784-3" d="M4766.434,2602.424c18.479-12.947,33.49-19.213,39.524-16.756" transform="translate(-4682.572 -2562.8)" fill="none" stroke="#313131" stroke-linecap="round" stroke-miterlimit="10" stroke-width="0.655"/>
            <path id="Path_2785-3" data-name="Path 2785-3" d="M4702.705,2665.066c5.361-9.75,16.193-22.634,29.78-35.423" transform="translate(-4678.021 -2565.978)" fill="none" stroke="#313131" stroke-linecap="round" stroke-miterlimit="10" stroke-width="0.655"/>
          </g>
          <ellipse id="Ellipse_483" data-name="Ellipse 483" cx="59.43" cy="13" rx="59.43" ry="13" transform="translate(20.766 96.509) rotate(-41)" fill="#fec739"/>
        </g>
        <g id="Group_2815" data-name="Group 2815" transform="translate(4218.738 2505.667)">
          <g id="Group_2222" data-name="Group 2222">
            <path id="Path_2782-2" data-name="Path 2782-2" d="M4329.753,2610.959c-7.858-14.234-25.546-33.359-46.114-48.858s-38.258-23.029-46.111-20.638l-4.339-3.268v9.65c0,13.124,22.588,40.783,50.45,61.779s50.45,27.379,50.45,14.256v-9.653Z" transform="translate(-4222.545 -2519.683)" fill="#ff8e9e"/>
            <ellipse id="Ellipse_257-2" data-name="Ellipse 257-2" cx="18.455" cy="64.878" rx="18.455" ry="64.878" transform="translate(0 27.847) rotate(-48.976)" fill="#fec739"/>
            <ellipse id="Ellipse_258-2" data-name="Ellipse 258-2" cx="13.99" cy="55.751" rx="13.99" ry="55.751" transform="translate(8.838 30.148) rotate(-49.972)" fill="#fff"/>
            <path id="Path_2783-2" data-name="Path 2783-2" d="M4324.856,2613.559c-6.346,1.879-22.156-5.317-40.656-19.257-20.076-15.129-36.987-33.429-42.065-44.823" transform="translate(-4223.185 -2520.489)" fill="none" stroke="#313131" stroke-linecap="round" stroke-miterlimit="10" stroke-width="0.543"/>
            <path id="Path_2784-2" data-name="Path 2784-2" d="M4296.57,2566.49c15.322,12.786,27.765,26.688,32.772,36.406" transform="translate(-4227.072 -2521.704)" fill="none" stroke="#313131" stroke-linecap="round" stroke-miterlimit="10" stroke-width="0.543"/>
            <path id="Path_2785-2" data-name="Path 2785-2" d="M4243.727,2538.463c4.446-1.261,13.427,1.842,24.693,8.527" transform="translate(-4223.298 -2519.682)" fill="none" stroke="#313131" stroke-linecap="round" stroke-miterlimit="10" stroke-width="0.543"/>
          </g>
          <ellipse id="Ellipse_484" data-name="Ellipse 484" cx="11.607" cy="51.537" rx="11.607" ry="51.537" transform="translate(13.975 31.611) rotate(-50)" fill="#fec739"/>
        </g>
      </g>
      <g id="Group_2817" data-name="Group 2817" transform="translate(-3554.959 -1916.659)">
        <g id="Group_2358" data-name="Group 2358">
          <g id="Group_2077" data-name="Group 2077" transform="translate(-77.713)">
            <g id="Group_2075" data-name="Group 2075">
              <path id="Path_2774" data-name="Path 2774" d="M4725.414,2236.208a.82.82,0,0,1-.7-1.255,33.473,33.473,0,0,0,5.143-15.741,6.516,6.516,0,0,1-1.016.081,5.461,5.461,0,0,1-5.666-5.246h0v-.079c0-3.859,3.8-7.506,7.817-7.506s8.086,3.5,8.086,10.2c0,6.289-4.807,13.358-13.188,19.393A.827.827,0,0,1,4725.414,2236.208Zm5.312-18.875a.82.82,0,0,1,.82.82v.019a34.345,34.345,0,0,1-3.474,14.1c6-5.1,9.369-10.662,9.369-15.611,0-5.881-3.341-8.559-6.446-8.559-3.06,0-6.177,2.96-6.177,5.867a3.84,3.84,0,0,0,3.984,3.688h.044a4.986,4.986,0,0,0,1.615-.276.785.785,0,0,1,.266-.046Z" fill="#313131"/>
            </g>
            <g id="Group_2076" data-name="Group 2076">
              <path id="Path_2775" data-name="Path 2775" d="M4745.332,2236.208a.82.82,0,0,1-.695-1.255,33.473,33.473,0,0,0,5.143-15.741,6.527,6.527,0,0,1-1.017.081,5.461,5.461,0,0,1-5.665-5.247h0v-.078c0-3.859,3.8-7.506,7.818-7.506s8.085,3.5,8.085,10.2c0,6.29-4.807,13.359-13.188,19.393A.826.826,0,0,1,4745.332,2236.208Zm5.313-18.875a.82.82,0,0,1,.82.82v.019a34.344,34.344,0,0,1-3.474,14.1c6-5.1,9.369-10.662,9.369-15.612,0-5.881-3.341-8.559-6.445-8.559-3.061,0-6.179,2.96-6.179,5.867a3.84,3.84,0,0,0,3.984,3.688h.044a4.98,4.98,0,0,0,1.615-.276A.787.787,0,0,1,4750.645,2217.333Z" fill="#313131"/>
            </g>
          </g>
          <g id="Group_2078" data-name="Group 2078">
            <path id="Path_2779" data-name="Path 2779" d="M4755.272,2274.659c-3.5,0-5.742-1.531-7.723-2.883-1.681-1.147-3.133-2.138-5.156-2.138a7.727,7.727,0,0,0-5.994,3.452,1.095,1.095,0,0,1-1.8-1.246h0l.016-.024a9.931,9.931,0,0,1,7.773-4.368c2.7,0,4.574,1.281,6.388,2.518,1.886,1.288,3.668,2.5,6.491,2.5,3.579,0,5.12-1.482,6.752-3.052,1.542-1.483,3.136-3.017,6.2-3.017,2.4,0,4.455,1.447,6.44,2.846,2.071,1.46,4.213,2.97,6.818,2.97,1.722,0,3.385-1.158,5.145-2.384a14.605,14.605,0,0,1,5.6-2.811,1.093,1.093,0,0,1,.412,2.147l-.029.005a12.808,12.808,0,0,0-4.734,2.453c-1.96,1.365-3.986,2.776-6.4,2.776-3.3,0-5.837-1.79-8.078-3.369-1.862-1.313-3.47-2.447-5.181-2.447-2.183,0-3.286,1.062-4.684,2.407C4761.843,2272.628,4759.732,2274.659,4755.272,2274.659Z" fill="#019e96"/>
          </g>
          <g id="Group_2079" data-name="Group 2079">
            <path id="Path_2780" data-name="Path 2780" d="M4542.83,2113.593a1.1,1.1,0,0,1-1.569,1.224,275.146,275.146,0,0,0-26.491-12.135,1.094,1.094,0,0,1-.353-1.832c6-5.473,11.679-10.882,18.47-17.388a1.092,1.092,0,0,1,1.544.031v0a1.078,1.078,0,0,1,.25.416C4537.88,2093.677,4540.4,2103.8,4542.83,2113.593Zm-25.632-12.321c7.058,2.767,16.065,7.006,22.926,10.5-2.1-8.46-4.306-17.125-6.984-25.529-5.769,5.523-10.77,10.279-15.943,15.025Z" fill="#ff8e9e"/>
          </g>
          <g id="Group_2080" data-name="Group 2080" transform="translate(89.952 48.557)">
            <path id="Path_2781" data-name="Path 2781" d="M4638.051,2086.828a7.6,7.6,0,0,0-2.425-.4c-4.778,0-8.706,4.592-8.706,8.923a7.637,7.637,0,0,0,7.672,7.6h.005c.1,0,.21,0,.315-.008a9.225,9.225,0,0,0,9.54-8.628,10.542,10.542,0,0,0-2.7-5.631A7.947,7.947,0,0,0,4638.051,2086.828Z" fill="#019e96"/>
          </g>
          <g id="Group_2357" data-name="Group 2357">
            <path id="Path_3553" data-name="Path 3553" d="M4304.71,2155.021a1.337,1.337,0,0,1-.893-.342l-5.216-4.688c-4.842-4.345-9.849-8.838-14.668-13.3a1.336,1.336,0,0,1-.069-1.886c.03-.032.061-.062.094-.091q4.773-4.173,9.488-8.346c4.19-3.7,8.38-7.4,12.639-11.093a1.333,1.333,0,0,1,1.84.087q5.466,5.733,10.858,11.535,3.987,4.26,7.986,8.508a1.335,1.335,0,0,1-.054,1.887c-.025.023-.051.045-.077.067-6.921,5.59-14.08,11.375-21.061,17.343A1.338,1.338,0,0,1,4304.71,2155.021Zm-17.875-19.28c4.467,4.115,9.078,8.253,13.547,12.265l4.35,3.908c6.349-5.4,12.818-10.643,19.111-15.729q-3.513-3.726-7.006-7.469-4.967-5.313-9.962-10.594c-3.922,3.414-7.792,6.829-11.661,10.243Q4291.035,2132.053,4286.835,2135.741Z" fill="#019e96"/>
          </g>
          <g id="Group_2078-2" data-name="Group 2078-2">
            <path id="Path_2779-2" data-name="Path 2779-2" d="M4225.407,2244.466c-3.5,0-5.742-1.531-7.723-2.883-1.681-1.147-3.133-2.138-5.156-2.138a7.728,7.728,0,0,0-5.994,3.452,1.095,1.095,0,0,1-1.8-1.246h0l.017-.024a9.933,9.933,0,0,1,7.773-4.368c2.7,0,4.574,1.281,6.388,2.518,1.886,1.288,3.668,2.5,6.491,2.5,3.579,0,5.12-1.482,6.752-3.052,1.542-1.483,3.136-3.017,6.2-3.017,2.4,0,4.455,1.447,6.44,2.846,2.071,1.46,4.213,2.97,6.818,2.97,1.722,0,3.385-1.158,5.145-2.384a14.591,14.591,0,0,1,5.6-2.811,1.093,1.093,0,1,1,.412,2.147h0l-.029,0a12.833,12.833,0,0,0-4.734,2.453c-1.96,1.365-3.986,2.776-6.4,2.776-3.3,0-5.837-1.79-8.078-3.369-1.862-1.313-3.47-2.447-5.181-2.447-2.183,0-3.286,1.062-4.684,2.407C4231.978,2242.436,4229.867,2244.466,4225.407,2244.466Z" fill="#019e96"/>
          </g>
          <g id="Group_2079-2" data-name="Group 2079-2" transform="translate(294 382)">
            <path id="Path_2780-2" data-name="Path 2780-2" d="M4416.057,2205.115a1.1,1.1,0,0,1-1.569,1.224A274.744,274.744,0,0,0,4388,2194.2a1.107,1.107,0,0,1-.69-.818,1.091,1.091,0,0,1,.336-1.014c6-5.473,11.679-10.882,18.47-17.389a1.093,1.093,0,0,1,1.8.449C4411.11,2185.193,4413.624,2195.317,4416.057,2205.115Zm-25.632-12.322c7.058,2.767,16.065,7.005,22.927,10.5-2.1-8.46-4.307-17.125-6.985-25.529-5.769,5.523-10.77,10.279-15.943,15.025Z" fill="#ff8e9e"/>
          </g>
        </g>
        <circle id="Ellipse_184" data-name="Ellipse 184" cx="7.5" cy="7.5" r="7.5" transform="translate(4263.999 2507.307)" fill="#ea4f4f"/>
      </g>
    </g>
  </g>
</svg>
