<svg xmlns="http://www.w3.org/2000/svg" width="327.605" height="419.335" viewBox="0 0 327.605 419.335">
  <g id="Group_3299" data-name="Group 3299" transform="translate(7719.918 12845.833)">
    <path id="Path_4120" data-name="Path 4120" d="M4379.515,2589.647s121.528,56.763,257.661-2.365c-38.888-17.739-42.435-31.93-42.435-60.311s23.123-165.559-76.54-169.106-105.244,55.711-102.453,114.773S4413.809,2574.273,4379.515,2589.647Z" transform="translate(-12070.831 -15203.546)" fill="#313131"/>
    <path id="Union_8" data-name="Union 8" d="M10113.646,15915l10.575-87.351q.146-1.632.392-3.232l0-.039h0a51.447,51.447,0,0,1,20.936-33.969l-.745-.328s1.243-.556,3.518-1.523a51.127,51.127,0,0,1,16.277-6.583c20.994-8.1,55.3-19.927,85.994-24.065,48.41-6.522,115.456,2.717,149.789,31.54a56.287,56.287,0,0,1,10.891,12.815,51.339,51.339,0,0,1,5.975,10.868c19.246,40.485,22.844,106.068,22.886,106.831l0,.011s-17.65,18.451-82.075,21.809c-3.91.2-8.539.3-13.758.3C10281.554,15942.088,10133.092,15928,10113.646,15915Z" transform="translate(-17833.031 -28371.209)" fill="#019e96" stroke="rgba(0,0,0,0)" stroke-miterlimit="10" stroke-width="1"/>
    <path id="Path_3525" data-name="Path 3525" d="M4518.619,2469.034" transform="translate(-12080.765 -15211.495)" fill="#313131"/>
    <path id="Path_3526" data-name="Path 3526" d="M4580.818,2632.81" transform="translate(-12085.206 -15223.191)" fill="#313131"/>
    <path id="Union_10" data-name="Union 10" d="M10189.232,15980.767l-2.192-38.671a76.413,76.413,0,0,1-40.593-64.322h-.007l-.539-9.5a31.677,31.677,0,0,1-10.624-2.733c-11.945-5.35-18.558-16.553-14.768-25.021,3.266-7.288,13.17-10.177,23.482-7.431,0-.249,0-.5,0-.745a76.42,76.42,0,0,1,152.753-3.644l.277,4.889c10.9-3.548,21.732-.756,25.172,6.931,3.79,8.469-2.817,19.672-14.764,25.021a32.343,32.343,0,0,1-8.454,2.5l.062,1.087h0q.189,2.688.189,5.422a76.4,76.4,0,0,1-39.229,66.774l2,35.322a36.438,36.438,0,0,1-34.319,38.442c-.7.04-1.4.06-2.1.06A36.436,36.436,0,0,1,10189.232,15980.767Z" transform="translate(-17782.875 -28583.729)" fill="#fec739" stroke="rgba(0,0,0,0)" stroke-miterlimit="10" stroke-width="1"/>
    <circle id="Ellipse_588" data-name="Ellipse 588" cx="8.919" cy="8.919" r="8.919" transform="translate(-7605.184 -12740.674)" fill="#313131"/>
    <circle id="Ellipse_589" data-name="Ellipse 589" cx="8.919" cy="8.919" r="8.919" transform="translate(-7552.605 -12743.656)" fill="#313131"/>
    <path id="Path_4122" data-name="Path 4122" d="M4503.7,2477.249l-2.238,33.958-.316,4.8c-.134,2.037,2.076,3.448,3.85,3.436l8.885-.059c4.7-.032,4.273-7.316-.413-7.285l-8.885.06,3.849,3.436,2.238-33.958.316-4.8c.129-1.969-2.053-3.537-3.849-3.436-2.169.124-3.306,1.874-3.437,3.849Z" transform="translate(-12079.517 -15211.807)" fill="#313131"/>
    <path id="Path_4123" data-name="Path 4123" d="M4499.955,2541.8c8.247,2.9,18.921,4.017,25.829-2.309,1.414-1.293,1-4.038-.424-5.142a3.762,3.762,0,0,0-5.143.424c.8-.733-.016-.022-.2.113q-.368.274-.76.514c-.636.391-.179-.057.027.013-.111-.038-.7.33-.833.383a13.763,13.763,0,0,1-1.526.529c-.994.282.425-.053-.208.064-.23.042-.46.09-.691.128a22.009,22.009,0,0,1-3.508.276,4.527,4.527,0,0,0-.931-.014c.412-.1.692.036.056,0q-.843-.053-1.681-.15a39.683,39.683,0,0,1-5.428-1.017c-.564-.145-1.122-.309-1.681-.474-.644-.188,1.122.367.413.131-.06-.02-.121-.04-.181-.062-1.794-.63-4.043-.215-4.861,1.732-.7,1.664-.194,4.186,1.732,4.862Z" transform="translate(-12079.287 -15216.101)" fill="#313131"/>
    <path id="Union_9" data-name="Union 9" d="M10120.683,15834.526c-24.218-16,17.436-74.948,73.576-78.286,42.379-2.518,62.012,10.25,71.737,24.086,7.413,8.738,21.255,27.407,21.255,44.96,0,17.675-16.284,4.843-25.594-10.068-5.564,8.207-12.4,14.914-18.585,11.52-13.41-7.351-9.949-35.459-9.949-35.459s-18.6,30.272-43.248,27.245c-22.63-2.776-6.618-30.716-3.846-35.271-3.783,6.038-34.38,53.714-57.182,53.715A14.5,14.5,0,0,1,10120.683,15834.526Z" transform="translate(-17767.445 -28583.73)" fill="#313131" stroke="rgba(0,0,0,0)" stroke-miterlimit="10" stroke-width="1"/>
    <path id="Path_4127" data-name="Path 4127" d="M4481.787,2577.306s9.394,4.8,29.469,7.31c-23.97,18.208-22.176,5.08-29.577,22.208C4480.644,2594.324,4481.787,2577.306,4481.787,2577.306Z" transform="translate(-12078.096 -15219.228)" fill="#313131"/>
    <rect id="Rectangle_256" data-name="Rectangle 256" width="91.839" height="160.718" rx="11.396" transform="translate(-7593.22 -12588.469)" fill="#313131"/>
    <path id="Path_3090" data-name="Path 3090" d="M4445.352,2786.87c14.75-10.635.877-2.019,22.583-15.545,6.971-20.371-1.073-53.579,11.55-70.763.945-1.305,1.941-2.619,2.937-3.934.188,1.176.376,2.354.617,3.521,2.686,14.156,5.361,21.7,18.453,19.242,12.023-2.24,43.5-29.469,65.977-50.014,2.708-2.427,5.27-4.779,7.643-6.995.75,36.817-2.372,78.295-30.266,100.388-27.687,21.984-39.1,26.931-50.029,36.034" transform="translate(-12075.532 -15225.303)" fill="#fec739"/>
    <circle id="Ellipse_284" data-name="Ellipse 284" cx="5.086" cy="5.086" r="5.086" transform="translate(-7582.867 -12575.062)" fill="#8b8c8e"/>
    <path id="Path_4116" data-name="Path 4116" d="M3492.94,2761.5a48.242,48.242,0,0,0-14.179,5.528,55.12,55.12,0,0,0-23,24.213,67.066,67.066,0,0,0-6.068,23.021c-.989,10.938.7,21.681,2.171,32.493l6.048,44.349a76.343,76.343,0,0,0,1.053,7.72v.011c.219,1.607,2.277,2.484,3.69,2.095,1.733-.476,2.316-2.078,2.1-3.69l-.72-5.28-4.988-36.58-2.461-18.043a116.42,116.42,0,0,1-1.218-15.235c-.009-2.3.069-4.6.249-6.9q.12-1.547.3-3.087c.024-.2.05-.4.075-.6.12-.96-.048.321.034-.245q.116-.8.248-1.608a62.685,62.685,0,0,1,2.872-11.091c.286-.789.595-1.567.909-2.345.048-.119.231-.528-.015.035.1-.224.195-.449.295-.672q.246-.552.5-1.1,1.047-2.216,2.3-4.328,1.182-2,2.541-3.883c.209-.289.422-.575.635-.861.084-.114.171-.225.257-.338-.485.638-.045.059.049-.057.456-.564.913-1.126,1.388-1.674a51.59,51.59,0,0,1,5.747-5.665c.466-.392.944-.768,1.417-1.151.135-.11.448-.339-.182.139l.425-.324q.386-.29.778-.574,1.406-1.018,2.874-1.946a55.655,55.655,0,0,1,5.523-3.061,17.45,17.45,0,0,0,2.479-1.122c-.765.544-.36.149-.033.018.184-.074.368-.149.553-.222q.579-.228,1.162-.443c1.821-.671,3.666-1.169,5.539-1.658.082-.021.167-.035.251-.051a3.026,3.026,0,0,0,2.095-3.69,3.064,3.064,0,0,0-3.69-2.095Z" transform="translate(-10944.494 -15348.71)" fill="#313131"/>
    <path id="Path_4117" data-name="Path 4117" d="M3271.4,2767.285a30.961,30.961,0,0,1,3.9,1.053q1.006.326,2,.693.532.2,1.06.406c.385.152,1.526.653.578.228,1.769.794,3.518,1.6,5.215,2.544a54.7,54.7,0,0,1,5.674,3.612q.356.259.707.523c.143.108.284.216.425.324-.041-.032-.57-.454-.182-.139.521.422,1.047.837,1.558,1.271q1.486,1.262,2.876,2.631,1.456,1.44,2.8,2.992c.451.523.887,1.058,1.321,1.6.094.116.534.7.049.057.086.113.172.224.257.338.256.344.511.688.761,1.036a52.2,52.2,0,0,1,4.71,8.036q.258.547.5,1.1c.1.223.2.448.295.672-.044-.1-.228-.561-.015-.035.346.857.685,1.715,1,2.585q.934,2.616,1.622,5.313.7,2.742,1.163,5.538c.316,1.9.513,3.546.684,5.859.8,10.736-.911,21.219-2.355,31.807l-5.794,42.488q-.505,3.709-1.012,7.419v.009a3.1,3.1,0,0,0,2.1,3.69c1.4.385,3.47-.479,3.69-2.095l.746-5.473,5.225-38.313q1.265-9.279,2.53-18.558a108.182,108.182,0,0,0,1.095-15.748,71.719,71.719,0,0,0-4.255-24.486,55.772,55.772,0,0,0-22.341-27.57,51.2,51.2,0,0,0-16.7-7.131c-.092-.019-.184-.039-.276-.056a3.082,3.082,0,0,0-3.69,2.095,3.025,3.025,0,0,0,2.095,3.69Z" transform="translate(-10944.494 -15348.71)" fill="#313131"/>
  </g>
</svg>
