<svg xmlns="http://www.w3.org/2000/svg" width="588.981" height="505.304" viewBox="0 0 588.981 505.304">
  <g id="Group_3300" data-name="Group 3300" transform="translate(7847.419 13505)">
    <g id="Group_2817" data-name="Group 2817" transform="translate(-12051.959 -15588.157)">
      <g id="Group_2358" data-name="Group 2358">
        <g id="Group_2077" data-name="Group 2077" transform="translate(-77.713)">
          <g id="Group_2075" data-name="Group 2075">
            <path id="Path_2774" data-name="Path 2774" d="M4725.414,2236.208a.82.82,0,0,1-.7-1.255,33.473,33.473,0,0,0,5.143-15.741,6.516,6.516,0,0,1-1.016.081,5.461,5.461,0,0,1-5.666-5.246h0v-.079c0-3.859,3.8-7.506,7.817-7.506s8.086,3.5,8.086,10.2c0,6.289-4.807,13.358-13.188,19.393A.827.827,0,0,1,4725.414,2236.208Zm5.312-18.875a.82.82,0,0,1,.82.82v.019a34.345,34.345,0,0,1-3.474,14.1c6-5.1,9.369-10.662,9.369-15.611,0-5.881-3.341-8.559-6.446-8.559-3.06,0-6.177,2.96-6.177,5.867a3.84,3.84,0,0,0,3.984,3.688h.044a4.986,4.986,0,0,0,1.615-.276.785.785,0,0,1,.266-.046Z" fill="#313131"/>
          </g>
          <g id="Group_2076" data-name="Group 2076">
            <path id="Path_2775" data-name="Path 2775" d="M4745.332,2236.208a.82.82,0,0,1-.695-1.255,33.473,33.473,0,0,0,5.143-15.741,6.527,6.527,0,0,1-1.017.081,5.461,5.461,0,0,1-5.665-5.247h0v-.078c0-3.859,3.8-7.506,7.818-7.506s8.085,3.5,8.085,10.2c0,6.29-4.807,13.359-13.188,19.393A.826.826,0,0,1,4745.332,2236.208Zm5.313-18.875a.82.82,0,0,1,.82.82v.019a34.344,34.344,0,0,1-3.474,14.1c6-5.1,9.369-10.662,9.369-15.612,0-5.881-3.341-8.559-6.445-8.559-3.061,0-6.179,2.96-6.179,5.867a3.84,3.84,0,0,0,3.984,3.688h.044a4.98,4.98,0,0,0,1.615-.276A.787.787,0,0,1,4750.645,2217.333Z" fill="#313131"/>
          </g>
        </g>
        <g id="Group_2078" data-name="Group 2078">
          <path id="Path_2779" data-name="Path 2779" d="M4755.272,2274.659c-3.5,0-5.742-1.531-7.723-2.883-1.681-1.147-3.133-2.138-5.156-2.138a7.727,7.727,0,0,0-5.994,3.452,1.095,1.095,0,0,1-1.8-1.246h0l.016-.024a9.931,9.931,0,0,1,7.773-4.368c2.7,0,4.574,1.281,6.388,2.518,1.886,1.288,3.668,2.5,6.491,2.5,3.579,0,5.12-1.482,6.752-3.052,1.542-1.483,3.136-3.017,6.2-3.017,2.4,0,4.455,1.447,6.44,2.846,2.071,1.46,4.213,2.97,6.818,2.97,1.722,0,3.385-1.158,5.145-2.384a14.605,14.605,0,0,1,5.6-2.811,1.093,1.093,0,0,1,.412,2.147l-.029.005a12.808,12.808,0,0,0-4.734,2.453c-1.96,1.365-3.986,2.776-6.4,2.776-3.3,0-5.837-1.79-8.078-3.369-1.862-1.313-3.47-2.447-5.181-2.447-2.183,0-3.286,1.062-4.684,2.407C4761.843,2272.628,4759.732,2274.659,4755.272,2274.659Z" fill="#019e96"/>
        </g>
        <g id="Group_2079" data-name="Group 2079">
          <path id="Path_2780" data-name="Path 2780" d="M4542.83,2113.593a1.1,1.1,0,0,1-1.569,1.224,275.146,275.146,0,0,0-26.491-12.135,1.094,1.094,0,0,1-.353-1.832c6-5.473,11.679-10.882,18.47-17.388a1.092,1.092,0,0,1,1.544.031v0a1.078,1.078,0,0,1,.25.416C4537.88,2093.677,4540.4,2103.8,4542.83,2113.593Zm-25.632-12.321c7.058,2.767,16.065,7.006,22.926,10.5-2.1-8.46-4.306-17.125-6.984-25.529-5.769,5.523-10.77,10.279-15.943,15.025Z" fill="#ff8e9e"/>
        </g>
        <g id="Group_2080" data-name="Group 2080" transform="translate(89.952 48.557)">
          <path id="Path_2781" data-name="Path 2781" d="M4638.051,2086.828a7.6,7.6,0,0,0-2.425-.4c-4.778,0-8.706,4.592-8.706,8.923a7.637,7.637,0,0,0,7.672,7.6h.005c.1,0,.21,0,.315-.008a9.225,9.225,0,0,0,9.54-8.628,10.542,10.542,0,0,0-2.7-5.631A7.947,7.947,0,0,0,4638.051,2086.828Z" fill="#019e96"/>
        </g>
        <g id="Group_2357" data-name="Group 2357">
          <path id="Path_3553" data-name="Path 3553" d="M4304.71,2155.021a1.337,1.337,0,0,1-.893-.342l-5.216-4.688c-4.842-4.345-9.849-8.838-14.668-13.3a1.336,1.336,0,0,1-.069-1.886c.03-.032.061-.062.094-.091q4.773-4.173,9.488-8.346c4.19-3.7,8.38-7.4,12.639-11.093a1.333,1.333,0,0,1,1.84.087q5.466,5.733,10.858,11.535,3.987,4.26,7.986,8.508a1.335,1.335,0,0,1-.054,1.887c-.025.023-.051.045-.077.067-6.921,5.59-14.08,11.375-21.061,17.343A1.338,1.338,0,0,1,4304.71,2155.021Zm-17.875-19.28c4.467,4.115,9.078,8.253,13.547,12.265l4.35,3.908c6.349-5.4,12.818-10.643,19.111-15.729q-3.513-3.726-7.006-7.469-4.967-5.313-9.962-10.594c-3.922,3.414-7.792,6.829-11.661,10.243Q4291.035,2132.053,4286.835,2135.741Z" fill="#019e96"/>
        </g>
        <g id="Group_2078-2" data-name="Group 2078-2">
          <path id="Path_2779-2" data-name="Path 2779-2" d="M4225.407,2244.466c-3.5,0-5.742-1.531-7.723-2.883-1.681-1.147-3.133-2.138-5.156-2.138a7.728,7.728,0,0,0-5.994,3.452,1.095,1.095,0,0,1-1.8-1.246h0l.017-.024a9.933,9.933,0,0,1,7.773-4.368c2.7,0,4.574,1.281,6.388,2.518,1.886,1.288,3.668,2.5,6.491,2.5,3.579,0,5.12-1.482,6.752-3.052,1.542-1.483,3.136-3.017,6.2-3.017,2.4,0,4.455,1.447,6.44,2.846,2.071,1.46,4.213,2.97,6.818,2.97,1.722,0,3.385-1.158,5.145-2.384a14.591,14.591,0,0,1,5.6-2.811,1.093,1.093,0,1,1,.412,2.147h0l-.029,0a12.833,12.833,0,0,0-4.734,2.453c-1.96,1.365-3.986,2.776-6.4,2.776-3.3,0-5.837-1.79-8.078-3.369-1.862-1.313-3.47-2.447-5.181-2.447-2.183,0-3.286,1.062-4.684,2.407C4231.978,2242.436,4229.867,2244.466,4225.407,2244.466Z" fill="#019e96"/>
        </g>
        <g id="Group_2079-2" data-name="Group 2079-2" transform="translate(294 382)">
          <path id="Path_2780-2" data-name="Path 2780-2" d="M4416.057,2205.115a1.1,1.1,0,0,1-1.569,1.224A274.744,274.744,0,0,0,4388,2194.2a1.107,1.107,0,0,1-.69-.818,1.091,1.091,0,0,1,.336-1.014c6-5.473,11.679-10.882,18.47-17.389a1.093,1.093,0,0,1,1.8.449C4411.11,2185.193,4413.624,2195.317,4416.057,2205.115Zm-25.632-12.322c7.058,2.767,16.065,7.005,22.927,10.5-2.1-8.46-4.307-17.125-6.985-25.529-5.769,5.523-10.77,10.279-15.943,15.025Z" fill="#ff8e9e"/>
        </g>
      </g>
      <circle id="Ellipse_184" data-name="Ellipse 184" cx="7.5" cy="7.5" r="7.5" transform="translate(4263.999 2507.307)" fill="#ea4f4f"/>
    </g>
  </g>
</svg>
