<svg xmlns="http://www.w3.org/2000/svg" width="365.704" height="277.495" viewBox="0 0 365.704 277.495">
  <g id="Group_3271" data-name="Group 3271" transform="translate(4337.491 11824.835)">
    <path id="Path_4531" data-name="Path 4531" d="M140.074,360.3c45.477-7.174,130.87-49.781,131.445-207.835S154.572-2.557,135.872,1.444,2.53,29.448.322,183.467,94.539,367.483,140.074,360.3Z" transform="matrix(0.017, -1, 1, 0.017, -4337.745, -11553.359)" fill="#fff7d9"/>
    <g id="Group_2077" data-name="Group 2077" transform="translate(-5090.747 -11789.283)">
      <g id="Group_2075" data-name="Group 2075">
        <path id="Path_2774" data-name="Path 2774" d="M1024.634,96.788a.82.82,0,0,1-.7-1.255,33.47,33.47,0,0,0,5.143-15.741,6.406,6.406,0,0,1-1.016.081,5.46,5.46,0,0,1-5.666-5.246l0-.079c0-3.859,3.8-7.506,7.817-7.506s8.086,3.5,8.086,10.2c0,6.289-4.807,13.358-13.188,19.393A.822.822,0,0,1,1024.634,96.788Zm5.312-18.875a.82.82,0,0,1,.82.82v.019a34.345,34.345,0,0,1-3.474,14.1c6-5.1,9.369-10.662,9.369-15.611,0-5.881-3.341-8.559-6.446-8.559-3.06,0-6.177,2.96-6.177,5.867a3.839,3.839,0,0,0,3.984,3.688l.044,0a4.96,4.96,0,0,0,1.615-.276.8.8,0,0,1,.266-.046Z" fill="#313131"/>
      </g>
      <g id="Group_2076" data-name="Group 2076">
        <path id="Path_2775" data-name="Path 2775" d="M1044.552,96.788a.82.82,0,0,1-.695-1.255A33.47,33.47,0,0,0,1049,79.792a6.427,6.427,0,0,1-1.017.081,5.46,5.46,0,0,1-5.665-5.247l0-.078c0-3.859,3.8-7.506,7.818-7.506s8.085,3.5,8.085,10.2c0,6.29-4.807,13.359-13.188,19.393A.818.818,0,0,1,1044.552,96.788Zm5.313-18.875a.82.82,0,0,1,.82.82v.019a34.347,34.347,0,0,1-3.474,14.1c6-5.1,9.369-10.662,9.369-15.612,0-5.881-3.341-8.559-6.445-8.559-3.061,0-6.179,2.96-6.179,5.867a3.839,3.839,0,0,0,3.984,3.688l.044,0a4.96,4.96,0,0,0,1.615-.276A.8.8,0,0,1,1049.865,77.913Z" fill="#313131"/>
      </g>
    </g>
    <g id="Group_2078" data-name="Group 2078" transform="translate(-5329.628 -11868.32)">
      <path id="Path_2779" data-name="Path 2779" d="M1054.492,135.239c-3.5,0-5.742-1.531-7.723-2.883-1.681-1.147-3.133-2.138-5.156-2.138a7.729,7.729,0,0,0-5.994,3.452,1.093,1.093,0,1,1-1.8-1.246l.016-.024a9.936,9.936,0,0,1,7.773-4.368c2.7,0,4.574,1.281,6.388,2.518,1.886,1.288,3.668,2.5,6.491,2.5,3.579,0,5.12-1.482,6.752-3.052,1.542-1.483,3.136-3.017,6.2-3.017,2.4,0,4.455,1.447,6.44,2.846,2.071,1.46,4.213,2.97,6.818,2.97,1.722,0,3.385-1.158,5.145-2.384a14.614,14.614,0,0,1,5.6-2.811,1.093,1.093,0,1,1,.412,2.147l-.029.005a12.835,12.835,0,0,0-4.734,2.453c-1.96,1.365-3.986,2.776-6.395,2.776-3.3,0-5.837-1.79-8.078-3.369-1.862-1.313-3.47-2.447-5.181-2.447-2.183,0-3.286,1.062-4.684,2.407C1061.063,133.208,1058.952,135.239,1054.492,135.239Z" fill="#019e96"/>
    </g>
    <g id="Group_3270" data-name="Group 3270" transform="translate(-6797.855 -12621.021)">
      <path id="Path_3740" data-name="Path 3740" d="M2706,914.636l37.259-6.091,19.017,57.839-61.818,8.876Z" transform="translate(-56.461 -41.566)" fill="#ff8e9e"/>
      <path id="Path_3741" data-name="Path 3741" d="M2762.029,900.535l-2.14-31.436c-.07-1.019-1.666-1.026-1.6,0l2.14,31.436c.069,1.019,1.665,1.026,1.6,0Z" transform="translate(-83.541 -22.735)" fill="#313131"/>
      <circle id="Ellipse_393" data-name="Ellipse 393" cx="2.537" cy="2.537" r="2.537" transform="translate(2660.696 877.665)" fill="#313131"/>
      <circle id="Ellipse_394" data-name="Ellipse 394" cx="2.537" cy="2.537" r="2.537" transform="translate(2675.273 875.038)" fill="#313131"/>
      <path id="Path_3742" data-name="Path 3742" d="M2628.7,898.558l37.412,5.066,3.956,82.938-76.176-9.67Z" transform="translate(-6.555 -36.889)" fill="#019e96"/>
      <path id="Path_3743" data-name="Path 3743" d="M2702.523,828.892a5.2,5.2,0,0,0-6.321-.172c-4.96,3.321-6.546,11.32-8.31,16.644-3.322,10.026-6.347,20.157-9.229,30.318a.8.8,0,0,0,1.538.424q3.566-12.569,7.515-25.03c1.212-3.808,7.017-26.839,13.679-21.056.772.67,1.905-.454,1.128-1.128Z" transform="translate(-46.236 -3.724)" fill="#313131"/>
      <path id="Path_3744" data-name="Path 3744" d="M2707.447,896.958l6.285-28.5c.22-1-1.317-1.428-1.538-.424l-6.285,28.5c-.22,1,1.317,1.428,1.538.424Z" transform="translate(-59.001 -22.326)" fill="#313131"/>
      <circle id="Ellipse_395" data-name="Ellipse 395" cx="2.537" cy="2.537" r="2.537" transform="translate(2630.612 869.954)" fill="#313131"/>
      <circle id="Ellipse_396" data-name="Ellipse 396" cx="2.537" cy="2.537" r="2.537" transform="translate(2645.321 871.703)" fill="#313131"/>
      <g id="Group_2482" data-name="Group 2482" transform="translate(2579.893 819.783)">
        <path id="Path_3745" data-name="Path 3745" d="M2602.914,890.605l37.412,5.066,1.279,60.872-61.712-9.581Z" transform="translate(-2579.893 -852.948)" fill="#fec739"/>
        <path id="Path_3746" data-name="Path 3746" d="M2666.36,820.94a5.2,5.2,0,0,0-6.321-.172c-4.961,3.321-6.546,11.32-8.31,16.644-3.321,10.026-6.347,20.157-9.229,30.317a.8.8,0,0,0,1.538.424q3.567-12.57,7.515-25.03c1.211-3.808,7.016-26.839,13.679-21.057.772.67,1.905-.453,1.128-1.128Z" transform="translate(-2609.195 -819.783)" fill="#313131"/>
        <path id="Path_3747" data-name="Path 3747" d="M2671.283,890.966l5.794-26.276c.221-1-1.317-1.428-1.538-.424l-5.794,26.276c-.22,1,1.317,1.428,1.539.424Z" transform="translate(-2621.958 -840.345)" fill="#313131"/>
        <circle id="Ellipse_397" data-name="Ellipse 397" cx="2.537" cy="2.537" r="2.537" transform="translate(31.49 45.943)" fill="#313131"/>
        <circle id="Ellipse_398" data-name="Ellipse 398" cx="2.537" cy="2.537" r="2.537" transform="translate(46.199 47.691)" fill="#313131"/>
      </g>
      <path id="Path_3748" data-name="Path 3748" d="M2744.033,835.246a5.125,5.125,0,0,0-5.717,1.2c-4.073,4.151-3.31,12.123-3.454,17.445-.3,11-.22,22.029,0,33.035a.8.8,0,0,0,1.595,0c-.185-9.178-.24-18.364-.112-27.542.055-3.925-.931-26.249,6.881-22.764.929.414,1.742-.96.8-1.378Z" transform="translate(-72.479 -7.047)" fill="#313131"/>
      <path id="Path_3749" data-name="Path 3749" d="M2682.064,845.493a90.222,90.222,0,0,0,2.634-10.523c.683-3.649,2.045-9.347-.369-12.641-.6-.819-1.985-.025-1.377.8,2.389,3.26.621,9.539-.125,13.082-.627,2.98-1.384,5.948-2.3,8.853-.31.982,1.23,1.4,1.539.424Z" transform="translate(-47.106 -1.031)" fill="#313131"/>
      <path id="Path_3750" data-name="Path 3750" d="M2719.25,851.072a88.065,88.065,0,0,0,2.318-10c.511-3.02,1.761-8.213-.624-10.766-.7-.752-1.829.378-1.128,1.128,1.087,1.163.831,3.431.745,4.884a47.013,47.013,0,0,1-.937,6.507c-.529,2.63-1.158,5.25-1.912,7.826a.8.8,0,0,0,1.538.424Z" transform="translate(-64.522 -4.81)" fill="#313131"/>
      <path id="Path_3751" data-name="Path 3751" d="M2756.023,854.064c.284-5.55.482-14.794-4.528-18.448-.831-.606-1.627.778-.805,1.377,2.943,2.147,3.349,7.188,3.614,10.494a50.376,50.376,0,0,1,.124,6.577c-.052,1.026,1.543,1.023,1.6,0Z" transform="translate(-79.82 -7.344)" fill="#313131"/>
    </g>
  </g>
</svg>
