<svg xmlns="http://www.w3.org/2000/svg" width="635.849" height="467.798" viewBox="0 0 635.849 467.798">
  <g id="Group_3299" data-name="Group 3299" transform="translate(7799.924 9655)">
    <g id="Group_3178" data-name="Group 3178" transform="translate(-8446 -13075.888)">
      <g id="Group_2823" data-name="Group 2823" transform="translate(194.643 3386.994)">
        <g id="Group_2077" data-name="Group 2077" transform="translate(-49 81.627)">
          <g id="Group_2075" data-name="Group 2075">
            <path id="Path_2774" data-name="Path 2774" d="M1024.634,96.788a.82.82,0,0,1-.7-1.255,33.47,33.47,0,0,0,5.143-15.741,6.406,6.406,0,0,1-1.016.081,5.46,5.46,0,0,1-5.666-5.246l0-.079c0-3.859,3.8-7.506,7.817-7.506s8.086,3.5,8.086,10.2c0,6.289-4.807,13.358-13.188,19.393A.822.822,0,0,1,1024.634,96.788Zm5.312-18.875a.82.82,0,0,1,.82.82v.019a34.345,34.345,0,0,1-3.474,14.1c6-5.1,9.369-10.662,9.369-15.611,0-5.881-3.341-8.559-6.446-8.559-3.06,0-6.177,2.96-6.177,5.867a3.839,3.839,0,0,0,3.984,3.688l.044,0a4.96,4.96,0,0,0,1.615-.276.8.8,0,0,1,.266-.046Z" fill="#313131"/>
          </g>
          <g id="Group_2076" data-name="Group 2076">
            <path id="Path_2775" data-name="Path 2775" d="M1044.552,96.788a.82.82,0,0,1-.695-1.255A33.47,33.47,0,0,0,1049,79.792a6.427,6.427,0,0,1-1.017.081,5.46,5.46,0,0,1-5.665-5.247l0-.078c0-3.859,3.8-7.506,7.818-7.506s8.085,3.5,8.085,10.2c0,6.29-4.807,13.359-13.188,19.393A.818.818,0,0,1,1044.552,96.788Zm5.313-18.875a.82.82,0,0,1,.82.82v.019a34.347,34.347,0,0,1-3.474,14.1c6-5.1,9.369-10.662,9.369-15.612,0-5.881-3.341-8.559-6.445-8.559-3.061,0-6.179,2.96-6.179,5.867a3.839,3.839,0,0,0,3.984,3.688l.044,0a4.96,4.96,0,0,0,1.615-.276A.8.8,0,0,1,1049.865,77.913Z" fill="#313131"/>
          </g>
        </g>
        <g id="Group_2078" data-name="Group 2078" transform="translate(-232.794 -93.088)">
          <path id="Path_2779" data-name="Path 2779" d="M1054.492,135.239c-3.5,0-5.742-1.531-7.723-2.883-1.681-1.147-3.133-2.138-5.156-2.138a7.729,7.729,0,0,0-5.994,3.452,1.093,1.093,0,1,1-1.8-1.246l.016-.024a9.936,9.936,0,0,1,7.773-4.368c2.7,0,4.574,1.281,6.388,2.518,1.886,1.288,3.668,2.5,6.491,2.5,3.579,0,5.12-1.482,6.752-3.052,1.542-1.483,3.136-3.017,6.2-3.017,2.4,0,4.455,1.447,6.44,2.846,2.071,1.46,4.213,2.97,6.818,2.97,1.722,0,3.385-1.158,5.145-2.384a14.614,14.614,0,0,1,5.6-2.811,1.093,1.093,0,1,1,.412,2.147l-.029.005a12.835,12.835,0,0,0-4.734,2.453c-1.96,1.365-3.986,2.776-6.395,2.776-3.3,0-5.837-1.79-8.078-3.369-1.862-1.313-3.47-2.447-5.181-2.447-2.183,0-3.286,1.062-4.684,2.407C1061.063,133.208,1058.952,135.239,1054.492,135.239Z" fill="#ff8e9e"/>
        </g>
        <g id="Group_2079" data-name="Group 2079" transform="translate(-210.959 328.786)">
          <path id="Path_2780" data-name="Path 2780" d="M793.05,55.8a1.095,1.095,0,0,1-1.569,1.224A275.339,275.339,0,0,0,764.99,44.889a1.1,1.1,0,0,1-.689-.817,1.092,1.092,0,0,1,.336-1.015c6-5.473,11.679-10.882,18.47-17.388a1.092,1.092,0,0,1,1.545.033,1.08,1.08,0,0,1,.25.416C788.1,35.884,790.616,46.006,793.05,55.8ZM767.418,43.479c7.058,2.767,16.065,7.006,22.926,10.5-2.1-8.46-4.306-17.125-6.984-25.529-5.769,5.523-10.77,10.279-15.943,15.025Z" fill="#ff8e9e"/>
        </g>
        <g id="Group_2080" data-name="Group 2080" transform="translate(9 103.516)">
          <path id="Path_2781" data-name="Path 2781" d="M888.271,29.035a7.657,7.657,0,0,0-2.425-.4c-4.778,0-8.706,4.592-8.706,8.923a7.636,7.636,0,0,0,7.677,7.6c.1,0,.21,0,.315-.008a9.223,9.223,0,0,0,9.54-8.628,10.543,10.543,0,0,0-2.7-5.631A7.953,7.953,0,0,0,888.271,29.035Z" fill="#019e96"/>
        </g>
        <g id="Group_2078-2" data-name="Group 2078" transform="translate(177.468 -64.642)">
          <path id="Path_2779-2" data-name="Path 2779" d="M367.159,247.186c-3.5,0-5.742-1.531-7.723-2.883-1.681-1.147-3.133-2.138-5.156-2.138a7.732,7.732,0,0,0-5.994,3.452,1.093,1.093,0,0,1-1.8-1.246l.017-.024a9.936,9.936,0,0,1,7.773-4.368c2.7,0,4.574,1.281,6.388,2.518,1.886,1.288,3.668,2.5,6.491,2.5,3.579,0,5.12-1.482,6.752-3.052,1.542-1.483,3.136-3.017,6.2-3.017,2.4,0,4.455,1.447,6.44,2.846,2.071,1.46,4.213,2.97,6.818,2.97,1.722,0,3.385-1.158,5.145-2.384a14.607,14.607,0,0,1,5.6-2.811,1.093,1.093,0,0,1,.412,2.147l-.029.005a12.849,12.849,0,0,0-4.734,2.453c-1.96,1.365-3.986,2.776-6.395,2.776-3.3,0-5.837-1.79-8.078-3.369-1.862-1.313-3.47-2.447-5.181-2.447-2.183,0-3.286,1.062-4.684,2.407C373.73,245.156,371.619,247.186,367.159,247.186Z" fill="#019e96"/>
        </g>
      </g>
    </g>
    <g id="Group_2822" data-name="Group 2822" transform="translate(-13724.812 -12496.889)">
      <path id="Path_3669" data-name="Path 3669" d="M6049.562,3168.294l-8.989,52.323-85.611-1.239,16.549-86.248Z" transform="translate(-16.438 -146.421)" fill="#fec739"/>
      <path id="Path_3670" data-name="Path 3670" d="M6119.56,3288.147l42.772,11.573c1.386.375,2.129-1.75.731-2.12l-42.772-11.572C6118.905,3285.651,6118.161,3287.777,6119.56,3288.147Z" transform="translate(-105.995 -229.968)" fill="#313131"/>
      <circle id="Ellipse_380" data-name="Ellipse 380" cx="3.568" cy="3.568" r="3.568" transform="translate(6013.796 3033.231)" fill="#313131"/>
      <circle id="Ellipse_381" data-name="Ellipse 381" cx="3.568" cy="3.568" r="3.568" transform="translate(6010.604 3053.815)" fill="#313131"/>
      <path id="Path_3672" data-name="Path 3672" d="M7010.909,3566.024c6.292,3.658,12.332,7.611,18.579,11.213-1.322,7.131-3.077,14.261-4.454,21.393-6.14-2.928-12.383-5.557-18.413-8.486,1.6-8,2.905-16.075,4.284-24.121Z" transform="translate(-591.258 -383.033)" fill="#acd5ff"/>
      <path id="Path_3673" data-name="Path 3673" d="M6461.247,3091.146a58.075,58.075,0,0,0-22.721,17.048c-7.922,9.687-13.085,21.768-16.616,34.845l-34.486,1.219c-2.282-12.828-3.566-25.795-4.606-38.766l-.195-1.154c28.685-4.667,58.64-9.005,78.622-13.186Z" transform="translate(-250.191 -123.473)" fill="#fff"/>
      <path id="Path_3674" data-name="Path 3674" d="M6368.557,3160.154l-15.862.558a275.554,275.554,0,0,1-4.37-36.556l-.219-1.292c5.123-.9,10.365-1.774,15.656-2.632l.2,1.154c1.038,12.972,2.323,25.938,4.606,38.766Z" transform="translate(-231.325 -139.37)" fill="#fff"/>
      <path id="Path_3675" data-name="Path 3675" d="M6868.877,3167.8c-3.087,6.932-6.148,13.927-9.464,20.782-1.806,3.742-3.694,7.456-5.722,11.085-3.928-1.89-7.93-3.772-12.008-5.7q3.3-6.536,6.481-13.15c3.128-6.453,6.205-12.942,9.285-19.394l.006-.017c3.889,2.165,7.7,4.285,11.416,6.39Z" transform="translate(-501.106 -161.878)" fill="#fff"/>
      <path id="Path_3676" data-name="Path 3676" d="M6727.071,3102.785l-.006.017c-3.08,6.452-6.154,12.936-9.284,19.394q-3.182,6.6-6.482,13.151c4.074,1.924,8.075,3.805,12.008,5.695,38.59,18.484,70.2,35.668,113.856,60.442a37.086,37.086,0,0,0-2.713,11.695,100.793,100.793,0,0,1-37.661-4.919c-43.874-15.135-42.829-27.195-71.045-36.929-15.3-5.278-31.42-7.027-46.638-12.26l-.092-.032c-36.232-12.5-40.736-44.861-54.079-66.3-4.82-7.764-10.81-14.087-19.876-17.538-.683-2.883-1.337-5.756-1.932-8.663,27.151-5.2,54.507-16.514,71.026-10.816,25.466,8.786,10.985,17.978,27.277,23.6,21.586,7.447,59.755,1.846,92.924,13.288,14.483,5,5.7,24.437,31.815,33.447,17.381,6,63.621,2.231,93.878.663-1.475,6.2-3.681,13.723-7.62,25.139-10.146,29.413-27.928,45.9-47.244,54.247-23.449-33.227-62.4-60.761-126.69-96.931-3.711-2.1-7.528-4.225-11.416-6.39Z" transform="translate(-370.715 -103.256)" fill="#fff"/>
      <path id="Path_3681" data-name="Path 3681" d="M6603.74,3268.538c-.27.049-.535.084-.785.14-46.1,8.219-80.045,10.02-118.263,6.127-18.856-43.772-23.732-74.667-18.517-109.938.107-.428.216-.856.331-1.283,3.53-13.077,8.7-25.161,16.616-34.845a61.294,61.294,0,0,0,16.5,8.464c14.773,5.1,31.758,4.764,49.382-3.7,13.342,21.439,17.848,53.8,54.08,66.3l.092.031c-1.763,29.861-1.6,51.439.565,68.7Z" transform="translate(-294.788 -144.021)" fill="#ff8e9e"/>
      <path id="Path_3685" data-name="Path 3685" d="M6571.79,3090.948c-17.624,8.466-34.608,8.8-49.382,3.7a61.308,61.308,0,0,1-16.5-8.464,58.076,58.076,0,0,1,22.721-17.048c.5-.112,1.009-.225,1.508-.321.023-.116.044-.218.06-.336a151.431,151.431,0,0,0-1.952-16.88l4.255,2.753a30.789,30.789,0,0,0,15.19-3.472c.556,4.647,1.343,9.266,2.294,13.871.595,2.906,1.249,5.781,1.931,8.663,9.068,3.451,15.058,9.774,19.876,17.538Z" transform="translate(-317.578 -101.464)" fill="#ffc517"/>
      <path id="Path_3688" data-name="Path 3688" d="M6270.605,3163.865l-4.291.148a9.524,9.524,0,0,0-7.8,4.538c-8.319,13.5-23.515,34.988-30.938,50.532l3.994.6.01,16.732-27.543,3.971-5.958-16.959a5.893,5.893,0,0,1,6.624-7.185c1.086-4.594,2.535-9.412,4.239-14.354,7.385-21.409,19.451-44.924,26.665-60.809a22,22,0,0,1,15.954-12.5c4.668-.874,9.508-1.747,14.448-2.584l.218,1.292a275.641,275.641,0,0,0,4.371,36.557Z" transform="translate(-149.235 -142.523)" fill="#ffc517"/>
      <path id="Path_3691" data-name="Path 3691" d="M6626.154,3342.783c-1.89-1.273-3.724-2.527-5.458-3.715-5.657-3.894-10.538-7.254-13.94-8.427-28.244-9.743-48.519,9.544-68.137,28.192-10.032,9.544-19.75,18.779-30.178,23.9.138.333.277.664.421,1,.351.036.7.064,1.042.1,10.332-5.285,19.922-14.4,29.833-23.818,19.258-18.319,39.177-37.261,66.489-27.839,3.191,1.1,7.989,4.405,13.549,8.231,2.007,1.383,4.148,2.853,6.368,4.331,0-.646,0-1.292.007-1.947Z" transform="translate(-318.961 -252.948)" fill="#fff"/>
      <path id="Path_3692" data-name="Path 3692" d="M6617.492,3179.549c4.673,1.612,12.51,1.225,20.043-2.09-.241-.467-.476-.931-.718-1.4-7.077,3.113-14.418,3.479-18.8,1.968-11.776-4.062-18.514-13.736-17.615-24.21-.536.063-1.067.115-1.609.163-.719,11.007,6.494,21.368,18.7,25.577Z" transform="translate(-368.319 -157.727)" fill="#fff"/>
      <path id="Path_3693" data-name="Path 3693" d="M6668.618,3382.474c-.573-.2-1.151-.373-1.748-.524-12.609-3.206-26.5,7.37-30.5,18.974a20.3,20.3,0,0,0,.1,13.32c.58-.034,1.163-.072,1.744-.109a18.725,18.725,0,0,1-.321-12.686c3.772-10.934,16.8-20.924,28.577-17.931.553.142,1.091.3,1.62.485,13.873,4.786,15.792,16.061,12.917,25.334.592-.089,1.19-.19,1.782-.282,2.758-9.856.424-21.544-14.173-26.579Z" transform="translate(-388.297 -282.104)" fill="#fff"/>
      <path id="Path_3694" data-name="Path 3694" d="M6483.318,3303.78c7.717-4.99,14.467-12.431,16.419-18.089,7.092-20.56-6.364-41.236-22.868-46.929a25.83,25.83,0,0,0-11.764-1.209c-.037.556-.071,1.107-.107,1.661a24.2,24.2,0,0,1,11.341,1.078c15.785,5.445,28.652,25.214,21.871,44.872-2.169,6.286-11.869,16.726-23.7,21.34.165.509.337,1.022.506,1.533a45.2,45.2,0,0,0,8.3-4.252Z" transform="translate(-295.216 -203.38)" fill="#fff"/>
      <path id="Path_3695" data-name="Path 3695" d="M6469.862,3286.8a14.235,14.235,0,0,0-4.987-.769c.03.533.073,1.07.111,1.6a12.69,12.69,0,0,1,4.349.692c5.74,1.98,7.932,6.307,6.006,11.891a17.713,17.713,0,0,1-7.3,9.245c.109.552.237,1.11.357,1.665a19.5,19.5,0,0,0,8.469-10.383c2.192-6.355-.495-11.7-7.012-13.948Z" transform="translate(-295.149 -229.993)" fill="#fff"/>
      <path id="Path_3696" data-name="Path 3696" d="M6482.731,3165.388c11.642,4.637,20.915,12.467,29.907,20.059,9.391,7.929,18.265,15.422,29.39,19.26,14.024,4.838,29.573,1.581,42.8-5.106-.371-.438-.745-.89-1.091-1.339-14.507,7.181-29.366,8.985-41.178,4.911-10.843-3.741-19.6-11.137-28.876-18.966-9.077-7.665-18.444-15.566-30.289-20.3-.231.486-.436.988-.666,1.478Z" transform="translate(-304.908 -163.243)" fill="#fff"/>
      <path id="Path_3699" data-name="Path 3699" d="M6875.021,3204.2a1.119,1.119,0,0,1-.126-2.066c20.131-9.864,34.644-27.351,43.138-51.973,3.368-9.764,5.629-17.12,7.23-23.575-3.683.2-7.589.423-11.641.656-29.374,1.69-65.936,3.792-81.157-1.459-15.444-5.327-19.15-14.418-22.128-21.72-2.226-5.452-3.982-9.757-9.687-11.725-18.215-6.284-38.135-7.4-55.711-8.379-14.106-.79-27.417-1.53-37.213-4.909-7.741-2.67-9.083-6.364-10.388-9.939-1.6-4.4-3.254-8.955-16.9-13.661-11.261-3.884-28.262.508-46.262,5.155-5.705,1.476-11.61,3-17.529,4.316a1.121,1.121,0,0,1-.487-2.187c5.885-1.309,11.765-2.83,17.453-4.3,18.338-4.735,35.662-9.208,47.559-5.1,14.653,5.054,16.575,10.347,18.271,15.015,1.269,3.5,2.276,6.26,9.006,8.583,9.493,3.274,22.662,4.009,36.606,4.79,17.724.991,37.808,2.113,56.319,8.5,6.66,2.3,8.788,7.5,11.027,13,2.959,7.245,6.3,15.453,20.788,20.449,14.8,5.106,51.122,3.019,80.294,1.338,4.608-.266,9.029-.521,13.164-.738a1.129,1.129,0,0,1,.922.4,1.113,1.113,0,0,1,.224.974c-1.64,6.887-4,14.666-7.648,25.246-8.695,25.2-23.583,43.123-44.269,53.256a1.129,1.129,0,0,1-.864.051Z" transform="translate(-377.388 -101.92)" fill="#313131"/>
      <path id="Path_3700" data-name="Path 3700" d="M6560.064,3058.1a1.123,1.123,0,0,1,.474-2.176,29.384,29.384,0,0,0,14.542-2.463,1.121,1.121,0,0,1,.915,2.047,31.668,31.668,0,0,1-15.663,2.651,1.175,1.175,0,0,1-.267-.059Z" transform="translate(-346.77 -102.828)" fill="#313131"/>
      <path id="Path_3701" data-name="Path 3701" d="M6892.665,3336.351c-24.5-8.451-35.125-15.983-44.5-22.626-7.589-5.376-14.136-10.018-26.546-14.3a215.56,215.56,0,0,0-23.32-6.134c-6.023-1.343-12.253-2.735-18.285-4.521a1.132,1.132,0,0,1-.754-1.393,1.118,1.118,0,0,1,1.385-.764l.01,0c5.956,1.765,12.146,3.147,18.14,4.485a217,217,0,0,1,23.557,6.2c12.71,4.385,19.708,9.343,27.111,14.589,9.254,6.558,19.742,13.99,43.936,22.337a96.515,96.515,0,0,0,28,4.971,1.121,1.121,0,0,1-.078,2.241,98.765,98.765,0,0,1-28.656-5.092Z" transform="translate(-466.962 -230.288)" fill="#313131"/>
      <path id="Path_3702" data-name="Path 3702" d="M6390.922,3105.9a1.123,1.123,0,0,1,.187-2.168c6.38-1.027,12.8-2.038,19.118-3.03,16.02-2.528,31.158-4.911,43.958-7.265a1.12,1.12,0,0,1,.4,2.2c-12.822,2.361-27.968,4.75-44.005,7.278-6.324,1-12.731,2.009-19.111,3.032a1.109,1.109,0,0,1-.546-.047Z" transform="translate(-254.315 -124.715)" fill="#313131"/>
      <path id="Path_3703" data-name="Path 3703" d="M6362.156,3207.142a1.121,1.121,0,0,1,.326-2.181l44.061-1.554a1.121,1.121,0,1,1,.081,2.241l-44.062,1.556a1.147,1.147,0,0,1-.4-.062Z" transform="translate(-238.59 -184.833)" fill="#313131"/>
      <path id="Path_3705" data-name="Path 3705" d="M6384.868,3154.112a1.122,1.122,0,0,1-.744-.889c-1.882-12.068-2.953-24.134-3.757-34.347a1.122,1.122,0,0,1,2.229-.256c0,.026,0,.053.005.08.794,10.168,1.871,22.184,3.745,34.177a1.13,1.13,0,0,1-.94,1.28,1.1,1.1,0,0,1-.538-.047Z" transform="translate(-248.954 -137.947)" fill="#313131"/>
      <path id="Path_3706" data-name="Path 3706" d="M6832.081,3229.362a1.082,1.082,0,0,1-.118-.049q-3.456-1.647-6.982-3.306l-2.224-1.05q-6.9-3.238-14.189-6.574a1.116,1.116,0,0,1-.551-1.478l0-.008a1.138,1.138,0,0,1,1.486-.552q7.291,3.349,14.2,6.581l2.224,1.05q3.541,1.671,7,3.314a1.121,1.121,0,0,1-.849,2.071Z" transform="translate(-482.649 -191.853)" fill="#313131"/>
      <path id="Path_3707" data-name="Path 3707" d="M6843.363,3190.61a.97.97,0,0,1-.135-.058,1.12,1.12,0,0,1-.5-1.5h0q2.509-5.021,4.943-10.086,3.417-7.05,6.77-14.121l2.525-5.282a1.121,1.121,0,1,1,2.035.942l-.012.024-2.526,5.28q-3.37,7.066-6.773,14.134-2.448,5.071-4.959,10.111a1.119,1.119,0,0,1-1.363.561Z" transform="translate(-501.61 -160.511)" fill="#313131"/>
      <path id="Path_3711" data-name="Path 3711" d="M6313.594,3274.92l384.619-32.979,74.984,173.529L6351.11,3515.582Z" transform="translate(-212.461 -205.895)" fill="#313131"/>
      <path id="Path_3712" data-name="Path 3712" d="M7023.531,3295.668c-9.135-4.726-27.121-13.9-27.336-14.01-5.287-2.558-11.2-1.7-16.987-.26.036-.609.074-1.245.115-1.894a37.112,37.112,0,0,1,2.713-11.695c-43.657-24.774-75.268-41.955-113.856-60.442,2.028-3.63,3.917-7.342,5.722-11.085,3.313-6.854,6.375-13.849,9.463-20.782,64.292,36.17,103.24,63.7,126.689,96.931a148.208,148.208,0,0,1,13.482,23.24Z" transform="translate(-515.588 -169.58)" fill="#ffc517"/>
      <path id="Path_3713" data-name="Path 3713" d="M6444.2,3615.487l-9.173-77.888.37-.045,349.4-43.229.1.282,15.973,45.029-.417.089Zm-8.344-77.242,8.99,76.335,355.041-75.5-15.588-43.941Z" transform="translate(-278.835 -343.844)" fill="#fff"/>
      <path id="Path_3714" data-name="Path 3714" d="M6060.845,3042.8l-23.89,47.41-112.068-32.775,47.788-96.828Z" transform="translate(0 -52.121)" fill="#019e96"/>
      <path id="Path_3715" data-name="Path 3715" d="M6233.354,3214.587a7.309,7.309,0,0,0,3.126-8.324c-2.139-8.117-12.045-13.894-18.315-18.68-11.805-9.012-23.885-17.681-36.07-26.172a1.123,1.123,0,0,0-1.27,1.851q15.075,10.5,29.826,21.467c4.506,3.357,32.461,21.635,21.719,27.839-1.245.719-.27,2.741.982,2.017Z" transform="translate(-139.644 -161.784)" fill="#313131"/>
      <path id="Path_3716" data-name="Path 3716" d="M6159.524,3203.442l35.007,21.426c1.229.751,2.5-1.1,1.269-1.851l-35.007-21.425c-1.229-.752-2.5,1.1-1.27,1.85Z" transform="translate(-127.973 -183.744)" fill="#313131"/>
      <circle id="Ellipse_382" data-name="Ellipse 382" cx="3.568" cy="3.568" r="3.568" transform="translate(6037.844 2996.775)" fill="#313131"/>
      <circle id="Ellipse_383" data-name="Ellipse 383" cx="3.568" cy="3.568" r="3.568" transform="translate(6028.774 3015.527)" fill="#313131"/>
      <g id="Group_2468" data-name="Group 2468" transform="translate(5969.89 2910.606)">
        <path id="Path_3717" data-name="Path 3717" d="M6129.537,3021.734l-23.891,47.41-81.506-26.214,41.036-77.644Z" transform="translate(-6024.139 -2965.287)" fill="#fec739"/>
        <path id="Path_3718" data-name="Path 3718" d="M6265.2,3162.487a7.308,7.308,0,0,0,3.127-8.323c-2.14-8.117-12.045-13.894-18.315-18.68-11.8-9.012-23.885-17.68-36.071-26.172a1.123,1.123,0,0,0-1.269,1.851q15.072,10.5,29.827,21.468c4.507,3.357,32.462,21.635,21.719,27.84-1.245.719-.271,2.74.981,2.017Z" transform="translate(-6126.942 -3043.914)" fill="#313131"/>
        <path id="Path_3719" data-name="Path 3719" d="M6191.375,3151.344l32.274,19.753c1.228.751,2.5-1.1,1.268-1.849l-32.273-19.752C6191.416,3148.744,6190.143,3150.59,6191.375,3151.344Z" transform="translate(-6115.273 -3065.876)" fill="#313131"/>
        <circle id="Ellipse_384" data-name="Ellipse 384" cx="3.568" cy="3.568" r="3.568" transform="translate(82.394 62.547)" fill="#313131"/>
        <circle id="Ellipse_385" data-name="Ellipse 385" cx="3.568" cy="3.568" r="3.568" transform="translate(73.324 81.299)" fill="#313131"/>
      </g>
      <path id="Path_3720" data-name="Path 3720" d="M6193.393,3277.27a7.206,7.206,0,0,0,1.021-8.152c-3.652-7.314-14.6-9.96-21.605-12.592-14.491-5.441-29.183-10.393-43.914-15.149a1.123,1.123,0,0,0-.731,2.121q18.428,5.943,36.664,12.48c5.193,1.872,35.321,10.8,27.106,19.586-.981,1.045.476,2.756,1.463,1.7Z" transform="translate(-110.714 -205.56)" fill="#313131"/>
      <rect id="Rectangle_1444" data-name="Rectangle 1444" width="29.84" height="75.944" rx="14.92" transform="translate(6203.606 2910.527) rotate(-1.84)" fill="#ffc517"/>
      <path id="Path_4155" data-name="Path 4155" d="M6530.971,2945.964h.011l-.187-5.844a12.839,12.839,0,0,0,3.711-.945c4.831-2.022,7.584-6.437,6.151-9.862-1.347-3.216-5.905-4.413-10.456-2.874a30.572,30.572,0,0,0-60.86,5.025l.529,16.462h.011c0,.147,0,.292,0,.44A30.572,30.572,0,0,0,6531,2946.4C6530.991,2946.256,6530.978,2946.111,6530.971,2945.964Z" transform="translate(-297.581 -18.947)" fill="#ffc517"/>
      <path id="Path_4156" data-name="Path 4156" d="M6548.854,2919.648s-27.717,12.427-49.327-20.921c1.672-10.476,12.16-10.276,12.16-10.276S6556.57,2889.21,6548.854,2919.648Z" transform="translate(-314.088 -12.683)" fill="#313131"/>
      <path id="Path_4157" data-name="Path 4157" d="M6484.013,2907.517c1.088-.048-5.931,11.991-16.917,18.894-8.72-30.982,19.761-28.895,19.761-28.895" transform="translate(-295.456 -17.622)" fill="#313131"/>
      <circle id="Ellipse_605" data-name="Ellipse 605" cx="3.568" cy="3.568" r="3.568" transform="translate(6177.906 2915.313)" fill="#313131"/>
      <circle id="Ellipse_606" data-name="Ellipse 606" cx="3.568" cy="3.568" r="3.568" transform="translate(6198.963 2914.637)" fill="#313131"/>
      <path id="Path_4158" data-name="Path 4158" d="M6510.1,2979.6l-1.228,13.559-.174,1.917-1.505-1.412,3.554.063c1.872.033,1.977,2.951.094,2.917l-3.554-.063c-.715-.012-1.58-.593-1.506-1.411l1.229-13.559.173-1.918a1.506,1.506,0,0,1,1.412-1.506,1.468,1.468,0,0,1,1.505,1.412Z" transform="translate(-317.504 -61.731)" fill="#313131"/>
      <path id="Path_4159" data-name="Path 4159" d="M6515.53,3030.588l.076.009c.3.035-.439-.038-.173-.017.223.018.445.036.667.046a16.01,16.01,0,0,0,2.239-.045c.224-.021.448-.047.67-.079.165-.023.274-.119-.021.006a2.075,2.075,0,0,1,.366-.071,8.858,8.858,0,0,0,1.307-.378c.1-.039.2-.082.3-.124.239-.1-.29.15.076-.042a5.39,5.39,0,0,0,.554-.332c.041-.028.257-.226.295-.218-.074-.016-.25.223-.012,0,.089-.084.174-.172.256-.263.061-.068.322-.413.069-.061a1.5,1.5,0,0,1,1.979-.588,1.475,1.475,0,0,1,.587,1.979c-2.186,3.042-6.458,3.478-9.925,3.02a1.467,1.467,0,0,1-1.076-1.762,1.5,1.5,0,0,1,1.762-1.076Z" transform="translate(-321.849 -89.091)" fill="#313131"/>
      <g id="Group_1805" data-name="Group 1805" transform="translate(6166.904 2865.246)">
        <g id="Group_1804" data-name="Group 1804" transform="translate(0)">
          <path id="Path_2446" data-name="Path 2446" d="M6528.338,2892.166a80.938,80.938,0,0,1-1.9,14.078c-24.4-4.668-43.868-9.181-63.993-14.6l-3.8-1.025a54.147,54.147,0,0,1,47.523-25.341C6516.422,2865.4,6528.568,2872.531,6528.338,2892.166Z" transform="translate(-6458.65 -2865.247)" fill="#019e96"/>
        </g>
      </g>
      <g id="Group_1832" data-name="Group 1832" transform="translate(6110.992 2872.79)">
        <path id="Path_2463" data-name="Path 2463" d="M6459.015,2917.162a1.582,1.582,0,0,1-.312,0c-23.506-4.5-43.286-9.02-64.122-14.624l-3.806-1.038c-16.268-4.476-33.505-9.652-54.378-16.1a1.847,1.847,0,0,1-.9-2.431l.005-.012a1.808,1.808,0,0,1,1.94-1.048c20.837,6.435,38.046,11.627,54.27,16.062l3.8,1.029c20.751,5.586,40.448,10.09,63.863,14.572a1.833,1.833,0,0,1,1.307,2.226l0,.007a1.817,1.817,0,0,1-1.659,1.379Z" transform="translate(-6335.336 -2881.884)" fill="#313131"/>
      </g>
    </g>
  </g>
</svg>
