<svg xmlns="http://www.w3.org/2000/svg" width="569.403" height="178.494" viewBox="0 0 569.403 178.494">
  <g id="Group_3298" data-name="Group 3298" transform="translate(7837.836 12696.752)">
    <g id="Group_2220" data-name="Group 2220" transform="translate(-7684.083 -12652.133)">
      <path id="Path_2782" data-name="Path 2782" d="M4470.554,2637.75c-6.053-10.969-19.686-25.708-35.536-37.653s-29.482-17.75-35.537-15.9l-3.343-2.521v7.435c0,10.113,17.407,31.429,38.879,47.61s38.88,21.1,38.88,10.986v-7.43Z" transform="translate(-4387.935 -2567.407)" fill="#ff8e9e"/>
      <ellipse id="Ellipse_257" data-name="Ellipse 257" cx="14.223" cy="50" rx="14.223" ry="50" transform="translate(0 21.461) rotate(-48.976)" fill="#fec739"/>
      <ellipse id="Ellipse_258" data-name="Ellipse 258" cx="10.782" cy="42.965" rx="10.782" ry="42.965" transform="translate(6.81 23.235) rotate(-49.972)" fill="#fff"/>
      <path id="Path_2783" data-name="Path 2783" d="M4466.78,2639.753c-4.889,1.449-17.075-4.1-31.332-14.84-15.472-11.66-28.507-25.763-32.42-34.543" transform="translate(-4388.427 -2568.028)" fill="none" stroke="#313131" stroke-linecap="round" stroke-miterlimit="10" stroke-width="0.418"/>
      <path id="Path_2784" data-name="Path 2784" d="M4444.983,2603.48c11.81,9.853,21.4,20.568,25.258,28.056" transform="translate(-4391.423 -2568.964)" fill="none" stroke="#313131" stroke-linecap="round" stroke-miterlimit="10" stroke-width="0.418"/>
      <path id="Path_2785" data-name="Path 2785" d="M4404.259,2581.881c3.427-.972,10.348,1.42,19.03,6.571" transform="translate(-4388.515 -2567.406)" fill="none" stroke="#313131" stroke-linecap="round" stroke-miterlimit="10" stroke-width="0.418"/>
      <ellipse id="Ellipse_485" data-name="Ellipse 485" cx="7.893" cy="36.679" rx="7.893" ry="36.679" transform="translate(12.457 24.518) rotate(-50)" fill="#fec739"/>
    </g>
    <g id="Group_2814" data-name="Group 2814" transform="translate(-7415.889 -12656.987)">
      <g id="Group_2224" data-name="Group 2224">
        <path id="Path_2782-3" data-name="Path 2782-3" d="M4806.452,2588.648c-9.472-2.623-30.809,7.057-55.612,26.432s-46.139,43.037-55.611,60.466l-5.233,4.086v11.64c0,15.826,27.241,7.373,60.845-18.88s60.843-60.367,60.843-76.193v-11.638Z" transform="translate(-4677.114 -2562.758)" fill="#ff8e9e"/>
        <ellipse id="Ellipse_257-3" data-name="Ellipse 257-3" cx="79.365" cy="21.963" rx="79.365" ry="21.963" transform="translate(0 106.045) rotate(-41.919)" fill="#fec739"/>
        <ellipse id="Ellipse_258-3" data-name="Ellipse 258-3" cx="68.174" cy="16.646" rx="68.174" ry="16.646" transform="translate(10.657 101.018) rotate(-40.987)" fill="#fff"/>
        <path id="Path_2783-3" data-name="Path 2783-3" d="M4800.545,2602.328c-7.651,14.011-26.718,34.6-49.029,52.03-24.213,18.917-44.6,28.148-50.733,23.814" transform="translate(-4677.884 -2564.027)" fill="none" stroke="#313131" stroke-linecap="round" stroke-miterlimit="10" stroke-width="0.655"/>
        <path id="Path_2784-3" data-name="Path 2784-3" d="M4766.434,2602.424c18.479-12.947,33.49-19.213,39.524-16.756" transform="translate(-4682.572 -2562.8)" fill="none" stroke="#313131" stroke-linecap="round" stroke-miterlimit="10" stroke-width="0.655"/>
        <path id="Path_2785-3" data-name="Path 2785-3" d="M4702.705,2665.066c5.361-9.75,16.193-22.634,29.78-35.423" transform="translate(-4678.021 -2565.978)" fill="none" stroke="#313131" stroke-linecap="round" stroke-miterlimit="10" stroke-width="0.655"/>
      </g>
      <ellipse id="Ellipse_483" data-name="Ellipse 483" cx="59.43" cy="13" rx="59.43" ry="13" transform="translate(20.766 96.509) rotate(-41)" fill="#fec739"/>
    </g>
    <g id="Group_2815" data-name="Group 2815" transform="translate(-7837.836 -12696.752)">
      <g id="Group_2222" data-name="Group 2222">
        <path id="Path_2782-2" data-name="Path 2782-2" d="M4329.753,2610.959c-7.858-14.234-25.546-33.359-46.114-48.858s-38.258-23.029-46.111-20.638l-4.339-3.268v9.65c0,13.124,22.588,40.783,50.45,61.779s50.45,27.379,50.45,14.256v-9.653Z" transform="translate(-4222.545 -2519.683)" fill="#ff8e9e"/>
        <ellipse id="Ellipse_257-2" data-name="Ellipse 257-2" cx="18.455" cy="64.878" rx="18.455" ry="64.878" transform="translate(0 27.847) rotate(-48.976)" fill="#fec739"/>
        <ellipse id="Ellipse_258-2" data-name="Ellipse 258-2" cx="13.99" cy="55.751" rx="13.99" ry="55.751" transform="translate(8.838 30.148) rotate(-49.972)" fill="#fff"/>
        <path id="Path_2783-2" data-name="Path 2783-2" d="M4324.856,2613.559c-6.346,1.879-22.156-5.317-40.656-19.257-20.076-15.129-36.987-33.429-42.065-44.823" transform="translate(-4223.185 -2520.489)" fill="none" stroke="#313131" stroke-linecap="round" stroke-miterlimit="10" stroke-width="0.543"/>
        <path id="Path_2784-2" data-name="Path 2784-2" d="M4296.57,2566.49c15.322,12.786,27.765,26.688,32.772,36.406" transform="translate(-4227.072 -2521.704)" fill="none" stroke="#313131" stroke-linecap="round" stroke-miterlimit="10" stroke-width="0.543"/>
        <path id="Path_2785-2" data-name="Path 2785-2" d="M4243.727,2538.463c4.446-1.261,13.427,1.842,24.693,8.527" transform="translate(-4223.298 -2519.682)" fill="none" stroke="#313131" stroke-linecap="round" stroke-miterlimit="10" stroke-width="0.543"/>
      </g>
      <ellipse id="Ellipse_484" data-name="Ellipse 484" cx="11.607" cy="51.537" rx="11.607" ry="51.537" transform="translate(13.975 31.611) rotate(-50)" fill="#fec739"/>
    </g>
  </g>
</svg>
