<svg xmlns="http://www.w3.org/2000/svg" width="365.704" height="277.495" viewBox="0 0 365.704 277.495">
  <g id="Group_3269" data-name="Group 3269" transform="translate(4762.746 11824.835)">
    <path id="Path_4530" data-name="Path 4530" d="M140.074,360.3c45.477-7.174,130.87-49.781,131.445-207.835S154.572-2.557,135.872,1.444,2.53,29.448.322,183.467,94.539,367.483,140.074,360.3Z" transform="matrix(0.017, -1, 1, 0.017, -4763, -11553.359)" fill="#fff7d9"/>
    <g id="Group_2080" data-name="Group 2080" transform="translate(-5370.747 -11763.352)">
      <path id="Path_2781" data-name="Path 2781" d="M888.271,29.035a7.657,7.657,0,0,0-2.425-.4c-4.778,0-8.706,4.592-8.706,8.923a7.636,7.636,0,0,0,7.677,7.6c.1,0,.21,0,.315-.008a9.223,9.223,0,0,0,9.54-8.628,10.543,10.543,0,0,0-2.7-5.631A7.953,7.953,0,0,0,888.271,29.035Z" fill="#019e96"/>
    </g>
    <g id="Group_3268" data-name="Group 3268" transform="translate(-7273.739 -12934.393)">
      <path id="Path_3752" data-name="Path 3752" d="M2645.381,1248.839s19.451,6.281,35.053-1.014c2.229-18.64,7.7-85.706,7.7-85.706l-55.315.4Z" transform="translate(0.845 13.341)" fill="#019e96"/>
      <path id="Path_3753" data-name="Path 3753" d="M2637.5,1201.422l2.866,19.991s9.291,6.349,17.6-3.782,18.958-21.7,25.644-17.854c1.216-15.6,2.491-29.536,2.491-29.536s-6.252-3.669-10.507,1.4S2649.854,1215.808,2637.5,1201.422Z" transform="translate(2.098 15.169)" fill="#fec739"/>
      <path id="Path_3754" data-name="Path 3754" d="M2670.489,1118.07s3.26-.523,3.26,2.271C2671.536,1120.224,2670.489,1120.341,2670.489,1118.07Z" transform="translate(10.934 12.124)" fill="#fec739"/>
      <path id="Path_3755" data-name="Path 3755" d="M2678.133,1120.333l-19.863,19.755.244,29.545-4.274.366s-.122-28.446-.122-30.278,20.755-21.659,20.755-21.659" transform="translate(6.55 12.132)" fill="#fec739"/>
      <rect id="Rectangle_1339" data-name="Rectangle 1339" width="65.547" height="11.129" rx="4.389" transform="translate(2629.665 1171.002)" fill="#ffe894"/>
      <path id="Path_3756" data-name="Path 3756" d="M2666.115,1216.636s-2.627,1-2.252,7.256,1.5,5.505,10.384,8.257,17.515,4.128,23.521,3.878,24.52-2.752,30.4-5.255,5.755-4.128,5.63-6.631,1.375-7.006-3.628-7.506S2666.115,1216.636,2666.115,1216.636Z" transform="translate(9.15 27.882)" fill="#fec739"/>
      <path id="Path_3757" data-name="Path 3757" d="M2665.644,1214.832c0,2.752-.5,4.5,6.381,5.88s17.514,3.5,26.4,3.252,31.651-2.126,32.527-6.505-1.127-7.256-9.383-8.132-54.421-1.126-54.421-1.126Z" transform="translate(9.634 25.683)" fill="#313131"/>
      <path id="Path_3758" data-name="Path 3758" d="M2669.678,1208s-5.495,4.01-6.089,6.683c13.515-2.524,23.168-3.712,38.762,9.208,6.237-6.992,17.079-14.7,31.929-9.06-4.307-9.653-9.059-9.653-9.059-9.653Z" transform="translate(9.086 24.874)" fill="#ff8e9e"/>
      <path id="Path_3759" data-name="Path 3759" d="M2697.139,1216.723c14.665-.3,37.639-1.107,36.809-7.473s-3.874-13.561-37.363-13.561-32.1,12.732-32.1,12.732S2656.18,1217.554,2697.139,1216.723Z" transform="translate(9.14 22.332)" fill="#fec739"/>
      <ellipse id="Ellipse_399" data-name="Ellipse 399" cx="1.333" cy="0.516" rx="1.333" ry="0.516" transform="matrix(0.886, -0.463, 0.463, 0.886, 2700.08, 1221.531)" fill="#fff"/>
      <ellipse id="Ellipse_400" data-name="Ellipse 400" cx="0.516" cy="1.333" rx="0.516" ry="1.333" transform="translate(2706.258 1225.369) rotate(-66.577)" fill="#fff"/>
      <ellipse id="Ellipse_401" data-name="Ellipse 401" cx="0.516" cy="1.333" rx="0.516" ry="1.333" transform="translate(2686.936 1224.268) rotate(-66.577)" fill="#fff"/>
      <ellipse id="Ellipse_402" data-name="Ellipse 402" cx="1.333" cy="0.516" rx="1.333" ry="0.516" transform="translate(2724.198 1226.198) rotate(-60)" fill="#fff"/>
      <ellipse id="Ellipse_403" data-name="Ellipse 403" cx="0.516" cy="1.333" rx="0.516" ry="1.333" transform="translate(2714.552 1220.834) rotate(-21.462)" fill="#fff"/>
    </g>
  </g>
</svg>
