<svg xmlns="http://www.w3.org/2000/svg" width="567" height="394.02" viewBox="0 0 567 394.02">
  <g id="Group_3180" data-name="Group 3180" transform="translate(-100 -4898.118)">
    <path id="Path_3565" data-name="Path 3565" d="M3267.074-2744.552c95.07-7.64,273.675-52.7,275.375-219.28s-243.928-163.185-283.024-158.935-278.773,29.747-283.872,192.081S3171.884-2736.9,3267.074-2744.552Z" transform="translate(-2875.458 8035.641)" fill="#fff1be"/>
    <g id="Group_2376" data-name="Group 2376" transform="translate(-1943.275 3156.688)">
      <path id="Path_2787" data-name="Path 2787" d="M2363.258,1880.635h-5.871a68.161,68.161,0,0,0-34.08,9.132l-5.085,2.935a68.158,68.158,0,0,0-24.948,24.948l-2.936,5.085a68.158,68.158,0,0,0-9.131,34.079v5.872a68.164,68.164,0,0,0,9.131,34.08l2.936,5.084a68.158,68.158,0,0,0,24.948,24.948l5.085,2.936a68.163,68.163,0,0,0,34.08,9.132h5.871a68.161,68.161,0,0,0,34.08-9.132l5.085-2.936a68.169,68.169,0,0,0,24.948-24.948l2.935-5.084a68.155,68.155,0,0,0,9.132-34.08v-5.872a68.149,68.149,0,0,0-9.132-34.079l-2.935-5.085a68.169,68.169,0,0,0-24.948-24.948l-5.085-2.935A68.159,68.159,0,0,0,2363.258,1880.635Z" transform="translate(-64.437 -57.523)" fill="#ff8e9e"/>
      <path id="Path_2788" data-name="Path 2788" d="M2376.453,1885.033h-5.871a68.158,68.158,0,0,0-34.079,9.132l-5.085,2.936a68.156,68.156,0,0,0-24.949,24.948l-2.936,5.085a68.157,68.157,0,0,0-9.132,34.08v5.872a68.158,68.158,0,0,0,9.132,34.08l2.936,5.085a68.157,68.157,0,0,0,24.949,24.948l5.085,2.936a68.157,68.157,0,0,0,34.079,9.131h5.871a68.162,68.162,0,0,0,34.08-9.131l5.084-2.936a68.164,68.164,0,0,0,24.948-24.948l2.936-5.085a68.155,68.155,0,0,0,9.131-34.08v-5.872a68.154,68.154,0,0,0-9.131-34.08l-2.936-5.085a68.163,68.163,0,0,0-24.948-24.948l-5.084-2.936A68.163,68.163,0,0,0,2376.453,1885.033Z" transform="translate(-69.486 -59.206)" fill="#019e96"/>
      <g id="Group_2083" data-name="Group 2083" transform="translate(2444.874 2062.646) rotate(-39)">
        <path id="Path_2789" data-name="Path 2789" d="M28.267,11.189c-4.741,0-7.783-2.076-10.468-3.908-2.277-1.555-4.245-2.9-6.989-2.9A10.477,10.477,0,0,0,2.687,9.061,1.481,1.481,0,1,1,.276,7.34,13.462,13.462,0,0,1,10.81,1.42c3.658,0,6.2,1.736,8.66,3.413,2.556,1.745,4.971,3.393,8.8,3.393,4.851,0,6.939-2.01,9.151-4.137C39.507,2.079,41.669,0,45.82,0c3.258,0,6.041,1.961,8.73,3.857,2.809,1.979,5.711,4.026,9.241,4.026,2.336,0,4.588-1.57,6.975-3.232,2.8-1.947,5.686-3.96,9.276-3.96,2.045,0,4.375,1.628,7.6,3.88.875.611,1.807,1.262,2.791,1.918a1.481,1.481,0,1,1-1.644,2.465c-1-.668-1.952-1.331-2.843-1.954-2.355-1.645-4.79-3.346-5.9-3.346-2.659,0-5.051,1.666-7.583,3.429-2.656,1.85-5.4,3.764-8.668,3.764-4.469,0-7.911-2.427-10.948-4.567-2.525-1.78-4.7-3.316-7.023-3.316-2.957,0-4.453,1.44-6.347,3.261C37.173,8.436,34.312,11.189,28.267,11.189Z" transform="translate(0 0)" fill="#ff8e9e"/>
      </g>
      <g id="Group_2084" data-name="Group 2084" transform="translate(2076.843 1904.943)">
        <path id="Path_2790" data-name="Path 2790" d="M2134.142,1929.535a1.481,1.481,0,0,1-.992-.381l-5.792-5.205c-5.376-4.825-10.935-9.814-16.287-14.766a1.481,1.481,0,0,1,.031-2.2q5.3-4.633,10.534-9.268c4.654-4.106,9.307-8.212,14.035-12.317a1.483,1.483,0,0,1,2.044.1q6.068,6.365,12.058,12.808,4.425,4.731,8.866,9.447a1.48,1.48,0,0,1-.146,2.17c-7.688,6.212-15.637,12.635-23.389,19.262A1.484,1.484,0,0,1,2134.142,1929.535Zm-19.849-21.409c4.961,4.569,10.081,9.164,15.044,13.618l4.831,4.34c7.048-6,14.232-11.817,21.22-17.465q-3.9-4.136-7.78-8.294-5.516-5.9-11.062-11.762c-4.356,3.79-8.652,7.582-12.948,11.373Q2118.956,1904.031,2114.292,1908.126Z" transform="translate(-2110.596 -1885.033)" fill="#019e96"/>
      </g>
      <g id="Group_2085" data-name="Group 2085" transform="translate(2375.001 1789.653)">
        <path id="Path_2791" data-name="Path 2791" d="M2598.022,1768.913c-7.428,0-15.385-8.447-15.385-14.391,0-.5-.036-1-.07-1.494-.039-.567-.077-1.135-.077-1.7,0-7.341,8.122-15.875,18.592-15.875a16.921,16.921,0,0,1,5.788.993,14.626,14.626,0,0,1,8.8,7.959,16.352,16.352,0,0,1,1.709,6.939c0,7.656-7.056,17.369-14.986,17.369-.785,0-1.519.052-2.228.1C2599.434,1768.864,2598.728,1768.913,2598.022,1768.913Zm3.06-30.5c-8.657,0-15.628,7.064-15.628,12.912,0,.5.037.995.071,1.495.039.567.077,1.135.077,1.7,0,4.408,6.783,11.428,12.421,11.428.638,0,1.276-.046,1.936-.091.776-.054,1.578-.108,2.434-.108,6.079,0,12.023-8.249,12.023-14.406a13.3,13.3,0,0,0-1.47-5.771,11.74,11.74,0,0,0-7.088-6.341A13.949,13.949,0,0,0,2601.082,1738.416Z" transform="translate(-2582.49 -1735.453)" fill="#ff8e9e"/>
      </g>
      <g id="Group_2086" data-name="Group 2086" transform="translate(2491.149 1843.577)">
        <path id="Path_2792" data-name="Path 2792" d="M2067.241,1740.7a11.988,11.988,0,0,0-6.616,10.791,9.455,9.455,0,0,0,9.768,9.675c7.547,0,12.215-6.627,12.215-12.6,0-6.379-6.731-9.188-10.094-9.188A11.662,11.662,0,0,0,2067.241,1740.7Z" transform="translate(-2060.625 -1739.385)" fill="#ffc517"/>
      </g>
      <g id="Group_2087" data-name="Group 2087" transform="translate(2271.616 1741.431)">
        <path id="Path_2793" data-name="Path 2793" d="M2371.536,1765.894a1.482,1.482,0,0,1-.951-2.62c4.37-3.641,8.8-6.961,13.077-10.172,1.976-1.48,3.952-2.962,5.926-4.477a1.481,1.481,0,1,1,1.8,2.351c-1.983,1.522-3.966,3.009-5.951,4.5-4.251,3.189-8.647,6.486-12.956,10.077A1.48,1.48,0,0,1,2371.536,1765.894Z" transform="translate(-2370.052 -1748.318)" fill="#fec739"/>
      </g>
      <circle id="Ellipse_259" data-name="Ellipse 259" cx="61.366" cy="61.366" r="61.366" transform="translate(2242.665 1843.577)" fill="#fff"/>
      <path id="Path_2795" data-name="Path 2795" d="M2349.791,1932.942a61.374,61.374,0,0,1,105.258,32.333" transform="translate(-90.683 -70.161)" fill="none" stroke="#313131" stroke-linecap="round" stroke-miterlimit="10" stroke-width="1.5"/>
      <path id="Path_2796" data-name="Path 2796" d="M2455.837,2042.628a61.382,61.382,0,0,1-98.788,28.135" transform="translate(-93.461 -119.514)" fill="none" stroke="#313131" stroke-linecap="round" stroke-miterlimit="10" stroke-width="1.5"/>
      <path id="Path_2797" data-name="Path 2797" d="M2405.445,1964.522l7.384,14.962a3.507,3.507,0,0,0,2.639,1.917l16.512,2.4a3.5,3.5,0,0,1,1.942,5.976l-11.949,11.647a3.5,3.5,0,0,0-1.008,3.1l2.821,16.445a3.5,3.5,0,0,1-5.083,3.693l-14.769-7.765a3.506,3.506,0,0,0-3.261,0l-14.768,7.765a3.5,3.5,0,0,1-5.083-3.693l2.82-16.445a3.5,3.5,0,0,0-1.007-3.1l-11.949-11.647a3.5,3.5,0,0,1,1.942-5.976l16.511-2.4a3.5,3.5,0,0,0,2.638-1.917l7.385-14.962A3.5,3.5,0,0,1,2405.445,1964.522Z" transform="translate(-98.273 -88.877)" fill="#fec739"/>
      <path id="Path_2798" data-name="Path 2798" d="M2526.293,1955.465h-5.872a68.163,68.163,0,0,0-34.08,9.132l-5.085,2.935a68.164,68.164,0,0,0-24.947,24.948l-2.937,5.085a68.167,68.167,0,0,0-9.131,34.08v5.872a68.168,68.168,0,0,0,9.131,34.08l2.937,5.085a68.16,68.16,0,0,0,24.947,24.948l5.085,2.936a68.162,68.162,0,0,0,34.08,9.132h5.872a68.159,68.159,0,0,0,34.079-9.132l5.084-2.936a68.152,68.152,0,0,0,24.948-24.948l2.936-5.085a68.158,68.158,0,0,0,9.132-34.08v-5.872a68.158,68.158,0,0,0-9.132-34.08l-2.936-5.085a68.156,68.156,0,0,0-24.948-24.948l-5.084-2.935A68.159,68.159,0,0,0,2526.293,1955.465Z" transform="translate(-126.827 -86.159)" fill="#ff8e9e"/>
      <path id="Path_2799" data-name="Path 2799" d="M2539.487,1959.864h-5.872a68.159,68.159,0,0,0-34.08,9.131l-5.085,2.936a68.162,68.162,0,0,0-24.948,24.948l-2.935,5.085a68.156,68.156,0,0,0-9.131,34.08v5.871a68.156,68.156,0,0,0,9.131,34.08l2.935,5.084a68.171,68.171,0,0,0,24.948,24.948l5.085,2.936a68.165,68.165,0,0,0,34.08,9.132h5.872a68.162,68.162,0,0,0,34.08-9.132l5.085-2.936a68.171,68.171,0,0,0,24.948-24.948l2.935-5.084a68.157,68.157,0,0,0,9.132-34.08v-5.871a68.157,68.157,0,0,0-9.132-34.08l-2.935-5.085a68.162,68.162,0,0,0-24.948-24.948l-5.085-2.936A68.157,68.157,0,0,0,2539.487,1959.864Z" transform="translate(-131.877 -87.842)" fill="#019e96"/>
      <circle id="Ellipse_260" data-name="Ellipse 260" cx="61.366" cy="61.366" r="61.366" transform="translate(2343.309 1889.771)" fill="#fff"/>
      <path id="Path_2800" data-name="Path 2800" d="M2512.825,2007.772a61.373,61.373,0,0,1,105.257,32.333" transform="translate(-153.072 -98.797)" fill="none" stroke="#313131" stroke-linecap="round" stroke-miterlimit="10" stroke-width="1.5"/>
      <path id="Path_2801" data-name="Path 2801" d="M2618.872,2117.459a61.384,61.384,0,0,1-98.789,28.134" transform="translate(-155.85 -148.15)" fill="none" stroke="#313131" stroke-linecap="round" stroke-miterlimit="10" stroke-width="1.5"/>
      <path id="Path_2802" data-name="Path 2802" d="M2568.479,2039.352l7.385,14.963a3.5,3.5,0,0,0,2.637,1.917l16.512,2.4a3.5,3.5,0,0,1,1.942,5.976l-11.948,11.646a3.5,3.5,0,0,0-1.008,3.1l2.821,16.446a3.5,3.5,0,0,1-5.083,3.692l-14.769-7.764a3.5,3.5,0,0,0-3.26,0l-14.769,7.764a3.5,3.5,0,0,1-5.083-3.692l2.821-16.446a3.5,3.5,0,0,0-1.008-3.1l-11.948-11.646a3.5,3.5,0,0,1,1.941-5.976l16.512-2.4a3.5,3.5,0,0,0,2.638-1.917l7.384-14.963A3.5,3.5,0,0,1,2568.479,2039.352Z" transform="translate(-160.662 -117.513)" fill="#fec739"/>
      <path id="Path_2803" data-name="Path 2803" d="M2257.812,2022.023h-5.872a68.163,68.163,0,0,0-34.08,9.131l-5.084,2.936a68.158,68.158,0,0,0-24.948,24.948l-2.936,5.085a68.16,68.16,0,0,0-9.132,34.08v5.872a68.155,68.155,0,0,0,9.132,34.079l2.936,5.085a68.156,68.156,0,0,0,24.948,24.948l5.084,2.936a68.161,68.161,0,0,0,34.08,9.132h5.872a68.162,68.162,0,0,0,34.08-9.132l5.085-2.936a68.15,68.15,0,0,0,24.947-24.948l2.937-5.085a68.159,68.159,0,0,0,9.131-34.079V2098.2a68.165,68.165,0,0,0-9.131-34.08l-2.937-5.085a68.151,68.151,0,0,0-24.947-24.948l-5.085-2.936A68.164,68.164,0,0,0,2257.812,2022.023Z" transform="translate(-24.085 -111.629)" fill="#ff8e9e"/>
      <path id="Path_2804" data-name="Path 2804" d="M2271.007,2026.421h-5.872a68.149,68.149,0,0,0-34.079,9.132l-5.085,2.935a68.161,68.161,0,0,0-24.948,24.948l-2.936,5.085a68.158,68.158,0,0,0-9.131,34.08v5.872a68.162,68.162,0,0,0,9.131,34.08l2.936,5.084a68.162,68.162,0,0,0,24.948,24.948l5.085,2.936a68.158,68.158,0,0,0,34.079,9.132h5.872a68.163,68.163,0,0,0,34.08-9.132l5.085-2.936a68.171,68.171,0,0,0,24.948-24.948l2.936-5.084a68.159,68.159,0,0,0,9.132-34.08V2102.6a68.155,68.155,0,0,0-9.132-34.08l-2.936-5.085a68.17,68.17,0,0,0-24.948-24.948l-5.085-2.935A68.154,68.154,0,0,0,2271.007,2026.421Z" transform="translate(-29.134 -113.312)" fill="#019e96"/>
      <circle id="Ellipse_261" data-name="Ellipse 261" cx="61.366" cy="61.366" r="61.366" transform="translate(2177.571 1930.859)" fill="#fff"/>
      <path id="Path_2805" data-name="Path 2805" d="M2244.345,2074.33a61.374,61.374,0,0,1,105.258,32.332" transform="translate(-50.331 -124.267)" fill="none" stroke="#313131" stroke-linecap="round" stroke-miterlimit="10" stroke-width="1.5"/>
      <path id="Path_2806" data-name="Path 2806" d="M2350.392,2184.016a61.382,61.382,0,0,1-98.789,28.134" transform="translate(-53.108 -173.62)" fill="none" stroke="#313131" stroke-linecap="round" stroke-miterlimit="10" stroke-width="1.5"/>
      <path id="Path_2807" data-name="Path 2807" d="M2300,2105.909l7.385,14.963a3.5,3.5,0,0,0,2.637,1.916l16.512,2.4a3.5,3.5,0,0,1,1.942,5.975l-11.948,11.647a3.5,3.5,0,0,0-1.008,3.1l2.821,16.445a3.5,3.5,0,0,1-5.083,3.693l-14.769-7.765a3.5,3.5,0,0,0-3.26,0l-14.768,7.765a3.5,3.5,0,0,1-5.083-3.693l2.821-16.445a3.5,3.5,0,0,0-1.007-3.1l-11.948-11.647a3.5,3.5,0,0,1,1.941-5.975l16.512-2.4a3.5,3.5,0,0,0,2.637-1.916l7.385-14.963A3.5,3.5,0,0,1,2300,2105.909Z" transform="translate(-57.921 -142.983)" fill="#fec739"/>
    </g>
  </g>
</svg>
