<svg xmlns="http://www.w3.org/2000/svg" width="73.136" height="95.772" viewBox="0 0 73.136 95.772">
  <g id="Group_3272" data-name="Group 3272" transform="translate(-1038.434 -2396.136)">
    <g id="Group_2239" data-name="Group 2239" transform="translate(1038.434 2396.136)">
      <path id="Path_3128" data-name="Path 3128" d="M1152.932,647.477c17.784.724,22.005-31.714,23.624-37.215s-.36-7.653-.36-7.653l-11.5,12.777-14.48-30.665-11.074,9.37,2.981,8.944-11.925,8.518,3.833,17.036,4.684-.851S1135.631,646.773,1152.932,647.477Z" transform="translate(-1104.055 -551.717)" fill="#ffc517"/>
      <g id="Group_2238" data-name="Group 2238" transform="translate(0 0)">
        <path id="Path_3129" data-name="Path 3129" d="M1101.312,573.839l9.133,27.693a4.4,4.4,0,0,0,5.742,2.733l50.916-19.381a4.4,4.4,0,0,0,2.553-5.655l-10.65-28.4a4.4,4.4,0,0,0-5.776-2.529l-49.4,20.088A4.4,4.4,0,0,0,1101.312,573.839Z" transform="translate(-1101.089 -547.973)" fill="#019e96"/>
        <path id="Path_3130" data-name="Path 3130" d="M1110.233,600.7l58.925-22.049-2.456-6.654-59.3,21.329Z" transform="translate(-1101.733 -550.42)" fill="#191e35"/>
      </g>
      <path id="Path_3131" data-name="Path 3131" d="M1158.214,639.584c-1.229-11.541,8.92-20.992,9.022-21.086l.607.661c-.1.092-9.916,9.245-8.737,20.33Z" transform="translate(-1106.899 -555.159)" fill="#fff"/>
      <path id="Path_3132" data-name="Path 3132" d="M1149.2,626.487l-5.391-21.279.872-.216,5.282,21.495Z" transform="translate(-1106.182 -553.782)" fill="#fff"/>
      <path id="Path_3133" data-name="Path 3133" d="M1141.575,629.746,1137.545,610l.881-.179,4.007,19.774Z" transform="translate(-1105.713 -554.274)" fill="#fff"/>
      <path id="Path_3134" data-name="Path 3134" d="M1157.788,597.381l-6.7-13.979-6.062,2.322,3.869,13.027Z" transform="translate(-1105.567 -551.583)" fill="#fec739"/>
      <rect id="Rectangle_265" data-name="Rectangle 265" width="11.141" height="0.898" transform="translate(40.186 59.085) rotate(-26.565)" fill="#fff"/>
      <circle id="Ellipse_674" data-name="Ellipse 674" cx="3.393" cy="3.393" r="3.393" transform="translate(39.21 30.141)" fill="#fec739"/>
      <rect id="Rectangle_266" data-name="Rectangle 266" width="0.72" height="22.98" transform="translate(39.12 34.249) rotate(-17.242)" fill="#fff"/>
    </g>
    <circle id="Ellipse_675" data-name="Ellipse 675" cx="4.009" cy="4.009" r="4.009" transform="translate(1074.56 2466.372)" fill="#ffc517"/>
    <circle id="Ellipse_676" data-name="Ellipse 676" cx="3.393" cy="3.393" r="3.393" transform="translate(1068.391 2468.222)" fill="#ffc517"/>
    <path id="Path_4306" data-name="Path 4306" d="M-68.618,8717.86a2.943,2.943,0,0,0,3.74,1.724,2.886,2.886,0,0,0,2.246-3.673c.416,1.354,2.039,3.736,4.807,2.987s3.076-3.184,2.495-5.031-1.022-3.829-1.022-3.829" transform="translate(1137.245 -6244.876)" fill="none" stroke="#fff" stroke-width="1"/>
    <path id="Path_4307" data-name="Path 4307" d="M-60.323,8712.626l1.077,5.187" transform="translate(1134.067 -6245.868)" fill="none" stroke="#fff" stroke-width="1"/>
  </g>
</svg>
