<svg xmlns="http://www.w3.org/2000/svg" width="990.39" height="381.827" viewBox="0 0 990.39 381.827">
  <g id="Group_3290" data-name="Group 3290" transform="translate(8297 8243.178)">
    <g id="Group_3289" data-name="Group 3289">
      <g id="symbols" transform="translate(-8118.917 -8244.178)">
        <g id="Group_1746" data-name="Group 1746" transform="translate(507.033 268.482)">
          <path id="Path_2410" data-name="Path 2410" d="M2536.821,816.014c-4.219,0-6.926-1.847-9.316-3.478-2.026-1.383-3.778-2.578-6.219-2.578a9.323,9.323,0,0,0-7.229,4.164,1.318,1.318,0,1,1-2.146-1.532,11.982,11.982,0,0,1,9.375-5.268c3.255,0,5.518,1.544,7.707,3.037,2.274,1.552,4.423,3.019,7.827,3.019,4.317,0,6.175-1.788,8.144-3.681,1.859-1.789,3.782-3.639,7.477-3.639,2.9,0,5.375,1.745,7.769,3.432,2.5,1.761,5.082,3.583,8.224,3.583,2.078,0,4.083-1.4,6.208-2.876,2.487-1.733,5.06-3.524,8.255-3.524,1.818,0,3.893,1.449,6.761,3.453.779.544,1.608,1.122,2.483,1.706a1.318,1.318,0,1,1-1.461,2.194c-.893-.6-1.738-1.185-2.531-1.739-2.1-1.464-4.262-2.977-5.252-2.977-2.367,0-4.5,1.482-6.749,3.051-2.364,1.646-4.81,3.349-7.714,3.349-3.977,0-7.041-2.16-9.743-4.065-2.246-1.583-4.185-2.95-6.249-2.95-2.632,0-3.964,1.281-5.649,2.9C2544.748,813.564,2542.2,816.014,2536.821,816.014Z" transform="translate(-2511.666 -806.057)" fill="#ff8e9e"/>
        </g>
        <g id="Group_1747" data-name="Group 1747" transform="translate(-134.069 268.482)">
          <path id="Path_2411" data-name="Path 2411" d="M1975.079,797.12a1.319,1.319,0,0,1-1-2.184,332.091,332.091,0,0,0,21.684-27.662,1.32,1.32,0,0,1,2.248.1c4.729,8.582,9.483,16.756,15.206,26.552a1.318,1.318,0,0,1-1.031,1.979C1999.835,796.917,1987.255,797.021,1975.079,797.12Zm21.661-26.6c-5.234,7.5-12.731,16.874-18.764,23.942,10.516-.091,21.3-.239,31.908-1.019C2005.026,785.122,2000.85,777.921,1996.74,770.517Z" transform="translate(-1973.76 -766.695)" fill="#ff8e9e"/>
        </g>
        <g id="Group_2352" data-name="Group 2352" transform="translate(452.931 9.637)">
          <path id="Path_2411-2" data-name="Path 2411" d="M1975.079,797.12a1.319,1.319,0,0,1-1-2.184,332.091,332.091,0,0,0,21.684-27.662,1.32,1.32,0,0,1,2.248.1c4.729,8.582,9.483,16.756,15.206,26.552a1.318,1.318,0,0,1-1.031,1.979C1999.835,796.917,1987.255,797.021,1975.079,797.12Zm21.661-26.6c-5.234,7.5-12.731,16.874-18.764,23.942,10.516-.091,21.3-.239,31.908-1.019C2005.026,785.122,2000.85,777.921,1996.74,770.517Z" transform="translate(-1973.76 -766.695)" fill="#047b77"/>
        </g>
        <g id="Group_2354" data-name="Group 2354" transform="matrix(-0.588, -0.809, 0.809, -0.588, 331.095, 382.827)">
          <path id="Path_2411-3" data-name="Path 2411" d="M1975.079,797.12a1.319,1.319,0,0,1-1-2.184,332.091,332.091,0,0,0,21.684-27.662,1.32,1.32,0,0,1,2.248.1c4.729,8.582,9.483,16.756,15.206,26.552a1.318,1.318,0,0,1-1.031,1.979C1999.835,796.917,1987.255,797.021,1975.079,797.12Zm21.661-26.6c-5.234,7.5-12.731,16.874-18.764,23.942,10.516-.091,21.3-.239,31.908-1.019C2005.026,785.122,2000.85,777.921,1996.74,770.517Z" transform="translate(-1973.76 -766.695)" fill="#019e96"/>
        </g>
        <g id="Group_1748" data-name="Group 1748" transform="translate(646.987 64.444)">
          <path id="Path_2412" data-name="Path 2412" d="M2692.142,963.912c-6.61,0-13.691-7.517-13.691-12.807,0-.441-.031-.885-.063-1.33-.035-.505-.069-1.01-.069-1.512,0-6.533,7.228-14.127,16.546-14.127a15.029,15.029,0,0,1,5.149.884,13.015,13.015,0,0,1,7.83,7.082,14.544,14.544,0,0,1,1.521,6.175c0,6.813-6.279,15.457-13.336,15.457-.7,0-1.353.046-1.983.09C2693.4,963.87,2692.771,963.912,2692.142,963.912Zm2.724-27.138c-7.705,0-13.909,6.286-13.909,11.49,0,.441.033.885.064,1.33.034.5.068,1.01.068,1.512,0,3.923,6.037,10.17,11.054,10.17.567,0,1.136-.041,1.722-.081.691-.047,1.4-.1,2.166-.1,5.41,0,10.7-7.341,10.7-12.821a11.844,11.844,0,0,0-1.307-5.136,10.451,10.451,0,0,0-6.309-5.643A12.4,12.4,0,0,0,2694.866,936.774Z" transform="translate(-2678.32 -934.137)" fill="#ff8e9e"/>
        </g>
        <g id="Group_2351" data-name="Group 2351" transform="translate(115.386 25.175)">
          <path id="Path_2412-2" data-name="Path 2412" d="M2692.142,963.912c-6.61,0-13.691-7.517-13.691-12.807,0-.441-.031-.885-.063-1.33-.035-.505-.069-1.01-.069-1.512,0-6.533,7.228-14.127,16.546-14.127a15.029,15.029,0,0,1,5.149.884,13.015,13.015,0,0,1,7.83,7.082,14.544,14.544,0,0,1,1.521,6.175c0,6.813-6.279,15.457-13.336,15.457-.7,0-1.353.046-1.983.09C2693.4,963.87,2692.771,963.912,2692.142,963.912Zm2.724-27.138c-7.705,0-13.909,6.286-13.909,11.49,0,.441.033.885.064,1.33.034.5.068,1.01.068,1.512,0,3.923,6.037,10.17,11.054,10.17.567,0,1.136-.041,1.722-.081.691-.047,1.4-.1,2.166-.1,5.41,0,10.7-7.341,10.7-12.821a11.844,11.844,0,0,0-1.307-5.136,10.451,10.451,0,0,0-6.309-5.643A12.4,12.4,0,0,0,2694.866,936.774Z" transform="translate(-2678.32 -934.137)" fill="#ff8e9e"/>
        </g>
        <g id="Group_1749" data-name="Group 1749" transform="translate(146.432 234.108)">
          <path id="Path_2413" data-name="Path 2413" d="M2082.917,675.208a8.13,8.13,0,0,0-4.487,7.319,6.413,6.413,0,0,0,6.624,6.563c5.119,0,8.285-4.5,8.285-8.545,0-4.326-4.566-6.231-6.846-6.231A7.9,7.9,0,0,0,2082.917,675.208Z" transform="translate(-2078.43 -674.314)" fill="#019e96"/>
        </g>
        <g id="Group_1750" data-name="Group 1750" transform="translate(417.545 75.637)">
          <path id="Path_2414" data-name="Path 2414" d="M2573.26,401.488a1.319,1.319,0,0,1-.846-2.332c3.888-3.24,7.827-6.195,11.637-9.052,1.759-1.318,3.516-2.636,5.273-3.985a1.318,1.318,0,0,1,1.6,2.092c-1.765,1.355-3.53,2.678-5.3,4-3.783,2.837-7.7,5.771-11.531,8.968A1.312,1.312,0,0,1,2573.26,401.488Z" transform="translate(-2571.939 -385.848)" fill="#fec739"/>
        </g>
        <g id="Group_1751" data-name="Group 1751" transform="translate(-178.083 162.03)">
          <path id="Path_2415" data-name="Path 2415" d="M1954,678.488a1.31,1.31,0,0,1-.782-.258c-1.789-1.319-3.548-2.647-5.308-3.974-3.777-2.851-7.684-5.8-11.819-8.6a1.318,1.318,0,1,1,1.478-2.184c4.192,2.838,8.124,5.806,11.929,8.676,1.752,1.322,3.5,2.644,5.285,3.958a1.318,1.318,0,0,1-.784,2.379Z" transform="translate(-1935.508 -663.249)" fill="#fec739"/>
        </g>
        <g id="Group_1752" data-name="Group 1752" transform="translate(696.361 199.742)">
          <path id="Path_2416" data-name="Path 2416" d="M2609.829,520.741c6.028,1.188,11.943,2.681,17.923,3.836.906,6.059,1.474,12.236,2.337,18.311-5.709-.648-11.421-1.027-17.042-1.7C2612.126,534.356,2610.939,527.552,2609.829,520.741Z" transform="translate(-2609.829 -520.741)" fill="#019e96"/>
        </g>
        <g id="Group_1753" data-name="Group 1753" transform="translate(0 85.167)">
          <path id="Path_2417" data-name="Path 2417" d="M1819.911,428.556a1.317,1.317,0,0,1-1.181-.729c-3.061-6.125-4.507-12.634-6.036-19.523q-.384-1.736-.784-3.493a1.318,1.318,0,0,1,2.57-.588c.271,1.176.53,2.347.788,3.51,1.492,6.727,2.9,13.082,5.82,18.916a1.318,1.318,0,0,1-1.178,1.909Z" transform="translate(-1811.878 -403.196)" fill="#ff8e9e"/>
        </g>
        <g id="Group_2353" data-name="Group 2353" transform="translate(432.376 255.803)">
          <path id="Path_2417-2" data-name="Path 2417" d="M1819.911,428.556a1.317,1.317,0,0,1-1.181-.729c-3.061-6.125-4.507-12.634-6.036-19.523q-.384-1.736-.784-3.493a1.318,1.318,0,0,1,2.57-.588c.271,1.176.53,2.347.788,3.51,1.492,6.727,2.9,13.082,5.82,18.916a1.318,1.318,0,0,1-1.178,1.909Z" transform="translate(-1811.878 -403.196)" fill="#ff8e9e"/>
        </g>
        <g id="Group_1754" data-name="Group 1754" transform="translate(230.53 79.753)">
          <path id="Path_2418" data-name="Path 2418" d="M2232.834,407.807a1.319,1.319,0,0,1-.591-2.5,107.417,107.417,0,0,0,14.075-9.021c1.269-.906,2.54-1.816,3.823-2.71a1.318,1.318,0,1,1,1.509,2.162c-1.273.89-2.539,1.793-3.8,2.695a111.13,111.13,0,0,1-14.43,9.234A1.317,1.317,0,0,1,2232.834,407.807Z" transform="translate(-2231.514 -393.341)" fill="#ff8e9e"/>
        </g>
        <g id="Group_1755" data-name="Group 1755" transform="translate(246.727 129.088)">
          <path id="Path_2419" data-name="Path 2419" d="M2271.692,489.192a1.313,1.313,0,0,1-.932-.386c-1.659-1.66-3.792-2.066-6.262-2.535-.825-.158-1.663-.318-2.5-.527a1.318,1.318,0,1,1,.638-2.558c.79.2,1.579.347,2.356.5,2.655.5,5.4,1.028,7.633,3.262a1.319,1.319,0,0,1-.932,2.251Z" transform="translate(-2260.997 -483.144)" fill="#019e96"/>
        </g>
        <g id="Group_1756" data-name="Group 1756" transform="translate(795.148 1)">
          <path id="Path_2420" data-name="Path 2420" d="M2293.987,272.34a1.318,1.318,0,0,1-1.132-.64c-3.19-5.318-6.991-10.746-10.667-16-1.276-1.824-2.553-3.649-3.81-5.474a1.318,1.318,0,1,1,2.171-1.495c1.252,1.818,2.526,3.637,3.8,5.457,3.7,5.287,7.528,10.753,10.767,16.15a1.319,1.319,0,0,1-1.129,2Z" transform="translate(-2278.146 -248.165)" fill="#fec739"/>
        </g>
      </g>
    </g>
  </g>
</svg>
