<svg xmlns="http://www.w3.org/2000/svg" width="1378.862" height="997.62" viewBox="0 0 1378.862 997.62">
  <g id="Group_3276" data-name="Group 3276" transform="translate(8.785 18.689)">
    <path id="Path_1646" data-name="Path 1646" d="M-1500.392,4308.845c129.969-20.946,484.054-71.548,676.106-35.87,238.278,44.266,308.886,310.2,586.221,285.511a436.234,436.234,0,0,0,83.7-15.4" transform="translate(651.276 -3784.123) rotate(-11)" fill="none" stroke="#a8ccff" stroke-width="1"/>
    <path id="Path_1629" data-name="Path 1629" d="M-784.157,1923.533s103.267,208.352,338.577,214.823c204.954,5.637,390.429,12.2,484.2,148.909" transform="translate(1327.303 -1942)" fill="none" stroke="#a8ccff" stroke-width="1"/>
    <circle id="Ellipse_183" data-name="Ellipse 183" cx="7.5" cy="7.5" r="7.5" transform="matrix(-0.966, 0.259, -0.259, -0.966, 458, 108.994)" fill="#ffc517"/>
    <circle id="Ellipse_184" data-name="Ellipse 184" cx="7.5" cy="7.5" r="7.5" transform="matrix(-0.966, 0.259, -0.259, -0.966, 1327.863, 420.277)" fill="#ea4f4f"/>
    <rect id="Rectangle_38" data-name="Rectangle 38" width="18" height="18" transform="matrix(-0.966, 0.259, -0.259, -0.966, 94.216, 645.473)" fill="#9b00c0"/>
    <rect id="Rectangle_39" data-name="Rectangle 39" width="18" height="18" transform="translate(1071.897 680.463) rotate(-175)" fill="#f90"/>
    <line id="Line_31" data-name="Line 31" y1="18" x2="18" transform="matrix(-0.966, 0.259, -0.259, -0.966, 1307.841, 160.094)" fill="none" stroke="#9b00c0" stroke-width="4"/>
    <circle id="Ellipse_182" data-name="Ellipse 182" cx="7.5" cy="7.5" r="7.5" transform="matrix(-0.966, 0.259, -0.259, -0.966, 183.83, 709.457)" fill="#ffc517"/>
  </g>
</svg>
