<svg xmlns="http://www.w3.org/2000/svg" xmlns:xlink="http://www.w3.org/1999/xlink" width="1366" height="768" viewBox="0 0 1366 768">
  <defs>
    <clipPath id="clip-Index1_3">
      <rect width="1366" height="768"/>
    </clipPath>
  </defs>
  <g id="Index1_3" data-name="Index1 – 3" clip-path="url(#clip-Index1_3)">
    <path id="Path_1496" data-name="Path 1496" d="M1588.9,463.34V676.178l-781.708,4.406L747.347,577.222,988.134,459.466l14.992-7.333,192.3-147.493L1419,440.931Z" fill="#d39c16"/>
    <path id="Path_1497" data-name="Path 1497" d="M1095.906,380.74,1175,307l21,30,22,59,37,30-34.094,44.74Z" fill="#ffc517"/>
    <path id="Path_2174" data-name="Path 2174" d="M1174.575,306.982l21.331-6.242,5,18-5,18-36-1-11,10L1137,343Z" fill="#ffd77d"/>
    <path id="Path_1516" data-name="Path 1516" d="M1195.906,300.74l-2,9,7,9-5,18,21,18,10-21,12.332-2.392C1233.571,317.956,1195.906,300.74,1195.906,300.74Z" fill="#d3b06a"/>
    <path id="Path_1499" data-name="Path 1499" d="M1528.306,651.388l20.53-53.5S1341.768,714.857,936.879,751.073,458.906,815.74,458.906,815.74l-162-204,57-119,51-35,153-150.254,4-17.746,132.45-92.211,140.025-36.4s281.691,239.446,364.525,289.611c1.694.76,93.5,58.312,95,59C1443.8,578.251,1528.306,651.388,1528.306,651.388Z" fill="#ffc517"/>
    <rect id="Rectangle_232" data-name="Rectangle 232" width="1368" height="768" transform="translate(-1.094 -0.26)" fill="none"/>
    <path id="Path_2203" data-name="Path 2203" d="M365.427,592.212" fill="#fcd96f"/>
    <path id="Path_1513" data-name="Path 1513" d="M901.906,278.815" fill="#66cdfc"/>
    <path id="Path_2199" data-name="Path 2199" d="M904,358l28.42-15.343,20.565-32.917-15-10L963,246s-14.015-11.26-36.015-29.26c-47-6-89.6-61.616-89.6-61.616l-27.4,58.616L738.3,248.628l-6.313,31.112L837,349" fill="#d3b06a"/>
    <path id="Path_2200" data-name="Path 2200" d="M838.382,154.124l-27.4,58.616L739.3,247.628l-6.313,31.112L606,319l-44-29,133.356-93.471Z" fill="#ffd77d"/>
    <path id="Path_2201" data-name="Path 2201" d="M808,330l29,19-38,47,103,96,49.906,237.74,216.079,49,136,21L1423,577,962.985,245.74,886,256Z" fill="#d39c16"/>
    <path id="Path_2202" data-name="Path 2202" d="M354.8,500.548l-60.83-9.725L184.7,526.347l20.277,81.2-247.8-77.3L-53.094,695.74l404.514,24,54.486-191Z" fill="#d3b06a"/>
    <path id="Path_1523" data-name="Path 1523" d="M380.786,643.547,164.358,634.54,59.993,629.32l-74.508-3.729L150.8,439.013l1.107-1.253,38.18,5.417,85.508,83Z" fill="#d39c16"/>
    <path id="Path_1524" data-name="Path 1524" d="M169.332,487.11l8.992,126.277L36.581,641.962,3.96,580.9,151.506,437.317Z" fill="#ffc517"/>
    <path id="Path_2203-2" data-name="Path 2203" d="M339.427,604.212" fill="#fcd96f"/>
    <path id="Path_2204" data-name="Path 2204" d="M152,468l-50.927,18.277,50.437-48.96Z" fill="#ffd77d"/>
    <path id="Path_1525" data-name="Path 1525" d="M191.006,442.34l-39.5-5.023v30.962l19.109,35.783,35.391-35.783,10.047.24Z" fill="#d3b06a"/>
    <path id="Path_2988" data-name="Path 2988" d="M577,526l41-53,39,24-35,55Z" fill="#f7b81c"/>
    <path id="Path_2989" data-name="Path 2989" d="M73,540.165,96,516l16.494,9.848L90,554Z" fill="#f7b81c"/>
    <path id="Path_2990" data-name="Path 2990" d="M399,655l41-53,39,24-35,55Z" fill="#f7b81c"/>
    <path id="Path_2991" data-name="Path 2991" d="M684,641l73-111,40,21-52,92Z" fill="#f7b81c"/>
    <path id="Path_2992" data-name="Path 2992" d="M713,660l57-87,40,21-52,92Z" fill="#f7b81c"/>
    <path id="Path_2993" data-name="Path 2993" d="M788,622l57-87,73,31,23,110Z" fill="#f7b81c"/>
    <path id="Path_2994" data-name="Path 2994" d="M918,566l26.868-53.973,107.121,76.564,33.157-48.872L1241,650H935.167Z" fill="#c99318"/>
    <path id="Path_2995" data-name="Path 2995" d="M1240,445l91,67-16.742,26.281L1221,469Z" fill="#c99318"/>
    <rect id="Rectangle_233" data-name="Rectangle 233" width="1368" height="768" transform="translate(-1)" fill="none"/>
  </g>
</svg>
