<svg xmlns="http://www.w3.org/2000/svg" width="481.732" height="491.829" viewBox="0 0 481.732 491.829">
  <g id="Group_3342" data-name="Group 3342" transform="translate(1295.085 14632.555)">
    <path id="Path_4318" data-name="Path 4318" d="M6184.1,2556.435l167.5-37.535a56.715,56.715,0,0,1,68.944,50.923l15.034,192.256s-177.526,59.352-294.979,16.484c0-81.739-.4-133.921-.81-166.056A56.711,56.711,0,0,1,6184.1,2556.435Z" transform="translate(-7320.596 -16955.375)" fill="#ff8e9e"/>
    <path id="Path_4319" data-name="Path 4319" d="M6345.781,2524.964c.573.215-.864-.4-.349-.148.319.157.642.3.959.462a30.294,30.294,0,0,1,3.44,2.1c.389.271.771.552,1.15.833.652.482-.278-.23.027.018.217.175.438.345.654.521q1.339,1.091,2.594,2.281,1.484,1.406,2.854,2.927.743.822,1.454,1.673.371.445.735.9c.114.142.228.286.341.429l.171.218c.333.419-.29-.385-.068-.087a75.544,75.544,0,0,1,5.983,9.343q1.532,2.848,2.837,5.81.186.423.37.847c.052.121.105.245.156.367-.018-.046-.171-.414-.041-.094q.34.821.669,1.647.7,1.786,1.34,3.6a139.2,139.2,0,0,1,7.043,36.6c.828,12.031,1.205,24.1,1.943,36.139q1.161,18.954,2.563,37.894,1.353,18.51,2.851,37.011,1.307,16.215,2.7,32.423,1.028,11.979,2.1,23.954c.348,3.876.682,7.753,1.058,11.626.016.165.031.331.047.5a3.066,3.066,0,0,0,2.985,2.985,3.007,3.007,0,0,0,2.985-2.985q-.377-4.047-.741-8.095-.977-10.809-1.916-21.621-1.359-15.657-2.642-31.319-1.5-18.352-2.882-36.714-1.43-19.116-2.672-38.246c-.765-11.921-1.459-23.849-2-35.783-.613-13.45-2-26.885-5.726-39.867a91.836,91.836,0,0,0-11.389-25.574,57.792,57.792,0,0,0-11.808-13.273,33.7,33.7,0,0,0-7.171-4.627c-.335-.148-.672-.3-1.015-.426a3.012,3.012,0,0,0-3.673,2.085,3.051,3.051,0,0,0,2.086,3.672Z" transform="translate(-7321.608 -16955.383)" fill="#313131"/>
    <path id="Path_4320" data-name="Path 4320" d="M6188.02,2558.1c.573.216-.863-.4-.348-.148.318.157.643.3.959.463a30.317,30.317,0,0,1,3.44,2.1c.389.271.77.551,1.15.833.652.484-.279-.229.027.018.217.175.438.346.653.521q1.34,1.092,2.594,2.282,1.484,1.4,2.854,2.925.743.823,1.454,1.674.373.446.736.9l.341.429c.058.073.114.146.171.218.333.419-.29-.384-.068-.087a75.584,75.584,0,0,1,5.983,9.343q1.533,2.848,2.836,5.81c.125.282.247.564.369.847.053.122.105.244.158.367-.019-.045-.172-.414-.04-.093.226.547.449,1.1.667,1.647q.7,1.785,1.34,3.6a139.182,139.182,0,0,1,7.044,36.6c.828,12.03,1.205,24.1,1.942,36.138q1.162,18.955,2.563,37.894,1.352,18.512,2.85,37.011,1.307,16.215,2.7,32.423,1.028,11.981,2.1,23.956c.349,3.875.683,7.752,1.059,11.625.016.166.031.333.046.5a3.067,3.067,0,0,0,2.985,2.985,3.007,3.007,0,0,0,2.985-2.985q-.378-4.046-.741-8.094-.978-10.809-1.916-21.622-1.357-15.655-2.642-31.319-1.5-18.352-2.882-36.714-1.43-19.117-2.673-38.245c-.765-11.922-1.459-23.85-2-35.784-.613-13.45-2-26.884-5.725-39.867a91.837,91.837,0,0,0-11.389-25.573,57.8,57.8,0,0,0-11.808-13.273,33.673,33.673,0,0,0-7.171-4.628c-.335-.149-.671-.3-1.015-.426a3.01,3.01,0,0,0-3.672,2.085,3.05,3.05,0,0,0,2.085,3.671Z" transform="translate(-7320.825 -16955.547)" fill="#313131"/>
    <g id="Group_3014" data-name="Group 3014" transform="translate(-1191.451 -14632.555)">
      <rect id="Rectangle_1500" data-name="Rectangle 1500" width="65.484" height="166.66" rx="32.742" transform="matrix(0.999, -0.032, 0.032, 0.999, 117.789, 98.256)" fill="#ffc517"/>
      <path id="Path_4321" data-name="Path 4321" d="M6312.48,2456.456h.024l-.413-12.823a28.177,28.177,0,0,0,8.146-2.073c10.6-4.437,16.643-14.126,13.5-21.642-2.954-7.056-12.958-9.684-22.944-6.305a67.091,67.091,0,0,0-133.559,11.026l1.161,36.127h.025c.006.322,0,.642.006.965a67.09,67.09,0,1,0,134.111-4.31C6312.525,2457.1,6312.494,2456.778,6312.48,2456.456Z" transform="translate(-6129.331 -2322.013)" fill="#ffc517"/>
      <circle id="Ellipse_677" data-name="Ellipse 677" cx="7.83" cy="7.83" r="7.83" transform="translate(61.388 108.76)" fill="#313131"/>
      <circle id="Ellipse_678" data-name="Ellipse 678" cx="7.83" cy="7.83" r="7.83" transform="translate(107.598 107.275)" fill="#313131"/>
      <path id="Path_4322" data-name="Path 4322" d="M6223.137,2436.766l-2.7,29.755-.381,4.208-3.3-3.1,7.8.139c4.107.073,4.339,6.477.206,6.4l-7.8-.139c-1.568-.028-3.466-1.3-3.3-3.1l2.7-29.756.38-4.208a3.305,3.305,0,0,1,3.1-3.3c1.566-.051,3.462,1.364,3.3,3.1Z" transform="translate(-6129.513 -2322.403)" fill="#313131"/>
      <path id="Path_4323" data-name="Path 4323" d="M6225.559,2488.871l.167.02c.651.078-.964-.084-.379-.038.488.039.975.078,1.463.1a34.876,34.876,0,0,0,4.912-.1q.74-.069,1.472-.173c.361-.053.6-.262-.047.013a4.759,4.759,0,0,1,.8-.156,19.293,19.293,0,0,0,2.87-.831c.224-.086.443-.179.666-.271.525-.215-.636.328.167-.093a12.236,12.236,0,0,0,1.216-.728c.089-.062.563-.5.647-.479-.161-.034-.548.488-.025-.006.195-.185.383-.377.561-.578.133-.15.708-.908.151-.135.974-1.355,2.731-2.257,4.343-1.288,1.334.8,2.335,2.887,1.29,4.343-4.8,6.677-14.173,7.633-21.781,6.625a3.214,3.214,0,0,1-2.362-3.865,3.294,3.294,0,0,1,3.866-2.362Z" transform="translate(-6129.552 -2322.652)" fill="#313131"/>
      <ellipse id="Ellipse_679" data-name="Ellipse 679" cx="39.779" cy="19.744" rx="39.779" ry="19.744" transform="translate(7.372 70.182) rotate(-27.12)" fill="#313131"/>
      <ellipse id="Ellipse_680" data-name="Ellipse 680" cx="16.853" cy="33.954" rx="16.853" ry="33.954" transform="translate(0 58.854) rotate(-73.819)" fill="#313131"/>
      <ellipse id="Ellipse_681" data-name="Ellipse 681" cx="32.122" cy="15.944" rx="32.122" ry="15.944" transform="translate(42.536 89.59) rotate(-47.985)" fill="#313131"/>
      <ellipse id="Ellipse_682" data-name="Ellipse 682" cx="32.122" cy="15.944" rx="32.122" ry="15.944" transform="translate(73.827 86.022) rotate(-47.985)" fill="#313131"/>
      <ellipse id="Ellipse_683" data-name="Ellipse 683" cx="32.122" cy="15.944" rx="32.122" ry="15.944" transform="translate(103.263 86.022) rotate(-47.985)" fill="#313131"/>
      <ellipse id="Ellipse_684" data-name="Ellipse 684" cx="29.474" cy="14.629" rx="29.474" ry="14.629" transform="translate(94.067 43.796) rotate(-47.985)" fill="#313131"/>
      <ellipse id="Ellipse_685" data-name="Ellipse 685" cx="9.731" cy="19.606" rx="9.731" ry="19.606" transform="translate(87.624 14.375) rotate(-19.819)" fill="#313131"/>
      <ellipse id="Ellipse_686" data-name="Ellipse 686" cx="17.616" cy="35.491" rx="17.616" ry="35.491" transform="translate(126.167 62.935) rotate(-47.985)" fill="#313131"/>
      <path id="Path_4324" data-name="Path 4324" d="M6166.509,2395.562s9.9-54.832,83.307-50.71c84.405,4.739,72.512,64.672,72.512,64.672l-10.456-4.317" transform="translate(-6129.278 -2321.96)" fill="#313131"/>
    </g>
    <g id="Group_3015" data-name="Group 3015" transform="translate(-1295.085 -14301.377)">
      <path id="Path_4325" data-name="Path 4325" d="M6026.639,2676.928l7.186-12.937,8.961,20Z" transform="translate(-6024.949 -2654.725)" fill="#019e96"/>
      <path id="Rectangle_1405" data-name="Rectangle 1405" d="M6488.536,2811.528,6039.28,2815.4c-5.623.048-10.342-5.028-10.542-11.339l-3.792-120.441c-.2-6.311,4.2-11.466,9.822-11.515l449.257-3.868c5.624-.049,10.343,5.028,10.542,11.339l3.792,120.441C6498.557,2806.324,6494.159,2811.479,6488.536,2811.528Z" transform="translate(-6024.94 -2654.746)" fill="#019e96"/>
      <path id="Path_4326" data-name="Path 4326" d="M6498.538,2807.994l8.789-12.7-15.138-1.064Z" transform="translate(-6027.262 -2655.372)" fill="#019e96"/>
      <path id="Rectangle_1405-2" data-name="Rectangle 1405" d="M6496.886,2799.439l-449.257,3.869c-5.624.048-10.343-5.029-10.542-11.34l-3.792-120.441c-.2-6.311,4.2-11.466,9.822-11.514l449.257-3.868c5.623-.049,10.342,5.028,10.542,11.339l3.791,120.44C6506.906,2794.236,6502.509,2799.391,6496.886,2799.439Z" transform="translate(-6024.981 -2654.686)" fill="#fff"/>
      <g id="圖層_2" data-name="圖層 2" transform="translate(79.169 28.473)">
        <g id="表頭尾">
          <path id="Path_1" data-name="Path 1" d="M6323.125,2685.54l.1,4.519h0a3.076,3.076,0,0,1,.432-.756,2.921,2.921,0,0,1,.647-.558,2.583,2.583,0,0,1,.769-.345,4.656,4.656,0,0,1,.871-.02,3.362,3.362,0,0,1,1.593.321,3.189,3.189,0,0,1,1.128.872,4.022,4.022,0,0,1,.685,1.33,5.5,5.5,0,0,1,.247,1.581,5.73,5.73,0,0,1-.289,1.644,3.828,3.828,0,0,1-.622,1.315,3.2,3.2,0,0,1-1.088.926,3.311,3.311,0,0,1-1.575.362,3.19,3.19,0,0,1-1.726-.371,2.445,2.445,0,0,1-.955-1.417h0l.041,1.5-.911.021-.25-10.9Zm5.309,5.623a3.417,3.417,0,0,0-.5-1.069,2.643,2.643,0,0,0-.794-.731,2.233,2.233,0,0,0-1.2-.273,2.5,2.5,0,0,0-1.28.332,2.632,2.632,0,0,0-.852.768,4.4,4.4,0,0,0-.544,1.09,645.041,645.041,0,0,1,.056,2.451,4.385,4.385,0,0,0,.508,1.068,2.67,2.67,0,0,0,.887.756,2.466,2.466,0,0,0,1.3.272,2.209,2.209,0,0,0,1.189-.327,2.713,2.713,0,0,0,.758-.8,3.522,3.522,0,0,0,.457-1.09,5.974,5.974,0,0,0-.029-1.225A5.86,5.86,0,0,0,6328.434,2691.163Z" transform="translate(-6105.586 -2683.305)" fill="#313131"/>
          <path id="Path_2" data-name="Path 2" d="M6331.158,2688.387l2.772,6.67,2.266-6.787.959-.024-3.21,9.057a4.322,4.322,0,0,1-.4.844,2.474,2.474,0,0,1-.378.547,1.486,1.486,0,0,1-.519.286,2.594,2.594,0,0,1-.749.019l-.719.016-.017-.69.653-.015a1.234,1.234,0,0,0,.511-.011.744.744,0,0,0,.354-.242,1.1,1.1,0,0,0,.259-.394l.225-.6.307-.913-3.362-7.733Z" transform="translate(-6105.625 -2683.319)" fill="#313131"/>
          <path id="Path_3" data-name="Path 3" d="M6350.149,2684.9l.021.867-6.556.161.089,3.968,5.982-.141.022.9-5.983.143.1,4.306,6.549-.152.021.868-7.592.181-.258-10.922Z" transform="translate(-6105.688 -2683.302)" fill="#313131"/>
          <path id="Path_4" data-name="Path 4" d="M6352.273,2694.21l1.285-.03.031,1.613-1.285.032Z" transform="translate(-6105.735 -2683.348)" fill="#fff"/>
          <path id="Path_5" data-name="Path 5" d="M6356.908,2693.485a2.045,2.045,0,0,0,.771.88,3,3,0,0,0,1.149.456,5.484,5.484,0,0,0,1.405-.035,3.723,3.723,0,0,0,.955-.023,3.484,3.484,0,0,0,.917-.409,2.313,2.313,0,0,0,.705-.7,1.642,1.642,0,0,0,.275-1.024,1.5,1.5,0,0,0-.228-.8,1.957,1.957,0,0,0-.522-.526,2.756,2.756,0,0,0-.731-.342l-.777-.221-2.442-.541-.933-.28a2.437,2.437,0,0,1-.821-.492,2.37,2.37,0,0,1-.822-1.895,3.841,3.841,0,0,1,.132-.839,3,3,0,0,1,.545-1.032,3.4,3.4,0,0,1,1.148-.841,4.728,4.728,0,0,1,1.873-.371,5.4,5.4,0,0,1,1.563.173,4.041,4.041,0,0,1,1.3.624,2.947,2.947,0,0,1,.892,1.026,2.992,2.992,0,0,1,.365,1.488l-1.046.024a2.15,2.15,0,0,0-.373-1.106,2.725,2.725,0,0,0-.615-.765,3.184,3.184,0,0,0-2.034-.565,4.06,4.06,0,0,0-1.042.024,2.059,2.059,0,0,0-.862.381,1.612,1.612,0,0,0-.584.668,1.832,1.832,0,0,0-.212,1.083,1.7,1.7,0,0,0,.018.69,1.794,1.794,0,0,0,.37.472,2.281,2.281,0,0,0,.548.315l.631.165,2.682.591,1.114.363a4.473,4.473,0,0,1,.912.521,2.761,2.761,0,0,1,.646.793,2.893,2.893,0,0,1,.238,1.16,3.035,3.035,0,0,1-.184,1.144,5.779,5.779,0,0,1-.4.7,2.209,2.209,0,0,1-.734.646,3.627,3.627,0,0,1-1.126.508,14.666,14.666,0,0,1-3.471-.128,3.669,3.669,0,0,1-1.423-.657,2.99,2.99,0,0,1-.923-1.143,3.859,3.859,0,0,1-.312-1.735l1.046-.024a3.243,3.243,0,0,0,.425,1.6Z" transform="translate(-6105.75 -2683.299)" fill="#313131"/>
          <path id="Path_6" data-name="Path 6" d="M6366.6,2684.515l.158,6.762a5.183,5.183,0,0,0,.244,1.609,2.694,2.694,0,0,0,.653,1.063,2.077,2.077,0,0,0,1.041.606,5.109,5.109,0,0,0,2.69-.066,2.229,2.229,0,0,0,1-.649,2.692,2.692,0,0,0,.6-1.093,5.186,5.186,0,0,0,.172-1.621l-.159-6.76,1.195-.029.167,7a5.68,5.68,0,0,1-.2,1.591,3.3,3.3,0,0,1-2,2.264,4.821,4.821,0,0,1-1.953.374,4.745,4.745,0,0,1-1.975-.282,3.515,3.515,0,0,1-1.329-.839,3.322,3.322,0,0,1-.927-1.174,4.676,4.676,0,0,1-.274-1.58l-.169-7.15Z" transform="translate(-6105.802 -2683.299)" fill="#313131"/>
          <path id="Path_7" data-name="Path 7" d="M6377.239,2684.265l6.591,9.094h0l-.221-9.251,1.017-.016.249,10.919-1.164.029-6.434-9.1h0l.222,9.251-1.016.023-.261-10.925Z" transform="translate(-6105.854 -2683.298)" fill="#313131"/>
          <path id="Path_8" data-name="Path 8" d="M6395.956,2683.827a6.288,6.288,0,0,1,1.305-.032,3.023,3.023,0,0,1,.992.544,2.1,2.1,0,0,1,.8.816,2.278,2.278,0,0,1,.329,1.25,2.781,2.781,0,0,1-.5,1.6,2.1,2.1,0,0,1-.586.554,1.684,1.684,0,0,1-.771.342h0a2.568,2.568,0,0,1,2.4,2.609,4.156,4.156,0,0,1,.013.6,3.41,3.41,0,0,1-.16.693,2.556,2.556,0,0,1-.377.664,2.4,2.4,0,0,1-.7.617,3.744,3.744,0,0,1-1.034.44,5.98,5.98,0,0,1-1.526.038l-4.574.115-.248-10.739Zm.111,4.786a3.726,3.726,0,0,0,1.073-.175,2.737,2.737,0,0,0,.767-.409,1.7,1.7,0,0,0,.417-.595,1.827,1.827,0,0,0-.014-.719c-.032-1.377-.854-2.044-2.5-2l-3.527.077.091,3.927Zm.125,5.265a4.027,4.027,0,0,0,1.08-.023,2.261,2.261,0,0,0,.918-.386,1.7,1.7,0,0,0,.611-.712,2.425,2.425,0,0,0,.212-1.11,1.813,1.813,0,0,0-.792-1.572,3.765,3.765,0,0,0-2.138-.517l-3.677.1.1,4.311Z" transform="translate(-6105.93 -2683.296)" fill="#313131"/>
          <path id="Path_9" data-name="Path 9" d="M6401.691,2687.955a2.262,2.262,0,0,1,1.606-1.322,4.241,4.241,0,0,1,1.253-.21,5.825,5.825,0,0,1,1.044-.022,2.31,2.31,0,0,1,.938.337,1.975,1.975,0,0,1,.7.761,2.719,2.719,0,0,1,.3,1.281l.1,4.337a.511.511,0,0,0,.458.557h0a.59.59,0,0,0,.125,0l.3-.008.019.807-.629.014a1.677,1.677,0,0,1-.606.012.591.591,0,0,1-.331-.258,1.167,1.167,0,0,1-.191-.444,3.683,3.683,0,0,1-.012-.568h0a6.681,6.681,0,0,1-.524.7,2.429,2.429,0,0,1-1.326.839,4.609,4.609,0,0,1-.981.023,3.787,3.787,0,0,1-1.045.024,2.021,2.021,0,0,1-.846-.4,1.949,1.949,0,0,1-.519-.826,2.238,2.238,0,0,1-.053-2.332,2.317,2.317,0,0,1,.961-.712,4.58,4.58,0,0,1,1.338-.391l1.551-.217.539-.011.384-.161a.938.938,0,0,0,.259-.424,2.388,2.388,0,0,0-.012-.511,1.65,1.65,0,0,0-.012-.806,1.54,1.54,0,0,0-.463-.5,1.651,1.651,0,0,0-.66-.225,3.4,3.4,0,0,0-.808.021,2.4,2.4,0,0,0-1.487.454,1.648,1.648,0,0,0-.565,1.421l-1.077.024a3.507,3.507,0,0,1,.27-1.265Zm4.872,2.251a.571.571,0,0,1-.32.244l-.481.013-1.252.21a6.427,6.427,0,0,0-1.189.294,2.029,2.029,0,0,0-.859.5,1.144,1.144,0,0,0-.338.906,1.388,1.388,0,0,0,.165.618,1.631,1.631,0,0,0,.4.5,2.049,2.049,0,0,0,.575.286,1.686,1.686,0,0,0,.654-.015,3.357,3.357,0,0,0,1.075-.205,2.653,2.653,0,0,0,.857-.491,2.6,2.6,0,0,0,.579-.79,2.482,2.482,0,0,0,.184-1.046l-.025-1.018Z" transform="translate(-6105.978 -2683.309)" fill="#313131"/>
          <path id="Path_10" data-name="Path 10" d="M6410.381,2686.525l.031,1.364h0a2.342,2.342,0,0,1,.955-1.19,2.758,2.758,0,0,1,1.512-.485,3.845,3.845,0,0,1,1.412.206,2.071,2.071,0,0,1,.911.578,2.2,2.2,0,0,1,.5.945,5.421,5.421,0,0,1,.031,1.258l.122,5.1-.946.022-.116-4.931a4.683,4.683,0,0,0-.022-.928,1.944,1.944,0,0,0-.338-.739,1.318,1.318,0,0,0-.639-.5,2.163,2.163,0,0,0-.966-.15,2.979,2.979,0,0,0-1.042.2,2.339,2.339,0,0,0-.733.587,2.7,2.7,0,0,0-.492.885,2.956,2.956,0,0,0-.155,1.082l.113,4.6-.958.023-.189-7.9Z" transform="translate(-6106.02 -2683.308)" fill="#313131"/>
          <path id="Path_11" data-name="Path 11" d="M6418.608,2683.294l.168,6.862,4.3-3.956,1.289-.03-3.314,3.07,3.739,4.881-1.228.027-3.091-4.238-1.555,1.345.071,3.018-.958.021-.26-10.979Z" transform="translate(-6106.061 -2683.294)" fill="#313131"/>
          <rect id="Rectangle_1" data-name="Rectangle 1" width="28.09" height="12.774" rx="1.541" transform="matrix(1, -0.023, 0.023, 1, 102.061, 31.53)" fill="#00a4ef"/>
          <path id="Path_12" data-name="Path 12" d="M6313.128,2730.33h0a22.382,22.382,0,0,0-32.424-19.408,2.54,2.54,0,0,0-2.591-2.094l-7.66.179a2.537,2.537,0,0,0-2.48,2.6v.007h0l1,42.783a2.547,2.547,0,0,0,2.6,2.482l7.658-.179a2.543,2.543,0,0,0,2.512-2.572h0v-.031l-.542-22.977h0a9.576,9.576,0,0,1,19.145-.473l0,.021.543,23.067a2.543,2.543,0,0,0,2.6,2.481l7.66-.179a2.575,2.575,0,0,0,2.512-2.6l-.541-23.034h0Z" transform="translate(-6105.317 -2683.419)" fill="#ffc517"/>
          <path id="Path_13" data-name="Path 13" d="M6400.888,2705.94a23.212,23.212,0,1,0,.017,0Zm-4.666,29.426a8.637,8.637,0,1,1,.032.012l-.033,0Z" transform="translate(-6105.858 -2683.406)" fill="#ed4848"/>
          <rect id="Rectangle_2" data-name="Rectangle 2" width="12.774" height="47.863" rx="1.541" transform="matrix(1, -0.023, 0.023, 1, 140.246, 26.174)" fill="#00c08b"/>
          <path id="Path_14" data-name="Path 14" d="M6367.754,2706.718l-7.656.175a2.54,2.54,0,0,0-2.511,2.569v0l0,.027.053,2.246a23.938,23.938,0,1,0,.9,38.292l.262,11.156a11.64,11.64,0,0,1-23.012,2.638,2.566,2.566,0,0,0-2.562-2.034l-7.719.184a2.567,2.567,0,0,0-2.516,2.616v.008a2.538,2.538,0,0,0,.046.426,24.39,24.39,0,0,0,48.542-4.135l-1.218-51.691a2.541,2.541,0,0,0-2.6-2.481Zm-23.765,35.667a11.159,11.159,0,1,1,7.832-3.452A11.158,11.158,0,0,1,6343.989,2742.385Z" transform="translate(-6105.574 -2683.41)" fill="#f90"/>
          <path id="Path_15" data-name="Path 15" d="M6225.492,2687.593l-35.691.839a2.541,2.541,0,0,0-2.482,2.6h0l1.53,65.129a2.545,2.545,0,0,0,2.6,2.483l7.6-.178a2.574,2.574,0,0,0,2.518-2.605l-1.289-54.9,38.281-.9A12.776,12.776,0,0,0,6225.492,2687.593Z" transform="translate(-6104.916 -2683.315)" fill="#00a4ef"/>
          <circle id="Ellipse_1" data-name="Ellipse 1" cx="6.372" cy="6.372" r="6.372" transform="translate(64.6 62.703)" fill="#00c08b"/>
          <path id="Path_16" data-name="Path 16" d="M6253.6,2688.522a2.544,2.544,0,0,0-4.428.1l-4.021,7.165a2.544,2.544,0,0,0,2.3,3.777l8.168-.2a2.573,2.573,0,0,0,2.127-3.88Z" transform="translate(-6105.202 -2683.313)" fill="#00c08b"/>
          <path id="Path_17" data-name="Path 17" d="M6132.908,2702.553a28.758,28.758,0,1,0,24.972,43.622,2.566,2.566,0,0,0-2.132-3.9l-10.01.235a2.727,2.727,0,0,0-1.69.665,15.946,15.946,0,0,1-25.675-6.431l41.212-.969a2.568,2.568,0,0,0,2.486-2.365l-.075-3.23A28.815,28.815,0,0,0,6132.908,2702.553Zm-14.8,24a15.98,15.98,0,0,1,30.272-.711Z" transform="translate(-6104.504 -2683.39)" fill="#00c08b"/>
        </g>
      </g>
      <path id="Path_4327" data-name="Path 4327" d="M6455.217,2654.679l-12.182.109-32.792.292-48.221.428-57.948.511-62.453.55-61.8.539q-27.672.241-55.344.478-21.934.188-43.867.37-13.356.11-26.713.211-2.656.018-5.313.031c-3.813.014-7.9.176-11.254,2.212-5.839,3.543-5.168,10.335-5.011,16.276.086,3.262.229,6.539.152,9.8a1.12,1.12,0,0,0,2.238,0c.082-3.48-.074-6.979-.17-10.458-.1-3.581-.723-7.658,1.173-10.909a9.1,9.1,0,0,1,5.792-4.024c3.217-.847,6.618-.653,9.924-.674q11.533-.074,23.067-.178,20.378-.166,40.754-.341,26.593-.226,53.187-.458,30.183-.261,60.366-.527,31.146-.271,62.292-.547l59.154-.521,50.343-.447,36.491-.324c5.792-.052,11.594-.016,17.383-.154.249-.006.5-.005.747-.007a1.12,1.12,0,0,0,0-2.239Z" transform="translate(-6024.976 -2654.679)" fill="#019e96"/>
      <path id="Path_4328" data-name="Path 4328" d="M6475.524,2657.8q6.591-.117,13.182-.239c.923-.017,1.846-.023,2.765-.088-.652.046.384-.026.557-.036a16.443,16.443,0,0,1,4.4.306,10.322,10.322,0,0,1,5.269,2.673,10.6,10.6,0,0,1,2.674,7.277c.106,2.924.157,5.852.226,8.778q.347,14.979.636,29.959.326,16.18.637,32.363c.112,5.754.056,11.538.331,17.288,0,.086,0,.171.005.256a1.12,1.12,0,0,0,2.239,0q-.139-7.382-.282-14.766-.308-16.078-.63-32.156-.316-15.668-.66-31.337c-.074-3.223-.146-6.446-.241-9.669-.146-4.969-1.831-9.645-6.62-11.833a17.543,17.543,0,0,0-8.812-1.306c-.153.013-.5.016-.15.006-.193.006-.387.008-.581.011l-1.54.03-4.069.076-7.9.141-1.437.026a1.12,1.12,0,0,0,0,2.239Z" transform="translate(-6027.174 -2654.681)" fill="#019e96"/>
    </g>
    <path id="Path_3855" data-name="Path 3855" d="M6474.867,2657.15s-14.715-.976-13.773,7.641-6.6,16.155-6.6,16.155l-42.4-.942S6422.133,2624.453,6474.867,2657.15Z" transform="translate(-7321.949 -16956.018)" fill="#fec739"/>
  </g>
</svg>
