<?xml version="1.0" encoding="utf-8"?>
<!-- Generator: Adobe Illustrator 25.2.3, SVG Export Plug-In . SVG Version: 6.00 Build 0)  -->
<svg version="1.1" id="圖層_1" xmlns="http://www.w3.org/2000/svg" xmlns:xlink="http://www.w3.org/1999/xlink" x="0px" y="0px"
	 viewBox="0 0 255.4 352.2" style="enable-background:new 0 0 255.4 352.2;" xml:space="preserve">
<style type="text/css">
	.st0{fill:#313131;}
	.st1{fill:#019E96;}
	.st2{fill:none;stroke:#313131;stroke-width:0.75;stroke-miterlimit:10;}
	.st3{fill:#FEC739;}
	.st4{fill:none;stroke:#313131;stroke-width:2;stroke-linecap:round;}
</style>
<g id="Group_3271" transform="translate(-933 -354.519)">
	<g id="Group_2824" transform="translate(-1889.158 -330)">
		<path id="Path_4129" class="st0" d="M2935.5,734.9l-12.1,153l88.9-0.6l-38.1-127.4l-4-0.3"/>
		<path id="Path_4138" class="st1" d="M2865.3,1007.3l212.3-4.1c0,0-11.4-67.8-18-115.1s-45.3-43.7-45.3-43.7h-155.5L2865.3,1007.3z
			"/>
		<path id="Path_4139" class="st0" d="M3003.3,872.3c-0.5-2.4,3.2-3.4,3.7-1c0,0.1,0,0.1,0,0.2c0.4,1.7,0.7,3.4,1,5.2l2.2,10.9
			l6.6,33.1l7.6,38.2l6.3,31.6l2.6,13.2c0.5,2.4-3.2,3.4-3.7,1c0-0.1,0-0.1,0-0.2c-0.4-1.7-0.7-3.4-1-5.2l-2.2-10.9l-6.6-33.1
			l-7.6-38.2l-6.3-31.6L3003.3,872.3L3003.3,872.3z"/>
		<circle id="Ellipse_604" class="st1" cx="2859.9" cy="882.1" r="37.8"/>
		<path id="Path_4144" class="st2" d="M2978.2,1010.5"/>
		<path id="Path_4145" class="st1" d="M2822.2,886.8l28.9,122.9c0.3,1.2,0.6,2.3,1,3.4c6.3,18.3,26.3,28.1,44.7,21.8l113.6-54.6
			l-52.7,25.3"/>
		<path id="Path_4146" class="st0" d="M2873.2,867.9c-1.6-1.8,1-4.5,2.7-2.7c0.4,0.5,0.8,0.9,1.3,1.4c3.4,3.7,6.2,7.9,8.3,12.5
			c3.3,7.5,5.1,15.6,6.9,23.6c2.7,12.3,4.9,24.7,7.4,37c2.1,10.4,4.3,20.8,6.4,31.1c0.9,4.4,1.9,8.9,2.8,13.3c0.5,2.4-3.1,3.4-3.7,1
			c0-0.1,0-0.2,0-0.2c-0.4-1.7-0.7-3.4-1.1-5.2c-0.8-3.6-1.5-7.2-2.3-10.8c-2.3-10.8-4.5-21.6-6.7-32.4c-2.4-12.1-4.6-24.2-7.3-36.2
			c-1-4.3-2-8.6-3.3-12.8c-0.5-1.6-1-3.1-1.6-4.7c-0.1-0.4-0.3-0.7-0.4-1.1c0-0.1-0.2-0.6-0.2-0.4s-0.1-0.2-0.1-0.3
			c-0.3-0.6-0.5-1.2-0.8-1.8c-1.1-2.2-2.3-4.2-3.8-6.2c-0.1-0.1-0.6-0.8-0.3-0.4c-0.2-0.2-0.3-0.4-0.5-0.7c-0.4-0.5-0.7-0.9-1.1-1.4
			C2874.9,869.8,2874.1,868.8,2873.2,867.9L2873.2,867.9z"/>
		<path id="Path_4147" class="st3" d="M2990.2,966.6c0,0,4.4-6.9,20.1-4.1c15,2.5,20.8,0,29.1-2.6c14.1-7.5,31.4-24.8,33.1-29
			c-4.8-5.5-22.7,11.2-33.1,18.6c-14.7,2.9-13.9,0.3-25.3,0.3c-0.1,0-0.1,0-0.2-0.1c0-0.1,0-0.2,0.1-0.2
			c15.3-4.1,22.2-13.8,16.2-14.8c-6-1.8-7.2,0.4-18.7,5.9s-16.2,4.7-28.8,5.9s-26.4,15.1-26.4,15.1L2990.2,966.6z"/>
		<path id="Path_4148" class="st0" d="M2904.9,1033.2c-2.1,1.3-4-2-1.9-3.3c0,0,42.8-21,42.8-21c2.5-1.7,9.8-5.1,12.4-6.7l15.7-9.8
			l18.1-11.3l15-9.4l6.2-3.9l1,3.5l-7.7-1l-33.7-4.5l-21.4-2.8l1-0.3l-5.5,2.9l-23.7,12.7l-15,8c-2.2,1.1-4.1-2.1-1.9-3.3l0.4-0.2
			l21.6-11.5l21.7-11.6c1.4-0.7,2.6-0.3,4.1-0.1l10.8,1.4l31.6,4.2l17.8,2.4c1.8,0.2,2.7,2.5,1,3.5c0,0-0.1,0-0.1,0.1
			c-2.5,1.7-5.1,3.2-7.6,4.8l-15.7,9.8l-18.1,11.3l-15,9.4l-11,5.8L2904.9,1033.2z"/>
		<path id="Path_4152" class="st4" d="M3013.6,949.5c16.9-3.8,18.6-12.5,18.6-12.5"/>
		<path id="Path_3956" class="st0" d="M2952,684.7c-16.7-0.8-38.1,0.9-64.9,25.3s-14.6,111.4-14.6,111.4l45.1-1.8l13.6-57.2
			c0,0-17.1-3.2-14.4-17.6s16.2-12.9,21-6.3c21-8,44.1-9.3,65.9-3.7C3005.6,698.2,2968.7,685.4,2952,684.7z"/>
		<path id="Rectangle_1440" class="st3" d="M2967.7,781.2l7.1,76.6c1.5,16.3-10.5,30.8-26.8,32.3l0,0c-16.3,1.5-30.8-10.5-32.3-26.8
			l-7.1-76.6c-1.5-16.3,10.5-30.8,26.8-32.3l0,0C2951.7,752.8,2966.2,764.8,2967.7,781.2z"/>
		<circle id="Ellipse_593" class="st3" cx="2955.8" cy="748.9" r="50.5"/>
		<circle id="Ellipse_594" class="st3" cx="2958.4" cy="776.7" r="50.5"/>
		
			<rect id="Rectangle_1441" x="2906.5" y="748.8" transform="matrix(0.9957 -9.219668e-02 9.219668e-02 0.9957 -57.6968 275.8756)" class="st3" width="101" height="27.2"/>
		<circle id="Ellipse_595" class="st0" cx="2991.5" cy="756.6" r="5.9"/>
		<circle id="Ellipse_596" class="st0" cx="2956.8" cy="759.8" r="5.9"/>
		<path id="Path_4131" class="st0" d="M2977.8,756.8c-0.2-1.3-1.3-2.3-2.6-2.2c-1.3,0.1-2.3,1.3-2.2,2.6l0.7,3.1l4.8,22l2.2-2.6
			l-5.8,0.8c-3.1,0.4-2.6,5.2,0.4,4.8l5.8-0.8c1.2-0.2,2.5-1.3,2.2-2.6l-0.7-3.1L2977.8,756.8L2977.8,756.8z"/>
		<path id="Path_4132" class="st0" d="M2977.8,800.7c1.2-0.5,1.9-1.9,1.4-3.1c-0.5-1.2-1.9-1.8-3.1-1.4l-0.1,0
			c-0.5,0.1,0.7-0.2,0.3-0.1c-0.4,0.1-0.8,0.2-1.1,0.2c-1.2,0.2-2.4,0.3-3.6,0.4c-0.4,0-0.7,0-1.1,0c-0.4,0-0.2-0.1,0,0
			c-0.2,0-0.4,0-0.6,0c-0.8-0.1-1.5-0.2-2.3-0.4c-0.1,0-0.3-0.1-0.4-0.1c-0.4-0.1,0.5,0.2-0.1-0.1c-0.3-0.1-0.7-0.3-1-0.4
			c-0.1,0-0.5-0.3-0.5-0.3c0.1,0,0.4,0.3,0,0c-0.2-0.1-0.3-0.2-0.5-0.4c-0.1-0.1-0.6-0.6-0.1-0.1c-0.8-1-2.3-1.3-3.4-0.6
			c-1.1,0.8-1.3,2.3-0.6,3.4C2965.1,802.3,2972.2,802.2,2977.8,800.7L2977.8,800.7z"/>
		<path id="Path_4133" class="st0" d="M2905.1,748.4c0,0-8.6-14.5-7.8-26.7s47.1-29.6,62.1-30s43.4,18.7,45.2,44.3
			c-27.8-2.4-38.3-22.8-38.3-22.8C2961.2,753.2,2905.1,748.4,2905.1,748.4z"/>
		<path id="Path_4136" class="st0" d="M2872,746.2l-12.1,153l88.9-0.6l-38.1-127.4l-4-0.3"/>
		
			<ellipse id="Ellipse_598" transform="matrix(0.269 -0.9631 0.9631 0.269 1391.0725 3351.9094)" class="st3" cx="2903.8" cy="759.5" rx="11.1" ry="15.7"/>
	</g>
	<path id="Path_4154" class="st4" d="M1168.9,605.5c-5.4,3.3-27.2,19.5-27.2,19.5"/>
</g>
</svg>
