<svg xmlns="http://www.w3.org/2000/svg" width="255.385" height="352.25" viewBox="0 0 255.385 352.25">
  <g id="Group_3271" data-name="Group 3271" transform="translate(-933 -354.519)">
    <g id="Group_2824" data-name="Group 2824" transform="translate(-1889.158 -330)">
      <path id="Path_4129" data-name="Path 4129" d="M3655.171,3122.2l-4.047.255-38.059,127.394,88.858.557-12.07-152.977" transform="translate(-725.64 -2362.566)" fill="#313131"/>
      <path id="Path_4138" data-name="Path 4138" d="M3727.971,3273.321H3572.479s-38.8-3.63-45.331,43.719-17.959,115.105-17.959,115.105l212.252,4.082Z" transform="translate(-687.03 -2428.899)" fill="#019e96"/>
      <path id="Path_4139" data-name="Path 4139" d="M3711.068,3306.006l-2.633,13.162-6.323,31.608-7.648,38.24-6.612,33.054-2.178,10.89c-.343,1.714-.609,3.467-1.033,5.164-.019.073-.03.148-.045.222-.477,2.388-4.128,1.377-3.651-1.006l2.632-13.163,6.323-31.608,7.648-38.24,6.612-33.054,2.178-10.89c.343-1.714.608-3.467,1.033-5.163.019-.073.029-.149.045-.223.478-2.388,4.128-1.377,3.651,1.006Z" transform="translate(-814.671 -2433.714)" fill="#313131"/>
      <circle id="Ellipse_604" data-name="Ellipse 604" cx="37.782" cy="37.782" r="37.782" transform="translate(3001.98 844.357)" fill="#019e96"/>
      <path id="Path_4144" data-name="Path 4144" d="M3651.117,3470.675" transform="translate(-729.612 -2460.186)" fill="none" stroke="#313131" stroke-miterlimit="10" stroke-width="0.75"/>
      <path id="Path_4145" data-name="Path 4145" d="M3518.355,3442.442l-52.662-25.3,113.605,54.588a35.126,35.126,0,0,0,45.645-25.169l28.886-122.884" transform="translate(-576.286 -2436.89)" fill="#019e96"/>
      <path id="Path_4146" data-name="Path 4146" d="M3561.65,3300.586c-.847.938-1.688,1.879-2.506,2.842-.379.446-.753.9-1.119,1.351-.173.216-.344.432-.515.651.287-.367-.224.3-.327.437a39.5,39.5,0,0,0-3.761,6.161c-.3.6-.575,1.21-.845,1.823-.031.071-.2.472-.137.314s-.133.321-.169.408q-.218.534-.426,1.073c-.593,1.537-1.124,3.1-1.615,4.668-1.313,4.2-2.365,8.479-3.337,12.767-2.725,12.012-4.9,24.152-7.339,36.223q-3.274,16.19-6.656,32.356-1.126,5.393-2.262,10.782c-.361,1.714-.653,3.463-1.092,5.159-.019.075-.032.152-.049.228-.507,2.382-4.158,1.374-3.651-1.006q1.415-6.647,2.8-13.3,3.256-15.559,6.427-31.136c2.5-12.317,4.773-24.687,7.428-36.971,1.727-7.992,3.555-16.119,6.872-23.628a48.39,48.39,0,0,1,8.33-12.462q.63-.713,1.268-1.417c1.638-1.812,4.309.873,2.678,2.677Z" transform="translate(-535.194 -2432.711)" fill="#313131"/>
      <path id="Path_4147" data-name="Path 4147" d="M3741.2,3406.662s-13.7-13.932-26.368-15.139-17.372-.4-28.835-5.869-12.662-7.685-18.695-5.875c-6.016.937.848,10.669,16.166,14.778a.161.161,0,0,1-.051.316c-11.354,0-10.53,2.556-25.258-.316-10.4-7.377-28.253-24.1-33.1-18.593,1.747,4.192,19.027,21.436,33.1,28.959,8.259,2.6,14.061,5.125,29.059,2.585,15.714-2.807,20.075,4.087,20.075,4.087Z" transform="translate(-797.768 -2445.003)" fill="#fec739"/>
      <path id="Path_4148" data-name="Path 4148" d="M3629.19,3462.8l-10.961-5.8-15.028-9.393L3585.1,3436.3l-15.735-9.835c-2.538-1.586-5.139-3.1-7.626-4.766-.037-.024-.075-.047-.112-.07-1.725-1.078-.823-3.292.955-3.528l17.758-2.358,31.6-4.2,10.811-1.436c1.468-.195,2.7-.581,4.051.141l21.739,11.594,21.612,11.526.381.2c2.152,1.147.241,4.417-1.911,3.27l-14.963-7.981-23.741-12.662-5.468-2.916.955.258-21.356,2.837-33.746,4.482-7.722,1.025.956-3.528,6.218,3.885,15.027,9.393,18.105,11.315,15.736,9.835c2.537,1.586,9.881,5.013,12.369,6.678.036.024,42.777,20.97,42.814,20.994,2.062,1.289.164,4.566-1.911,3.269Z" transform="translate(-677.097 -2450.543)" fill="#313131"/>
      <path id="Path_4152" data-name="Path 4152" d="M3693.218,3383.346s1.745,8.688,18.647,12.469" transform="translate(-825.789 -2446.346)" fill="none" stroke="#313131" stroke-linecap="round" stroke-width="2"/>
      <path id="Path_3956" data-name="Path 3956" d="M3545.306,3084.01a108.975,108.975,0,0,1,65.889,3.736c4.817-6.652,18.32-8.1,21.031,6.27s-14.368,17.585-14.368,17.585l13.641,57.225,45.142,1.75s12.162-86.981-14.572-111.392-48.2-26.107-64.859-25.332S3543.628,3047.379,3545.306,3084.01Z" transform="translate(-649.536 -2349.194)" fill="#313131"/>
      <rect id="Rectangle_1440" data-name="Rectangle 1440" width="59.422" height="136.334" rx="29.711" transform="translate(2934.734 751.58) rotate(5.29)" fill="#fec739"/>
      <circle id="Ellipse_593" data-name="Ellipse 593" cx="50.518" cy="50.518" r="50.518" transform="translate(2893.41 698.337)" fill="#fec739"/>
      <circle id="Ellipse_594" data-name="Ellipse 594" cx="50.518" cy="50.518" r="50.518" transform="translate(2890.833 726.161)" fill="#fec739"/>
      <rect id="Rectangle_1441" data-name="Rectangle 1441" width="101.036" height="27.217" transform="translate(2991.721 780.614) rotate(-174.71)" fill="#fec739"/>
      <circle id="Ellipse_595" data-name="Ellipse 595" cx="5.896" cy="5.896" r="5.896" transform="translate(2902.35 750.728)" fill="#313131"/>
      <circle id="Ellipse_596" data-name="Ellipse 596" cx="5.896" cy="5.896" r="5.896" transform="translate(2937.016 753.938)" fill="#313131"/>
      <path id="Path_4131" data-name="Path 4131" d="M3681.023,3124.608l-4.8,21.981-.678,3.108c-.288,1.319,1.018,2.457,2.179,2.624l5.815.833c3.075.44,3.511-4.364.445-4.8l-5.814-.833,2.179,2.624,4.8-21.981.678-3.109a2.425,2.425,0,0,0-2.179-2.624,2.472,2.472,0,0,0-2.624,2.179Z" transform="translate(-759.137 -2367.811)" fill="#313131"/>
      <path id="Path_4132" data-name="Path 4132" d="M3661.429,3179c5.59,1.463,12.683,1.624,16.892-2.916a2.415,2.415,0,0,0-.557-3.365,2.486,2.486,0,0,0-3.365.557c.488-.526-.013-.014-.126.085q-.229.2-.474.38c-.4.292-.121-.028.019.007-.076-.019-.447.255-.529.3a8.989,8.989,0,0,1-.977.431c-.639.24.278-.058-.134.054-.149.041-.3.084-.448.122a14.494,14.494,0,0,1-2.3.371,3.026,3.026,0,0,0-.615.041c.266-.088.458-.013.037-.006q-.558.012-1.117-.007a26.415,26.415,0,0,1-3.631-.377c-.379-.066-.756-.143-1.133-.221-.435-.09.759.181.28.064l-.123-.031a2.472,2.472,0,0,0-3.11,1.4,2.441,2.441,0,0,0,1.4,3.109Z" transform="translate(-739.511 -2378.277)" fill="#313131"/>
      <path id="Path_4133" data-name="Path 4133" d="M3618.289,3064.317s-10.489,20.416-38.322,22.79c1.795-25.63,30.2-44.706,45.221-44.3s61.283,17.857,62.095,30.032-7.773,26.67-7.773,26.67S3623.433,3104.292,3618.289,3064.317Z" transform="translate(-684.903 -2351.101)" fill="#313131"/>
      <path id="Path_4136" data-name="Path 4136" d="M3574.832,3136.563l-4.047.255-38.059,127.394,88.859.557-12.07-152.977" transform="translate(-581.822 -2365.581)" fill="#313131"/>
      <ellipse id="Ellipse_598" data-name="Ellipse 598" cx="11.107" cy="15.667" rx="11.107" ry="15.667" transform="matrix(-0.269, -0.963, 0.963, -0.269, 2983.801, 774.415)" fill="#fec739"/>
    </g>
    <path id="Path_4154" data-name="Path 4154" d="M773.285,2394s-21.8-16.19-27.2-19.48" transform="translate(206.421 -1769)" fill="none" stroke="#313131" stroke-linecap="round" stroke-width="2"/>
  </g>
</svg>
