<svg xmlns="http://www.w3.org/2000/svg" width="403.302" height="127.885" viewBox="0 0 403.302 127.885">
  <g id="Group_3396" data-name="Group 3396" transform="translate(8501.338 22681.725)">
    <rect id="Rectangle_1" data-name="Rectangle 1" width="35.47" height="16.129" rx="0.85" transform="translate(-8372.047 -22647.879)" fill="#00a4ef"/>
    <path id="Path_12" data-name="Path 12" d="M110.894,35.649h0A28.255,28.255,0,0,0,70.552,10.19a3.211,3.211,0,0,0-3.211-2.72h-9.67a3.211,3.211,0,0,0-3.211,3.211V64.7a3.211,3.211,0,0,0,3.211,3.211h9.67A3.211,3.211,0,0,0,70.589,64.7V35.687h0a12.088,12.088,0,1,1,24.175,0V64.811a3.211,3.211,0,0,0,3.211,3.211h9.67a3.249,3.249,0,0,0,3.249-3.211V35.725h0Z" transform="translate(-8349.939 -22660.977)" fill="#ffc517"/>
    <path id="Path_13" data-name="Path 13" d="M120.949,7.47a30.219,30.219,0,1,0,30.219,30.219A30.219,30.219,0,0,0,120.949,7.47Zm0,44.309a14.09,14.09,0,1,1,14.127-14.09,14.09,14.09,0,0,1-14.127,14.09Z" transform="translate(-8249.204 -22660.977)" fill="#ed4848"/>
    <rect id="Rectangle_2" data-name="Rectangle 2" width="16.129" height="60.438" rx="0.85" transform="translate(-8323.696 -22653.506)" fill="#00c08b"/>
    <path id="Path_14" data-name="Path 14" d="M132.8,7.47h-9.67a3.211,3.211,0,0,0-3.249,3.211v2.833a30.219,30.219,0,1,0,0,48.35v14.09A14.694,14.694,0,0,1,90.757,78.6a3.249,3.249,0,0,0-3.173-2.644H77.838a3.249,3.249,0,0,0-3.211,3.777,30.786,30.786,0,0,0,61.382-3.777V10.681A3.211,3.211,0,0,0,132.8,7.47Zm-31.05,44.309a14.09,14.09,0,1,1,9.987-4.113,14.09,14.09,0,0,1-9.987,4.113Z" transform="translate(-8302.529 -22660.977)" fill="#f90"/>
    <path id="Path_15" data-name="Path 15" d="M76.085,0H31.021A3.211,3.211,0,0,0,27.81,3.211V85.444a3.211,3.211,0,0,0,3.211,3.211h9.595a3.249,3.249,0,0,0,3.249-3.211V16.129h48.35A16.129,16.129,0,0,0,76.085,0Z" transform="translate(-8423.956 -22681.725)" fill="#00a4ef"/>
    <circle id="Ellipse_1" data-name="Ellipse 1" cx="8.046" cy="8.046" r="8.046" transform="translate(-8420.435 -22609.463)" fill="#00c08b"/>
    <path id="Path_17" data-name="Path 17" d="M36.67,4.252A36.3,36.3,0,1,0,66.889,60.044a3.249,3.249,0,0,0-2.569-4.986H51.666a3.437,3.437,0,0,0-2.153.793,20.133,20.133,0,0,1-32.221-8.877H69.344a3.249,3.249,0,0,0,3.211-2.909v-4.08A36.376,36.376,0,0,0,36.67,4.252ZM17.292,34.093a20.171,20.171,0,0,1,38.227,0Z" transform="translate(-8501.3 -22669.922)" fill="#00c08b"/>
  </g>
</svg>
