<svg xmlns="http://www.w3.org/2000/svg" width="222.458" height="45.623" viewBox="0 0 222.458 45.623">
  <g id="Group_3343" data-name="Group 3343" transform="translate(-4262 -5642)">
    <g id="圖層_2" data-name="圖層 2" transform="translate(4262 5642)">
      <g id="表頭尾" transform="translate(0 0)">
        <path id="Path_18" data-name="Path 18" d="M141.435,8.694a37.129,37.129,0,0,1-8.6,8.251l-2.253-4.652A29.465,29.465,0,0,0,137.354,5.9c1.346.922,2.692,1.873,4.082,2.794" transform="translate(60.454 2.74)" fill="#019e96"/>
        <rect id="Rectangle_3" data-name="Rectangle 3" width="17.658" height="4.755" transform="translate(203.499 9.459)" fill="#019e96"/>
        <path id="Path_19" data-name="Path 19" d="M162.051,13.982V18.59h-4.7l-.1,13.167a3.526,3.526,0,0,1-1.916,2.429c-2.165.907-4.9.571-7.315.571l-1.873-4.8,5.764-.1a1.156,1.156,0,0,0,.527-.614V18.678l-10.958-.132c0-1.156,0-2.355-.1-3.409a21.841,21.841,0,0,1-1.58,2.4V35h-4.813V23.579c-.819.629-1.58,1.39-2.341,2.063l-2.165-5.179a30.371,30.371,0,0,0,7.637-8.983l3.365,2.458Z" transform="translate(60.408 5.323)" fill="#019e96"/>
        <path id="Path_20" data-name="Path 20" d="M131.633,31.345c-.38.1-.19-.336-.527-.336-.1-.336-.424-.424-.658-.673s-.5-.322-.439-.8c.132,0,0-.483.336-.293v-.146a9.438,9.438,0,0,0,1.1-.717c.1-.146.336-.146.395-.336s.132,0,.234,0v-.1c0-.1.19,0,.234,0V27.8c0-.1.146,0,.19,0v-.1c0-.1.19,0,.249,0v-.146c.088-.1.19,0,.278,0v-.146h.146v-.088c0-.1.146,0,.2,0v-.775c-.395-.088-.2-.673-.629-.761-.146,0,0-.293-.19-.19-.2-.19-.146-.483-.395-.585s-.146-.38-.278-.468-.19-.483-.439-.541a1.77,1.77,0,0,0-.717-.995c-.088.088-.146.234-.336.19s0,.132,0,.132c-.585.249-.966.922-1.595,1.156-.19.293-.527.38-.8.585s-.395-.249-.541-.4c-.088-.614-.614-1.463,0-1.916h4.8V6.431H117.033l-.088,4.9a13.913,13.913,0,0,1-4.989-5.471H107.67a23,23,0,0,1-5.94,7.051c.527,1.682,1.1,3.453,1.77,5.135l1.244-.761c.249.234.1.717.146,1.053h2.443v1.2h-4.8v4.228l4.842.1v7.724l-.863.38-4.082.336.249,4.8c4.126-.571,8.207-1.346,12.186-2.209.775.336.336,1.463.483,2.107a2.019,2.019,0,0,0,1.346,0c.717.1.907-.424,1.624-.234.2-.38.907,0,1.156-.278a19.941,19.941,0,0,0,2.633-.541,7.432,7.432,0,0,0,1.639-.38c.527-.146,1.3,0,1.682-.424V32.076l.234-.146a.849.849,0,0,1,.483.717c.293.1.336.483.629.629s0,.336.19.234c0,.483.571.336.571.819.439.088.439.629.819.717.146.38.483.483.717.717s.541.293.541.673a3.717,3.717,0,0,1,.951.673c.336,0,.19.1.527,0a6.744,6.744,0,0,0,.585-1.009c.19-.146.278-.424.468-.527a.537.537,0,0,0,.249-.527c.234,0,.234-.293.336-.424a6.7,6.7,0,0,0,.673-1.068c.19,0,.19-.234.336-.424v-.293a7.651,7.651,0,0,1-1.931-1.463M109.864,11.507a8.471,8.471,0,0,1,2.063,2.487h-3.745a16.662,16.662,0,0,1,1.682-2.546m7.154,20.686h-1.053V30.306c-.19,0-.234-.19-.278-.278.468-1.595.658-3.219.995-4.8a23.948,23.948,0,0,0-3.5-.863l-1.009,4.886.1.249,2.677.614a12.26,12.26,0,0,1-3.116.629V23.913H116.3V19.524l-4.389-.088V18.368c.995-.088,2.063,0,3.116,0a12.229,12.229,0,0,0,.1-1.814c.234-.249.468.19.717.19.512-.673.761-1.551,1.2-2.209Zm4.9-20.789.234-.19h5.179c.234.38.1,1.009.146,1.536l-.146.1h-5.179c-.483-.19-.146-.966-.234-1.463M121.67,31.3V23.05c.293-.249,1.3-.439,1.2.322a28.25,28.25,0,0,0,1.96,7.169,13.913,13.913,0,0,1-3.16.8m.38-12.772a2.619,2.619,0,0,1,0-1.58h5.281c.336.336.146,1.009.19,1.463a51.422,51.422,0,0,1-5.428.088" transform="translate(47.098 2.722)" fill="#019e96"/>
        <path id="Path_21" data-name="Path 21" d="M103.167,25.465c.775-.146,1.536-.336,2.3-.483.293-.146.775-.1.878-.38,0-1.975-.439-3.848-.527-5.676-.483-.322-1.068,0-1.595,0a12.264,12.264,0,0,0-1.96.483l.322,6,.161.088c.176,0,.38.1.424-.088" transform="translate(47.343 8.704)" fill="#019e96"/>
        <path id="Subtraction_4" data-name="Subtraction 4" d="M23.013,45.623a23.46,23.46,0,0,1-7.317-1.17A22.778,22.778,0,0,1,12.07,2.7a23.725,23.725,0,0,1,24.5,1.52A23.248,23.248,0,0,1,44.652,14.46l-.047-.011a22.894,22.894,0,0,1-5.966,25.222A23.454,23.454,0,0,1,23.013,45.623ZM35.739,22.685h0A10.464,10.464,0,0,0,37.2,23.709l.061.038c.207.129.421.263.628.4A20.934,20.934,0,0,0,42.8,27.074l-.231-.187a.253.253,0,0,0-.019-.073c-.016-.045-.029-.086-.015-.106a.037.037,0,0,1,.034-.013l.336.192c.043-.252.291-.252.438-.252a1.819,1.819,0,0,0-.895-.618c-.142-.064-.274-.121-.393-.187A19.658,19.658,0,0,1,38.185,23.3a32.981,32.981,0,0,0,4.389,2.474.476.476,0,0,0,.494.3c.034,0,.068,0,.1,0H43.2c.032,0,.065,0,.1,0a.8.8,0,0,1,.29.045.483.483,0,0,0-.087-.029c-.085-.022-.191-.052-.191-.16h.759c-.078-.259-.317-.325-.569-.394a.951.951,0,0,1-.585-.321,1.458,1.458,0,0,1,.221-.017,1.4,1.4,0,0,1,.436.068.18.18,0,0,1-.074-.244,25.173,25.173,0,0,1-6.025-3.587,7.187,7.187,0,0,1-1.741-1.6A5.687,5.687,0,0,0,33.4,17.947a11.434,11.434,0,0,1-.614-1.2l-.192.1a7.574,7.574,0,0,1-.614-1.257,1.352,1.352,0,0,0-.985-.428c-.023,0-.045,0-.067,0a.9.9,0,0,1-.445.1,3.359,3.359,0,0,1-.471-.045l-.019,0-.025,0a2.794,2.794,0,0,0-.386-.041.449.449,0,0,0-.32.1l.278.149a.463.463,0,0,1-.427.252,17.226,17.226,0,0,1-2.777-2.927c.281-.772-.27-1.161-.854-1.574l-.014-.008a3.178,3.178,0,0,1-.846-.762,1.3,1.3,0,0,0-.826-.271,3.954,3.954,0,0,0-1.308.321c-.194.071-.372.136-.542.185a22.265,22.265,0,0,0-3.936-.539A1.962,1.962,0,0,0,16.977,11c-.059.086-.113.162-.166.231a12.332,12.332,0,0,0-.951,1.7A10.336,10.336,0,0,1,14.57,15.1a1.127,1.127,0,0,1-.8.4,1.179,1.179,0,0,0-.657.265,4.559,4.559,0,0,0-2.343.72c-.04.094-.082.191-.235.191a7.723,7.723,0,0,1-.759,1.1A4.811,4.811,0,0,1,7.731,19.1l-.032.013a10.274,10.274,0,0,0-.986.473A13.763,13.763,0,0,0,3.22,22.071a5.572,5.572,0,0,1-.941,1.005l-.014.011a5.734,5.734,0,0,0-.845.885.791.791,0,0,0,.436-.362.564.564,0,0,1,.491-.319.684.684,0,0,1,.11.007c.088.226-.063.37-.2.5-.09.084-.183.175-.183.278a1.49,1.49,0,0,1,.63-.192,1.448,1.448,0,0,1-.571.614.3.3,0,0,1,.1-.024c.048,0,.051.033.055.073a.132.132,0,0,0,.122.143.146.146,0,0,0,.029,0,.848.848,0,0,0,.335-.123.956.956,0,0,1,.394-.123.367.367,0,0,1,.193.052,7.149,7.149,0,0,1-.806.763.094.094,0,0,1,.023,0h.013a.225.225,0,0,0,.035,0c.169,0,.281-.024.356-.147a1.015,1.015,0,0,0,.477-.3c.152-.139.293-.268.431-.268l-.528.719.571-.442c.067.09,0,.169-.063.246s-.15.179-.027.282a1.371,1.371,0,0,0,.489-.424,1.294,1.294,0,0,1,.419-.381,1.236,1.236,0,0,1-.383.627,2.207,2.207,0,0,0-.29.366,1.242,1.242,0,0,1,.246-.163c.234-.133.5-.281.427-.552A6.3,6.3,0,0,0,5.9,23.677c.12-.137.236-.275.349-.408l.041-.05A5.362,5.362,0,0,1,9.292,21a4.467,4.467,0,0,1,1.382-.685l.012-.006a3.971,3.971,0,0,0,1.618-.891l.015-.02c.011-.015.022-.03.033-.044.132-.176.312-.419.557-.419a.386.386,0,0,1,.111.017v-.1a.38.38,0,0,1,.18-.246.414.414,0,0,1,.2-.053.322.322,0,0,1,.1.017v.192a2.293,2.293,0,0,1,1.228-.616,1.828,1.828,0,0,0,1.115-.585,3.852,3.852,0,0,0,1.71-1.459,4.889,4.889,0,0,1,.775-1.185,4.541,4.541,0,0,1,.763-1.186,3.6,3.6,0,0,1,1.463,0,1.261,1.261,0,0,0,1.112.475,6.154,6.154,0,0,0,.665-.048A6.126,6.126,0,0,1,23,14.112c.023.22.155.22.281.22s.246,0,.246.218a2.35,2.35,0,0,1,.93,1.066,3.972,3.972,0,0,0,.636.893,1.905,1.905,0,0,0-.951,1.143c-.341.045-.347.246-.352.443a.805.805,0,0,1-.019.19.522.522,0,0,0-.3.173l.01,0c.211,0,.267-.09.292-.167l.019,0a.373.373,0,0,1,.067-.007.523.523,0,0,1,.387.18L24.1,18.6c-.54.265-1.144.633-1.629.93l-.053.032c-.157.1-.314.193-.469.284l.074-.091c-.07.06-.143.136-.213.209l-.012.013a1.692,1.692,0,0,1-.287.264h.145a.243.243,0,0,1,.09.187,1.462,1.462,0,0,0,.377-.079,1.078,1.078,0,0,1,.25-.057.1.1,0,0,1,.046.007c.037.016.052.04.043.068a.483.483,0,0,0-.036.049h0a.111.111,0,0,0,.036-.047.269.269,0,0,1,.208-.116.524.524,0,0,1,.259.1.385.385,0,0,0,.163.073l-1.143.908h.438a.6.6,0,0,1-.444.356.787.787,0,0,0-.463.317c.087,0,.138.032.151.093a.3.3,0,0,1-.131.266.909.909,0,0,0,.171-.077.6.6,0,0,1,.27-.1.3.3,0,0,1,.157.048.8.8,0,0,1-.3.317c-.162.117-.315.227-.315.446a1.363,1.363,0,0,0,.313-.29c.147-.165.285-.321.473-.321a.412.412,0,0,1,.165.038c.018.052-.022.09-.069.136-.079.074-.161.149-.076.289a1.968,1.968,0,0,0,.278-.1,1.08,1.08,0,0,1,.309-.1c.129,0,.129.107.129.193a.512.512,0,0,1,.383-.1.549.549,0,0,0,.4-.1,2.782,2.782,0,0,1,1.815-.877l.012,0a5.387,5.387,0,0,0,1.1-.317v-.235c.08-.419.5-.464.915-.509l.01,0a2.138,2.138,0,0,0,.539-.1c.077-.3.312-.33.561-.359.232-.03.468-.06.582-.314a.218.218,0,0,1,.153-.071.419.419,0,0,1,.219.1l.012.007a.507.507,0,0,0,.268.1.366.366,0,0,0,.166-.04,2.013,2.013,0,0,1,.58-.154l.028-.006a1.644,1.644,0,0,0,.624-.18.981.981,0,0,1,.181-.017c.682,0,1.293.683,1.739,1.182.09.1.184.208.271.3a13.643,13.643,0,0,0,4.389,3.188c-.354-.25-.728-.468-1.089-.679l-.039-.021a12.9,12.9,0,0,1-1.357-.864C35.5,22.685,35.651,22.685,35.739,22.685Z" fill="#019e96"/>
        <path id="Path_24" data-name="Path 24" d="M22.35,11.334l-.19-.614.19.527Z" transform="translate(10.26 4.972)" fill="#019e96"/>
        <path id="Path_25" data-name="Path 25" d="M22.594,11.906c-.19,0-.146-.19-.234-.336a.6.6,0,0,1,.234.336" transform="translate(10.352 5.365)" fill="#019e96"/>
        <path id="Path_26" data-name="Path 26" d="M6.949,12.194c-.132-.278.249-.366.4-.614a1.053,1.053,0,0,1-.395.614" transform="translate(3.205 5.37)" fill="#019e96"/>
        <path id="Path_27" data-name="Path 27" d="M10.08,12.1V12.06h.146Z" transform="translate(4.667 5.592)" fill="#019e96"/>
        <path id="Path_28" data-name="Path 28" d="M9.489,12.3c-.088.088-.132.234-.278.19s.19-.293.278-.19" transform="translate(4.248 5.691)" fill="#019e96"/>
        <path id="Path_29" data-name="Path 29" d="M16.234,12.868c-.234.19-.717.336-.761.629-.424,0-.717.38-1.053.38,0-.38.629-.146.673-.527l.38-.293V13.2c.146-.146.629,0,.483-.424Z" transform="translate(6.676 5.925)" fill="#019e96"/>
        <path id="Path_30" data-name="Path 30" d="M14.787,13a.761.761,0,0,1-.527.38c.088-.234.278-.234.527-.38" transform="translate(6.602 6.027)" fill="#019e96"/>
        <path id="Path_31" data-name="Path 31" d="M7.94,13.43c.1.146-.088,0-.146.1s.1-.1.146-.1" transform="translate(3.603 6.226)" fill="#019e96"/>
        <rect id="Rectangle_4" data-name="Rectangle 4" width="0.146" height="0.146" transform="translate(22.296 19.89)" fill="#019e96"/>
        <path id="Path_32" data-name="Path 32" d="M15.2,13.84c0,.1-.1.1-.146.19H14.91c0-.146.1-.19.19-.234s0,0,.1,0" transform="translate(6.903 6.387)" fill="#019e96"/>
        <path id="Path_33" data-name="Path 33" d="M15.863,14.449c0,.19-.293.19-.38.234s0-.088,0-.19.19-.088.336,0" transform="translate(7.15 6.685)" fill="#019e96"/>
        <path id="Path_34" data-name="Path 34" d="M15.971,14.666c0,.19-.38.19-.571.336,0-.19.234-.293.38-.38s.19,0,.19,0" transform="translate(7.13 6.76)" fill="#019e96"/>
        <path id="Path_35" data-name="Path 35" d="M23.769,15.153c.19.088.293.322.439.468l-.146.146a3.687,3.687,0,0,1-.731-1.1c.146.146.249.38.439.483" transform="translate(10.801 6.8)" fill="#019e96"/>
        <path id="Path_36" data-name="Path 36" d="M28.478,16.746c-.146.088-.336-.1-.468-.146Z" transform="translate(12.968 7.694)" fill="#019e96"/>
        <path id="Path_37" data-name="Path 37" d="M29.63,17.357c-.4-.249-.907-.249-1.2-.527a2.546,2.546,0,0,1,1.2.527" transform="translate(13.162 7.8)" fill="#019e96"/>
        <path id="Path_38" data-name="Path 38" d="M26.565,17.284l-.585-.424.38.19Z" transform="translate(12.028 7.814)" fill="#019e96"/>
        <path id="Path_39" data-name="Path 39" d="M29.15,18.158l.044-.088.146.088Z" transform="translate(13.496 8.374)" fill="#019e96"/>
        <path id="Path_40" data-name="Path 40" d="M29.06,18.332h-.19v-.1a.234.234,0,0,1,.19.1" transform="translate(13.366 8.448)" fill="#019e96"/>
        <path id="Path_41" data-name="Path 41" d="M91.285,30.274h6.964V10.012h4.989V37H98.248V35.19l-19.179-.059-.044,1.741H73.89V9.778h5.135v20.5l7.066-.044V5.36h5.194Z" transform="translate(34.209 2.49)" fill="#019e96"/>
        <path id="Path_42" data-name="Path 42" d="M73.921,10.783l-11.338.029L62.5,10.9V17.8l10.665.1v4.886H62.451l-.059,8.7,12.918.044v5H44.34V31.586l12.874-.044v-8.69l-10.577-.059v-4.93H57.214v-7.1L45.92,10.651V5.75h28Z" transform="translate(20.528 2.671)" fill="#019e96"/>
        <path id="Path_43" data-name="Path 43" d="M64.2,19.723a3.292,3.292,0,0,1,.38,2.516,3.116,3.116,0,0,1-2.019,2.092,3.16,3.16,0,0,1-3.336-1.009,3.058,3.058,0,0,1-.688-2.268A3.095,3.095,0,0,1,64.2,19.723" transform="translate(27.092 8.491)" fill="#019e96"/>
      </g>
    </g>
  </g>
</svg>
