<svg xmlns="http://www.w3.org/2000/svg" width="146.649" height="280.117" viewBox="0 0 146.649 280.117">
  <g id="Group_3368" data-name="Group 3368" transform="translate(8906.124 -2080.235)">
    <g id="Group_3090" data-name="Group 3090" transform="translate(-8906.124 2080.235)">
      <path id="Path_2377" data-name="Path 2377" d="M2901.356,1159.121c7.03,1.91,23.615,4.878,23.615,17.134,0,10.976-14.8,20.722-14.8,30.737V1224.9c0,15.674-19.637,15.651-31.021,15.674h-.034c-.652-5.112,6.523-20.6,7.708-25.09,4.35-16.865,1.968-15.588-.774-32.787-.547-3.911,1.944-8.031-2-8.014-.1,0-12.656-12.649-2.478-10.14-3.941-7.082,4.31-3.979.817-11.268a16.643,16.643,0,0,0,1.183-2.615,33.567,33.567,0,0,1-3.625.168c-7.7.149-14.351-3.118-18.1-9.842-2.306,2.838-4.127,5.5-4.27,9.159,0,.417-1.359.4-1.313.81l1.313.449c-1.77-2.118-3.68-5.276-3.771-8.035.222-4.909,3.183-9.045,6.677-12.5,4.488-3.744,9.16-4.788,17.556-4.676,9.645,0,19.72,11.806,19.72,21.513C2897.746,1151.79,2897.407,1158.044,2901.356,1159.121Z" transform="translate(-2778.744 -1126.184)" fill="#313131"/>
      <path id="Path_4386" data-name="Path 4386" d="M8129.792,6711.337s1.487-6.172,11.89-6.295,17.257,8.357,18.295,13.977,2.671,16.879-1.621,16.587-2.256,10.821-2.256,10.821,6.286-4.419,9.773,2.773-5.9,8.127-5.9,8.127,6.052-.562,5.9,3.913-5.9,0-5.9,0,6.6,19.248-12.776,17.172-21.151-3.447-21.212-11.894S8129.792,6711.337,8129.792,6711.337Z" transform="translate(-8020 -6655.356)" fill="#195f5f"/>
      <path id="Path_4072" data-name="Path 4072" d="M2876.933,1221.3l9.544-8.545,7.445,6.106-14.279,6.4Z" transform="translate(-2789.307 -1165.726)" fill="#ff957c"/>
      <rect id="Rectangle_1423" data-name="Rectangle 1423" width="13.084" height="33.3" rx="6.542" transform="translate(91.507 24.426) rotate(0.322)" fill="#ff957c"/>
      <path id="Path_4073" data-name="Path 4073" d="M2885.059,1167.948h0l.015-2.563a5.634,5.634,0,0,0,1.642-.352c2.151-.806,3.43-2.7,2.858-4.22-.537-1.431-2.514-2.031-4.534-1.432a13.406,13.406,0,0,0-26.751,1.195l-.04,7.222h0c0,.064-.005.128-.006.193a13.405,13.405,0,1,0,26.81.151C2885.063,1168.077,2885.06,1168.013,2885.059,1167.948Z" transform="translate(-2780.774 -1135.804)" fill="#ff957c"/>
      <ellipse id="Ellipse_547" data-name="Ellipse 547" cx="1.564" cy="1.564" rx="1.564" ry="1.564" transform="translate(80.107 26.156)" fill="#313131"/>
      <ellipse id="Ellipse_548" data-name="Ellipse 548" cx="1.564" cy="1.564" rx="1.564" ry="1.564" transform="translate(89.344 26.208)" fill="#313131"/>
      <path id="Path_4074" data-name="Path 4074" d="M2873.162,1176.192l-.764,5.921-.107.837-.636-.644,1.556.087c.819.046.817,1.325-.007,1.28l-1.557-.087c-.313-.017-.682-.286-.636-.643l.761-5.921.108-.838a.661.661,0,0,1,.643-.636.645.645,0,0,1,.638.644Z" transform="translate(-2786.601 -1148.731)" fill="#313131"/>
      <path id="Path_4075" data-name="Path 4075" d="M2874.444,1195.072l.032.005c.131.02-.191-.024-.074-.011.1.012.193.023.292.032a7.038,7.038,0,0,0,.98.018c.1-.005.2-.014.3-.024.073-.008.123-.048-.009,0a.989.989,0,0,1,.161-.025,3.867,3.867,0,0,0,.58-.144c.046-.016.09-.033.135-.049.106-.038-.129.061.034-.017a2.531,2.531,0,0,0,.248-.136c.018-.011.116-.1.133-.091-.031-.008-.113.094,0,0,.04-.036.079-.072.115-.111s.148-.176.031-.026a.659.659,0,0,1,.877-.224.646.646,0,0,1,.224.877c-1.009,1.3-2.887,1.417-4.4,1.158a.641.641,0,0,1-.442-.79.657.657,0,0,1,.789-.442Z" transform="translate(-2787.798 -1157.24)" fill="#313131"/>
      <path id="Path_2423" data-name="Path 2423" d="M2812.665,1233.649h0l-12.031,16.287s-5.976-7.807-8.948-11.374-9.828-11.27-11.786-13.3a42.818,42.818,0,0,1-7.123-10.8c-1.05-3.037-5.144-17.046-5.144-17.046s-3.208,3.523-3.513,16.08c3.843,10.336,13.2,34.431,25.745,49.506-9.961,6.364-14.958,10.163-21.1,16.83s-11.175,16.316-5.6,20.541c2.181,1.188,4.578-1.279,7.645-5.5s11.626-18.478,27.513-20.045,19.936-4.541,19.936-4.541l19.167-28.132" transform="translate(-2736.244 -1158.72)" fill="#ff957c"/>
      <path id="Path_2378" data-name="Path 2378" d="M2932.787,1633.221h-22.849c-.182-1.275-.37-2.54-.552-3.8,4.538-1.534,8.965-3.256,13.4-5.065v.009c2.152,0,4.315.009,6.476.009h1.636Q2931.828,1628.643,2932.787,1633.221Z" transform="translate(-2804.13 -1353.727)" fill="#fff"/>
      <path id="Path_2379" data-name="Path 2379" d="M2902.625,1517.664h-1.636c-2.164,0-4.323-.009-6.479-.009v-.008a.566.566,0,0,0,.112-.044c-6.648-17.078-21.473-32.14-36.3-51.449a52.417,52.417,0,0,1-10.824-31.874v-.13q0-1.9.027-3.8c13.985-14,25.077-25.991,31.157-39.632l.716.025a184.653,184.653,0,0,0-6.917,55.314C2889.018,1465.8,2895.577,1485.454,2902.625,1517.664Z" transform="translate(-2775.864 -1247.012)" fill="#195f5f"/>
      <path id="Path_2380" data-name="Path 2380" d="M2865.919,1308.506l-.715-.025a146.233,146.233,0,0,1-46.6-9.119c-2.349-.9,2.4-13.691,5.752-19.961.577-1.111,1.111-2.221,1.6-3.355v-.009a5.721,5.721,0,0,0,4.306-1.342,210.037,210.037,0,0,0,22.787-22.158c-4.1-3.134-9.2-6.711-14.115-11.187-2.739,3.144-5.469,6.415-8.371,10.032-.016-2.635-.156-5.356-.4-8.207a10.705,10.705,0,0,1,3.134-8.509,134.131,134.131,0,0,1,16.708-14.322,3.773,3.773,0,0,0,2.745.956c4.529,0,9.034-6.415,14.572-10.636a5.874,5.874,0,0,1,5.839,5.057,94.374,94.374,0,0,1-1.817,38.418,58.616,58.616,0,0,0-1.748,10.188c-.316,3.671-4.479,42.554-4.393,44.154" transform="translate(-2762.377 -1164.771)" fill="#fff"/>
      <path id="Path_2381" data-name="Path 2381" d="M2831.376,1383.046c-6.079,13.64-17.171,25.629-31.157,39.632-5.134,5.142-10.661,10.559-16.476,16.432-3.556,23.141-6.484,34.055-17.042,47.409a87.37,87.37,0,0,0-13.085,22.633l-1.343-.181c-.336-.043-8.207-1.092-8.355-1.387a1.618,1.618,0,0,0,.306-.375,7.991,7.991,0,0,0,.829-1.534q1.217-3.02,2.328-6.054c14.641-40.115,15.348-82.3,37.385-125.692A146.289,146.289,0,0,0,2831.376,1383.046Z" transform="translate(-2728.552 -1239.342)" fill="#019e96"/>
      <path id="Path_2382" data-name="Path 2382" d="M2770.57,1172.146l5.341,31.408a60.634,60.634,0,0,1-6.769-17.447q-.247.878-.465,1.757h-.008l-2.248-15.053a2.1,2.1,0,1,1,4.152-.671h0Z" transform="translate(-2738.818 -1146.367)" fill="#019e96"/>
      <path id="Path_2383" data-name="Path 2383" d="M2739.867,1621.345c.275.6.526,1.188.758,1.748q-.825,2.234-1.5,4.529c-.311,1.058-.613,2.136-.913,3.221-.025.1-.061.206-.086.31h-21.4c.027-1.8.094-3.592.121-5.391,5.357-2.377,9.534-3.5,13.789-5.8l1.559.259C2734.734,1620.622,2737.3,1621,2739.867,1621.345Z" transform="translate(-2716.133 -1351.717)" fill="#fff"/>
      <g id="Group_1729" data-name="Group 1729" transform="translate(71.07 143.085)">
        <path id="Path_2393" data-name="Path 2393" d="M2847.052,1430.42a.6.6,0,0,1-.428-1.016c13.289-13.306,24.8-25.458,31.037-39.455a.6.6,0,0,1,.774-.335h0a.6.6,0,0,1,.337.772v0l-.018.042c-6.322,14.183-17.907,26.421-31.281,39.812A.589.589,0,0,1,2847.052,1430.42Z" transform="translate(-2846.457 -1389.572)" fill="#313131"/>
      </g>
      <g id="Group_1730" data-name="Group 1730" transform="translate(0 268.211)">
        <path id="Path_2394" data-name="Path 2394" d="M2737.627,1631.719h-21.4a.6.6,0,0,1-.595-.6h0c.013-.9.037-1.8.06-2.7s.048-1.79.061-2.684a.594.594,0,0,1,.355-.537c2.212-.982,4.194-1.74,6.116-2.473,2.288-.874,4.451-1.7,6.571-2.76a.6.6,0,0,1,.532,1.067,72.159,72.159,0,0,1-6.679,2.806c-1.8.688-3.664,1.4-5.7,2.3-.014.773-.034,1.546-.054,2.32-.019.694-.037,1.389-.051,2.085h20.342c.293-1.055.582-2.087.879-3.1.45-1.526.957-3.06,1.509-4.561a.6.6,0,0,1,.765-.351h0a.6.6,0,0,1,.354.766h0c-.546,1.475-1.046,2.983-1.485,4.482-.309,1.057-.61,2.131-.91,3.213l-.082.294A.6.6,0,0,1,2737.627,1631.719Z" transform="translate(-2715.632 -1619.901)" fill="#313131"/>
      </g>
      <g id="Group_1731" data-name="Group 1731" transform="translate(104.656 270.621)">
        <path id="Path_2395" data-name="Path 2395" d="M2932.279,1633.811h-22.848a.6.6,0,0,1-.592-.5q-.157-1.1-.317-2.18l-.234-1.614a.593.593,0,0,1,.4-.649c3.575-1.208,7.382-2.632,11.969-4.483a.6.6,0,0,1,.774.33v.005a.6.6,0,0,1-.333.776h0c-4.411,1.779-8.1,3.167-11.562,4.348l.168,1.123q.124.838.245,1.677h21.6q-.694-3.312-1.371-6.448a.6.6,0,0,1,.455-.709h0a.6.6,0,0,1,.709.458q.75,3.483,1.523,7.175a.6.6,0,0,1-.461.7.617.617,0,0,1-.122.014Z" transform="translate(-2908.282 -1624.338)" fill="#313131"/>
      </g>
      <g id="Group_1733" data-name="Group 1733" transform="translate(75.962 66.109)">
        <path id="Path_2397" data-name="Path 2397" d="M2856.057,1258.943a.6.6,0,0,1-.449-.988c2.9-3.317,5.872-6.554,9.1-9.9a.593.593,0,1,1,.854.823c-3.216,3.331-6.18,6.554-9.059,9.856A.6.6,0,0,1,2856.057,1258.943Z" transform="translate(-2855.462 -1247.876)" fill="#313131"/>
      </g>
      <g id="Group_1735" data-name="Group 1735" transform="translate(27.371 39.341)">
        <path id="Path_2399" data-name="Path 2399" d="M2799.444,1270.115a.6.6,0,0,1-.336-.1,41.082,41.082,0,0,1-7.271-6.387c-9.337-10.2-17.057-27.12-25.778-49.394a.546.546,0,0,1-.042-.225,58.287,58.287,0,0,1,2.326-14.968.6.6,0,0,1,.732-.415h0a.6.6,0,0,1,.415.735h0a57.221,57.221,0,0,0-2.281,14.547c8.653,22.094,16.306,38.868,25.5,48.914a39.861,39.861,0,0,0,7.062,6.207.6.6,0,0,1-.344,1.089Z" transform="translate(-2766.017 -1198.603)" fill="#313131"/>
      </g>
      <g id="Group_1736" data-name="Group 1736" transform="translate(90.08 70.629)">
        <path id="Path_2400" data-name="Path 2400" d="M2882.044,1273.926a.6.6,0,0,1-.447-.99c4.27-4.865,8.623-10.255,13.312-16.5a.6.6,0,0,1,.836-.122l0,0a.6.6,0,0,1,.12.836l0,0c-4.7,6.27-9.078,11.69-13.369,16.572A.6.6,0,0,1,2882.044,1273.926Z" transform="translate(-2881.45 -1256.197)" fill="#313131"/>
      </g>
      <path id="Path_4076" data-name="Path 4076" d="M2867.7,1147.9s13.284,10.963,21.663,9.618-4.088-14.256-4.088-14.256S2868.154,1142.071,2867.7,1147.9Z" transform="translate(-2785.088 -1133.937)" fill="#313131"/>
    </g>
  </g>
</svg>
