<svg xmlns="http://www.w3.org/2000/svg" width="190.049" height="205.307" viewBox="0 0 190.049 205.307">
  <g id="Group_3369" data-name="Group 3369" transform="translate(8518.179 -2071.74)">
    <circle id="Ellipse_702" data-name="Ellipse 702" cx="5.807" cy="5.807" r="5.807" transform="translate(-8428.743 2071.74)" fill="#313131"/>
    <g id="Group_3097" data-name="Group 3097" transform="translate(-8461.686 2079.274)">
      <line id="Line_233" data-name="Line 233" y2="13.938" transform="translate(38.388 0)" fill="none" stroke="#313131" stroke-linecap="round" stroke-width="2"/>
      <line id="Line_234" data-name="Line 234" y1="21.972" x2="38.388" transform="translate(0 13.938)" fill="none" stroke="#313131" stroke-linecap="round" stroke-width="2"/>
      <line id="Line_235" data-name="Line 235" x1="38.388" y1="21.972" transform="translate(38.388 13.938)" fill="none" stroke="#313131" stroke-linecap="round" stroke-width="2"/>
    </g>
    <g id="Group_3113" data-name="Group 3113" transform="translate(-8518.179 2115.183)">
      <g id="Group_3111" data-name="Group 3111" transform="translate(0 6.388)">
        <path id="Path_4459" data-name="Path 4459" d="M.247-1.042c41.152-6.33,110.523-1.72,138.2,0s34.55,113.3,0,151.065c-42.387.84-93.912,2.159-138.2,0C-34.3,112.257-40.905,5.288.247-1.042Z" transform="translate(28.196 4.278)" fill="#019e96"/>
        <path id="Path_4460" data-name="Path 4460" d="M9768.063,6542.136s-31.9,37.955,0,115.4c23.161-.1,24.017,3.638,23.573-9.237-.437-12.707.14-90.189-6.637-106.16.165.159.168.152,0,0C9773.852,6541.8,9768.063,6542.136,9768.063,6542.136Z" transform="translate(-9747.075 -6529.756)" fill="#fffbf0"/>
        <path id="Path_4461" data-name="Path 4461" d="M9780.323,6542.813s4.474,102.857,4.825,110.462,8.284,6.105,14.715,6.105h93.614c6.086,0,10.115-2.677,12.624-11.663s15.208-97.162-10.116-104.9C9869.854,6542.582,9780.323,6542.813,9780.323,6542.813Z" transform="translate(-9729.951 -6529.409)" fill="#fffbf0"/>
        <g id="Group_3098" data-name="Group 3098" transform="translate(0 22.43)">
          <path id="Path_3940" data-name="Path 3940" d="M2454.6,2863.524l1.329,31.454-7.452,2.649-3.016-34.191Z" transform="translate(-2378.324 -2845.791)" fill="#ff957c"/>
          <path id="Path_3942" data-name="Path 3942" d="M2443.336,2902.653s-7.348,3.623-12.21,5.755c-2.765,1.213-5.355,2.356-6.7,2.963-3.691,1.678-15.379-24.806-17.143-31.748s-7.816-26.2-15.955-25.822-17.418-5.814-17.418-5.814l7.8,8.68-7.469.1s14.323,8.185,18.582,12.065,11.02,40.056,12.366,48.268,8.618,15.229,13.136,15.558,29.572-7.09,29.572-7.09Z" transform="translate(-2337.172 -2836.906)" fill="#ff957c"/>
          <path id="Path_3943" data-name="Path 3943" d="M2452.908,2878.884s3.061-10.805.912-21.344c13.6,5.277,5.792,19.7,5.792,19.7l8.351,45.114-16.989-3.7-3.8-54.454" transform="translate(-2379.31 -2842.4)" fill="#ff957c"/>
          <path id="Path_3944" data-name="Path 3944" d="M2304.752,2827.81l-1.74,20.4,102.132,1.548.812-8.371Z" transform="translate(-2296.392 -2825.3)" fill="#313131"/>
          <path id="Path_3953" data-name="Path 3953" d="M2463.574,2869.889s8.719,2.267,7.507-2.572-6.477-7.582-6.477-7.582C2467.881,2867.366,2463.574,2869.889,2463.574,2869.889Z" transform="translate(-2388.743 -2843.663)" fill="#ff957c"/>
          <ellipse id="Ellipse_703" data-name="Ellipse 703" cx="10.196" cy="6.639" rx="10.196" ry="6.639" transform="matrix(0.073, -0.997, 0.997, 0.073, 0, 22.422)" fill="#fec739"/>
          <ellipse id="Ellipse_704" data-name="Ellipse 704" cx="4.244" cy="2.763" rx="4.244" ry="2.763" transform="matrix(0.073, -0.997, 0.997, 0.073, 105.692, 24.252)" fill="#313131"/>
          <ellipse id="Ellipse_705" data-name="Ellipse 705" cx="5.25" cy="3.117" rx="5.25" ry="3.117" transform="matrix(0.073, -0.997, 0.997, 0.073, 3.528, 17.991)" fill="#313131"/>
          <path id="Path_4462" data-name="Path 4462" d="M2447.893,2907.789c3.037,6.728,6.326,13.341,9.685,19.912q3.9,7.623,7.944,15.167a3.5,3.5,0,0,0,1,1.433,1.744,1.744,0,0,0,1.728,0l2.669-1.185c.562-.25.984.607.421.858l-2.474,1.1a4.081,4.081,0,0,1-1.222.41,2.553,2.553,0,0,1-2.141-.8,6.329,6.329,0,0,1-.819-1.357q-.35-.654-.7-1.308-.875-1.638-1.742-3.28c-3.312-6.265-6.56-12.565-9.695-18.921-1.895-3.841-3.748-7.7-5.511-11.606-.253-.561.6-.982.859-.421Z" transform="translate(-2379.203 -2871.15)" fill="#313131"/>
          <path id="Path_4463" data-name="Path 4463" d="M2634.144,2873.522s7.808,1.6,9.984-.355c6.093-5.475,5.647-21.575,5.647-21.575l-13.149-.112" transform="translate(-2486.851 -2838.914)" fill="#313131"/>
          <rect id="Rectangle_1514" data-name="Rectangle 1514" width="19.615" height="45.004" rx="9.807" transform="translate(134.607 19.882) rotate(4.632)" fill="#ff957c"/>
          <ellipse id="Ellipse_706" data-name="Ellipse 706" cx="16.676" cy="16.676" rx="16.676" ry="16.676" transform="translate(120.956 2.272)" fill="#ff957c"/>
          <ellipse id="Ellipse_707" data-name="Ellipse 707" cx="16.676" cy="16.676" rx="16.676" ry="16.676" transform="translate(120.211 11.465)" fill="#ff957c"/>
          <rect id="Rectangle_1515" data-name="Rectangle 1515" width="8.984" height="33.352" transform="matrix(0.081, -0.997, 0.997, 0.081, 120.285, 26.556)" fill="#ff957c"/>
          <ellipse id="Ellipse_708" data-name="Ellipse 708" cx="1.946" cy="1.946" rx="1.946" ry="1.946" transform="translate(123.937 19.701)" fill="#313131"/>
          <ellipse id="Ellipse_709" data-name="Ellipse 709" cx="1.946" cy="1.946" rx="1.946" ry="1.946" transform="translate(135.392 20.629)" fill="#313131"/>
          <path id="Path_4464" data-name="Path 4464" d="M2592.013,2871.879l-1.5,7.274-.211,1.028c-.091.437.345.808.729.858l1.923.253c1.017.134,1.143-1.454.129-1.587l-1.923-.253.73.858,1.5-7.274.212-1.028a.8.8,0,0,0-.729-.858.816.816,0,0,0-.858.729Z" transform="translate(-2461.627 -2850.226)" fill="#313131"/>
          <path id="Path_4465" data-name="Path 4465" d="M2594.069,2903.922c1.85.462,4.192.488,5.565-1.026a.8.8,0,0,0-.2-1.109.821.821,0,0,0-1.109.2c.159-.176,0,0-.041.029s-.1.086-.155.126c-.13.1-.04-.008.006,0-.025-.006-.146.085-.173.1a2.975,2.975,0,0,1-.32.146c-.21.082.092-.02-.044.019-.049.014-.1.029-.148.042a4.778,4.778,0,0,1-.756.131.966.966,0,0,0-.2.016c.088-.03.151-.006.012,0q-.184.006-.368,0a8.6,8.6,0,0,1-1.2-.111c-.125-.02-.25-.044-.375-.068-.144-.028.251.056.092.02l-.041-.01a.816.816,0,0,0-1.021.475.805.805,0,0,0,.475,1.021Z" transform="translate(-2463.506 -2867.771)" fill="#313131"/>
          <ellipse id="Ellipse_710" data-name="Ellipse 710" cx="5.172" cy="3.667" rx="5.172" ry="3.667" transform="translate(148.839 20.193) rotate(-16.242)" fill="#ff957c"/>
          <path id="Path_4466" data-name="Path 4466" d="M2562.439,2840.752s3.263-10.637,13.153-10.06c-.6,5.079,4.448,11.617,9.183,9.692s4.585,2.458,4.585,2.458,1.434,3.77,6-2.194c2.013-.286,6.653-.835,6.653-.835s6.447-6.76-1.335-12.332-26.33-5.525-26.33-5.525-15.1-1.917-18.952,16.952C2557.25,2839.625,2562.439,2840.752,2562.439,2840.752Z" transform="translate(-2441.557 -2821.902)" fill="#313131"/>
          <path id="Path_4467" data-name="Path 4467" d="M2554.234,2979.151l.649,23.3h36.911s.19-32.211-1.73-40.579-7.642-19.545-35.182-9.324c-21.395,7.941-26.054,8.318-26.054,8.318s1.088,15.828,8.825,22.5a167.886,167.886,0,0,0,16.58-4.211" transform="translate(-2426.928 -2894.694)" fill="#fec739"/>
          <path id="Path_4468" data-name="Path 4468" d="M2547.353,3017.795q4.935-1.21,9.875-2.4,9.273-2.246,18.56-4.43c2.665-.621,5.331-1.242,8.008-1.81a.478.478,0,0,1,.187.938c-5.412,1.148-10.792,2.455-16.173,3.739q-8.4,2-16.786,4.053-1.742.426-3.484.853c-.6.147-.782-.792-.186-.939Z" transform="translate(-2436.72 -2929.596)" fill="#313131"/>
        </g>
      </g>
      <rect id="Rectangle_1512" data-name="Rectangle 1512" width="89.433" height="5.807" transform="translate(50.492 0)" fill="#019e96"/>
      <rect id="Rectangle_1513" data-name="Rectangle 1513" width="108.016" height="5.807" transform="translate(41.2 3.484)" fill="#195f5f"/>
    </g>
  </g>
</svg>
