<svg xmlns="http://www.w3.org/2000/svg" width="264.996" height="277.99" viewBox="0 0 264.996 277.99">
  <g id="Group_3366" data-name="Group 3366" transform="translate(8969.94 -1335.848)">
    <g id="Group_3365" data-name="Group 3365" transform="translate(-8969.941 1393.684)">
      <path id="Path_4342" data-name="Path 4342" d="M8899.289,6653.961l-9.616,21.784h9.616l-9.616,19.715-10.278,146.877,60.124-7.787s-15.834-102.434-30.011-121.1c15.318,1.477,10.016,0,10.016,0Z" transform="translate(-8786.865 -6653.961)" fill="#195f5f"/>
      <path id="Path_4343" data-name="Path 4343" d="M20.669,0,25.61,11.192H20.669l4.941,10.13L30.89,96.784,0,92.784S8.135,40.155,15.418,30.562c-7.87.759-5.146,0-5.146,0Z" transform="matrix(0.891, -0.454, 0.454, 0.891, 54.114, 58.082)" fill="#195f5f"/>
      <g id="Group_3146" data-name="Group 3146" transform="translate(0 121.199)">
        <path id="Path_4332" data-name="Path 4332" d="M9011.965,6870.506l-12.095-6.679-.031-16.979.046-21.532s-26.829-20.047-61.431-18.566-76.365,23.121-78.96,33.675,6.518,14.1,6.518,14.1l23.507,10.271,75.436,10.516Z" transform="translate(-8852.069 -6806.671)" fill="#6cd5a7"/>
        <path id="Path_4331" data-name="Path 4331" d="M8911.186,6878.313l111.416-38.46v14.795l-31.479,13.073,31.479-6.367v16.96l-31.479,3.866,43.6,2.8v8.747H8911.186Z" transform="translate(-8874.824 -6821.146)" fill="#195f5f"/>
        <path id="Path_4333" data-name="Path 4333" d="M8859.029,6877.472l29.735,17.351-.273,15.37-15.307-8.615v-6.755l-14.155-10.482Z" transform="translate(-8852.069 -6837.56)" fill="#019e96"/>
        <path id="Path_4335" data-name="Path 4335" d="M8846.684,6896.424l.3,6.57s16.485,6.442,21.511,7.1c.816-9.075-.9-7.1-.9-7.1Z" transform="translate(-8846.684 -6845.828)" fill="#019e96"/>
        <path id="Path_4334" data-name="Path 4334" d="M8867.976,6901.031l-14.4-10.91a8.256,8.256,0,0,0-6.674,3.4C8844.2,6897.153,8867.976,6901.031,8867.976,6901.031Z" transform="translate(-8846.683 -6843.64)" fill="#6cd5a7"/>
      </g>
      <g id="Group_3025" data-name="Group 3025" transform="translate(84.906 149.154)" style="isolation: isolate">
        <path id="Path_4338" data-name="Path 4338" d="M8761.75,6783.856s1.715-6.347,9.659-6.519c-.056-6.6.03-6.706.03-6.706l7.8-4.053s12.8-15.082,52.813-15.026,67.98,12.17,67.98,12.17l-85.137,43.5Z" transform="translate(-8761.75 -6751.553)" fill="#6cd5a7"/>
        <path id="Path_4336" data-name="Path 4336" d="M8904.187,6800.851v36.221l74.111-18.453V6778Z" transform="translate(-8839.94 -6766.072)" fill="#195f5f"/>
        <path id="Path_4337" data-name="Path 4337" d="M8826,6840.8v-36.119l-47.013-19.888,27.462,23.037-35.049-18.959v6.714l11.529,9.1-21.176-2.646v17.177Z" transform="translate(-8761.75 -6769.8)" fill="#019e96"/>
        <path id="Path_4341" data-name="Path 4341" d="M8761.822,6861.1l19.987,8.378,1.095-.6,22.011,7.906,1.675-1.02Z" transform="translate(-8761.79 -6811.691)" fill="#019e96"/>
        <path id="Path_4339" data-name="Path 4339" d="M8858.921,6834.8l-.148,26.359-1.4.727V6860.6l-.015-26.641Z" transform="translate(-8814.23 -6796.792)" fill="#195f5f"/>
        <path id="Path_4340" data-name="Path 4340" d="M8807.234,6828.7l-.049,22.316-1.113.6-.053-23.066Z" transform="translate(-8786.051 -6793.82)" fill="#195f5f"/>
      </g>
    </g>
    <g id="Group_3112" data-name="Group 3112" transform="translate(-8891.253 1335.848)" style="isolation: isolate">
      <g id="Group_3092" data-name="Group 3092" transform="translate(0 0)" style="mix-blend-mode: luminosity;isolation: isolate">
        <path id="Path_4388" data-name="Path 4388" d="M77.909,18.178C67.31,16.609.782,30.485.782,30.485s-3,6.08,2.741,9.889c31.869-3.536,75.708-2.624,82.554-5.073,0,0,14.067,6.559,23.979-30.429-23-9.035-26.184-2.736-26.184-2.736A14.862,14.862,0,0,0,82.124,8.45C81.709,12.747,82.933,17.479,77.909,18.178Z" transform="matrix(0.985, -0.174, 0.174, 0.985, 10.626, 156.052)" fill="#ff957c"/>
        <path id="Path_4389" data-name="Path 4389" d="M10.508,0s-2,9.342,1.919,11.667c-8.525,1.194-8.56.943-8.56.943s-6.391-3.5-2.741-9.89C6.849.832,10.508,0,10.508,0Z" transform="matrix(0.985, -0.174, 0.174, 0.985, 15.108, 183.454)" fill="#fff"/>
        <path id="Path_4390" data-name="Path 4390" d="M16.082,4.9a8.3,8.3,0,0,0,2.741,9.89c1.267,5.446,3.171,16.361,3.171,16.361l-3.275,2.2L0,4.06,12.779,2.487,16.212,0l.8.89Z" transform="matrix(0.985, -0.174, 0.174, 0.985, 0, 183.901)" fill="#313131"/>
        <path id="Path_4391" data-name="Path 4391" d="M1880.4,605.987s9.91,26.079,13.5,35.773c.935,10.674,20.8,47.227,20.8,47.227s6.609,1.5,8.983-4.962c-10.837-30.178-16.144-46.141-15.378-49.828.395-1.9-7.955-34.345-7.955-34.345Z" transform="translate(-1755.451 -463.152)" fill="#ff957c"/>
        <path id="Path_4392" data-name="Path 4392" d="M1646.317,365.529a100.633,100.633,0,0,0-10.259,1.119l-28.334,4.87,2.565,11.23,25.5-4.175c1.317-.447,7.04-.73,11.2-.914" transform="translate(-1576.561 -309.424)" fill="#ff957c"/>
        <path id="Path_4393" data-name="Path 4393" d="M1579.323,382.516s-2-.421-10.441,1.687c-2.655.444-8.42,1.6-8.317,2.379.224,1.7,6.484-.3,6.48.695s-7.09,2.048-6.589,3.866c.275,1,6.555-1.242,6.53-.346s-6.363,2.829-6.129,4.29c.25,1.567,6.323-1.971,6.563-.555s-6.738,3.137-5.682,4.7,10.216-5.275,12.325-3.406c.828.734-2.043,4.819-.129,5.471s3.9-6.535,5.328-7.425S1579.323,382.516,1579.323,382.516Z" transform="translate(-1545.534 -320.546)" fill="#ff957c"/>
        <g id="Group_3091" data-name="Group 3091" transform="translate(105.418 6.368)">
          <circle id="Ellipse_690" data-name="Ellipse 690" cx="11.943" cy="11.943" r="11.943" transform="translate(5.407 6.457)" fill="#ff957c"/>
          <circle id="Ellipse_691" data-name="Ellipse 691" cx="11.943" cy="11.943" r="11.943" transform="translate(4.01)" fill="#ff957c"/>
          <rect id="Rectangle_1501" data-name="Rectangle 1501" width="23.887" height="6.435" transform="translate(4.28 14.47) rotate(-12.213)" fill="#ff957c"/>
          <rect id="Rectangle_1502" data-name="Rectangle 1502" width="14.048" height="32.232" rx="7.024" transform="translate(18.929 44.109) rotate(-175.993)" fill="#ff957c"/>
          <ellipse id="Ellipse_692" data-name="Ellipse 692" cx="2.626" cy="3.704" rx="2.626" ry="3.704" transform="translate(0 17.963) rotate(-81.34)" fill="#ff957c"/>
        </g>
        <circle id="Ellipse_694" data-name="Ellipse 694" cx="1.394" cy="1.394" r="1.394" transform="translate(129.198 17.74)" fill="#313131"/>
        <path id="Path_4395" data-name="Path 4395" d="M3.633.072,3.546.114,3.433.165c-.146.065.112-.044-.017.007a6.516,6.516,0,0,1-.832.274Q2.468.475,2.351.5l-.14.026c-.04.007-.181.051-.032.007a1.811,1.811,0,0,1-.537.027c-.042,0-.083,0-.124-.007s-.143.015-.012,0a.88.88,0,0,1-.278-.06C1.19.482,1.152.468,1.113.456c-.128-.04.106.057-.013,0A2.134,2.134,0,0,1,.854.307a.574.574,0,0,0-.78.2.585.585,0,0,0,.2.78,3.184,3.184,0,0,0,2.533.272,6.261,6.261,0,0,0,1.4-.508.574.574,0,0,0,.2-.78.585.585,0,0,0-.781-.2Z" transform="matrix(1, 0.017, -0.017, 1, 128.947, 26.238)" fill="#313131"/>
        <path id="Path_4396" data-name="Path 4396" d="M1824.712,238.444l-1.149,5.026-5.2.26s-3.032-.238-3.708,1.168-.214,3.32,4.184,3.77l.51,2.358-10.838-.138,3.1-10.076,10.3-5.647Z" transform="translate(-1708.284 -223.899)" fill="#313131"/>
        <path id="Path_4397" data-name="Path 4397" d="M1794.341,228.728" transform="translate(-1698.992 -219.675)" fill="#313131"/>
        <path id="Path_4398" data-name="Path 4398" d="M1887.371,231.737a5.314,5.314,0,0,1,4.169,3.6,4.677,4.677,0,0,0,1.921-.776s-.777-3.964-3.229-4.005S1887.371,231.737,1887.371,231.737Z" transform="translate(-1760.024 -220.872)" fill="#313131"/>
        <path id="Path_4399" data-name="Path 4399" d="M1854.012,241.889a5.313,5.313,0,0,0-1.257,5.361,4.667,4.667,0,0,1-2.01.5s-1.7-3.663.256-5.138S1854.012,241.889,1854.012,241.889Z" transform="translate(-1735.545 -228.185)" fill="#313131"/>
        <path id="Path_4400" data-name="Path 4400" d="M1815.531,235.107l35.966-10.17-.553-1.853-6.828,1.72" transform="translate(-1712.894 -215.973)" fill="#fff"/>
        <path id="Path_4401" data-name="Path 4401" d="M1814.815,221.543s-2.931-13.551,7.588-17.869,18.458,3.433,20.367,7.973l-11,4.686Z" transform="translate(-1712.177 -202.408)" fill="#fff"/>
        <path id="Path_4402" data-name="Path 4402" d="M1781.511,532.588" transform="translate(-1690.575 -419.024)" fill="#ffc517"/>
        <path id="Path_4403" data-name="Path 4403" d="M1716.9,344.852s-15.308.149-29.3.625a28.807,28.807,0,0,0-1.982-11.964l16.547-2a10,10,0,0,0,7.09-4.336l3.042-4.51a15.36,15.36,0,0,1,11.748-6.27l28.369-1.189a9.4,9.4,0,0,1,7.476,3.21l5.742,6.577a12.978,12.978,0,0,1,2.989,10.879l-4.89,26.63-11.823.367,8.371,2.812,15.442,53.889-22.038,6.406-2.431-2.32a2.359,2.359,0,0,0-2.266-.875l-2.493,3.442s-14.228,5.23-26.12,0c.745-1.572-5.481-25.259-.382-28.363l-3.68-5.54s.842-12.217.732-16.651" transform="translate(-1627.666 -276.404)" fill="#fff"/>
        <path id="Path_4404" data-name="Path 4404" d="M1768.988,344h11.441l10,16.138-2.77,21.259,3.5,12.583-37.1,3.011-11.321-9.153,6.142-19.511Z" transform="translate(-1665.134 -295.3)" fill="#047b77"/>
        <path id="Path_4405" data-name="Path 4405" d="M1873.312,450.65c-.47,2.723.174,5.723,1.085,9.84l6.394,21.806,11.082-3.141-5.642-24.006a8.436,8.436,0,0,1,.535-3.783" transform="translate(-1750.697 -365.268)" fill="#ff957c"/>
        <path id="Path_4406" data-name="Path 4406" d="M1980.134,859.005" transform="translate(-1820.882 -633.17)" fill="#f97253"/>
        <path id="Path_4407" data-name="Path 4407" d="M1966.109,825.584s9.552-.219,10.9-4.575c3.141,8.015,2.9,8.107,2.9,8.107s-1.917,7.028-8.983,4.962C1967.768,828.949,1966.109,825.584,1966.109,825.584Z" transform="translate(-1811.681 -608.243)" fill="#fff"/>
        <path id="Path_4408" data-name="Path 4408" d="M1970.979,836.414a8.3,8.3,0,0,0,8.983-4.962c5-2.5,15.177-6.882,15.177-6.882l2.9,2.676-24.144,25.007-4.5-12.065-3.216-2.762.68-.988Z" transform="translate(-1811.727 -610.579)" fill="#313131"/>
        <path id="Path_4409" data-name="Path 4409" d="M1856.264,538.2" transform="translate(-1739.617 -422.705)" fill="#f97253"/>
        <path id="Path_4410" data-name="Path 4410" d="M1818.584,316.89l1.709,12.1.245,1.733a.52.52,0,0,0,.758.308c1.137-.689,2.284-1.361,3.433-2.028q3.874-2.25,7.819-4.375c2.825-1.512,5.684-2.988,8.636-4.24a27.728,27.728,0,0,1,3.389-1.231c.232-.064.465-.124.7-.173q.154-.032.308-.06l.136-.022a.364.364,0,0,1,.08-.01,4.242,4.242,0,0,1,1.671.16c2.458.731,3.6,3.4,4.09,5.7.011.056.021.113.029.169.1.655,1.092.376,1-.274a8.869,8.869,0,0,0-3.313-5.859,5.311,5.311,0,0,0-3.893-.871,16,16,0,0,0-3.123.933,82.045,82.045,0,0,0-8.611,4.031c-2.842,1.485-5.645,3.045-8.424,4.645q-1.474.849-2.938,1.714a13.174,13.174,0,0,0-1.442.86.572.572,0,0,1-.062.038l.758.308-1.71-12.1-.245-1.733c-.092-.655-1.087-.376-.994.274Z" transform="translate(-1714.892 -277.089)" fill="#313131"/>
        <path id="Path_4411" data-name="Path 4411" d="M1895.341,526.63c.805,3.679,2.625,8.366,5.55,10.738a4.153,4.153,0,0,0,2.139,1.063,1.7,1.7,0,0,0,1.86-1.191c.062-.332,0-.721.238-.965.491-.515,1.2.832,2.01-.3.479-.67-.191-1.233.224-1.607.647-.583,1.337.692,2.18-.326.494-.6-.241-1.554.341-2.215s1.5.381,2-.07a1.7,1.7,0,0,0,.428-1.554,5.08,5.08,0,0,0-.558-1.84c-1.538-2.868-5.257-6.627-7.137-9.283a.944.944,0,0,0-.473-.419.925.925,0,0,0-.524.063c-4.229,1.4-5.954,3.458-8.126,7.347" transform="translate(-1765.253 -409.878)" fill="#ff957c"/>
        <path id="Path_4412" data-name="Path 4412" d="M1904.952,523.574a11.114,11.114,0,0,0-7.813,4.746c-.344.5.475.977.816.477a10.087,10.087,0,0,1,7-4.277.489.489,0,0,0,.472-.473.475.475,0,0,0-.472-.472Z" transform="translate(-1766.378 -413.109)" fill="#313131"/>
        <path id="Path_4413" data-name="Path 4413" d="M1792.055,531.721c1.843.341,3.72.538,5.586.7a72.392,72.392,0,0,0,12.8.027,50.485,50.485,0,0,0,8.318-1.424.516.516,0,0,0-.274-1,55.321,55.321,0,0,1-14.273,1.654,76.77,76.77,0,0,1-10.035-.672c-.616-.083-1.232-.171-1.844-.284-.65-.12-.927.874-.275.995Z" transform="translate(-1697.248 -417.331)" fill="#313131"/>
        <path id="Path_4414" data-name="Path 4414" d="M.062.78a20.8,20.8,0,0,1,2.278,8.3c.039.66,1.071.664,1.032,0A22.056,22.056,0,0,0,.953.259C.649-.331-.242.191.062.78Z" transform="matrix(0.985, -0.174, 0.174, 0.985, 94.301, 160.646)" fill="#313131"/>
      </g>
    </g>
  </g>
</svg>
