<svg xmlns="http://www.w3.org/2000/svg" width="251.87" height="212.234" viewBox="0 0 251.87 212.234">
  <g id="Group_3367" data-name="Group 3367" transform="translate(8933.247 -1769.55)">
    <g id="Group_3096" data-name="Group 3096" transform="translate(-8732.859 1746.86) rotate(51)">
      <path id="Path_4435" data-name="Path 4435" d="M17.309,6.485c2.947,13.433,9.207,40.763,9.207,40.763L0,95.423l7.034,9.727S45.3,63.924,49.348,52.807,45.666,0,45.666,0Z" transform="translate(12.983 133.548)" fill="#08635c"/>
      <path id="Path_4436" data-name="Path 4436" d="M17.153,5.206a8.9,8.9,0,0,0,4.755,9.935c2.363,5.517,6.427,16.693,6.427,16.693l-3.048,2.935L0,7.337,13.208,3.274,16.369,0l1.016.79Z" transform="translate(0 223.082)" fill="#313131"/>
      <g id="Group_3095" data-name="Group 3095" transform="translate(6.883 0)">
        <path id="Path_4437" data-name="Path 4437" d="M11.034,13.645c1.591-3.087,3.055-7.486,2.372-10.891A3.828,3.828,0,0,0,12.512.741,1.568,1.568,0,0,0,10.49.493c-.239.2-.427.509-.737.546-.652.078-.365-1.3-1.6-.972-.735.194-.589.988-1.1,1.01C6.245,1.109,6.5-.2,5.308.027,4.6.161,4.565,1.272,3.762,1.4S2.923.249,2.3.274a1.568,1.568,0,0,0-1.218.852A4.668,4.668,0,0,0,.4,2.761C-.2,5.7.236,10.559.009,13.551a.874.874,0,0,0,.09.576.853.853,0,0,0,.41.263c3.825,1.495,6.263,1.045,10.092-.441" transform="translate(57.326 0)" fill="#f97253"/>
        <ellipse id="Ellipse_695" data-name="Ellipse 695" cx="11.019" cy="10.923" rx="11.019" ry="10.923" transform="translate(19.81 48.326)" fill="#08635c"/>
        <path id="Path_4438" data-name="Path 4438" d="M0,35.181s19.9-6.194,24.251-7.918,4.358-7.574,4.358-13.29S28.6,0,28.6,0H42.319s-.012,16.3.174,23.714c.135,5.386-1.68,15.754-9.375,19.568S4.966,56.463,4.966,56.463Z" transform="translate(28.611 13.367)" fill="#08635c"/>
        <path id="Path_4439" data-name="Path 4439" d="M15.73,16.533,12.946,8.366S14.06,4.1,15.916,2.241,6.078-2.028,1.624,2.983s1.67,7.053,1.67,7.053L1.612,16.272Z" transform="translate(59.764 0.773)" fill="#ff957c"/>
        <path id="Path_4440" data-name="Path 4440" d="M48.607,24.3A24.3,24.3,0,1,1,24.3,0" transform="translate(21.452 107.534)" fill="#019e96"/>
        <rect id="Rectangle_1509" data-name="Rectangle 1509" width="14.191" height="32.559" rx="7.095" transform="translate(41.825 57.048) rotate(-180)" fill="#ff957c"/>
        <path id="Path_4441" data-name="Path 4441" d="M11.792,30.489S14.31,7.558,24.876,3.626C21.194-1.969,7.393-1.629,1.8,8.468-1.347,14.152-1.671,32.05,11.792,30.489Z" transform="translate(11.212 13.708)" fill="#313131"/>
        <circle id="Ellipse_696" data-name="Ellipse 696" cx="12.064" cy="12.064" r="12.064" transform="translate(17.046 16.075)" fill="#ff957c"/>
        <circle id="Ellipse_697" data-name="Ellipse 697" cx="12.064" cy="12.064" r="12.064" transform="translate(22.317 20.167)" fill="#ff957c"/>
        <rect id="Rectangle_1510" data-name="Rectangle 1510" width="24.129" height="6.5" transform="translate(21.712 37.67) rotate(-52.179)" fill="#ff957c"/>
        <path id="Path_4443" data-name="Path 4443" d="M0,0" transform="translate(8.33 18.623)" fill="#f97253"/>
        <circle id="Ellipse_698" data-name="Ellipse 698" cx="1.408" cy="1.408" r="1.408" transform="translate(34.88 21.779)" fill="#313131"/>
        <circle id="Ellipse_699" data-name="Ellipse 699" cx="1.408" cy="1.408" r="1.408" transform="translate(29.782 28.346)" fill="#313131"/>
        <path id="Path_4444" data-name="Path 4444" d="M.276,1.08,4.89,3.831l.653.389-.207-.788-.8,1.15a.581.581,0,0,0,.207.788.589.589,0,0,0,.789-.206l.8-1.15a.582.582,0,0,0-.207-.788L1.51.474.857.085a.576.576,0,0,0-.581.995Z" transform="translate(33.173 25.466)" fill="#313131"/>
        <path id="Path_4445" data-name="Path 4445" d="M2.736.279a5.653,5.653,0,0,1-.453.687c-.01.014-.021.027-.031.041S2.341.9,2.3.942l-.059.074c-.041.051-.083.1-.126.15-.09.1-.184.2-.282.3s-.219.183-.319.282c0,0,.117-.088.044-.034l-.037.027L1.437,1.8q-.088.06-.181.113c-.069.039-.149.067-.215.11-.006,0,.125-.049.069-.029l-.07.027C1,2.037.964,2.05.926,2.061c-.072.021-.145.034-.218.049S.844,2.1.772,2.1l-.06.005c-.045,0-.09,0-.136,0a.576.576,0,0,0,0,1.152c1.311.009,2.331-1.1,2.987-2.124.059-.091.116-.184.168-.279A.585.585,0,0,0,3.524.072a.585.585,0,0,0-.788.207Z" transform="translate(37.979 31.978)" fill="#313131"/>
        <ellipse id="Ellipse_700" data-name="Ellipse 700" cx="3.742" cy="2.653" rx="3.742" ry="2.653" transform="translate(17.908 38.618) rotate(-31.306)" fill="#f97253"/>
        <path id="Path_4446" data-name="Path 4446" d="M20.263,0s8.951,1.505,8.313,11.437-.939,27.839-16.138,24.98c-18.545-3.489-15.2-29,2.408-29.494C21.448,6.738,20.263,0,20.263,0Z" transform="translate(2.614 31.764)" fill="#313131"/>
        <path id="Path_4447" data-name="Path 4447" d="M13.548.527C21.859,2.487,20.87,17.38,8.33,16.177S-2.689-3.3,13.548.527Z" transform="translate(0 63.937)" fill="#313131"/>
        <path id="Path_4448" data-name="Path 4448" d="M0,0" transform="translate(15.019 10.002)" fill="#313131"/>
        <path id="Path_4449" data-name="Path 4449" d="M9.739,28.516S12.755,5.106,23.321,1.173c-8.805-3.2-16.923.591-20.3,6.142S-3.724,30.078,9.739,28.516Z" transform="translate(11.651 15.681)" fill="#313131"/>
        <path id="Path_4450" data-name="Path 4450" d="M28.629.235C24.694-.3,17.946.158,11.976.778A13.366,13.366,0,0,0,0,14.213V77.159l39.515-6.337s-11.3-35.678-9.919-62.614" transform="translate(21.176 52.687)" fill="#ff8e9e"/>
        <ellipse id="Ellipse_701" data-name="Ellipse 701" cx="11.64" cy="11.539" rx="11.64" ry="11.539" transform="translate(21.872 53.004)" fill="#019e96"/>
        <path id="Path_4451" data-name="Path 4451" d="M0,37.163S21.024,30.62,25.618,28.8s4.6-8,4.6-14.039S30.213,0,30.213,0H44.7s-.012,17.221.184,25.051c.143,5.689-1.774,16.642-9.9,20.671S5.246,59.645,5.246,59.645Z" transform="translate(31.17 16.075)" fill="#019e96"/>
        <path id="Path_4452" data-name="Path 4452" d="M0,42.933C23.2,40.06,53.511,25.456,53.511,25.456L85.018,48.622l6.617-7.94S65.943,1.812,55.008.159,14.935,10.3,14.935,10.3" transform="translate(45.755 113.208)" fill="#019e96"/>
        <path id="Path_4453" data-name="Path 4453" d="M4.8,17.956A8.9,8.9,0,0,0,13.083,10.7C17.757,6.931,27.421,0,27.421,0L31.07,2.142,11.485,33.9,4.006,22.277,0,20.117l.487-1.192Z" transform="translate(122.973 140.672)" fill="#313131"/>
        <path id="Path_4454" data-name="Path 4454" d="M.527,6.562a61.946,61.946,0,0,0,7.75.317A81.453,81.453,0,0,0,25.97,4.856,60.583,60.583,0,0,0,37.4,1.012c.647-.3.085-1.25-.559-.956a64.932,64.932,0,0,1-19.65,5.181A84.192,84.192,0,0,1,3.1,5.656c-.859-.048-1.722-.1-2.577-.2-.706-.083-.7,1.026,0,1.108Z" transform="translate(20.364 112.833)" fill="#313131"/>
        <rect id="Rectangle_1511" data-name="Rectangle 1511" width="25.646" height="18.761" rx="9.381" transform="translate(12.432 112.643)" fill="#ffc517"/>
        <path id="Path_4455" data-name="Path 4455" d="M.395,1.286c4.006,1,8.376.6,12.414-.024.357-.056.715-.113,1.071-.182L13.254.266,11.382,3.627c-.347.623.609,1.182.956.559L14.21.825a.561.561,0,0,0-.625-.814A39.539,39.539,0,0,1,4.416.717,18.663,18.663,0,0,1,.689.218.554.554,0,0,0,.395,1.286Z" transform="translate(17.077 119.02)" fill="#313131"/>
      </g>
    </g>
  </g>
</svg>
