<svg xmlns="http://www.w3.org/2000/svg" xmlns:xlink="http://www.w3.org/1999/xlink" width="103.831" height="106.677" viewBox="0 0 103.831 106.677">
  <defs>
    <clipPath id="clip-path">
      <path id="Path_4626" data-name="Path 4626" d="M43.307,102.094C57.426,100.039,83.95,87.918,84.2,43.1S47.977-.8,42.171.346.771,8.348.014,52.02,29.171,104.152,43.307,102.094Z" transform="matrix(0.017, -1, 1, 0.017, 0, 84.191)" fill="#fff1be"/>
    </clipPath>
  </defs>
  <g id="Group_3395" data-name="Group 3395" transform="translate(5984.598 -1020)">
    <g id="Group_3384" data-name="Group 3384" transform="translate(0 3.568)">
      <path id="Path_4627" data-name="Path 4627" d="M43.307,102.094C57.426,100.039,83.95,87.918,84.2,43.1S47.977-.8,42.171.346.771,8.348.014,52.02,29.171,104.152,43.307,102.094Z" transform="matrix(0.017, -1, 1, 0.017, -5984.598, 1100.623)" fill="#014343"/>
      <g id="Mask_Group_107" data-name="Mask Group 107" transform="translate(-5984.598 1016.432)" clip-path="url(#clip-path)">
        <g id="Group_3381" data-name="Group 3381" transform="translate(-24.88 -4.526)">
          <path id="Path_4605" data-name="Path 4605" d="M9427.8,6408l-105.775,47.171s-60.529,49.063-65.2,62.756-7.527,15.987-7.527,15.987" transform="translate(-9236.828 -6408)" fill="none" stroke="#313131" stroke-linecap="round" stroke-width="3"/>
          <g id="Group_3380" data-name="Group 3380" transform="translate(87.962 9.85) rotate(51)">
            <path id="Path_4606" data-name="Path 4606" d="M7.6,2.847c1.293,5.9,4.042,17.893,4.042,17.893L0,41.886l3.088,4.27s16.8-18.1,18.574-22.976S20.045,0,20.045,0Z" transform="translate(5.699 58.622)" fill="#08635c"/>
            <path id="Path_4607" data-name="Path 4607" d="M7.529,2.285A3.909,3.909,0,0,0,9.617,6.646c1.037,2.422,2.821,7.327,2.821,7.327L11.1,15.262,0,3.221,5.8,1.437,7.185,0l.446.347Z" transform="translate(0 97.924)" fill="#313131"/>
            <g id="Group_3379" data-name="Group 3379" transform="translate(3.021 0)">
              <path id="Path_4608" data-name="Path 4608" d="M4.843,5.989A8.126,8.126,0,0,0,5.884,1.209,1.681,1.681,0,0,0,5.492.325.689.689,0,0,0,4.6.217C4.5.3,4.417.44,4.281.456c-.286.034-.16-.57-.7-.427-.323.085-.259.434-.484.443C2.741.487,2.855-.088,2.33.012,2.021.07,2,.558,1.651.614S1.283.109,1.01.12A.688.688,0,0,0,.476.494a2.049,2.049,0,0,0-.3.718A46.338,46.338,0,0,0,0,5.948.384.384,0,0,0,.043,6.2a.374.374,0,0,0,.18.116,5.26,5.26,0,0,0,4.43-.193" transform="translate(25.164 0)" fill="#f97253"/>
              <ellipse id="Ellipse_784" data-name="Ellipse 784" cx="4.837" cy="4.795" rx="4.837" ry="4.795" transform="translate(8.696 21.213)" fill="#08635c"/>
              <path id="Path_4609" data-name="Path 4609" d="M0,15.443s8.736-2.719,10.645-3.476,1.913-3.325,1.913-5.834,0-6.133,0-6.133h6.021s-.005,7.156.077,10.41c.059,2.364-.737,6.915-4.115,8.59S2.18,24.785,2.18,24.785Z" transform="translate(12.559 5.867)" fill="#08635c"/>
              <path id="Path_4610" data-name="Path 4610" d="M6.9,7.257,5.683,3.672A7.373,7.373,0,0,1,6.986.983C7.8.169,2.668-.89.713,1.31a1.749,1.749,0,0,0,.733,3.1L.708,7.143Z" transform="translate(26.234 0.339)" fill="#ff957c"/>
              <path id="Path_4611" data-name="Path 4611" d="M21.336,10.668A10.668,10.668,0,1,1,10.668,0" transform="translate(9.416 47.203)" fill="#019e96"/>
              <rect id="Rectangle_1583" data-name="Rectangle 1583" width="6.229" height="14.292" rx="3.115" transform="translate(18.359 25.042) rotate(-180)" fill="#ff957c"/>
              <path id="Path_4612" data-name="Path 4612" d="M5.176,13.383S6.282,3.318,10.92,1.591C9.3-.864,3.245-.715.79,3.717-.591,6.212-.733,14.069,5.176,13.383Z" transform="translate(4.922 6.017)" fill="#313131"/>
              <ellipse id="Ellipse_785" data-name="Ellipse 785" cx="5.296" cy="5.296" rx="5.296" ry="5.296" transform="translate(7.482 7.056)" fill="#ff957c"/>
              <ellipse id="Ellipse_786" data-name="Ellipse 786" cx="5.296" cy="5.296" rx="5.296" ry="5.296" transform="translate(9.796 8.853)" fill="#ff957c"/>
              <rect id="Rectangle_1584" data-name="Rectangle 1584" width="10.592" height="2.853" transform="translate(9.531 16.535) rotate(-52.179)" fill="#ff957c"/>
              <path id="Path_4613" data-name="Path 4613" d="M0,0" transform="translate(3.657 8.175)" fill="#f97253"/>
              <ellipse id="Ellipse_787" data-name="Ellipse 787" cx="0.618" cy="0.618" rx="0.618" ry="0.618" transform="translate(15.311 9.56)" fill="#313131"/>
              <ellipse id="Ellipse_788" data-name="Ellipse 788" cx="0.618" cy="0.618" rx="0.618" ry="0.618" transform="translate(13.073 12.443)" fill="#313131"/>
              <path id="Path_4614" data-name="Path 4614" d="M.121.474,2.147,1.682l.287.171-.091-.346-.353.5a.255.255,0,0,0,.091.346.258.258,0,0,0,.346-.091l.353-.5a.256.256,0,0,0-.091-.346L.663.208.376.037A.253.253,0,0,0,.121.474Z" transform="translate(14.561 11.178)" fill="#313131"/>
              <path id="Path_4615" data-name="Path 4615" d="M1.2.122a2.478,2.478,0,0,1-.2.3L.989.442s.039-.049.022-.028L.985.446.93.512C.89.557.849.6.806.643S.71.724.666.767c0,0,.052-.038.019-.015L.669.765.631.792Q.592.818.551.841C.521.859.486.871.457.889c0,0,.055-.022.03-.013L.456.888.406.9C.375.914.343.92.311.927s.06-.005.028,0l-.026,0-.06,0a.253.253,0,0,0,0,.506A1.714,1.714,0,0,0,1.564.5C1.59.46,1.615.42,1.638.378A.257.257,0,0,0,1.547.032.257.257,0,0,0,1.2.122Z" transform="translate(16.671 14.037)" fill="#313131"/>
              <ellipse id="Ellipse_789" data-name="Ellipse 789" cx="1.642" cy="1.164" rx="1.642" ry="1.164" transform="translate(7.861 16.952) rotate(-31.306)" fill="#f97253"/>
              <path id="Path_4616" data-name="Path 4616" d="M8.895,0a4.544,4.544,0,0,1,3.649,5.02c-.28,4.36-.412,12.22-7.084,10.965C-2.681,14.454-1.212,3.254,6.517,3.039,9.415,2.958,8.895,0,8.895,0Z" transform="translate(1.148 13.943)" fill="#313131"/>
              <path id="Path_4617" data-name="Path 4617" d="M5.947.231c3.648.861,3.214,7.4-2.29,6.87S-1.18-1.45,5.947.231Z" transform="translate(0 28.066)" fill="#313131"/>
              <path id="Path_4618" data-name="Path 4618" d="M0,0" transform="translate(6.593 4.39)" fill="#313131"/>
              <path id="Path_4619" data-name="Path 4619" d="M4.275,12.517S5.6,2.241,10.237.515a7.387,7.387,0,0,0-8.911,2.7C-.157,5.647-1.635,13.2,4.275,12.517Z" transform="translate(5.114 6.883)" fill="#313131"/>
              <path id="Path_4620" data-name="Path 4620" d="M12.567.1a37.165,37.165,0,0,0-7.31.238A5.867,5.867,0,0,0,0,6.239V33.87l17.345-2.782S12.386,15.427,12.991,3.6" transform="translate(9.295 23.127)" fill="#ff8e9e"/>
              <ellipse id="Ellipse_790" data-name="Ellipse 790" cx="5.109" cy="5.065" rx="5.109" ry="5.065" transform="translate(9.601 23.266)" fill="#019e96"/>
              <path id="Path_4621" data-name="Path 4621" d="M0,16.313s9.228-2.872,11.245-3.672,2.021-3.512,2.021-6.162,0-6.479,0-6.479h6.361s-.006,7.559.081,11c.063,2.5-.779,7.305-4.347,9.074S2.3,26.182,2.3,26.182Z" transform="translate(13.682 7.056)" fill="#019e96"/>
              <path id="Path_4622" data-name="Path 4622" d="M0,18.846c10.184-1.261,23.489-7.672,23.489-7.672l13.83,10.169,2.9-3.485S28.946.8,24.146.07,6.556,4.522,6.556,4.522" transform="translate(20.085 49.693)" fill="#019e96"/>
              <path id="Path_4623" data-name="Path 4623" d="M2.107,7.882A3.908,3.908,0,0,0,5.743,4.695C7.795,3.042,12.036,0,12.036,0l1.6.94-8.6,13.939-3.283-5.1L0,8.831l.214-.523Z" transform="translate(53.98 61.749)" fill="#313131"/>
              <path id="Path_4624" data-name="Path 4624" d="M.232,2.88a27.191,27.191,0,0,0,3.4.139A35.755,35.755,0,0,0,11.4,2.131,26.592,26.592,0,0,0,16.416.444c.284-.13.037-.549-.245-.42A28.5,28.5,0,0,1,7.545,2.3a36.96,36.96,0,0,1-6.183.184C.986,2.462.607,2.438.232,2.394c-.31-.036-.307.45,0,.486Z" transform="translate(8.939 49.529)" fill="#313131"/>
              <rect id="Rectangle_1585" data-name="Rectangle 1585" width="11.258" height="8.235" rx="4.118" transform="translate(5.457 49.445)" fill="#ffc517"/>
              <path id="Path_4625" data-name="Path 4625" d="M.173.565A13.972,13.972,0,0,0,5.622.554c.157-.024.314-.05.47-.08L5.818.117,5,1.592c-.153.274.267.519.42.245L6.238.362A.246.246,0,0,0,5.963.005,17.356,17.356,0,0,1,1.938.315,8.192,8.192,0,0,1,.3.1.243.243,0,0,0,.173.565Z" transform="translate(7.496 52.244)" fill="#313131"/>
            </g>
          </g>
        </g>
      </g>
    </g>
    <g id="Group_3391" data-name="Group 3391" transform="translate(-5982.78 1020.74)">
      <rect id="Rectangle_1555" data-name="Rectangle 1555" width="25" height="3" transform="translate(37.598 102.937)" fill="#fffbf0"/>
      <path id="Path_4546" data-name="Path 4546" d="M38.26,103.937,50.12,88.26l11.815,15.677" fill="#fffbf0" stroke="#195f5f" stroke-linejoin="round" stroke-width="3"/>
    </g>
  </g>
</svg>
