<svg xmlns="http://www.w3.org/2000/svg" xmlns:xlink="http://www.w3.org/1999/xlink" width="103.831" height="106.677" viewBox="0 0 103.831 106.677">
  <defs>
    <clipPath id="clip-path">
      <path id="Path_4603" data-name="Path 4603" d="M43.307,102.094C57.426,100.039,83.95,87.918,84.2,43.1S47.977-.8,42.171.346.771,8.348.014,52.02,29.171,104.152,43.307,102.094Z" transform="matrix(0.017, -1, 1, 0.017, 0, 84.191)" fill="#fff1be"/>
    </clipPath>
  </defs>
  <g id="Group_3394" data-name="Group 3394" transform="translate(6151.598 -1020)">
    <g id="Group_3383" data-name="Group 3383" transform="translate(0 2.568)">
      <path id="Path_4604" data-name="Path 4604" d="M43.307,102.094C57.426,100.039,83.95,87.918,84.2,43.1S47.977-.8,42.171.346.771,8.348.014,52.02,29.171,104.152,43.307,102.094Z" transform="matrix(0.017, -1, 1, 0.017, -6151.598, 1101.623)" fill="#014343"/>
      <g id="Mask_Group_106" data-name="Mask Group 106" transform="translate(-6151.598 1017.432)" clip-path="url(#clip-path)">
        <g id="Group_3378" data-name="Group 3378" transform="translate(1.532 9.052)">
          <path id="Path_4577" data-name="Path 4577" d="M37.462,8.741C32.366,7.986.376,14.659.376,14.659a3.727,3.727,0,0,0,1.318,4.755c15.324-1.7,36.4-1.262,39.7-2.439,0,0,6.764,3.154,11.53-14.632C41.861-2,40.329,1.027,40.329,1.027a7.146,7.146,0,0,0-.84,3.036C39.289,6.129,39.878,8.4,37.462,8.741Z" transform="matrix(0.985, -0.174, 0.174, 0.985, 5.109, 75.037)" fill="#ff957c"/>
          <path id="Path_4578" data-name="Path 4578" d="M5.053,0s-.964,4.492.923,5.61c-4.1.574-4.116.454-4.116.454A3.37,3.37,0,0,1,.541,1.308C3.293.4,5.053,0,5.053,0Z" transform="matrix(0.985, -0.174, 0.174, 0.985, 7.265, 88.213)" fill="#fff"/>
          <path id="Path_4579" data-name="Path 4579" d="M7.733,2.358A3.989,3.989,0,0,0,9.051,7.113c.609,2.619,1.525,7.867,1.525,7.867L9,16.036,0,1.952,6.145,1.2,7.8,0l.386.428Z" transform="matrix(0.985, -0.174, 0.174, 0.985, 0, 88.428)" fill="#313131"/>
          <path id="Path_4580" data-name="Path 4580" d="M1880.4,602.8s4.765,12.54,6.492,17.2c.449,5.133,10,22.709,10,22.709a3.727,3.727,0,0,0,4.319-2.386c-5.211-14.511-7.762-22.187-7.394-23.96.19-.914-3.825-16.515-3.825-16.515Z" transform="translate(-1820.318 -534.12)" fill="#ff957c"/>
          <path id="Path_4581" data-name="Path 4581" d="M1626.281,365.529a48.384,48.384,0,0,0-4.933.538l-13.624,2.342,1.233,5.4,12.26-2.007a39.643,39.643,0,0,1,5.388-.44" transform="translate(-1592.739 -338.551)" fill="#ff957c"/>
          <path id="Path_4582" data-name="Path 4582" d="M1569.515,382.5s-.961-.2-5.021.811c-1.276.214-4.048.771-4,1.144.108.817,3.118-.145,3.116.334s-3.409.985-3.169,1.859c.133.48,3.152-.6,3.14-.167s-3.059,1.36-2.947,2.063c.121.753,3.041-.948,3.156-.267s-3.24,1.508-2.732,2.26,4.912-2.537,5.927-1.638c.4.353-.983,2.317-.062,2.631s1.874-3.142,2.562-3.571S1569.515,382.5,1569.515,382.5Z" transform="translate(-1553.267 -352.7)" fill="#ff957c"/>
          <g id="Group_3377" data-name="Group 3377" transform="translate(50.69 3.062)">
            <ellipse id="Ellipse_780" data-name="Ellipse 780" cx="5.743" cy="5.743" rx="5.743" ry="5.743" transform="translate(2.6 3.105)" fill="#ff957c"/>
            <ellipse id="Ellipse_781" data-name="Ellipse 781" cx="5.743" cy="5.743" rx="5.743" ry="5.743" transform="translate(1.928)" fill="#ff957c"/>
            <rect id="Rectangle_1581" data-name="Rectangle 1581" width="11.486" height="3.094" transform="translate(2.058 6.958) rotate(-12.213)" fill="#ff957c"/>
            <rect id="Rectangle_1582" data-name="Rectangle 1582" width="6.755" height="15.498" rx="3.378" transform="translate(9.102 21.21) rotate(-175.993)" fill="#ff957c"/>
            <ellipse id="Ellipse_782" data-name="Ellipse 782" cx="1.263" cy="1.781" rx="1.263" ry="1.781" transform="translate(0 8.637) rotate(-81.34)" fill="#ff957c"/>
          </g>
          <ellipse id="Ellipse_783" data-name="Ellipse 783" cx="0.67" cy="0.67" rx="0.67" ry="0.67" transform="translate(62.124 8.53)" fill="#313131"/>
          <path id="Path_4583" data-name="Path 4583" d="M1.747.035,1.705.055,1.651.079c-.07.031.054-.021-.008,0a3.133,3.133,0,0,1-.4.132L1.131.24,1.064.252c-.019,0-.087.025-.015,0A.871.871,0,0,1,.79.269l-.06,0c-.024,0-.069.007-.006,0A.422.422,0,0,1,.591.237L.535.219C.474.2.586.246.529.217A1.019,1.019,0,0,1,.411.148a.276.276,0,0,0-.375.1.281.281,0,0,0,.1.375A1.531,1.531,0,0,0,1.352.752,3.011,3.011,0,0,0,2.024.508a.276.276,0,0,0,.1-.375.281.281,0,0,0-.376-.1Z" transform="matrix(1, 0.017, -0.017, 1, 62.003, 12.617)" fill="#313131"/>
          <path id="Path_4584" data-name="Path 4584" d="M1816.3,236.742l-.552,2.417-2.5.125s-1.458-.114-1.783.561-.1,1.6,2.012,1.813l.245,1.134-5.212-.066,1.491-4.845,4.951-2.715Z" transform="translate(-1760.314 -229.748)" fill="#313131"/>
          <path id="Path_4585" data-name="Path 4585" d="M1794.341,228.728" transform="translate(-1748.493 -224.375)" fill="#313131"/>
          <path id="Path_4586" data-name="Path 4586" d="M1887.371,231.122a2.555,2.555,0,0,1,2,1.73,2.25,2.25,0,0,0,.924-.373s-.374-1.906-1.553-1.926S1887.371,231.122,1887.371,231.122Z" transform="translate(-1826.137 -225.898)" fill="#313131"/>
          <path id="Path_4587" data-name="Path 4587" d="M1851.959,241.79a2.555,2.555,0,0,0-.6,2.578,2.244,2.244,0,0,1-.966.241s-.819-1.761.123-2.471S1851.959,241.79,1851.959,241.79Z" transform="translate(-1794.995 -235.2)" fill="#313131"/>
          <path id="Path_4588" data-name="Path 4588" d="M1815.531,228.865l17.294-4.89-.266-.891-3.283.827" transform="translate(-1766.178 -219.665)" fill="#fff"/>
          <path id="Path_4589" data-name="Path 4589" d="M1814.62,211.609s-1.409-6.516,3.649-8.592a7.628,7.628,0,0,1,9.793,3.834l-5.287,2.253Z" transform="translate(-1765.267 -202.408)" fill="#fff"/>
          <path id="Path_4590" data-name="Path 4590" d="M1781.511,532.588" transform="translate(-1737.785 -477.981)" fill="#ffc517"/>
          <path id="Path_4591" data-name="Path 4591" d="M1700.663,329.456s-7.361.071-14.089.3a13.852,13.852,0,0,0-.953-5.753l7.956-.963a4.81,4.81,0,0,0,3.409-2.085l1.463-2.168a7.386,7.386,0,0,1,5.649-3.015l13.641-.572a4.521,4.521,0,0,1,3.595,1.544l2.761,3.163a6.24,6.24,0,0,1,1.437,5.231l-2.351,12.8-5.685.176,4.025,1.352,7.425,25.912-10.6,3.08-1.169-1.116a1.134,1.134,0,0,0-1.089-.421l-1.2,1.655s-6.841,2.515-12.56,0c.358-.756-2.635-12.146-.184-13.638l-1.769-2.664s.405-5.874.352-8.007" transform="translate(-1657.754 -296.543)" fill="#fff"/>
          <path id="Path_4592" data-name="Path 4592" d="M1755.358,344h5.5l4.807,7.76-1.332,10.222,1.682,6.051-17.84,1.448-5.444-4.4,2.953-9.382Z" transform="translate(-1705.42 -320.583)" fill="#047b77"/>
          <path id="Path_4593" data-name="Path 4593" d="M1873.23,450.65a12.821,12.821,0,0,0,.521,4.732l3.075,10.486,5.329-1.511-2.713-11.543a4.055,4.055,0,0,1,.257-1.819" transform="translate(-1814.271 -409.594)" fill="#ff957c"/>
          <path id="Path_4594" data-name="Path 4594" d="M1980.134,859.005" transform="translate(-1903.558 -750.413)" fill="#f97253"/>
          <path id="Path_4595" data-name="Path 4595" d="M1966.109,823.209s4.593-.105,5.242-2.2c1.51,3.854,1.4,3.9,1.4,3.9a3.37,3.37,0,0,1-4.32,2.386C1966.906,824.827,1966.109,823.209,1966.109,823.209Z" transform="translate(-1891.853 -718.701)" fill="#fff"/>
          <path id="Path_4596" data-name="Path 4596" d="M1968.487,830.265a3.989,3.989,0,0,0,4.32-2.386c2.406-1.2,7.3-3.309,7.3-3.309l1.393,1.287-11.609,12.024-2.162-5.8-1.546-1.328.327-.475Z" transform="translate(-1891.911 -721.673)" fill="#313131"/>
          <path id="Path_4597" data-name="Path 4597" d="M1856.264,538.2" transform="translate(-1800.175 -482.665)" fill="#f97253"/>
          <path id="Path_4598" data-name="Path 4598" d="M1818.581,316.553l.822,5.819.118.833a.25.25,0,0,0,.365.148c.547-.331,1.1-.654,1.651-.975q1.863-1.082,3.76-2.1c1.359-.727,2.733-1.437,4.153-2.039a13.343,13.343,0,0,1,1.629-.592c.112-.031.224-.059.337-.083l.148-.029.065-.011a.173.173,0,0,1,.038,0,2.039,2.039,0,0,1,.8.077,3.364,3.364,0,0,1,1.967,2.741c.005.027.01.054.014.081.047.315.525.181.479-.132a4.265,4.265,0,0,0-1.593-2.817,2.554,2.554,0,0,0-1.872-.419,7.689,7.689,0,0,0-1.5.449,39.453,39.453,0,0,0-4.14,1.939c-1.367.714-2.714,1.464-4.051,2.233q-.709.408-1.413.824a6.338,6.338,0,0,0-.693.414.275.275,0,0,1-.03.018l.365.148-.822-5.819-.118-.833c-.044-.315-.523-.181-.478.132Z" transform="translate(-1768.721 -297.415)" fill="#313131"/>
          <path id="Path_4599" data-name="Path 4599" d="M1895.341,522.486c.387,1.769,1.262,4.023,2.669,5.163a2,2,0,0,0,1.028.511.818.818,0,0,0,.894-.573c.03-.16,0-.347.114-.464.236-.248.578.4.967-.142.231-.322-.092-.593.108-.772.311-.28.643.333,1.048-.157.238-.287-.116-.747.164-1.065s.72.183.961-.034a.819.819,0,0,0,.206-.747,2.442,2.442,0,0,0-.268-.885,55.039,55.039,0,0,0-3.432-4.464.454.454,0,0,0-.227-.2.446.446,0,0,0-.252.03c-2.033.672-2.863,1.663-3.907,3.533" transform="translate(-1832.789 -466.346)" fill="#ff957c"/>
          <path id="Path_4600" data-name="Path 4600" d="M1900.852,523.573a5.344,5.344,0,0,0-3.757,2.282c-.166.242.228.47.392.229a4.85,4.85,0,0,1,3.364-2.057.235.235,0,0,0,.227-.227.229.229,0,0,0-.227-.227Z" transform="translate(-1834.22 -470.456)" fill="#313131"/>
          <path id="Path_4601" data-name="Path 4601" d="M1791.862,530.832c.886.164,1.789.259,2.686.336a34.81,34.81,0,0,0,6.153.013,24.282,24.282,0,0,0,4-.685.248.248,0,0,0-.132-.479,26.6,26.6,0,0,1-6.863.8,36.921,36.921,0,0,1-4.825-.323c-.3-.04-.593-.082-.887-.136-.312-.057-.446.42-.132.478Z" transform="translate(-1746.274 -475.828)" fill="#313131"/>
          <path id="Path_4602" data-name="Path 4602" d="M.03.375a10,10,0,0,1,1.1,3.991c.019.317.515.319.5,0A10.606,10.606,0,0,0,.458.125C.312-.159-.116.092.03.375Z" transform="matrix(0.985, -0.174, 0.174, 0.985, 45.344, 77.246)" fill="#313131"/>
        </g>
      </g>
    </g>
    <g id="Group_3390" data-name="Group 3390" transform="translate(-6149.78 1020.74)">
      <rect id="Rectangle_1555" data-name="Rectangle 1555" width="25" height="3" transform="translate(37.598 102.937)" fill="#fffbf0"/>
      <path id="Path_4546" data-name="Path 4546" d="M38.26,103.937,50.12,88.26l11.815,15.677" fill="#fffbf0" stroke="#195f5f" stroke-linejoin="round" stroke-width="3"/>
    </g>
  </g>
</svg>
