<svg xmlns="http://www.w3.org/2000/svg" xmlns:xlink="http://www.w3.org/1999/xlink" width="103.831" height="106.677" viewBox="0 0 103.831 106.677">
  <defs>
    <clipPath id="clip-path">
      <path id="Path_4635" data-name="Path 4635" d="M43.307,102.094C57.426,100.039,83.95,87.918,84.2,43.1S47.977-.8,42.171.346.771,8.348.014,52.02,29.171,104.152,43.307,102.094Z" transform="matrix(0.017, -1, 1, 0.017, 0, 84.191)" fill="#fff1be"/>
    </clipPath>
  </defs>
  <g id="Group_3392" data-name="Group 3392" transform="translate(6501.172 -1020)">
    <g id="Group_3387" data-name="Group 3387" transform="translate(78.426 8.568)">
      <path id="Path_4636" data-name="Path 4636" d="M43.307,102.094C57.426,100.039,83.95,87.918,84.2,43.1S47.977-.8,42.171.346.771,8.348.014,52.02,29.171,104.152,43.307,102.094Z" transform="matrix(0.017, -1, 1, 0.017, -6579.598, 1095.623)" fill="#014343"/>
      <g id="Mask_Group_108" data-name="Mask Group 108" transform="translate(-6579.598 1011.432)" clip-path="url(#clip-path)">
        <g id="Group_3386" data-name="Group 3386" transform="translate(13.489 9.054)">
          <g id="Group_3385" data-name="Group 3385">
            <path id="Path_2377" data-name="Path 2377" d="M2873.991,1140.165c2.984.811,10.024,2.07,10.024,7.273,0,4.659-6.282,8.8-6.282,13.048v7.6c0,6.653-8.336,6.644-13.168,6.653h-.014c-.277-2.17,2.769-8.745,3.272-10.65,1.846-7.159.835-6.617-.329-13.917-.232-1.66.825-3.409-.85-3.4-.044,0-5.372-5.369-1.052-4.3-1.673-3.006,1.83-1.689.347-4.783a7.09,7.09,0,0,0,.5-1.11,14.243,14.243,0,0,1-1.539.071,8.207,8.207,0,0,1-7.682-4.178,6.449,6.449,0,0,0-1.812,3.888c0,.177-.577.168-.557.344l.557.191a6.362,6.362,0,0,1-1.6-3.411,8.242,8.242,0,0,1,2.834-5.307c1.905-1.589,3.888-2.032,7.452-1.985,4.094,0,8.371,5.011,8.371,9.132C2872.458,1137.053,2872.314,1139.708,2873.991,1140.165Z" transform="translate(-2821.944 -1126.184)" fill="#313131"/>
            <path id="Path_4628" data-name="Path 4628" d="M8127.6,6707.714s.631-2.62,5.047-2.672a8.038,8.038,0,0,1,7.766,5.934c.441,2.385,1.134,7.165-.688,7.041s-.957,4.593-.957,4.593a2.682,2.682,0,0,1,4.148,1.178c1.48,3.053-2.5,3.45-2.5,3.45s2.569-.239,2.5,1.661-2.5,0-2.5,0,2.8,8.171-5.423,7.29-8.979-1.463-9-5.048S8127.6,6707.714,8127.6,6707.714Z" transform="translate(-8080.999 -6683.951)" fill="#195f5f"/>
            <path id="Path_4629" data-name="Path 4629" d="M2876.933,1216.382l4.052-3.627,3.16,2.592-6.061,2.716Z" transform="translate(-2839.737 -1192.792)" fill="#ff957c"/>
            <rect id="Rectangle_1586" data-name="Rectangle 1586" width="5.554" height="14.135" rx="2.777" transform="translate(38.843 10.368) rotate(0.322)" fill="#ff957c"/>
            <path id="Path_4630" data-name="Path 4630" d="M2869.632,1156.034h0l.006-1.088a2.4,2.4,0,0,0,.7-.15c.913-.342,1.456-1.144,1.213-1.791a1.517,1.517,0,0,0-1.925-.608,5.69,5.69,0,0,0-11.355.507l-.017,3.066h0c0,.027,0,.054,0,.082a5.69,5.69,0,1,0,11.38.064C2869.634,1156.088,2869.632,1156.061,2869.632,1156.034Z" transform="translate(-2825.365 -1142.389)" fill="#ff957c"/>
            <ellipse id="Ellipse_791" data-name="Ellipse 791" cx="0.664" cy="0.664" rx="0.664" ry="0.664" transform="translate(34.004 11.103)" fill="#313131"/>
            <ellipse id="Ellipse_792" data-name="Ellipse 792" cx="0.664" cy="0.664" rx="0.664" ry="0.664" transform="translate(37.925 11.125)" fill="#313131"/>
            <path id="Path_4631" data-name="Path 4631" d="M2871.922,1175.821l-.324,2.513-.046.355-.27-.273.66.037c.348.019.347.563,0,.543l-.661-.037c-.133-.007-.29-.121-.27-.273l.323-2.513.046-.356a.28.28,0,0,1,.273-.27.274.274,0,0,1,.271.273Z" transform="translate(-2835.178 -1164.165)" fill="#313131"/>
            <path id="Path_4632" data-name="Path 4632" d="M2873.976,1194.557l.014,0c.056.009-.081-.01-.031,0l.124.013a2.973,2.973,0,0,0,.416.007c.042,0,.084-.006.126-.01s.052-.02,0,0a.421.421,0,0,1,.068-.01,1.645,1.645,0,0,0,.246-.061l.057-.021c.045-.016-.055.026.015-.007a1.047,1.047,0,0,0,.1-.058c.008,0,.049-.04.056-.039-.013,0-.048.04,0,0,.017-.015.034-.031.049-.047s.063-.074.013-.011a.28.28,0,0,1,.372-.1.274.274,0,0,1,.1.372,1.922,1.922,0,0,1-1.867.492.272.272,0,0,1-.188-.335.279.279,0,0,1,.335-.188Z" transform="translate(-2837.196 -1178.497)" fill="#313131"/>
            <path id="Path_2423" data-name="Path 2423" d="M2782.792,1212.8h0l-5.107,6.914s-2.537-3.314-3.8-4.828-4.172-4.784-5-5.645a18.176,18.176,0,0,1-3.024-4.584c-.446-1.289-2.184-7.236-2.184-7.236s-1.362,1.5-1.491,6.826c1.631,4.387,5.6,14.615,10.928,21.014a39.284,39.284,0,0,0-8.955,7.144c-2.605,2.83-4.743,6.926-2.378,8.719.926.5,1.943-.543,3.245-2.334s4.935-7.844,11.679-8.509,8.462-1.928,8.462-1.928l8.136-11.941" transform="translate(-2750.353 -1180.992)" fill="#ff957c"/>
            <path id="Path_2378" data-name="Path 2378" d="M2919.319,1628.121h-9.7c-.077-.541-.157-1.078-.235-1.612,1.926-.651,3.805-1.382,5.689-2.15v0c.913,0,1.832,0,2.749,0h.695Q2918.913,1626.177,2919.319,1628.121Z" transform="translate(-2864.707 -1509.48)" fill="#fff"/>
            <path id="Path_2379" data-name="Path 2379" d="M2870.9,1444.606h-.694c-.919,0-1.835,0-2.75,0v0a.244.244,0,0,0,.048-.019c-2.822-7.249-9.115-13.643-15.408-21.839a22.249,22.249,0,0,1-4.594-13.53v-.055q0-.806.011-1.612c5.936-5.944,10.645-11.033,13.226-16.823l.3.011a78.389,78.389,0,0,0-2.937,23.48C2865.124,1422.593,2867.908,1430.933,2870.9,1444.606Z" transform="translate(-2817.092 -1329.719)" fill="#195f5f"/>
            <path id="Path_2380" data-name="Path 2380" d="M2838.327,1252.2l-.3-.011a62.077,62.077,0,0,1-19.781-3.871c-1-.384,1.019-5.812,2.442-8.473.245-.472.472-.943.68-1.424v0a2.429,2.429,0,0,0,1.828-.569,89.124,89.124,0,0,0,9.673-9.406c-1.74-1.33-3.9-2.849-5.992-4.748-1.162,1.334-2.321,2.723-3.553,4.258-.007-1.119-.066-2.274-.172-3.484a4.544,4.544,0,0,1,1.33-3.612,56.934,56.934,0,0,1,7.092-6.079,1.6,1.6,0,0,0,1.165.406c1.923,0,3.835-2.723,6.186-4.515a2.494,2.494,0,0,1,2.478,2.146,40.061,40.061,0,0,1-.771,16.308,24.882,24.882,0,0,0-.742,4.325c-.134,1.558-1.9,18.063-1.865,18.743" transform="translate(-2794.375 -1191.184)" fill="#fff"/>
            <path id="Path_2381" data-name="Path 2381" d="M2781.043,1377.8c-2.581,5.79-7.289,10.879-13.226,16.823-2.179,2.183-4.526,4.482-6.994,6.975-1.51,9.823-2.752,14.456-7.235,20.124a37.1,37.1,0,0,0-5.554,9.607l-.57-.077c-.143-.018-3.484-.464-3.546-.589a.686.686,0,0,0,.13-.159,3.39,3.39,0,0,0,.352-.651q.517-1.282.988-2.57c6.215-17.028,6.515-34.934,15.869-53.354A62.094,62.094,0,0,0,2781.043,1377.8Z" transform="translate(-2737.396 -1316.798)" fill="#019e96"/>
            <path id="Path_2382" data-name="Path 2382" d="M2768.166,1171.125l2.267,13.332a25.739,25.739,0,0,1-2.874-7.406q-.1.373-.2.746h0l-.954-6.39a.893.893,0,1,1,1.763-.285h0Z" transform="translate(-2754.688 -1160.182)" fill="#019e96"/>
            <path id="Path_2383" data-name="Path 2383" d="M2726.55,1620.547c.117.256.223.5.322.742q-.35.949-.636,1.923c-.132.449-.26.906-.387,1.367-.011.044-.026.088-.036.132h-9.084c.012-.764.04-1.525.051-2.289,2.274-1.009,4.047-1.484,5.853-2.464l.662.11C2724.371,1620.24,2725.461,1620.4,2726.55,1620.547Z" transform="translate(-2716.475 -1506.094)" fill="#fff"/>
            <g id="Group_1729" data-name="Group 1729" transform="translate(30.168 60.737)">
              <path id="Path_2393" data-name="Path 2393" d="M2846.71,1406.912a.255.255,0,0,1-.182-.431c5.641-5.648,10.526-10.807,13.175-16.748a.253.253,0,0,1,.328-.142h0a.253.253,0,0,1,.143.328h0l-.008.018c-2.684,6.021-7.6,11.215-13.278,16.9A.25.25,0,0,1,2846.71,1406.912Z" transform="translate(-2846.458 -1389.572)" fill="#313131"/>
            </g>
            <g id="Group_1730" data-name="Group 1730" transform="translate(0 113.851)">
              <path id="Path_2394" data-name="Path 2394" d="M2724.969,1624.918h-9.084a.254.254,0,0,1-.252-.254h0c.006-.383.016-.766.025-1.147s.02-.76.026-1.139a.252.252,0,0,1,.151-.228c.939-.417,1.78-.739,2.6-1.05.971-.371,1.889-.721,2.789-1.172a.253.253,0,0,1,.226.453,30.634,30.634,0,0,1-2.835,1.191c-.765.292-1.555.594-2.421.974-.006.328-.014.656-.023.985-.008.295-.016.589-.021.885h8.635c.125-.448.247-.886.373-1.317.191-.648.406-1.3.641-1.936a.252.252,0,0,1,.325-.149h0a.254.254,0,0,1,.15.325h0c-.232.626-.444,1.266-.63,1.9-.131.449-.259.9-.386,1.364l-.035.125A.254.254,0,0,1,2724.969,1624.918Z" transform="translate(-2715.632 -1619.901)" fill="#313131"/>
            </g>
            <g id="Group_1731" data-name="Group 1731" transform="translate(44.425 114.874)">
              <path id="Path_2395" data-name="Path 2395" d="M2918.468,1628.359h-9.7a.254.254,0,0,1-.251-.214q-.067-.465-.135-.926l-.1-.685a.252.252,0,0,1,.169-.276c1.518-.513,3.134-1.117,5.08-1.9a.253.253,0,0,1,.329.14v0a.253.253,0,0,1-.141.329h0c-1.872.755-3.438,1.344-4.908,1.846l.071.477q.052.356.1.712h9.167q-.294-1.406-.582-2.737a.253.253,0,0,1,.193-.3h0a.254.254,0,0,1,.3.194q.319,1.479.647,3.046a.253.253,0,0,1-.2.3.244.244,0,0,1-.052.006Z" transform="translate(-2908.282 -1624.338)" fill="#313131"/>
            </g>
            <g id="Group_1733" data-name="Group 1733" transform="translate(32.245 28.062)">
              <path id="Path_2397" data-name="Path 2397" d="M2855.715,1252.574a.254.254,0,0,1-.191-.42c1.229-1.408,2.492-2.782,3.863-4.2a.252.252,0,1,1,.362.349c-1.365,1.414-2.624,2.782-3.845,4.184A.252.252,0,0,1,2855.715,1252.574Z" transform="translate(-2855.462 -1247.876)" fill="#313131"/>
            </g>
            <g id="Group_1735" data-name="Group 1735" transform="translate(11.619 16.7)">
              <path id="Path_2399" data-name="Path 2399" d="M2780.207,1228.958a.252.252,0,0,1-.143-.043,17.424,17.424,0,0,1-3.086-2.711c-3.964-4.329-7.241-11.512-10.942-20.967a.237.237,0,0,1-.018-.1,24.76,24.76,0,0,1,.987-6.353.253.253,0,0,1,.311-.176h0a.254.254,0,0,1,.176.312h0a24.282,24.282,0,0,0-.969,6.175c3.673,9.378,6.921,16.5,10.824,20.763a16.931,16.931,0,0,0,3,2.635.253.253,0,0,1-.146.462Z" transform="translate(-2766.017 -1198.603)" fill="#313131"/>
            </g>
            <g id="Group_1736" data-name="Group 1736" transform="translate(38.238 29.981)">
              <path id="Path_2400" data-name="Path 2400" d="M2881.7,1263.722a.254.254,0,0,1-.252-.254.25.25,0,0,1,.062-.166c1.812-2.065,3.66-4.353,5.651-7a.254.254,0,0,1,.355-.052h0a.254.254,0,0,1,.051.355h0c-1.994,2.661-3.854,4.962-5.675,7.034A.255.255,0,0,1,2881.7,1263.722Z" transform="translate(-2881.451 -1256.197)" fill="#313131"/>
            </g>
            <path id="Path_4633" data-name="Path 4633" d="M2867.7,1145.17s5.639,4.654,9.2,4.083-1.736-6.052-1.736-6.052S2867.891,1142.7,2867.7,1145.17Z" transform="translate(-2832.631 -1139.244)" fill="#313131"/>
          </g>
          <path id="Path_4634" data-name="Path 4634" d="M9772.73,6714.622s9.369-7.821,11.044-4a2.663,2.663,0,0,0,.362-1.45s-1.879-1.852-5.186,0A25.86,25.86,0,0,0,9772.73,6714.622Z" transform="translate(-9735.994 -6686.272)" fill="#019e96"/>
        </g>
      </g>
    </g>
    <g id="Group_3388" data-name="Group 3388" transform="translate(-6499.354 1020.74)">
      <rect id="Rectangle_1555" data-name="Rectangle 1555" width="25" height="3" transform="translate(37.598 102.937)" fill="#fffbf0"/>
      <path id="Path_4546" data-name="Path 4546" d="M38.26,103.937,50.12,88.26l11.815,15.677" fill="#fffbf0" stroke="#195f5f" stroke-linejoin="round" stroke-width="3"/>
    </g>
  </g>
</svg>
