<svg xmlns="http://www.w3.org/2000/svg" xmlns:xlink="http://www.w3.org/1999/xlink" width="159.656" height="125.295" viewBox="0 0 159.656 125.295">
  <defs>
    <clipPath id="clip-path">
      <rect x="14" y="18" width="159.656" height="125.295" fill="none"/>
    </clipPath>
  </defs>
  <g id="Group_3286" data-name="Group 3286" transform="translate(-247 -1455)">
    <g id="Scroll_Group_21" data-name="Scroll Group 21" transform="translate(233 1437)" clip-path="url(#clip-path)" style="isolation: isolate">
      <ellipse id="Ellipse_750" data-name="Ellipse 750" cx="79.79" cy="59.938" rx="79.79" ry="59.938" transform="translate(35.048) rotate(17)" fill="#fff1be"/>
    </g>
    <g id="Group_3141" data-name="Group 3141" transform="translate(22.887 -2.232)">
      <path id="Path_3259" data-name="Path 3259" d="M-610.417,3565.544l66.739,34.984-3.073-75.29Z" transform="translate(847.53 -2037.028)" fill="#ff8e9e"/>
      <path id="Path_3260" data-name="Path 3260" d="M-423.475,3540.681l-66.762-34.941,3.121,75.288Z" transform="translate(795.011 -2028.508)" fill="#ffc517"/>
      <path id="Path_3261" data-name="Path 3261" d="M-537.892,3575.255l1.9,3.853a1.452,1.452,0,0,0,1.092.793l4.253.617a1.451,1.451,0,0,1,1.227,1.644,1.452,1.452,0,0,1-.424.832l-3.077,3a1.45,1.45,0,0,0-.417,1.284l.726,4.235a1.45,1.45,0,0,1-1.185,1.674,1.451,1.451,0,0,1-.919-.145l-3.8-2a1.449,1.449,0,0,0-1.35,0l-3.8,2a1.451,1.451,0,0,1-1.959-.61,1.448,1.448,0,0,1-.145-.919l.726-4.235a1.452,1.452,0,0,0-.417-1.284l-3.077-3a1.45,1.45,0,0,1-.029-2.051,1.453,1.453,0,0,1,.831-.425l4.252-.617a1.451,1.451,0,0,0,1.092-.793l1.9-3.853a1.45,1.45,0,0,1,1.942-.661A1.449,1.449,0,0,1-537.892,3575.255Z" transform="translate(820.683 -2058.532)" fill="#fff"/>
      <path id="Path_3262" data-name="Path 3262" d="M-462.238,3547.868l1.96,3.97a1.4,1.4,0,0,0,1.053.765l4.382.636a1.4,1.4,0,0,1,1.183,1.587,1.4,1.4,0,0,1-.408.8l-3.17,3.09a1.4,1.4,0,0,0-.4,1.238l.749,4.364a1.4,1.4,0,0,1-1.143,1.615,1.394,1.394,0,0,1-.888-.141l-3.918-2.061a1.4,1.4,0,0,0-1.3,0l-3.918,2.061a1.4,1.4,0,0,1-1.889-.588,1.4,1.4,0,0,1-.141-.887l.749-4.364a1.4,1.4,0,0,0-.4-1.238l-3.17-3.09a1.4,1.4,0,0,1-.027-1.978,1.4,1.4,0,0,1,.8-.409l4.382-.636a1.4,1.4,0,0,0,1.053-.765l1.96-3.97a1.4,1.4,0,0,1,1.875-.629A1.4,1.4,0,0,1-462.238,3547.868Z" transform="translate(791.8 -2043.215)" fill="#019e96"/>
    </g>
  </g>
</svg>
