<svg xmlns="http://www.w3.org/2000/svg" xmlns:xlink="http://www.w3.org/1999/xlink" width="159.655" height="125.295" viewBox="0 0 159.655 125.295">
  <defs>
    <clipPath id="clip-path">
      <rect x="14" y="18" width="159.656" height="125.295" fill="none"/>
    </clipPath>
  </defs>
  <g id="Group_3309" data-name="Group 3309" transform="translate(8483 -3253)">
    <g id="Scroll_Group_29" data-name="Scroll Group 29" transform="translate(-8497 3235)" clip-path="url(#clip-path)" style="isolation: isolate">
      <ellipse id="Ellipse_759" data-name="Ellipse 759" cx="79.79" cy="59.938" rx="79.79" ry="59.938" transform="translate(35.048) rotate(17)" fill="#fff1be"/>
    </g>
    <g id="Group_3135" data-name="Group 3135" transform="translate(-11761.373 304.167)">
      <g id="Group_2856" data-name="Group 2856">
        <rect id="Rectangle_1454" data-name="Rectangle 1454" width="59.865" height="110.435" rx="13.334" transform="translate(3328.91 2956.262)" fill="#313131"/>
        <rect id="Rectangle_1455" data-name="Rectangle 1455" width="55.107" height="104.722" rx="10.283" transform="translate(3331.289 2959.119)" fill="#ffc517"/>
        <path id="Rectangle_1456" data-name="Rectangle 1456" d="M3347.939,2956.971h21.807v3.068a3,3,0,0,1-3,3h-15.807a3,3,0,0,1-3-3v-3.068Z" fill="#313131"/>
        <g id="Group_2854" data-name="Group 2854">
          <rect id="Rectangle_1457" data-name="Rectangle 1457" width="4.98" height="0.557" transform="translate(3334.979 2966.823)" fill="#313131"/>
          <rect id="Rectangle_1458" data-name="Rectangle 1458" width="4.98" height="0.557" transform="translate(3334.979 2968.315)" fill="#313131"/>
          <rect id="Rectangle_1459" data-name="Rectangle 1459" width="4.98" height="0.557" transform="translate(3334.979 2969.808)" fill="#313131"/>
        </g>
        <g id="Group_2855" data-name="Group 2855">
          <line id="Line_215" data-name="Line 215" x2="15.382" transform="translate(3350.452 3061.228)" fill="none"/>
          <path id="Path_4191" data-name="Path 4191" d="M3350.452,3062.062h15.382a.835.835,0,0,0,0-1.67h-15.382a.835.835,0,0,0,0,1.67Z" fill="#313131"/>
        </g>
      </g>
      <g id="_" data-name=" " style="isolation: isolate">
        <text id="_2" data-name="$" transform="translate(3358.254 3002.093)" fill="#195f5f" font-size="19" font-family="Montserrat-Bold, Montserrat" font-weight="700" style="isolation: isolate"><tspan x="0" y="0">$</tspan></text>
      </g>
      <g id="_2-2" data-name=" 2" style="isolation: isolate">
        <text id="_3" data-name="$" transform="translate(3340.953 3012.802)" fill="#195f5f" font-size="19" font-family="Montserrat-Bold, Montserrat" font-weight="700" style="isolation: isolate"><tspan x="0" y="0">$</tspan></text>
      </g>
      <g id="_3-2" data-name=" 3" style="isolation: isolate">
        <text id="_4" data-name="$" transform="translate(3362.373 3030.927)" fill="#195f5f" font-size="19" font-family="Montserrat-Bold, Montserrat" font-weight="700" style="isolation: isolate"><tspan x="0" y="0">$</tspan></text>
      </g>
      <circle id="Ellipse_334" data-name="Ellipse 334" cx="10.298" cy="10.298" r="10.298" transform="translate(3382.322 3029.348)" fill="#019e96"/>
      <circle id="Ellipse_627" data-name="Ellipse 627" cx="10.298" cy="10.298" r="10.298" transform="translate(3314.766 3014.519)" fill="#ff8e9e"/>
      <circle id="Ellipse_628" data-name="Ellipse 628" cx="10.298" cy="10.298" r="10.298" transform="translate(3371.612 2971.678)" fill="#ff8e9e"/>
      <path id="Path_4511" data-name="Path 4511" d="M3398.542,3046.059h-11.9a1.5,1.5,0,0,1,0-3h11.9a1.5,1.5,0,0,1,0,3Z" fill="#fcf4d7"/>
      <path id="Path_4512" data-name="Path 4512" d="M3331.046,3021.4h-11.9a1.5,1.5,0,0,1,0-3h11.9a1.5,1.5,0,0,1,0,3Z" fill="#fcf4d7"/>
      <path id="Path_4513" data-name="Path 4513" d="M3387.892,2978.565h-11.906a1.5,1.5,0,0,1,0-3h11.906a1.5,1.5,0,0,1,0,3Z" fill="#fcf4d7"/>
      <path id="Path_4514" data-name="Path 4514" d="M3392.789,3043.781a1.5,1.5,0,0,1-1.027-.407l-6.759-6.351a1.5,1.5,0,0,1,2.055-2.186l5.657,5.317,4.856-5.244a1.5,1.5,0,0,1,2.2,2.039l-5.882,6.352a1.5,1.5,0,0,1-1.049.479Z" fill="#fcf4d7"/>
      <path id="Path_4515" data-name="Path 4515" d="M3319.013,3030.036a1.5,1.5,0,0,1-1.1-2.519l5.884-6.352a1.5,1.5,0,0,1,1.049-.479,1.468,1.468,0,0,1,1.079.406l6.76,6.352a1.5,1.5,0,1,1-2.055,2.185l-5.658-5.316-4.858,5.243A1.5,1.5,0,0,1,3319.013,3030.036Z" fill="#fcf4d7"/>
      <path id="Path_4516" data-name="Path 4516" d="M3375.858,2987.2a1.5,1.5,0,0,1-1.1-2.519l5.885-6.352a1.5,1.5,0,0,1,1.048-.479,1.42,1.42,0,0,1,1.08.406l6.758,6.352a1.5,1.5,0,1,1-2.054,2.185l-5.659-5.316-4.857,5.243A1.5,1.5,0,0,1,3375.858,2987.2Z" fill="#fcf4d7"/>
    </g>
  </g>
</svg>
