<svg xmlns="http://www.w3.org/2000/svg" xmlns:xlink="http://www.w3.org/1999/xlink" width="159.656" height="125.295" viewBox="0 0 159.656 125.295">
  <defs>
    <clipPath id="clip-path">
      <rect x="14" y="18" width="159.656" height="125.295" fill="none"/>
    </clipPath>
  </defs>
  <g id="Group_3288" data-name="Group 3288" transform="translate(-705 -1250)">
    <g id="Scroll_Group_24" data-name="Scroll Group 24" transform="translate(691 1232)" clip-path="url(#clip-path)" style="isolation: isolate">
      <ellipse id="Ellipse_753" data-name="Ellipse 753" cx="79.79" cy="59.938" rx="79.79" ry="59.938" transform="translate(35.048) rotate(17)" fill="#fff1be"/>
    </g>
    <g id="Group_3228" data-name="Group 3228" transform="translate(-1.5 0.687)">
      <g id="Group_3145" data-name="Group 3145" transform="translate(-11939.943 -6342.427)">
        <g id="Group_2286" data-name="Group 2286" transform="translate(12675.443 7606.74)">
          <path id="Path_3244" data-name="Path 3244" d="M-1183.339,3441.143l16.815,27.067-.3,55.212H-1197.3l.472-49.36Z" transform="translate(1227.778 -3440.412)" fill="#efe8d8"/>
          <path id="Path_3245" data-name="Path 3245" d="M-1156.062,3473.368l30.7-.366,13.491-32.919-30.892-.731Z" transform="translate(1156.314 -3439.351)" fill="#fec739"/>
          <path id="Path_3246" data-name="Path 3246" d="M-1122.967,3571.247h30.475l.472-49.359-30.7.366Z" transform="translate(1122.967 -3488.237)" fill="#fff"/>
          <rect id="Rectangle_275" data-name="Rectangle 275" width="3.725" height="8.847" transform="translate(40.47 24.535)" fill="#ff8e9e"/>
          <rect id="Rectangle_276" data-name="Rectangle 276" width="3.725" height="6.702" transform="translate(44.863 26.732)" fill="#ff8e9e"/>
          <rect id="Rectangle_277" data-name="Rectangle 277" width="3.725" height="1.865" transform="translate(44.775 24.185)" fill="#ff8e9e"/>
          <rect id="Rectangle_278" data-name="Rectangle 278" width="3.725" height="8.847" transform="translate(6.2 42.305)" fill="#ff8e9e"/>
          <rect id="Rectangle_279" data-name="Rectangle 279" width="3.725" height="6.702" transform="translate(10.593 44.502)" fill="#ff8e9e"/>
          <rect id="Rectangle_280" data-name="Rectangle 280" width="3.725" height="1.865" transform="translate(10.506 41.955)" fill="#ff8e9e"/>
          <rect id="Rectangle_281" data-name="Rectangle 281" width="3.725" height="8.847" transform="translate(15.757 65.422)" fill="#ff8e9e"/>
          <rect id="Rectangle_282" data-name="Rectangle 282" width="3.725" height="6.702" transform="translate(20.15 67.618)" fill="#ff8e9e"/>
          <rect id="Rectangle_283" data-name="Rectangle 283" width="3.725" height="1.865" transform="translate(20.062 65.072)" fill="#ff8e9e"/>
        </g>
      </g>
      <g id="Group_2329" data-name="Group 2329" transform="translate(782.73 1307.277)">
        <path id="Path_2787-2" data-name="Path 2787-2" d="M852.976,3163.083h-1.916a22.249,22.249,0,0,0-11.117,2.98l-1.66.957a22.246,22.246,0,0,0-8.139,8.139l-.957,1.658a22.241,22.241,0,0,0-2.979,11.116v1.916a22.24,22.24,0,0,0,2.979,11.117l.957,1.659a22.239,22.239,0,0,0,8.139,8.137l1.66.958a22.225,22.225,0,0,0,11.117,2.98h1.916a22.228,22.228,0,0,0,11.117-2.98l1.657-.958a22.22,22.22,0,0,0,8.139-8.137l.957-1.659a22.224,22.224,0,0,0,2.979-11.117v-1.916a22.241,22.241,0,0,0-2.979-11.117l-.957-1.657a22.222,22.222,0,0,0-8.139-8.139l-1.657-.957A22.23,22.23,0,0,0,852.976,3163.083Z" transform="translate(-826.209 -3163.083)" fill="#ff8e9e"/>
        <path id="Path_2788-2" data-name="Path 2788-2" d="M855.238,3163.837h-1.916a22.232,22.232,0,0,0-11.116,2.979l-1.66.957a22.225,22.225,0,0,0-8.139,8.139l-.958,1.659a22.238,22.238,0,0,0-2.978,11.116v1.919a22.239,22.239,0,0,0,2.978,11.116l.958,1.658a22.21,22.21,0,0,0,8.139,8.138l1.66.959a22.234,22.234,0,0,0,11.116,2.979h1.916a22.241,22.241,0,0,0,11.117-2.979l1.659-.959a22.218,22.218,0,0,0,8.139-8.138l.956-1.658a22.223,22.223,0,0,0,2.98-11.116v-1.913a22.227,22.227,0,0,0-2.98-11.117l-.956-1.657a22.22,22.22,0,0,0-8.139-8.139l-1.659-.959A22.232,22.232,0,0,0,855.238,3163.837Z" transform="translate(-825.814 -3162.951)" fill="#019e96"/>
        <circle id="Ellipse_259-2" data-name="Ellipse 259-2" cx="20.018" cy="20.018" r="20.018" transform="translate(8.448 6.676)" fill="#fff"/>
        <path id="Path_3341" data-name="Path 3341" d="M872.383,3186.188a.525.525,0,0,1-.52-.444,19.5,19.5,0,0,0-33.431-10.27.529.529,0,1,1-.769-.726h0a20.556,20.556,0,0,1,35.237,10.827.528.528,0,0,1-.437.6h0A.429.429,0,0,1,872.383,3186.188Z" transform="translate(-824.235 -3162.171)" fill="#313131"/>
        <path id="Path_3342" data-name="Path 3342" d="M852.388,3205.528a20.582,20.582,0,0,1-13.443-5.018.529.529,0,0,1,.693-.8,19.5,19.5,0,0,0,31.375-8.936.529.529,0,0,1,1.009.316A20.591,20.591,0,0,1,852.388,3205.528Z" transform="translate(-824.018 -3158.313)" fill="#313131"/>
        <g id="_2" data-name=" 2" transform="translate(22.836 15.286)" style="isolation: isolate">
          <text id="_" data-name="$" transform="translate(0 17)" font-size="18" font-family="Montserrat-Bold, Montserrat" font-weight="700" style="isolation: isolate"><tspan x="0" y="0">$</tspan></text>
        </g>
      </g>
    </g>
  </g>
</svg>
