<svg xmlns="http://www.w3.org/2000/svg" width="347.933" height="397.644" viewBox="0 0 347.933 397.644">
  <g id="Group_3194" data-name="Group 3194" transform="translate(-8640.067 558.878)">
    <g id="Group_3190" data-name="Group 3190" transform="translate(8624.037 -947.734)">
      <g id="Component_79_2" data-name="Component 79 – 2" transform="translate(16.03 388.856)">
        <ellipse id="Ellipse_719" data-name="Ellipse 719" cx="134.5" cy="173" rx="134.5" ry="173" transform="translate(77.833) rotate(13)" fill="#efe6d0" opacity="0.5"/>
        <g id="Group_3096" data-name="Group 3096" transform="translate(-956.71 -1709.438) rotate(51)">
          <path id="Path_4486" data-name="Path 4486" d="M2203.254,174.678c-11.707,119.181,15.025,259.213,23.856,309.859" fill="none" stroke="#1b5655" stroke-linecap="round" stroke-width="5"/>
          <path id="Path_4435" data-name="Path 4435" d="M2184.686,565.88c2.858,13.028,8.93,39.535,8.93,39.535L2167.9,652.137l6.822,9.434s37.111-39.984,41.04-50.766-3.572-51.216-3.572-51.216Z" transform="translate(-22.577 -232.234)" fill="#08635c"/>
          <path id="Path_4436" data-name="Path 4436" d="M2149.366,807.172a8.636,8.636,0,0,0,4.612,9.636c2.291,5.351,6.233,16.19,6.233,16.19l-2.956,2.847-24.525-26.605,12.81-3.941,3.066-3.175.985.766Z" transform="translate(0 -387.93)" fill="#313131"/>
          <g id="Group_3095" data-name="Group 3095" transform="translate(2139.406 197.832)">
            <path id="Path_4437" data-name="Path 4437" d="M2317.362,211.066c1.543-2.994,2.963-7.261,2.3-10.563a3.713,3.713,0,0,0-.867-1.952,1.521,1.521,0,0,0-1.961-.24c-.232.193-.415.494-.715.53-.632.075-.354-1.26-1.553-.943-.713.188-.571.958-1.07.979-.779.032-.527-1.239-1.688-1.018-.682.13-.72,1.208-1.5,1.332s-.814-1.116-1.417-1.092a1.521,1.521,0,0,0-1.181.826,4.527,4.527,0,0,0-.665,1.586c-.576,2.853-.158,7.564-.378,10.466a.848.848,0,0,0,.087.559.827.827,0,0,0,.4.255c3.71,1.45,6.074,1.013,9.788-.428" transform="translate(-2251.062 -197.832)" fill="#f97253"/>
            <ellipse id="Ellipse_695" data-name="Ellipse 695" cx="10.687" cy="10.594" rx="10.687" ry="10.594" transform="translate(19.213 46.87)" fill="#08635c"/>
            <path id="Path_4438" data-name="Path 4438" d="M2228.877,268.161s19.3-6.008,23.521-7.68,4.227-7.346,4.227-12.889-.008-13.551-.008-13.551h13.3s-.012,15.811.169,23c.131,5.223-1.629,15.279-9.093,18.979s-27.3,12.783-27.3,12.783Z" transform="translate(-2201.128 -221.076)" fill="#08635c"/>
            <path id="Path_4439" data-name="Path 4439" d="M2328.522,215.961l-2.7-7.921s1.08-4.141,2.88-5.941-9.542-4.14-13.862.72,1.62,6.841,1.62,6.841l-1.631,6.047Z" transform="translate(-2255.302 -199.176)" fill="#ff957c"/>
            <path id="Path_4440" data-name="Path 4440" d="M2256.626,512.693a23.571,23.571,0,1,1-23.571-23.571" transform="translate(-2188.678 -384.828)" fill="#019e96"/>
            <rect id="Rectangle_1509" data-name="Rectangle 1509" width="13.763" height="31.578" rx="6.882" transform="translate(40.565 55.329) rotate(-180)" fill="#ff957c"/>
            <path id="Path_4441" data-name="Path 4441" d="M2193.182,264.536s2.443-22.239,12.69-26.054c-3.571-5.426-16.957-5.1-22.38,4.7C2180.439,248.692,2180.125,266.05,2193.182,264.536Z" transform="translate(-2170.871 -221.67)" fill="#313131"/>
            <circle id="Ellipse_696" data-name="Ellipse 696" cx="11.701" cy="11.701" r="11.701" transform="translate(16.532 15.591)" fill="#ff957c"/>
            <circle id="Ellipse_697" data-name="Ellipse 697" cx="11.701" cy="11.701" r="11.701" transform="translate(21.645 19.56)" fill="#ff957c"/>
            <rect id="Rectangle_1510" data-name="Rectangle 1510" width="23.402" height="6.304" transform="translate(21.058 36.535) rotate(-52.179)" fill="#ff957c"/>
            <path id="Path_4443" data-name="Path 4443" d="M2173.94,248.279" transform="translate(-2165.861 -230.217)" fill="#f97253"/>
            <circle id="Ellipse_698" data-name="Ellipse 698" cx="1.366" cy="1.366" r="1.366" transform="translate(33.829 21.122)" fill="#313131"/>
            <circle id="Ellipse_699" data-name="Ellipse 699" cx="1.366" cy="1.366" r="1.366" transform="translate(28.885 27.492)" fill="#313131"/>
            <path id="Path_4444" data-name="Path 4444" d="M2241.5,267.861l4.476,2.668.633.377-.2-.764-.78,1.115a.563.563,0,0,0,.2.764.571.571,0,0,0,.765-.2l.779-1.115a.565.565,0,0,0-.2-.764l-4.476-2.668-.633-.377a.559.559,0,0,0-.564.965Z" transform="translate(-2209.06 -242.116)" fill="#313131"/>
            <path id="Path_4445" data-name="Path 4445" d="M2256.906,284.727a5.48,5.48,0,0,1-.439.666c-.01.013-.021.026-.03.04s.085-.108.048-.063l-.057.072c-.04.049-.081.1-.122.145-.087.1-.178.2-.273.291s-.212.178-.309.274c0,0,.114-.085.042-.033l-.036.026-.085.06q-.086.058-.176.11c-.067.038-.144.065-.209.106-.006,0,.122-.048.067-.028l-.068.026c-.036.013-.073.025-.11.036-.07.02-.14.033-.211.048s.133-.012.063-.008l-.058.005c-.043,0-.088,0-.132,0a.559.559,0,0,0,0,1.117c1.271.009,2.261-1.071,2.9-2.06.057-.088.113-.178.163-.271a.559.559,0,0,0-.965-.564Z" transform="translate(-2217.418 -253.441)" fill="#313131"/>
            <ellipse id="Ellipse_700" data-name="Ellipse 700" cx="3.629" cy="2.573" rx="3.629" ry="2.573" transform="translate(17.369 37.455) rotate(-31.306)" fill="#f97253"/>
            <path id="Path_4446" data-name="Path 4446" d="M2178.109,283.874s8.681,1.46,8.062,11.092-.911,27-15.651,24.227c-17.986-3.383-14.741-28.129,2.335-28.606C2179.258,290.409,2178.109,283.874,2178.109,283.874Z" transform="translate(-2155.921 -253.067)" fill="#313131"/>
            <path id="Path_4447" data-name="Path 4447" d="M2164.515,371.538c8.061,1.9,7.1,16.346-5.061,15.178S2148.767,367.823,2164.515,371.538Z" transform="translate(-2151.375 -309.016)" fill="#313131"/>
            <path id="Path_4448" data-name="Path 4448" d="M2192.059,224.925" transform="translate(-2177.492 -215.225)" fill="#313131"/>
            <path id="Path_4449" data-name="Path 4449" d="M2192.379,267.966s2.925-22.705,13.173-26.519c-8.54-3.108-16.413.573-19.689,5.957S2179.323,269.48,2192.379,267.966Z" transform="translate(-2171.635 -225.1)" fill="#313131"/>
            <path id="Path_4450" data-name="Path 4450" d="M2236.5,340.78c-3.816-.517-10.361-.075-16.151.526a12.963,12.963,0,0,0-11.615,13.03v61.05l38.324-6.146s-10.957-34.6-9.621-60.728" transform="translate(-2188.199 -289.452)" fill="#ff8e9e"/>
            <ellipse id="Ellipse_701" data-name="Ellipse 701" cx="11.289" cy="11.191" rx="11.289" ry="11.191" transform="translate(21.213 51.407)" fill="#019e96"/>
            <path id="Path_4451" data-name="Path 4451" d="M2235.808,277.419s20.39-6.347,24.846-8.112,4.465-7.76,4.465-13.616-.009-14.315-.009-14.315h14.054s-.012,16.7.178,24.3c.138,5.518-1.721,16.14-9.6,20.048s-28.842,13.5-28.842,13.5Z" transform="translate(-2205.578 -225.785)" fill="#019e96"/>
            <path id="Path_4452" data-name="Path 4452" d="M2275.318,546.131c22.5-2.787,51.9-16.951,51.9-16.951l30.558,22.469,6.418-7.7s-24.917-37.7-35.524-39.3-38.865,9.837-38.865,9.837" transform="translate(-2230.941 -394.695)" fill="#019e96"/>
            <path id="Path_4453" data-name="Path 4453" d="M2489.144,596.3a8.635,8.635,0,0,0,8.033-7.043c4.533-3.651,13.906-10.373,13.906-10.373l3.539,2.078-18.994,30.8-7.254-11.27-3.885-2.095.472-1.156Z" transform="translate(-2365.22 -442.454)" fill="#313131"/>
            <path id="Path_4454" data-name="Path 4454" d="M2207.049,509.84a60.083,60.083,0,0,0,7.516.308,79,79,0,0,0,17.16-1.962,58.757,58.757,0,0,0,11.084-3.728c.628-.286.083-1.212-.542-.928a62.975,62.975,0,0,1-19.058,5.025,81.665,81.665,0,0,1-13.661.407c-.833-.047-1.67-.1-2.5-.2-.685-.08-.679.995,0,1.074Z" transform="translate(-2186.787 -394.043)" fill="#313131"/>
            <rect id="Rectangle_1511" data-name="Rectangle 1511" width="24.873" height="18.196" rx="9.098" transform="translate(12.057 109.249)" fill="#ffc517"/>
            <path id="Path_4455" data-name="Path 4455" d="M2198.015,521.482c3.885.971,8.124.586,12.04-.024.347-.054.694-.11,1.038-.177l-.606-.789-1.815,3.26c-.337.6.591,1.147.927.542l1.815-3.26a.544.544,0,0,0-.606-.789,38.345,38.345,0,0,1-8.893.684,18.1,18.1,0,0,1-3.615-.483.538.538,0,0,0-.285,1.036Z" transform="translate(-2181.07 -404.801)" fill="#313131"/>
          </g>
        </g>
      </g>
    </g>
  </g>
</svg>
