<svg xmlns="http://www.w3.org/2000/svg" width="339.938" height="397.644" viewBox="0 0 339.938 397.644">
  <g id="Group_3192" data-name="Group 3192" transform="translate(-7768.531 558.878)">
    <g id="Component_83" data-name="Component 83" transform="translate(7768.531 -558.878)">
      <ellipse id="Ellipse_720" data-name="Ellipse 720" cx="134.5" cy="173" rx="134.5" ry="173" transform="translate(77.833) rotate(13)" fill="#efe6d0" opacity="0.5"/>
      <g id="Group_3112" data-name="Group 3112" transform="translate(-243.724 -324.217)" style="isolation: isolate">
        <g id="Group_3092" data-name="Group 3092" transform="translate(-1198.466 179.681)" style="mix-blend-mode: luminosity;isolation: isolate">
          <path id="Path_4388" data-name="Path 4388" d="M82.773,19.313C71.512,17.646.831,32.388.831,32.388s-3.184,6.459,2.912,10.507C37.6,39.138,84.178,40.107,91.451,37.5c0,0,14.945,6.969,25.475-32.328C92.492-4.423,89.107,2.27,89.107,2.27s-1.415,2.142-1.856,6.708S88.11,18.571,82.773,19.313Z" transform="matrix(0.985, -0.174, 0.174, 0.985, 1517.588, 368.202)" fill="#ff957c"/>
          <path id="Path_4389" data-name="Path 4389" d="M11.164,0S9.034,9.925,13.2,12.395c-9.057,1.269-9.094,1-9.094,1S-2.681,9.683,1.2,2.89C7.277.884,11.164,0,11.164,0Z" transform="matrix(0.985, -0.174, 0.174, 0.985, 1522.35, 397.314)" fill="#fff"/>
          <path id="Path_4390" data-name="Path 4390" d="M17.086,5.209A8.813,8.813,0,0,0,20,15.716C21.344,21.5,23.368,33.1,23.368,33.1l-3.479,2.332L0,4.313,13.576,2.642,17.224,0l.853.946Z" transform="matrix(0.985, -0.174, 0.174, 0.985, 1506.299, 397.79)" fill="#313131"/>
          <path id="Path_4391" data-name="Path 4391" d="M1880.4,606.37s10.529,27.707,14.344,38.006c.993,11.34,22.1,50.175,22.1,50.175s7.021,1.6,9.544-5.271c-11.513-32.062-17.151-49.022-16.338-52.939.419-2.02-8.451-36.489-8.451-36.489Z" transform="translate(-241.352 -252.21)" fill="#ff957c"/>
          <path id="Path_4392" data-name="Path 4392" d="M1648.726,365.529a106.915,106.915,0,0,0-10.9,1.189l-30.1,5.174,2.725,11.931,27.089-4.435c1.4-.475,7.479-.775,11.9-.971" transform="translate(-68.316 -103.513)" fill="#ff957c"/>
          <path id="Path_4393" data-name="Path 4393" d="M1580.5,382.518s-2.123-.448-11.093,1.792c-2.82.472-8.945,1.7-8.836,2.527.238,1.8,6.889-.32,6.884.738s-7.532,2.176-7,4.108c.293,1.061,6.964-1.319,6.937-.368s-6.76,3.006-6.512,4.558c.266,1.665,6.718-2.094,6.972-.59s-7.158,3.333-6.037,4.993,10.854-5.6,13.095-3.619c.88.78-2.171,5.12-.137,5.813s4.14-6.943,5.661-7.889S1580.5,382.518,1580.5,382.518Z" transform="translate(-38.305 -114.271)" fill="#ff957c"/>
          <g id="Group_3091" data-name="Group 3091" transform="translate(1618.298 209.174)">
            <circle id="Ellipse_690" data-name="Ellipse 690" cx="12.689" cy="12.689" r="12.689" transform="translate(5.745 6.86)" fill="#ff957c"/>
            <circle id="Ellipse_691" data-name="Ellipse 691" cx="12.689" cy="12.689" r="12.689" transform="translate(4.26)" fill="#ff957c"/>
            <rect id="Rectangle_1501" data-name="Rectangle 1501" width="25.378" height="6.836" transform="translate(4.547 15.373) rotate(-12.213)" fill="#ff957c"/>
            <rect id="Rectangle_1502" data-name="Rectangle 1502" width="14.925" height="34.243" rx="7.463" transform="translate(20.111 46.863) rotate(-175.993)" fill="#ff957c"/>
            <ellipse id="Ellipse_692" data-name="Ellipse 692" cx="2.79" cy="3.935" rx="2.79" ry="3.935" transform="translate(0 19.084) rotate(-81.34)" fill="#ff957c"/>
          </g>
          <circle id="Ellipse_694" data-name="Ellipse 694" cx="1.481" cy="1.481" r="1.481" transform="translate(1643.562 221.256)" fill="#313131"/>
          <path id="Path_4395" data-name="Path 4395" d="M1883.442,283.473l-.093.045-.12.054c-.155.069.119-.047-.018.008a6.922,6.922,0,0,1-.884.291q-.123.031-.247.056l-.148.027c-.043.007-.192.054-.034.007a1.924,1.924,0,0,1-.571.029c-.044,0-.088,0-.132-.008s-.152.016-.012,0a.935.935,0,0,1-.3-.064c-.041-.012-.082-.027-.123-.04-.136-.043.113.06-.014,0a2.257,2.257,0,0,1-.262-.153.61.61,0,0,0-.829.217.621.621,0,0,0,.217.829,3.383,3.383,0,0,0,2.691.289,6.651,6.651,0,0,0,1.486-.54.61.61,0,0,0,.218-.829.621.621,0,0,0-.83-.217Z" transform="matrix(1, 0.017, -0.017, 1, -231.054, -85.873)" fill="#313131"/>
          <path id="Path_4396" data-name="Path 4396" d="M1825.723,238.648l-1.221,5.34-5.53.277s-3.221-.252-3.94,1.241-.227,3.528,4.445,4l.542,2.506-11.515-.147,3.293-10.7,10.939-6Z" transform="translate(-195.729 -20.787)" fill="#313131"/>
          <path id="Path_4397" data-name="Path 4397" d="M1794.341,228.728" transform="translate(-186.741 -16.702)" fill="#313131"/>
          <path id="Path_4398" data-name="Path 4398" d="M1887.371,231.811a5.645,5.645,0,0,1,4.43,3.822,4.97,4.97,0,0,0,2.041-.825s-.825-4.212-3.431-4.255S1887.371,231.811,1887.371,231.811Z" transform="translate(-245.776 -17.859)" fill="#313131"/>
          <path id="Path_4399" data-name="Path 4399" d="M1854.259,241.9a5.644,5.644,0,0,0-1.336,5.7,4.959,4.959,0,0,1-2.135.533s-1.81-3.892.272-5.459S1854.259,241.9,1854.259,241.9Z" transform="translate(-222.098 -24.933)" fill="#313131"/>
          <path id="Path_4400" data-name="Path 4400" d="M1815.531,235.858l38.211-10.805-.588-1.968-7.254,1.827" transform="translate(-200.188 -13.12)" fill="#fff"/>
          <path id="Path_4401" data-name="Path 4401" d="M1814.838,222.737s-3.114-14.4,8.061-18.984,19.61,3.648,21.638,8.47l-11.682,4.978Z" transform="translate(-199.495 0)" fill="#fff"/>
          <path id="Path_4402" data-name="Path 4402" d="M1781.511,532.588" transform="translate(-178.599 -209.526)" fill="#ffc517"/>
          <path id="Path_4403" data-name="Path 4403" d="M1718.856,346.7s-16.263.158-31.129.664a30.607,30.607,0,0,0-2.106-12.71l17.58-2.129a10.627,10.627,0,0,0,7.532-4.607l3.232-4.791a16.319,16.319,0,0,1,12.481-6.661l30.14-1.263a9.989,9.989,0,0,1,7.942,3.41l6.1,6.987a13.789,13.789,0,0,1,3.175,11.558l-5.195,28.292-12.561.39,8.894,2.987,16.406,57.253-23.414,6.806-2.583-2.465a2.507,2.507,0,0,0-2.407-.93l-2.649,3.657s-15.116,5.556-27.751,0c.791-1.67-5.823-26.836-.406-30.133l-3.909-5.886s.9-12.979.777-17.69" transform="translate(-117.749 -71.574)" fill="#fff"/>
          <path id="Path_4404" data-name="Path 4404" d="M1770.627,344h12.155l10.62,17.146-2.943,22.586,3.717,13.369-39.417,3.2-12.028-9.724,6.526-20.729Z" transform="translate(-153.991 -89.852)" fill="#047b77"/>
          <path id="Path_4405" data-name="Path 4405" d="M1873.322,450.65c-.5,2.893.185,6.081,1.152,10.454l6.793,23.168,11.773-3.337-5.994-25.5a8.962,8.962,0,0,1,.568-4.019" transform="translate(-236.754 -157.53)" fill="#ff957c"/>
          <path id="Path_4406" data-name="Path 4406" d="M1980.134,859.005" transform="translate(-304.642 -416.665)" fill="#f97253"/>
          <path id="Path_4407" data-name="Path 4407" d="M1966.109,825.87s10.148-.233,11.583-4.86c3.337,8.515,3.086,8.613,3.086,8.613s-2.037,7.466-9.544,5.272C1967.871,829.445,1966.109,825.87,1966.109,825.87Z" transform="translate(-295.742 -392.553)" fill="#fff"/>
          <path id="Path_4408" data-name="Path 4408" d="M1971.279,837.153a8.813,8.813,0,0,0,9.544-5.272c5.316-2.652,16.125-7.312,16.125-7.312l3.077,2.843-25.651,26.568-4.777-12.818-3.417-2.935.722-1.05Z" transform="translate(-295.786 -394.813)" fill="#313131"/>
          <path id="Path_4409" data-name="Path 4409" d="M1856.264,538.2" transform="translate(-226.036 -213.087)" fill="#f97253"/>
          <path id="Path_4410" data-name="Path 4410" d="M1818.584,316.93l1.816,12.857.26,1.841a.552.552,0,0,0,.805.327c1.208-.732,2.426-1.446,3.647-2.155q4.115-2.391,8.307-4.648c3-1.606,6.039-3.174,9.175-4.5a29.46,29.46,0,0,1,3.6-1.308c.246-.068.495-.131.745-.184q.164-.034.328-.063l.144-.023a.383.383,0,0,1,.085-.011,4.507,4.507,0,0,1,1.775.17c2.612.777,3.825,3.613,4.345,6.057.012.059.022.12.031.18.1.7,1.16.4,1.057-.292a9.423,9.423,0,0,0-3.52-6.224,5.642,5.642,0,0,0-4.136-.926,16.992,16.992,0,0,0-3.318.991,87.161,87.161,0,0,0-9.148,4.283c-3.02,1.578-6,3.235-8.95,4.935q-1.566.9-3.121,1.821a14,14,0,0,0-1.532.914.62.62,0,0,1-.066.04l.805.327-1.816-12.857-.26-1.841c-.1-.7-1.155-.4-1.056.292Z" transform="translate(-202.121 -72.236)" fill="#313131"/>
          <path id="Path_4411" data-name="Path 4411" d="M1895.341,527.128c.856,3.909,2.789,8.888,5.9,11.408a4.411,4.411,0,0,0,2.272,1.129,1.807,1.807,0,0,0,1.976-1.266c.066-.353.005-.766.253-1.026.521-.547,1.278.884,2.136-.314.509-.712-.2-1.31.238-1.707.688-.619,1.421.735,2.316-.347.525-.635-.256-1.651.362-2.353s1.59.4,2.123-.074a1.809,1.809,0,0,0,.455-1.651,5.393,5.393,0,0,0-.593-1.954c-1.634-3.047-5.585-7.04-7.582-9.863a1,1,0,0,0-.5-.445.983.983,0,0,0-.557.067c-4.493,1.484-6.326,3.674-8.633,7.806" transform="translate(-250.834 -200.68)" fill="#ff957c"/>
          <path id="Path_4412" data-name="Path 4412" d="M1905.444,523.574a11.807,11.807,0,0,0-8.3,5.042c-.366.535.5,1.038.867.507a10.717,10.717,0,0,1,7.434-4.544.519.519,0,0,0,.5-.5.5.5,0,0,0-.5-.5Z" transform="translate(-251.922 -203.805)" fill="#313131"/>
          <path id="Path_4413" data-name="Path 4413" d="M1792.079,531.828c1.958.362,3.952.572,5.935.743a76.91,76.91,0,0,0,13.6.029,53.632,53.632,0,0,0,8.837-1.513.549.549,0,0,0-.291-1.057,58.778,58.778,0,0,1-15.164,1.757,81.561,81.561,0,0,1-10.662-.714c-.654-.088-1.309-.181-1.959-.3-.69-.127-.985.929-.292,1.057Z" transform="translate(-185.054 -207.889)" fill="#313131"/>
          <path id="Path_4414" data-name="Path 4414" d="M.066.829a22.1,22.1,0,0,1,2.42,8.819c.041.7,1.138.706,1.1,0A23.433,23.433,0,0,0,1.013.276C.689-.351-.257.2.066.829Z" transform="matrix(0.985, -0.174, 0.174, 0.985, 1606.487, 373.083)" fill="#313131"/>
        </g>
      </g>
    </g>
  </g>
</svg>
