<svg xmlns="http://www.w3.org/2000/svg" width="339.938" height="397.644" viewBox="0 0 339.938 397.644">
  <g id="Group_3193" data-name="Group 3193" transform="translate(-8220.061 568.56)">
    <g id="Component_80_3" data-name="Component 80 – 3" transform="translate(8220.061 -568.56)">
      <ellipse id="Ellipse_718" data-name="Ellipse 718" cx="134.5" cy="173" rx="134.5" ry="173" transform="translate(77.833) rotate(13)" fill="#efe6d0" opacity="0.5"/>
      <circle id="Ellipse_702" data-name="Ellipse 702" cx="5" cy="5" r="5" transform="translate(156.781 73.74)" fill="#313131"/>
      <g id="Group_3097" data-name="Group 3097" transform="translate(-957.082 -215.273)">
        <line id="Line_233" data-name="Line 233" y2="12" transform="translate(1118.552 295.5)" fill="none" stroke="#313131" stroke-linecap="round" stroke-width="2"/>
        <line id="Line_234" data-name="Line 234" y1="18.917" x2="33.052" transform="translate(1085.5 307.5)" fill="none" stroke="#313131" stroke-linecap="round" stroke-width="2"/>
        <line id="Line_235" data-name="Line 235" x1="33.052" y1="18.917" transform="translate(1118.552 307.5)" fill="none" stroke="#313131" stroke-linecap="round" stroke-width="2"/>
      </g>
      <g id="Group_3113" data-name="Group 3113" transform="translate(-970.03 -214.856)">
        <g id="Group_3111" data-name="Group 3111" transform="translate(0 -2.5)">
          <path id="Path_4459" data-name="Path 4459" d="M-3.707-1.492c35.431-5.45,95.159-1.481,118.988,0s29.747,97.549,0,130.065c-36.494.723-80.857,1.859-118.988,0C-33.454,96.056-39.138,3.958-3.707-1.492Z" transform="translate(1078.004 338.278)" fill="#019e96"/>
          <path id="Path_4460" data-name="Path 4460" d="M9766.093,6542.116s-27.466,32.678,0,99.354c19.941-.089,20.679,3.133,20.3-7.953-.377-10.94.12-77.652-5.715-91.4.143.136.146.131,0,0C9771.077,6541.824,9766.093,6542.116,9766.093,6542.116Z" transform="translate(-8698.213 -6197.457)" fill="#fffbf0"/>
          <path id="Path_4461" data-name="Path 4461" d="M9780.323,6542.8s3.852,88.558,4.154,95.105,7.132,5.257,12.669,5.257h80.6c5.24,0,8.709-2.305,10.869-10.042s13.094-83.654-8.71-90.32C9857.407,6542.6,9780.323,6542.8,9780.323,6542.8Z" transform="translate(-8687.146 -6197.259)" fill="#fffbf0"/>
          <g id="Group_3098" data-name="Group 3098" transform="translate(1049.809 353.312)">
            <path id="Path_3940" data-name="Path 3940" d="M2453.331,2863.512l1.144,27.082-6.417,2.281-2.6-29.437Z" transform="translate(-2387.658 -2848.244)" fill="#ff957c"/>
            <path id="Path_3942" data-name="Path 3942" d="M2433.685,2895.054s-6.327,3.119-10.512,4.955c-2.38,1.044-4.61,2.029-5.765,2.551-3.178,1.445-13.241-21.357-14.76-27.334s-6.73-22.559-13.737-22.232-15-5.005-15-5.005l6.712,7.474-6.43.088s12.332,7.047,16,10.388,9.488,34.488,10.647,41.558,7.42,13.112,11.31,13.4,25.461-6.1,25.461-6.1Z" transform="translate(-2342.281 -2838.447)" fill="#ff957c"/>
            <path id="Path_3943" data-name="Path 3943" d="M2452.111,2875.917s2.636-9.3.785-18.377c11.709,4.543,4.987,16.96,4.987,16.96l7.189,38.842-14.627-3.19-3.271-46.884" transform="translate(-2388.744 -2844.504)" fill="#ff957c"/>
            <path id="Path_3944" data-name="Path 3944" d="M2304.511,2827.81l-1.5,17.56,87.934,1.333.7-7.207Z" transform="translate(-2297.313 -2825.649)" fill="#313131"/>
            <path id="Path_3953" data-name="Path 3953" d="M2463.575,2868.478s7.506,1.952,6.463-2.214-5.577-6.527-5.577-6.527C2467.283,2866.306,2463.575,2868.478,2463.575,2868.478Z" transform="translate(-2399.146 -2845.897)" fill="#ff957c"/>
            <ellipse id="Ellipse_703" data-name="Ellipse 703" cx="8.779" cy="5.716" rx="8.779" ry="5.716" transform="matrix(0.073, -0.997, 0.997, 0.073, 0, 19.305)" fill="#fec739"/>
            <ellipse id="Ellipse_704" data-name="Ellipse 704" cx="3.654" cy="2.379" rx="3.654" ry="2.379" transform="matrix(0.073, -0.997, 0.997, 0.073, 90.999, 20.881)" fill="#313131"/>
            <ellipse id="Ellipse_705" data-name="Ellipse 705" cx="4.52" cy="2.683" rx="4.52" ry="2.683" transform="matrix(0.073, -0.997, 0.997, 0.073, 3.038, 15.49)" fill="#313131"/>
            <path id="Path_4462" data-name="Path 4462" d="M2447.767,2907.753c2.615,5.792,5.447,11.486,8.338,17.144q3.354,6.564,6.84,13.059a3.016,3.016,0,0,0,.86,1.233,1.5,1.5,0,0,0,1.488,0l2.3-1.02c.484-.215.848.523.363.739l-2.131.946a3.519,3.519,0,0,1-1.052.354,2.2,2.2,0,0,1-1.844-.688,5.441,5.441,0,0,1-.7-1.168q-.3-.562-.6-1.125-.753-1.411-1.5-2.824c-2.851-5.394-5.648-10.818-8.347-16.291-1.631-3.307-3.227-6.632-4.745-9.993-.218-.483.521-.845.739-.362Z" transform="translate(-2388.626 -2876.206)" fill="#313131"/>
            <path id="Path_4463" data-name="Path 4463" d="M2634.144,2870.458s6.722,1.376,8.6-.306c5.246-4.714,4.862-18.576,4.862-18.576l-11.321-.1" transform="translate(-2507.327 -2840.661)" fill="#313131"/>
            <rect id="Rectangle_1514" data-name="Rectangle 1514" width="16.888" height="38.747" rx="8.444" transform="translate(115.895 17.118) rotate(4.632)" fill="#ff957c"/>
            <ellipse id="Ellipse_706" data-name="Ellipse 706" cx="14.358" cy="14.358" rx="14.358" ry="14.358" transform="translate(104.141 1.956)" fill="#ff957c"/>
            <ellipse id="Ellipse_707" data-name="Ellipse 707" cx="14.358" cy="14.358" rx="14.358" ry="14.358" transform="translate(103.499 9.872)" fill="#ff957c"/>
            <rect id="Rectangle_1515" data-name="Rectangle 1515" width="7.735" height="28.715" transform="matrix(0.081, -0.997, 0.997, 0.081, 103.563, 22.864)" fill="#ff957c"/>
            <ellipse id="Ellipse_708" data-name="Ellipse 708" cx="1.676" cy="1.676" rx="1.676" ry="1.676" transform="translate(106.708 16.962)" fill="#313131"/>
            <ellipse id="Ellipse_709" data-name="Ellipse 709" cx="1.676" cy="1.676" rx="1.676" ry="1.676" transform="translate(116.57 17.762)" fill="#313131"/>
            <path id="Path_4464" data-name="Path 4464" d="M2591.774,2871.777l-1.291,6.262-.182.885c-.078.376.3.7.627.739l1.655.218c.875.115.984-1.251.111-1.366l-1.656-.218.628.739,1.291-6.262.182-.885a.688.688,0,0,0-.627-.739.7.7,0,0,0-.739.628Z" transform="translate(-2479.513 -2853.135)" fill="#313131"/>
            <path id="Path_4465" data-name="Path 4465" d="M2594,2903.606c1.593.4,3.61.42,4.791-.884a.687.687,0,0,0-.169-.954.707.707,0,0,0-.955.169c.137-.151,0,0-.035.025s-.087.075-.133.109c-.112.084-.035-.007.005,0-.022-.006-.126.073-.149.086a2.6,2.6,0,0,1-.276.125c-.181.07.079-.017-.038.016-.042.012-.084.025-.127.036a4.139,4.139,0,0,1-.651.113.847.847,0,0,0-.175.013c.075-.026.13-.005.01,0s-.211,0-.317,0a7.4,7.4,0,0,1-1.033-.1c-.108-.017-.216-.038-.323-.059-.124-.024.216.048.079.017l-.035-.009a.7.7,0,0,0-.879.409.693.693,0,0,0,.409.88Z" transform="translate(-2481.585 -2872.48)" fill="#313131"/>
            <ellipse id="Ellipse_710" data-name="Ellipse 710" cx="4.453" cy="3.157" rx="4.453" ry="3.157" transform="translate(128.148 17.386) rotate(-16.242)" fill="#ff957c"/>
            <path id="Path_4466" data-name="Path 4466" d="M2561.46,2838.131s2.81-9.158,11.325-8.661c-.518,4.373,3.829,10,7.906,8.344s3.948,2.116,3.948,2.116,1.235,3.246,5.167-1.889c1.733-.246,5.728-.719,5.728-.719s5.551-5.82-1.15-10.617-22.67-4.757-22.67-4.757-13-1.651-16.317,14.6C2556.993,2837.162,2561.46,2838.131,2561.46,2838.131Z" transform="translate(-2457.382 -2821.901)" fill="#313131"/>
            <path id="Path_4467" data-name="Path 4467" d="M2550.7,2974.884l.559,20.058h31.78s.163-27.733-1.49-34.937-6.58-16.829-30.291-8.028c-18.42,6.837-22.432,7.162-22.432,7.162s.937,13.628,7.6,19.372a144.487,144.487,0,0,0,14.275-3.626" transform="translate(-2441.094 -2902.168)" fill="#fec739"/>
            <path id="Path_4468" data-name="Path 4468" d="M2547.3,3016.592q4.249-1.042,8.5-2.07,7.984-1.934,15.98-3.814c2.295-.535,4.59-1.069,6.9-1.558a.412.412,0,0,1,.161.808c-4.659.988-9.292,2.113-13.925,3.219q-7.231,1.726-14.453,3.49-1.5.367-3,.734c-.515.126-.673-.682-.16-.808Z" transform="translate(-2452.049 -2940.654)" fill="#313131"/>
          </g>
        </g>
        <rect id="Rectangle_1512" data-name="Rectangle 1512" width="77" height="5" transform="translate(1093.281 326)" fill="#019e96"/>
        <rect id="Rectangle_1513" data-name="Rectangle 1513" width="93" height="5" transform="translate(1085.281 329)" fill="#195f5f"/>
      </g>
    </g>
  </g>
</svg>
