<svg xmlns="http://www.w3.org/2000/svg" width="309.535" height="248.308" viewBox="0 0 309.535 248.308">
  <g id="Group_2089" data-name="Group 2089" transform="translate(-2083.843 -1741.431)">
    <path id="Path_2787" data-name="Path 2787" d="M2342.963,1880.635h-4.419a51.3,51.3,0,0,0-25.65,6.873l-3.827,2.209a51.3,51.3,0,0,0-18.777,18.778l-2.209,3.827a51.3,51.3,0,0,0-6.873,25.65v4.419a51.3,51.3,0,0,0,6.873,25.651l2.209,3.827a51.3,51.3,0,0,0,18.777,18.777l3.827,2.21a51.3,51.3,0,0,0,25.65,6.873h4.419a51.3,51.3,0,0,0,25.65-6.873l3.827-2.21a51.309,51.309,0,0,0,18.777-18.777l2.209-3.827a51.3,51.3,0,0,0,6.873-25.651v-4.419a51.294,51.294,0,0,0-6.873-25.65l-2.209-3.827a51.307,51.307,0,0,0-18.777-18.778l-3.827-2.209A51.3,51.3,0,0,0,2342.963,1880.635Z" transform="translate(-118.094 -77.726)" fill="#ff8e9e"/>
    <path id="Path_2788" data-name="Path 2788" d="M2356.157,1885.033h-4.419a51.3,51.3,0,0,0-25.65,6.873l-3.827,2.209a51.3,51.3,0,0,0-18.778,18.777l-2.209,3.827a51.3,51.3,0,0,0-6.873,25.65v4.419a51.3,51.3,0,0,0,6.873,25.65l2.209,3.827a51.3,51.3,0,0,0,18.778,18.777l3.827,2.21a51.3,51.3,0,0,0,25.65,6.873h4.419a51.3,51.3,0,0,0,25.65-6.873l3.827-2.21a51.3,51.3,0,0,0,18.777-18.777l2.21-3.827a51.3,51.3,0,0,0,6.873-25.65v-4.419a51.3,51.3,0,0,0-6.873-25.65l-2.21-3.827a51.3,51.3,0,0,0-18.777-18.777l-3.827-2.209A51.3,51.3,0,0,0,2356.157,1885.033Z" transform="translate(-125.157 -80.081)" fill="#019e96"/>
    <g id="Group_2083" data-name="Group 2083" transform="translate(2334.796 1983.194) rotate(-39)">
      <path id="Path_2789" data-name="Path 2789" d="M21.275,8.421c-3.569,0-5.858-1.563-7.879-2.941C11.682,4.309,10.2,3.3,8.136,3.3A7.885,7.885,0,0,0,2.022,6.82a1.115,1.115,0,1,1-1.814-1.3A10.132,10.132,0,0,1,8.136,1.069c2.753,0,4.668,1.306,6.518,2.569,1.924,1.314,3.741,2.554,6.621,2.554,3.651,0,5.222-1.513,6.888-3.114C29.735,1.565,31.363,0,34.486,0c2.452,0,4.547,1.476,6.571,2.9,2.114,1.49,4.3,3.03,6.956,3.03,1.758,0,3.453-1.182,5.25-2.432C55.366,2.035,57.542.52,60.244.52c1.539,0,3.293,1.226,5.719,2.92.659.46,1.36.95,2.1,1.444A1.115,1.115,0,1,1,66.827,6.74c-.754-.5-1.469-1-2.14-1.471C62.914,4.03,61.081,2.75,60.244,2.75c-2,0-3.8,1.254-5.707,2.581-2,1.393-4.067,2.833-6.524,2.833-3.364,0-5.954-1.827-8.24-3.438-1.9-1.339-3.54-2.5-5.286-2.5-2.226,0-3.352,1.084-4.777,2.455C27.979,6.35,25.825,8.421,21.275,8.421Z" transform="translate(0 0)" fill="#ff8e9e"/>
    </g>
    <g id="Group_2084" data-name="Group 2084" transform="translate(2083.843 1804.952)">
      <path id="Path_2790" data-name="Path 2790" d="M2128.317,1918.528a1.115,1.115,0,0,1-.747-.286l-4.359-3.918c-4.046-3.631-8.23-7.387-12.258-11.114a1.115,1.115,0,0,1,.023-1.658c2.659-2.325,5.294-4.65,7.929-6.975,3.5-3.09,7-6.181,10.563-9.271a1.116,1.116,0,0,1,1.539.073q4.567,4.791,9.075,9.64,3.331,3.561,6.673,7.111a1.114,1.114,0,0,1-.11,1.633c-5.786,4.675-11.769,9.51-17.6,14.5A1.116,1.116,0,0,1,2128.317,1918.528Zm-14.939-16.114c3.734,3.439,7.587,6.9,11.323,10.25l3.636,3.266c5.3-4.514,10.712-8.894,15.971-13.145q-2.936-3.113-5.855-6.243-4.151-4.438-8.326-8.853c-3.279,2.853-6.512,5.707-9.745,8.56Q2116.888,1899.332,2113.378,1902.414Z" transform="translate(-2110.596 -1885.033)" fill="#019e96"/>
    </g>
    <g id="Group_2085" data-name="Group 2085" transform="translate(2282.206 1777.725)">
      <path id="Path_2791" data-name="Path 2791" d="M2594.18,1760.636c-5.591,0-11.579-6.358-11.579-10.831,0-.373-.027-.749-.053-1.125-.029-.427-.058-.854-.058-1.279,0-5.526,6.113-11.949,13.993-11.949a12.732,12.732,0,0,1,4.356.748,11.008,11.008,0,0,1,6.622,5.99,12.306,12.306,0,0,1,1.287,5.223c0,5.762-5.311,13.073-11.279,13.073-.591,0-1.143.039-1.677.076C2595.243,1760.6,2594.711,1760.636,2594.18,1760.636Zm2.3-22.953c-6.516,0-11.763,5.317-11.763,9.718,0,.373.028.749.054,1.125.029.427.058.854.058,1.279,0,3.318,5.105,8.6,9.349,8.6.48,0,.961-.034,1.457-.069.584-.041,1.187-.081,1.832-.081,4.575,0,9.049-6.208,9.049-10.842a10.011,10.011,0,0,0-1.106-4.344,8.835,8.835,0,0,0-5.335-4.773A10.5,10.5,0,0,0,2596.483,1737.683Z" transform="translate(-2582.49 -1735.453)" fill="#ff8e9e"/>
    </g>
    <g id="Group_2086" data-name="Group 2086" transform="translate(2369.625 1818.311)">
      <path id="Path_2792" data-name="Path 2792" d="M2065.6,1740.377a9.023,9.023,0,0,0-4.979,8.122,7.116,7.116,0,0,0,7.352,7.282c5.68,0,9.194-4.988,9.194-9.481,0-4.8-5.066-6.915-7.6-6.915A8.775,8.775,0,0,0,2065.6,1740.377Z" transform="translate(-2060.625 -1739.385)" fill="#ff8e9e"/>
    </g>
    <g id="Group_2087" data-name="Group 2087" transform="translate(2204.393 1741.431)">
      <path id="Path_2793" data-name="Path 2793" d="M2371.168,1761.547a1.115,1.115,0,0,1-.716-1.972c3.289-2.74,6.62-5.239,9.843-7.656,1.487-1.114,2.974-2.229,4.46-3.37a1.115,1.115,0,1,1,1.356,1.77c-1.493,1.146-2.985,2.265-4.479,3.385-3.2,2.4-6.509,4.881-9.751,7.585A1.113,1.113,0,0,1,2371.168,1761.547Z" transform="translate(-2370.052 -1748.318)" fill="#fec739"/>
    </g>
    <circle id="Ellipse_259" data-name="Ellipse 259" cx="46.187" cy="46.187" r="46.187" transform="translate(2182.603 1818.311)" fill="#fff"/>
    <path id="Path_2795" data-name="Path 2795" d="M2349.791,1928.173a46.193,46.193,0,0,1,79.222,24.335" transform="translate(-154.811 -95.407)" fill="none" stroke="#313131" stroke-linecap="round" stroke-miterlimit="10" stroke-width="1.5"/>
    <path id="Path_2796" data-name="Path 2796" d="M2431.4,2042.628a46.2,46.2,0,0,1-74.353,21.176" transform="translate(-158.697 -164.453)" fill="none" stroke="#313131" stroke-linecap="round" stroke-miterlimit="10" stroke-width="1.5"/>
    <path id="Path_2797" data-name="Path 2797" d="M2396.584,1964.039l5.558,11.261a2.639,2.639,0,0,0,1.986,1.443l12.428,1.806a2.637,2.637,0,0,1,1.461,4.5l-8.993,8.766a2.638,2.638,0,0,0-.758,2.334l2.123,12.378a2.637,2.637,0,0,1-3.826,2.78l-11.116-5.844a2.64,2.64,0,0,0-2.455,0l-11.115,5.844a2.637,2.637,0,0,1-3.826-2.78l2.123-12.378a2.635,2.635,0,0,0-.758-2.334l-8.993-8.766a2.637,2.637,0,0,1,1.462-4.5l12.427-1.806a2.637,2.637,0,0,0,1.986-1.443l5.558-11.261A2.637,2.637,0,0,1,2396.584,1964.039Z" transform="translate(-165.43 -121.592)" fill="#fec739"/>
    <path id="Path_2798" data-name="Path 2798" d="M2506,1955.465h-4.42a51.3,51.3,0,0,0-25.65,6.873l-3.827,2.209a51.3,51.3,0,0,0-18.777,18.777l-2.21,3.827a51.3,51.3,0,0,0-6.873,25.65v4.419a51.3,51.3,0,0,0,6.873,25.65l2.21,3.827a51.3,51.3,0,0,0,18.777,18.777l3.827,2.21a51.3,51.3,0,0,0,25.65,6.873H2506a51.3,51.3,0,0,0,25.65-6.873l3.827-2.21a51.3,51.3,0,0,0,18.777-18.777l2.209-3.827a51.3,51.3,0,0,0,6.873-25.65V2012.8a51.3,51.3,0,0,0-6.873-25.65l-2.209-3.827a51.3,51.3,0,0,0-18.777-18.777l-3.827-2.209A51.3,51.3,0,0,0,2506,1955.465Z" transform="translate(-205.377 -117.788)" fill="#ff8e9e"/>
    <path id="Path_2799" data-name="Path 2799" d="M2519.192,1959.864h-4.419a51.3,51.3,0,0,0-25.65,6.873l-3.827,2.21a51.3,51.3,0,0,0-18.777,18.777l-2.209,3.827a51.3,51.3,0,0,0-6.873,25.651v4.419a51.3,51.3,0,0,0,6.873,25.651l2.209,3.827a51.309,51.309,0,0,0,18.777,18.777l3.827,2.21a51.3,51.3,0,0,0,25.65,6.873h4.419a51.3,51.3,0,0,0,25.65-6.873l3.827-2.21a51.308,51.308,0,0,0,18.778-18.777l2.209-3.827a51.3,51.3,0,0,0,6.873-25.651V2017.2a51.3,51.3,0,0,0-6.873-25.651l-2.209-3.827a51.3,51.3,0,0,0-18.778-18.777l-3.827-2.21A51.3,51.3,0,0,0,2519.192,1959.864Z" transform="translate(-212.442 -120.144)" fill="#019e96"/>
    <circle id="Ellipse_260" data-name="Ellipse 260" cx="46.187" cy="46.187" r="46.187" transform="translate(2258.353 1853.08)" fill="#fff"/>
    <path id="Path_2800" data-name="Path 2800" d="M2512.824,2003a46.193,46.193,0,0,1,79.222,24.335" transform="translate(-242.095 -135.47)" fill="none" stroke="#313131" stroke-linecap="round" stroke-miterlimit="10" stroke-width="1.5"/>
    <path id="Path_2801" data-name="Path 2801" d="M2594.436,2117.459a46.2,46.2,0,0,1-74.354,21.175" transform="translate(-245.981 -204.516)" fill="none" stroke="#313131" stroke-linecap="round" stroke-miterlimit="10" stroke-width="1.5"/>
    <path id="Path_2802" data-name="Path 2802" d="M2559.619,2038.869l5.558,11.262a2.635,2.635,0,0,0,1.985,1.442l12.427,1.806a2.637,2.637,0,0,1,1.462,4.5l-8.993,8.766a2.636,2.636,0,0,0-.759,2.333l2.123,12.378a2.637,2.637,0,0,1-3.826,2.779l-11.116-5.844a2.633,2.633,0,0,0-2.454,0l-11.116,5.844a2.637,2.637,0,0,1-3.826-2.779l2.123-12.378a2.637,2.637,0,0,0-.759-2.333l-8.993-8.766a2.636,2.636,0,0,1,1.461-4.5l12.428-1.806a2.637,2.637,0,0,0,1.985-1.442l5.558-11.262A2.637,2.637,0,0,1,2559.619,2038.869Z" transform="translate(-252.714 -161.654)" fill="#fec739"/>
    <path id="Path_2803" data-name="Path 2803" d="M2237.516,2022.023H2233.1a51.3,51.3,0,0,0-25.65,6.873l-3.827,2.21a51.3,51.3,0,0,0-18.777,18.777l-2.209,3.827a51.3,51.3,0,0,0-6.873,25.65v4.419a51.3,51.3,0,0,0,6.873,25.65l2.209,3.827a51.3,51.3,0,0,0,18.777,18.778l3.827,2.209a51.3,51.3,0,0,0,25.65,6.873h4.419a51.3,51.3,0,0,0,25.65-6.873l3.827-2.209a51.3,51.3,0,0,0,18.777-18.778l2.21-3.827a51.3,51.3,0,0,0,6.873-25.65v-4.419a51.3,51.3,0,0,0-6.873-25.65l-2.21-3.827a51.3,51.3,0,0,0-18.777-18.777l-3.827-2.21A51.3,51.3,0,0,0,2237.516,2022.023Z" transform="translate(-61.64 -153.422)" fill="#ff8e9e"/>
    <path id="Path_2804" data-name="Path 2804" d="M2250.711,2026.421h-4.419a51.294,51.294,0,0,0-25.65,6.873l-3.827,2.209a51.3,51.3,0,0,0-18.777,18.777l-2.21,3.827a51.3,51.3,0,0,0-6.873,25.65v4.419a51.3,51.3,0,0,0,6.873,25.65l2.21,3.827a51.3,51.3,0,0,0,18.777,18.777l3.827,2.21a51.3,51.3,0,0,0,25.65,6.873h4.419a51.3,51.3,0,0,0,25.65-6.873l3.827-2.21a51.311,51.311,0,0,0,18.777-18.777l2.209-3.827a51.3,51.3,0,0,0,6.873-25.65v-4.419a51.3,51.3,0,0,0-6.873-25.65l-2.209-3.827a51.309,51.309,0,0,0-18.777-18.777l-3.827-2.209A51.3,51.3,0,0,0,2250.711,2026.421Z" transform="translate(-68.704 -155.776)" fill="#019e96"/>
    <circle id="Ellipse_261" data-name="Ellipse 261" cx="46.187" cy="46.187" r="46.187" transform="translate(2133.61 1884.004)" fill="#fff"/>
    <path id="Path_2805" data-name="Path 2805" d="M2244.344,2069.56a46.193,46.193,0,0,1,79.222,24.335" transform="translate(-98.358 -171.103)" fill="none" stroke="#313131" stroke-linecap="round" stroke-miterlimit="10" stroke-width="1.5"/>
    <path id="Path_2806" data-name="Path 2806" d="M2325.956,2184.016a46.2,46.2,0,0,1-74.354,21.175" transform="translate(-102.244 -240.148)" fill="none" stroke="#313131" stroke-linecap="round" stroke-miterlimit="10" stroke-width="1.5"/>
    <path id="Path_2807" data-name="Path 2807" d="M2291.138,2105.427l5.558,11.262a2.637,2.637,0,0,0,1.985,1.442l12.428,1.806a2.636,2.636,0,0,1,1.461,4.5l-8.993,8.766a2.637,2.637,0,0,0-.759,2.334l2.123,12.377a2.637,2.637,0,0,1-3.826,2.78L2290,2144.847a2.639,2.639,0,0,0-2.454,0l-11.115,5.844a2.637,2.637,0,0,1-3.826-2.78l2.123-12.377a2.637,2.637,0,0,0-.758-2.334l-8.993-8.766a2.636,2.636,0,0,1,1.461-4.5l12.428-1.806a2.636,2.636,0,0,0,1.985-1.442l5.558-11.262A2.637,2.637,0,0,1,2291.138,2105.427Z" transform="translate(-108.977 -197.287)" fill="#fec739"/>
  </g>
</svg>
