<svg xmlns="http://www.w3.org/2000/svg" xmlns:xlink="http://www.w3.org/1999/xlink" width="350" height="285" viewBox="0 0 350 285">
  <defs>
    <clipPath id="clip-path">
      <rect id="Rectangle_1428" data-name="Rectangle 1428" width="350" height="285" transform="translate(508 239)" fill="#fff" stroke="#707070" stroke-width="1"/>
    </clipPath>
  </defs>
  <g id="Mask_Group_63" data-name="Mask Group 63" transform="translate(-508 -239)" clip-path="url(#clip-path)">
    <g id="Group_2807" data-name="Group 2807" transform="translate(526.624 266.367)">
      <path id="Path_2232" data-name="Path 2232" d="M1836.386,219.533a19.768,19.768,0,0,1,12.9-4.377,23.259,23.259,0,0,1,19.372,11.511c2.454,4.142,1.713,5.985,4.525,15.732a125.867,125.867,0,0,0,5.744,15.826A63.223,63.223,0,0,1,1852.582,263c-.171-4.367-.211-8.537-.623-13.072a15.937,15.937,0,0,0,10.528-10.629,21.851,21.851,0,0,1-11.6-7.792,21.038,21.038,0,0,1-3.733-8.312c-.995.166-7.568,1.335-10.5,6.85a14.738,14.738,0,0,0,6.039,19.078l11.153-.284c-.993,3.931-3.146,17.169-14.619,11.969a65.424,65.424,0,0,1-23.889-12.522,38.139,38.139,0,0,0,10.875-10.629C1831.544,229.743,1830.821,224.274,1836.386,219.533Z" transform="translate(-1734.403 -163.168)" fill="#313131"/>
      <path id="Path_4083" data-name="Path 4083" d="M2179.2,280.387c0,8.756-9.492,22.417-19.123,20.695-19.611-3.508-18.758-12.895-17.531-22.07,1.16-8.679,9.157-14.479,18.94-14.479S2179.2,271.63,2179.2,280.387Z" transform="translate(-1943.102 -194.718)" fill="#313131"/>
      <rect id="Rectangle_1425" data-name="Rectangle 1425" width="14.509" height="36.927" rx="7.255" transform="translate(216.613 125.804) rotate(-173.074)" fill="#ffc517"/>
      <path id="Path_4084" data-name="Path 4084" d="M2153.957,299.429h-.005l.343-2.822a6.231,6.231,0,0,1-1.757-.617c-2.252-1.187-3.4-3.444-2.554-5.041.791-1.5,3.05-1.883,5.188-.941a14.866,14.866,0,0,1,29.26,5.056l-.966,7.951h-.005c-.008.071-.012.142-.02.213a14.865,14.865,0,1,1-29.513-3.585C2153.934,299.569,2153.948,299.5,2153.957,299.429Z" transform="translate(-1948.026 -203.58)" fill="#ffc517"/>
      <circle id="Ellipse_551" data-name="Ellipse 551" cx="1.735" cy="1.735" r="1.735" transform="translate(229.69 92.411)" fill="#313131"/>
      <circle id="Ellipse_552" data-name="Ellipse 552" cx="1.735" cy="1.735" r="1.735" transform="translate(219.521 91.176)" fill="#313131"/>
      <path id="Path_4085" data-name="Path 4085" d="M2214.28,328.122l.011,6.62v.936l.791-.619-1.724-.122c-.908-.065-1.084,1.344-.171,1.409l1.724.122a.715.715,0,0,0,.79-.619l-.01-6.62v-.936a.732.732,0,0,0-.619-.79.714.714,0,0,0-.79.619Z" transform="translate(-1988.198 -234.947)" fill="#313131"/>
      <path id="Path_4086" data-name="Path 4086" d="M2204.976,358.163h-.037c-.145,0,.215,0,.084,0-.108,0-.217,0-.325-.006a7.717,7.717,0,0,1-1.082-.118q-.162-.029-.322-.067c-.079-.019-.128-.07.01,0a1.03,1.03,0,0,0-.174-.05,4.356,4.356,0,0,1-.617-.24c-.048-.024-.094-.048-.142-.073-.111-.058.134.085-.035-.024a2.611,2.611,0,0,1-.254-.185c-.018-.015-.115-.121-.133-.118.037,0,.112.119.006,0q-.059-.067-.112-.139c-.027-.036-.138-.214-.031-.032a.728.728,0,0,0-.933-.37.717.717,0,0,0-.37.933c.928,1.568,2.978,1.963,4.677,1.89a.712.712,0,0,0,.6-.807.73.73,0,0,0-.807-.6Z" transform="translate(-1980.438 -253.59)" fill="#313131"/>
      <path id="Path_4087" data-name="Path 4087" d="M2193.732,286.591s-7.314,2.8-12.811-2.722c-2.643-2.657-7.808-1.42-8.8,2.271-.5,1.845-2.342,1.973-4.064,1.639a14.87,14.87,0,0,1-3.319-1.129s-1.62-14.637,12.377-13.428C2193.977,274.679,2193.732,286.591,2193.732,286.591Z" transform="translate(-1957.593 -200.225)" fill="#313131"/>
      <path id="Path_2718" data-name="Path 2718" d="M2189.853,389.988q1.345.25,2.7.527a69.832,69.832,0,0,1-2.09,9.184c-1.526-1.748-3.015-3.543-4.708-5.133l4.1-4.68Z" transform="translate(-1971.056 -274.805)" fill="#fff"/>
      <path id="Path_2719" data-name="Path 2719" d="M2150.649,382.893a41.371,41.371,0,0,0,7.02,7.288c-2.442,1.6-5.5,3.774-8.3,6.011-.491-4.374-1.026-8.712-1.582-13.05.906.065,1.8.149,2.7.231C2150.538,383.217,2150.593,383.05,2150.649,382.893Z" transform="translate(-1946.797 -270.337)" fill="#fff"/>
      <path id="Path_2720" data-name="Path 2720" d="M2075.194,430.525c-6.669,16.916-10.858,24.9-16.638,46.114h-.01c-.055-.324-.111-.628-.167-.934-25.942-1.175-41.323-5.485-59.08-12.985a38.068,38.068,0,0,1,.971-7.436c4.2-18.1,8.361-23.52,15.971-43.663-5.382,4.615-10.5,8.833-16.138,13.328-5.188-4.782-10.423-9.655-14.751-15.14a142.54,142.54,0,0,1,25.36-24.268,16.175,16.175,0,0,1,8.814-3.18,183.821,183.821,0,0,1,24.477.259c.555,4.337,1.091,8.673,1.581,13.05,2.8-2.237,5.863-4.411,8.305-6.011.693.573,1.424,1.165,2.211,1.775l1.618-1.859c1.694,1.591,3.18,3.384,4.708,5.132a69.909,69.909,0,0,0,2.09-9.184c3.6.721,7.242,1.563,10.978,2.525a16.26,16.26,0,0,1,10.986,9.627,345.613,345.613,0,0,1,14.612,43.462,155.752,155.752,0,0,0-18.072,7.409c-2.672-5.715-5.124-11.564-7.538-17.9Z" transform="translate(-1843.023 -269.813)" fill="#ff8e9e"/>
      <path id="Path_2721" data-name="Path 2721" d="M2413.241,531.674a1.349,1.349,0,0,1,1.151,1.521,1.269,1.269,0,0,1-.033.162l-4.189,15.121c-4.115,1.446-8.25,2.84-12.365,4.365q.236,3.246.295,6.492h-.665c-2.006,0-4.013-.028-6.031-.139a1.329,1.329,0,0,1-1.137-1.831l.166-.4,10.479-25.378a1.328,1.328,0,0,1,1.286-.823C2405.87,530.944,2409.561,531.231,2413.241,531.674Z" transform="translate(-2101.654 -364.812)" fill="#313131"/>
      <path id="Path_2722" data-name="Path 2722" d="M2423.677,578.1l2.746-.971a90.119,90.119,0,0,1-4.708,15.38c-3.561,1.06-6.955,2-10.215,2.795q.125-2.3.121-4.606c0-.578-.01-1.156-.018-1.735q-.055-3.246-.3-6.492C2415.427,580.937,2419.561,579.542,2423.677,578.1Z" transform="translate(-2115.159 -394.432)" fill="#fec739"/>
      <path id="Path_2723" data-name="Path 2723" d="M2312.278,568.827c.01.578.018,1.156.018,1.735,0,1.535-.037,3.071-.12,4.606v.009c-13.069,3.228-24.028,4.356-35.477,3.384a14.682,14.682,0,0,1-11.606-7.491c-3.44-6.178-6.464-12.046-9.259-18.044a155.792,155.792,0,0,1,18.072-7.408c1.1,4.1,2.183,8.384,3.277,12.93a146.892,146.892,0,0,1,27.431,7.907l-.167.4a1.329,1.329,0,0,0,1.137,1.831c2.016.111,4.024.139,6.029.139Z" transform="translate(-2015.83 -374.302)" fill="#fec739"/>
      <path id="Path_2727" data-name="Path 2727" d="M1937.458,458.882c4.328,5.484,9.562,10.359,14.751,15.14-3.052,2.423-6.264,4.929-9.739,7.613-3.487,33.369-9.082,51.588-20.846,68.068a26.675,26.675,0,0,1-7.1,6.53c-.878.518-1.748,1.036-2.617,1.554a86.379,86.379,0,0,0-1.517-10.849,54.488,54.488,0,0,0,8.185-5.947c1.85-21.642,3.709-39.741,6.289-60.661a21.5,21.5,0,0,1,3.736-9.748C1931.558,466.364,1934.489,462.489,1937.458,458.882Z" transform="translate(-1795.128 -318.886)" fill="#ff8e9e"/>
      <g id="Group_2042" data-name="Group 2042" transform="translate(224.025 115.729)">
        <path id="Path_2729" data-name="Path 2729" d="M2244.831,444.94a.64.64,0,0,1-.617-.471,342.817,342.817,0,0,0-13.785-40.415,15.673,15.673,0,0,0-10.554-9.251c-2.657-.684-5.277-1.308-7.786-1.856a.641.641,0,0,1,.273-1.253h0c2.524.551,5.161,1.179,7.834,1.867a16.96,16.96,0,0,1,11.42,10.008,344.089,344.089,0,0,1,13.834,40.558.64.64,0,0,1-.448.786h0A.622.622,0,0,1,2244.831,444.94Z" transform="translate(-2211.583 -391.679)" fill="#313131"/>
      </g>
      <g id="Group_2043" data-name="Group 2043" transform="translate(200.344 112.156)">
        <path id="Path_2730" data-name="Path 2730" d="M2148.228,396.125a.641.641,0,0,1-.636-.57c-.429-3.833-.917-7.855-1.58-13.039a.867.867,0,0,1,0-.091.64.64,0,1,1,1.28,0c.595,4.615,1.05,8.341,1.446,11.844,2.339-1.821,5-3.73,7.448-5.332a.64.64,0,0,1,.7,1.072h0c-2.737,1.794-5.746,3.971-8.257,5.975A.638.638,0,0,1,2148.228,396.125Z" transform="translate(-2146.007 -381.786)" fill="#313131"/>
      </g>
      <g id="Group_2044" data-name="Group 2044" transform="translate(214.065 115.064)">
        <path id="Path_2731" data-name="Path 2731" d="M2189.345,400.308a.641.641,0,0,1-.482-.22l-.771-.892A56.13,56.13,0,0,0,2184.2,395a.64.64,0,0,1,.877-.933,57.167,57.167,0,0,1,3.98,4.289,70.166,70.166,0,0,0,1.746-7.969.643.643,0,0,1,.633-.55.636.636,0,0,1,.64.632v0a.719.719,0,0,1-.009.117,69.4,69.4,0,0,1-2.111,9.268.639.639,0,0,1-.611.449Z" transform="translate(-2184.002 -389.838)" fill="#313131"/>
      </g>
      <g id="Group_2045" data-name="Group 2045" transform="translate(142.975 111.62)">
        <path id="Path_2732" data-name="Path 2732" d="M1987.778,407.772a.64.64,0,0,1-.49-1.052,143.053,143.053,0,0,1,24.179-22.822,16.749,16.749,0,0,1,9.163-3.309,187.044,187.044,0,0,1,22.2.086.641.641,0,0,1,.6.681.65.65,0,0,1-.681.6,185.382,185.382,0,0,0-22.045-.086,15.466,15.466,0,0,0-8.463,3.055,141.769,141.769,0,0,0-23.969,22.623A.638.638,0,0,1,1987.778,407.772Z" transform="translate(-1987.138 -380.301)" fill="#313131"/>
      </g>
      <path id="Path_2733" data-name="Path 2733" d="M1648.154,228.116l-3.764,2.349c.527,4.892,1.193,9.564,2.024,14.07l2.478-2.525,4.171-4.263.278-12.874Z" transform="translate(-1625.186 -169.38)" fill="#fec739"/>
      <path id="Path_2734" data-name="Path 2734" d="M1652.467,272.324l-2.479,2.525a121.176,121.176,0,0,0,22.53,52.375,8.473,8.473,0,0,0,9.405,2.664c7.362-2.349,14.474-4.385,21.965-6.281a85.941,85.941,0,0,1-3.45-18.923c-5.726,1.786-11.718,3.8-18.377,5.993a2.868,2.868,0,0,1-3.276-1.119l-22.945-32.476h-1.822a1.364,1.364,0,0,1-1.369-1.295Z" transform="translate(-1628.762 -199.696)" fill="#fec739"/>
      <path id="Path_2735" data-name="Path 2735" d="M1837.411,382.115c1.933,3.219,3.82,6.2,5.753,9.058a47.045,47.045,0,0,1,16.175-7.5c-2.747-6.5-5.568-12.855-8.518-18.83-7.335-14.909-17.943-21.1-29.91-23.177-1.322,4.626-2.3,9.22-3.283,13.938a22.36,22.36,0,0,0-1.951-1.508c-2.137-1.424-3.728-2.673-5.864-3.912-.083-.047-.167-.1-.24-.139-1.11.8-2.109,1.5-2.923,2.016-.7-.879-1.406-1.758-2.1-2.636-2.423,1.018-4.736,2.183-7.035,3.384.269-3.024.38-6.058.38-9.083q0-1.289-.028-2.58c-13.6.953-24.582,3.682-36.828,7.51a85.966,85.966,0,0,0,3.45,18.923c6.548-1.656,13.373-3.21,20.892-4.782a56.017,56.017,0,0,0-3.005,9.5c-3.478,15.833,1.406,27.292,2.635,35.884,2.081,14.575-3.82,35.717-40.175,66.7,11.837-2.266,29.744-2.229,48.683-.129,6.752.759,13.632,1.767,20.412,3.034a222.1,222.1,0,0,1,28.5,7.168c3.366-10.451,6.317-23.639,6.317-34.765,0-28.227-12.393-38.372-12.393-58.154A47.687,47.687,0,0,1,1837.411,382.115Z" transform="translate(-1689.36 -243.666)" fill="#019e96"/>
      <path id="Path_2737" data-name="Path 2737" d="M1891.06,339.694q.028,1.29.028,2.581c0,3.024-.111,6.058-.38,9.082,2.3-1.2,24.642-4.011,27.062-5.027,4.686-8.066-18.707-8.267-26.547-6.653C1891.17,339.685,1891.116,339.685,1891.06,339.694Z" transform="translate(-1782.555 -242.216)" fill="#019e96"/>
      <path id="Path_2740" data-name="Path 2740" d="M1924.106,350.9c.074.047.157.1.241.139,2.137,1.239,3.727,2.488,5.864,3.913a22.241,22.241,0,0,1,1.952,1.508c.98-4.717,1.961-9.314,3.283-13.937-.074-.01-.157-.028-.231-.037C1932.105,344.884,1927.574,348.4,1924.106,350.9Z" transform="translate(-1803.893 -244.521)" fill="#019e96"/>
      <path id="Path_2741" data-name="Path 2741" d="M2017.129,466.4a202.533,202.533,0,0,0,12.384,16.416c7.944,20.328,14.095,31.537,25.923,48.092-1.684,1.322-2.581,3.329-3.566,5.679a6.559,6.559,0,0,0,2.891,1.184c1.71,0,2.128-2.054,4.226-2.054,2.951,0,5.651,4.116,10.626,4.116a20.994,20.994,0,0,0,5.031-.777c-2.756-2.7-5.568-8.3-11.135-9.54-10.118-17.571-19.524-45.281-30.2-70.621A47.039,47.039,0,0,0,2017.129,466.4Z" transform="translate(-1863.324 -318.891)" fill="#ff8e9e"/>
      <g id="Group_2048" data-name="Group 2048" transform="translate(119.556 97.355)">
        <path id="Path_2743" data-name="Path 2743" d="M1931,356.016a.641.641,0,0,0,.628-.51c1.019-4.9,1.968-9.337,3.276-13.892a.64.64,0,1,0-1.231-.352h0c-1.222,4.273-2.134,8.422-3.078,12.947-.381-.3-.771-.6-1.185-.873-.733-.489-1.4-.956-2.048-1.41-1.248-.873-2.427-1.7-3.849-2.524-.086-.047-.157-.087-.222-.127a.64.64,0,1,0-.724,1.055c.016.011.032.021.049.031.084.052.177.105.271.156,1.363.791,2.52,1.6,3.744,2.458.655.459,1.332.932,2.073,1.426a21.71,21.71,0,0,1,1.9,1.466A.64.64,0,0,0,1931,356.016Z" transform="translate(-1922.285 -340.797)" fill="#fff"/>
      </g>
      <g id="Group_2049" data-name="Group 2049" transform="translate(107.514 96.838)">
        <path id="Path_2744" data-name="Path 2744" d="M1889.577,352.309a.639.639,0,0,0,.3-.072c2.172-1.133,4.522-2.326,6.99-3.362a.64.64,0,1,0-.5-1.18h0c-2.12.892-4.152,1.891-6.058,2.874.193-2.538.289-5.161.289-7.98q0-1.3-.028-2.594a.623.623,0,0,0-.62-.627h-.035a.641.641,0,0,0-.626.654q.027,1.284.028,2.566c0,3.212-.123,6.167-.376,9.026a.64.64,0,0,0,.581.694l.057,0Z" transform="translate(-1888.938 -339.366)" fill="#fff"/>
      </g>
      <g id="Group_2050" data-name="Group 2050" transform="translate(90.997 107.488)">
        <path id="Path_2745" data-name="Path 2745" d="M1843.835,491.514a.638.638,0,0,0,.446-.181c25.634-24.94,23.768-57.025,22.123-85.334l-.161-2.776c-1.228-21.471,4.259-33.332,4.315-33.449a.64.64,0,1,0-1.156-.548c-.232.491-5.686,12.277-4.433,34.071l.161,2.777c1.63,28.034,3.476,59.809-21.738,84.341a.64.64,0,0,0,.446,1.1Z" transform="translate(-1843.2 -368.859)" fill="#fff"/>
      </g>
      <g id="Group_2051" data-name="Group 2051" transform="translate(22.017 48.983)">
        <path id="Path_2746" data-name="Path 2746" d="M1655.42,235.893h5.826a2.011,2.011,0,0,0,2.009-2.009V208.858a2.011,2.011,0,0,0-2.548-1.94l-7.058,1.952a2,2,0,0,0-1.468,2.041l.131,2.468a.64.64,0,0,0,1.279-.068l-.132-2.47a.719.719,0,0,1,.526-.735l7.061-1.952a.734.734,0,0,1,.642.124.724.724,0,0,1,.289.578v25.027a.729.729,0,0,1-.729.729h-5.826a.727.727,0,0,1-.729-.687l-.1-1.781a.641.641,0,0,0-1.279.069h0l.1,1.779A2.007,2.007,0,0,0,1655.42,235.893Z" transform="translate(-1652.178 -206.846)" fill="#313131"/>
      </g>
      <g id="Group_2066" data-name="Group 2066" transform="translate(43.15 109.353)">
        <path id="Path_2749" data-name="Path 2749" d="M1971.69,596.011" transform="translate(-1877.444 -515.849)" fill="#fff"/>
        <path id="Path_2750" data-name="Path 2750" d="M1969.315,639.032" transform="translate(-1875.927 -543.334)" fill="#fff"/>
        <path id="Path_2751" data-name="Path 2751" d="M1945.987,544.93c-.087-2.12-.206-4.2-.348-6.286,6.134-.369,12.239-.423,16.774-.289q3.855.114,7.686.39a125.031,125.031,0,0,0-7.492-39.377,37.718,37.718,0,0,0-25-23.754q-5.325-1.515-10.586-2.5c-.911,13.484-10.162,24-26.641,23.526-12.9-.358-20.877-9.956-25.2-21.094-14.1,3.864-28.173,10.215-42.45,18.64v.01a75.083,75.083,0,0,0,10.249,24.971c7.491-3.192,14.972-6.666,23.538-10.857,2.681,22.9,1.227,39.322-4.669,57.17a194.615,194.615,0,0,0,27.012,14.982,68.34,68.34,0,0,0,29.313,6.113c3.29-.043,6.894-.066,10.857-.066,3.311,0,6.634.033,9.945.1,1.119-4.875,1.965-9.847,2.715-14.841" transform="translate(-1788.664 -437.332)" fill="#fff"/>
        <path id="Path_2752" data-name="Path 2752" d="M1950.283,459.945c4.321,11.139,12.3,20.737,25.2,21.095,16.479.482,25.729-10.042,26.641-23.526-2.486-.466-4.972-.847-7.437-1.151v.011l-.1-.022c.033,0,.065.011.1.011-.587-2.464-1.042-5.108-1.4-7.665a20.4,20.4,0,0,1-1.618,3.127c-3.192,5.1-8.512,8.892-13.994,9a14.092,14.092,0,0,1-10.195-4.342A123.088,123.088,0,0,0,1950.283,459.945Z" transform="translate(-1863.767 -421.731)" fill="#fec739"/>
        <path id="Path_2753" data-name="Path 2753" d="M1981.908,419.289a19.728,19.728,0,0,0,5.776,14.2,14.09,14.09,0,0,0,10.194,4.343c5.483-.109,10.8-3.9,13.994-9-.391-7.828-1.6-11.627-3.42-16.122a61.084,61.084,0,0,1-14.972,1.487,53.119,53.119,0,0,1-10.552-1.368,24.027,24.027,0,0,0-1.021,6.457Z" transform="translate(-1883.971 -398.74)" fill="#fec739"/>
        <path id="Path_2754" data-name="Path 2754" d="M2015.3,400.988c.087-.217.173-.445.26-.662a22.273,22.273,0,0,0,1.476-7.09c.25-9.108-3.751-19.025-15.166-19.205-9.491-.22-14.1,4-17.132,14.081a53.121,53.121,0,0,0,10.552,1.367,61.08,61.08,0,0,0,14.972-1.487c1.824,4.495,3.029,8.294,3.42,16.122A20.371,20.371,0,0,0,2015.3,400.988Z" transform="translate(-1885.78 -374.023)" fill="#313131"/>
        <path id="Path_2755" data-name="Path 2755" d="M1712.551,587.765c-2.681,15.97-2.313,30.355.239,48.344.63,4.433,1.39,9.076,2.27,14.026,1.074-6.264,3.028-12.474,6.818-12.366a49.213,49.213,0,0,1,7.567,1.4c-1.173-4.788-3.779-9.043-6.645-12.995,1.412-3.876,2.682-7.415,3.8-10.727v-.01c5.461-16.068,7.773-26.839,9.174-44.262a6.44,6.44,0,0,1,4.169-5.6c.412-.152.825-.289,1.237-.445,8.686-3.1,16.231-6.047,23.765-9.261A75.092,75.092,0,0,1,1754.7,530.9a318.93,318.93,0,0,0-31.2,21.235,6.981,6.981,0,0,0-2.344,3.29A206.505,206.505,0,0,0,1712.551,587.765Z" transform="translate(-1710.702 -474.247)" fill="#fec739"/>
        <path id="Path_2756" data-name="Path 2756" d="M1987.818,609.554l1.478-18.568s.182-4.924-2.987-5.569a68.245,68.245,0,0,0-13-1.194c-2.024,1.046-3.47,2.093-3.83,5.217s-.925,10.281-.987,15.438a17.242,17.242,0,0,0,14.028,9.04C1984.777,613.191,1987.818,609.554,1987.818,609.554Z" transform="translate(-1875.398 -508.317)" fill="#ff8e9e"/>
        <path id="Path_2757" data-name="Path 2757" d="M1965.91,636.329c-.641-.412-1.253-.814-1.813-1.2,1.06,7.643,3.083,16.122,9.586,19.769,20.128,11.323,35.762,17.337,51.862,20.161a145.962,145.962,0,0,0,21.42,2.041,5.315,5.315,0,0,0,5.288-4.766,194.232,194.232,0,0,0,1.7-30.3q-3.827-.277-7.686-.391c-4.538-.13-10.639-.076-16.774.289.141,2.085.26,4.169.347,6.286a3.03,3.03,0,0,1-3.333,3.213,166.847,166.847,0,0,0-33.123-1.01,44.24,44.24,0,0,0-8.24-10.564c-.239-.239-.489-.482-.738-.716,0,.25,0,.5-.011.75-.087,3.018-.391,4.668-3.18,4.592C1978.655,644.427,1971.239,639.835,1965.91,636.329Z" transform="translate(-1872.592 -540.844)" fill="#fec739"/>
        <g id="Group_2055" data-name="Group 2055" transform="translate(92.683 75.077)">
          <path id="Path_2758" data-name="Path 2758" d="M1987.4,604.559a.751.751,0,0,0,.748-.69l1.22-14.859a5.525,5.525,0,0,0-4.818-6.071c-3.355-.358-6.849-.685-10.681-1a5.513,5.513,0,0,0-5.766,4.75,3.761,3.761,0,0,0-.061.53c-.178,2.93-.326,5.846-.474,8.77l-.207,4.017a.752.752,0,1,0,1.5.128c0-.016,0-.032,0-.049l.206-4.021c.148-2.922.3-5.832.472-8.754a2.514,2.514,0,0,1,.04-.355,4.014,4.014,0,0,1,4.166-3.522c3.819.314,7.3.641,10.642,1a4.08,4.08,0,0,1,3.478,4.457l-1.22,14.859a.752.752,0,0,0,.687.811Z" transform="translate(-1967.362 -581.929)" fill="#313131"/>
        </g>
        <g id="Group_2056" data-name="Group 2056" transform="translate(93.397 78.966)">
          <path id="Path_2759" data-name="Path 2759" d="M1989.757,598.165a.75.75,0,0,0,.623-1.17c-2.612-3.9-8.805-4.012-11.781-4.067l-.536-.01c-.886-.033-1.769-.054-2.661-.076-1.185-.032-2.372-.075-3.549-.141h-.106a5.357,5.357,0,0,0-1.867.267.752.752,0,0,0,.424,1.442l.051-.017a3.839,3.839,0,0,1,1.364-.193c1.242.064,2.442.109,3.643.142.889.021,1.766.042,2.653.076l.556.011c2.721.05,8.384.156,10.562,3.4A.751.751,0,0,0,1989.757,598.165Z" transform="translate(-1969.34 -592.698)" fill="#313131"/>
        </g>
        <g id="Group_2057" data-name="Group 2057" transform="translate(106.104 33.994)">
          <path id="Path_2760" data-name="Path 2760" d="M2012.042,474.013h.3a16.669,16.669,0,0,0,10.567-4.54.752.752,0,1,0-1-1.122,15.181,15.181,0,0,1-9.6,4.159,12.357,12.357,0,0,1-6.633-1.789.752.752,0,1,0-.806,1.269l.042.025A13.88,13.88,0,0,0,2012.042,474.013Z" transform="translate(-2004.526 -468.16)" fill="#313131"/>
        </g>
        <g id="Group_2058" data-name="Group 2058" transform="translate(56.633 70.226)">
          <path id="Path_2761" data-name="Path 2761" d="M1884.791,624.963a.751.751,0,0,0,.717-.528c5.4-17.336,6.553-33.35,3.99-55.275a.753.753,0,0,0-1.077-.588c-7.734,3.784-14.222,6.806-20.417,9.51a.752.752,0,0,0,.559,1.4l.042-.018c5.958-2.6,12.184-5.493,19.521-9.07,2.382,21.161,1.195,36.757-4.053,53.6a.752.752,0,0,0,.492.941.762.762,0,0,0,.225.034Z" transform="translate(-1867.531 -568.496)" fill="#313131"/>
        </g>
        <g id="Group_2059" data-name="Group 2059" transform="translate(45.671 38.701)">
          <path id="Path_2762" data-name="Path 2762" d="M1837.928,498.725a.756.756,0,0,0,.374-.1,175.409,175.409,0,0,1,35.712-15.968.752.752,0,0,0-.444-1.436,176.913,176.913,0,0,0-36.017,16.1.752.752,0,0,0,.376,1.4Z" transform="translate(-1837.176 -481.195)" fill="#313131"/>
        </g>
        <g id="Group_2060" data-name="Group 2060" transform="translate(152.725 71.599)">
          <path id="Path_2763" data-name="Path 2763" d="M2137.693,600.2h.06a.752.752,0,0,0,.69-.809c-.6-7.656-1.626-15.812-3.315-26.442a.752.752,0,0,0-1.491.2c0,.013,0,.027.007.04,1.683,10.591,2.7,18.71,3.3,26.326A.752.752,0,0,0,2137.693,600.2Z" transform="translate(-2133.631 -572.297)" fill="#313131"/>
        </g>
        <g id="Group_2061" data-name="Group 2061" transform="translate(141.201 35.755)">
          <path id="Path_2764" data-name="Path 2764" d="M2141.83,536.485a.76.76,0,0,0,.752-.767c0-.008,0-.016,0-.023a124.846,124.846,0,0,0-7.411-36.639,38.527,38.527,0,0,0-25.5-24.224c-2.353-.669-4.714-1.265-7.014-1.773a.752.752,0,0,0-.358,1.46l.034.008c2.272.5,4.6,1.09,6.927,1.751a37.019,37.019,0,0,1,24.5,23.285,123.369,123.369,0,0,1,7.324,36.21A.752.752,0,0,0,2141.83,536.485Z" transform="translate(-2101.72 -473.038)" fill="#313131"/>
        </g>
        <g id="Group_2062" data-name="Group 2062" transform="translate(112.387 19.636)">
          <path id="Path_2765" data-name="Path 2765" d="M2021.927,432.585a4.529,4.529,0,0,1,4.494-4.184,8.427,8.427,0,0,1,1.289.11c2.49.386,3.605,2.685,3.605,4.8a4.386,4.386,0,0,1-4.024,4.5A5.3,5.3,0,0,1,2021.927,432.585Zm1.5,0a3.8,3.8,0,0,0,3.864,3.716,2.891,2.891,0,0,0,2.52-2.992c0-1.47-.721-3.064-2.331-3.312a6.9,6.9,0,0,0-1.06-.1A3.019,3.019,0,0,0,2023.429,432.585Z" transform="translate(-2021.927 -428.401)" fill="#fff"/>
        </g>
        <g id="Group_2063" data-name="Group 2063" transform="translate(97.403 19.086)">
          <path id="Path_2766" data-name="Path 2766" d="M1980.433,430.878a4.023,4.023,0,0,1,1.9-3.284,3.517,3.517,0,0,1,2.024-.7c.113-.01.226-.013.336-.013a4.92,4.92,0,0,1,4.625,5.172c0,1.863-1.339,3.742-4.331,3.742C1982.723,435.792,1980.433,434.273,1980.433,430.878Zm4.047-2.488a2.1,2.1,0,0,0-1.211.377c-1.234.987-1.337,1.585-1.337,2.11,0,2.515,1.58,3.412,3.058,3.412,2.084,0,2.828-1.157,2.828-2.239a3.469,3.469,0,0,0-3.127-3.669c-.067,0-.137,0-.207.009Z" transform="translate(-1980.433 -426.878)" fill="#fff"/>
        </g>
        <g id="Group_2064" data-name="Group 2064" transform="translate(104.042 20.016)">
          <path id="Path_2767" data-name="Path 2767" d="M2007.639,432.848a.751.751,0,0,0,.595-1.209,6.159,6.159,0,0,0-4.986-2.179,8.014,8.014,0,0,0-4.095,1.1.752.752,0,0,0,.787,1.279,6.473,6.473,0,0,1,3.306-.875,4.685,4.685,0,0,1,3.8,1.593A.75.75,0,0,0,2007.639,432.848Z" transform="translate(-1998.817 -429.453)" fill="#fff"/>
        </g>
        <g id="Group_2065" data-name="Group 2065" transform="translate(119.844 14.339)">
          <path id="Path_2768" data-name="Path 2768" d="M2043.328,421.365a.748.748,0,0,0,.531-.221c1.119-1.118,2.014-2.061,2.762-2.848,2.257-2.376,2.958-3.062,4.1-3.062a3.418,3.418,0,0,1,2.466,1.2.751.751,0,0,0,1.131-.989h0a4.888,4.888,0,0,0-3.6-1.711c-1.841,0-2.891,1.105-5.194,3.529-.74.779-1.628,1.712-2.735,2.821a.752.752,0,0,0,.531,1.283Z" transform="translate(-2042.576 -413.732)" fill="#fff"/>
        </g>
      </g>
      <g id="Group_2070" data-name="Group 2070" transform="translate(0 168.488)">
        <path id="Path_2770" data-name="Path 2770" d="M1607.481,544.227a10.038,10.038,0,0,1-6.031-2.252,6.984,6.984,0,0,0-4.025-1.669,6.033,6.033,0,0,0-4.68,2.7.854.854,0,0,1-1.39-.992,7.757,7.757,0,0,1,6.071-3.41,8.521,8.521,0,0,1,4.988,1.966,8.4,8.4,0,0,0,5.068,1.954,6.656,6.656,0,0,0,5.272-2.383c1.2-1.156,2.449-2.356,4.84-2.356,1.876,0,3.479,1.13,5.028,2.222,1.617,1.141,3.29,2.319,5.324,2.319,1.344,0,2.643-.9,4.018-1.862a11.4,11.4,0,0,1,4.373-2.195.854.854,0,1,1,.348,1.672l-.05.009a10.018,10.018,0,0,0-3.7,1.915c-1.531,1.066-3.113,2.168-4.993,2.168-2.575,0-4.558-1.4-6.307-2.631-1.454-1.026-2.71-1.91-4.047-1.91-1.7,0-2.565.83-3.657,1.879A8.354,8.354,0,0,1,1607.481,544.227Z" transform="translate(-1591.208 -537.783)" fill="#019e96"/>
      </g>
      <g id="Group_2071" data-name="Group 2071" transform="translate(270.417 113.047)">
        <path id="Path_2771" data-name="Path 2771" d="M2353.618,409.888a.853.853,0,0,1-.571-.219l-3.337-3c-3.1-2.779-6.3-5.653-9.383-8.506a.853.853,0,0,1-.048-1.205.8.8,0,0,1,.066-.064q3.053-2.669,6.071-5.339c2.681-2.365,5.361-4.731,8.084-7.1a.855.855,0,0,1,1.178.055q3.495,3.668,6.946,7.378,2.549,2.727,5.108,5.442a.854.854,0,0,1-.031,1.207c-.017.016-.034.031-.052.045-4.433,3.578-9.009,7.279-13.474,11.1A.854.854,0,0,1,2353.618,409.888Zm-11.434-12.335c2.857,2.632,5.807,5.279,8.667,7.846l2.783,2.5c4.061-3.455,8.2-6.807,12.224-10.061q-2.246-2.383-4.481-4.778-3.181-3.4-6.372-6.776c-2.505,2.184-4.983,4.367-7.458,6.553q-2.675,2.363-5.361,4.722Z" transform="translate(-2340.053 -384.252)" fill="#019e96"/>
      </g>
      <g id="Group_2072" data-name="Group 2072" transform="translate(207.567 0)">
        <path id="Path_2772" data-name="Path 2772" d="M2072.995,154.627a5.954,5.954,0,0,0-1.893-.312c-3.732,0-6.8,3.586-6.8,6.967a5.963,5.963,0,0,0,5.995,5.93c.082,0,.163,0,.245-.007a7.2,7.2,0,0,0,7.449-6.737,8.23,8.23,0,0,0-2.105-4.4A6.206,6.206,0,0,0,2072.995,154.627Z" transform="translate(-2064.304 -154.315)" fill="#019e96"/>
      </g>
      <g id="Group_2073" data-name="Group 2073" transform="translate(89.166 0)">
        <path id="Path_2773" data-name="Path 2773" d="M1788.712,205.611a.853.853,0,0,1-.732-.414c-2.065-3.443-4.529-6.957-6.9-10.354-.827-1.182-1.654-2.363-2.467-3.543a.853.853,0,0,1,1.359-1.031c.016.021.032.044.046.067.81,1.178,1.638,2.354,2.46,3.533,2.4,3.422,4.873,6.961,6.97,10.455a.854.854,0,0,1-.732,1.293Z" transform="translate(-1778.434 -189.932)" fill="#fec739"/>
      </g>
      <rect id="Rectangle_1426" data-name="Rectangle 1426" width="13.238" height="33.693" rx="6.619" transform="matrix(0.997, 0.072, -0.072, 0.997, 114.32, 72.632)" fill="#fec739"/>
      <circle id="Ellipse_553" data-name="Ellipse 553" cx="13.563" cy="13.563" r="13.563" transform="translate(100.141 59.454)" fill="#fec739"/>
      <circle id="Ellipse_554" data-name="Ellipse 554" cx="13.563" cy="13.563" r="13.563" transform="translate(99.597 66.936)" fill="#fec739"/>
      <rect id="Rectangle_1427" data-name="Rectangle 1427" width="7.307" height="27.126" transform="matrix(0.072, -0.997, 0.997, 0.072, 99.647, 79.323)" fill="#fec739"/>
      <circle id="Ellipse_555" data-name="Ellipse 555" cx="1.583" cy="1.583" r="1.583" transform="translate(102.584 73.71)" fill="#313131"/>
      <circle id="Ellipse_556" data-name="Ellipse 556" cx="1.583" cy="1.583" r="1.583" transform="translate(111.906 74.386)" fill="#313131"/>
      <circle id="Ellipse_557" data-name="Ellipse 557" cx="1.583" cy="1.583" r="1.583" transform="translate(157.342 131.884)" fill="#313131"/>
      <circle id="Ellipse_558" data-name="Ellipse 558" cx="1.583" cy="1.583" r="1.583" transform="translate(144.777 131.914)" fill="#313131"/>
      <path id="Path_4088" data-name="Path 4088" d="M1888.726,278.661l-1.17,5.926-.166.838-.6-.693,1.566.193c.824.1.735,1.394-.094,1.292l-1.565-.193c-.315-.039-.67-.335-.6-.693l1.17-5.926.165-.838a.668.668,0,0,1,.693-.6.652.652,0,0,1,.6.693Z" transform="translate(-1779.605 -203.301)" fill="#313131"/>
      <path id="Path_4089" data-name="Path 4089" d="M2010.772,430.066l-1.17,5.926-.165.838-.6-.693,1.564.193c.825.1.736,1.393-.093,1.292l-1.565-.193c-.315-.039-.669-.335-.6-.693l1.169-5.926.166-.838a.668.668,0,0,1,.693-.6.651.651,0,0,1,.6.693Z" transform="translate(-1857.578 -300.031)" fill="#313131"/>
      <path id="Path_4090" data-name="Path 4090" d="M1890.156,307.721l.033.008c.129.03-.192-.037-.075-.016.1.018.195.036.293.051a7.033,7.033,0,0,0,.989.084c.1,0,.2,0,.3,0,.073,0,.126-.04-.01,0a.961.961,0,0,1,.165-.014,3.916,3.916,0,0,0,.594-.107c.047-.012.093-.027.14-.04.11-.032-.135.053.036-.015a2.39,2.39,0,0,0,.26-.121c.019-.01.124-.088.14-.083-.032-.011-.12.087-.005,0,.043-.033.085-.068.125-.1s.161-.168.033-.024a.666.666,0,0,1,.9-.168.654.654,0,0,1,.168.9c-1.106,1.241-3.011,1.235-4.519.873a.65.65,0,0,1-.393-.827.667.667,0,0,1,.827-.394Z" transform="translate(-1781.65 -221.885)" fill="#313131"/>
      <path id="Path_4091" data-name="Path 4091" d="M2010.974,458.022l.033.008c.129.029-.192-.037-.076-.016.1.018.194.037.292.051a7.042,7.042,0,0,0,.99.084c.1,0,.2,0,.3,0,.073,0,.126-.04-.01,0a.962.962,0,0,1,.165-.014,3.9,3.9,0,0,0,.594-.107c.047-.012.093-.027.139-.04.11-.032-.135.053.036-.015a2.364,2.364,0,0,0,.259-.121c.02-.011.124-.088.141-.083-.032-.01-.121.087,0,0,.043-.033.085-.068.125-.1s.162-.168.033-.024a.665.665,0,0,1,.9-.168.654.654,0,0,1,.168.9c-1.106,1.241-3.011,1.235-4.519.872a.65.65,0,0,1-.394-.827.667.667,0,0,1,.828-.394Z" transform="translate(-1858.839 -317.91)" fill="#313131"/>
      <ellipse id="Ellipse_559" data-name="Ellipse 559" cx="4.206" cy="2.982" rx="4.206" ry="2.982" transform="matrix(0.958, -0.288, 0.288, 0.958, 122.827, 73.953)" fill="#fec739"/>
      <path id="Path_4092" data-name="Path 4092" d="M1909.522,244.537s-12.8,4.2-20.8-11.516c1.223-4.545,5.841-3.971,5.841-3.971S1914.336,231.464,1909.522,244.537Z" transform="translate(-1781.289 -172.034)" fill="#313131"/>
      <path id="Path_4093" data-name="Path 4093" d="M1877.29,239.572s-7.346,1.18-8.339,7.553c.625-8.6,2.016-9.236,2.016-9.236l6.381-1.5" transform="translate(-1768.655 -176.741)" fill="#313131"/>
    </g>
  </g>
</svg>
