<svg xmlns="http://www.w3.org/2000/svg" xmlns:xlink="http://www.w3.org/1999/xlink" width="285.535" height="248.309" viewBox="0 0 285.535 248.309">
  <defs>
    <clipPath id="clip-path">
      <rect id="Rectangle_1404" data-name="Rectangle 1404" width="183.983" height="156.727" rx="10.993" fill="none"/>
    </clipPath>
  </defs>
  <g id="Group_3398" data-name="Group 3398" transform="translate(4891.384 19058.395)">
    <rect id="Rectangle_1328" data-name="Rectangle 1328" width="183.983" height="156.727" rx="10.993" transform="translate(-4835 -19001.672)" fill="#ff8e9e"/>
    <g id="Group_2455" data-name="Group 2455" transform="translate(-4835 -19001.672)">
      <g id="Group_2736" data-name="Group 2736" transform="translate(0 0)">
        <g id="Group_2735" data-name="Group 2735" clip-path="url(#clip-path)">
          <g id="Group_2454" data-name="Group 2454" transform="translate(-11.263 -13.628)">
            <rect id="Rectangle_1329" data-name="Rectangle 1329" width="201.019" height="45.144" fill="#fff"/>
          </g>
        </g>
      </g>
    </g>
    <ellipse id="Ellipse_375" data-name="Ellipse 375" cx="4.777" cy="4.777" rx="4.777" ry="4.777" transform="translate(-4825.008 -18988.93)" fill="#313131"/>
    <ellipse id="Ellipse_376" data-name="Ellipse 376" cx="4.777" cy="4.777" rx="4.777" ry="4.777" transform="translate(-4811.575 -18988.93)" fill="#313131"/>
    <ellipse id="Ellipse_377" data-name="Ellipse 377" cx="4.777" cy="4.777" rx="4.777" ry="4.777" transform="translate(-4799.632 -18988.93)" fill="#313131"/>
    <g id="Group_2465" data-name="Group 2465" transform="translate(-4819.532 -18949.031)">
      <rect id="Rectangle_1332" data-name="Rectangle 1332" width="121.931" height="58.764" rx="5.734" transform="matrix(0.993, -0.116, 0.116, 0.993, 0, 14.111)" fill="#fec739"/>
      <rect id="Rectangle_1333" data-name="Rectangle 1333" width="1.395" height="36.89" transform="translate(78.947 15.84) rotate(-6.891)" fill="#fff"/>
      <path id="Path_3666" data-name="Path 3666" d="M-1897.506,1323.924a5.858,5.858,0,0,1-3.864-1.455l-3.878-3.412.922-1.047,3.878,3.411a4.481,4.481,0,0,0,3.522,1.071,4.46,4.46,0,0,0,3.128-1.944,5.873,5.873,0,0,1,3.927-2.525,5.874,5.874,0,0,1,4.526,1.151l1.494,1.157a4.454,4.454,0,0,0,6.131-.637l1.844-2.171a5.821,5.821,0,0,1,8.146-.757l2.271,1.837a4.439,4.439,0,0,0,3.306.965,4.414,4.414,0,0,0,3.006-1.674l5.4-6.871,1.1.862-5.4,6.871a5.817,5.817,0,0,1-3.949,2.2,5.834,5.834,0,0,1-4.34-1.268l-2.271-1.837a4.486,4.486,0,0,0-6.2.578l-1.843,2.17a5.851,5.851,0,0,1-8.05.835l-1.494-1.157a4.414,4.414,0,0,0-3.447-.873,4.412,4.412,0,0,0-2.992,1.923,5.858,5.858,0,0,1-4.109,2.551A5.859,5.859,0,0,1-1897.506,1323.924Z" transform="translate(1918.735 -1291.764)" fill="#fff"/>
      <path id="Path_3667" data-name="Path 3667" d="M-1895.714,1334a5.862,5.862,0,0,1-3.866-1.456l-3.878-3.411.922-1.05,3.878,3.411a4.466,4.466,0,0,0,3.523,1.072,4.465,4.465,0,0,0,3.128-1.944,5.875,5.875,0,0,1,3.927-2.525,5.89,5.89,0,0,1,4.529,1.151l1.494,1.157a4.447,4.447,0,0,0,6.127-.636l1.847-2.17a5.824,5.824,0,0,1,8.145-.763l2.272,1.837a4.442,4.442,0,0,0,3.3.966,4.425,4.425,0,0,0,3.006-1.675l5.4-6.871,1.1.863-5.4,6.871a5.821,5.821,0,0,1-3.948,2.2,5.827,5.827,0,0,1-4.34-1.269l-2.271-1.838a4.433,4.433,0,0,0-6.2.578l-1.844,2.17a5.847,5.847,0,0,1-8.047.837l-1.5-1.159a4.417,4.417,0,0,0-3.448-.873,4.415,4.415,0,0,0-2.989,1.922,5.866,5.866,0,0,1-4.11,2.554A6.088,6.088,0,0,1-1895.714,1334Z" transform="translate(1918.898 -1290.852)" fill="#fff"/>
      <path id="Path_3668" data-name="Path 3668" d="M-1893.924,1344.465a5.854,5.854,0,0,1-3.865-1.458l-3.878-3.407.922-1.05,3.88,3.411a4.455,4.455,0,0,0,3.522,1.072,4.458,4.458,0,0,0,3.127-1.944,5.875,5.875,0,0,1,3.927-2.525,5.869,5.869,0,0,1,4.528,1.151l1.494,1.157a4.449,4.449,0,0,0,6.13-.637l1.844-2.171a5.825,5.825,0,0,1,8.145-.763l2.271,1.838a4.433,4.433,0,0,0,3.3.965,4.422,4.422,0,0,0,3.008-1.674l5.4-6.871,1.1.862-5.4,6.871a5.817,5.817,0,0,1-3.949,2.2,5.824,5.824,0,0,1-4.34-1.269l-2.271-1.837a4.432,4.432,0,0,0-6.2.578l-1.844,2.171a5.849,5.849,0,0,1-8.049.835l-1.494-1.157a4.408,4.408,0,0,0-3.448-.872,4.408,4.408,0,0,0-2.991,1.923,5.852,5.852,0,0,1-4.107,2.551A5.9,5.9,0,0,1-1893.924,1344.465Z" transform="translate(1919.06 -1289.902)" fill="#fff"/>
      <ellipse id="Ellipse_379" data-name="Ellipse 379" cx="3.869" cy="3.869" rx="3.869" ry="3.869" transform="translate(110.379 44.112)" fill="#fff"/>
    </g>
    <g id="Group_2465-2" data-name="Group 2465" transform="translate(-4814.766 -18921.395) rotate(-17)">
      <rect id="Rectangle_1332-2" data-name="Rectangle 1332" width="121.931" height="58.764" rx="5.734" transform="matrix(0.993, -0.116, 0.116, 0.993, 0, 14.112)" fill="#019e96"/>
      <rect id="Rectangle_1333-2" data-name="Rectangle 1333" width="1.395" height="36.89" transform="translate(78.947 15.84) rotate(-6.891)" fill="#fff"/>
      <path id="Path_3666-2" data-name="Path 3666" d="M7.743,12.9a5.858,5.858,0,0,1-3.865-1.455L0,8.034.922,6.987,4.8,10.4a4.459,4.459,0,0,0,6.65-.873A5.854,5.854,0,0,1,19.9,8.151L21.4,9.308a4.454,4.454,0,0,0,6.131-.637L29.372,6.5a5.821,5.821,0,0,1,8.146-.757l2.271,1.837A4.461,4.461,0,0,0,46.1,6.872L51.5,0l1.1.862L47.2,7.733a5.855,5.855,0,0,1-8.289.932L36.64,6.829a4.486,4.486,0,0,0-6.2.578L28.593,9.578a5.851,5.851,0,0,1-8.05.835L19.048,9.256a4.464,4.464,0,0,0-6.438,1.05A5.771,5.771,0,0,1,7.743,12.9Z" transform="translate(13.486 19.259)" fill="#fff"/>
      <path id="Path_3667-2" data-name="Path 3667" d="M7.745,12.908a5.861,5.861,0,0,1-3.866-1.456L0,8.042l.922-1.05L4.8,10.4a4.459,4.459,0,0,0,6.651-.872,5.856,5.856,0,0,1,8.455-1.374L21.4,9.313a4.447,4.447,0,0,0,6.127-.636l1.847-2.171a5.824,5.824,0,0,1,8.145-.763L39.792,7.58A4.457,4.457,0,0,0,46.1,6.871L51.5,0l1.1.863L47.2,7.734a5.854,5.854,0,0,1-8.288.933L36.643,6.829a4.433,4.433,0,0,0-6.2.578L28.595,9.578a5.847,5.847,0,0,1-8.047.837l-1.5-1.159A4.462,4.462,0,0,0,12.615,10.3a5.866,5.866,0,0,1-4.11,2.554A6.112,6.112,0,0,1,7.745,12.908Z" transform="translate(15.439 30.236)" fill="#fff"/>
      <path id="Path_3668-2" data-name="Path 3668" d="M7.744,12.907a5.854,5.854,0,0,1-3.865-1.458L0,8.042l.922-1.05L4.8,10.4a4.457,4.457,0,0,0,6.649-.871A5.855,5.855,0,0,1,19.9,8.156L21.4,9.314a4.449,4.449,0,0,0,6.13-.637l1.844-2.171a5.825,5.825,0,0,1,8.145-.763L39.789,7.58A4.462,4.462,0,0,0,46.1,6.871L51.5,0l1.1.862L47.2,7.733a5.855,5.855,0,0,1-8.289.933L36.64,6.829a4.432,4.432,0,0,0-6.2.578l-1.844,2.17a5.849,5.849,0,0,1-8.049.835L19.049,9.256a4.464,4.464,0,0,0-6.438,1.05,5.865,5.865,0,0,1-4.867,2.6Z" transform="translate(17.392 41.656)" fill="#fff"/>
      <ellipse id="Ellipse_379-2" data-name="Ellipse 379" cx="3.869" cy="3.869" rx="3.869" ry="3.869" transform="translate(110.379 44.112)" fill="#fff"/>
    </g>
    <g id="Group_3397" data-name="Group 3397" transform="translate(-6877 -13401.086)">
      <g id="Group_2083" data-name="Group 2083" transform="translate(2212.569 -5415.544) rotate(-39)">
        <path id="Path_2789" data-name="Path 2789" d="M21.275,8.421c-3.569,0-5.858-1.563-7.879-2.941C11.682,4.309,10.2,3.3,8.136,3.3A7.885,7.885,0,0,0,2.022,6.82a1.115,1.115,0,1,1-1.814-1.3A10.132,10.132,0,0,1,8.136,1.069c2.753,0,4.668,1.306,6.518,2.569,1.924,1.314,3.741,2.554,6.621,2.554,3.651,0,5.222-1.513,6.888-3.114C29.735,1.565,31.363,0,34.486,0c2.452,0,4.547,1.476,6.571,2.9,2.114,1.49,4.3,3.03,6.956,3.03,1.758,0,3.453-1.182,5.25-2.432C55.366,2.035,57.542.52,60.244.52c1.539,0,3.293,1.226,5.719,2.92.659.46,1.36.95,2.1,1.444A1.115,1.115,0,1,1,66.827,6.74c-.754-.5-1.469-1-2.14-1.471C62.914,4.03,61.081,2.75,60.244,2.75c-2,0-3.8,1.254-5.707,2.581-2,1.393-4.067,2.833-6.524,2.833-3.364,0-5.954-1.827-8.24-3.438-1.9-1.339-3.54-2.5-5.286-2.5-2.226,0-3.352,1.084-4.777,2.455C27.979,6.35,25.825,8.421,21.275,8.421Z" transform="translate(0 0)" fill="#ff8e9e"/>
      </g>
      <g id="Group_2084" data-name="Group 2084" transform="translate(1985.616 -5574.747)">
        <path id="Path_2790" data-name="Path 2790" d="M2128.317,1918.528a1.115,1.115,0,0,1-.747-.286l-4.359-3.918c-4.046-3.631-8.23-7.387-12.258-11.114a1.115,1.115,0,0,1,.023-1.658c2.659-2.325,5.294-4.65,7.929-6.975,3.5-3.09,7-6.181,10.563-9.271a1.116,1.116,0,0,1,1.539.073q4.567,4.791,9.075,9.64,3.331,3.561,6.673,7.111a1.114,1.114,0,0,1-.11,1.633c-5.786,4.675-11.769,9.51-17.6,14.5A1.116,1.116,0,0,1,2128.317,1918.528Zm-14.939-16.114c3.734,3.439,7.587,6.9,11.323,10.25l3.636,3.266c5.3-4.514,10.712-8.894,15.971-13.145q-2.936-3.113-5.855-6.243-4.151-4.438-8.326-8.853c-3.279,2.853-6.512,5.707-9.745,8.56Q2116.888,1899.332,2113.378,1902.414Z" transform="translate(-2110.596 -1885.033)" fill="#019e96"/>
      </g>
      <g id="Group_2085" data-name="Group 2085" transform="translate(2159.979 -5621.013)">
        <path id="Path_2791" data-name="Path 2791" d="M2594.18,1760.636c-5.591,0-11.579-6.358-11.579-10.831,0-.373-.027-.749-.053-1.125-.029-.427-.058-.854-.058-1.279,0-5.526,6.113-11.949,13.993-11.949a12.732,12.732,0,0,1,4.356.748,11.008,11.008,0,0,1,6.622,5.99,12.306,12.306,0,0,1,1.287,5.223c0,5.762-5.311,13.073-11.279,13.073-.591,0-1.143.039-1.677.076C2595.243,1760.6,2594.711,1760.636,2594.18,1760.636Zm2.3-22.953c-6.516,0-11.763,5.317-11.763,9.718,0,.373.028.749.054,1.125.029.427.058.854.058,1.279,0,3.318,5.105,8.6,9.349,8.6.48,0,.961-.034,1.457-.069.584-.041,1.187-.081,1.832-.081,4.575,0,9.049-6.208,9.049-10.842a10.011,10.011,0,0,0-1.106-4.344,8.835,8.835,0,0,0-5.335-4.773A10.5,10.5,0,0,0,2596.483,1737.683Z" transform="translate(-2582.49 -1735.453)" fill="#ff8e9e"/>
      </g>
      <g id="Group_2086" data-name="Group 2086" transform="translate(2247.398 -5580.427)">
        <path id="Path_2792" data-name="Path 2792" d="M2065.6,1740.377a9.023,9.023,0,0,0-4.979,8.122,7.116,7.116,0,0,0,7.352,7.282c5.68,0,9.194-4.988,9.194-9.481,0-4.8-5.066-6.915-7.6-6.915A8.775,8.775,0,0,0,2065.6,1740.377Z" transform="translate(-2060.625 -1739.385)" fill="#ff8e9e"/>
      </g>
      <g id="Group_2087" data-name="Group 2087" transform="translate(2082.167 -5657.308)">
        <path id="Path_2793" data-name="Path 2793" d="M2371.168,1761.547a1.115,1.115,0,0,1-.716-1.972c3.289-2.74,6.62-5.239,9.843-7.656,1.487-1.114,2.974-2.229,4.46-3.37a1.115,1.115,0,1,1,1.356,1.77c-1.493,1.146-2.985,2.265-4.479,3.385-3.2,2.4-6.509,4.881-9.751,7.585A1.113,1.113,0,0,1,2371.168,1761.547Z" transform="translate(-2370.052 -1748.318)" fill="#fec739"/>
      </g>
    </g>
  </g>
</svg>
