<svg xmlns="http://www.w3.org/2000/svg" width="272.733" height="204.332" viewBox="0 0 272.733 204.332">
  <g id="Group_2785" data-name="Group 2785" transform="translate(-161 -324.989)">
    <g id="Group_2082" data-name="Group 2082" transform="translate(-372.554 -1250.021)">
      <g id="Group_2077" data-name="Group 2077" transform="translate(710.393 1580.696)">
        <g id="Group_2075" data-name="Group 2075">
          <path id="Path_2774" data-name="Path 2774" d="M924.066,1617.241a.82.82,0,0,1-.7-1.255,33.471,33.471,0,0,0,5.143-15.741,6.474,6.474,0,0,1-1.016.081,5.46,5.46,0,0,1-5.668-5.325c0-3.859,3.8-7.506,7.817-7.506s8.086,3.5,8.086,10.2c0,6.289-4.807,13.358-13.188,19.393A.82.82,0,0,1,924.066,1617.241Zm5.312-18.875a.82.82,0,0,1,.82.839,34.342,34.342,0,0,1-3.474,14.1c6-5.1,9.369-10.662,9.369-15.611,0-5.881-3.341-8.559-6.446-8.559-3.06,0-6.177,2.96-6.177,5.867a3.839,3.839,0,0,0,4.028,3.686,4.981,4.981,0,0,0,1.615-.276A.812.812,0,0,1,929.379,1598.366Z" transform="translate(-921.831 -1587.494)" fill="#313131"/>
        </g>
        <g id="Group_2076" data-name="Group 2076" transform="translate(19.918)">
          <path id="Path_2775" data-name="Path 2775" d="M967.8,1617.241a.82.82,0,0,1-.695-1.255,33.471,33.471,0,0,0,5.144-15.741,6.476,6.476,0,0,1-1.017.081,5.46,5.46,0,0,1-5.667-5.325c0-3.859,3.8-7.506,7.818-7.506s8.085,3.5,8.085,10.2c0,6.29-4.807,13.359-13.188,19.393A.82.82,0,0,1,967.8,1617.241Zm5.313-18.875a.82.82,0,0,1,.82.839,34.345,34.345,0,0,1-3.474,14.1c6-5.1,9.369-10.662,9.369-15.612,0-5.881-3.341-8.559-6.445-8.559-3.061,0-6.179,2.96-6.179,5.867a3.839,3.839,0,0,0,4.028,3.686,4.975,4.975,0,0,0,1.615-.276A.811.811,0,0,1,973.113,1598.366Z" transform="translate(-965.565 -1587.494)" fill="#313131"/>
        </g>
      </g>
      <path id="Path_2776" data-name="Path 2776" d="M758.135,1908.178c-10.054-10.638-32.692-18.057-59.012-18.057s-48.958,7.419-59.012,18.057H634.56v12.351c0,16.794,28.906,30.408,64.563,30.408s64.563-13.614,64.563-30.408v-12.351Z" transform="translate(-55.003 -171.595)" fill="#019e96"/>
      <ellipse id="Ellipse_254" data-name="Ellipse 254" cx="64.563" cy="30.408" rx="64.563" ry="30.408" transform="translate(579.557 1706.175)" fill="#fec739"/>
      <path id="Path_2777" data-name="Path 2777" d="M801.214,1856.705c-10.053-10.639-32.691-18.057-59.011-18.057s-48.958,7.418-59.012,18.057h-5.552v12.351c0,16.794,28.906,30.408,64.563,30.408s64.563-13.614,64.563-30.408v-12.351Z" transform="translate(-78.462 -143.565)" fill="#019e96"/>
      <ellipse id="Ellipse_255" data-name="Ellipse 255" cx="64.563" cy="30.408" rx="64.563" ry="30.408" transform="translate(599.177 1682.732)" fill="#fec739"/>
      <path id="Path_2778" data-name="Path 2778" d="M770.766,1802.205c-10.053-10.639-32.691-18.057-59.011-18.057s-48.958,7.418-59.012,18.057h-5.552v12.351c0,16.794,28.906,30.408,64.563,30.408s64.563-13.614,64.563-30.408v-12.351Z" transform="translate(-61.882 -113.887)" fill="#019e96"/>
      <ellipse id="Ellipse_256" data-name="Ellipse 256" cx="64.563" cy="30.408" rx="64.563" ry="30.408" transform="translate(585.309 1657.91)" fill="#fec739"/>
      <g id="Group_2078" data-name="Group 2078" transform="translate(747.191 1667.512)">
        <path id="Path_2779" data-name="Path 2779" d="M1023.483,1786.367c-3.5,0-5.742-1.531-7.723-2.883-1.681-1.147-3.133-2.138-5.156-2.138a7.728,7.728,0,0,0-5.994,3.452,1.093,1.093,0,1,1-1.779-1.27,9.935,9.935,0,0,1,7.773-4.368c2.7,0,4.574,1.281,6.388,2.518,1.886,1.288,3.668,2.5,6.491,2.5,3.579,0,5.12-1.482,6.752-3.052,1.542-1.483,3.136-3.017,6.2-3.017,2.4,0,4.455,1.447,6.44,2.846,2.071,1.46,4.213,2.97,6.818,2.97,1.722,0,3.385-1.158,5.145-2.384a14.6,14.6,0,0,1,5.6-2.811,1.093,1.093,0,1,1,.383,2.152,12.839,12.839,0,0,0-4.734,2.453c-1.96,1.365-3.986,2.776-6.395,2.776-3.3,0-5.837-1.79-8.078-3.369-1.862-1.313-3.47-2.447-5.181-2.447-2.183,0-3.286,1.062-4.684,2.407C1030.054,1784.336,1027.943,1786.367,1023.483,1786.367Z" transform="translate(-1002.628 -1778.112)" fill="#019e96"/>
      </g>
      <g id="Group_2079" data-name="Group 2079" transform="translate(581.595 1575.011)">
        <path id="Path_2780" data-name="Path 2780" d="M639.6,1588.513a1.094,1.094,0,0,1,.152-1.984,275.322,275.322,0,0,0,26.817-11.4,1.106,1.106,0,0,1,1.069.041,1.093,1.093,0,0,1,.523.932c0,8.124.175,15.962.408,25.364a1.093,1.093,0,0,1-1.541,1.024C657.654,1598.277,648.48,1593.315,639.6,1588.513Zm26.376-10.64c-6.8,3.352-16,7.153-23.207,9.868,7.67,4.144,15.557,8.354,23.572,12.036C666.145,1591.793,666,1584.893,665.977,1577.873Z" transform="translate(-639.036 -1575.011)" fill="#ff8e9e"/>
      </g>
      <g id="Group_2080" data-name="Group 2080" transform="translate(533.554 1667.512)">
        <path id="Path_2781" data-name="Path 2781" d="M544.685,1778.511a7.652,7.652,0,0,0-2.425-.4c-4.778,0-8.706,4.592-8.706,8.923a7.636,7.636,0,0,0,7.992,7.587,9.224,9.224,0,0,0,9.54-8.628,10.545,10.545,0,0,0-2.7-5.631A7.955,7.955,0,0,0,544.685,1778.511Z" transform="translate(-533.554 -1778.112)" fill="#019e96"/>
      </g>
      <path id="Path_2782" data-name="Path 2782" d="M787.726,1747.529c-10.054-10.639-32.691-18.057-59.012-18.057s-48.958,7.418-59.011,18.057h-5.552v12.351c0,16.794,28.906,30.408,64.563,30.408s64.563-13.614,64.563-30.408v-12.351Z" transform="translate(-71.117 -84.113)" fill="#019e96"/>
      <ellipse id="Ellipse_257" data-name="Ellipse 257" cx="64.563" cy="30.408" rx="64.563" ry="30.408" transform="translate(593.034 1633.008)" fill="#fec739"/>
      <ellipse id="Ellipse_258" data-name="Ellipse 258" cx="55.832" cy="22.879" rx="55.832" ry="22.879" transform="translate(601.037 1639.503)" fill="#fff"/>
      <path id="Path_2783" data-name="Path 2783" d="M793.348,1783.212c-8.12,8.523-28.353,14.562-52.028,14.562-25.693,0-47.333-7.112-53.835-16.794" transform="translate(-83.823 -112.162)" fill="none" stroke="#313131" stroke-linecap="round" stroke-miterlimit="10" stroke-width="1"/>
      <path id="Path_2784" data-name="Path 2784" d="M829.524,1718.332c19.612,1.584,35.537,7.376,41.94,14.986" transform="translate(-161.172 -78.046)" fill="none" stroke="#313131" stroke-linecap="round" stroke-miterlimit="10" stroke-width="1"/>
      <path id="Path_2785" data-name="Path 2785" d="M691.647,1733.726c5.689-5.9,17.184-10.592,31.6-12.9" transform="translate(-86.09 -79.402)" fill="none" stroke="#313131" stroke-linecap="round" stroke-miterlimit="10" stroke-width="1"/>
    </g>
    <ellipse id="Ellipse_495" data-name="Ellipse 495" cx="48" cy="18" rx="48" ry="18" transform="translate(237 395)" fill="#fec739"/>
  </g>
</svg>
