<?xml version="1.0" encoding="utf-8"?>
<!-- Generator: Adobe Illustrator 25.2.3, SVG Export Plug-In . SVG Version: 6.00 Build 0)  -->
<svg version="1.1" id="圖層_1" xmlns="http://www.w3.org/2000/svg" xmlns:xlink="http://www.w3.org/1999/xlink" x="0px" y="0px"
	 viewBox="0 0 1367.2 711.6" style="enable-background:new 0 0 1367.2 711.6;" xml:space="preserve">
<style type="text/css">
	.st0{clip-path:url(#SVGID_2_);}
	.st1{fill:#C99318;}
	.st2{fill:#FFC517;}
	.st3{fill:#D39C16;}
	.st4{fill:#FFD77D;}
	.st5{fill:#D3B06A;}
	.st6{fill:#FCD96F;}
	.st7{fill:#66CDFC;}
	.st8{fill:#F7B81C;}
	.st9{fill:#D5A531;}
	.st10{fill:#195F5F;}
	.st11{fill:#FAD375;}
	.st12{fill:none;}
	.st13{fill:none;stroke:#313131;stroke-width:2;}
	.st14{fill:none;stroke:#313131;stroke-width:3;stroke-linecap:round;}
</style>
<g>
	<defs>
		<rect id="SVGID_1_" width="1366" height="717.9"/>
	</defs>
	<clipPath id="SVGID_2_">
		<use xlink:href="#SVGID_1_"  style="overflow:visible;"/>
	</clipPath>
	<g class="st0">
		<path id="Path_4344" class="st1" d="M1242.5,507.8l-1374.6,72.7l531.3-362.3l310.9-49.6L1377,256L1242.5,507.8z"/>
		<g id="Group_3017" transform="translate(3130.582 -12648.425)">
			<path id="Path_1499" class="st2" d="M-1475.4,13145.1l20.5-53.4c0,0-206.8,116.8-611.3,153s-477.4,64.6-477.4,64.6l-286.9-158.6
				l153-147.1l83.7-40.9l149.1-161.1l4-17.7l132.3-92.1l139.9-36.4c0,0,281.4,239.2,364.1,289.3c1.7,0.8,93.4,58.2,94.9,58.9
				C-1559.8,13072.1-1475.4,13145.1-1475.4,13145.1z"/>
			<path id="Path_1496" class="st3" d="M-1414.8,12957.3v212.6l-780.8,4.4l-59.8-103.2l240.5-117.6l15-7.3l192.1-147.3l223.3,136.1
				L-1414.8,12957.3z"/>
			<path id="Path_1497" class="st2" d="M-1907.3,12874.8l79-73.7l21,30l22,58.9l37,30l-34.1,44.7L-1907.3,12874.8z"/>
			<path id="Path_2174" class="st4" d="M-1828.7,12801.1l21.3-6.2l5,18l-5,18l-36-1l-11,10l-11.9-2.7L-1828.7,12801.1z"/>
			<path id="Path_1516" class="st5" d="M-1807.4,12794.9l-2,9l7,9l-5,18l21,18l10-21l12.3-2.4
				C-1769.8,12812.1-1807.4,12794.9-1807.4,12794.9z"/>
			<path id="Path_2203" class="st6" d="M-2636.9,13086"/>
			<path id="Path_1513" class="st7" d="M-2101.1,12773"/>
			<path id="Path_2199" class="st5" d="M-2099,12852.1l28.4-15.3l20.5-32.9l-15-10l25-53.7c0,0-14-11.2-36-29.2
				c-46.9-6-89.5-61.5-89.5-61.5l-27.4,58.5l-71.6,34.8l-6.3,31.1l104.9,69.2"/>
			<path id="Path_2200" class="st4" d="M-2164.5,12648.4l-27.4,58.5l-71.6,34.8l-6.3,31.1l-126.8,40.2l-44-29l133.2-93.4
				L-2164.5,12648.4z"/>
			<path id="Path_2201" class="st3" d="M-2194.9,12824.1l29,19l-38,46.9l102.9,95.9l49.9,237.5l215.8,48.9l135.8,21l118.9-222.5
				l-459.5-330.9l-76.9,10.2L-2194.9,12824.1z"/>
			<path id="Path_2203-2" class="st6" d="M-2662.9,13098"/>
			<path id="Path_2988" class="st8" d="M-2425.6,13019.9l41-52.9l39,24l-35,54.9L-2425.6,13019.9z"/>
			<path id="Path_2990" class="st8" d="M-2603.4,13148.7l41-52.9l39,24l-35,54.9L-2603.4,13148.7z"/>
			<path id="Path_2991" class="st8" d="M-2318.7,13134.8l72.9-110.9l40,21l-51.9,91.9L-2318.7,13134.8z"/>
			<path id="Path_2992" class="st8" d="M-2289.8,13153.7l56.9-86.9l40,21l-51.9,91.9L-2289.8,13153.7z"/>
			<path id="Path_2993" class="st8" d="M-2214.8,13115.8l56.9-86.9l72.9,31l23,109.9L-2214.8,13115.8z"/>
			<path id="Path_2994" class="st1" d="M-2085,13059.8l26.8-53.9l107,76.5l33.1-48.8l155.7,110.2h-305.5L-2085,13059.8z"/>
			<path id="Path_2995" class="st1" d="M-1763.3,12939l90.9,66.9l-16.7,26.3l-93.2-69.2L-1763.3,12939z"/>
		</g>
		<path id="Path_4330" class="st9" d="M1529.6,613.3L140,562.4l401.9-148.8l488.5-34.3h668.8L1529.6,613.3z"/>
		<path id="Path_4481" class="st10" d="M1238.4,487.9l5,12l-5.2-0.1l5.1,10.9l4.2,80.3l-32.7-4.8c0,0,9.6-55.8,17.5-65.8
			c-8.4,0.7-5.5-0.1-5.5-0.1L1238.4,487.9z"/>
		<path id="Path_4482" class="st10" d="M1210.3,499.3l-4.8,11.9l5.2-0.2l-4.8,10.8l-2.8,79.4l32.3-5.3c0,0-10.5-54.9-18.5-64.8
			c8.3,0.5,5.4-0.2,5.4-0.2L1210.3,499.3z"/>
		<path id="Union_11" class="st11" d="M552.7,704.1C390,677.9,88.6,634.5-7.3,670.2s-103.5,33.9-103.5,33.9
			c68.9-90.9,52.2-137.3,52.2-137.3s253-31.7,445.1-20c113.2,6.9,249.8,4.4,365.7,2c30.2-0.6,59-1.3,85.5-1.8
			c-55.7-7.5-101-18.6-113.8-35.2c-39.7-51.5-57.6-69.8-121.6-74.9s-51.5-24-51.5-24s10.8-0.9,64.8-4.8c2,8.7,21.2,7.9,42.6,7.2
			c26.8-0.9,57.2-1.9,61.5,15.8c7.8,31.8,46.6,28.8,154.9,25c80.2-2.8,239.9,57,317.1,88.1c11.7,2.7,23.2,6.3,34.5,10.6
			c94.2,36.2,173.7,55.9,173.7,55.9s14.6,88.9,0,93.4S1206,665,1063.6,658.2c-64-3.1-140.7,11.2-220.6,25.4
			c-72.5,12.9-147.5,25.8-218,25.8C600.8,709.6,576.6,707.8,552.7,704.1z"/>
		<path id="Path_3005" class="st12" d="M-285,248.6c0,0,155.3,114.6,243.4,40.4s-7-229,102.6-299.4s143.2-37.7,214.3-43.2
			S441.9-70,521.7-165.6c262.8,3,644.7,0,644.7,0v503c0,0-145.9,65-290.2,39.9s-344-168.3-512.6-128.8S110.8,416.4,61.1,478.1
			s-352.7,34.4-352.7,34.4L-285,248.6z"/>
		<path id="Path_4458" class="st13" d="M1433.2-49c0,0-213.9,426.9-468.5,49.5"/>
		<path id="Path_4480" class="st11" d="M791.8,539.5c13.2,2.5,10.5,9.8,3.5,10.1s18,17.1,18,17.1l42.4-9.3l-6.3-24.3L791.8,539.5z"
			/>
		<path id="Path_4434" class="st14" d="M964.7,0.4L731,104.6c0,0-133.7,108.4-144.1,138.7s-16.6,35.3-16.6,35.3"/>
	</g>
</g>
</svg>
