<svg xmlns="http://www.w3.org/2000/svg" width="266.275" height="274.845" viewBox="0 0 266.275 274.845">
  <g id="Group_2810" data-name="Group 2810" transform="translate(-763.684 -2182.272)">
    <path id="Path_3921" data-name="Path 3921" d="M1042.817,2240.13s7.811,5.01,7.811,13.558c-6.631,0-7.515-1.326-7.515-1.326Z" transform="translate(-160.428 -33.253)" fill="#313131"/>
    <path id="Path_4107" data-name="Path 4107" d="M889.613,2182.272" transform="translate(-72.376)" fill="#f97253"/>
    <path id="Path_3919" data-name="Path 3919" d="M1088.613,2374.169l34.452,13.324,8.189-21.911L1090.517,2356Z" transform="translate(-186.749 -99.846)" fill="#fec739"/>
    <path id="Path_3920" data-name="Path 3920" d="M1015.129,2286.591l-3.042,25.489-13.251-3.982,6.083-23.534Z" transform="translate(-135.151 -58.791)" fill="#313131"/>
    <path id="Path_3922" data-name="Path 3922" d="M1121.377,2712.468c1.993,1.241,1.679,3.923-.5,4.306-20.281,3.508-29.011,3.07-40.711,1.74a3.79,3.79,0,0,1-3.451-4.33,115.147,115.147,0,0,1,3.545-11.966,176.984,176.984,0,0,1,26.183,1.977l.017-.032c1.491.761,3.089,1.6,5,2.63C1114.824,2708.6,1118.148,2710.471,1121.377,2712.468Z" transform="translate(-179.865 -298.832)" fill="#313131"/>
    <path id="Path_3923" data-name="Path 3923" d="M771.159,2697.677c-1.37,2.167-4.3,1.8-4.7-.578-3.681-22.166-3.139-31.692-1.6-44.454.291-2.455,2.6-4.261,4.752-3.736a125.726,125.726,0,0,1,13.041,3.959,193.186,193.186,0,0,1-2.349,28.567l.034.018c-.841,1.623-1.774,3.362-2.907,5.441C775.433,2690.552,773.363,2694.168,771.159,2697.677Z" transform="translate(0 -268.141)" fill="#313131"/>
    <circle id="Ellipse_469" data-name="Ellipse 469" cx="69.119" cy="69.119" r="69.119" transform="translate(891.721 2253.656)" fill="#019e96"/>
    <path id="Path_3924" data-name="Path 3924" d="M938.05,2318.444l-16.125-5.179s-1.036-.74-13.61-4.883-20.858,7.841-22.19,11.538-3.255,9.763-7.4,22.782c4.734,6.8,17.6,6.361,17.6,6.361l-8.879,23.964s48.817,2.662,49.851-.888,2.22-6.213,6.8-10.5a13.071,13.071,0,0,0,3.995-11.39c-.3-1.48-2.663-4.291-1.48-7.544s6.065-1.184,6.065-1.184,11.953,3.75,19.452,6.094c5.858-5.859,4.687-17.577,4.687-17.577" transform="translate(-66.12 -71.986)" fill="#fff"/>
    <path id="Path_3926" data-name="Path 3926" d="M861.706,2470.309s-12.116,17.651-1.581,29.5c8.167,8.694,22.024,10.683,35.725,10.683s36.725-10.155,38.568-8.047,16.54,57.436,18.91,67.708c21.076.791,4.834.1,10.63,0,2.367-14.854.615-50.771-4.392-66.842-2.352-8.145-4.591-14.1-6.239-18.388-2.589-6.757-5.549-9.182-14.428-9.351C924.933,2475.314,861.706,2470.309,861.706,2470.309Z" transform="translate(-52.954 -165.546)" fill="#ff8e9e"/>
    <path id="Path_3927" data-name="Path 3927" d="M806.617,2574.145l44.594,5.11-12.774-61.782s32.4-14.816,35.458,4.5,4.532,43.012,3.8,52.409,4.645,32.284-15.562,30.194c-18.023-1.865-49.745-17.731-56.788-18.591" transform="translate(-23.942 -189.532)" fill="#ff8e9e"/>
    <path id="Path_3928" data-name="Path 3928" d="M883.088,2396.609l-7.318,19.759a2.981,2.981,0,0,0,2.914,4.016c13.77-.555,55.047-2.015,62.43.19a86.9,86.9,0,0,1,11.969-10s-5.567,14.685,16.663,5.793c-6.642,14.891-22.3,10.983-26.282,11.367-8.552,3.662-38.335,9.1-60.381,10.33-17,.947-28.285-.509-27.349-8.794a147.508,147.508,0,0,1,9.747-39.022l17.6,6.361" transform="translate(-52.874 -119.532)" fill="#fec739"/>
    <path id="Path_4108" data-name="Path 4108" d="M910.145,2558.75a57.488,57.488,0,0,1-22.853-4.5.694.694,0,1,1,.543-1.276c10.873,4.631,22.984,5.587,37.027,2.924a.694.694,0,0,1,.259,1.363A80.33,80.33,0,0,1,910.145,2558.75Z" transform="translate(-70.799 -213.023)" fill="#313131"/>
    <path id="Path_3930" data-name="Path 3930" d="M933.582,2371.062" transform="translate(-97.647 -108.505)" fill="#313131"/>
    <path id="Path_4109" data-name="Path 4109" d="M919.192,2385.338a.694.694,0,0,1-.645-.948l5.721-14.52a.694.694,0,0,1,1.291.509l-5.721,14.52A.694.694,0,0,1,919.192,2385.338Z" transform="translate(-88.978 -107.567)" fill="#313131"/>
    <path id="Path_3935" data-name="Path 3935" d="M784.868,2298.163" transform="translate(-12.175 -66.607)" fill="#fff"/>
    <path id="Path_3936" data-name="Path 3936" d="M1238.424,2345.522h3.27l-1.636,5.648,9.922,2.034,5.417-9.366-11.313-2.385Z" transform="translate(-272.851 -91.487)" fill="#fec739"/>
    <g id="Group_2077" data-name="Group 2077" transform="translate(950.608 2190.151)">
      <g id="Group_2075" data-name="Group 2075" transform="translate(0 0)">
        <path id="Path_2774" data-name="Path 2774" d="M1205.306,2228.311a.759.759,0,0,1-.648-1.161,30.956,30.956,0,0,0,4.757-14.559,5.942,5.942,0,0,1-.94.075,5.05,5.05,0,0,1-5.24-4.852c0-.024,0-.048,0-.073,0-3.569,3.514-6.942,7.23-6.942s7.479,3.237,7.479,9.433c0,5.817-4.446,12.355-12.2,17.937A.759.759,0,0,1,1205.306,2228.311Zm4.913-17.458a.759.759,0,0,1,.759.758v.018a31.767,31.767,0,0,1-3.213,13.041c5.549-4.717,8.665-9.861,8.665-14.438,0-5.439-3.09-7.917-5.962-7.917-2.83,0-5.713,2.738-5.713,5.427a3.55,3.55,0,0,0,3.685,3.411l.04,0a4.6,4.6,0,0,0,1.493-.255.757.757,0,0,1,.246-.043Z" transform="translate(-1203.233 -2200.799)" fill="#313131"/>
      </g>
      <g id="Group_2076" data-name="Group 2076" transform="translate(18.427 0)">
        <path id="Path_2775" data-name="Path 2775" d="M1248.632,2228.311a.758.758,0,0,1-.643-1.161,30.953,30.953,0,0,0,4.758-14.559,5.948,5.948,0,0,1-.94.075,5.05,5.05,0,0,1-5.239-4.853c0-.024,0-.047,0-.072,0-3.569,3.514-6.942,7.231-6.942s7.477,3.237,7.477,9.433c0,5.818-4.446,12.356-12.2,17.937A.762.762,0,0,1,1248.632,2228.311Zm4.914-17.458a.759.759,0,0,1,.758.758v.018a31.762,31.762,0,0,1-3.213,13.041c5.55-4.717,8.666-9.861,8.666-14.439,0-5.44-3.09-7.916-5.961-7.916-2.831,0-5.715,2.738-5.715,5.427a3.551,3.551,0,0,0,3.685,3.411l.04,0a4.587,4.587,0,0,0,1.494-.255A.756.756,0,0,1,1253.546,2210.853Z" transform="translate(-1246.565 -2200.799)" fill="#313131"/>
      </g>
    </g>
    <g id="Group_2078" data-name="Group 2078" transform="translate(937.628 2298.599)">
      <path id="Path_2779" data-name="Path 2779" d="M1192.008,2463.451c-3.237,0-5.311-1.416-7.143-2.667-1.555-1.061-2.9-1.977-4.769-1.977a7.145,7.145,0,0,0-5.544,3.192,1.011,1.011,0,1,1-1.661-1.153l.016-.021a9.191,9.191,0,0,1,7.189-4.04c2.5,0,4.23,1.185,5.908,2.329,1.744,1.192,3.393,2.313,6,2.313,3.31,0,4.736-1.371,6.245-2.823,1.426-1.372,2.9-2.791,5.734-2.791,2.22,0,4.12,1.339,5.956,2.633,1.915,1.35,3.9,2.747,6.306,2.747,1.593,0,3.131-1.071,4.759-2.205a13.492,13.492,0,0,1,5.179-2.6,1.011,1.011,0,0,1,.381,1.985l-.027,0a11.882,11.882,0,0,0-4.379,2.269c-1.813,1.262-3.687,2.567-5.915,2.567-3.052,0-5.4-1.655-7.471-3.116-1.722-1.214-3.209-2.263-4.792-2.263-2.019,0-3.039.982-4.332,2.226A9.882,9.882,0,0,1,1192.008,2463.451Z" transform="translate(-1172.711 -2455.813)" fill="#ff8e9e"/>
    </g>
    <g id="Group_2771" data-name="Group 2771" transform="translate(950.289 2412.16)">
      <path id="Path_2779-2" data-name="Path 2779-2" d="M1217.128,2754.092c-2.081,2.48-4.5,3.158-6.634,3.758-1.812.509-3.377.949-4.58,2.382a7.148,7.148,0,0,0-1.118,6.3,1.011,1.011,0,0,1-1.951.531l-.007-.026a9.189,9.189,0,0,1,1.527-8.1c1.6-1.913,3.627-2.479,5.582-3.029,2.034-.571,3.952-1.113,5.63-3.113,2.128-2.536,1.994-4.508,1.852-6.6-.135-1.974-.273-4.015,1.548-6.186,1.427-1.7,3.673-2.3,5.845-2.871,2.265-.6,4.609-1.219,6.157-3.065,1.024-1.22,1.192-3.087,1.37-5.063a13.506,13.506,0,0,1,1.338-5.639,1.011,1.011,0,0,1,1.766.984l-.014.023a11.877,11.877,0,0,0-1.076,4.813c-.2,2.2-.4,4.475-1.835,6.181-1.962,2.338-4.739,3.072-7.189,3.721-2.038.538-3.8,1-4.814,2.216-1.3,1.547-1.2,2.959-1.079,4.749A9.882,9.882,0,0,1,1217.128,2754.092Z" transform="translate(-1202.484 -2722.85)" fill="#ff8e9e"/>
    </g>
    <g id="Group_2079" data-name="Group 2079" transform="translate(773.615 2197.214)">
      <path id="Path_2780" data-name="Path 2780" d="M787.558,2229.9a1.012,1.012,0,0,1,.14-1.835,254.633,254.633,0,0,0,24.8-10.543,1.012,1.012,0,0,1,1.473.9c0,7.514.162,14.763.377,23.459a1.012,1.012,0,0,1-1.425.947C804.256,2238.927,795.771,2234.337,787.558,2229.9Zm24.395-9.841c-6.289,3.1-14.8,6.615-21.464,9.127,7.094,3.833,14.388,7.727,21.8,11.132-.181-7.384-.315-13.766-.336-20.259Z" transform="translate(-787.036 -2217.408)" fill="#ff8e9e"/>
    </g>
    <g id="Group_2770" data-name="Group 2770" transform="translate(928.932 2323.831)">
      <path id="Path_2780-2" data-name="Path 2780-2" d="M1152.784,2527.634a1.012,1.012,0,0,1,.14-1.835,254.694,254.694,0,0,0,24.8-10.544,1.023,1.023,0,0,1,.989.038,1.012,1.012,0,0,1,.484.862c0,7.514.161,14.763.377,23.459a1.012,1.012,0,0,1-1.426.947C1169.482,2536.664,1161,2532.075,1152.784,2527.634Zm24.394-9.841c-6.289,3.1-14.8,6.616-21.464,9.127,7.094,3.833,14.388,7.727,21.8,11.132-.181-7.384-.315-13.766-.336-20.259Z" transform="translate(-1152.262 -2515.146)" fill="#fff"/>
    </g>
    <g id="Group_2080" data-name="Group 2080" transform="translate(964.965 2321.313)">
      <path id="Path_2781" data-name="Path 2781" d="M1247.288,2509.594a7.069,7.069,0,0,0-2.243-.37c-4.419,0-8.052,4.247-8.052,8.252a7.062,7.062,0,0,0,7.1,7.025c.1,0,.194,0,.292-.007a8.531,8.531,0,0,0,8.823-7.98,9.753,9.753,0,0,0-2.5-5.208A7.36,7.36,0,0,0,1247.288,2509.594Z" transform="translate(-1236.993 -2509.224)" fill="#ffc517"/>
    </g>
    <rect id="Rectangle_1433" data-name="Rectangle 1433" width="16.855" height="38.671" rx="8.427" transform="translate(866.295 2256.736) rotate(-167.356)" fill="#fec739"/>
    <circle id="Ellipse_573" data-name="Ellipse 573" cx="14.329" cy="14.329" r="14.329" transform="translate(858.187 2203.135)" fill="#fec739"/>
    <circle id="Ellipse_574" data-name="Ellipse 574" cx="14.329" cy="14.329" r="14.329" transform="translate(856.452 2210.869)" fill="#fec739"/>
    <rect id="Rectangle_1434" data-name="Rectangle 1434" width="7.72" height="28.659" transform="translate(856.844 2221.861) rotate(-77.356)" fill="#fec739"/>
    <circle id="Ellipse_575" data-name="Ellipse 575" cx="1.672" cy="1.672" r="1.672" transform="translate(879.795 2221.005)" fill="#313131"/>
    <circle id="Ellipse_576" data-name="Ellipse 576" cx="1.672" cy="1.672" r="1.672" transform="translate(870.159 2218.844)" fill="#313131"/>
    <path id="Path_4110" data-name="Path 4110" d="M1026.967,2273.47l-.626,6.351-.089.9a.692.692,0,0,1-.817.518l-1.642-.283c-.868-.15-.567-1.484.3-1.335l1.642.283-.817.518.626-6.351.088-.9a.688.688,0,0,1,.817-.518.7.7,0,0,1,.518.817Z" transform="translate(-149.196 -51.937)" fill="#313131"/>
    <path id="Path_4111" data-name="Path 4111" d="M1017.041,2298.2c-1.636-.094-3.565-.669-4.3-2.262a.686.686,0,0,1,.444-.86.706.706,0,0,1,.859.445c-.085-.185,0,0,.026.034s.061.1.095.144c.082.114.035,0-.005,0,.022,0,.1.108.117.127a2.5,2.5,0,0,0,.226.2c.152.121-.07-.04.031.026l.11.072a3.991,3.991,0,0,0,.588.3.857.857,0,0,1,.162.065c-.064-.048-.122-.044-.009,0s.2.066.3.1a7.457,7.457,0,0,0,1.013.215c.108.015.216.027.325.039.125.014-.22-.017-.081-.007l.036,0a.7.7,0,0,1,.717.65.692.692,0,0,1-.651.717Z" transform="translate(-143.115 -64.82)" fill="#313131"/>
    <ellipse id="Ellipse_577" data-name="Ellipse 577" cx="3.151" cy="4.444" rx="3.151" ry="4.444" transform="translate(852.113 2215.972) rotate(-56.483)" fill="#f97253"/>
    <path id="Path_3931" data-name="Path 3931" d="M985.626,2232.23s-6.535,6.545-17.688,2.121c-6.474,39.068-7.516,39.642-7.516,39.642l-20.041-6.337s3.873-44.419,26.567-43.536C975.2,2223.826,985.327,2230.9,985.626,2232.23Z" transform="translate(-101.555 -24.044)" fill="#313131"/>
  </g>
</svg>
