<svg xmlns="http://www.w3.org/2000/svg" width="262.083" height="277.104" viewBox="0 0 262.083 277.104">
  <g id="Group_2987" data-name="Group 2987" transform="translate(-560.651 -245.448)">
    <path id="Path_3937" data-name="Path 3937" d="M1870.237,2623.949s45.847-5.17,56.533-2.067,18.959,5.171,12.41,27.922-25.509,71.356-25.509,87.9l-9.307,4.134s-11.031-62.049,13.1-90.661c-17.925,4.481-21.755,11.375-39.146,10.686S1870.237,2623.949,1870.237,2623.949Z" transform="translate(-1200.917 -2242.006)" fill="#fec739"/>
    <path id="Path_3938" data-name="Path 3938" d="M1942.137,2844.383l15.494-1.749-3.24,16.451-9.307,4.134Z" transform="translate(-1241.636 -2363.385)" fill="#019e96"/>
    <path id="Path_3939" data-name="Path 3939" d="M1983.754,2866.564c2.094.619,2.478,3.1.617,3.984-17.313,8.17-25.248,9.942-36.068,11.652a3.525,3.525,0,0,1-4.13-2.789c-.015-.079-.028-.158-.038-.238a106.9,106.9,0,0,1,.212-11.608,164.686,164.686,0,0,1,23.964-4.718l.007-.032c1.525.313,3.167.673,5.135,1.117C1976.919,2864.717,1980.364,2865.574,1983.754,2866.564Z" transform="translate(-1242.692 -2374.432)" fill="#313131"/>
    <path id="Path_3945" data-name="Path 3945" d="M1841.373,2651.5s45.847-5.171,56.534-2.068,18.959,5.171,12.41,27.922-25.509,71.356-25.509,87.9l-9.308,4.134s-11.032-62.049,13.1-90.661c-17.925,4.481-21.754,11.376-39.146,10.686S1841.373,2651.5,1841.373,2651.5Z" transform="translate(-1185.116 -2257.088)" fill="#fec739"/>
    <path id="Path_4099" data-name="Path 4099" d="M1895.563,2648.389a74.76,74.76,0,0,1,13.268-.82c3.963.037,7.917.33,11.86.728a72.4,72.4,0,0,1,9.81,1.549c5.146,1.249,11.132,3.672,12.473,9.391.625,2.667,0,5.354-.558,7.965-.84,3.91-1.926,7.767-3.048,11.6-1.427,4.88-2.953,9.731-4.508,14.571-1.686,5.251-3.411,10.49-5.139,15.728-1.67,5.066-3.345,10.131-4.984,15.207-1.395,4.318-2.772,8.643-4.043,13a83.9,83.9,0,0,0-2.273,8.98c-.085.487-.158.978-.207,1.47-.066.652.953.647,1.018,0a28.464,28.464,0,0,1,.584-3.217c.352-1.542.759-3.07,1.183-4.593,1.162-4.173,2.46-8.307,3.777-12.433,1.606-5.032,3.259-10.049,4.912-15.065,1.758-5.333,3.52-10.665,5.25-16.007,1.618-4.995,3.211-10,4.717-15.028,1.221-4.078,2.4-8.173,3.375-12.318a31.779,31.779,0,0,0,1.225-7.913,10.768,10.768,0,0,0-2.509-6.6,16.316,16.316,0,0,0-6.773-4.438,44.045,44.045,0,0,0-9.421-2.279c-3.471-.512-6.976-.836-10.476-1.077a92.223,92.223,0,0,0-18.881.476c-.3.042-.6.083-.9.135-.645.112-.372,1.093.271.982Z" transform="translate(-1215.792 -2256.04)" fill="#313131"/>
    <path id="Path_3956" data-name="Path 3956" d="M1801.7,2366.277a33.633,33.633,0,0,0-20.335,1.153c-1.486-2.053-5.654-2.5-6.49,1.935s4.434,5.427,4.434,5.427l-4.21,17.661-13.932.54s-3.754-26.844,4.5-34.377,14.875-8.057,20.017-7.818S1802.222,2354.972,1801.7,2366.277Z" transform="translate(-1142.112 -2094.137)" fill="#313131"/>
    <path id="Path_3957" data-name="Path 3957" d="M1780.625,2353.838l-.991-2.407,6.088-2.832,1.7,3.569Z" transform="translate(-1152.684 -2092.958)" fill="#313131"/>
    <circle id="Ellipse_473" data-name="Ellipse 473" cx="6.973" cy="6.973" r="6.973" transform="translate(620.72 245.448)" fill="#313131"/>
    <rect id="Rectangle_1431" data-name="Rectangle 1431" width="18.339" height="42.075" rx="9.169" transform="translate(651.446 319.209) rotate(174.71)" fill="#fec739"/>
    <circle id="Ellipse_565" data-name="Ellipse 565" cx="15.591" cy="15.591" r="15.591" transform="translate(629.139 260.881)" fill="#fec739"/>
    <circle id="Ellipse_566" data-name="Ellipse 566" cx="15.591" cy="15.591" r="15.591" transform="translate(629.934 269.469)" fill="#fec739"/>
    <rect id="Rectangle_1432" data-name="Rectangle 1432" width="31.181" height="8.4" transform="matrix(0.996, -0.092, 0.092, 0.996, 629.205, 277.91)" fill="#fec739"/>
    <circle id="Ellipse_567" data-name="Ellipse 567" cx="1.82" cy="1.82" r="1.82" transform="translate(653.922 277.05)" fill="#313131"/>
    <circle id="Ellipse_568" data-name="Ellipse 568" cx="1.82" cy="1.82" r="1.82" transform="translate(643.224 278.041)" fill="#313131"/>
    <path id="Path_4100" data-name="Path 4100" d="M1832.058,2399.22l1.48,6.783.209.959c.089.407-.314.758-.672.81l-1.795.257c-.949.135-1.084-1.347-.137-1.482l1.794-.257-.672.81-1.48-6.783-.21-.959a.749.749,0,0,1,.673-.81.763.763,0,0,1,.81.673Z" transform="translate(-1180.526 -2120.297)" fill="#313131"/>
    <path id="Path_4101" data-name="Path 4101" d="M1827.446,2427.482c-1.725.452-3.914.5-5.213-.9a.746.746,0,0,1,.172-1.039.767.767,0,0,1,1.039.172c-.151-.162,0,0,.038.026s.1.08.146.118c.123.09.038-.009-.005,0,.023-.006.138.079.163.092a2.754,2.754,0,0,0,.3.133c.2.074-.086-.018.041.017l.138.037a4.436,4.436,0,0,0,.709.115.92.92,0,0,1,.19.013c-.082-.028-.141,0-.011,0q.172,0,.344,0a8.106,8.106,0,0,0,1.12-.116c.117-.02.234-.044.35-.068.134-.028-.234.056-.087.02l.038-.009a.763.763,0,0,1,.96.433.753.753,0,0,1-.433.959Z" transform="translate(-1175.923 -2135.003)" fill="#313131"/>
    <ellipse id="Ellipse_569" data-name="Ellipse 569" cx="3.428" cy="4.835" rx="3.428" ry="4.835" transform="translate(623.109 281.763) rotate(-74.417)" fill="#fec739"/>
    <path id="Path_4102" data-name="Path 4102" d="M1800.333,2362.291a14.776,14.776,0,0,0,11.827,7.033c-.554-7.91-9.322-13.8-13.956-13.671s-18.913,5.511-19.164,9.269,2.4,8.231,2.4,8.231S1798.745,2374.628,1800.333,2362.291Z" transform="translate(-1152.35 -2096.817)" fill="#313131"/>
    <g id="Group_2773" data-name="Group 2773" transform="translate(560.651 272.049)">
      <g id="Group_2083" data-name="Group 2083" transform="translate(175.387 186.527)">
        <path id="Path_2789" data-name="Path 2789" d="M2055.469,2828.659c2.73,2.211,5.45,2.433,7.847,2.629,2.036.166,3.8.313,5.375,1.59a7.759,7.759,0,0,1,2.5,6.484,1.1,1.1,0,0,0,2.193.129,9.975,9.975,0,0,0-3.307-8.318c-2.106-1.705-4.38-1.892-6.578-2.073-2.286-.186-4.448-.366-6.647-2.147-2.793-2.262-3.057-4.392-3.34-6.649-.266-2.131-.542-4.337-2.931-6.271-1.875-1.519-4.393-1.688-6.823-1.852-2.54-.17-5.167-.346-7.2-1.991-1.345-1.089-1.909-3.043-2.51-5.113-.7-2.422-1.427-4.931-3.494-6.6-1.177-.953-3.279-1.1-6.184-1.309-.789-.057-1.629-.116-2.5-.2a1.1,1.1,0,1,0-.244,2.181l.04,0c.887.085,1.744.145,2.549.2,2.123.152,4.317.307,4.959.826,1.53,1.239,2.13,3.313,2.767,5.51.666,2.3,1.354,4.689,3.234,6.211,2.573,2.084,5.687,2.291,8.434,2.474,2.283.152,4.257.28,5.593,1.362,1.7,1.379,1.892,2.906,2.134,4.838C2051.624,2822.921,2051.989,2825.841,2055.469,2828.659Z" transform="translate(-2020.651 -2796.959)" fill="#ff8e9e"/>
      </g>
      <g id="Group_2084" data-name="Group 2084" transform="translate(226.188 24.791)">
        <path id="Path_2790" data-name="Path 2790" d="M2151.339,2472.594a1.1,1.1,0,0,0,.736-.281l4.291-3.857c3.983-3.574,8.1-7.271,12.067-10.94a1.1,1.1,0,0,0,.061-1.551c-.026-.028-.055-.055-.083-.081q-3.926-3.433-7.805-6.866c-3.445-3.042-6.891-6.085-10.4-9.126a1.1,1.1,0,0,0-1.515.072q-4.5,4.716-8.933,9.489-3.279,3.505-6.569,7a1.1,1.1,0,0,0,.043,1.55c.021.02.043.039.065.057,5.7,4.6,11.585,9.361,17.325,14.274A1.1,1.1,0,0,0,2151.339,2472.594Zm14.706-15.862c-3.676,3.385-7.469,6.792-11.146,10.09l-3.58,3.215c-5.217-4.444-10.544-8.755-15.721-12.94q2.891-3.064,5.763-6.146,4.087-4.369,8.2-8.715c3.228,2.809,6.41,5.618,9.593,8.426q3.441,3.035,6.9,6.069Z" transform="translate(-2132.889 -2439.622)" fill="#019e96"/>
      </g>
      <g id="Group_2085" data-name="Group 2085" transform="translate(0.001 0)">
        <path id="Path_2791" data-name="Path 2791" d="M1647.5,2409.641c5.5,0,11.4-6.259,11.4-10.662,0-.367.027-.737.052-1.108.029-.42.057-.84.057-1.259,0-5.44-6.018-11.762-13.774-11.762a12.535,12.535,0,0,0-4.288.736,10.836,10.836,0,0,0-6.519,5.9,12.119,12.119,0,0,0-1.267,5.142c0,5.672,5.228,12.869,11.1,12.869.582,0,1.125.038,1.651.075C1646.456,2409.605,1646.974,2409.641,1647.5,2409.641Zm-2.264-22.595c6.415,0,11.579,5.234,11.579,9.566,0,.367-.028.738-.053,1.107-.029.42-.057.841-.057,1.259,0,3.266-5.025,8.466-9.2,8.466-.472,0-.946-.033-1.434-.068-.575-.041-1.169-.08-1.8-.08-4.5,0-8.908-6.112-8.908-10.673a9.856,9.856,0,0,1,1.089-4.276,8.7,8.7,0,0,1,5.251-4.7,10.334,10.334,0,0,1,3.536-.6Z" transform="translate(-1633.157 -2384.85)" fill="#ff8e9e"/>
      </g>
      <g id="Group_2086" data-name="Group 2086" transform="translate(0 142.393)">
        <path id="Path_2792" data-name="Path 2792" d="M1644.54,2700.426a8.882,8.882,0,0,1,4.9,8,7,7,0,0,1-6.835,7.17c-.134,0-.267,0-.4,0-5.591,0-9.05-4.91-9.05-9.333,0-4.725,4.987-6.807,7.481-6.807A8.636,8.636,0,0,1,1644.54,2700.426Z" transform="translate(-1633.154 -2699.45)" fill="#ff8e9e"/>
      </g>
      <g id="Group_2087" data-name="Group 2087" transform="translate(209.935 135.872)">
        <path id="Path_2793" data-name="Path 2793" d="M2112.135,2698.076a1.1,1.1,0,0,0,.7-1.941c-3.238-2.7-6.517-5.157-9.689-7.537-1.464-1.1-2.927-2.194-4.39-3.317A1.1,1.1,0,1,0,2097.4,2687l.028.021c1.47,1.128,2.938,2.23,4.409,3.332,3.15,2.363,6.408,4.805,9.6,7.467A1.1,1.1,0,0,0,2112.135,2698.076Z" transform="translate(-2096.982 -2685.043)" fill="#fec739"/>
      </g>
    </g>
    <path id="Path_2787" data-name="Path 2787" d="M1717.935,2746.331h-3.08a35.758,35.758,0,0,0-17.881,4.792l-2.668,1.54a35.769,35.769,0,0,0-13.092,13.092l-1.539,2.668a35.76,35.76,0,0,0-4.791,17.879v3.081a35.763,35.763,0,0,0,4.791,17.881l1.539,2.668a35.761,35.761,0,0,0,13.092,13.092l2.668,1.54a35.766,35.766,0,0,0,17.881,4.791h3.08a35.766,35.766,0,0,0,17.881-4.791l2.668-1.54a35.77,35.77,0,0,0,13.092-13.092l1.54-2.668a35.759,35.759,0,0,0,4.791-17.881V2786.3a35.76,35.76,0,0,0-4.791-17.88l-1.54-2.668a35.759,35.759,0,0,0-13.092-13.092l-2.668-1.541A35.76,35.76,0,0,0,1717.935,2746.331Z" transform="translate(-1095.346 -2310.67)" fill="#ff8e9e"/>
    <path id="Path_2788" data-name="Path 2788" d="M1727.381,2749.476h-3.08a35.762,35.762,0,0,0-17.879,4.791l-2.668,1.541a35.756,35.756,0,0,0-13.092,13.092l-1.54,2.668a35.766,35.766,0,0,0-4.791,17.88v3.08a35.764,35.764,0,0,0,4.791,17.88l1.54,2.668a35.758,35.758,0,0,0,13.092,13.092l2.668,1.541a35.757,35.757,0,0,0,17.879,4.791h3.08a35.762,35.762,0,0,0,17.881-4.791l2.668-1.541a35.764,35.764,0,0,0,13.092-13.092l1.539-2.668a35.754,35.754,0,0,0,4.791-17.88v-3.078a35.756,35.756,0,0,0-4.791-17.879l-1.539-2.668a35.766,35.766,0,0,0-13.092-13.093l-2.668-1.539A35.758,35.758,0,0,0,1727.381,2749.476Z" transform="translate(-1100.517 -2312.392)" fill="#fec739"/>
    <circle id="Ellipse_259" data-name="Ellipse 259" cx="32.196" cy="32.196" r="32.196" transform="translate(593.126 446.397)" fill="#fff"/>
    <path id="Path_3940" data-name="Path 3940" d="M1981.874,2391.959l-5.862,36.1-7.713-3.394,3.856-33.319Z" transform="translate(-1255.957 -2116.354)" fill="#fec739"/>
    <path id="Path_3942" data-name="Path 3942" d="M1883.765,2459.207s26.046,9.832,30.872,9.832,13.1-6.89,15.167-15.512,12.064-46.536,16.891-50.328,20.683-11.376,20.683-11.376l-7.928-.689,8.958-8.618s-10.34,5.86-18.959,4.823-16.546,18.959-18.961,26.2-16.891,34.472-20.683,32.4c-1.378-.749-4.042-2.166-6.885-3.669-5-2.644-10.541-5.55-10.541-5.55Z" transform="translate(-1209.684 -2111.524)" fill="#fec739"/>
    <path id="Path_3943" data-name="Path 3943" d="M1963.689,2393.144l-8.268,57.567-18.341,2.617,12.38-47.288s-7.176-15.93,7.685-20.48c-3.1,11.031-.689,22.751-.689,22.751" transform="translate(-1238.868 -2113.189)" fill="#fec739"/>
    <path id="Path_3944" data-name="Path 3944" d="M1898.952,2373.823l.212,8.958,108.644,6.292-.264-21.807Z" transform="translate(-1217.997 -2103.176)" fill="#313131"/>
    <path id="Path_3946" data-name="Path 3946" d="M1914.095,2870.757l14.672-.568-3.241,16.451h-13.045Z" transform="translate(-1225.836 -2378.468)" fill="#019e96"/>
    <path id="Path_3950" data-name="Path 3950" d="M1815.763,2620.506s-17,.823-16.656,32.189c0,0,.344,13.443.344,24.476,0,0-9.307-2.757-30.68.689-24.474,2.756-44.468,2.756-49.984-11.72s-3.012-23.21.089-33.552,3.809-13.422,3.809-13.422l36.783,1.447-.349,10.022S1792.742,2618.235,1815.763,2620.506Z" transform="translate(-1117.595 -2241.062)" fill="#ff8e9e"/>
    <path id="Path_3951" data-name="Path 3951" d="M1945.664,2912.406c1.845,1.171,1.532,3.663-.5,4-18.891,3.105-27.008,2.63-37.881,1.3a3.524,3.524,0,0,1-3.205-3.816q.01-.12.029-.239a106.887,106.887,0,0,1,3.39-11.1,164.727,164.727,0,0,1,24.339,2.042l.016-.028c1.378.718,2.861,1.516,4.631,2.484C1939.6,2908.753,1942.676,2910.523,1945.664,2912.406Z" transform="translate(-1220.796 -2396.183)" fill="#313131"/>
    <path id="Path_3953" data-name="Path 3953" d="M1968.8,2387.517s-5.808,2.506-7.471,7.553,7.776,3.315,7.776,3.315S1964.729,2395.37,1968.8,2387.517Z" transform="translate(-1252.036 -2114.261)" fill="#fec739"/>
    <circle id="Ellipse_474" data-name="Ellipse 474" cx="3.937" cy="3.937" r="3.937" transform="translate(610.351 473.735)" fill="#019e96"/>
    <circle id="Ellipse_475" data-name="Ellipse 475" cx="3.937" cy="3.937" r="3.937" transform="translate(622.163 473.735)" fill="#019e96"/>
    <circle id="Ellipse_476" data-name="Ellipse 476" cx="3.937" cy="3.937" r="3.937" transform="translate(633.976 473.735)" fill="#019e96"/>
    <path id="Path_4103" data-name="Path 4103" d="M1729.441,2537.453s13.139-51.981,15.828-60.723,9.639-20.175,38.108-7.174c22.116,10.1,25.744,12.388,25.744,12.388s-1.093,15.209-9.832,21.7a178.862,178.862,0,0,1-17.29-5.763s2.187,9.76-1.356,16.274-15.535,10.737-13.91,31.377l1.625,20.642c-36.763-23.089-38.918-28.719-38.918-28.719" transform="translate(-1125.209 -2155.957)" fill="#ff8e9e"/>
    <ellipse id="Ellipse_570" data-name="Ellipse 570" cx="7.073" cy="10.863" rx="7.073" ry="10.863" transform="translate(782.737 264.171)" fill="#fec739"/>
    <ellipse id="Ellipse_571" data-name="Ellipse 571" cx="2.944" cy="4.522" rx="2.944" ry="4.522" transform="translate(678.547 270.584)" fill="#313131"/>
    <ellipse id="Ellipse_572" data-name="Ellipse 572" cx="3.32" cy="5.594" rx="3.32" ry="5.594" transform="translate(786.839 269.729)" fill="#313131"/>
    <path id="Path_4104" data-name="Path 4104" d="M1957.547,2436.727c-3.75,6.911-7.759,13.683-11.838,20.4q-4.732,7.8-9.62,15.5a3.726,3.726,0,0,1-1.173,1.445,1.858,1.858,0,0,1-1.835-.137l-2.745-1.467c-.578-.309-1.093.57-.514.879l2.544,1.36a4.339,4.339,0,0,0,1.266.531,2.722,2.722,0,0,0,2.337-.683,6.761,6.761,0,0,0,.975-1.379q.424-.667.845-1.335,1.057-1.672,2.106-3.349,6.009-9.6,11.772-19.352c2.312-3.934,4.581-7.894,6.757-11.9.312-.576-.567-1.091-.879-.514Z" transform="translate(-1234.756 -2141.059)" fill="#313131"/>
    <path id="Path_4105" data-name="Path 4105" d="M1791.39,2649.306c-.9,8.6-8.249,14.353-14.633,19.2-.516.391-.009,1.276.514.879,5.38-4.086,11.027-8.43,13.759-14.824a18.139,18.139,0,0,0,1.379-5.257c.068-.651-.95-.646-1.018,0Z" transform="translate(-1150.992 -2257.293)" fill="#313131"/>
    <path id="Path_4106" data-name="Path 4106" d="M1837.283,2536.312q-5.15-1.67-10.305-3.322-9.678-3.107-19.377-6.15c-2.784-.867-5.569-1.734-8.369-2.545a.509.509,0,0,0-.271.982c5.661,1.64,11.276,3.447,16.893,5.23q8.769,2.783,17.522,5.612,1.818.587,3.636,1.176c.625.2.892-.781.271-.982Z" transform="translate(-1163.067 -2189.118)" fill="#313131"/>
  </g>
</svg>
