<svg xmlns="http://www.w3.org/2000/svg" width="237.715" height="316.396" viewBox="0 0 237.715 316.396">
  <g id="Group_2988" data-name="Group 2988" transform="translate(-960.577 -161.288)">
    <g id="Group_2808" data-name="Group 2808" transform="translate(-1565.989 -1988.637)">
      <path id="Path_4094" data-name="Path 4094" d="M2739.072,2198.2s7.954,1,9.982-1.133c5.683-5.964,3.983-22.072,3.983-22.072l-13.193.912" transform="translate(-108.602 -11.086)" fill="#313131"/>
      <path id="Path_3899" data-name="Path 3899" d="M2540.337,2258.183a1.286,1.286,0,0,0-1.611.844,1.25,1.25,0,0,0-.047.215l-2.586,15.8c2.965,3.136,5.973,6.237,8.907,9.451q-1.537,2.893-2.923,5.865l.576.292c1.737.88,3.485,1.734,5.275,2.515a1.28,1.28,0,0,0,1.736-1.192l.019-.44,1.355-28.025a1.365,1.365,0,0,0-.774-1.323C2547.016,2260.741,2543.7,2259.387,2540.337,2258.183Z" transform="translate(-4.446 -53.743)" fill="#313131"/>
      <path id="Path_3900" data-name="Path 3900" d="M2651.713,2767.734c-2.1,1.4-1.771,4.417.53,4.848,21.4,3.949,30.607,3.457,42.952,1.959a4.215,4.215,0,0,0,3.665-4.7c-.007-.056-.015-.113-.024-.169a136.529,136.529,0,0,0-3.74-13.472,175.336,175.336,0,0,0-27.625,2.224l-.017-.035c-1.573.855-3.261,1.806-5.277,2.965C2658.626,2763.375,2655.119,2765.487,2651.713,2767.734Z" transform="translate(-63.055 -309.321)" fill="#313131"/>
      <path id="Path_3901" data-name="Path 3901" d="M2882.237,2710.872c-.088,2.642,2.444,4.036,4.063,2.24,15.022-16.73,19.782-25.16,25.519-36.922,1.105-2.26.25-5.14-1.756-5.946a116.052,116.052,0,0,0-12.561-4.213,203.1,203.1,0,0,0-13.7,25.692h-.037c-.212,1.871-.417,3.895-.646,6.325C2882.708,2702.32,2882.392,2706.6,2882.237,2710.872Z" transform="translate(-182.063 -263.053)" fill="#313131"/>
      <path id="Path_3902" data-name="Path 3902" d="M2531.646,2290.661l-1.975-2.1a97.869,97.869,0,0,0-2.243,16.264c2.647,2.542,5.2,4.893,7.689,7.054q.837-2.182,1.787-4.305c.239-.538.482-1.059.729-1.6q1.377-2.973,2.923-5.865C2537.62,2296.9,2534.615,2293.8,2531.646,2290.661Z" transform="translate(0 -69.363)" fill="#fec739"/>
      <path id="Path_3903" data-name="Path 3903" d="M2545.73,2319.483c-.247.529-.49,1.059-.73,1.6q-.945,2.126-1.787,4.305v.009c9.983,8.708,19,14.553,29.311,18.674a13.332,13.332,0,0,0,13.12-1.83c5.515-4.2,10.54-8.286,15.423-12.6a156.235,156.235,0,0,0-12.6-14.761c-2.635,3.3-5.331,6.777-8.144,10.5a132.653,132.653,0,0,0-26.989-4.725l-.02.441a1.279,1.279,0,0,1-1.281,1.276,1.262,1.262,0,0,1-.455-.085c-1.79-.781-3.539-1.635-5.275-2.515Z" transform="translate(-8.1 -82.865)" fill="#fec739"/>
      <path id="Path_3904" data-name="Path 3904" d="M2832.424,2268.535a146.4,146.4,0,0,1-3.041,21.36c3.729.2,7.624.369,11.829.53,21.329,25.651,35.849,37.458,54.2,44.155a24.033,24.033,0,0,0,9.173,1.2c.973-.093,1.94-.18,2.9-.267a90.909,90.909,0,0,1-4.871-9.917,49,49,0,0,1-9.69-.07c-13.514-16.88-25.057-30.813-38.736-46.66a20.547,20.547,0,0,0-8.347-5.875C2841.192,2271.239,2836.749,2269.765,2832.424,2268.535Z" transform="translate(-154.943 -59.085)" fill="#fec739"/>
      <g id="Group_2765" data-name="Group 2765" transform="translate(2706.565 2246.973)">
        <path id="Path_3905" data-name="Path 3905" d="M2896.832,2348.677a7.743,7.743,0,0,0,1.3-1.383c.157-.2.317-.4.485-.59a.686.686,0,0,0-.029-.925.587.587,0,0,0-.831-.008.453.453,0,0,0-.037.038c-.18.205-.351.423-.523.635a4.905,4.905,0,0,1-1.471,1.409.678.678,0,0,0-.308.865.6.6,0,0,0,.773.345l.039-.016A3.348,3.348,0,0,0,2896.832,2348.677Z" transform="translate(-2895.367 -2345.604)" fill="#fff"/>
      </g>
      <g id="Group_2766" data-name="Group 2766" transform="translate(2709.435 2250.516)">
        <path id="Path_3906" data-name="Path 3906" d="M2902.231,2356.262a16.322,16.322,0,0,0,2.276-2.276.689.689,0,0,0-.027-.927.585.585,0,0,0-.827-.011.529.529,0,0,0-.037.04,15.191,15.191,0,0,1-2.1,2.11.683.683,0,0,0-.14.913.589.589,0,0,0,.813.181C2902.2,2356.282,2902.217,2356.272,2902.231,2356.262Z" transform="translate(-2901.262 -2352.882)" fill="#fff"/>
      </g>
      <path id="Path_3907" data-name="Path 3907" d="M2791.025,2245.683s5.812.8,6.937,10.2,13.686,68.419-2.062,65.015-30.56-14.6-30.56-14.6l10.686-56.616Z" transform="translate(-122.081 -47.359)" fill="#ff8e9e"/>
      <path id="Path_3908" data-name="Path 3908" d="M2689.007,2261.089s-3.375-18.405,3.562-21.806,28.31-5.4,42-3.2,16.874,4.2,16.874,4.2-9.374,5.8-9.187,20.406,2.061,55.416,14.062,54.816c-17.624,3.8-44.622-5.4-44.622-5.4Z" transform="translate(-82.491 -41.959)" fill="#313131"/>
      <path id="Path_3912" data-name="Path 3912" d="M2673.336,2441.253l3.574,15.036s-23.339,32.982-27.966,40.161-6.728,23.109,1.683,57.212,8.831,35.674,8.831,35.674,5.887,1.121,7.36,6.282c10.723.674,29.436,0,29.436,0a292.256,292.256,0,0,1-11.354-33.205c-5.467-19.519-8.2-35.9-9.251-39.488s-.636-9.424,1.892-12.564l11.356-14.135s.212,22.885,14.294,34.1,51.3,41.731,51.3,41.731,4.626-3.59,11.776,1.347c6.939-9.424,16.823-24.46,16.823-24.46s-21.868-11.891-35.325-23.109-25.861-17.276-27.124-29.841-3.995-33.654-3.995-33.654,8.2-3.274,8.2-20.035Z" transform="translate(-60.277 -147.712)" fill="#fff"/>
      <path id="Path_3913" data-name="Path 3913" d="M2734.927,2518.785l2.608-3.3,6.292-7.949,7.585-9.584,6.559-8.285c1.064-1.346,2.144-2.679,3.2-4.038l.043-.055a1.173,1.173,0,0,0,0-1.541.985.985,0,0,0-1.392-.053c-.018.017-.036.034-.052.053l-2.607,3.295-6.292,7.949-7.586,9.584-6.558,8.285c-1.065,1.345-2.146,2.679-3.2,4.038l-.044.055a1.176,1.176,0,0,0,0,1.542.986.986,0,0,0,1.393.052c.018-.017.035-.034.052-.052Z" transform="translate(-105.585 -169.505)"/>
      <path id="Path_3914" data-name="Path 3914" d="M2710.458,2463.268l4.794-6.883.672-.967a1.138,1.138,0,0,0-.366-1.492,1.01,1.01,0,0,0-1.382.363l-.016.028-4.794,6.883-.673.967a1.14,1.14,0,0,0,.366,1.492,1.009,1.009,0,0,0,1.38-.362l.017-.03Z" transform="translate(-92.942 -154.145)"/>
      <rect id="Rectangle_1429" data-name="Rectangle 1429" width="19.726" height="45.259" rx="9.863" transform="matrix(1, 0.003, -0.003, 1, 2616.604, 2173.337)" fill="#fec739"/>
      <circle id="Ellipse_560" data-name="Ellipse 560" cx="16.771" cy="16.771" r="16.771" transform="translate(2602.793 2155.394)" fill="#fec739"/>
      <circle id="Ellipse_561" data-name="Ellipse 561" cx="16.771" cy="16.771" r="16.771" transform="translate(2602.762 2164.67)" fill="#fec739"/>
      <rect id="Rectangle_1430" data-name="Rectangle 1430" width="9.035" height="33.541" transform="translate(2602.763 2181.144) rotate(-89.809)" fill="#fec739"/>
      <circle id="Ellipse_562" data-name="Ellipse 562" cx="1.957" cy="1.957" r="1.957" transform="translate(2606.037 2173.829)" fill="#313131"/>
      <circle id="Ellipse_563" data-name="Ellipse 563" cx="1.957" cy="1.957" r="1.957" transform="translate(2617.594 2173.867)" fill="#313131"/>
      <path id="Path_4095" data-name="Path 4095" d="M2701.05,2197.842l-.937,7.409-.133,1.048c-.056.445.409.783.8.8l1.947.1c1.03.054,1.032-1.547.005-1.6l-1.948-.1.8.8.937-7.409.132-1.048a.8.8,0,0,0-.8-.8.82.82,0,0,0-.8.8Z" transform="translate(-88.54 -22.4)" fill="#313131"/>
      <path id="Path_4096" data-name="Path 4096" d="M2704.258,2225.7c1.892.319,4.242.163,5.5-1.462a.8.8,0,0,0-.283-1.1.826.826,0,0,0-1.1.284c.146-.188,0,0-.039.031s-.1.1-.146.14c-.123.108-.04-.006.006,0-.025,0-.14.1-.166.114a3.04,3.04,0,0,1-.31.171c-.2.1.09-.027-.043.022l-.144.053a4.86,4.86,0,0,1-.749.19.965.965,0,0,0-.2.032c.085-.038.151-.018.012,0-.123.014-.246.023-.37.031a8.8,8.8,0,0,1-1.211-.018c-.127-.011-.254-.025-.381-.04-.147-.017.256.037.094.013l-.042-.007a.82.82,0,0,0-.986.556.81.81,0,0,0,.556.987Z" transform="translate(-90.441 -35.74)" fill="#313131"/>
      <ellipse id="Ellipse_564" data-name="Ellipse 564" cx="5.201" cy="3.687" rx="5.201" ry="3.687" transform="matrix(0.936, -0.353, 0.353, 0.936, 2630.898, 2172.541)" fill="#fec739"/>
      <path id="Path_4097" data-name="Path 4097" d="M2704.485,2262.3s16.221-.106,30.263.532c-18.885,25.636-28.194,20.119-28.194,20.119" transform="translate(-90.854 -55.884)" fill="#fec739"/>
      <path id="Path_3909" data-name="Path 3909" d="M2637.234,2309.569l9.54-9.141s2.918,14.255,3.667,20.9-.25,22.332-1.744,28.712c12.706,0,73.5.53,73.5.53s-20.43-28.385-18.935-61.78c18.188,0,23.669.635,23.669.635,3.534-8.966,0-26.585,0-26.585h-37.621s-9.717,14.888-21.926,12.76c-7.972-1.861-4.734-13.293-4.734-13.293h-10.96c-3.488,0-8.471,1.595-13.454,7.178s-18.521,19.305-18.521,19.305S2623.669,2306.849,2637.234,2309.569Z" transform="translate(-47.355 -55.891)" fill="#019e96"/>
      <path id="Path_3910" data-name="Path 3910" d="M2685.379,2251.162a22.274,22.274,0,0,0-1.631,1.857,46.988,46.988,0,0,0-3.812,5.5,53.946,53.946,0,0,0-4.206,8.821,54.759,54.759,0,0,0-2.956,11.937,59.869,59.869,0,0,0-.069,14.915q.126,1.059.284,2.111a.714.714,0,0,0,.856.535l.021-.005a.786.786,0,0,0,.5-.935,59.6,59.6,0,0,1-.366-14.905,54.053,54.053,0,0,1,2.671-12.029,52.017,52.017,0,0,1,4.023-8.867q.957-1.677,2.039-3.269.24-.353.485-.7l.212-.293.069-.1c0,.006-.075.106-.026.036l.117-.162q.412-.559.84-1.1c.615-.781,1.281-1.5,1.933-2.242l.026-.028c.675-.666-.334-1.74-1.007-1.074Z" transform="translate(-74.324 -50.063)"/>
      <path id="Path_3911" data-name="Path 3911" d="M2772.809,2254.566c-.647,1.327-1.2,2.714-1.73,4.1a72.071,72.071,0,0,0-3.022,9.841,50.606,50.606,0,0,0-1.405,12.827,28.451,28.451,0,0,0,3.222,12.855,23.455,23.455,0,0,0,10.788,9.81q1.006.469,2.04.871c.862.336,1.235-1.133.378-1.466a23.086,23.086,0,0,1-11.288-8.823,25.451,25.451,0,0,1-3.656-12,45.977,45.977,0,0,1,1.046-12.541,70.924,70.924,0,0,1,2.931-10.069q.18-.487.368-.97.078-.2.157-.407c.079-.2-.049.121.031-.078.027-.07.055-.14.084-.212q.286-.71.586-1.413c.212-.5.447-1,.67-1.493l.031-.063c.423-.867-.807-1.637-1.23-.768Z" transform="translate(-122.75 -51.72)"/>
      <path id="Path_4098" data-name="Path 4098" d="M2674.567,2173.371s2.445-10.919,12.406-11.11c-.208,5.139,5.364,11.3,9.961,9s4.789,2.107,4.789,2.107,1.731,3.669,5.846-2.667c2-.444,6.605-1.355,6.605-1.355s5.938-7.279-2.3-12.26-26.831-3.49-26.831-3.49-15.292-.747-17.683,18.473C2669.278,2172.646,2674.567,2173.371,2674.567,2173.371Z" transform="translate(-71.805)" fill="#313131"/>
    </g>
    <g id="Group_2773" data-name="Group 2773" transform="translate(926.651 199.774)">
      <g id="Group_2083" data-name="Group 2083" transform="translate(33.927 186.527)">
        <path id="Path_2789" data-name="Path 2789" d="M2038.6,2828.659c-2.73,2.211-5.45,2.433-7.847,2.629-2.036.166-3.8.313-5.375,1.59a7.759,7.759,0,0,0-2.5,6.484,1.1,1.1,0,0,1-2.193.129,9.975,9.975,0,0,1,3.307-8.318c2.106-1.705,4.38-1.892,6.578-2.073,2.286-.186,4.448-.366,6.647-2.147,2.793-2.262,3.057-4.392,3.34-6.649.266-2.131.542-4.337,2.931-6.271,1.875-1.519,4.393-1.688,6.823-1.852,2.54-.17,5.167-.346,7.2-1.991,1.345-1.089,1.909-3.043,2.51-5.113.7-2.422,1.427-4.931,3.494-6.6,1.177-.953,3.279-1.1,6.184-1.309.789-.057,1.629-.116,2.5-.2a1.1,1.1,0,0,1,.243,2.181l-.04,0c-.887.085-1.744.145-2.549.2-2.123.152-4.317.307-4.959.826-1.53,1.239-2.13,3.313-2.767,5.51-.666,2.3-1.354,4.689-3.234,6.211-2.573,2.084-5.687,2.291-8.434,2.474-2.283.152-4.257.28-5.593,1.362-1.7,1.379-1.892,2.906-2.134,4.838C2042.447,2822.921,2042.082,2825.841,2038.6,2828.659Z" transform="translate(-2020.651 -2796.959)" fill="#ff8e9e"/>
      </g>
      <g id="Group_2084" data-name="Group 2084" transform="translate(35.893 -38.486)">
        <path id="Path_2790" data-name="Path 2790" d="M2150.335,2472.594a1.1,1.1,0,0,1-.736-.281l-4.291-3.857c-3.983-3.574-8.1-7.271-12.067-10.94a1.1,1.1,0,0,1-.061-1.551c.026-.028.055-.055.083-.081q3.926-3.433,7.805-6.866c3.445-3.042,6.891-6.085,10.4-9.126a1.1,1.1,0,0,1,1.515.072q4.5,4.716,8.933,9.489,3.279,3.505,6.569,7a1.1,1.1,0,0,1-.043,1.55c-.021.02-.043.039-.065.057-5.7,4.6-11.585,9.361-17.325,14.274A1.1,1.1,0,0,1,2150.335,2472.594Zm-14.706-15.862c3.676,3.385,7.469,6.792,11.146,10.09l3.58,3.215c5.217-4.444,10.544-8.755,15.721-12.94q-2.891-3.064-5.763-6.146-4.087-4.369-8.2-8.715c-3.228,2.809-6.41,5.618-9.593,8.426q-3.441,3.035-6.9,6.069Z" transform="translate(-2132.889 -2439.622)" fill="#019e96"/>
      </g>
      <g id="Group_2085" data-name="Group 2085" transform="translate(245.793 -22)">
        <path id="Path_2791" data-name="Path 2791" d="M1644.665,2409.641c-5.5,0-11.4-6.259-11.4-10.662,0-.367-.027-.737-.052-1.108-.029-.42-.057-.84-.057-1.259,0-5.44,6.018-11.762,13.774-11.762a12.535,12.535,0,0,1,4.288.736,10.836,10.836,0,0,1,6.519,5.9,12.119,12.119,0,0,1,1.267,5.142c0,5.672-5.228,12.869-11.1,12.869-.582,0-1.125.038-1.651.075C1645.706,2409.605,1645.188,2409.641,1644.665,2409.641Zm2.264-22.595c-6.415,0-11.579,5.234-11.579,9.566,0,.367.028.738.053,1.107.029.42.057.841.057,1.259,0,3.266,5.025,8.466,9.2,8.466.472,0,.946-.033,1.434-.068.575-.041,1.169-.08,1.8-.08,4.5,0,8.908-6.112,8.908-10.673a9.856,9.856,0,0,0-1.089-4.276,8.7,8.7,0,0,0-5.251-4.7,10.334,10.334,0,0,0-3.536-.6Z" transform="translate(-1633.157 -2384.85)" fill="#ff8e9e"/>
      </g>
      <g id="Group_2086" data-name="Group 2086" transform="translate(255.352 148.905)">
        <path id="Path_2792" data-name="Path 2792" d="M1638.057,2700.426a8.882,8.882,0,0,0-4.9,8,7,7,0,0,0,6.835,7.17c.134,0,.267,0,.4,0,5.591,0,9.05-4.91,9.05-9.333,0-4.725-4.987-6.807-7.481-6.807A8.636,8.636,0,0,0,1638.057,2700.426Z" transform="translate(-1633.154 -2699.45)" fill="#ff8e9e"/>
      </g>
      <g id="Group_2087" data-name="Group 2087" transform="translate(35.893 135.872)">
        <path id="Path_2793" data-name="Path 2793" d="M2098.082,2698.076a1.1,1.1,0,0,1-.7-1.941c3.238-2.7,6.517-5.157,9.689-7.537,1.464-1.1,2.927-2.194,4.39-3.317a1.1,1.1,0,1,1,1.363,1.721l-.028.021c-1.47,1.128-2.938,2.23-4.409,3.332-3.15,2.363-6.408,4.805-9.6,7.467A1.1,1.1,0,0,1,2098.082,2698.076Z" transform="translate(-2096.982 -2685.043)" fill="#fec739"/>
      </g>
    </g>
  </g>
</svg>
