<svg xmlns="http://www.w3.org/2000/svg" xmlns:xlink="http://www.w3.org/1999/xlink" width="73.587" height="43.391" viewBox="0 0 73.587 43.391">
  <defs>
    <clipPath id="clip-path">
      <rect id="Rectangle_1343" data-name="Rectangle 1343" width="17.816" height="35.413" fill="none"/>
    </clipPath>
    <clipPath id="clip-path-2">
      <rect id="Rectangle_1346" data-name="Rectangle 1346" width="17.816" height="35.413" transform="translate(4.859 0) rotate(7.886)" fill="none"/>
    </clipPath>
  </defs>
  <g id="Group_3282" data-name="Group 3282" transform="translate(-3017.413 13966.43)">
    <g id="Group_2496" data-name="Group 2496" transform="translate(227.573 -15159.558)">
      <path id="Path_3769" data-name="Path 3769" d="M2861.083,1237.947a1.834,1.834,0,0,1,1.749-1.83v-1.27a1.831,1.831,0,0,1,0-3.658v-1.27a1.831,1.831,0,0,1,0-3.658v-1.271a1.831,1.831,0,0,1,0-3.658V1219.3a3.864,3.864,0,0,1-3.864-3.864c0-.057.006-.113.008-.169h-59.07a3.864,3.864,0,0,1-3.864,3.864c-.1,0-.208-.007-.31-.016v2.216c.043,0,.084-.013.128-.013a1.838,1.838,0,1,1,0,3.677c-.043,0-.084-.01-.128-.012v1.278c.043,0,.084-.013.128-.013a1.839,1.839,0,0,1,0,3.677c-.043,0-.084-.01-.128-.013v1.278c.043,0,.084-.013.128-.013a1.838,1.838,0,1,1,0,3.676c-.043,0-.084-.01-.128-.013v1.278c.043,0,.084-.013.128-.013a1.838,1.838,0,1,1,0,3.676c-.043,0-.084-.009-.128-.012v3.48c.1-.008.205-.016.31-.016a3.864,3.864,0,0,1,3.864,3.864h59.062a3.864,3.864,0,0,1,3.864-3.864v-3.461A1.834,1.834,0,0,1,2861.083,1237.947Z" transform="translate(-5.892 -11.134)" fill="#313131"/>
      <g id="Group_2490" data-name="Group 2490" transform="translate(2839.124 1201.105)">
        <g id="Group_2489" data-name="Group 2489" clip-path="url(#clip-path)">
          <path id="Path_3770" data-name="Path 3770" d="M2861.083,1238.019a1.834,1.834,0,0,1,1.749-1.83v-1.27a1.831,1.831,0,0,1,0-3.658v-1.27a1.831,1.831,0,0,1,0-3.658v-1.271a1.831,1.831,0,0,1,0-3.659v-2.027a3.864,3.864,0,0,1-3.864-3.865c0-.057.006-.113.008-.169h-59.07a3.864,3.864,0,0,1-3.864,3.864c-.1,0-.208-.008-.31-.015v2.216c.043,0,.084-.013.128-.013a1.838,1.838,0,1,1,0,3.677c-.043,0-.084-.01-.128-.012v1.278c.043,0,.084-.013.128-.013a1.839,1.839,0,0,1,0,3.677c-.043,0-.084-.01-.128-.013v1.278c.043,0,.084-.013.128-.013a1.838,1.838,0,1,1,0,3.677c-.043,0-.084-.01-.128-.013v1.278c.043,0,.084-.013.128-.013a1.838,1.838,0,1,1,0,3.676c-.043,0-.084-.009-.128-.012v3.48c.1-.008.205-.016.31-.016a3.864,3.864,0,0,1,3.864,3.864h59.062a3.864,3.864,0,0,1,3.864-3.864v-3.46A1.834,1.834,0,0,1,2861.083,1238.019Z" transform="translate(-2845.016 -1212.276)" fill="#195f5f"/>
        </g>
      </g>
      <g id="Group_2491" data-name="Group 2491" transform="translate(2801.344 1211.692)">
        <path id="Path_3771" data-name="Path 3771" d="M2818.873,1240.7h3.911v1.727h-3.911Z" transform="translate(-2818.873 -1235.615)"/>
        <path id="Path_3772" data-name="Path 3772" d="M2835.7,1234.616a2.945,2.945,0,0,1,1.2,1.058,2.851,2.851,0,0,1,.442,1.582,3.015,3.015,0,0,1-.484,1.7,3.155,3.155,0,0,1-1.32,1.126,4.3,4.3,0,0,1-1.859.394,4.109,4.109,0,0,1-3.179-1.244,5.052,5.052,0,0,1-1.147-3.552,5.954,5.954,0,0,1,.622-2.82,4.235,4.235,0,0,1,1.735-1.783,5.292,5.292,0,0,1,2.578-.608,6.3,6.3,0,0,1,1.486.173,3.984,3.984,0,0,1,1.209.49l-.829,1.645a3.172,3.172,0,0,0-1.81-.484,2.633,2.633,0,0,0-1.949.719,3.006,3.006,0,0,0-.775,2.087,3.234,3.234,0,0,1,2.392-.857A3.771,3.771,0,0,1,2835.7,1234.616Zm-.974,3.8a1.317,1.317,0,0,0,.449-1.051,1.339,1.339,0,0,0-.449-1.058,1.749,1.749,0,0,0-1.2-.394,1.769,1.769,0,0,0-1.2.408,1.4,1.4,0,0,0-.014,2.08,1.816,1.816,0,0,0,1.244.4A1.728,1.728,0,0,0,2834.724,1238.418Z" transform="translate(-2824.143 -1230.47)"/>
        <path id="Path_3773" data-name="Path 3773" d="M2853.408,1234.616a2.948,2.948,0,0,1,1.2,1.058,2.851,2.851,0,0,1,.442,1.582,3.011,3.011,0,0,1-.485,1.7,3.155,3.155,0,0,1-1.32,1.126,4.3,4.3,0,0,1-1.859.394,4.108,4.108,0,0,1-3.179-1.244,5.05,5.05,0,0,1-1.147-3.552,5.954,5.954,0,0,1,.622-2.82,4.234,4.234,0,0,1,1.735-1.783,5.292,5.292,0,0,1,2.578-.608,6.3,6.3,0,0,1,1.486.173,3.981,3.981,0,0,1,1.209.49l-.829,1.645a3.171,3.171,0,0,0-1.81-.484,2.634,2.634,0,0,0-1.949.719,3,3,0,0,0-.774,2.087,3.233,3.233,0,0,1,2.391-.857A3.771,3.771,0,0,1,2853.408,1234.616Zm-.974,3.8a1.316,1.316,0,0,0,.45-1.051,1.338,1.338,0,0,0-.45-1.058,1.749,1.749,0,0,0-1.2-.394,1.77,1.77,0,0,0-1.2.408,1.4,1.4,0,0,0-.014,2.08,1.817,1.817,0,0,0,1.244.4A1.727,1.727,0,0,0,2852.433,1238.418Z" transform="translate(-2833.049 -1230.47)"/>
        <path id="Path_3774" data-name="Path 3774" d="M2871.118,1234.616a2.941,2.941,0,0,1,1.2,1.058,2.849,2.849,0,0,1,.442,1.582,3.013,3.013,0,0,1-.484,1.7,3.157,3.157,0,0,1-1.32,1.126,4.3,4.3,0,0,1-1.859.394,4.108,4.108,0,0,1-3.179-1.244,5.052,5.052,0,0,1-1.147-3.552,5.948,5.948,0,0,1,.622-2.82,4.235,4.235,0,0,1,1.734-1.783,5.292,5.292,0,0,1,2.578-.608,6.3,6.3,0,0,1,1.486.173,3.993,3.993,0,0,1,1.209.49l-.83,1.645a3.173,3.173,0,0,0-1.81-.484,2.633,2.633,0,0,0-1.949.719,3,3,0,0,0-.774,2.087,3.232,3.232,0,0,1,2.391-.857A3.77,3.77,0,0,1,2871.118,1234.616Zm-.975,3.8a1.315,1.315,0,0,0,.45-1.051,1.336,1.336,0,0,0-.45-1.058,1.747,1.747,0,0,0-1.2-.394,1.77,1.77,0,0,0-1.2.408,1.4,1.4,0,0,0-.013,2.08,1.815,1.815,0,0,0,1.244.4A1.726,1.726,0,0,0,2870.143,1238.418Z" transform="translate(-2841.955 -1230.47)"/>
      </g>
      <rect id="Rectangle_1344" data-name="Rectangle 1344" width="31.489" height="0.497" transform="translate(2801.045 1225.069)"/>
      <rect id="Rectangle_1345" data-name="Rectangle 1345" width="31.489" height="0.497" transform="translate(2801.045 1229.044)"/>
      <path id="Path_3775" data-name="Path 3775" d="M2906.9,1223.581l.7,1.427a.366.366,0,0,0,.275.2l1.575.229a.366.366,0,0,1,.2.625l-1.139,1.111a.366.366,0,0,0-.105.324l.269,1.568a.366.366,0,0,1-.531.386l-1.408-.74a.365.365,0,0,0-.341,0l-1.409.74a.366.366,0,0,1-.531-.386l.269-1.568a.367.367,0,0,0-.105-.324l-1.139-1.111a.366.366,0,0,1,.2-.625l1.575-.229a.366.366,0,0,0,.275-.2l.7-1.427A.366.366,0,0,1,2906.9,1223.581Z" transform="translate(-60.022 -15.211)" fill="#fff"/>
      <path id="Path_3776" data-name="Path 3776" d="M2906.9,1242.138l.7,1.427a.364.364,0,0,0,.275.2l1.575.229a.366.366,0,0,1,.2.625l-1.139,1.111a.367.367,0,0,0-.105.324l.269,1.568a.366.366,0,0,1-.531.386l-1.408-.741a.368.368,0,0,0-.341,0l-1.409.741a.366.366,0,0,1-.531-.386l.269-1.568a.368.368,0,0,0-.105-.324l-1.139-1.111a.366.366,0,0,1,.2-.625l1.575-.229a.364.364,0,0,0,.275-.2l.7-1.427A.366.366,0,0,1,2906.9,1242.138Z" transform="translate(-60.022 -24.542)" fill="#fff"/>
      <path id="Path_3777" data-name="Path 3777" d="M2906.9,1260.694l.7,1.427a.365.365,0,0,0,.275.2l1.575.229a.367.367,0,0,1,.2.625l-1.139,1.111a.367.367,0,0,0-.105.324l.269,1.568a.366.366,0,0,1-.531.386l-1.408-.741a.365.365,0,0,0-.341,0l-1.409.741a.366.366,0,0,1-.531-.386l.269-1.568a.368.368,0,0,0-.105-.324l-1.139-1.111a.366.366,0,0,1,.2-.625l1.575-.229a.365.365,0,0,0,.275-.2l.7-1.427A.366.366,0,0,1,2906.9,1260.694Z" transform="translate(-60.022 -33.873)" fill="#fff"/>
      <g id="Group_2495" data-name="Group 2495" transform="translate(2792.707 1193.128)">
        <path id="Path_3778" data-name="Path 3778" d="M2866.959,1223.984a1.835,1.835,0,0,1,1.984-1.571l.174-1.258a1.831,1.831,0,0,1,.5-3.624l.174-1.258a1.831,1.831,0,0,1,.5-3.624l.174-1.258a1.831,1.831,0,0,1,.5-3.624l.278-2.008a3.863,3.863,0,0,1-3.3-4.357c.008-.057.021-.111.032-.167l-58.512-8.105a3.865,3.865,0,0,1-4.358,3.3c-.1-.015-.2-.036-.3-.058l-.3,2.2c.043,0,.085,0,.128,0a1.838,1.838,0,1,1-.5,3.642c-.043-.006-.083-.021-.125-.03l-.176,1.266c.043,0,.085,0,.129.005a1.838,1.838,0,0,1-.5,3.641c-.043-.006-.082-.021-.125-.03l-.175,1.266c.043,0,.085,0,.129,0a1.838,1.838,0,0,1-.5,3.642c-.044-.006-.083-.021-.125-.03l-.175,1.266c.043,0,.085,0,.129.005a1.838,1.838,0,1,1-.5,3.642c-.043-.006-.083-.022-.125-.031l-.478,3.447c.1.006.206.012.309.027a3.864,3.864,0,0,1,3.3,4.358l58.5,8.1a3.864,3.864,0,0,1,4.358-3.3l.475-3.428A1.835,1.835,0,0,1,2866.959,1223.984Z" transform="translate(-2801.499 -1193.128)" fill="#fec739"/>
        <g id="Group_2493" data-name="Group 2493" transform="translate(48.214 3.188)">
          <g id="Group_2492" data-name="Group 2492" transform="translate(0 0)" clip-path="url(#clip-path-2)">
            <path id="Path_3779" data-name="Path 3779" d="M2866.95,1224.056a1.833,1.833,0,0,1,1.983-1.572l.175-1.258a1.831,1.831,0,0,1,.5-3.624l.174-1.258a1.831,1.831,0,0,1,.5-3.624l.174-1.258a1.831,1.831,0,0,1,.5-3.624l.279-2.007a3.864,3.864,0,0,1-3.3-4.358c.008-.057.021-.112.032-.167l-58.512-8.1a3.864,3.864,0,0,1-4.358,3.3c-.1-.014-.2-.036-.3-.058l-.3,2.2c.043,0,.085,0,.129,0a1.838,1.838,0,1,1-.5,3.642c-.044-.006-.083-.021-.125-.03l-.176,1.266c.043,0,.085,0,.129,0a1.838,1.838,0,0,1-.5,3.642c-.043-.006-.083-.022-.125-.031l-.175,1.266c.043,0,.085,0,.129,0a1.838,1.838,0,0,1-.5,3.642c-.044-.006-.083-.021-.125-.031l-.176,1.266c.043,0,.085,0,.129,0a1.838,1.838,0,1,1-.5,3.642c-.043-.007-.083-.022-.125-.03l-.478,3.447c.1.006.206.013.309.027a3.864,3.864,0,0,1,3.3,4.358l58.5,8.1a3.864,3.864,0,0,1,4.357-3.3l.475-3.428A1.833,1.833,0,0,1,2866.95,1224.056Z" transform="translate(-2849.708 -1196.352)" fill="#019e96"/>
          </g>
        </g>
        <g id="Group_2494" data-name="Group 2494" transform="translate(13.263 9.822)">
          <path id="Path_3780" data-name="Path 3780" d="M2828.414,1220.343l3.875.537-.237,1.711-3.874-.536Z" transform="translate(-2828.178 -1216.635)"/>
          <path id="Path_3781" data-name="Path 3781" d="M2845.354,1217.247a2.952,2.952,0,0,1,1.046,1.212,2.855,2.855,0,0,1,.221,1.628,3.015,3.015,0,0,1-.713,1.618,3.162,3.162,0,0,1-1.462.935,4.311,4.311,0,0,1-1.9.135,4.109,4.109,0,0,1-2.979-1.669,5.056,5.056,0,0,1-.649-3.676,5.966,5.966,0,0,1,1-2.708,4.234,4.234,0,0,1,1.963-1.528,5.287,5.287,0,0,1,2.637-.249,6.27,6.27,0,0,1,1.448.375,3.964,3.964,0,0,1,1.13.652l-1.047,1.515a3.178,3.178,0,0,0-1.728-.727,2.633,2.633,0,0,0-2.028.445,3,3,0,0,0-1.054,1.961,3.235,3.235,0,0,1,2.486-.521A3.773,3.773,0,0,1,2845.354,1217.247Zm-1.487,3.631a1.317,1.317,0,0,0,.589-.979,1.335,1.335,0,0,0-.3-1.109,1.748,1.748,0,0,0-1.13-.554,1.767,1.767,0,0,0-1.247.239,1.4,1.4,0,0,0-.3,2.058,1.817,1.817,0,0,0,1.177.568A1.724,1.724,0,0,0,2843.867,1220.878Z" transform="translate(-2833.542 -1212.884)"/>
          <path id="Path_3782" data-name="Path 3782" d="M2862.9,1219.676a2.946,2.946,0,0,1,1.046,1.213,2.847,2.847,0,0,1,.221,1.628,3.015,3.015,0,0,1-.713,1.618,3.153,3.153,0,0,1-1.462.935,4.309,4.309,0,0,1-1.9.135,4.108,4.108,0,0,1-2.979-1.669,5.055,5.055,0,0,1-.649-3.675,5.967,5.967,0,0,1,1-2.708,4.238,4.238,0,0,1,1.963-1.528,5.294,5.294,0,0,1,2.637-.249,6.31,6.31,0,0,1,1.448.375,3.96,3.96,0,0,1,1.131.652l-1.047,1.515a3.17,3.17,0,0,0-1.727-.727,2.63,2.63,0,0,0-2.029.445,3,3,0,0,0-1.054,1.96,3.237,3.237,0,0,1,2.486-.521A3.77,3.77,0,0,1,2862.9,1219.676Zm-1.487,3.632a1.318,1.318,0,0,0,.589-.979,1.336,1.336,0,0,0-.3-1.109,1.745,1.745,0,0,0-1.13-.554,1.765,1.765,0,0,0-1.247.239,1.4,1.4,0,0,0-.3,2.058,1.816,1.816,0,0,0,1.177.568A1.726,1.726,0,0,0,2861.408,1223.308Z" transform="translate(-2842.363 -1214.105)"/>
          <path id="Path_3783" data-name="Path 3783" d="M2880.437,1222.106a2.948,2.948,0,0,1,1.046,1.213,2.853,2.853,0,0,1,.221,1.628,3.017,3.017,0,0,1-.713,1.618,3.16,3.16,0,0,1-1.462.935,4.309,4.309,0,0,1-1.895.135,4.106,4.106,0,0,1-2.978-1.669,5.05,5.05,0,0,1-.649-3.675,5.956,5.956,0,0,1,1-2.708,4.231,4.231,0,0,1,1.963-1.528,5.292,5.292,0,0,1,2.637-.249,6.3,6.3,0,0,1,1.448.375,3.957,3.957,0,0,1,1.13.652l-1.047,1.515a3.176,3.176,0,0,0-1.727-.727,2.63,2.63,0,0,0-2.029.444,3.005,3.005,0,0,0-1.054,1.961,3.235,3.235,0,0,1,2.486-.52A3.769,3.769,0,0,1,2880.437,1222.106Zm-1.487,3.632a1.314,1.314,0,0,0,.589-.979,1.335,1.335,0,0,0-.3-1.109,1.747,1.747,0,0,0-1.13-.554,1.766,1.766,0,0,0-1.247.239,1.4,1.4,0,0,0-.3,2.058,1.818,1.818,0,0,0,1.177.568A1.728,1.728,0,0,0,2878.951,1225.738Z" transform="translate(-2851.184 -1215.327)"/>
        </g>
        <rect id="Rectangle_1347" data-name="Rectangle 1347" width="0.497" height="31.489" transform="translate(11.998 22.193) rotate(-82.114)"/>
        <rect id="Rectangle_1348" data-name="Rectangle 1348" width="0.497" height="31.489" transform="translate(11.452 26.13) rotate(-82.114)"/>
        <path id="Path_3784" data-name="Path 3784" d="M2917.86,1215.9l.5,1.51a.367.367,0,0,0,.246.236l1.529.443a.366.366,0,0,1,.115.646l-1.281.944a.365.365,0,0,0-.149.307l.051,1.59a.366.366,0,0,1-.579.31l-1.293-.927a.366.366,0,0,0-.338-.047l-1.5.541a.366.366,0,0,1-.473-.456l.482-1.517a.367.367,0,0,0-.061-.336l-.976-1.256a.366.366,0,0,1,.286-.591l1.592-.01a.368.368,0,0,0,.3-.161l.894-1.317A.367.367,0,0,1,2917.86,1215.9Z" transform="translate(-2858.101 -1204.454)" fill="#fff"/>
        <path id="Path_3785" data-name="Path 3785" d="M2915.313,1234.284l.5,1.51a.365.365,0,0,0,.245.236l1.529.443a.366.366,0,0,1,.115.647l-1.281.944a.367.367,0,0,0-.149.307l.051,1.59a.366.366,0,0,1-.579.31l-1.293-.927a.363.363,0,0,0-.337-.047l-1.5.54a.366.366,0,0,1-.473-.455l.482-1.516a.367.367,0,0,0-.06-.336l-.976-1.257a.367.367,0,0,1,.287-.591l1.591-.01a.365.365,0,0,0,.3-.161l.894-1.317A.366.366,0,0,1,2915.313,1234.284Z" transform="translate(-2856.82 -1213.697)" fill="#fff"/>
        <path id="Path_3786" data-name="Path 3786" d="M2912.767,1252.665l.5,1.51a.365.365,0,0,0,.246.237l1.528.443a.366.366,0,0,1,.115.647l-1.281.944a.367.367,0,0,0-.149.306l.051,1.591a.366.366,0,0,1-.579.309l-1.293-.927a.366.366,0,0,0-.337-.047l-1.5.54a.366.366,0,0,1-.473-.455l.482-1.517a.366.366,0,0,0-.061-.335l-.976-1.257a.366.366,0,0,1,.287-.591l1.591-.011a.366.366,0,0,0,.3-.161l.894-1.316A.366.366,0,0,1,2912.767,1252.665Z" transform="translate(-2855.54 -1222.94)" fill="#fff"/>
      </g>
    </g>
  </g>
</svg>
