<svg xmlns="http://www.w3.org/2000/svg" width="102.531" height="61.865" viewBox="0 0 102.531 61.865">
  <g id="Group_3283" data-name="Group 3283" transform="translate(-3156.03 13975.258)">
    <g id="Group_2733" data-name="Group 2733" transform="translate(3186 -13964.36)">
      <g id="Group_2310" data-name="Group 2310" transform="translate(0 0)">
        <path id="Path_3289" data-name="Path 3289" d="M2195.771,2022.023h-1.432a16.624,16.624,0,0,0-8.311,2.227l-1.24.716a16.622,16.622,0,0,0-6.084,6.084l-.716,1.24a16.621,16.621,0,0,0-2.227,8.312v1.432a16.619,16.619,0,0,0,2.227,8.311l.716,1.24a16.621,16.621,0,0,0,6.084,6.084l1.24.716a16.623,16.623,0,0,0,8.311,2.227h1.432a16.622,16.622,0,0,0,8.311-2.227l1.24-.716a16.62,16.62,0,0,0,6.084-6.084l.716-1.24a16.624,16.624,0,0,0,2.227-8.311V2040.6a16.626,16.626,0,0,0-2.227-8.312l-.716-1.24a16.621,16.621,0,0,0-6.084-6.084l-1.24-.716A16.623,16.623,0,0,0,2195.771,2022.023Z" transform="translate(-2175.76 -2022.023)" fill="#019e96"/>
        <path id="Path_3288" data-name="Path 3288" d="M2208.966,2026.421h-1.432a16.622,16.622,0,0,0-8.311,2.227l-1.24.716a16.628,16.628,0,0,0-6.084,6.084l-.716,1.24a16.622,16.622,0,0,0-2.227,8.311v1.432a16.624,16.624,0,0,0,2.227,8.311l.716,1.24a16.625,16.625,0,0,0,6.084,6.084l1.24.716a16.622,16.622,0,0,0,8.311,2.227h1.432a16.622,16.622,0,0,0,8.312-2.227l1.24-.716a16.623,16.623,0,0,0,6.084-6.084l.716-1.24a16.624,16.624,0,0,0,2.227-8.311V2045a16.622,16.622,0,0,0-2.227-8.311l-.716-1.24a16.626,16.626,0,0,0-6.084-6.084l-1.24-.716A16.622,16.622,0,0,0,2208.966,2026.421Z" transform="translate(-2186.969 -2025.759)" fill="#ffc517"/>
        <ellipse id="Ellipse_320" data-name="Ellipse 320" cx="14.966" cy="14.966" rx="14.966" ry="14.966" transform="translate(6.315 4.991)" fill="#fff"/>
        <path id="Path_3291" data-name="Path 3291" d="M2244.344,2059.751a14.968,14.968,0,0,1,25.67,7.885" transform="translate(-2234.019 -2050.076)" fill="none" stroke="#313131" stroke-linecap="round" stroke-miterlimit="10" stroke-width="1"/>
        <path id="Path_3290" data-name="Path 3290" d="M2275.7,2184.016a14.97,14.97,0,0,1-24.093,6.862" transform="translate(-2240.184 -2159.627)" fill="none" stroke="#313131" stroke-linecap="round" stroke-miterlimit="10" stroke-width="1"/>
      </g>
      <circle id="Ellipse_497" data-name="Ellipse 497" cx="11.5" cy="11.5" r="11.5" transform="translate(10 8.36)" fill="#ffc517"/>
    </g>
    <g id="Group_2731" data-name="Group 2731" transform="translate(3215.079 -13944.734)">
      <path id="Path_3567" data-name="Path 3567" d="M3.294,8.53,0,0" transform="matrix(-0.914, -0.407, 0.407, -0.914, 37.451, 11.21)" fill="none" stroke="#fec739" stroke-linecap="round" stroke-width="3"/>
      <path id="Path_3834" data-name="Path 3834" d="M3.294,8.53,0,0" transform="translate(28.879 3.196) rotate(-76)" fill="none" stroke="#fec739" stroke-linecap="round" stroke-width="3"/>
      <path id="Path_3835" data-name="Path 3835" d="M481.619,2344.135s-14.944,19.671-37.12,26.46" transform="translate(-444.499 -2341.127)" fill="none" stroke="#ffc517" stroke-linecap="round" stroke-width="3"/>
    </g>
    <g id="Group_2744" data-name="Group 2744" transform="matrix(-1, -0.017, 0.017, -1, 3199.462, -13943.237)">
      <path id="Path_3567-2" data-name="Path 3567" d="M3.294,8.53,0,0" transform="matrix(-0.914, -0.407, 0.407, -0.914, 37.451, 11.21)" fill="none" stroke="#fec739" stroke-linecap="round" stroke-width="3"/>
      <path id="Path_3834-2" data-name="Path 3834" d="M3.294,8.53,0,0" transform="translate(28.879 3.196) rotate(-76)" fill="none" stroke="#fec739" stroke-linecap="round" stroke-width="3"/>
      <path id="Path_3835-2" data-name="Path 3835" d="M481.619,2344.135s-14.944,19.671-37.12,26.46" transform="translate(-444.499 -2341.127)" fill="none" stroke="#ffc517" stroke-linecap="round" stroke-width="3"/>
    </g>
  </g>
</svg>
