<svg xmlns="http://www.w3.org/2000/svg" width="73.183" height="60.937" viewBox="0 0 73.183 60.937">
  <g id="Group_3281" data-name="Group 3281" transform="translate(-2872.56 13972.703)">
    <g id="Group_2467" data-name="Group 2467" transform="translate(2872.56 -13972.703)">
      <path id="Path_3663" data-name="Path 3663" d="M-1882.309,1150.042h23.376l4.522-44.917-32.227-.3Z" transform="translate(1891.697 -1095.761)" fill="#019e96"/>
      <path id="Path_3664" data-name="Path 3664" d="M-1854.421,1093.831h-31.623l1.007-5.64h29.407Z" transform="translate(1891.427 -1088.191)" fill="#fec739"/>
      <rect id="Rectangle_1331" data-name="Rectangle 1331" width="42.388" height="5.64" transform="translate(0 5.438)" fill="#fec739"/>
      <path id="Path_3665" data-name="Path 3665" d="M-1856.174,1142.85h-29.085l-1.38-9.744h31.948Z" transform="translate(1891.698 -1108.632)" fill="#fec739"/>
    </g>
    <g id="Group_2465" data-name="Group 2465" transform="matrix(-0.966, 0.259, -0.259, -0.966, 2947.333, -13925.409)">
      <rect id="Rectangle_1332" data-name="Rectangle 1332" width="53.068" height="25.576" rx="5.734" transform="matrix(0.993, -0.116, 0.116, 0.993, 0, 6.142)" fill="#313131"/>
      <rect id="Rectangle_1333" data-name="Rectangle 1333" width="0.607" height="16.056" transform="translate(34.36 6.894) rotate(-6.891)" fill="#fff"/>
      <path id="Path_3666" data-name="Path 3666" d="M3.37,5.615a2.549,2.549,0,0,1-1.682-.633L0,3.5l.4-.456L2.089,4.525a1.941,1.941,0,0,0,2.894-.38,2.548,2.548,0,0,1,3.679-.6l.65.5a1.938,1.938,0,0,0,2.668-.277l.8-.945A2.534,2.534,0,0,1,16.329,2.5l.989.8a1.941,1.941,0,0,0,2.747-.309L22.414,0l.479.375L20.543,3.366a2.548,2.548,0,0,1-3.608.406l-.989-.8a1.953,1.953,0,0,0-2.7.252l-.8.945a2.547,2.547,0,0,1-3.5.364l-.65-.5a1.943,1.943,0,0,0-2.8.457A2.513,2.513,0,0,1,3.37,5.615Z" transform="translate(5.87 8.382)" fill="#fff"/>
      <path id="Path_3667" data-name="Path 3667" d="M3.371,5.618a2.551,2.551,0,0,1-1.683-.634L0,3.5l.4-.457L2.089,4.527a1.941,1.941,0,0,0,2.895-.379,2.549,2.549,0,0,1,3.68-.6l.65.5a1.936,1.936,0,0,0,2.667-.277l.8-.945A2.535,2.535,0,0,1,16.33,2.5l.989.8a1.939,1.939,0,0,0,2.746-.308L22.416,0l.479.375-2.35,2.991a2.548,2.548,0,0,1-3.608.406l-.988-.8a1.93,1.93,0,0,0-2.7.252l-.8.945a2.544,2.544,0,0,1-3.5.364l-.651-.5a1.942,1.942,0,0,0-2.8.457A2.553,2.553,0,0,1,3.7,5.6,2.676,2.676,0,0,1,3.371,5.618Z" transform="translate(6.719 13.16)" fill="#fff"/>
      <path id="Path_3668" data-name="Path 3668" d="M3.371,5.618a2.549,2.549,0,0,1-1.683-.635L0,3.5l.4-.457L2.09,4.527a1.94,1.94,0,0,0,2.894-.379,2.549,2.549,0,0,1,3.68-.6l.65.5a1.936,1.936,0,0,0,2.668-.277l.8-.944A2.535,2.535,0,0,1,16.329,2.5l.988.8a1.942,1.942,0,0,0,2.747-.309L22.414,0l.478.375-2.349,2.99a2.548,2.548,0,0,1-3.608.406l-.988-.8a1.929,1.929,0,0,0-2.7.252l-.8.945a2.546,2.546,0,0,1-3.5.364l-.65-.5a1.943,1.943,0,0,0-2.8.457A2.553,2.553,0,0,1,3.371,5.618Z" transform="translate(7.57 18.13)" fill="#fff"/>
      <ellipse id="Ellipse_379" data-name="Ellipse 379" cx="1.684" cy="1.684" rx="1.684" ry="1.684" transform="translate(48.041 19.199)" fill="#fff"/>
    </g>
  </g>
</svg>
