<svg xmlns="http://www.w3.org/2000/svg" width="130.743" height="176.07" viewBox="0 0 130.743 176.07">
  <g id="Group_3248" data-name="Group 3248" transform="translate(-131.976 -202.48)">
    <path id="Path_4518" data-name="Path 4518" d="M443.786,610.685c-.5,1.488-.964,2.968-1.41,4.456h0a160.909,160.909,0,0,1-37.8-5.739,14.085,14.085,0,0,1-6.562-4.256c-6.65-7.5-13.109-14.582-20.473-23.639,0,0-1.434-11.248,3.859-13.318.559-2,8.558-3.374,9.619-1.857,6.246,8.936,9.046,11.787,16.247,29.857,14.923.351,22.2,6.9,36.52,14.5Z" transform="translate(-184.696 -273.373)" fill="#fff"/>
    <path id="Path_4519" data-name="Path 4519" d="M239.121,575.439c4.379,4.49,10.663,7.8,15.366,10.675-4.659,8-11.646,18.293-18.891,25.527-2.265,14.433-6.907,19.362-13.717,29.629-1.905,2.867-4.435,9.919-5.6,13.293l-.1-.773c-1.559-.735-4.234-2.876-5.565-3.689,8.489-32.439,16.662-51.886,28.505-74.662Z" transform="translate(-59.19 -280.714)" fill="#fff"/>
    <path id="Path_4520" data-name="Path 4520" d="M343.836,538.012l17.45-12-18.108-27.535-16.619,12.746Z" transform="translate(-146.457 -222.787)" fill="#ff8e9e"/>
    <path id="Path_3878" data-name="Path 3878" d="M620.272,746.75c-.037-.1-.359-1-.366-1.038-.095-.475.049-.555.34-.795a12.024,12.024,0,0,0,3.7-6.847l6,2.414-.293,21.937a2.073,2.073,0,0,1-2.251,1.922,1.987,1.987,0,0,1-.293-.059h0a1.734,1.734,0,0,1-1.275-1.131c-1.018-3.028-4.34-12.9-5.557-16.4Z" transform="translate(-367.228 -403.121)" fill="#313131"/>
    <path id="Path_3878-2" data-name="Path 3878" d="M150.688,868.313c.11-.03,1.06-.293,1.1-.3.493-.056.56.108.774.449a12.093,12.093,0,0,0,6.585,4.7l-3.087,6.3L133.745,877a2.229,2.229,0,0,1-1.721-2.641,2.274,2.274,0,0,1,.091-.314h0a1.861,1.861,0,0,1,1.285-1.278c3.191-.813,13.59-3.467,17.287-4.449Z" transform="translate(0 -500.919)" fill="#313131"/>
    <path id="Path_4521" data-name="Path 4521" d="M404,469.142a7.994,7.994,0,0,1-15.884,1.819c-.5-4.386.528-10.831,4.914-11.334S403.494,464.756,404,469.142Z" transform="translate(-192.698 -193.523)" fill="#ff8e9e"/>
    <path id="Path_4522" data-name="Path 4522" d="M320.658,464.08a94.56,94.56,0,0,0-.55,9.749,111.585,111.585,0,0,0,1.247,14.738l4.245-4.338,17.45-22.878-21.459-4.657" transform="translate(-141.599 -191.338)" fill="#ff8e9e"/>
    <path id="Path_4523" data-name="Path 4523" d="M338.179,471.372l-21.647,36.875-15.287-9.591,20.827-41.229Z" transform="translate(-127.403 -191.89)" fill="#ff8e9e"/>
    <path id="Path_4524" data-name="Path 4524" d="M225.8,408.366l1.042,8.316a6.187,6.187,0,0,1-5.029,6.631l-19.7,7.178-2.463-7.908,15.2-5.84a1.849,1.849,0,0,0,1.457-2.125l.057-6.529Z" transform="translate(-50.937 -154.755)" fill="#fff"/>
    <circle id="Ellipse_759" data-name="Ellipse 759" cx="5.342" cy="5.342" r="5.342" transform="translate(165.449 235.965)" fill="#019e96"/>
    <path id="Path_4525" data-name="Path 4525" d="M277.613,352.684l.09.458,2.729,13.892-13.27.727.094-13.809" transform="translate(-101.75 -113.054)" fill="#019e96"/>
    <path id="Path_3874" data-name="Path 3874" d="M285.017,204.809s11.25-5.624,18.778.609c3.548,3.2,1.125,7.182,5.105,10.211s8.071-.609,11.737,2.25.812,8.913,7.041,12.375,8.072-5.318,16.856-.549,9.97,23.3-5.635,21.025c-3.685-.571-12.463-2.818-18.966-1.408s-20.917-6.936-21.783-12.572-6.486.258-11.038-.934S273.3,212.212,285.017,204.809Z" transform="translate(-110.901)" fill="#313131"/>
    <path id="Path_4526" data-name="Path 4526" d="M285.667,330.3l29.972-2.553L323.4,363.8l-28.661,3.218-5.433-18.592Z" transform="translate(-115.679 -94.281)" fill="#019e96"/>
    <rect id="Rectangle_1529" data-name="Rectangle 1529" width="9.507" height="21.813" rx="4.754" transform="translate(179.621 216.988)" fill="#fff"/>
    <path id="Path_4527" data-name="Path 4527" d="M324.177,308.018a3.463,3.463,0,0,0,2.263-.324,33.585,33.585,0,0,0-2.155,3.606Z" transform="translate(-144.664 -79.191)" fill="#313131"/>
    <circle id="Ellipse_760" data-name="Ellipse 760" cx="8.083" cy="8.083" r="8.083" transform="translate(172.963 208.335)" fill="#fff"/>
    <circle id="Ellipse_761" data-name="Ellipse 761" cx="8.083" cy="8.083" r="8.083" transform="translate(172.963 212.806)" fill="#fff"/>
    <rect id="Rectangle_1530" data-name="Rectangle 1530" width="16.166" height="4.355" transform="translate(172.963 216.418)" fill="#fff"/>
    <path id="Path_4528" data-name="Path 4528" d="M245.4,245.245" transform="translate(-85.373 -32.187)" fill="#f97253"/>
    <circle id="Ellipse_762" data-name="Ellipse 762" cx="0.943" cy="0.943" r="0.943" transform="translate(174.532 217.239)" fill="#313131"/>
    <circle id="Ellipse_763" data-name="Ellipse 763" cx="0.943" cy="0.943" r="0.943" transform="translate(180.102 217.239)" fill="#313131"/>
    <path id="Path_4529" data-name="Path 4529" d="M315.115,264.089l-.44,3.573-.062.505c-.026.214.2.376.386.386l.939.047c.5.025.5-.747,0-.772l-.939-.047.386.386.44-3.573.062-.505a.388.388,0,0,0-.386-.386.4.4,0,0,0-.386.386Z" transform="translate(-137.464 -46.08)" fill="#313131"/>
    <path id="Path_4530" data-name="Path 4530" d="M318.439,289.624a2.733,2.733,0,0,0,2.648-.714.387.387,0,0,0-.138-.528.4.4,0,0,0-.528.138c.07-.091,0,0-.019.015s-.046.046-.07.068c-.059.052-.02,0,0,0-.012,0-.067.047-.08.055a1.445,1.445,0,0,1-.149.083c-.1.048.043-.013-.021.011l-.07.026a2.285,2.285,0,0,1-.36.093.487.487,0,0,0-.1.016c.041-.018.073-.009.006,0s-.118.012-.178.015a4.181,4.181,0,0,1-.584-.006c-.062,0-.123-.012-.184-.019s.123.018.046.006l-.02,0a.4.4,0,0,0-.475.27.391.391,0,0,0,.27.475Z" transform="translate(-140.135 -64.618)" fill="#313131"/>
    <ellipse id="Ellipse_764" data-name="Ellipse 764" cx="2.507" cy="1.777" rx="2.507" ry="1.777" transform="translate(186.509 216.581) rotate(-20.873)" fill="#fff"/>
    <path id="Path_4531" data-name="Path 4531" d="M306.65,225.043a3.623,3.623,0,0,1,5.038.29c1,.981,3.182,6.063,9.321,4.4s-2.705-7.8-2.705-7.8S306.754,219.532,306.65,225.043Z" transform="translate(-131.472 -14.248)" fill="#313131"/>
    <circle id="Ellipse_765" data-name="Ellipse 765" cx="5.61" cy="5.61" r="5.61" transform="translate(194.934 233.462)" fill="#019e96"/>
    <path id="Path_4532" data-name="Path 4532" d="M163.634,461.135s-1.329.626-7.586.55c-1.931.129-6.157.274-6.214-.286-.125-1.226,4.587-.864,4.419-1.56s-5.3-.258-5.252-1.614c.027-.744,4.792-.217,4.626-.84s-4.921-.925-5-1.986c-.084-1.138,4.751.332,4.684-.7s-5.235-1.078-4.755-2.346,8.023,2,9.189.341c.458-.651-2.228-3.033-1-3.807s3.272,3.953,4.421,4.339S163.634,461.135,163.634,461.135Z" transform="translate(-12.457 -185.399)" fill="#fff"/>
    <path id="Path_4533" data-name="Path 4533" d="M174.51,470.558a12.685,12.685,0,0,0-.019,2.44,6.753,6.753,0,0,0,1.328,3.9c.233.273.625-.122.393-.393a6.335,6.335,0,0,1-1.18-3.712,12.681,12.681,0,0,1,.034-2.231c.041-.355-.516-.352-.556,0Z" transform="translate(-31.963 -201.574)" fill="#313131"/>
    <path id="Path_4534" data-name="Path 4534" d="M301.015,543.485l1.3-2.586,3.125-6.238,3.768-7.522,3.268-6.525c.527-1.052,1.075-2.1,1.582-3.157l.022-.044c.186-.372-.373-.7-.56-.327l-1.3,2.585-3.125,6.238-3.768,7.522-3.269,6.525c-.527,1.052-1.075,2.1-1.581,3.157l-.022.045c-.186.372.373.7.56.327Z" transform="translate(-126.781 -236.67)" fill="#313131"/>
    <path id="Path_4535" data-name="Path 4535" d="M378.461,548.3l-1.643,2.8-3.944,6.718-4.755,8.1-4.136,7.044c-.663,1.13-1.373,2.244-1.994,3.4-.009.016-.019.032-.028.048a.279.279,0,0,0,.481.281l1.643-2.8,3.944-6.718,4.755-8.1,4.136-7.044c.663-1.13,1.373-2.244,1.995-3.4.009-.016.019-.032.028-.048a.278.278,0,0,0-.481-.281Z" transform="translate(-173.071 -260.186)" fill="#313131"/>
    <path id="Path_4536" data-name="Path 4536" d="M398.291,337.281l.232.431,7.033,13.1-10.042,3.706-6.883-11.623" transform="translate(-193.176 -101.46)" fill="#019e96"/>
    <path id="Path_4537" data-name="Path 4537" d="M402.933,502.906a7.943,7.943,0,0,0-4.881-4.278c-.419-.128-.6.528-.181.655a7.289,7.289,0,0,1,4.475,3.966.343.343,0,0,0,.465.122.348.348,0,0,0,.122-.465Z" transform="translate(-199.952 -222.888)" fill="#313131"/>
    <path id="Path_4538" data-name="Path 4538" d="M297.612,401.727l-.788-2.74-1.893-6.582-2.291-7.965-1.982-6.89L290,375.276c-.1-.358-.187-.73-.311-1.082-.006-.016-.009-.032-.014-.049a.278.278,0,0,0-.536.148l.788,2.741,1.893,6.582,2.291,7.965,1.982,6.89.654,2.273c.1.358.187.73.311,1.082.006.016.009.032.014.048a.278.278,0,0,0,.536-.148Z" transform="translate(-118.285 -129.059)" fill="#313131"/>
    <path id="Path_4539" data-name="Path 4539" d="M482.536,490.2" transform="translate(-263.856 -216.561)" fill="none" stroke="#313131" stroke-miterlimit="10" stroke-width="0.75"/>
    <path id="Path_4540" data-name="Path 4540" d="M394.02,404.128a1.368,1.368,0,0,0-.09-.152l-5.4-11.485-9.847,3.634,5.909,10.176a2.463,2.463,0,0,1-.6,3.171c-4.849,3.828-9.744,8.345-10.323,8.882-2.495,1.169-5.509,3.2-6.732,5.641a3.052,3.052,0,0,0-.424,1.7,1.25,1.25,0,0,0,1.15,1.145c.248-.008.518-.111.731.018.448.27-.406,1,.531,1.4.557.238.854-.333,1.188-.094.521.372-.284,1.069.58,1.512.508.26,1.077-.419,1.644-.107s-.036,1.135.367,1.423a1.25,1.25,0,0,0,1.183.061,3.725,3.725,0,0,0,1.231-.692c1.813-1.557,3.919-4.82,5.527-6.59,1.194-1.144,10.8-10.346,12.148-11.415C396.55,409.369,395.252,406.745,394.02,404.128Z" transform="translate(-176.513 -143.015)" fill="#fff"/>
    <path id="Path_4541" data-name="Path 4541" d="M412.669,380.369l-3.526,1.3-5.233,1.931-1.284.474.314.128-3.713-6.271-.527-.889a.278.278,0,0,0-.48.281l3.713,6.271.527.889a.281.281,0,0,0,.314.128l3.284-1.212,5.454-2.013,1.305-.482c.333-.123.189-.661-.148-.536Z" transform="translate(-200.364 -131.287)" fill="#313131"/>
  </g>
</svg>
