<svg xmlns="http://www.w3.org/2000/svg" width="25" height="24.852" viewBox="0 0 25 24.852">
  <g id="Group_3329" data-name="Group 3329" transform="translate(14248.362 17459.007)">
    <path id="Path_1428" data-name="Path 1428" d="M476.312,127.289a12.5,12.5,0,0,0-2,24.839l.066-8.691h-3.2l-.024-3.63,3.2-.045s-.024-1.767-.024-2.827.565-4.736,4.453-4.712a12.586,12.586,0,0,1,3.039.259l.047,3.063h-1.437c-.825,0-2.191.188-2.191,1.838s.024,2.425.024,2.425h3.464l-.542,3.63h-2.922l-.019,8.7a12.5,12.5,0,0,0-1.93-24.851Z" transform="translate(-14712.174 -17586.295)" fill="#fffbf0"/>
  </g>
</svg>
