<svg id="Component_65_1" data-name="Component 65 – 1" xmlns="http://www.w3.org/2000/svg" width="44.426" height="44.426" viewBox="0 0 44.426 44.426">
  <path id="Path_863" data-name="Path 863" d="M22.213,0A22.215,22.215,0,0,1,34.569,40.675a21.757,21.757,0,0,1-12.356,3.751A22.213,22.213,0,0,1,22.213,0Z" fill="#047b77"/>
  <path id="Path_1428" data-name="Path 1428" d="M475.6,127.289a11.791,11.791,0,0,0-1.891,23.428l.062-8.2h-3.022l-.022-3.424,3.022-.043s-.022-1.667-.022-2.667.533-4.467,4.2-4.445a11.872,11.872,0,0,1,2.867.244l.044,2.889h-1.356c-.778,0-2.067.178-2.067,1.733s.022,2.287.022,2.287h3.267l-.511,3.424h-2.756l-.018,8.21a11.791,11.791,0,0,0-1.82-23.44Z" transform="translate(-453.393 -116.87)" fill="#ffe893"/>
</svg>
