<svg xmlns="http://www.w3.org/2000/svg" width="25.999" height="24.82" viewBox="0 0 25.999 24.82">
  <g id="Group_3330" data-name="Group 3330" transform="translate(14175.153 17460.892)">
    <g id="TYPE_A" data-name="TYPE A" transform="translate(-14174.653 -17460.391)">
      <g id="Group_1205" data-name="Group 1205" transform="translate(0 0)">
        <path id="Subtraction_1" data-name="Subtraction 1" d="M11.812,23.819a.416.416,0,0,1-.336-.13.911.911,0,0,1-.065-.69l.005-.03c.032-.189.178-1.071.178-1.071a2.426,2.426,0,0,0-.04-1.13c-.139-.345-.676-.525-1.1-.616a13.4,13.4,0,0,1-7.48-3.421A9.113,9.113,0,0,1,0,10.144C0,4.551,5.607,0,12.5,0S25,4.551,25,10.144a9.075,9.075,0,0,1-2.679,6.241,31.066,31.066,0,0,1-5.393,4.55A33.289,33.289,0,0,1,12.5,23.641,1.885,1.885,0,0,1,11.812,23.819ZM17.334,7.441a.251.251,0,0,0-.169.068l0,0a.248.248,0,0,0-.07.172v5.444a.247.247,0,0,0,.067.169h0l0,0,0,0a.25.25,0,0,0,.169.067h3.5a.243.243,0,0,0,.243-.244v-.877a.243.243,0,0,0-.243-.243H18.453v-.921h2.383a.243.243,0,0,0,.243-.243V9.969a.243.243,0,0,0-.243-.244H18.453V8.8h2.383a.243.243,0,0,0,.243-.244V7.685a.243.243,0,0,0-.243-.244ZM12.42,9.9v0l2.5,3.374a.217.217,0,0,0,.063.06l0,0a.031.031,0,0,0,.012.007l.006,0,.012.006.011,0,.008,0,.017,0,0,0a.3.3,0,0,0,.063.007h.876a.244.244,0,0,0,.244-.243V7.684a.244.244,0,0,0-.244-.243h-.876a.244.244,0,0,0-.244.243v3.237l-2.5-3.372a.179.179,0,0,0-.02-.024l-.015-.017,0,0a.054.054,0,0,1-.014-.01l-.006,0-.006,0-.006,0-.008,0-.007,0-.007,0-.006,0-.007,0-.008,0-.008,0-.014,0h-.009l-.014,0H11.3a.243.243,0,0,0-.243.243v5.447a.243.243,0,0,0,.243.243h.877a.244.244,0,0,0,.244-.243V9.9ZM9.083,7.441a.243.243,0,0,0-.243.243v5.447a.243.243,0,0,0,.243.243H9.96a.244.244,0,0,0,.244-.243V7.684a.244.244,0,0,0-.244-.243Zm-4.738,0a.244.244,0,0,0-.244.244v5.444a.244.244,0,0,0,.069.169l0,0,0,0a.242.242,0,0,0,.166.067h3.5a.244.244,0,0,0,.243-.244v-.877a.243.243,0,0,0-.243-.243H5.464V7.685a.242.242,0,0,0-.244-.244Z" transform="translate(0)" fill="#fffbf0" stroke="rgba(0,0,0,0)" stroke-miterlimit="10" stroke-width="1"/>
      </g>
    </g>
  </g>
</svg>
