<svg id="Component_66_1" data-name="Component 66 – 1" xmlns="http://www.w3.org/2000/svg" width="44.426" height="44.426" viewBox="0 0 44.426 44.426">
  <g id="Group_1203" data-name="Group 1203">
    <path id="Path_863" data-name="Path 863" d="M22.213,0A22.215,22.215,0,0,1,34.569,40.675a21.757,21.757,0,0,1-12.356,3.751A22.213,22.213,0,0,1,22.213,0Z" fill="#047b77"/>
  </g>
  <g id="TYPE_A" data-name="TYPE A" transform="translate(7.129 9.034)">
    <g id="Group_1205" data-name="Group 1205" transform="translate(0 0)">
      <path id="Subtraction_1" data-name="Subtraction 1" d="M325.046-7156.878a.492.492,0,0,1-.4-.154,1.077,1.077,0,0,1-.077-.816l.006-.036c.038-.224.211-1.266.211-1.266a2.869,2.869,0,0,0-.047-1.336c-.165-.408-.8-.621-1.3-.729a15.835,15.835,0,0,1-8.842-4.043,10.772,10.772,0,0,1-3.516-7.786c0-6.612,6.628-11.991,14.775-11.991s14.775,5.379,14.775,11.991a10.727,10.727,0,0,1-3.166,7.377,36.74,36.74,0,0,1-6.375,5.378,39.391,39.391,0,0,1-5.234,3.2A2.228,2.228,0,0,1,325.046-7156.878Zm6.527-19.36a.3.3,0,0,0-.2.081l0,0a.293.293,0,0,0-.083.2v6.436a.292.292,0,0,0,.079.2h0l0,0,0,.006a.3.3,0,0,0,.2.079h4.14a.288.288,0,0,0,.287-.289v-1.037a.287.287,0,0,0-.287-.287H332.9v-1.089h2.817a.287.287,0,0,0,.287-.287v-1.037a.288.288,0,0,0-.287-.289H332.9v-1.087h2.817a.288.288,0,0,0,.287-.289v-1.035a.288.288,0,0,0-.287-.289Zm-5.808,2.9,0,0,2.952,3.988a.253.253,0,0,0,.074.07l.005,0a.031.031,0,0,0,.014.008l.007.006.014.007.013.005.009,0,.02.005.005,0a.346.346,0,0,0,.074.009h1.035a.288.288,0,0,0,.289-.287v-6.439a.288.288,0,0,0-.289-.287h-1.035a.288.288,0,0,0-.289.287v3.827l-2.95-3.985a.218.218,0,0,0-.023-.029l-.018-.02-.006-.006a.063.063,0,0,1-.016-.012l-.007-.005-.007-.005-.007-.006-.009-.005-.008,0-.008,0-.007-.006-.009,0-.009,0-.009,0-.016-.005h-.011l-.016,0-.013,0h-.031l-.009,0H324.44a.287.287,0,0,0-.287.287v6.439a.287.287,0,0,0,.287.287h1.037a.288.288,0,0,0,.289-.287v-3.825Zm-3.945-2.9a.287.287,0,0,0-.287.287v6.439a.287.287,0,0,0,.287.287h1.037a.288.288,0,0,0,.289-.287v-6.439a.288.288,0,0,0-.289-.287Zm-5.6,0a.289.289,0,0,0-.289.289v6.436a.287.287,0,0,0,.081.2l0,0,.005.006a.286.286,0,0,0,.2.079h4.142a.288.288,0,0,0,.287-.289v-1.037a.287.287,0,0,0-.287-.287h-2.817v-5.112a.286.286,0,0,0-.289-.289Z" transform="translate(-311.084 7185.034)" fill="#ffe893" stroke="rgba(0,0,0,0)" stroke-miterlimit="10" stroke-width="1"/>
    </g>
  </g>
</svg>
