<svg id="Component_67_1" data-name="Component 67 – 1" xmlns="http://www.w3.org/2000/svg" width="44.426" height="44.426" viewBox="0 0 44.426 44.426">
  <g id="Component_19_26" data-name="Component 19 – 26">
    <path id="Path_863" data-name="Path 863" d="M22.213,0A22.215,22.215,0,0,1,34.569,40.675a21.757,21.757,0,0,1-12.356,3.751A22.213,22.213,0,0,1,22.213,0Z" fill="#047b77"/>
  </g>
  <path id="Path_620" data-name="Path 620" d="M11.706,2.081a35.893,35.893,0,0,1,4.682.13A6.033,6.033,0,0,1,18.6,2.6a4.568,4.568,0,0,1,2.211,2.211,6.033,6.033,0,0,1,.39,2.211c0,1.171.13,1.561.13,4.682a35.893,35.893,0,0,1-.13,4.682,6.033,6.033,0,0,1-.39,2.211A4.568,4.568,0,0,1,18.6,20.811a6.033,6.033,0,0,1-2.211.39c-1.171,0-1.561.13-4.682.13a35.892,35.892,0,0,1-4.682-.13,6.033,6.033,0,0,1-2.211-.39A4.568,4.568,0,0,1,2.6,18.6a6.033,6.033,0,0,1-.39-2.211c0-1.171-.13-1.561-.13-4.682a35.893,35.893,0,0,1,.13-4.682A6.033,6.033,0,0,1,2.6,4.812a4.671,4.671,0,0,1,.91-1.3,2.2,2.2,0,0,1,1.3-.91,6.033,6.033,0,0,1,2.211-.39,35.893,35.893,0,0,1,4.682-.13m0-2.081A38.431,38.431,0,0,0,6.894.13,8.03,8.03,0,0,0,4.032.65a5.092,5.092,0,0,0-2.081,1.3A5.092,5.092,0,0,0,.65,4.032,5.926,5.926,0,0,0,.13,6.894,38.431,38.431,0,0,0,0,11.706a38.431,38.431,0,0,0,.13,4.812A8.03,8.03,0,0,0,.65,19.38a5.092,5.092,0,0,0,1.3,2.081,5.092,5.092,0,0,0,2.081,1.3,8.03,8.03,0,0,0,2.861.52,38.432,38.432,0,0,0,4.812.13,38.432,38.432,0,0,0,4.812-.13,8.03,8.03,0,0,0,2.861-.52,5.457,5.457,0,0,0,3.382-3.382,8.03,8.03,0,0,0,.52-2.861c0-1.3.13-1.691.13-4.812a38.432,38.432,0,0,0-.13-4.812,8.03,8.03,0,0,0-.52-2.861,5.092,5.092,0,0,0-1.3-2.081A5.092,5.092,0,0,0,19.38.65,8.03,8.03,0,0,0,16.518.13,38.431,38.431,0,0,0,11.706,0m0,5.723a5.887,5.887,0,0,0-5.983,5.983,5.983,5.983,0,1,0,5.983-5.983m0,9.885a3.832,3.832,0,0,1-3.9-3.9,3.832,3.832,0,0,1,3.9-3.9,3.832,3.832,0,0,1,3.9,3.9,3.832,3.832,0,0,1-3.9,3.9M17.949,4.032A1.431,1.431,0,1,0,19.38,5.463a1.443,1.443,0,0,0-1.431-1.431" transform="translate(10.366 10.366)" fill="#ffe893" fill-rule="evenodd"/>
</svg>
