<?xml version="1.0" encoding="utf-8"?>
<!-- Generator: Adobe Illustrator 25.2.3, SVG Export Plug-In . SVG Version: 6.00 Build 0)  -->
<svg version="1.1" id="圖層_1" xmlns="http://www.w3.org/2000/svg" xmlns:xlink="http://www.w3.org/1999/xlink" x="0px" y="0px"
	 viewBox="0 0 121.9 66" style="enable-background:new 0 0 121.9 66;" xml:space="preserve">
<style type="text/css">
	.st0{fill:#160200;}
	.st1{fill:#FFFDFD;}
	.st2{fill:#3E3734;}
</style>
<g id="Group_3277" transform="translate(-1814.067 -1006.863)">
	<path id="Path_3635" class="st0" d="M1892.6,1017.4c0,0,4.8-4.1,1.5-8.7c-3.3-3.4-8.3-0.2-9.3,2.1c0,0-10.1-3.9-20.7-0.8
		c-2.3-4.7-7.3-3-8.7-1.8c-2,1.7-3.5,7.2,1.5,9.2c-3.4,4.5-8.3,11.1-7.5,19.2s3.9,14.4,18.3,19.2c-3.3,2.7-5.4,5.8,0.3,8.6
		c0.6,4.2,0.3,3.3,0.7,4.7s0.9,3.2,0.6,3.2c-0.2,0-0.4,0-0.7-0.1c0,0-1,0.8,0.9,0.5c0.6-0.1,0.6,0.2,0.7-0.9
		c0.4-2.3,2.4-3.9,4.7-3.9c3.3,0,4.7,1.7,5.1,4c0.9,0.3,1.9,0.5,1.9,0.1s-1.2-0.5-1.2-0.5s0-2.4,0.2-2.4s0.3-0.9,0.3-2.1
		s0.1-3,0.1-3s3.7-0.7,3.7-3.6s-3.1-4.3-3.1-4.3s18.2-3.2,18.6-16.4C1900.7,1031.6,1897.9,1023.7,1892.6,1017.4z M1868.4,1061.9
		c-1.8-0.1-2.7-1.1,0.1-3.3C1868.5,1058.7,1868.4,1060.5,1868.4,1061.9L1868.4,1061.9z M1881.4,1061.9c0-1.3-0.2-2.5-0.5-3.8
		C1880.9,1058.1,1884.9,1060.6,1881.4,1061.9L1881.4,1061.9z"/>
	<path id="Path_3636" class="st1" d="M1878.8,1043.4c3,0,8.4-1.8,8.4-5.9s-4.3-6.4-8.6-6.3s-8.8,2.9-8.6,5.9
		S1872.9,1043.4,1878.8,1043.4z"/>
	<path id="Path_3637" class="st1" d="M1870.9,1058.1c0,0,5.4,3.9,7.8,0.5C1877.7,1061.1,1875.1,1064.9,1870.9,1058.1z"/>
	<path id="Path_3638" class="st2" d="M1858.5,1014.7c1-1.6,2.5-2.9,4.2-3.8c-1.8-1.8-3.1-2-4.4-0.8S1858.5,1014.7,1858.5,1014.7z"/>
	<path id="Path_3639" class="st2" d="M1887.3,1012c0,0,3.7,2,4.2,3.7c1.4-1.9,1.8-3.9,0.3-5.3S1887.9,1011.2,1887.3,1012z"/>
	
		<ellipse id="Ellipse_368" transform="matrix(0.9567 -0.2909 0.2909 0.9567 -218.1578 594.3565)" class="st1" cx="1889.7" cy="1030.8" rx="2.6" ry="3.2"/>
	
		<ellipse id="Ellipse_369" transform="matrix(0.2909 -0.9567 0.9567 0.2909 338.7702 2518.252)" class="st1" cx="1868.3" cy="1030.6" rx="3.2" ry="2.6"/>
	<path id="Path_3640" class="st0" d="M1879.5,1033.4c1.5,0,3.2-0.1,3.3,0.8s-1.5,2.4-3.2,1.9s-4-2.7-2-2.7L1879.5,1033.4z"/>
	<path id="Path_3641" class="st0" d="M1877.2,1038.7l4.8,0.1C1882.1,1038.8,1879.2,1040.9,1877.2,1038.7z"/>
	<ellipse id="Ellipse_370" class="st0" cx="1890.1" cy="1030.7" rx="1.3" ry="1.2"/>
	<ellipse id="Ellipse_371" class="st1" cx="1890.4" cy="1030.3" rx="0.6" ry="0.6"/>
	<ellipse id="Ellipse_372" class="st0" cx="1868.4" cy="1030.7" rx="1.3" ry="1.2"/>
	<ellipse id="Ellipse_373" class="st1" cx="1868.8" cy="1030.3" rx="0.6" ry="0.6"/>
</g>
</svg>
