<svg xmlns="http://www.w3.org/2000/svg" xmlns:xlink="http://www.w3.org/1999/xlink" width="103.905" height="76.491" viewBox="0 0 103.905 76.491">
  <defs>
    <clipPath id="clip-path">
      <path id="Path_4036" data-name="Path 4036" d="M9041.756-196.378s24.385-4.273,41.044,0,33.158-1.015,33.158-1.015l12.2-28.593-14.471-38.929-10.043-5.256-55.711-1.03-10.2,2.586-10.136,34.59-3.347,26.284Z" transform="translate(-7964 646.994)" fill="#fff"/>
    </clipPath>
  </defs>
  <g id="Group_3279" data-name="Group 3279" transform="translate(-1404.528 13996.314)">
    <g id="Mask_Group_61" data-name="Mask Group 61" transform="translate(344.275 -14372.107)" clip-path="url(#clip-path)">
      <g id="Group_2799" data-name="Group 2799" transform="translate(-4386.096 979.392)">
        <path id="Path_4011" data-name="Path 4011" d="M5545.65-553.434s-7.674-3.45-11.051-.934-3.736,5.174-3.665,12.073-.216,13.942-2.587,14.229-2.371,3.45-2.371,3.45l20.05.144Z" transform="translate(-52.09 -30.801)" fill="#313131"/>
        <path id="Path_4012" data-name="Path 4012" d="M5573.063-548.4c3.892.159,7.8,1.654,9.832,7.477,2.287,6.568-.778,15.724-6.948,18.578a9.334,9.334,0,0,1-1.867.65,9.982,9.982,0,0,1-6.718-.879c-3.812-1.9-5.736-6.172-6.434-11.624C5560.927-534.2,5559.19-548.733,5573.063-548.4Z" transform="translate(-76.755 -35.667)" fill="#fec739"/>
        <path id="Path_4013" data-name="Path 4013" d="M5570.926-458.588l-.2,2.114c-.187,1.94-.971,3.988-2.816,4.618-1.344.459-2.132.063-2.493.253,1.65,13.61,13.913,5.634,19.611.131a5.288,5.288,0,0,1-4.484-1.41,3.522,3.522,0,0,1-1.335-2.8l-.205-2.435Z" transform="translate(-79.976 -99.179)" fill="#fec739"/>
        <g id="Group_2794" data-name="Group 2794" transform="translate(5487.189 -575.736)">
          <circle id="Ellipse_522" data-name="Ellipse 522" cx="1.495" cy="1.495" r="1.495" transform="translate(0 0)" fill="#313131"/>
          <circle id="Ellipse_523" data-name="Ellipse 523" cx="1.495" cy="1.495" r="1.495" transform="translate(9.431 0.051)" fill="#313131"/>
        </g>
        <path id="Path_4014" data-name="Path 4014" d="M5690.831-535.107c-3.67-2.147,1.53-10.2-2.471-11.753,2.8.534,6.8,2.973,8.178.681-5.433-19.681-6.307-31.247-3.3-43.2a16.257,16.257,0,0,1,2.575-5.277q.573-.733,1.139-1.461a52.552,52.552,0,0,0,3.268,5.81,33.161,33.161,0,0,0-3.318,5.186c3.757,12.673,6.722,23.341,9.9,35.767.531,2.083,1.586,6.9.415,8.7C5704.787-536.91,5693.372-534.573,5690.831-535.107Z" transform="translate(-166.915 -1.931)" fill="#fec739"/>
        <path id="Path_4017" data-name="Path 4017" d="M5469.231-537.838c3.671-2.147-1.53-10.2,2.471-11.752-2.8.534-6.8,2.973-8.176.681,5.432-19.681,6.306-31.247,3.3-43.2a16.241,16.241,0,0,0-2.575-5.276q-.574-.733-1.138-1.461a52.884,52.884,0,0,1-3.269,5.81,33.054,33.054,0,0,1,3.317,5.186c-3.755,12.673-6.721,23.341-9.9,35.767-.532,2.083-1.587,6.9-.416,8.7C5455.276-539.641,5466.689-537.3,5469.231-537.838Z" transform="translate(0 0)" fill="#fec739"/>
        <path id="Path_4020" data-name="Path 4020" d="M5510.194-414.8s1.711,7.832,2.149,11.484a63.3,63.3,0,0,1-1.021,15.775c7.45,0,43.089.292,43.089.292s-11.978-15.6-11.1-33.944c10.662,0,13.876.348,13.876.348,2.071-4.927,0-14.607,0-14.607h-22.056s-5.7,8.18-12.854,7.011c-4.675-1.022-2.776-7.3-2.776-7.3h-6.427l-14.928.46s-2.349,8.339.352,14.211c3.875,0,9.983.235,9.983.235Z" transform="translate(-31.741 -115.334)" fill="#019e96"/>
        <path id="Path_4021" data-name="Path 4021" d="M5550.36-427.713" transform="translate(-69.332 -121.011)" fill="#fec739"/>
        <path id="Path_4022" data-name="Path 4022" d="M5776.78-502.152" transform="translate(-229.44 -68.374)" fill="#313131"/>
        <path id="Path_4025" data-name="Path 4025" d="M5594.047-535.072" transform="translate(-100.224 -45.095)" fill="none" stroke="#313131" stroke-miterlimit="10" stroke-width="1.237"/>
        <path id="Path_4026" data-name="Path 4026" d="M5592.408-549.687l13.314,10.974s.943-7.131-4.3-9.5S5592.408-549.687,5592.408-549.687Z" transform="translate(-99.065 -34.642)" fill="#313131"/>
        <path id="Path_4027" data-name="Path 4027" d="M5611.768-506.637c.751-3.618,1.5-10.155,1.5-10.155s2.169,3.777,2.411,14.3c0,1.286,1.767,2.17,4.259,2.25s2.732,2.089,2.732,3.295c-17.84-.31-19.253-.161-19.253-.161s-.938-4.293,2.769-4.5C5606.182-501.6,5611.016-503,5611.768-506.637Z" transform="translate(-106.772 -58.021)" fill="#313131"/>
        <path id="Path_4028" data-name="Path 4028" d="M5582.83-459.242s3.234,1.749,9.722.189" transform="translate(-94.045 -98.716)" fill="none" stroke="#313131" stroke-linecap="round" stroke-miterlimit="10" stroke-width="1"/>
        <path id="Path_4029" data-name="Path 4029" d="M5590.386-516.982l-.444,8.22,2.11-.333" transform="translate(-97.321 -57.887)" fill="none" stroke="#313131" stroke-linecap="round" stroke-linejoin="round" stroke-miterlimit="10" stroke-width="1.237"/>
        <path id="Path_4030" data-name="Path 4030" d="M5590.207-484.573c-2.543,1.426-6.192.489-6.192.489Z" transform="translate(-93.13 -79.474)" fill="none" stroke="#313131" stroke-linecap="round" stroke-linejoin="round" stroke-miterlimit="10" stroke-width="1.237"/>
        <circle id="Ellipse_524" data-name="Ellipse 524" cx="4.671" cy="4.671" r="4.671" transform="translate(5493.114 -579.551)" fill="none" stroke="#fffbf0" stroke-miterlimit="10" stroke-width="1"/>
        <circle id="Ellipse_525" data-name="Ellipse 525" cx="4.671" cy="4.671" r="4.671" transform="translate(5483.556 -578.788)" fill="none" stroke="#fffbf0" stroke-miterlimit="10" stroke-width="1"/>
      </g>
    </g>
    <path id="Path_4535" data-name="Path 4535" d="M9084.653-276.582l4.6,4.374-2.031,6.354-3.753-6.354Z" transform="translate(-6880.277 -17561.023) rotate(25)" fill="#ffc517"/>
    <path id="Path_4536" data-name="Path 4536" d="M9084.653-276.582l4.6,4.374-2.031,6.354-3.753-6.354Z" transform="matrix(0.799, 0.602, -0.602, 0.799, -6005.887, -19209.154)" fill="#019e96"/>
    <path id="Path_4534" data-name="Path 4534" d="M9084.653-276.582l4.6,4.374-2.031,6.354-3.753-6.354Z" transform="translate(3462.291 -5124.788) rotate(-101)" fill="#019e96"/>
    <path id="Path_4537" data-name="Path 4537" d="M9084.653-276.582l4.6,4.374-2.031,6.354-3.753-6.354Z" transform="matrix(0.799, 0.602, -0.602, 0.799, -5924.886, -19206.363)" fill="#019e96"/>
  </g>
</svg>
