<svg xmlns="http://www.w3.org/2000/svg" width="51.251" height="65.966" viewBox="0 0 51.251 65.966">
  <g id="Group_3277" data-name="Group 3277" transform="translate(-1814.067 -1006.863)">
    <path id="Path_3635" data-name="Path 3635" d="M1857.325,1017.435s4.786-4.115,1.512-8.733c-3.275-3.443-8.314-.168-9.321,2.1,0,0-10.077-3.863-20.657-.84-2.267-4.7-7.332-2.97-8.733-1.763-2.009,1.731-3.527,7.222,1.512,9.153-3.443,4.535-8.314,11.085-7.474,19.23s3.863,14.36,18.306,19.23c-3.275,2.687-5.374,5.794.252,8.565.588,4.2.26,3.287.677,4.7s.916,3.247.624,3.247a3.717,3.717,0,0,1-.666-.084s-.968.827.911.518c.564-.093.571.22.659-.879a4.694,4.694,0,0,1,4.7-3.911c3.3,0,4.747,1.714,5.142,4,.879.308,1.89.527,1.89.132s-1.187-.527-1.187-.527-.044-2.417.22-2.417.307-.923.307-2.109.088-3.032.088-3.032,3.692-.7,3.692-3.56-3.12-4.307-3.12-4.307,18.222-3.239,18.642-16.441A33.869,33.869,0,0,0,1857.325,1017.435Zm-24.252,44.494c-1.765-.131-2.745-1.111.065-3.267C1833.139,1058.661,1833.073,1060.49,1833.073,1061.928Zm13.005,0a17.921,17.921,0,0,0-.523-3.791S1849.543,1060.556,1846.079,1061.928Z" transform="translate(0 0)" fill="#160200"/>
    <path id="Path_3636" data-name="Path 3636" d="M1890.988,1099.04c3.007,0,8.365-1.764,8.431-5.882s-4.313-6.4-8.561-6.339-8.823,2.941-8.627,5.947S1885.041,1099.04,1890.988,1099.04Z" transform="translate(-47.458 -55.672)" fill="#fffdfd"/>
    <path id="Path_3637" data-name="Path 3637" d="M1885.042,1175.695s5.424,3.856,7.777.523C1891.773,1178.7,1889.225,1182.492,1885.042,1175.695Z" transform="translate(-49.42 -117.557)" fill="#fffdfd"/>
    <path id="Path_3638" data-name="Path 3638" d="M1842.267,1020.331a10.8,10.8,0,0,1,4.183-3.791c-1.765-1.83-3.071-1.961-4.378-.85S1842.267,1020.331,1842.267,1020.331Z" transform="translate(-19.127 -5.653)" fill="#3e3734"/>
    <path id="Path_3639" data-name="Path 3639" d="M1938.84,1019.03s3.66,2.021,4.183,3.655c1.438-1.9,1.83-3.921.327-5.294S1939.428,1018.25,1938.84,1019.03Z" transform="translate(-86.879 -7.026)" fill="#3e3734"/>
    <ellipse id="Ellipse_368" data-name="Ellipse 368" cx="2.581" cy="3.17" rx="2.581" ry="3.17" transform="matrix(0.957, -0.291, 0.291, 0.957, 1851.029, 1028.56)" fill="#fffdfd"/>
    <ellipse id="Ellipse_369" data-name="Ellipse 369" cx="3.17" cy="2.581" rx="3.17" ry="2.581" transform="matrix(0.291, -0.957, 0.957, 0.291, 1829.592, 1032.86)" fill="#fffdfd"/>
    <path id="Path_3640" data-name="Path 3640" d="M1907.008,1094.351c1.5,0,3.222-.065,3.31.784s-1.546,2.418-3.245,1.9-3.986-2.682-2.026-2.681Z" transform="translate(-62.824 -60.917)" fill="#160200"/>
    <path id="Path_3641" data-name="Path 3641" d="M1905.7,1111.569l4.836.131S1907.727,1113.856,1905.7,1111.569Z" transform="translate(-63.805 -72.906)" fill="#160200"/>
    <ellipse id="Ellipse_370" data-name="Ellipse 370" cx="1.274" cy="1.209" rx="1.274" ry="1.209" transform="translate(1853.464 1029.448)" fill="#160200"/>
    <ellipse id="Ellipse_371" data-name="Ellipse 371" cx="0.599" cy="0.568" rx="0.599" ry="0.568" transform="translate(1854.485 1029.704)" fill="#fffdfd"/>
    <ellipse id="Ellipse_372" data-name="Ellipse 372" cx="1.274" cy="1.209" rx="1.274" ry="1.209" transform="translate(1831.814 1029.448)" fill="#160200"/>
    <ellipse id="Ellipse_373" data-name="Ellipse 373" cx="0.599" cy="0.568" rx="0.599" ry="0.568" transform="translate(1832.835 1029.704)" fill="#fffdfd"/>
  </g>
</svg>
