<svg xmlns="http://www.w3.org/2000/svg" width="1367.308" height="234.203" viewBox="0 0 1367.308 234.203">
  <path id="Subtraction_10" data-name="Subtraction 10" d="M10405,20650.2V20417l1366,0v110.545c-23.543,5.5-46.927,10.322-69.5,14.324-21.74,3.859-43.425,7.082-64.45,9.582-20.133,2.393-40.289,4.2-59.908,5.357-18.7,1.109-37.5,1.672-55.879,1.672-13.114,0-26.4-.285-39.473-.848-12.51-.539-25.2-1.346-37.722-2.4-23.237-1.949-46.479-4.746-71.053-8.553-20.644-3.2-42.438-7.148-66.633-12.088-21.638-4.418-42.591-9.076-63.937-13.857l-6.452-1.447c-20-4.486-40.671-9.123-61.342-13.424-22.939-4.771-43.277-8.572-62.176-11.615-22.612-3.643-43.743-6.314-64.6-8.17-23.349-2.078-45.792-3.088-68.614-3.088-10.552,0-21.294.227-31.926.674-26.365,1.115-53.941,3.682-81.963,7.627-26.178,3.689-53.39,8.672-80.88,14.811-25.5,5.7-51.854,12.525-78.314,20.289-24.34,7.143-49.326,15.236-74.265,24.057-95.3,33.7-176,72.846-226.906,99.75v0h0Z" transform="translate(-10404.192 -20416.5)" fill="#2dc99a" stroke="#96ffd2" stroke-width="1"/>
</svg>
