<svg xmlns="http://www.w3.org/2000/svg" width="537.905" height="72.898" viewBox="0 0 537.905 72.898">
  <path id="Subtraction_11" data-name="Subtraction 11" d="M10919,20716v0h-536.381a133.077,133.077,0,0,1,9.866-11.273,131.575,131.575,0,0,1,11.558-10.453,139.183,139.183,0,0,1,13.445-9.516,155.623,155.623,0,0,1,15.531-8.467,200.388,200.388,0,0,1,20.818-8.514,179.708,179.708,0,0,1,59.392-9.789c32.638,0,64.625,7.916,98.491,16.3,2.529.627,5.226,1.293,7.605,1.881,17.153,4.219,37.192,9.014,57.944,12.494a389.373,389.373,0,0,0,64.935,5.678,353.167,353.167,0,0,0,38.24-2.086,374.8,374.8,0,0,0,41.412-6.941c8.487-1.91,17.1-4.293,25.586-7.076,8.212-2.7,16.538-5.842,24.747-9.348a360.074,360.074,0,0,0,46.81-24.391V20716Z" transform="translate(-10381.593 -20643.602)" fill="#2dc99a" stroke="#96ffd2" stroke-width="1"/>
</svg>
