<svg xmlns="http://www.w3.org/2000/svg" width="198.218" height="185.515" viewBox="0 0 198.218 185.515">
  <g id="Group_2751" data-name="Group 2751" transform="translate(1728.619 -852.974)">
    <g id="shadow">
      <ellipse id="Ellipse_243" data-name="Ellipse 243" cx="68.724" cy="6.6" rx="68.724" ry="6.6" transform="translate(-1706.833 1025.289)" fill="#f88"/>
    </g>
    <g id="back_line" data-name="back line">
      <g id="Group_1640" data-name="Group 1640">
        <g id="Group_1629" data-name="Group 1629">
          <path id="Path_2260" data-name="Path 2260" d="M-1602.825,921.533c-13.214,0-19.914-5.087-19.914-15.12,0-4.627,1.149-9.067,2.366-13.768l.2-.775c1.154-4.472,1.956-9.169,2.732-13.712,2.066-12.1,3.85-22.551,11.364-22.551,12.747,0,20.123,36.627,20.235,43.746.008.541.021,1.081.034,1.624.022.935.044,1.874.044,2.822,0,5.9-1.913,10.666-5.531,13.771A17.623,17.623,0,0,1-1602.825,921.533Zm-3.252-64.963c-6.7,0-8.421,10.079-10.414,21.75-.779,4.562-1.585,9.28-2.749,13.791l-.2.776c-1.2,4.64-2.336,9.022-2.336,13.527,0,9.393,6.376,14.156,18.951,14.156,7.782,0,16.1-4.406,16.1-16.771,0-.941-.022-1.872-.044-2.8-.013-.545-.026-1.088-.035-1.631-.135-8.565-7.875-42.8-19.274-42.8Z" fill="#313131"/>
        </g>
        <g id="Group_1630" data-name="Group 1630">
          <path id="Path_2261" data-name="Path 2261" d="M-1603.625,961.378a.483.483,0,0,1-.483-.482v0c.075-11.06.176-26.2.176-26.558,0-2.03-.084-4.1-.166-6.1s-.166-4.09-.166-6.138c0-.856.015-1.648.044-2.421.065-1.706.1-3.373.1-4.958a72.664,72.664,0,0,0-1.25-13.576,67.514,67.514,0,0,1-1.024-8.361c-.237-4.732-.223-7.794-.208-11.034.021-4.493.042-9.14-.642-18.718a.482.482,0,0,1,.43-.529.481.481,0,0,1,.529.429l0,.032c.687,9.614.665,14.279.645,18.791-.015,3.227-.029,6.275.207,10.981a66.352,66.352,0,0,0,1.011,8.25,73.429,73.429,0,0,1,1.263,13.736c0,1.6-.033,3.277-.1,4.994-.029.76-.043,1.541-.043,2.384,0,2.029.084,4.1.166,6.1s.166,4.09.166,6.139c0,.359-.1,15.5-.176,26.564A.481.481,0,0,1-1603.625,961.378Z" fill="#313131"/>
        </g>
        <g id="Group_1631" data-name="Group 1631">
          <path id="Path_2262" data-name="Path 2262" d="M-1603.172,1006.275a.484.484,0,0,1-.482-.484v-1.037c0-3.343-.136-32.994-.256-35.981a.482.482,0,0,1,.473-.491.481.481,0,0,1,.49.452c.12,3,.257,32.657.257,36.02v1.043A.482.482,0,0,1-1603.172,1006.275Z" fill="#313131"/>
        </g>
        <g id="Group_1633" data-name="Group 1633">
          <path id="Path_2264" data-name="Path 2264" d="M-1606.125,883.055a.481.481,0,0,1-.155-.025c-4-1.346-4.9-3.461-6.272-6.662l-.015-.036a.482.482,0,0,1-.156-.354v-.107a.482.482,0,0,1,.482-.482.484.484,0,0,1,.444.292l.131.308c1.356,3.172,2.1,4.919,5.694,6.128a.481.481,0,0,1,.3.612.482.482,0,0,1-.454.326Z" fill="#313131"/>
        </g>
        <g id="Group_1634" data-name="Group 1634">
          <path id="Path_2265" data-name="Path 2265" d="M-1605.459,897.995a.5.5,0,0,1-.157-.026,16.92,16.92,0,0,1-9.959-9.842.484.484,0,0,1,.274-.626.484.484,0,0,1,.626.275h0a15.949,15.949,0,0,0,9.378,9.283.483.483,0,0,1,.3.614.483.483,0,0,1-.453.323Z" fill="#313131"/>
        </g>
        <g id="Group_1635" data-name="Group 1635">
          <path id="Path_2266" data-name="Path 2266" d="M-1605.21,908.013c-8.361,0-11.713-5.4-13.888-10.687a.482.482,0,0,1,.279-.622.483.483,0,0,1,.612.255c2.158,5.241,5.226,10.091,13,10.091.305,0,.611-.005.916-.011h.309a.483.483,0,0,1,.509.453.482.482,0,0,1-.454.509h-.04l-.307.005C-1604.59,908.008-1604.9,908.013-1605.21,908.013Z" fill="#313131"/>
        </g>
        <g id="Group_1636" data-name="Group 1636">
          <path id="Path_2267" data-name="Path 2267" d="M-1603.673,912.841a.482.482,0,0,1-.48-.484.482.482,0,0,1,.351-.462c5.843-1.61,8.557-7.3,9.8-11.781a.482.482,0,0,1,.579-.36.482.482,0,0,1,.359.58c0,.013-.006.025-.01.038-1.313,4.726-4.2,10.723-10.474,12.452A.494.494,0,0,1-1603.673,912.841Z" fill="#313131"/>
        </g>
        <g id="Group_1637" data-name="Group 1637">
          <path id="Path_2268" data-name="Path 2268" d="M-1605.994,891.539a.481.481,0,0,1-.481-.482.482.482,0,0,1,.37-.469c4.254-1.007,7.917-5.111,7.917-6.7a.483.483,0,0,1,.485-.48.482.482,0,0,1,.479.48c0,2.337-4.363,6.621-8.659,7.638A.456.456,0,0,1-1605.994,891.539Z" fill="#313131"/>
        </g>
        <g id="Group_1638" data-name="Group 1638">
          <path id="Path_2269" data-name="Path 2269" d="M-1606.146,876.332a.483.483,0,0,1-.481-.483.483.483,0,0,1,.4-.474,6.245,6.245,0,0,0,5.051-4.184c.1-.233.189-.43.27-.575a.482.482,0,0,1,.662-.163.481.481,0,0,1,.18.631c-.069.124-.142.293-.229.493a7.188,7.188,0,0,1-5.772,4.748A.429.429,0,0,1-1606.146,876.332Z" fill="#313131"/>
        </g>
        <g id="Group_1639" data-name="Group 1639">
          <path id="Path_2270" data-name="Path 2270" d="M-1604.754,902.381a.481.481,0,0,1-.476-.487.482.482,0,0,1,.451-.476c3.133-.168,5.2-3.517,6.647-6.416a.482.482,0,0,1,.643-.228.482.482,0,0,1,.228.642l-.009.017C-1598.839,898.566-1601.1,902.186-1604.754,902.381Z" fill="#313131"/>
        </g>
      </g>
      <g id="Group_1641" data-name="Group 1641">
        <path id="Path_2271" data-name="Path 2271" d="M-1579.583,1006.863l-1.365-.013c-11.516-.108-21.736-.174-31.243-.2a.483.483,0,0,1-.48-.483.468.468,0,0,1,.456-.48.126.126,0,0,1,.028,0c9.509.026,19.729.092,31.25.2l1.359.013a.482.482,0,0,1,.48.484.483.483,0,0,1-.48.48Z" fill="#313131"/>
      </g>
    </g>
    <path id="Path_2272" data-name="Path 2272" d="M-1674.289,980.191c-3.932-.237-7.844-.271-10.754-.188q-2.474.072-4.928.25a80.186,80.186,0,0,1,4.8-25.245,24.181,24.181,0,0,1,16.032-15.229q3.414-.97,6.786-1.6c.585,8.645,6.515,15.389,17.08,15.083,8.269-.23,13.384-6.382,16.154-13.524a112.264,112.264,0,0,1,27.214,11.951v.007a48.132,48.132,0,0,1-6.57,16.008c-4.8-2.046-9.6-4.273-15.09-6.96-1.719,14.679,12.109,38.256,15.889,49.7-5.509,3.654-23.666.015-29.683,2.751-5.9,2.679-12.426-.2-18.9-.295-2.109-.029-4.992-.148-7.532-.148-2.123,0-4.1-1.856-6.223-1.814-.717-3.125-1.26-6.313-1.74-9.515,10.322-1.81,20.345-5.666,33.249-12.925,4.169-2.339,5.464-7.775,6.146-12.675-.362.244-.752.5-1.162.765-.181-3.25-.32-6.445-.515-9.661a2.027,2.027,0,0,0-.035-.3,3.036,3.036,0,0,0-3.181-2.638c-2.283.188-4.552.4-6.835.641a3.082,3.082,0,0,0-2.659,3.376l.083,1.016.807,9.835a28.387,28.387,0,0,0-5.283,6.772,106.915,106.915,0,0,0-21.235.647,1.942,1.942,0,0,1-2.131-1.733,1.99,1.99,0,0,1-.006-.327C-1674.457,982.864-1674.38,981.527-1674.289,980.191Z" fill="#fff"/>
    <path id="Path_2275" data-name="Path 2275" d="M-1583.361,972.648a4.475,4.475,0,0,1-2.569.314,204.326,204.326,0,0,1-23.538-5.593,48.134,48.134,0,0,0,7.393-15.644c4.778,2.178,9.432,4.48,14.657,7.249.25.131.493.266.746.4a4.131,4.131,0,0,0,4.455-.448,103.216,103.216,0,0,1,24.922-14.788l.006-.005c2.051-.9,4.279-1.827,6.721-2.837a24.308,24.308,0,0,1,3.281-8.763,31.52,31.52,0,0,0,2.606,4.189c1.584,1.843,5.371.082,8.8-2.117-1.964,2.556-3.833,4.927-5.66,7.137-7.415,8.984-14.067,15.376-22.788,21.009A132.467,132.467,0,0,1-1583.361,972.648Z" fill="#fec739"/>
    <path id="Path_2279" data-name="Path 2279" d="M-1629.118,939.739c-2.77,7.141-7.886,13.294-16.154,13.524-10.565.306-16.5-6.438-17.08-15.083,1.594-.3,3.188-.543,4.768-.738v.007l.063-.014c-.021,0-.042.007-.063.007.376-1.58.669-3.271.9-4.914a13.2,13.2,0,0,0,1.037,2c2.047,3.271,5.457,5.7,8.972,5.77a9.028,9.028,0,0,0,6.536-2.784A78.778,78.778,0,0,1-1629.118,939.739Z" fill="#fec739"/>
    <path id="Path_2281" data-name="Path 2281" d="M-1634.4,926.6a15.093,15.093,0,0,1-4.416,10.861,10.785,10.785,0,0,1-7.8,3.323c-4.2-.084-8.265-2.984-10.708-6.887a32.817,32.817,0,0,1,2.616-12.336,46.763,46.763,0,0,0,11.458,1.139,40.671,40.671,0,0,0,8.074-1.047,18.406,18.406,0,0,1,.781,4.943Z" fill="#fec739"/>
    <path id="Path_2282" data-name="Path 2282" d="M-1658.563,931.511c-.067-.166-.133-.34-.2-.507a17.016,17.016,0,0,1-1.131-5.425c-.191-6.97,5.217-14.513,11.6-14.7,3.971-.107,10.791,3.057,13.108,10.774a40.6,40.6,0,0,1-8.074,1.047,46.72,46.72,0,0,1-11.458-1.139,32.822,32.822,0,0,0-2.616,12.337A15.587,15.587,0,0,1-1658.563,931.511Z" fill="#313131"/>
    <path id="Path_2283" data-name="Path 2283" d="M-1645.771,980.281l-.947-11.9s-.117-3.156,1.914-3.571a43.76,43.76,0,0,1,8.337-.765,3.779,3.779,0,0,1,2.455,3.345c.233,2,.593,6.592.632,9.9a11.056,11.056,0,0,1-8.994,5.8C-1643.821,982.614-1645.771,980.281-1645.771,980.281Z" fill="#ff8e9e"/>
    <path id="Path_2284" data-name="Path 2284" d="M-1633.522,976.592c.411-.264.8-.522,1.162-.765-.682,4.9-1.977,10.336-6.146,12.675-12.9,7.259-22.927,11.115-33.249,12.925a93.64,93.64,0,0,1-13.732,1.308,3.409,3.409,0,0,1-3.39-3.055,124.675,124.675,0,0,1-1.094-19.426q2.454-.177,4.928-.25c2.909-.083,6.821-.049,10.754.188-.091,1.336-.167,2.673-.223,4.03a1.943,1.943,0,0,0,1.81,2.066,1.982,1.982,0,0,0,.327-.006,106.92,106.92,0,0,1,21.235-.647,28.408,28.408,0,0,1,5.283-6.772c.153-.153.313-.306.473-.46,0,.16,0,.32.008.48.056,1.935.25,2.993,2.039,2.944C-1641.695,981.785-1636.941,978.841-1633.522,976.592Z" fill="#fec739"/>
    <g id="lineart">
      <g id="Group_1642" data-name="Group 1642">
        <path id="Path_2285" data-name="Path 2285" d="M-1646.494,940.786h-.195a10.692,10.692,0,0,1-6.775-2.911.483.483,0,0,1-.066-.679.483.483,0,0,1,.679-.066l.028.026a9.736,9.736,0,0,0,6.154,2.666,7.917,7.917,0,0,0,4.252-1.147.482.482,0,0,1,.654.194.483.483,0,0,1-.165.636A8.9,8.9,0,0,1-1646.494,940.786Z" fill="#313131"/>
      </g>
      <g id="Group_1645" data-name="Group 1645">
        <path id="Path_2288" data-name="Path 2288" d="M-1603.415,951.29a.485.485,0,0,1-.24-.064,112.4,112.4,0,0,0-22.9-10.237.482.482,0,0,1-.291-.616.481.481,0,0,1,.576-.3,113.407,113.407,0,0,1,23.091,10.322.481.481,0,0,1,.178.658.483.483,0,0,1-.419.242Z" fill="#313131"/>
      </g>
      <g id="Group_1646" data-name="Group 1646">
        <path id="Path_2289" data-name="Path 2289" d="M-1674.172,979.032h-.039a.482.482,0,0,1-.442-.517h0c.386-4.909,1.042-10.137,2.125-16.953a.482.482,0,0,1,.547-.407.481.481,0,0,1,.407.546l0,.012c-1.079,6.79-1.732,11.995-2.116,16.877A.482.482,0,0,1-1674.172,979.032Z" fill="#313131"/>
      </g>
      <g id="Group_1647" data-name="Group 1647">
        <path id="Path_2290" data-name="Path 2290" d="M-1689.892,978.842a.488.488,0,0,1-.481-.493v-.014a80.055,80.055,0,0,1,4.751-23.489,24.7,24.7,0,0,1,16.351-15.53c1.509-.429,3.022-.811,4.5-1.137a.481.481,0,0,1,.562.386.483.483,0,0,1-.355.555c-1.456.321-2.95.7-4.441,1.122a23.736,23.736,0,0,0-15.708,14.928,79.132,79.132,0,0,0-4.7,23.214A.482.482,0,0,1-1689.892,978.842Z" fill="#313131"/>
      </g>
      <g id="Group_1648" data-name="Group 1648">
        <path id="Path_2291" data-name="Path 2291" d="M-1670.282,1010.228a.483.483,0,0,1-.471-.381c-.514-2.4-.985-5.048-1.48-8.348a.483.483,0,0,1,.42-.537.48.48,0,0,1,.533.394c.492,3.28.959,5.914,1.469,8.289a.482.482,0,0,1-.37.572A.487.487,0,0,1-1670.282,1010.228Z" fill="#313131"/>
      </g>
      <g id="Group_1649" data-name="Group 1649">
        <path id="Path_2292" data-name="Path 2292" d="M-1645.966,978.019a.482.482,0,0,1-.48-.442l-.782-9.526a3.543,3.543,0,0,1,3.087-3.894c2.151-.23,4.39-.439,6.847-.642a3.533,3.533,0,0,1,3.7,3.045,2.29,2.29,0,0,1,.04.34c.114,1.879.208,3.748.3,5.625l.133,2.576a.481.481,0,0,1-.474.489.482.482,0,0,1-.488-.438l-.132-2.578c-.1-1.873-.189-3.739-.3-5.612a1.436,1.436,0,0,0-.025-.228,2.573,2.573,0,0,0-2.671-2.258c-2.449.2-4.68.411-6.823.639a2.617,2.617,0,0,0-2.23,2.857l.782,9.526a.482.482,0,0,1-.44.52h-.044Z" fill="#313131"/>
      </g>
      <g id="Group_1650" data-name="Group 1650">
        <path id="Path_2293" data-name="Path 2293" d="M-1646.665,969.509a.483.483,0,0,1-.481-.483.487.487,0,0,1,.081-.267c1.675-2.5,5.646-2.572,7.553-2.607l.344-.007c.568-.021,1.133-.035,1.706-.049.76-.021,1.521-.048,2.275-.09h.068a3.418,3.418,0,0,1,1.2.171.482.482,0,0,1,.268.627.483.483,0,0,1-.568.287,2.447,2.447,0,0,0-.875-.122c-.8.042-1.566.07-2.336.091-.57.014-1.132.028-1.7.049l-.356.008c-1.745.032-5.376.1-6.771,2.18A.481.481,0,0,1-1646.665,969.509Z" fill="#313131"/>
      </g>
      <g id="Group_1651" data-name="Group 1651">
        <path id="Path_2294" data-name="Path 2294" d="M-1649.145,933.857a2.813,2.813,0,0,1-2.579-2.882,2.9,2.9,0,0,1,2.311-3.071,5.338,5.338,0,0,1,.827-.07,2.906,2.906,0,0,1,2.883,2.682A3.4,3.4,0,0,1-1649.145,933.857Zm.559-5.064a4.41,4.41,0,0,0-.679.059,1.979,1.979,0,0,0-1.495,2.123,1.855,1.855,0,0,0,1.617,1.919,2.435,2.435,0,0,0,2.477-2.382,1.936,1.936,0,0,0-1.92-1.72Z" fill="#fff"/>
      </g>
      <g id="Group_1652" data-name="Group 1652">
        <path id="Path_2295" data-name="Path 2295" d="M-1639.021,933.191a2.458,2.458,0,0,1-2.756-2.118,2.672,2.672,0,0,1-.021-.282,3.154,3.154,0,0,1,2.968-3.316,1.744,1.744,0,0,1,.216.009,2.25,2.25,0,0,1,1.3.45,2.575,2.575,0,0,1,1.218,2.1,2.876,2.876,0,0,1-2.588,3.139A2.9,2.9,0,0,1-1639.021,933.191Zm.192-4.751a2.223,2.223,0,0,0-2,2.352c0,.694.476,1.435,1.813,1.435a1.927,1.927,0,0,0,1.978-1.874,1.938,1.938,0,0,0-.018-.313c0-.338-.066-.721-.857-1.353a1.336,1.336,0,0,0-.776-.242c-.051,0-.1-.005-.141-.005Z" fill="#fff"/>
      </g>
      <g id="Group_1653" data-name="Group 1653">
        <path id="Path_2296" data-name="Path 2296" d="M-1646.01,930.25a.483.483,0,0,1-.481-.483.491.491,0,0,1,.1-.293,3.948,3.948,0,0,1,3.2-1.4,5.128,5.128,0,0,1,2.625.7.482.482,0,0,1,.188.655.482.482,0,0,1-.656.187l-.037-.022a4.138,4.138,0,0,0-2.12-.561,3,3,0,0,0-2.432,1.021A.484.484,0,0,1-1646.01,930.25Z" fill="#fff"/>
      </g>
      <g id="Group_1654" data-name="Group 1654">
        <path id="Path_2297" data-name="Path 2297" d="M-1650.972,929.327a.482.482,0,0,1-.34-.141c-.717-.717-1.292-1.321-1.771-1.826-1.447-1.523-1.9-1.963-2.631-1.963a2.19,2.19,0,0,0-1.581.768.481.481,0,0,1-.677.075.481.481,0,0,1-.075-.677c.008-.011.018-.022.027-.032a3.137,3.137,0,0,1,2.306-1.1c1.18,0,1.854.709,3.33,2.263.474.5,1.044,1.1,1.753,1.808a.482.482,0,0,1,0,.682.484.484,0,0,1-.34.14Z" fill="#fff"/>
      </g>
    </g>
    <g id="symbols">
      <g id="Group_1655" data-name="Group 1655">
        <path id="Path_2298" data-name="Path 2298" d="M-1676.813,895.034a.646.646,0,0,1-.43-.165l-2.511-2.256c-2.331-2.092-4.741-4.255-7.06-6.4a.642.642,0,0,1-.036-.907c.016-.017.032-.033.049-.048q2.3-2.008,4.568-4.018c2.017-1.78,4.034-3.56,6.083-5.34a.641.641,0,0,1,.886.042q2.631,2.76,5.227,5.553,1.92,2.051,3.844,4.1a.643.643,0,0,1-.026.909c-.012.011-.024.022-.037.032-3.333,2.693-6.779,5.478-10.14,8.35A.637.637,0,0,1-1676.813,895.034Zm-8.6-9.282c2.151,1.981,4.37,3.973,6.522,5.9l2.094,1.881c3.056-2.6,6.17-5.123,9.2-7.572q-1.69-1.794-3.372-3.6-2.391-2.556-4.8-5.1c-1.888,1.643-3.75,3.287-5.614,4.931q-2.013,1.788-4.036,3.563Z" transform="translate(3 1)" fill="#019e96"/>
      </g>
      <g id="Group_1656" data-name="Group 1656" transform="translate(-33 29.532)">
        <path id="Path_2299" data-name="Path 2299" d="M-1665.375,833.165a.642.642,0,0,1-.64-.644.642.642,0,0,1,.14-.4c1.414-1.767,2.921-3.5,4.515-5.334.89-1.023,1.792-2.06,2.69-3.119a.643.643,0,0,1,.906-.075.642.642,0,0,1,.074.906c-.9,1.062-1.807,2.1-2.7,3.131-1.586,1.824-3.084,3.546-4.482,5.293A.639.639,0,0,1-1665.375,833.165Z" fill="#ff8e9e"/>
      </g>
      <g id="Group_1657" data-name="Group 1657">
        <path id="Path_2300" data-name="Path 2300" d="M-1561.707,929.826a4.481,4.481,0,0,0-1.425-.235,5.433,5.433,0,0,0-5.116,5.243,4.488,4.488,0,0,0,4.511,4.463c.063,0,.126,0,.189-.005a5.421,5.421,0,0,0,5.606-5.07,6.2,6.2,0,0,0-1.585-3.309A4.669,4.669,0,0,0-1561.707,929.826Z" fill="#019e96"/>
      </g>
      <g id="Group_1658" data-name="Group 1658">
        <path id="Path_2301" data-name="Path 2301" d="M-1721.977,919.953c1.437,2.626,2.724,5.3,4.158,7.9-1.984,2.23-4.117,4.37-6.12,6.588-1.539-2.337-3.179-4.593-4.68-6.907C-1726.354,925.059-1724.179,922.492-1721.977,919.953Z" fill="#acd5ff"/>
      </g>
      <g id="Group_1659" data-name="Group 1659">
        <path id="Path_2302" data-name="Path 2302" d="M-1563.454,860.6a.644.644,0,0,1-.436-.169c-1.163-1.069-2.4-2.019-3.59-2.937a41.285,41.285,0,0,1-4.077-3.427.643.643,0,0,1,0-.908.642.642,0,0,1,.908,0,40.256,40.256,0,0,0,3.953,3.317c1.214.935,2.47,1.9,3.675,3.009a.641.641,0,0,1,.039.907.639.639,0,0,1-.474.208Z" fill="#019e96"/>
      </g>
      <g id="Group_1660" data-name="Group 1660" transform="translate(-22 50)">
        <path id="Path_2303" data-name="Path 2303" d="M-1509.046,954.593a.636.636,0,0,1-.35-.1c-1.08-.707-2.11-1.479-3.1-2.226a28.851,28.851,0,0,0-6.64-4.094.643.643,0,0,1-.366-.831.642.642,0,0,1,.831-.366l.013.005a30.273,30.273,0,0,1,6.933,4.258c.979.735,1.991,1.494,3.037,2.178a.64.64,0,0,1,.188.888.643.643,0,0,1-.54.292Z" fill="#ff8e9e"/>
      </g>
    </g>
    <ellipse id="Ellipse_457" data-name="Ellipse 457" cx="0.655" cy="0.602" rx="0.655" ry="0.602" transform="translate(-1639.84 930.658)" fill="#313131"/>
    <ellipse id="Ellipse_458" data-name="Ellipse 458" cx="0.655" cy="0.602" rx="0.655" ry="0.602" transform="translate(-1648.406 930.537)" fill="#313131"/>
    <path id="Path_3864" data-name="Path 3864" d="M-1646.573,935.985a3.6,3.6,0,0,0,1.181.658,3.225,3.225,0,0,0,2.607-.227c.425-.229.047-.877-.379-.647a2.464,2.464,0,0,1-2.064.138l-.106-.04a.22.22,0,0,1-.043-.019c-.062-.028-.123-.057-.182-.088-.1-.052-.2-.109-.3-.171-.062-.041-.121-.091-.184-.129.081.049.039.033-.005-.006a.385.385,0,0,0-.53,0,.379.379,0,0,0,0,.531Z" fill="#313131"/>
    <path id="Path_3865" data-name="Path 3865" d="M-1643.908,927.834l.462,5.414.065.765.348-.457-2.119.432c-.6.122-.344,1.036.253.915l2.118-.432a.477.477,0,0,0,.348-.458l-.461-5.414-.065-.765c-.051-.6-1-.609-.949,0Z" fill="#313131"/>
    <path id="Path_3866" data-name="Path 3866" d="M-1683.508,1011.314s29.81.087,37.57,0,42.067-.6,45.351-.778c7.638-.415,11.519.7,11.519.7,1.456,21-37.879,16.007-66.994,12.264S-1683.508,1011.314-1683.508,1011.314Z" fill="#019e96"/>
    <path id="Path_2278" data-name="Path 2278" d="M-1618.928,1024.725c1.468,2.659,3.1,5.151,5.081,8.192-.167.014-.334.035-.5.049a11.937,11.937,0,0,1-6.424-1.169,68.644,68.644,0,0,0-8.819-3.466l-.571-.021a54.394,54.394,0,0,0-2.394-7.649h.014l10.12-3.425A59.862,59.862,0,0,0-1618.928,1024.725Z" fill="#313131"/>
    <path id="Path_2280" data-name="Path 2280" d="M-1635.361,1028.217c-16.162-.042-34.391,1.991-50.169,2.687a9.568,9.568,0,0,1-9.756-9.374c0-.068,0-.136,0-.2s-.008-.13-.007-.2a9.529,9.529,0,0,1,9.151-9.893c.147-.006.294-.008.44-.007,1.427.049,2.826.1,4.2.181,15.313.842,27.917,3.522,44.455,8.011C-1636.335,1022.314-1635.786,1025.265-1635.361,1028.217Z" fill="#fec739"/>
    <path id="Path_2278-2" data-name="Path 2278" d="M-1652.379,1017.3l10.12,3.425h.014a54.493,54.493,0,0,0-2.394,7.649l-.571.021a69.033,69.033,0,0,0-8.819,3.466,11.919,11.919,0,0,1-6.424,1.169c-.166-.014-.333-.035-.5-.049,1.981-3.041,3.613-5.533,5.081-8.192A59.655,59.655,0,0,0-1652.379,1017.3Z" fill="#313131"/>
    <path id="Path_2280-2" data-name="Path 2280" d="M-1637.351,1019.424c16.538-4.489,29.142-7.169,44.455-8.011,1.374-.081,2.773-.132,4.2-.181.147,0,.294,0,.44.007a9.529,9.529,0,0,1,9.151,9.893,1.8,1.8,0,0,1-.007.2c0,.067,0,.135,0,.2a9.568,9.568,0,0,1-9.756,9.374c-15.778-.7-34.007-2.729-50.169-2.687C-1638.614,1025.265-1638.065,1022.314-1637.351,1019.424Z" fill="#fec739"/>
  </g>
</svg>
