<svg xmlns="http://www.w3.org/2000/svg" width="193.162" height="189.162" viewBox="0 0 193.162 189.162">
  <g id="Group_2806" data-name="Group 2806" transform="translate(-3257.873 -1054.759)">
    <path id="Path_4078" data-name="Path 4078" d="M3589.221,1077.855c0,5.1-5.532,13.066-11.146,12.062-11.43-2.044-10.933-7.516-10.218-12.863.676-5.059,5.337-8.44,11.039-8.44S3589.221,1072.751,3589.221,1077.855Z" transform="translate(-214.136 -9.581)" fill="#313131"/>
    <rect id="Rectangle_1424" data-name="Rectangle 1424" width="8.457" height="21.523" rx="4.228" transform="translate(3363.732 1091.667) rotate(-173.074)" fill="#ffc517"/>
    <path id="Path_4079" data-name="Path 4079" d="M3575.277,1090.333h0l.2-1.645a3.629,3.629,0,0,1-1.024-.36c-1.313-.692-1.979-2.007-1.489-2.938.46-.874,1.778-1.1,3.023-.548a8.665,8.665,0,0,1,17.055,2.947l-.563,4.634h0c0,.042-.007.083-.012.124a8.664,8.664,0,0,1-17.2-2.09C3575.264,1090.415,3575.271,1090.374,3575.277,1090.333Z" transform="translate(-217.772 -16.125)" fill="#ffc517"/>
    <circle id="Ellipse_549" data-name="Ellipse 549" cx="1.011" cy="1.011" r="1.011" transform="translate(3371.354 1072.204)" fill="#313131"/>
    <circle id="Ellipse_550" data-name="Ellipse 550" cx="1.011" cy="1.011" r="1.011" transform="translate(3365.427 1071.484)" fill="#313131"/>
    <path id="Path_4080" data-name="Path 4080" d="M3616.688,1111.937l.006,3.859v.546l.461-.361-1-.071c-.53-.038-.632.783-.1.821l1,.071a.417.417,0,0,0,.46-.361l-.006-3.858v-.546a.427.427,0,0,0-.36-.461.415.415,0,0,0-.46.361Z" transform="translate(-247.437 -39.288)" fill="#313131"/>
    <path id="Path_4081" data-name="Path 4081" d="M3610.057,1132.348h-.021c-.085,0,.125,0,.049,0s-.126,0-.189,0a4.535,4.535,0,0,1-.631-.069c-.063-.011-.125-.025-.187-.039-.046-.011-.074-.041.006,0a.588.588,0,0,0-.1-.029,2.528,2.528,0,0,1-.359-.14l-.083-.043c-.065-.034.078.05-.021-.014a1.6,1.6,0,0,1-.148-.107c-.011-.009-.066-.071-.077-.069.021,0,.064.069,0,0-.023-.026-.045-.053-.065-.081s-.081-.125-.018-.019a.425.425,0,0,0-.544-.216.417.417,0,0,0-.215.544,2.927,2.927,0,0,0,2.725,1.1.415.415,0,0,0,.348-.47.425.425,0,0,0-.47-.348Z" transform="translate(-241.707 -53.055)" fill="#313131"/>
    <g id="shadow-4" transform="translate(3324.224 1237.231)">
      <ellipse id="Ellipse_244" data-name="Ellipse 244" cx="15.61" cy="2.708" rx="15.61" ry="2.708" transform="translate(40.777 1.275)" fill="#89ffdc"/>
      <ellipse id="Ellipse_245" data-name="Ellipse 245" cx="10.035" cy="1.593" rx="10.035" ry="1.593" fill="#89ffdc"/>
    </g>
    <g id="back_line-4" data-name="back line-4" transform="translate(3269.689 1074.87)">
      <g id="Group_1666" data-name="Group 1666">
        <g id="Group_1662" data-name="Group 1662">
          <path id="Path_2304" data-name="Path 2304" d="M3317.014,1142.755a.379.379,0,0,1-.128-.024,26.926,26.926,0,0,1-6.466-3.7,9.341,9.341,0,0,1-4.252,1.048c-5.324,0-9.993-4.517-9.993-9.665,0-5.674,4.591-10.467,10.026-10.467a8.282,8.282,0,0,1,3.1.593,5.178,5.178,0,0,0,.641.19,5.217,5.217,0,0,1,.833.256c3.609,1.6,5.225,5.668,5.225,8.985a10.169,10.169,0,0,1-2.292,6.383,35.589,35.589,0,0,0,3.589,5.835.354.354,0,0,1-.286.572Zm-6.559-4.5a.351.351,0,0,1,.216.073,27.707,27.707,0,0,0,5.306,3.246,35.633,35.633,0,0,1-3.009-5.128.357.357,0,0,1,.05-.381,9.471,9.471,0,0,0,2.272-6.1c0-3.087-1.485-6.859-4.8-8.336a4.652,4.652,0,0,0-.717-.216,5.888,5.888,0,0,1-.731-.216,7.6,7.6,0,0,0-2.838-.542c-4.963,0-9.316,4.56-9.316,9.757,0,4.771,4.337,8.955,9.283,8.955a8.677,8.677,0,0,0,4.118-1.068.336.336,0,0,1,.169-.048Z" transform="translate(-3296.175 -1119.949)" fill="#313131"/>
        </g>
        <g id="Group_1663" data-name="Group 1663" transform="translate(4.128 8.943)">
          <path id="Path_2305" data-name="Path 2305" d="M3310.931,1151.88a1.383,1.383,0,0,1-1.375-1.389h0v-.026a1.551,1.551,0,0,1,.667-1.269,1.225,1.225,0,0,1,.705-.257c.953,0,1.568.526,1.568,1.34A1.685,1.685,0,0,1,3310.931,1151.88Zm0-2.232a.554.554,0,0,0-.3.129.845.845,0,0,0-.368.688.674.674,0,0,0,.64.705h.027c.591,0,.857-.684.857-.892,0-.547-.538-.63-.857-.63Z" transform="translate(-3309.556 -1148.938)" fill="#313131"/>
        </g>
        <g id="Group_1664" data-name="Group 1664" transform="translate(8.376 8.763)">
          <path id="Path_2306" data-name="Path 2306" d="M3324.594,1151.17a1.369,1.369,0,0,1-1.264-1.468h0v-.039a1.216,1.216,0,0,1,1.117-1.307h.092a1.772,1.772,0,0,1,1.258.481.982.982,0,0,1,.25.677A1.626,1.626,0,0,1,3324.594,1151.17Zm-.151-2.112a.572.572,0,0,0-.4.6c0,.387.191.8.552.8a.952.952,0,0,0,.747-.947.345.345,0,0,0-.045-.181,1.068,1.068,0,0,0-.751-.269.327.327,0,0,1-.1,0Z" transform="translate(-3323.325 -1148.355)" fill="#313131"/>
        </g>
        <g id="Group_1665" data-name="Group 1665" transform="translate(12.338 8.342)">
          <path id="Path_2307" data-name="Path 2307" d="M3337.428,1149.786a1.361,1.361,0,0,1-1.257-1.429,1.3,1.3,0,0,1,1.157-1.358c.07-.006.141-.01.211-.01a1.366,1.366,0,0,1,1.318,1.412h0v0A1.468,1.468,0,0,1,3337.428,1149.786Zm.112-2.089a1.225,1.225,0,0,0-.153.007.593.593,0,0,0-.508.651c0,.349.22.721.548.721a.762.762,0,0,0,.72-.667c0-.011-.026-.713-.608-.713Z" transform="translate(-3336.17 -1146.989)" fill="#313131"/>
        </g>
      </g>
      <g id="Group_1669" data-name="Group 1669" transform="translate(157.275 82.269)">
        <g id="Group_1667" data-name="Group 1667">
          <path id="Path_2308" data-name="Path 2308" d="M3818.293,1411.168a12.048,12.048,0,0,1-9.083-20.252,31.167,31.167,0,0,0-2.394-3.724.355.355,0,0,1,.355-.561,18.7,18.7,0,0,1,5.572,2.055,20.433,20.433,0,0,1,3.513-.884,14.554,14.554,0,0,1,2.523-.223,12.575,12.575,0,0,1,7.65,2.484,9.431,9.431,0,0,1,3.62,7.717C3830.042,1405.445,3823.839,1411.168,3818.293,1411.168Zm-10.357-23.634a32.39,32.39,0,0,1,2.024,3.282.356.356,0,0,1-.064.421c-.046.045-.1.1-.139.138a11.337,11.337,0,0,0,8.536,19.084c5.211,0,11.04-5.421,11.04-12.671,0-6.52-5.474-9.49-10.56-9.49a13.887,13.887,0,0,0-2.4.213,19.185,19.185,0,0,0-3.54.906.352.352,0,0,1-.3-.023,18.085,18.085,0,0,0-4.6-1.86Z" transform="translate(-3805.982 -1386.624)" fill="#313131"/>
        </g>
        <g id="Group_1668" data-name="Group 1668" transform="translate(6.789 6.752)">
          <path id="Path_2309" data-name="Path 2309" d="M3833.563,1418.964a5.329,5.329,0,0,1-5.57-5.074c0-.079-.006-.157-.006-.236,0-3.511,3.727-5.144,6.245-5.144,2.226,0,4.62,1.182,4.62,3.776,0,2.2-1.581,3.544-2.441,3.544a1.63,1.63,0,0,1-1.573-1.324,2.873,2.873,0,0,1-2.426,1.881,1.8,1.8,0,0,1-1.778-1.828v-.03a3.018,3.018,0,0,1,3.025-3.011h.119a4.76,4.76,0,0,1,1.149.149,1.519,1.519,0,0,1,.34.629c0,1.873.381,2.822,1.143,2.822a2.77,2.77,0,0,0,1.732-2.834c0-2.422-2.457-3.067-3.906-3.067-2.233,0-5.537,1.41-5.537,4.436a4.591,4.591,0,0,0,4.573,4.608c.095,0,.2,0,.3-.008a7.082,7.082,0,0,0,4.478-1.834.356.356,0,1,1,.572.425h0A7.656,7.656,0,0,1,3833.563,1418.964Zm.213-6.736a2.309,2.309,0,0,0-2.429,2.184h0v.114a1.09,1.09,0,0,0,1.029,1.143h.04c.887,0,2.137-1.048,2.143-3.364A3.891,3.891,0,0,0,3833.777,1412.227Z" transform="translate(-3827.988 -1408.509)" fill="#313131"/>
        </g>
      </g>
      <g id="Group_1670" data-name="Group 1670" transform="translate(37.053 158.77)">
        <path id="Path_2310" data-name="Path 2310" d="M3433.1,1635.653c-4.573-.108-9.6-.225-16.47-.341a.355.355,0,1,1,.013-.71c6.866.117,11.9.233,16.466.342a.355.355,0,0,1,.351.358h0a.355.355,0,0,1-.358.35h0Z" transform="translate(-3416.284 -1634.602)" fill="#313131"/>
      </g>
      <g id="Group_1671" data-name="Group 1671" transform="translate(73.701 159.399)">
        <path id="Path_2311" data-name="Path 2311" d="M3542.724,1637.442c-2.611,0-5.025-.007-7.293-.023a.355.355,0,0,1-.352-.356h0a.344.344,0,0,1,.337-.352h.021c3.752.025,7.907.029,12.692.013,4.271-.015,8.28-.043,11.916-.084a.355.355,0,1,1,.008.71h0c-3.638.041-7.648.07-11.92.084C3546.233,1637.439,3544.436,1637.442,3542.724,1637.442Z" transform="translate(-3535.078 -1636.64)" fill="#313131"/>
      </g>
      <g id="Group_1672" data-name="Group 1672" transform="translate(125.283 158.403)">
        <path id="Path_2312" data-name="Path 2312" d="M3702.642,1634.447a.355.355,0,0,1-.015-.709h0c3.156-.11,6.574-.226,10.575-.325a.363.363,0,0,1,.363.346.356.356,0,0,1-.346.363h0C3709.226,1634.22,3705.808,1634.336,3702.642,1634.447Z" transform="translate(-3702.281 -1633.413)" fill="#313131"/>
      </g>
      <g id="Group_1673" data-name="Group 1673" transform="translate(21.194 109.74)">
        <path id="Path_2313" data-name="Path 2313" d="M3399.553,1503.026a.354.354,0,0,1-.349-.418,46.278,46.278,0,0,0,.815-8.193c0-12.385-6.517-18.031-12.575-18.031-2.211,0-4.764,1.352-7,3.71-4.432,4.668-6.732,12.04-6.309,20.227a.354.354,0,0,1-.5.343,7.424,7.424,0,0,0-8.157,1.619.355.355,0,0,1-.5-.5h0a8.16,8.16,0,0,1,8.424-1.976c-.3-8.161,2.063-15.5,6.528-20.2,2.372-2.5,5.112-3.931,7.516-3.931,4.163,0,7.642,2.086,10.058,6.034a25.021,25.021,0,0,1,3.225,12.707,45.637,45.637,0,0,1-.658,7.335,16.88,16.88,0,0,1,8.654-3.94.353.353,0,1,1,.058.7,16.614,16.614,0,0,0-8.994,4.412A.358.358,0,0,1,3399.553,1503.026Z" transform="translate(-3364.875 -1475.672)" fill="#313131"/>
      </g>
      <g id="Group_1674" data-name="Group 1674" transform="translate(79.22 142.534)">
        <path id="Path_2314" data-name="Path 2314" d="M3564.361,1602.221a.356.356,0,0,1-.354-.357.36.36,0,0,1,.046-.173,7.865,7.865,0,0,0,.909-4.033c0-9.378-4.154-14.977-11.11-14.977-.171,0-.344,0-.518.01a.35.35,0,0,1-.368-.33h0v-.01a.354.354,0,0,1,.339-.369h0c.182-.008.364-.011.546-.011,7.4,0,11.818,5.864,11.818,15.687a8.545,8.545,0,0,1-1,4.382A.358.358,0,0,1,3564.361,1602.221Z" transform="translate(-3552.966 -1581.971)" fill="#313131"/>
      </g>
      <g id="Group_1675" data-name="Group 1675" transform="translate(41.011 109.996)">
        <path id="Path_2315" data-name="Path 2315" d="M3431.317,1524.01a.351.351,0,0,1-.13-.025.355.355,0,0,1-.2-.46c1.677-4.268,2.7-7.692,2.7-19.231a77.713,77.713,0,0,0-4.547-27.311.356.356,0,1,1,.667-.249,78.409,78.409,0,0,1,4.592,27.56c0,11.664-1.038,15.148-2.745,19.491A.357.357,0,0,1,3431.317,1524.01Z" transform="translate(-3429.113 -1476.502)" fill="#313131"/>
      </g>
      <g id="Group_1676" data-name="Group 1676" transform="translate(44.607 116.922)">
        <path id="Path_2316" data-name="Path 2316" d="M3441.122,1506.724a.354.354,0,0,1-.354-.354h0a.355.355,0,0,1,.191-.312,36.659,36.659,0,0,0,9.194-7,.354.354,0,0,1,.5-.012h0a.355.355,0,0,1,.012.5h0a37.363,37.363,0,0,1-9.372,7.132A.346.346,0,0,1,3441.122,1506.724Z" transform="translate(-3440.767 -1498.95)" fill="#313131"/>
      </g>
      <g id="Group_1677" data-name="Group 1677" transform="translate(45.552 127.566)">
        <path id="Path_2317" data-name="Path 2317" d="M3444.186,1541.612a.354.354,0,0,1-.154-.674,42.1,42.1,0,0,0,10.691-7.389.354.354,0,0,1,.5.013h0a.355.355,0,0,1-.012.5h0a42.836,42.836,0,0,1-10.871,7.512A.361.361,0,0,1,3444.186,1541.612Z" transform="translate(-3443.83 -1533.452)" fill="#313131"/>
      </g>
      <g id="Group_1678" data-name="Group 1678" transform="translate(78.136 144.794)">
        <path id="Path_2318" data-name="Path 2318" d="M3549.809,1604.7a.354.354,0,0,1-.355-.354.368.368,0,0,1,.024-.13,69.99,69.99,0,0,1,8.376-14.793.354.354,0,0,1,.572.416,69.277,69.277,0,0,0-8.289,14.636A.353.353,0,0,1,3549.809,1604.7Z" transform="translate(-3549.453 -1589.299)" fill="#313131"/>
      </g>
    </g>
    <path id="Path_2319" data-name="Path 2319" d="M3598.553,1158.332c.5.1.994.191,1.5.292a38.635,38.635,0,0,1-1.158,5.089c-.846-.969-1.671-1.963-2.608-2.845l2.271-2.593Z" transform="translate(-234.011 -71.583)" fill="#fff"/>
    <path id="Path_2320" data-name="Path 2320" d="M3573.233,1153.743a23.021,23.021,0,0,0,3.89,4.038c-1.353.887-3.049,2.1-4.6,3.334-.271-2.424-.572-4.828-.876-7.231.5.036,1,.082,1.5.129C3573.172,1153.922,3573.2,1153.83,3573.233,1153.743Z" transform="translate(-216.973 -68.448)" fill="#fff"/>
    <path id="Path_2321" data-name="Path 2321" d="M3516.066,1180.05c-3.7,9.373-6.018,13.8-9.22,25.553h-.005c-.03-.179-.062-.349-.095-.517-14.375-.651-22.9-3.039-32.739-7.2a21.13,21.13,0,0,1,.538-4.12c2.327-10.03,4.633-13.033,8.85-24.2-2.983,2.557-5.822,4.894-8.943,7.385a74.687,74.687,0,0,1-8.174-8.389,79,79,0,0,1,14.053-13.448,8.956,8.956,0,0,1,4.885-1.764,101.827,101.827,0,0,1,13.566.144c.308,2.4.6,4.807.876,7.232,1.553-1.239,3.25-2.445,4.6-3.334q.571.476,1.225.984l.9-1.03c.939.881,1.764,1.876,2.608,2.845a38.708,38.708,0,0,0,1.158-5.089c1.994.4,4.013.866,6.084,1.4a9.01,9.01,0,0,1,6.088,5.335,191.519,191.519,0,0,1,8.1,24.082,86.152,86.152,0,0,0-10.013,4.105c-1.482-3.168-2.839-6.406-4.177-9.917Z" transform="translate(-144.112 -68.069)" fill="#313131"/>
    <path id="Path_2322" data-name="Path 2322" d="M3741.656,1250.163a.745.745,0,0,1,.64.837h0a.767.767,0,0,1-.02.1l-2.322,8.384c-2.281.8-4.573,1.573-6.853,2.419q.132,1.8.164,3.6h-.369c-1.11,0-2.223-.015-3.34-.077a.737.737,0,0,1-.685-.785h0a.744.744,0,0,1,.054-.23l.1-.22,5.806-14.063a.735.735,0,0,1,.71-.459C3737.571,1249.756,3739.616,1249.917,3741.656,1250.163Z" transform="translate(-325.694 -134.775)" fill="#313131"/>
    <path id="Path_2323" data-name="Path 2323" d="M3749.446,1280.263l1.524-.538a49.82,49.82,0,0,1-2.608,8.523c-1.973.59-3.854,1.107-5.658,1.548q.068-1.277.067-2.553c0-.323,0-.64-.01-.963q-.029-1.8-.164-3.6C3744.873,1281.838,3747.166,1281.066,3749.446,1280.263Z" transform="translate(-335.186 -155.564)" fill="#ffc517"/>
    <path id="Path_2324" data-name="Path 2324" d="M3673.012,1272.139c0,.323.01.641.01.963,0,.851-.02,1.7-.065,2.552v0a58.6,58.6,0,0,1-19.66,1.876,8.137,8.137,0,0,1-6.431-4.151c-1.9-3.424-3.582-6.669-5.13-10a86.34,86.34,0,0,1,10.014-4.1c.611,2.27,1.211,4.643,1.81,7.165a81.332,81.332,0,0,1,15.2,4.383l-.095.22a.736.736,0,0,0,.4.961h0a.77.77,0,0,0,.23.054c1.117.062,2.229.077,3.341.077Z" transform="translate(-265.441 -141.424)" fill="#ffc517"/>
    <path id="Path_2325" data-name="Path 2325" d="M3657.974,1623.932a1.016,1.016,0,0,1,.61,1.768c-6.207,5.561-9.23,7.2-13.417,9.112a1.4,1.4,0,0,1-1.857-.695h0a1.321,1.321,0,0,1-.089-.263c-.41-1.763-.729-3.557-.969-5.361a63.662,63.662,0,0,1,9.188-4.668v-.016c.64-.015,1.333-.02,2.162-.02C3655.063,1623.8,3656.523,1623.837,3657.974,1623.932Z" transform="translate(-265.798 -393.485)" fill="#313131"/>
    <path id="Path_2326" data-name="Path 2326" d="M3547.049,1398.593v.015a63.75,63.75,0,0,0-9.19,4.668,48.588,48.588,0,0,0-4.115,2.819c-3.514-19.382-6.222-33.249-9.958-46.888-1.5-5.494-3.172-10.956-5.135-16.722a36.052,36.052,0,0,1-4.787-4.249c-3.772-3.849-7.672-8.7-9.813-11.193-6.837-7.954-13.135-18.768-12.751-28.956,9.84,4.156,18.363,6.545,32.739,7.2.031.169.062.339.095.517,1.048,6.022,1.491,17.194,1.953,22.279C3537.724,1346.474,3543.462,1366.1,3547.049,1398.593Z" transform="translate(-161.404 -168.262)" fill="#ff8e9e"/>
    <path id="Path_2330" data-name="Path 2330" d="M3514,1432.471c1.963,5.766,3.634,11.228,5.135,16.723-8.8,13.571-14.17,24.225-21.575,40.9-.943-.446-1.886-.887-2.829-1.334a52.975,52.975,0,0,1-8.6-4.869c-.538-.381-1.056-.795-1.563-1.219,8.907-18.844,15.421-30.31,26.546-43.286q-.806-5.613-1.895-11.162A36.049,36.049,0,0,0,3514,1432.471Z" transform="translate(-156.756 -258.253)" fill="#ff8e9e"/>
    <path id="Path_2331" data-name="Path 2331" d="M3496.671,1618.546a1.954,1.954,0,0,1-1.237,2.47h0a1.954,1.954,0,0,1-1.429-.077,63.97,63.97,0,0,1-8.21-4.478,1.5,1.5,0,0,1-.667-1.465,43.214,43.214,0,0,1,1.378-6.319,53.077,53.077,0,0,0,8.6,4.869C3495.514,1615.012,3496.074,1616.72,3496.671,1618.546Z" transform="translate(-157.136 -383.035)" fill="#313131"/>
    <path id="Path_2332" data-name="Path 2332" d="M3432.666,1203.032a74.722,74.722,0,0,0,8.173,8.389c-1.691,1.342-3.469,2.731-5.4,4.217-1.931,18.491-5.033,28.587-11.551,37.72a14.769,14.769,0,0,1-3.937,3.62q-.728.429-1.449.857a48.223,48.223,0,0,0-.84-6.011,30.323,30.323,0,0,0,4.535-3.3c1.025-11.992,2.055-22.022,3.485-33.615a11.913,11.913,0,0,1,2.07-5.4C3429.4,1207.178,3431.02,1205.033,3432.666,1203.032Z" transform="translate(-110.496 -102.531)" fill="#ffc517"/>
    <g id="Group_1679" data-name="Group 1679" transform="translate(3363.128 1103.648)">
      <path id="Path_2333" data-name="Path 2333" d="M3599.411,1244.793a.356.356,0,0,1-.354-.356h0a.381.381,0,0,1,.013-.1,143.959,143.959,0,0,1,6.06-16.926c.762-1.85,1.546-3.763,2.42-5.978,1-2.515,1.98-5.124,3-7.975a.354.354,0,0,1,.456-.208h0a.354.354,0,0,1,.21.448c-1.028,2.858-2.012,5.473-3.012,8-.875,2.219-1.663,4.134-2.424,5.986a143.386,143.386,0,0,0-6.034,16.854A.355.355,0,0,1,3599.411,1244.793Z" transform="translate(-3599.057 -1213.232)" fill="#313131"/>
    </g>
    <g id="Group_1680" data-name="Group 1680" transform="translate(3372.698 1114.096)">
      <path id="Path_2334" data-name="Path 2334" d="M3632.956,1253.764a.358.358,0,0,1-.324-.209c-.868-1.922-1.7-3.875-2.53-5.968a.355.355,0,0,1,.659-.263h0c.83,2.084,1.654,4.026,2.518,5.939a.353.353,0,0,1-.175.468h0a.348.348,0,0,1-.146.031Z" transform="translate(-3630.076 -1247.101)" fill="#313131"/>
    </g>
    <g id="Group_1681" data-name="Group 1681" transform="translate(3407.053 1124.352)">
      <path id="Path_2335" data-name="Path 2335" d="M3741.968,1288.09a.355.355,0,0,1-.354-.354h0c0-1.478-.058-3.025-.171-4.6a.353.353,0,0,1,.229-.358c1.649-.611,3.329-1.194,4.954-1.756q.952-.329,1.905-.667a.354.354,0,0,1,.234.667l-1.905.667c-1.539.533-3.126,1.085-4.687,1.659.1,1.5.154,2.97.154,4.382a.354.354,0,0,1-.353.356h-.007Z" transform="translate(-3741.441 -1280.346)" fill="#fff"/>
    </g>
    <g id="Group_1683" data-name="Group 1683" transform="translate(3367.43 1087.055)">
      <path id="Path_2337" data-name="Path 2337" d="M3631.429,1188.959a.355.355,0,0,1-.342-.261,190.039,190.039,0,0,0-7.64-22.4,8.683,8.683,0,0,0-5.849-5.125c-1.472-.381-2.923-.725-4.314-1.028a.355.355,0,0,1,.143-.695h.007c1.4.3,2.858.653,4.341,1.035a9.4,9.4,0,0,1,6.329,5.546,190.517,190.517,0,0,1,7.666,22.474.354.354,0,0,1-.248.435h0A.318.318,0,0,1,3631.429,1188.959Z" transform="translate(-3613.001 -1159.447)" fill="#313131"/>
    </g>
    <g id="Group_1684" data-name="Group 1684" transform="translate(3354.319 1085.072)">
      <path id="Path_2338" data-name="Path 2338" d="M3571.73,1160.967a.355.355,0,0,1-.352-.315c-.238-2.125-.508-4.353-.875-7.226v-.05a.355.355,0,1,1,.709,0h0c.33,2.557.581,4.622.8,6.563,1.3-1.01,2.771-2.066,4.126-2.953a.353.353,0,0,1,.49.1h0a.356.356,0,0,1-.1.491h0c-1.517.994-3.185,2.2-4.573,3.312A.353.353,0,0,1,3571.73,1160.967Z" transform="translate(-3570.502 -1153.02)" fill="#313131"/>
    </g>
    <g id="Group_1685" data-name="Group 1685" transform="translate(3361.917 1086.69)">
      <path id="Path_2339" data-name="Path 2339" d="M3598.095,1164.06a.351.351,0,0,1-.268-.121l-.431-.494a30.518,30.518,0,0,0-2.154-2.325.355.355,0,1,1,.486-.517,31.384,31.384,0,0,1,2.2,2.382,38.752,38.752,0,0,0,.968-4.416.357.357,0,0,1,.351-.3.351.351,0,0,1,.354.349v0h0a.289.289,0,0,1,0,.065,38.5,38.5,0,0,1-1.169,5.135.356.356,0,0,1-.266.241A.441.441,0,0,1,3598.095,1164.06Z" transform="translate(-3595.13 -1158.264)" fill="#313131"/>
    </g>
    <g id="Group_1686" data-name="Group 1686" transform="translate(3322.526 1084.772)">
      <path id="Path_2340" data-name="Path 2340" d="M3467.8,1167.27a.354.354,0,0,1-.355-.353.349.349,0,0,1,.083-.23,79.283,79.283,0,0,1,13.4-12.647,9.277,9.277,0,0,1,5.078-1.833,103.516,103.516,0,0,1,12.3.047.354.354,0,0,1,.332.376v.01a.36.36,0,0,1-.381.331,102.712,102.712,0,0,0-12.216-.048,8.574,8.574,0,0,0-4.69,1.693,78.523,78.523,0,0,0-13.284,12.532A.351.351,0,0,1,3467.8,1167.27Z" transform="translate(-3467.446 -1152.048)" fill="#313131"/>
    </g>
    <g id="Group_1687" data-name="Group 1687" transform="translate(3330.079 1101.15)">
      <path id="Path_2341" data-name="Path 2341" d="M3492.284,1230.042a.372.372,0,0,1-.08-.009.354.354,0,0,1-.266-.425h0a77.779,77.779,0,0,1,5.108-14.992c.953-2.24,2.021-4.743,3.26-7.949-2.238,1.906-4.478,3.746-6.955,5.734a.355.355,0,0,1-.5-.055h0a.354.354,0,0,1,.054-.5h0c2.858-2.3,5.4-4.4,7.992-6.623a.353.353,0,0,1,.5.035h0a.352.352,0,0,1,.063.358c-1.458,3.857-2.685,6.735-3.767,9.275a77.134,77.134,0,0,0-5.07,14.875A.353.353,0,0,1,3492.284,1230.042Z" transform="translate(-3491.929 -1205.137)" fill="#313131"/>
    </g>
    <g id="Group_1688" data-name="Group 1688" transform="translate(3353.343 1170.85)">
      <path id="Path_2342" data-name="Path 2342" d="M3576.374,1451.516a.357.357,0,0,1-.342-.261c-1.517-5.55-3.183-10.979-5.091-16.593a31.443,31.443,0,0,1-3.494-2.982.355.355,0,0,1,.492-.51h0a30.1,30.1,0,0,0,3.5,2.978.348.348,0,0,1,.132.176c1.929,5.667,3.611,11.147,5.145,16.743a.354.354,0,0,1-.247.436h0A.388.388,0,0,1,3576.374,1451.516Z" transform="translate(-3567.338 -1431.07)" fill="#313131"/>
    </g>
    <g id="Group_1689" data-name="Group 1689" transform="translate(3355.234 1146.721)">
      <path id="Path_2343" data-name="Path 2343" d="M3581.782,1364.545a.355.355,0,0,1-.3-.16c-2.351-3.582-4.947-7.167-7.942-10.956a.355.355,0,0,1,.557-.44h0c3.006,3.811,5.621,7.411,7.978,11.01a.354.354,0,0,1-.1.49h0a.36.36,0,0,1-.19.058Z" transform="translate(-3573.467 -1352.855)" fill="#fff"/>
    </g>
    <g id="Group_1690" data-name="Group 1690" transform="translate(3444.864 1202.198)">
      <path id="Path_2344" data-name="Path 2344" d="M3864.357,1537.052a.356.356,0,0,1-.214-.639,4.539,4.539,0,0,0,1.607-3.392.365.365,0,0,1,.369-.339.354.354,0,0,1,.34.367v0h0a5.255,5.255,0,0,1-1.888,3.927A.354.354,0,0,1,3864.357,1537.052Z" transform="translate(-3864.002 -1532.682)" fill="#313131"/>
    </g>
    <g id="Group_1691" data-name="Group 1691" transform="translate(3334.3 1132.969)">
      <path id="Path_2345" data-name="Path 2345" d="M3505.965,1315.671a.355.355,0,0,1-.068-.7c2.147-.39,4.074-.971,4.074-3.743a6.525,6.525,0,0,0-.544-2.459.354.354,0,1,1,.654-.272,7.208,7.208,0,0,1,.6,2.729c0,3.316-2.4,4.031-4.657,4.441A.5.5,0,0,1,3505.965,1315.671Z" transform="translate(-3505.611 -1308.276)" fill="#fff"/>
    </g>
    <g id="Group_1692" data-name="Group 1692" transform="translate(3318.871 1127.716)">
      <path id="Path_2346" data-name="Path 2346" d="M3457.346,1292.219a4.3,4.3,0,0,1-1.048-.172c-.138-.034-.276-.07-.415-.1a.355.355,0,0,1,.139-.7h0c.148.029.3.067.448.1a2.778,2.778,0,0,0,1.135.126.354.354,0,0,1,.418.276h0a.354.354,0,0,1-.276.418h0A2.033,2.033,0,0,1,3457.346,1292.219Z" transform="translate(-3455.599 -1291.25)" fill="#fff"/>
    </g>
    <g id="Group_1693" data-name="Group 1693" transform="translate(3318.641 1130.238)">
      <path id="Path_2347" data-name="Path 2347" d="M3456.929,1300.364a9.223,9.223,0,0,1-1.79-.236.355.355,0,1,1,.136-.7,8.587,8.587,0,0,0,1.654.223.355.355,0,1,1,0,.71Z" transform="translate(-3454.853 -1299.425)" fill="#fff"/>
    </g>
    <g id="symbols-4" transform="translate(3257.873 1054.759)">
      <g id="Group_1694" data-name="Group 1694" transform="translate(137.937 44.503)">
        <path id="Path_2348" data-name="Path 2348" d="M3711.87,1204a.476.476,0,0,1-.252-.073l-6.448-4.073a.474.474,0,0,1,.5-.8l6.448,4.073a.477.477,0,0,1-.254.873Z" transform="translate(-3704.993 -1199.016)" fill="#fec739"/>
      </g>
      <g id="Group_1695" data-name="Group 1695" transform="translate(159.845 152.5)">
        <path id="Path_2349" data-name="Path 2349" d="M3778.122,1549.505a3.83,3.83,0,0,0-2.112,3.445,3.02,3.02,0,0,0,2.946,3.089h.172a3.992,3.992,0,0,0,3.9-4.021c0-2.036-2.149-2.932-3.222-2.932A3.729,3.729,0,0,0,3778.122,1549.505Z" transform="translate(-3776.009 -1549.086)" fill="#ff8e9e"/>
      </g>
      <g id="Group_1696" data-name="Group 1696" transform="translate(0 141.231)">
        <path id="Path_2350" data-name="Path 2350" d="M3262.688,1512.729a3.288,3.288,0,0,0-1.048-.172,4,4,0,0,0-3.767,3.861,3.3,3.3,0,0,0,3.32,3.286h.138a3.991,3.991,0,0,0,4.128-3.734,4.564,4.564,0,0,0-1.167-2.436A3.434,3.434,0,0,0,3262.688,1512.729Z" transform="translate(-3257.873 -1512.557)" fill="#019e96"/>
      </g>
      <g id="Group_1697" data-name="Group 1697" transform="translate(142.17 111.396)">
        <path id="Path_2351" data-name="Path 2351" d="M3723.771,1422.122a.474.474,0,0,1-.243-.068,13.458,13.458,0,0,1-4.025-4.427c-.22-.331-.441-.661-.667-.987a.477.477,0,0,1,.041-.673h0a.476.476,0,0,1,.672.042h0a.511.511,0,0,1,.064.1c.229.33.453.667.676,1a12.569,12.569,0,0,0,3.726,4.141.476.476,0,0,1-.244.878Z" transform="translate(-3718.717 -1415.849)" fill="#019e96"/>
      </g>
      <g id="Group_1698" data-name="Group 1698" transform="translate(149.105 27.088)">
        <path id="Path_2352" data-name="Path 2352" d="M3744.07,1151.608a.476.476,0,0,1-.423-.261,29.71,29.71,0,0,1-2.166-7q-.137-.623-.281-1.253a.476.476,0,0,1,.922-.211q.143.632.286,1.259a28.918,28.918,0,0,0,2.087,6.785.477.477,0,0,1-.22.636.471.471,0,0,1-.2.049Z" transform="translate(-3741.197 -1142.564)" fill="#ff8e9e"/>
      </g>
      <g id="Group_1699" data-name="Group 1699" transform="translate(67.86)">
        <path id="Path_2353" data-name="Path 2353" d="M3478.307,1059.917a.477.477,0,0,1-.213-.9c1.517-.762,3.071-1.729,4.573-2.668.832-.52,1.692-1.057,2.542-1.556a.476.476,0,0,1,.624.255h0a.475.475,0,0,1-.148.56c-.838.493-1.692,1.026-2.519,1.544-1.525.953-3.094,1.933-4.65,2.711A.481.481,0,0,1,3478.307,1059.917Z" transform="translate(-3477.843 -1054.759)" fill="#fec739"/>
      </g>
      <g id="Group_1700" data-name="Group 1700" transform="translate(24.373 110.151)">
        <path id="Path_2354" data-name="Path 2354" d="M3344.663,1417.479a.476.476,0,0,1-.258-.077c-.8-.52-1.554-1.089-2.287-1.639a21.209,21.209,0,0,0-4.888-3.014.477.477,0,0,1,.248-.92h0a.45.45,0,0,1,.1.042,22.252,22.252,0,0,1,5.1,3.135c.721.541,1.468,1.1,2.238,1.6a.475.475,0,0,1,.126.661l0,.005a.477.477,0,0,1-.381.207Z" transform="translate(-3336.878 -1411.812)" fill="#ff8e9e"/>
      </g>
    </g>
    <path id="Path_4082" data-name="Path 4082" d="M3599.949,1082.328a7.333,7.333,0,0,1-7.467-1.586,3.164,3.164,0,0,0-5.13,1.324c-.29,1.076-1.365,1.15-2.369.955a8.649,8.649,0,0,1-1.934-.658s-.944-8.531,7.214-7.827C3600.092,1075.385,3599.949,1082.328,3599.949,1082.328Z" transform="translate(-224.836 -13.648)" fill="#313131"/>
  </g>
</svg>
