<svg xmlns="http://www.w3.org/2000/svg" width="194.601" height="178.026" viewBox="0 0 194.601 178.026">
  <g id="Group_2805" data-name="Group 2805" transform="translate(-2500.819 -1071.7)">
    <path id="Path_2377" data-name="Path 2377" d="M2880.705,1144.817c3.977,1.08,13.359,2.759,13.359,9.693,0,6.209-4.854,11.2-4.854,16.87,0,2.967,1.854,6.843,1.854,11.147,0,8.867-16.482,8.355-22.922,8.368h-.019c-.369-2.892,3.691-11.655,4.36-14.193,2.461-9.54,1.113-8.818-.437-18.548-.31-2.212,1.1-4.543-1.133-4.534-.059,0-7.159-7.156-1.4-5.736-2.229-4.006,2.438-2.251.462-6.374a9.429,9.429,0,0,0,.669-1.479,18.988,18.988,0,0,1-2.051.095,10.937,10.937,0,0,1-10.237-5.568c-1.3,1.605-2.335,3.114-2.415,5.181,0,.236-.769.224-.743.458l.743.254a8.48,8.48,0,0,1-2.134-4.545c.125-2.777,1.8-5.117,3.777-7.073,2.539-2.118,5.182-2.708,9.931-2.645,5.456,0,11.156,6.679,11.156,12.17C2878.663,1140.669,2878.471,1144.208,2880.705,1144.817Z" transform="translate(-244.509 -37.74)" fill="#313131"/>
    <path id="Path_4072" data-name="Path 4072" d="M2876.934,1217.589l5.4-4.834,4.212,3.454-8.078,3.619Z" transform="translate(-260.529 -97.707)" fill="#ffc517"/>
    <rect id="Rectangle_1423" data-name="Rectangle 1423" width="7.402" height="18.838" rx="3.701" transform="translate(2618.6 1102.262) rotate(0.322)" fill="#fec739"/>
    <path id="Path_4073" data-name="Path 4073" d="M2873.418,1158.957h0l.009-1.45a3.181,3.181,0,0,0,.929-.2c1.216-.456,1.94-1.525,1.617-2.387a2.021,2.021,0,0,0-2.565-.81,7.584,7.584,0,0,0-15.133.676l-.023,4.086h0c0,.036,0,.073,0,.109a7.583,7.583,0,1,0,15.166.085C2873.42,1159.03,2873.418,1158.994,2873.418,1158.957Z" transform="translate(-247.59 -52.329)" fill="#fec739"/>
    <circle id="Ellipse_547" data-name="Ellipse 547" cx="0.885" cy="0.885" r="0.885" transform="translate(2612.151 1103.24)" fill="#313131"/>
    <circle id="Ellipse_548" data-name="Ellipse 548" cx="0.885" cy="0.885" r="0.885" transform="translate(2617.376 1103.27)" fill="#313131"/>
    <path id="Path_4074" data-name="Path 4074" d="M2872.227,1175.912l-.432,3.349-.061.473-.36-.364.88.049c.464.026.463.75,0,.724l-.881-.049c-.177-.01-.386-.162-.36-.364l.431-3.349.061-.474a.374.374,0,0,1,.364-.36.364.364,0,0,1,.36.364Z" transform="translate(-256.424 -71.934)" fill="#313131"/>
    <path id="Path_4075" data-name="Path 4075" d="M2874.091,1194.683l.019,0c.074.012-.108-.013-.042-.006s.11.013.165.018a3.987,3.987,0,0,0,.555.01c.056,0,.112-.008.167-.014s.069-.027-.005,0a.571.571,0,0,1,.091-.014,2.171,2.171,0,0,0,.328-.082l.077-.028c.06-.022-.073.034.019-.01a1.426,1.426,0,0,0,.14-.077c.01-.006.066-.054.075-.051-.018,0-.064.053,0,0,.023-.02.045-.041.065-.063s.084-.1.018-.015a.373.373,0,0,1,.5-.127.365.365,0,0,1,.127.5,2.563,2.563,0,0,1-2.488.655.363.363,0,0,1-.25-.447.372.372,0,0,1,.446-.25Z" transform="translate(-258.24 -84.838)" fill="#313131"/>
    <path id="Path_2423" data-name="Path 2423" d="M2790.122,1217.914h0l-6.806,9.214s-3.381-4.417-5.062-6.434-5.56-6.376-6.667-7.523a24.224,24.224,0,0,1-4.03-6.11c-.594-1.718-2.91-9.643-2.91-9.643s-1.815,1.993-1.987,9.1c2.174,5.847,7.469,19.478,14.564,28.005-5.635,3.6-8.462,5.749-11.934,9.521s-6.321,9.23-3.17,11.62c1.234.672,2.59-.723,4.324-3.111s6.577-10.453,15.564-11.34,11.278-2.569,11.278-2.569l10.843-15.914" transform="translate(-180.056 -87.083)" fill="#fec739"/>
    <g id="shadow-3" transform="translate(2545.309 1245.487)">
      <ellipse id="Ellipse_246" data-name="Ellipse 246" cx="20.744" cy="1.514" rx="20.744" ry="1.514" transform="translate(0 1.211)" fill="#ffc99b"/>
      <ellipse id="Ellipse_247" data-name="Ellipse 247" cx="15.444" cy="1.968" rx="15.444" ry="1.968" transform="translate(71.468)" fill="#ffc99b"/>
    </g>
    <g id="back_line-3" data-name="back line-3" transform="translate(2500.819 1103.895)">
      <g id="Group_1705" data-name="Group 1705" transform="translate(156.089 54.939)">
        <g id="Group_1703" data-name="Group 1703">
          <path id="Path_2355" data-name="Path 2355" d="M3009.492,1364.369a.337.337,0,0,1-.335-.339h0a.344.344,0,0,1,.05-.177,10.006,10.006,0,0,0,1.528-4.588,1.752,1.752,0,0,1-1.988-1.479q-.014-.1-.018-.2a2.526,2.526,0,0,1,2.444-2.35c1.255,0,2.524,1.085,2.524,3.16,0,1.923-1.461,4.081-4.008,5.912A.335.335,0,0,1,3009.492,1364.369Zm1.6-5.863a.337.337,0,0,1,.337.337v.008a10.363,10.363,0,0,1-.876,3.891c1.586-1.44,2.467-2.978,2.467-4.352,0-1.708-.958-2.486-1.85-2.486a1.87,1.87,0,0,0-1.77,1.676,1.066,1.066,0,0,0,1.113,1.019h.011a1.436,1.436,0,0,0,.456-.078A.322.322,0,0,1,3011.092,1358.506Z" transform="translate(-3008.73 -1355.233)" fill="#313131"/>
        </g>
        <g id="Group_1704" data-name="Group 1704" transform="translate(5.997)">
          <path id="Path_2356" data-name="Path 2356" d="M3029.006,1364.369a.337.337,0,0,1-.335-.339h0a.339.339,0,0,1,.05-.177,10.006,10.006,0,0,0,1.528-4.588,1.753,1.753,0,0,1-1.987-1.481,1.911,1.911,0,0,1-.018-.2,2.526,2.526,0,0,1,2.444-2.35c1.254,0,2.524,1.086,2.524,3.16,0,1.923-1.462,4.081-4.007,5.912A.336.336,0,0,1,3029.006,1364.369Zm1.6-5.863a.337.337,0,0,1,.337.337v.008a10.35,10.35,0,0,1-.877,3.891c1.586-1.44,2.468-2.978,2.468-4.352,0-1.708-.958-2.486-1.85-2.486a1.87,1.87,0,0,0-1.77,1.676,1.067,1.067,0,0,0,1.112,1.019h.01a1.446,1.446,0,0,0,.458-.078A.322.322,0,0,1,3030.605,1358.506Z" transform="translate(-3028.244 -1355.233)" fill="#313131"/>
        </g>
      </g>
      <g id="Group_1710" data-name="Group 1710" transform="translate(31.542 0)">
        <g id="Group_1706" data-name="Group 1706">
          <path id="Path_2357" data-name="Path 2357" d="M2611.493,1206.974a.337.337,0,0,1-.337-.337.344.344,0,0,1,.045-.17,29.169,29.169,0,0,0,2.942-7.41c-3.037-.078-6.342-.218-10.368-.438a.338.338,0,0,1-.318-.357h0v-.014c.576-5.58.717-11.308.842-16.363.042-1.75.084-3.4.14-4.929a.336.336,0,0,1,.37-.323q.989.094,1.977.2c2.867.3,5.833.6,8.746.657a167.443,167.443,0,0,0,19.522-1.027.341.341,0,0,1,.26.083.336.336,0,0,1,.114.248c.034,2.2.061,4.935,0,8.531-.082,4.544-.291,8.738-.642,12.819a.337.337,0,0,1-.3.307c-4.657.451-9.179.664-14.216.68a39.466,39.466,0,0,1-8.579,7.782A.35.35,0,0,1,2611.493,1206.974Zm-7.331-9.01c4.046.219,7.363.356,10.416.428a.338.338,0,0,1,.33.346h0a.277.277,0,0,1-.01.071,31.919,31.919,0,0,1-2.422,6.722,37.922,37.922,0,0,0,7.36-6.948.334.334,0,0,1,.263-.127c4.978-.008,9.446-.215,14.032-.651.335-3.978.536-8.067.615-12.494.061-3.383.04-6.006.01-8.139a167.453,167.453,0,0,1-19.239.992c-2.942-.053-5.922-.362-8.8-.664q-.807-.085-1.613-.166c-.049,1.423-.087,2.95-.126,4.563-.125,4.968-.264,10.577-.813,16.071Z" transform="translate(-2603.458 -1176.462)" fill="#313131"/>
        </g>
        <g id="Group_1707" data-name="Group 1707" transform="translate(9.628 9.584)">
          <path id="Path_2358" data-name="Path 2358" d="M2635.123,1211.2h-.034a.337.337,0,0,1-.3-.369h0c.028-.285.077-.57.127-.862a8.284,8.284,0,0,0,.15-1.234,2.673,2.673,0,0,0-.063-.674.337.337,0,0,1,.252-.4h0a.337.337,0,0,1,.4.252h0a3.372,3.372,0,0,1,.08.837,8.78,8.78,0,0,1-.159,1.334c-.047.275-.095.549-.121.815A.338.338,0,0,1,2635.123,1211.2Z" transform="translate(-2634.786 -1207.648)" fill="#313131"/>
        </g>
        <g id="Group_1708" data-name="Group 1708" transform="translate(14.683 9.669)">
          <path id="Path_2359" data-name="Path 2359" d="M2651.573,1211.4h-.034a.338.338,0,0,1-.3-.37,9.274,9.274,0,0,1,.22-1.16,6.4,6.4,0,0,0,.223-1.354v-.224a.337.337,0,1,1,.671-.067v.022c.006.094.009.19.006.285a7.053,7.053,0,0,1-.241,1.5,8.45,8.45,0,0,0-.206,1.074A.337.337,0,0,1,2651.573,1211.4Z" transform="translate(-2651.236 -1207.924)" fill="#313131"/>
        </g>
        <g id="Group_1709" data-name="Group 1709" transform="translate(20.363 9.391)">
          <path id="Path_2360" data-name="Path 2360" d="M2670.055,1211.032h-.03a.337.337,0,0,1-.307-.364h0a25.373,25.373,0,0,1,.534-3.385.337.337,0,1,1,.657.152h0a24.431,24.431,0,0,0-.519,3.292A.338.338,0,0,1,2670.055,1211.032Z" transform="translate(-2669.717 -1207.022)" fill="#313131"/>
        </g>
      </g>
      <g id="Group_1711" data-name="Group 1711" transform="translate(0 140.859)">
        <path id="Path_2361" data-name="Path 2361" d="M2501.162,1635.8a.337.337,0,1,1-.012-.674h0c3-.105,6.248-.215,10.06-.309a.345.345,0,0,1,.346.329.336.336,0,0,1-.326.345h0C2507.419,1635.584,2504.176,1635.694,2501.162,1635.8Z" transform="translate(-2500.819 -1634.815)" fill="#313131"/>
      </g>
      <g id="Group_1712" data-name="Group 1712" transform="translate(18.738 140.584)">
        <path id="Path_2362" data-name="Path 2362" d="M2562.132,1634.7a.338.338,0,0,1-.007-.675h0c4.626-.064,9.669-.095,15.417-.106,5.789-.007,11.1.013,16.237.064a.336.336,0,0,1,.338.336h0a.337.337,0,0,1-.336.338h0c-5.136-.051-10.445-.071-16.228-.064C2571.8,1634.605,2566.758,1634.64,2562.132,1634.7Z" transform="translate(-2561.791 -1633.922)" fill="#313131"/>
      </g>
      <g id="Group_1713" data-name="Group 1713" transform="translate(84.877 140.223)">
        <path id="Path_2363" data-name="Path 2363" d="M2779.993,1634.481c-.887,0-1.768,0-2.648-.009a.337.337,0,0,1-.337-.337h0a.337.337,0,0,1,.337-.337c6.582.041,13.271-.071,21.678-.364,5.019-.176,9.293-.369,13.428-.555l2.96-.133a.341.341,0,0,1,.352.322.336.336,0,0,1-.321.352h0l-2.96.133c-4.136.19-8.413.379-13.434.555C2791.758,1634.363,2785.757,1634.481,2779.993,1634.481Z" transform="translate(-2777.008 -1632.745)" fill="#313131"/>
      </g>
      <g id="Group_1714" data-name="Group 1714" transform="translate(143.061 139.609)">
        <path id="Path_2364" data-name="Path 2364" d="M3017.548,1633.211h-.027c-14.416-1.129-29.159-1.729-43.822-1.784-2.406-.008-4.767,0-7.023.018a.337.337,0,0,1-.34-.334h0a.337.337,0,0,1,.334-.34h0c2.254-.021,4.62-.027,7.023-.018,14.679.056,29.44.657,43.873,1.787a.336.336,0,0,1,.31.36v0a.338.338,0,0,1-.337.311Z" transform="translate(-2966.337 -1630.748)" fill="#313131"/>
      </g>
      <g id="Group_1715" data-name="Group 1715" transform="translate(103.118 119.183)">
        <path id="Path_2365" data-name="Path 2365" d="M2837.062,1589.728a.336.336,0,0,1-.332-.284,28.933,28.933,0,0,1-.367-4.567c0-13.167,8.406-19.835,16.736-20.594a.337.337,0,1,1,.061.672h0c-8.025.736-16.123,7.183-16.123,19.925a28.344,28.344,0,0,0,.359,4.46.337.337,0,0,1-.279.386h0A.346.346,0,0,1,2837.062,1589.728Z" transform="translate(-2836.362 -1564.281)" fill="#313131"/>
      </g>
      <g id="Group_1716" data-name="Group 1716" transform="translate(121.592 124.204)">
        <path id="Path_2366" data-name="Path 2366" d="M2896.816,1597.373a.338.338,0,0,1-.338-.336.425.425,0,0,1,.006-.066,71.314,71.314,0,0,0,1.456-14.067c0-.647-.011-1.3-.033-1.936a.338.338,0,0,1,.326-.348.328.328,0,0,1,.347.306h0v.021c.022.646.033,1.3.033,1.96a71.993,71.993,0,0,1-1.468,14.2A.338.338,0,0,1,2896.816,1597.373Z" transform="translate(-2896.478 -1580.62)" fill="#313131"/>
      </g>
      <g id="Group_1717" data-name="Group 1717" transform="translate(122.997 127.251)">
        <path id="Path_2367" data-name="Path 2367" d="M2901.387,1592.811a.336.336,0,0,1-.339-.333v0a.336.336,0,0,1,.189-.308c1.051-.5,2.146-1.033,3.258-1.6a.337.337,0,1,1,.3.6c-1.116.569-2.217,1.1-3.274,1.6A.348.348,0,0,1,2901.387,1592.811Z" transform="translate(-2901.048 -1590.536)" fill="#313131"/>
      </g>
      <g id="Group_1718" data-name="Group 1718" transform="translate(122.198 133.977)">
        <path id="Path_2368" data-name="Path 2368" d="M2898.787,1615.964a.336.336,0,0,1-.339-.335h0a.338.338,0,0,1,.22-.318c.831-.313,1.667-.62,2.5-.927,1.682-.618,3.417-1.255,5.1-1.938a.338.338,0,0,1,.439.189h0a.337.337,0,0,1-.187.438h0c-1.692.686-3.436,1.329-5.125,1.947-.833.306-1.669.613-2.5.925A.338.338,0,0,1,2898.787,1615.964Z" transform="translate(-2898.448 -1612.422)" fill="#313131"/>
      </g>
      <g id="Group_1719" data-name="Group 1719" transform="translate(129.964 96.773)">
        <path id="Path_2369" data-name="Path 2369" d="M2944.732,1537.347a.353.353,0,0,1-.1-.015.336.336,0,0,1-.22-.422h0c.562-1.779,1.165-3.589,1.746-5.339,2.647-7.953,5.383-16.177,5.383-24.6,0-7.192-3.339-14.932-10.667-14.932-4.67,0-11.848,3.844-16.529,11.19a.337.337,0,0,1-.57-.361h0c4.248-6.665,11.437-11.5,17.1-11.5a9.856,9.856,0,0,1,8.541,4.92,20.037,20.037,0,0,1,2.8,10.686c0,8.536-2.752,16.813-5.417,24.817-.582,1.747-1.183,3.555-1.743,5.33A.338.338,0,0,1,2944.732,1537.347Z" transform="translate(-2923.721 -1491.36)" fill="#313131"/>
      </g>
      <g id="Group_1720" data-name="Group 1720" transform="translate(145.698 96.835)">
        <path id="Path_2370" data-name="Path 2370" d="M2975.75,1535.014a.322.322,0,0,1-.062-.006.338.338,0,0,1-.269-.394h0a89.259,89.259,0,0,0,1.5-16.038,146.729,146.729,0,0,0-1.993-26.614.338.338,0,0,1,.665-.123,147.751,147.751,0,0,1,2,26.738,89.956,89.956,0,0,1-1.511,16.166A.335.335,0,0,1,2975.75,1535.014Z" transform="translate(-2974.919 -1491.563)" fill="#313131"/>
      </g>
      <g id="Group_1721" data-name="Group 1721" transform="translate(147.244 104.207)">
        <path id="Path_2371" data-name="Path 2371" d="M2980.288,1521.452a.337.337,0,0,1-.339-.335h0a.337.337,0,0,1,.19-.3c3.249-1.649,6.3-3.487,9.1-5.226a.337.337,0,0,1,.452.149h0a.338.338,0,0,1-.094.42c-2.823,1.747-5.884,3.593-9.154,5.254A.343.343,0,0,1,2980.288,1521.452Z" transform="translate(-2979.949 -1515.552)" fill="#313131"/>
      </g>
      <g id="Group_1722" data-name="Group 1722" transform="translate(147.696 117.957)">
        <path id="Path_2372" data-name="Path 2372" d="M2981.756,1565.453a.336.336,0,0,1-.337-.335v0a.335.335,0,0,1,.214-.314,101.452,101.452,0,0,0,9.64-4.471.337.337,0,0,1,.454.144h0a.337.337,0,0,1-.144.454h0a102.063,102.063,0,0,1-9.7,4.5A.357.357,0,0,1,2981.756,1565.453Z" transform="translate(-2981.419 -1560.293)" fill="#313131"/>
      </g>
      <g id="Group_1723" data-name="Group 1723" transform="translate(146.917 133.533)">
        <path id="Path_2373" data-name="Path 2373" d="M2979.222,1613.219a.337.337,0,0,1-.053-.67,45.005,45.005,0,0,0,6.48-1.558.336.336,0,0,1,.422.219v0a.336.336,0,0,1-.219.422h0a45.676,45.676,0,0,1-6.575,1.576A.28.28,0,0,1,2979.222,1613.219Z" transform="translate(-2978.884 -1610.976)" fill="#313131"/>
      </g>
      <g id="Group_1724" data-name="Group 1724" transform="translate(155.539 125.334)">
        <path id="Path_2374" data-name="Path 2374" d="M3030.588,1601.754a.337.337,0,0,1-.337-.337,5,5,0,0,1,.22-1.413,3.582,3.582,0,0,0,.17-1,5.739,5.739,0,0,0-5.946-5.523h-.074a8.328,8.328,0,0,0-4.908,1.58.338.338,0,0,1-.472-.064l0,0a.339.339,0,0,1-.064-.157q-.095-.721-.18-1.414c-.634-5.087-1.053-8.446-6.275-8.446a11.2,11.2,0,0,0-5.279,1.266.337.337,0,0,1-.323-.592h0a11.887,11.887,0,0,1,5.6-1.348c5.817,0,6.314,3.986,6.945,9.039.035.285.07.569.108.861a9.11,9.11,0,0,1,4.848-1.392,6.411,6.411,0,0,1,6.69,6.117V1599a4.211,4.211,0,0,1-.189,1.181,4.309,4.309,0,0,0-.2,1.234.337.337,0,0,1-.337.337Z" transform="translate(-3006.941 -1584.298)" fill="#313131"/>
      </g>
    </g>
    <path id="Path_2375" data-name="Path 2375" d="M2725.236,1577.877q-.731,1.993-1.541,3.971c-.095.059-.124.3-.217.357a6.086,6.086,0,0,0-1.9-2.568,31.574,31.574,0,0,1-7.181-5.35,20.174,20.174,0,0,0-.293-2.87,14.248,14.248,0,0,0,3.079-5.7h0A126.684,126.684,0,0,1,2725.236,1577.877Z" transform="translate(-147.741 -342.195)" fill="#fec739"/>
    <path id="Path_2376" data-name="Path 2376" d="M2757.641,1625.73c1.165,2.825,1.384,4.754-.107,4.754a2.3,2.3,0,0,1-1.257-.38c.17-.614.341-1.223.516-1.822Q2757.174,1626.993,2757.641,1625.73Z" transform="translate(-176.952 -383.768)" fill="#fec739"/>
    <path id="Path_2378" data-name="Path 2378" d="M2922.624,1629.372H2909.7c-.1-.721-.21-1.437-.312-2.148,2.567-.868,5.072-1.842,7.581-2.865v0c1.217,0,2.441,0,3.663,0h.925Q2922.082,1626.782,2922.624,1629.372Z" transform="translate(-283.008 -382.819)" fill="#fff"/>
    <path id="Path_2379" data-name="Path 2379" d="M2878.684,1462.533h-.926c-1.224,0-2.446-.005-3.665-.005v0a.329.329,0,0,0,.063-.025c-3.761-9.661-12.147-18.181-20.534-29.1a29.651,29.651,0,0,1-6.123-18.031v-.073q0-1.074.015-2.148c7.911-7.922,14.186-14.7,17.626-22.42l.4.014a104.466,104.466,0,0,0-3.913,31.291C2870.987,1433.2,2874.7,1444.311,2878.684,1462.533Z" transform="translate(-240.141 -220.981)" fill="#019e96"/>
    <path id="Path_2380" data-name="Path 2380" d="M2845.1,1266.014l-.4-.014a82.724,82.724,0,0,1-26.361-5.159c-1.329-.512,1.357-7.745,3.254-11.292.327-.629.628-1.257.907-1.9v0a3.236,3.236,0,0,0,2.436-.759,118.8,118.8,0,0,0,12.891-12.535c-2.318-1.773-5.2-3.8-7.985-6.328-1.55,1.778-3.094,3.629-4.735,5.675-.01-1.491-.089-3.03-.229-4.643a6.056,6.056,0,0,1,1.773-4.813,75.88,75.88,0,0,1,9.452-8.1,2.135,2.135,0,0,0,1.553.541c2.562,0,5.11-3.629,8.243-6.017a3.323,3.323,0,0,1,3.3,2.86,53.383,53.383,0,0,1-1.028,21.733,33.182,33.182,0,0,0-.989,5.763c-.179,2.077-2.534,24.073-2.485,24.978" transform="translate(-219.69 -96.259)" fill="#fff"/>
    <path id="Path_2381" data-name="Path 2381" d="M2793.393,1379.086c-3.439,7.716-9.714,14.5-17.626,22.42-2.9,2.909-6.031,5.973-9.321,9.3-2.011,13.091-3.668,19.265-9.641,26.819a49.439,49.439,0,0,0-7.4,12.8l-.76-.1c-.19-.024-4.643-.618-4.726-.785a.915.915,0,0,0,.173-.212,4.519,4.519,0,0,0,.469-.868q.689-1.709,1.317-3.425c8.282-22.693,8.682-46.556,21.148-71.1A82.761,82.761,0,0,0,2793.393,1379.086Z" transform="translate(-168.391 -209.349)" fill="#019e96"/>
    <path id="Path_2382" data-name="Path 2382" d="M2768.756,1171.375l3.021,17.768a34.3,34.3,0,0,1-3.83-9.87q-.14.5-.263.994h0l-1.271-8.516a1.19,1.19,0,1,1,2.349-.38h0Z" transform="translate(-183.959 -68.348)" fill="#019e96"/>
    <path id="Path_2383" data-name="Path 2383" d="M2729.818,1620.743c.156.341.3.672.429.989q-.467,1.264-.847,2.562c-.176.6-.347,1.208-.516,1.822-.014.059-.034.117-.048.176h-12.107c.015-1.018.053-2.032.068-3.05,3.03-1.345,5.393-1.978,7.8-3.284l.882.146C2726.914,1620.334,2728.366,1620.548,2729.818,1620.743Z" transform="translate(-149.557 -379.77)" fill="#fff"/>
    <path id="Path_2384" data-name="Path 2384" d="M2585.935,1522.765a16.367,16.367,0,0,1-3.3-1.286,18.78,18.78,0,0,1-6.963-6.446v-.005a30.3,30.3,0,0,1-4.365-11.62c1.818-.854,3.332-1.564,4.6-2.183a49.007,49.007,0,0,0,6.757-3.634c4.716,4.731,10.635,7.775,17.533,7.775,7.517,0,12.447-4.643,24.988-15.184,2.587.336,3.5,1.993,3.5,2.962,0,3.557-8.988,6.889-13.125,10.036a10.628,10.628,0,0,1,3.016,7.547,11,11,0,0,1-.312,2.657,14.248,14.248,0,0,1-3.078,5.7,20.178,20.178,0,0,1,.292,2.87c.014.306.02.628.02.964,0,5.081-5.358,15.5-9.856,15.5a2.467,2.467,0,0,1-2.7-2.207c-.006-.054-.01-.107-.011-.16a3.025,3.025,0,0,1,1.788-2.544c3.839-1.993,5.378-5.812,5.778-9.729a16.1,16.1,0,0,1-5.423-6.62c-3.936,3.775-8.126,6.124-14.133,6.2h0a21.945,21.945,0,0,0-1.247,4.35c.76.059,2.114.141,3.606.141h1.2c3.094,0,4.394.054,4.394,1.044,0,1.622-10.465,3.891-13.977,3.951.233-3.669,1.023-6.616,1.023-9.837C2585.935,1522.933,2585.935,1522.846,2585.935,1522.765Z" transform="translate(-48.828 -289.877)" fill="#fec739"/>
    <path id="Path_2385" data-name="Path 2385" d="M2560.111,1577.5v0c-5.447,5.51-18.06,14.543-20.35,14.543a.849.849,0,0,1-.959-.964c0-1.544,11.6-10.879,14.347-20.024A18.773,18.773,0,0,0,2560.111,1577.5Z" transform="translate(-26.304 -345.896)" fill="#fec739"/>
    <path id="Path_2386" data-name="Path 2386" d="M2586.633,1511.76l-.356-.643a6.661,6.661,0,0,0,1.583-3.2h0c.955-.664,1.876-1.335,2.752-1.987.244.3.487.594.741.882q.76.877,1.573,1.69a49.048,49.048,0,0,1-6.757,3.634l-.048-.1C2586.292,1511.95,2586.462,1511.857,2586.633,1511.76Z" transform="translate(-59.091 -300.787)" fill="#fec739"/>
    <path id="Path_2387" data-name="Path 2387" d="M2549.122,1493.267l.356.643-.511.285.048.1c-1.272.614-2.786,1.328-4.6,2.178-.142-.818-.258-1.647-.341-2.475a23.13,23.13,0,0,1-7.766,1.466h-.024a3.712,3.712,0,0,1-3.473-2.5q-.168-.475-.322-.949a4.649,4.649,0,0,0,1.662-3.478,72.863,72.863,0,0,0,10.737-7.687,2.8,2.8,0,0,1,4.287.79l.014.034a41.89,41.89,0,0,0,2.183,3.595,25.574,25.574,0,0,1-.658,4.809A6.67,6.67,0,0,1,2549.122,1493.267Zm-6.985-5.934a.076.076,0,0,0,.02-.053c0-.083-.095-.19-.095-.254h-.311c0,.078-.079.078-.156.078,0,.117-.02.21-.02.3,0,.219.1.268.307.268.3,0,.094-.17.254-.336Z" transform="translate(-21.935 -282.938)" fill="#fec739"/>
    <path id="Path_2388" data-name="Path 2388" d="M2592.392,1496.915l-.621,4.758,2.708-1.955Z" transform="translate(-63.001 -294.54)" fill="#fec739"/>
    <g id="Group_1725" data-name="Group 1725" transform="translate(2541.485 1221.844)">
      <path id="Path_2389" data-name="Path 2389" d="M2633.769,1572.259a.337.337,0,0,1-.337-.337.365.365,0,0,1,.021-.118c.112-.3.226-.605.339-.906a18.027,18.027,0,0,0,1.478-5.291,6.2,6.2,0,0,0-1.2-3.188,13.5,13.5,0,0,1-.9-1.687.337.337,0,0,1,.622-.26h0a12.974,12.974,0,0,0,.854,1.6,6.8,6.8,0,0,1,1.292,3.534,18.32,18.32,0,0,1-1.519,5.528c-.113.3-.226.6-.337.9A.338.338,0,0,1,2633.769,1572.259Z" transform="translate(-2633.144 -1560.265)" fill="#313131"/>
    </g>
    <g id="Group_1726" data-name="Group 1726" transform="translate(2531.43 1225.616)">
      <path id="Path_2390" data-name="Path 2390" d="M2606.1,1580.407a.337.337,0,0,1-.337-.337v-.238c-.073-3.624-1.782-5.849-5.08-6.624a.337.337,0,0,1,.154-.657c3.585.843,5.521,3.351,5.6,7.254,0,.076,0,.171,0,.265a.337.337,0,0,1-.336.338h-.006Z" transform="translate(-2600.427 -1572.542)" fill="#313131"/>
    </g>
    <g id="Group_1727" data-name="Group 1727" transform="translate(2519.298 1203.752)">
      <path id="Path_2391" data-name="Path 2391" d="M2561.595,1502.713a.564.564,0,0,1-.64-.475.58.58,0,0,1,0-.13.823.823,0,0,1,.011-.16,1.212,1.212,0,0,0,.009-.136.644.644,0,0,1,.493-.416h.311a.336.336,0,0,1,.33.263.678.678,0,0,1,.105.327.4.4,0,0,1-.095.263.462.462,0,0,1-.456.468h0A.5.5,0,0,1,2561.595,1502.713Z" transform="translate(-2560.951 -1501.396)" fill="#313131"/>
    </g>
    <g id="Group_1728" data-name="Group 1728" transform="translate(2510.212 1205.25)">
      <path id="Path_2392" data-name="Path 2392" d="M2531.721,1510.425a.337.337,0,0,1-.2-.606,4.313,4.313,0,0,0,1.528-3.227.349.349,0,0,1,.351-.323.336.336,0,0,1,.322.35v0a4.993,4.993,0,0,1-1.794,3.733A.334.334,0,0,1,2531.721,1510.425Z" transform="translate(-2531.383 -1506.269)" fill="#313131"/>
    </g>
    <g id="Group_1729" data-name="Group 1729" transform="translate(2607.039 1169.387)">
      <path id="Path_2393" data-name="Path 2393" d="M2846.794,1412.68a.34.34,0,0,1-.242-.575c7.517-7.527,14.028-14.4,17.557-22.319a.338.338,0,0,1,.438-.19h0a.337.337,0,0,1,.191.437h0l-.01.024c-3.576,8.023-10.13,14.946-17.7,22.521A.334.334,0,0,1,2846.794,1412.68Z" transform="translate(-2846.457 -1389.572)" fill="#313131"/>
    </g>
    <g id="Group_1730" data-name="Group 1730" transform="translate(2566.834 1240.171)">
      <path id="Path_2394" data-name="Path 2394" d="M2728.075,1626.587h-12.106a.338.338,0,0,1-.336-.339h0c.008-.511.021-1.02.034-1.529s.027-1.013.034-1.519a.337.337,0,0,1,.2-.3c1.252-.555,2.373-.984,3.46-1.4,1.294-.495,2.518-.961,3.717-1.561a.337.337,0,0,1,.3.6,40.858,40.858,0,0,1-3.778,1.588c-1.02.389-2.073.792-3.226,1.3-.008.437-.019.875-.031,1.313-.01.393-.021.786-.029,1.18h11.507c.166-.6.329-1.181.5-1.756.254-.863.542-1.731.854-2.58a.337.337,0,0,1,.433-.2h0a.338.338,0,0,1,.2.433h0c-.309.834-.591,1.688-.84,2.536-.175.6-.345,1.205-.515,1.818l-.046.166A.339.339,0,0,1,2728.075,1626.587Z" transform="translate(-2715.632 -1619.901)" fill="#313131"/>
    </g>
    <g id="Group_1731" data-name="Group 1731" transform="translate(2626.038 1241.534)">
      <path id="Path_2395" data-name="Path 2395" d="M2921.857,1629.7h-12.926a.337.337,0,0,1-.334-.285q-.089-.62-.179-1.234l-.133-.913a.336.336,0,0,1,.226-.367c2.023-.683,4.176-1.489,6.771-2.536a.337.337,0,0,1,.438.187v0a.337.337,0,0,1-.188.439h0c-2.5,1.007-4.582,1.792-6.541,2.46l.095.635q.07.474.139.949h12.218q-.393-1.873-.775-3.648a.337.337,0,0,1,.257-.4h0a.339.339,0,0,1,.4.259q.424,1.97.861,4.059a.336.336,0,0,1-.261.4.331.331,0,0,1-.069.008Z" transform="translate(-2908.281 -1624.338)" fill="#313131"/>
    </g>
    <g id="Group_1733" data-name="Group 1733" transform="translate(2609.806 1125.841)">
      <path id="Path_2397" data-name="Path 2397" d="M2855.8,1254.136a.339.339,0,0,1-.336-.339.343.343,0,0,1,.082-.22c1.638-1.876,3.322-3.708,5.149-5.6a.335.335,0,1,1,.483.466c-1.819,1.885-3.5,3.708-5.125,5.576A.337.337,0,0,1,2855.8,1254.136Z" transform="translate(-2855.462 -1247.876)" fill="#313131"/>
    </g>
    <g id="Group_1735" data-name="Group 1735" transform="translate(2582.318 1110.699)">
      <path id="Path_2399" data-name="Path 2399" d="M2784.927,1239.057a.336.336,0,0,1-.19-.058,23.229,23.229,0,0,1-4.113-3.613c-5.282-5.769-9.649-15.342-14.583-27.942a.311.311,0,0,1-.024-.127,32.982,32.982,0,0,1,1.316-8.467.336.336,0,0,1,.414-.235h0a.338.338,0,0,1,.235.416h0a32.362,32.362,0,0,0-1.291,8.229c4.9,12.5,9.224,21.988,14.425,27.671a22.554,22.554,0,0,0,3.994,3.511.337.337,0,0,1-.195.616Z" transform="translate(-2766.017 -1198.603)" fill="#313131"/>
    </g>
    <g id="Group_1736" data-name="Group 1736" transform="translate(2617.793 1128.398)">
      <path id="Path_2400" data-name="Path 2400" d="M2881.787,1266.226a.338.338,0,0,1-.253-.56c2.415-2.752,4.878-5.8,7.531-9.333a.338.338,0,0,1,.473-.069h0a.338.338,0,0,1,.068.473v0c-2.657,3.547-5.136,6.613-7.563,9.375A.339.339,0,0,1,2881.787,1266.226Z" transform="translate(-2881.451 -1256.197)" fill="#313131"/>
    </g>
    <g id="Group_1739" data-name="Group 1739" transform="translate(2528.442 1204.807)">
      <path id="Path_2403" data-name="Path 2403" d="M2591.039,1507.495a.337.337,0,0,1-.333-.341h0a.335.335,0,0,1,.145-.272c.919-.644,1.842-1.31,2.739-1.982a.336.336,0,0,1,.471.062l0,.005a.338.338,0,0,1-.066.473h0c-.9.676-1.829,1.347-2.752,1.993A.345.345,0,0,1,2591.039,1507.495Z" transform="translate(-2590.705 -1504.831)" fill="#fff"/>
    </g>
    <g id="Group_1740" data-name="Group 1740" transform="translate(2522.136 1207.382)">
      <path id="Path_2404" data-name="Path 2404" d="M2570.525,1519.695a.337.337,0,0,1-.34-.336h0a.337.337,0,0,1,.226-.321c1.8-.846,3.307-1.552,4.57-2.162a49.5,49.5,0,0,0,6.711-3.606.337.337,0,0,1,.385.553h0a49.927,49.927,0,0,1-6.8,3.661c-1.272.614-2.788,1.329-4.607,2.183A.33.33,0,0,1,2570.525,1519.695Z" transform="translate(-2570.185 -1513.209)" fill="#fff"/>
    </g>
    <g id="Group_1741" data-name="Group 1741" transform="translate(2531.945 1203.862)">
      <path id="Path_2405" data-name="Path 2405" d="M2603.585,1504.331a2.825,2.825,0,0,1-.949-.172.352.352,0,0,1-.458-.19.527.527,0,0,1-.017-.053,1.881,1.881,0,0,1-.054-.446,1.6,1.6,0,0,1,1.463-1.716,1.626,1.626,0,0,1,1.613,1.381,1.222,1.222,0,0,1,.013.179C2605.194,1504.018,2604.253,1504.331,2603.585,1504.331Zm-.8-.838a2.229,2.229,0,0,0,.8.164c.442,0,.935-.206.935-.344a.732.732,0,0,0-.008-.1.95.95,0,0,0-.942-.791c-.493,0-.788.529-.788,1.044v.022Z" transform="translate(-2602.103 -1501.754)" fill="#313131"/>
    </g>
    <g id="Group_1742" data-name="Group 1742" transform="translate(2534.225 1165.249)">
      <path id="Path_2406" data-name="Path 2406" d="M2609.859,1416.56a.336.336,0,0,1-.338-.334h0a.337.337,0,0,1,.174-.3l.044-.028c.027-.017.054-.034.083-.051,19.75-12.251,31.246-20.514,47.124-37.076q1.2-1.248,2.433-2.562a.336.336,0,0,1,.49.459q-1.234,1.315-2.438,2.57c-15.927,16.615-27.454,24.9-47.268,37.192l-.059.036c-.026.017-.054.034-.083.05A.339.339,0,0,1,2609.859,1416.56Z" transform="translate(-2609.521 -1376.106)" fill="#313131"/>
    </g>
    <g id="Group_1743" data-name="Group 1743" transform="translate(2522.923 1199.925)">
      <path id="Path_2407" data-name="Path 2407" d="M2575.425,1500.332c-2.12,0-2.68-3.863-2.68-5.906,0-.719.039-1.452.076-2.16s.075-1.423.075-2.131c0-.278-.01-.557-.019-.83a.337.337,0,0,1,.672-.051h0v.026c.01.285.02.569.02.854,0,.723-.039,1.457-.076,2.167s-.075,1.424-.075,2.125c0,2.172.623,5.231,2.006,5.231a1.941,1.941,0,0,0,1.354-.557,6.262,6.262,0,0,0,1.487-3.037,24.836,24.836,0,0,0,.647-4.745.337.337,0,1,1,.673.036h0a25.439,25.439,0,0,1-.665,4.874,6.883,6.883,0,0,1-1.679,3.358A2.59,2.59,0,0,1,2575.425,1500.332Z" transform="translate(-2572.745 -1488.942)" fill="#313131"/>
    </g>
    <g id="Group_1744" data-name="Group 1744" transform="translate(2566.026 1223.181)">
      <path id="Path_2408" data-name="Path 2408" d="M2713.629,1573.866a.338.338,0,0,1-.337-.326,19.8,19.8,0,0,0-.285-2.822.338.338,0,0,1,.07-.272,13.79,13.79,0,0,0,3.012-5.57.337.337,0,1,1,.656.158h0a14.266,14.266,0,0,1-3.048,5.72,20.783,20.783,0,0,1,.271,2.764.34.34,0,0,1-.331.349h-.008Z" transform="translate(-2713.002 -1564.617)" fill="#313131"/>
    </g>
    <g id="symbols-3" transform="translate(2512.232 1071.7)">
      <g id="Group_1746" data-name="Group 1746" transform="translate(131.069 104.529)">
        <path id="Path_2410" data-name="Path 2410" d="M2973.039,1415.227a5.292,5.292,0,0,1-3.177-1.187,3.67,3.67,0,0,0-2.119-.878,3.18,3.18,0,0,0-2.468,1.423.448.448,0,0,1-.621.122h0a.448.448,0,0,1-.124-.621l0,0,.013-.019a4.081,4.081,0,0,1,3.2-1.8,4.487,4.487,0,0,1,2.628,1.036,4.425,4.425,0,0,0,2.669,1.03,3.505,3.505,0,0,0,2.777-1.255,3.392,3.392,0,0,1,2.549-1.24,4.8,4.8,0,0,1,2.65,1.17,5.018,5.018,0,0,0,2.805,1.221,4.1,4.1,0,0,0,2.116-.98,5,5,0,0,1,2.815-1.2,4.939,4.939,0,0,1,2.306,1.178c.266.19.548.38.847.582a.45.45,0,0,1-.462.772.347.347,0,0,1-.037-.024c-.3-.2-.593-.4-.864-.593a5.48,5.48,0,0,0-1.791-1.016,4.31,4.31,0,0,0-2.3,1.044,4.777,4.777,0,0,1-2.631,1.139,5.773,5.773,0,0,1-3.322-1.385,4.056,4.056,0,0,0-2.131-1.006,2.561,2.561,0,0,0-1.927.99A4.4,4.4,0,0,1,2973.039,1415.227Z" transform="translate(-2964.453 -1411.835)" fill="#ff8e9e"/>
      </g>
      <g id="Group_1747" data-name="Group 1747" transform="translate(30.318 97.15)">
        <path id="Path_2411" data-name="Path 2411" d="M2637.06,1398.2a.45.45,0,0,1-.34-.745,113.126,113.126,0,0,0,7.394-9.432.45.45,0,0,1,.624-.121.439.439,0,0,1,.143.156c1.613,2.927,3.233,5.714,5.185,9.054a.45.45,0,0,1-.161.615.463.463,0,0,1-.19.06C2645.5,1398.131,2641.212,1398.166,2637.06,1398.2Zm7.386-9.071c-1.785,2.562-4.341,5.754-6.4,8.162,3.585-.031,7.261-.082,10.88-.348-1.657-2.835-3.08-5.29-4.482-7.815Z" transform="translate(-2636.61 -1387.825)" fill="#ff8e9e"/>
      </g>
      <g id="Group_1748" data-name="Group 1748" transform="translate(162.301 128.518)">
        <path id="Path_2412" data-name="Path 2412" d="M3070.793,1500.048c-2.254,0-4.668-2.562-4.668-4.366,0-.151-.01-.3-.021-.454-.012-.172-.023-.345-.023-.515,0-2.227,2.467-4.817,5.643-4.817a5.123,5.123,0,0,1,1.756.3,4.438,4.438,0,0,1,2.67,2.415,4.977,4.977,0,0,1,.519,2.106c0,2.323-2.141,5.271-4.548,5.271-.238,0-.461.016-.676.03S3071.009,1500.048,3070.793,1500.048Zm.929-9.254c-2.628,0-4.745,2.144-4.745,3.918,0,.15.011.3.022.454.011.172.023.344.023.515,0,1.338,2.059,3.468,3.77,3.468.19,0,.387-.014.587-.027.236-.016.475-.032.738-.032,1.845,0,3.648-2.5,3.648-4.371a4.032,4.032,0,0,0-.446-1.751,3.561,3.561,0,0,0-2.151-1.924,4.21,4.21,0,0,0-1.446-.248Z" transform="translate(-3066.08 -1489.896)" fill="#ff8e9e"/>
      </g>
      <g id="Group_1749" data-name="Group 1749" transform="translate(49.925 79.846)">
        <path id="Path_2413" data-name="Path 2413" d="M2701.942,1331.821a2.772,2.772,0,0,0-1.531,2.5,2.183,2.183,0,0,0,2.126,2.238h.133a2.89,2.89,0,0,0,2.825-2.914,2.343,2.343,0,0,0-2.334-2.125A2.687,2.687,0,0,0,2701.942,1331.821Z" transform="translate(-2700.411 -1331.516)" fill="#acd5ff"/>
      </g>
      <g id="Group_1750" data-name="Group 1750" transform="translate(142.378 25.797)">
        <path id="Path_2414" data-name="Path 2414" d="M3001.7,1160.987a.45.45,0,0,1-.285-.8c1.329-1.1,2.669-2.113,3.967-3.086.6-.45,1.2-.9,1.8-1.359a.451.451,0,0,1,.634.057h0a.45.45,0,0,1-.058.633.255.255,0,0,1-.029.023c-.6.462-1.2.913-1.8,1.365-1.289.968-2.623,1.969-3.932,3.058A.449.449,0,0,1,3001.7,1160.987Z" transform="translate(-3001.251 -1155.642)" fill="#fec739"/>
      </g>
      <g id="Group_1751" data-name="Group 1751" transform="translate(23.162 77.778)">
        <path id="Path_2415" data-name="Path 2415" d="M2619.62,1329.981a.452.452,0,0,1-.267-.088c-.61-.45-1.21-.9-1.81-1.355-1.288-.972-2.62-1.977-4.03-2.931a.45.45,0,0,1,.5-.745c1.43.968,2.771,1.979,4.068,2.958.6.451,1.2.9,1.8,1.35a.449.449,0,0,1-.267.811Z" transform="translate(-2613.325 -1324.789)" fill="#fec739"/>
      </g>
      <g id="Group_1752" data-name="Group 1752" transform="translate(149.471 51.078)">
        <path id="Path_2416" data-name="Path 2416" d="M3024.332,1237.906c2.055.405,4.073.914,6.112,1.308.309,2.066.5,4.176.8,6.244-1.946-.221-3.891-.35-5.811-.581C3025.115,1242.549,3024.71,1240.229,3024.332,1237.906Z" transform="translate(-3024.332 -1237.906)" fill="#acd5ff"/>
      </g>
      <g id="Group_1753" data-name="Group 1753" transform="translate(0 29.081)">
        <path id="Path_2417" data-name="Path 2417" d="M2540.689,1174.953a.45.45,0,0,1-.4-.249,28.2,28.2,0,0,1-2.057-6.657l-.266-1.191a.448.448,0,0,1,.363-.521h0a.449.449,0,0,1,.51.321c.1.4.18.8.269,1.2a27.588,27.588,0,0,0,1.984,6.453.449.449,0,0,1-.2.6h0a.452.452,0,0,1-.2.048Z" transform="translate(-2537.956 -1166.328)" fill="#ff8e9e"/>
      </g>
      <g id="Group_1754" data-name="Group 1754" transform="translate(78.6 27.201)">
        <path id="Path_2418" data-name="Path 2418" d="M2794.175,1165.155a.45.45,0,0,1-.454-.446h0a.448.448,0,0,1,.252-.408,36.712,36.712,0,0,0,4.8-3.076c.432-.309.866-.619,1.3-.924a.449.449,0,0,1,.629.088h0a.449.449,0,0,1-.088.63h0l-.026.019c-.435.3-.867.611-1.3.919a37.864,37.864,0,0,1-4.921,3.149A.452.452,0,0,1,2794.175,1165.155Z" transform="translate(-2793.721 -1160.21)" fill="#ff8e9e"/>
      </g>
      <g id="Group_1756" data-name="Group 1756" transform="translate(87.324 0)">
        <path id="Path_2420" data-name="Path 2420" d="M2827.521,1079.96a.45.45,0,0,1-.386-.218c-1.087-1.813-2.384-3.664-3.637-5.454-.435-.623-.871-1.244-1.3-1.867a.45.45,0,0,1,.087-.63h0a.45.45,0,0,1,.63.086c.008.011.016.022.023.034.426.62.861,1.241,1.3,1.861,1.262,1.8,2.567,3.666,3.671,5.5a.45.45,0,0,1-.385.681Z" transform="translate(-2822.107 -1071.7)" fill="#fec739"/>
      </g>
    </g>
    <path id="Path_4076" data-name="Path 4076" d="M2867.7,1145.839s7.515,6.2,12.255,5.441-2.312-8.065-2.312-8.065S2867.956,1142.544,2867.7,1145.839Z" transform="translate(-254.131 -49.499)" fill="#313131"/>
    <path id="Path_2380-2" data-name="Path 2380" d="M2819.134,1344.206c1.81-7.077,1.357-7.745,3.254-11.292.327-.628.628-1.256.906-1.9" transform="translate(-220.492 -179.624)" fill="#ff8e9e"/>
  </g>
</svg>
