<svg xmlns="http://www.w3.org/2000/svg" width="168.853" height="166.687" viewBox="0 0 168.853 166.687">
  <g id="Group_2804" data-name="Group 2804" transform="translate(-1742.174 -1085.329)">
    <g id="Group_1759" data-name="Group 1759" transform="translate(1776.522 1246.86)">
      <ellipse id="Ellipse_248" data-name="Ellipse 248" cx="30.845" cy="2.578" rx="30.845" ry="2.578" transform="translate(0 0)" fill="#8ed4f4"/>
    </g>
    <g id="Group_1761" data-name="Group 1761" transform="translate(1742.174 1151.41)">
      <g id="Group_1760" data-name="Group 1760" transform="translate(0 0)">
        <path id="Path_2424" data-name="Path 2424" d="M1749.12,1320.544a4.26,4.26,0,0,1-2.557-.956,2.986,2.986,0,0,0-1.723-.714,2.587,2.587,0,0,0-2,1.153.351.351,0,0,1-.62-.328.37.37,0,0,1,.054-.076,3.287,3.287,0,0,1,2.571-1.445,3.6,3.6,0,0,1,2.115.835,3.593,3.593,0,0,0,2.165.834,2.844,2.844,0,0,0,2.254-1.019,2.733,2.733,0,0,1,2.051-1,3.872,3.872,0,0,1,2.131.942,4.057,4.057,0,0,0,2.274.99,3.315,3.315,0,0,0,1.719-.8,4.852,4.852,0,0,1,1.854-.931.35.35,0,0,1,.21.668.366.366,0,0,1-.088.016,4.294,4.294,0,0,0-1.58.817,3.841,3.841,0,0,1-2.117.92,4.655,4.655,0,0,1-2.675-1.117,3.343,3.343,0,0,0-1.731-.816,2.085,2.085,0,0,0-1.567.8A3.546,3.546,0,0,1,1749.12,1320.544Z" transform="translate(-1742.174 -1317.83)" fill="#fec739"/>
      </g>
    </g>
    <g id="Group_1763" data-name="Group 1763" transform="translate(1838.765 1194.363)">
      <g id="Group_1762" data-name="Group 1762" transform="translate(0 0)">
        <path id="Path_2425" data-name="Path 2425" d="M2085.36,1476.331a3.258,3.258,0,0,1-3.335-3.179h0v-.132a3.988,3.988,0,0,1,2.229-3.621h0a3.91,3.91,0,0,1,1.755-.439c1.162,0,3.439.955,3.439,3.16A4.16,4.16,0,0,1,2085.36,1476.331Zm-.822-6.3a3.329,3.329,0,0,0-1.823,2.984,2.545,2.545,0,0,0,2.473,2.615h.17a3.462,3.462,0,0,0,3.393-3.511c0-1.755-1.936-2.466-2.743-2.466a3.221,3.221,0,0,0-1.471.373Z" transform="translate(-2082.024 -1468.959)" fill="#019e96"/>
      </g>
    </g>
    <g id="Group_1765" data-name="Group 1765" transform="translate(1859.021 1139.193)">
      <g id="Group_1764" data-name="Group 1764">
        <path id="Path_2426" data-name="Path 2426" d="M2153.295,1274.846c1.662.328,3.292.738,4.938,1.053.25,1.667.406,3.371.644,5.045-1.573-.175-3.147-.283-4.7-.47C2153.924,1278.6,2153.6,1276.722,2153.295,1274.846Z" transform="translate(-2153.295 -1274.846)" fill="#acd5ff"/>
      </g>
    </g>
    <g id="Group_1767" data-name="Group 1767" transform="translate(1887.376 1108.836)">
      <g id="Group_1766" data-name="Group 1766" transform="translate(0 0)">
        <path id="Path_2427" data-name="Path 2427" d="M2253.4,1174.246a.352.352,0,0,1-.145-.666c.8-.364,1.594-.733,2.385-1.1a62.81,62.81,0,0,1,11.437-4.439.351.351,0,0,1,.167.676,62.4,62.4,0,0,0-11.31,4.395c-.79.368-1.587.739-2.389,1.1A.358.358,0,0,1,2253.4,1174.246Z" transform="translate(-2253.059 -1168.038)" fill="#fec739"/>
      </g>
    </g>
    <g id="Group_1769" data-name="Group 1769" transform="translate(1901.77 1184.368)">
      <g id="Group_1768" data-name="Group 1768" transform="translate(0 0)">
        <path id="Path_2428" data-name="Path 2428" d="M2308.467,1434.987a.365.365,0,0,1-.088-.011,15.4,15.4,0,0,0-4.278-.482.351.351,0,1,1-.092-.7.3.3,0,0,1,.092,0,16.021,16.021,0,0,1,4.447.5.35.35,0,0,1-.088.684Z" transform="translate(-2303.704 -1433.792)" fill="#019e96"/>
      </g>
    </g>
    <g id="Group_1771" data-name="Group 1771" transform="translate(1780.96 1157.147)">
      <g id="Group_1770" data-name="Group 1770" transform="translate(0 0)">
        <path id="Path_2429" data-name="Path 2429" d="M1885.181,1344.9h-.04c-1.619-.187-3.7-.39-6.186-.6a.35.35,0,0,1-.315-.383.338.338,0,0,1,.044-.139l.326-.561a49.016,49.016,0,0,1,3.227-5.065.348.348,0,0,1,.6.091c.73,2.008,1.656,4.009,2.552,5.943l.1.225a.35.35,0,0,1-.314.494Zm-5.617-1.251c1.956.17,3.648.334,5.044.488-.764-1.649-1.54-3.343-2.194-5.055-1.029,1.43-1.931,2.979-2.8,4.476Z" transform="translate(-1878.639 -1338.016)" fill="#fec739"/>
      </g>
    </g>
    <g id="Group_1773" data-name="Group 1773" transform="translate(1748.714 1095.107)">
      <g id="Group_1772" data-name="Group 1772" transform="translate(0)">
        <path id="Path_2430" data-name="Path 2430" d="M1765.528,1124.978a.351.351,0,0,1-.344-.358h0a.354.354,0,0,1,.1-.236,22.913,22.913,0,0,1,3.317-2.606c.853-.591,1.738-1.2,2.615-1.931a.351.351,0,1,1,.516.476.4.4,0,0,1-.07.059c-.9.75-1.8,1.371-2.665,1.97a22.334,22.334,0,0,0-3.218,2.526A.351.351,0,0,1,1765.528,1124.978Z" transform="translate(-1765.184 -1119.734)" fill="#019e96"/>
      </g>
    </g>
    <g id="Group_1775" data-name="Group 1775" transform="translate(1780.476 1107.649)">
      <g id="Group_1774" data-name="Group 1774">
        <path id="Path_2431" data-name="Path 2431" d="M1893.235,1163.862a13.524,13.524,0,0,0-3.7,5.476,21.521,21.521,0,0,0-1.012,8.929l-7.5,2.885c-1.476-2.649-2.744-5.405-3.958-8.18l-.129-.24C1882.894,1169.527,1889.156,1166.3,1893.235,1163.862Z" transform="translate(-1876.937 -1163.862)" fill="#fff"/>
      </g>
    </g>
    <g id="Group_1777" data-name="Group 1777" transform="translate(1777.233 1116.523)">
      <g id="Group_1776" data-name="Group 1776" transform="translate(0 0)">
        <path id="Path_2432" data-name="Path 2432" d="M1872.856,1203.5l-3.448,1.327a64.185,64.185,0,0,1-3.735-7.712l-.146-.263c1.059-.586,2.145-1.177,3.247-1.768l.129.24C1870.112,1198.094,1871.38,1200.849,1872.856,1203.5Z" transform="translate(-1865.527 -1195.083)" fill="#fff"/>
      </g>
    </g>
    <g id="Group_1779" data-name="Group 1779" transform="translate(1830.167 1103.633)">
      <g id="Group_1778" data-name="Group 1778" transform="translate(0 0)">
        <path id="Path_2433" data-name="Path 2433" d="M2055.767,1150.266c-.154,1.759-.295,3.531-.5,5.291-.114.96-.248,1.921-.417,2.874-1.007-.119-2.031-.228-3.072-.342q.23-1.689.429-3.385c.2-1.657.383-3.319.571-4.972h0C2053.791,1149.909,2054.791,1150.085,2055.767,1150.266Z" transform="translate(-2051.774 -1149.731)" fill="#fff"/>
      </g>
    </g>
    <g id="Group_1781" data-name="Group 1781" transform="translate(1801.14 1094.254)">
      <g id="Group_1780" data-name="Group 1780" transform="translate(0 0)">
        <path id="Path_2434" data-name="Path 2434" d="M1979.667,1126.107h0c-.189,1.654-.374,3.315-.571,4.972q-.2,1.694-.429,3.385c1.043.114,2.067.224,3.072.342,9.892,1.141,18.151,2.52,29.639,4.657a8.64,8.64,0,0,0,.292,2.78,23.461,23.461,0,0,1-8.661,1.775c-10.8,0-11.487-2.732-18.431-2.732-3.767,0-7.448.838-11.192.843h-.024c-8.919,0-12.369-6.779-16.932-10.483a9.279,9.279,0,0,0-5.705-2.35c-.37-.583-.732-1.166-1.082-1.755,5.578-3.2,10.74-7.771,14.806-7.771,6.271,0,3.784,3.122,7.795,3.122,5.315,0,13.287-4.125,21.454-4.125,3.567,0,3.109,4.945,9.539,4.945,4.279,0,14.168-4.338,20.707-6.979.146,1.477.233,3.3.233,6.11,0,7.244-2.661,12.219-6.28,15.522-7.681-5.529-18.344-8.633-35.232-11.712C1981.687,1126.465,1980.686,1126.287,1979.667,1126.107Z" transform="translate(-1949.643 -1116.731)" fill="#fff"/>
      </g>
    </g>
    <g id="Group_1783" data-name="Group 1783" transform="translate(1899.263 1165.865)">
      <g id="Group_1782" data-name="Group 1782">
        <path id="Path_2435" data-name="Path 2435" d="M2306.647,1376.412l-3.173.551-7.275-4.315c-.311-.713-.724-1.547-1.317-2.642l3.629-1.317Z" transform="translate(-2294.883 -1368.69)" fill="#313131"/>
      </g>
    </g>
    <g id="Group_1785" data-name="Group 1785" transform="translate(1873.631 1167.187)">
      <g id="Group_1784" data-name="Group 1784" transform="translate(0)">
        <path id="Path_2436" data-name="Path 2436" d="M2231.646,1375.979l-.263-.157a186.867,186.867,0,0,1-25.624,6.846,33.224,33.224,0,0,0-1.06-8.326c5.271-.138,11.566-.1,20.065-.008a15.152,15.152,0,0,0,5.323-.9l.239-.088C2230.923,1374.431,2231.337,1375.266,2231.646,1375.979Z" transform="translate(-2204.7 -1373.341)" fill="#fec739"/>
      </g>
    </g>
    <g id="Group_1787" data-name="Group 1787" transform="translate(1869.434 1168.19)">
      <g id="Group_1786" data-name="Group 1786">
        <path id="Path_2437" data-name="Path 2437" d="M2195.19,1385.189v.406c0,.519-.039,1.646-.1,2.881q-1.961.289-3.806.516c.011-.39.016-.811.016-1.256a40,40,0,0,0-1.366-10.708h0c1.335-.063,2.721-.118,4.2-.157A33.22,33.22,0,0,1,2195.19,1385.189Z" transform="translate(-2189.932 -1376.871)" fill="#313131"/>
      </g>
    </g>
    <g id="Group_1789" data-name="Group 1789" transform="translate(1797.387 1134.719)">
      <g id="Group_1788" data-name="Group 1788">
        <path id="Path_2438" data-name="Path 2438" d="M1977.266,1267.134c6.934,7.452,12.112,14.641,18.3,25.005a3.1,3.1,0,0,0,3.072,1.481c3.22-.433,6.35-.716,9.85-.894h0a40.023,40.023,0,0,1,1.366,10.708c0,.445,0,.866-.016,1.256-3.008.363-5.783.586-8.374.689a20.929,20.929,0,0,1-11.542-2.936c-9.9-5.874-18.636-14.1-29.328-26.919-4.318,13.314-7.866,22.05-12.8,31.528a9.856,9.856,0,0,0-.673,7.46c1.141,3.7,2.023,7.07,2.8,10.68-4.043,1.2-8.929,2.545-12.57,3.377a113.477,113.477,0,0,1-.878-16.77c.027-1.229.074-2.449.146-3.686.615-10.984,2.874-22.8,6.94-38.583.134-.032.268-.064.4-.1,8.676-2.114,15.774-5.082,25.32-10.326.13.126.264.248.394.374C1972.462,1262.144,1974.963,1264.655,1977.266,1267.134Z" transform="translate(-1936.437 -1259.106)" fill="#313131"/>
      </g>
    </g>
    <g id="Group_1791" data-name="Group 1791" transform="translate(1833.239 1104.17)">
      <g id="Group_1790" data-name="Group 1790" transform="translate(0 0)">
        <path id="Path_2439" data-name="Path 2439" d="M2103.468,1167.426c-2.37-.347-7.022-1-7.077-1.008a5.769,5.769,0,0,0-3.759,1.229c-.039-.138-.079-.28-.118-.425a8.618,8.618,0,0,1-.292-2.78c-11.488-2.137-19.748-3.52-29.639-4.657.169-.952.3-1.913.417-2.874.209-1.76.351-3.531.5-5.291,16.892,3.078,27.553,6.181,35.233,11.711A34.455,34.455,0,0,1,2103.468,1167.426Z" transform="translate(-2062.582 -1151.621)" fill="#fec739"/>
      </g>
    </g>
    <g id="Group_1793" data-name="Group 1793" transform="translate(1791.954 1109.171)">
      <g id="Group_1792" data-name="Group 1792" transform="translate(0)">
        <path id="Path_2440" data-name="Path 2440" d="M1955.586,1194.775c-.055.031-.11.059-.161.088-9.52,5.307-16.852,8.281-25.557,10.325-7.472-8.2-10.889-14.627-12.42-22.785q-.013-.154-.024-.307a21.514,21.514,0,0,1,1.012-8.929,14.243,14.243,0,0,0,4.27.614,14.834,14.834,0,0,0,10.587-4.564c4.564,3.7,8.011,10.483,16.931,10.483h.024A89.11,89.11,0,0,0,1955.586,1194.775Z" transform="translate(-1917.322 -1169.217)" fill="#019e96"/>
      </g>
    </g>
    <g id="Group_1795" data-name="Group 1795" transform="translate(1798.293 1200.809)">
      <g id="Group_1794" data-name="Group 1794" transform="translate(0)">
        <path id="Path_2441" data-name="Path 2441" d="M1952.195,1491.641c.311,1.445.6,2.929.886,4.487-.654.149-1.307.291-1.965.422-2.921.614-5.861,1.1-8.805,1.626-.732.13-1.468.263-2.2.4q-.263-1.8-.484-3.558C1943.267,1494.188,1948.153,1492.837,1952.195,1491.641Z" transform="translate(-1939.626 -1491.641)" fill="#313131"/>
      </g>
    </g>
    <g id="Group_1797" data-name="Group 1797" transform="translate(1800.978 1205.718)">
      <g id="Group_1796" data-name="Group 1796" transform="translate(0 0)">
        <path id="Path_2442" data-name="Path 2442" d="M1957.878,1508.914a129.5,129.5,0,0,1,1.126,30.828c-.952-.165-1.9-.351-2.842-.54-3.051-10.838-4.977-18.546-7.09-28.666,2.945-.527,5.88-1.016,8.806-1.626Z" transform="translate(-1949.072 -1508.91)" fill="#fec739"/>
      </g>
    </g>
    <g id="Group_1799" data-name="Group 1799" transform="translate(1799.453 1236.011)">
      <g id="Group_1798" data-name="Group 1798" transform="translate(0 0)">
        <path id="Path_2443" data-name="Path 2443" d="M1955.164,1616.036c-.127,1.795-.279,3.665-.456,5.637h-10.9l-.095-1.945,8.66-4.063c-.016-.056-.031-.115-.047-.17C1953.267,1615.685,1954.212,1615.87,1955.164,1616.036Z" transform="translate(-1943.708 -1615.496)" fill="#313131"/>
      </g>
    </g>
    <g id="Group_1801" data-name="Group 1801" transform="translate(1793.068 1102.182)">
      <g id="Group_1800" data-name="Group 1800" transform="translate(0 0)">
        <path id="Path_2444" data-name="Path 2444" d="M1936.1,1151.616a14.833,14.833,0,0,1-10.586,4.564,14.306,14.306,0,0,1-4.271-.614,13.524,13.524,0,0,1,3.7-5.476c.1-.062.2-.126.307-.185l-.012-.079a35.037,35.037,0,0,0-1.712-3.566l1.141.284a7.157,7.157,0,0,0,3.079-1.917c.477.981,1,1.937,1.559,2.878.351.594.713,1.177,1.082,1.76A9.278,9.278,0,0,1,1936.1,1151.616Z" transform="translate(-1921.242 -1144.626)" fill="#ffc517"/>
      </g>
    </g>
    <g id="Group_1807" data-name="Group 1807" transform="translate(1769.463 1118.284)">
      <g id="Group_1806" data-name="Group 1806">
        <path id="Path_2447" data-name="Path 2447" d="M1849.835,1209.26l-.933.358a2.213,2.213,0,0,0-1.37,1.59c-.808,3.6-2.52,9.479-2.972,13.467l.925-.169,1.272,3.68-5.76,2.965-2.6-3.279a1.371,1.371,0,0,1,.913-2.083c-.111-1.094-.157-2.263-.157-3.48,0-5.271.87-11.361,1.252-15.4a5.116,5.116,0,0,1,2.563-3.96c.96-.547,1.961-1.106,2.984-1.667l.146.263A64.358,64.358,0,0,0,1849.835,1209.26Z" transform="translate(-1838.188 -1201.278)" fill="#fec739"/>
      </g>
    </g>
    <g id="Group_1809" data-name="Group 1809" transform="translate(1787.738 1243.375)">
      <g id="Group_1808" data-name="Group 1808">
        <path id="Path_2448" data-name="Path 2448" d="M1908.567,1644.445a3.038,3.038,0,0,0-3.037-3.04h0a3.039,3.039,0,0,0-3.041,3.038h0a3.04,3.04,0,0,0,3.039,3.04h0A3.042,3.042,0,0,0,1908.567,1644.445Z" transform="translate(-1902.488 -1641.405)" fill="#195f5f"/>
      </g>
    </g>
    <g id="Group_1811" data-name="Group 1811" transform="translate(1824.333 1243.375)">
      <g id="Group_1810" data-name="Group 1810" transform="translate(0)">
        <path id="Path_2449" data-name="Path 2449" d="M2037.327,1644.445a3.04,3.04,0,0,0-6.08,0h0a3.04,3.04,0,0,0,3.039,3.04h0A3.04,3.04,0,0,0,2037.327,1644.445Z" transform="translate(-2031.247 -1641.405)" fill="#195f5f"/>
      </g>
    </g>
    <g id="Group_1824" data-name="Group 1824" transform="translate(1792.08 1112.304)">
      <g id="Group_1813" data-name="Group 1813" transform="translate(12.253 13.729)">
        <g id="Group_1812" data-name="Group 1812">
          <path id="Path_2450" data-name="Path 2450" d="M1983.743,1229.742c-.512-.135-1.01-.273-1.482-.4a17.349,17.349,0,0,0-3.708-.8c-6.954,0-9.952,5.783-12.851,11.375-1.483,2.861-2.921,5.631-4.827,7.548l.169.188.237-.058a32.428,32.428,0,0,0,4.755-7.505c2.847-5.492,5.793-11.172,12.517-11.172a17.305,17.305,0,0,1,3.606.783c.548.152,1.129.313,1.729.469C1983.841,1230.031,1983.792,1229.888,1983.743,1229.742Z" transform="translate(-1960.875 -1228.543)" fill="#fff"/>
        </g>
      </g>
      <g id="Group_1815" data-name="Group 1815" transform="translate(11.138)">
        <g id="Group_1814" data-name="Group 1814">
          <path id="Path_2451" data-name="Path 2451" d="M1963.007,1184.605a6.941,6.941,0,0,0,4.252-1.983l-.263-.254a6.514,6.514,0,0,1-3.988,1.86c-2.9,0-5.117-1.617-5.713-3.99-.113.054-.227.106-.341.158A6.012,6.012,0,0,0,1963.007,1184.605Z" transform="translate(-1956.953 -1180.239)" fill="#fff"/>
        </g>
      </g>
      <g id="Group_1817" data-name="Group 1817" transform="translate(24.311 19.285)">
        <g id="Group_1816" data-name="Group 1816">
          <path id="Path_2452" data-name="Path 2452" d="M2009,1248.094c-.141,0-.282.006-.425.017-3.018.251-5.272,3.633-5.272,6.489a4.738,4.738,0,0,0,1.034,2.923l.376-.156a4.365,4.365,0,0,1-1.034-2.766c0-2.692,2.107-5.88,4.927-6.114.131-.01.263-.016.393-.016a4.418,4.418,0,0,1,4.765,4.594l.37-.2A4.744,4.744,0,0,0,2009,1248.094Z" transform="translate(-2003.303 -1248.094)" fill="#fff"/>
        </g>
      </g>
      <g id="Group_1819" data-name="Group 1819" transform="translate(0.684 12.475)">
        <g id="Group_1818" data-name="Group 1818">
          <path id="Path_2453" data-name="Path 2453" d="M1929.205,1237.947a9.917,9.917,0,0,0,2.24-5.228,8.824,8.824,0,0,0-8.594-8.59,6,6,0,0,0-2.68.627c.033.125.068.249.1.374a5.645,5.645,0,0,1,2.578-.624,8.438,8.438,0,0,1,8.218,8.213c0,1.548-1.342,4.582-3.593,6.495l.228.3A10.51,10.51,0,0,0,1929.205,1237.947Z" transform="translate(-1920.171 -1224.13)" fill="#fff"/>
        </g>
      </g>
      <g id="Group_1821" data-name="Group 1821" transform="translate(2.308 17.704)">
        <g id="Group_1820" data-name="Group 1820">
          <path id="Path_2454" data-name="Path 2454" d="M1927.043,1242.541a3.319,3.319,0,0,0-1.156.21c.048.115.1.23.146.345a2.958,2.958,0,0,1,1.01-.176,2,2,0,0,1,2.219,1.746h0a1.983,1.983,0,0,1,.005.414,4.126,4.126,0,0,1-.9,2.588l.205.339a4.536,4.536,0,0,0,1.076-2.927,2.383,2.383,0,0,0-2.209-2.545h0A2.3,2.3,0,0,0,1927.043,1242.541Z" transform="translate(-1925.887 -1242.53)" fill="#fff"/>
        </g>
      </g>
      <g id="Group_1823" data-name="Group 1823" transform="translate(0 5.016)">
        <g id="Group_1822" data-name="Group 1822">
          <path id="Path_2455" data-name="Path 2455" d="M1917.765,1198.32a25.773,25.773,0,0,1,8.1,2.144c2.669,1.032,5.19,2.006,7.929,2.006,3.453,0,6.628-1.9,9.032-4.371-.114-.069-.23-.139-.342-.211-2.647,2.681-5.78,4.206-8.689,4.206-2.669,0-5.157-.965-7.793-1.982a26.115,26.115,0,0,0-8.206-2.167Z" transform="translate(-1917.765 -1197.887)" fill="#fff"/>
        </g>
      </g>
    </g>
    <g id="Group_1827" data-name="Group 1827" transform="translate(1802.256 1093.987)">
      <path id="Path_2458" data-name="Path 2458" d="M2021.363,1137.32a.263.263,0,0,1-.258-.269h0a.264.264,0,0,1,.072-.176c3.68-3.7,5.547-8.648,5.547-14.71,0-2.4-.061-4.195-.2-5.737-.8.323-1.639.669-2.512,1.028-6.336,2.6-14.219,5.839-17.967,5.839a7.587,7.587,0,0,1-6.518-3.1c-.9-1.031-1.616-1.843-3.02-1.843-4.486,0-8.953,1.267-12.9,2.385-3.16.9-6.151,1.745-8.56,1.745a3.24,3.24,0,0,1-3.039-1.4c-.687-.848-1.4-1.724-4.755-1.724-2.772,0-6.18,2.256-9.787,4.646-1.141.757-2.326,1.54-3.528,2.282a.263.263,0,0,1-.35-.128l0,0a.263.263,0,0,1,.075-.314c1.195-.735,2.37-1.516,3.511-2.271,3.675-2.434,7.147-4.733,10.076-4.733,3.609,0,4.433,1.018,5.161,1.917a2.721,2.721,0,0,0,2.633,1.2c2.336,0,5.29-.837,8.418-1.725,3.974-1.127,8.48-2.405,13.037-2.405,1.641,0,2.5.982,3.413,2.019a7.057,7.057,0,0,0,6.125,2.922c3.644,0,11.477-3.217,17.769-5.8.994-.408,1.948-.8,2.84-1.16a.263.263,0,0,1,.341.149h0a.308.308,0,0,1,.016.067c.161,1.638.234,3.53.234,6.135,0,6.205-1.918,11.278-5.7,15.079A.262.262,0,0,1,2021.363,1137.32Z" transform="translate(-1953.568 -1115.793)" fill="#313131"/>
    </g>
    <g id="Group_1829" data-name="Group 1829" transform="translate(1825.838 1118.552)">
      <path id="Path_2460" data-name="Path 2460" d="M2065.21,1205.478a35.436,35.436,0,0,1-11.509-1.6,21.648,21.648,0,0,0-6.926-1.131,49.9,49.9,0,0,0-5.6.421c-1.427.161-2.9.328-4.366.393a.261.261,0,1,1-.023-.521c1.445-.064,2.912-.23,4.33-.391a50.4,50.4,0,0,1,5.656-.424,22.36,22.36,0,0,1,7.073,1.153,34.974,34.974,0,0,0,11.362,1.58,22.44,22.44,0,0,0,6.538-1.032.264.264,0,0,1,.305.214h0a.264.264,0,0,1-.151.286A23,23,0,0,1,2065.21,1205.478Z" transform="translate(-2036.54 -1202.223)" fill="#313131"/>
    </g>
    <g id="Group_1830" data-name="Group 1830" transform="translate(1781.163 1108.674)">
      <path id="Path_2461" data-name="Path 2461" d="M1879.61,1175.067a.263.263,0,0,1-.124-.491c1.325-.71,2.66-1.419,3.976-2.12,3.335-1.772,6.482-3.446,9.119-4.934a.263.263,0,0,1,.369.053h0a.264.264,0,0,1-.052.369.291.291,0,0,1-.059.033c-2.643,1.492-5.793,3.167-9.128,4.941-1.317.7-2.649,1.4-3.974,2.119A.266.266,0,0,1,1879.61,1175.067Z" transform="translate(-1879.355 -1167.469)" fill="#313131"/>
    </g>
    <g id="Group_1831" data-name="Group 1831" transform="translate(1781.419 1122.089)">
      <path id="Path_2462" data-name="Path 2462" d="M1880.509,1218.889a.263.263,0,0,1-.253-.273h0a.263.263,0,0,1,.158-.231l9.578-3.686a.263.263,0,0,1,.357.105h0a.263.263,0,0,1-.1.357h0a.263.263,0,0,1-.064.025l-9.577,3.686A.266.266,0,0,1,1880.509,1218.889Z" transform="translate(-1880.256 -1214.666)" fill="#313131"/>
    </g>
    <g id="Group_1833" data-name="Group 1833" transform="translate(1780.219 1116.212)">
      <path id="Path_2464" data-name="Path 2464" d="M1879.738,1201.8a.263.263,0,0,1-.231-.139c-1.331-2.513-2.483-5.091-3.436-7.273a.263.263,0,0,1,.449-.274.289.289,0,0,1,.028.064c.947,2.177,2.095,4.74,3.417,7.236a.263.263,0,0,1-.109.351A.266.266,0,0,1,1879.738,1201.8Z" transform="translate(-1876.033 -1193.988)" fill="#313131"/>
    </g>
    <g id="Group_1834" data-name="Group 1834" transform="translate(1826.281 1111.362)">
      <path id="Path_2465" data-name="Path 2465" d="M2044.341,1178.074h-.03q-.885-.1-1.789-.2l-.57-.062c-1.176-.125-2.38-.247-3.619-.37a.261.261,0,0,1,.051-.52c1.241.122,2.446.244,3.624.37l.57.062,1.79.2a.264.264,0,0,1,.207.309h0a.263.263,0,0,1-.236.211Z" transform="translate(-2038.099 -1176.924)" fill="#313131"/>
    </g>
    <g id="Group_1835" data-name="Group 1835" transform="translate(1830.009 1103.402)">
      <path id="Path_2466" data-name="Path 2466" d="M2051.477,1156.981h-.034a.264.264,0,0,1-.224-.293q.171-1.3.323-2.594.214-1.81.417-3.621l.154-1.353a.263.263,0,0,1,.518.059l-.154,1.353q-.205,1.811-.418,3.624-.153,1.3-.324,2.6A.263.263,0,0,1,2051.477,1156.981Z" transform="translate(-2051.217 -1148.919)" fill="#313131"/>
    </g>
    <g id="Group_1836" data-name="Group 1836" transform="translate(1778.926 1236.593)">
      <path id="Path_2467" data-name="Path 2467" d="M1923.14,1623.4h-43.488a12.263,12.263,0,0,1-2.746-.289,6.593,6.593,0,0,1-5.405-5.207.264.264,0,0,1,.151-.34h0a.265.265,0,0,1,.356.223,6.04,6.04,0,0,0,5.011,4.816,11.8,11.8,0,0,0,2.633.276h43.488a11.776,11.776,0,0,0,2.633-.276,6.032,6.032,0,0,0,5.012-4.816.263.263,0,0,1,.285-.24h0a.263.263,0,0,1,.24.285h0a.23.23,0,0,1-.017.072,6.582,6.582,0,0,1-5.4,5.207A12.231,12.231,0,0,1,1923.14,1623.4Z" transform="translate(-1871.483 -1617.543)" fill="#313131"/>
    </g>
    <g id="Group_1837" data-name="Group 1837" transform="translate(1789.637 1245.274)">
      <path id="Path_2468" data-name="Path 2468" d="M1910.312,1650.364a1.138,1.138,0,1,1,1.135-1.146v.009a1.136,1.136,0,0,1-1.135,1.137Zm0-1.926a.79.79,0,0,0-.79.79h0a.79.79,0,0,0,.79.79h0a.79.79,0,0,0,.79-.79h0a.79.79,0,0,0-.79-.79Z" transform="translate(-1909.171 -1648.088)" fill="#fff"/>
    </g>
    <g id="Group_1838" data-name="Group 1838" transform="translate(1826.242 1245.277)">
      <path id="Path_2469" data-name="Path 2469" d="M2039.092,1650.37a1.137,1.137,0,0,1,.008-2.273h0a1.137,1.137,0,0,1-.008,2.275Zm0-1.926a.79.79,0,0,0-.79.79h0a.79.79,0,0,0,.79.79h0a.79.79,0,0,0,.79-.79h0a.79.79,0,0,0-.79-.79Z" transform="translate(-2037.961 -1648.097)" fill="#fff"/>
    </g>
    <g id="Group_1839" data-name="Group 1839" transform="translate(1779.055 1229.503)">
      <path id="Path_2470" data-name="Path 2470" d="M1896,1552.18h-.024c-7.476-.672-15.014-1.124-22.4-1.343a.263.263,0,0,1-.223-.3h0a.263.263,0,0,1,.231-.224h.008c7.4.219,14.947.67,22.434,1.345a.263.263,0,0,1-.023.521Z" transform="translate(-1873.345 -1550.315)" fill="#313131"/>
    </g>
    <g id="Group_1840" data-name="Group 1840" transform="translate(1810.028 1229.913)">
      <path id="Path_2471" data-name="Path 2471" d="M1982.555,1553.213a.263.263,0,0,1-.014-.521l3.265-.182c9.216-.52,14.784-.834,27.764-.732,8.791.068,15.123.308,21.828.561,3.058.116,6.218.235,9.733.343a.263.263,0,0,1,.252.269.255.255,0,0,1-.258.253h-.014c-3.515-.108-6.677-.227-9.735-.343-6.7-.254-13.03-.492-21.812-.561-12.964-.1-18.519.212-27.735.731l-3.266.182Z" transform="translate(-1982.322 -1551.758)" fill="#313131"/>
    </g>
    <g id="Group_1841" data-name="Group 1841" transform="translate(1885.115 1230.847)">
      <path id="Path_2472" data-name="Path 2472" d="M2254.432,1555.93c-1.527,0-3.364-.027-6.6-.075l-1.061-.016a.264.264,0,0,1-.257-.264.269.269,0,0,1,.263-.257l1.061.016c7.479.112,7.479.112,13.453-.082,1.668-.054,3.806-.122,6.7-.208a.249.249,0,0,1,.263.231q0,.011,0,.023a.263.263,0,0,1-.254.269c-2.9.088-5.031.155-6.7.208C2257.909,1555.883,2256.44,1555.93,2254.432,1555.93Z" transform="translate(-2246.513 -1555.044)" fill="#313131"/>
    </g>
    <g id="Group_1842" data-name="Group 1842" transform="translate(1758.231 1211.536)">
      <path id="Path_2473" data-name="Path 2473" d="M1800.337,1506.193a.277.277,0,0,1-.066-.009.263.263,0,0,1-.187-.319c1.487-5.7,4.575-12.49,10.848-12.49,3.634,0,6.531,3.072,7.949,6.32a78.712,78.712,0,0,1,5.062-12.48.263.263,0,0,1,.464.24,78.8,78.8,0,0,0-5.244,13.094.263.263,0,0,1-.242.185h-.008a.263.263,0,0,1-.245-.17c-1.229-3.317-4.1-6.662-7.737-6.662-5.939,0-8.9,6.583-10.343,12.1A.263.263,0,0,1,1800.337,1506.193Z" transform="translate(-1800.077 -1487.1)" fill="#313131"/>
    </g>
    <g id="Group_1843" data-name="Group 1843" transform="translate(1789.94 1194.74)">
      <path id="Path_2474" data-name="Path 2474" d="M1911.9,1433.863a.264.264,0,0,1-.257-.269h0a.267.267,0,0,1,.067-.169,33.1,33.1,0,0,1,6.415-5.354.263.263,0,0,1,.372.021h0a.263.263,0,0,1-.021.372h0a.289.289,0,0,1-.073.046,32.574,32.574,0,0,0-6.313,5.266A.263.263,0,0,1,1911.9,1433.863Z" transform="translate(-1911.644 -1428.003)" fill="#313131"/>
    </g>
    <g id="Group_1844" data-name="Group 1844" transform="translate(1814.075 1191.375)">
      <path id="Path_2475" data-name="Path 2475" d="M2007.646,1456.156a.263.263,0,0,1-.263-.263h0a.316.316,0,0,1,.009-.066,36.449,36.449,0,0,0,1.486-10.013c0-10.15-5.128-10.445-5.713-10.445-2.079,0-4.523,1.587-5.943,3.862a.263.263,0,0,1-.368.059h0a.263.263,0,0,1-.1-.29c.223-.588.454-1.182.686-1.78,1.554-4,3.16-8.133,3.16-12.287,0-2.927-.679-6.742-3.92-8.286a.263.263,0,0,1,.225-.471c2.759,1.317,4.213,4.344,4.213,8.757,0,4.256-1.625,8.437-3.2,12.48l-.038.1a7.56,7.56,0,0,1,5.274-2.658c2.876,0,6.232,2.872,6.232,10.965a37.027,37.027,0,0,1-1.506,10.157A.263.263,0,0,1,2007.646,1456.156Z" transform="translate(-1996.563 -1416.162)" fill="#313131"/>
    </g>
    <g id="Group_1845" data-name="Group 1845" transform="translate(1843.644 1220.738)">
      <path id="Path_2476" data-name="Path 2476" d="M2100.856,1531.462a.274.274,0,0,1-.088-.017.264.264,0,0,1-.154-.336c1.982-5.354,7.2-11.135,12.165-11.135a6.407,6.407,0,0,1,5.115,3.072c1.674-2.306,3.623-3.569,5.517-3.569,1.1,0,2.422.649,2.422,3.739a35.4,35.4,0,0,1-.168,3.824l.06-.056a4.5,4.5,0,0,1,3.187-1.081,5.815,5.815,0,0,1,5.881,5.258.263.263,0,0,1-.257.269h0a.264.264,0,0,1-.264-.189,5.314,5.314,0,0,0-5.367-4.816c-2.5,0-3.263,1.37-3.429,1.755-.088.31-.176.31-.292.31a.264.264,0,0,1-.263-.263h0a.655.655,0,0,1,.046-.182,21.606,21.606,0,0,0,.338-4.828c0-2.133-.64-3.216-1.9-3.216-1.8,0-3.686,1.3-5.313,3.663a.252.252,0,0,1-.223.112.264.264,0,0,1-.216-.126,6,6,0,0,0-4.881-3.151c-4.595,0-9.742,5.58-11.673,10.8A.264.264,0,0,1,2100.856,1531.462Z" transform="translate(-2100.599 -1519.477)" fill="#313131"/>
    </g>
    <g id="Group_1846" data-name="Group 1846" transform="translate(1792.826 1218.541)">
      <path id="Path_2477" data-name="Path 2477" d="M1922.059,1522.816a.284.284,0,0,1-.071-.01.263.263,0,0,1-.18-.322,109.738,109.738,0,0,1,3.62-10.54.263.263,0,0,1,.321-.19h0a.263.263,0,0,1,.189.321.27.27,0,0,1-.025.062,108.79,108.79,0,0,0-3.6,10.489A.264.264,0,0,1,1922.059,1522.816Z" transform="translate(-1921.799 -1511.746)" fill="#313131"/>
    </g>
    <g id="Group_1847" data-name="Group 1847" transform="translate(1816.469 1210.477)">
      <path id="Path_2478" data-name="Path 2478" d="M2005.243,1504.264h0a.263.263,0,0,1-.257-.263c.145-9.524,2.4-15.1,5.731-20.528a.263.263,0,0,1,.446.273c-4.564,7.438-5.547,13.268-5.654,20.265A.263.263,0,0,1,2005.243,1504.264Z" transform="translate(-2004.986 -1483.373)" fill="#313131"/>
    </g>
    <g id="Group_1848" data-name="Group 1848" transform="translate(1818.208 1214.885)">
      <path id="Path_2479" data-name="Path 2479" d="M2011.361,1503.357a.263.263,0,0,1-.145-.478,44.548,44.548,0,0,1,7.437-3.959.263.263,0,0,1,.36.1h0a.263.263,0,0,1-.1.36.251.251,0,0,1-.063.026,44.074,44.074,0,0,0-7.349,3.913A.26.26,0,0,1,2011.361,1503.357Z" transform="translate(-2011.106 -1498.884)" fill="#313131"/>
    </g>
    <g id="Group_1849" data-name="Group 1849" transform="translate(1816.693 1223.323)">
      <path id="Path_2480" data-name="Path 2480" d="M2006.029,1532.329a.264.264,0,0,1-.256-.27h0a.265.265,0,0,1,.133-.222c1.631-.862,4.158-1.716,9.655-3.263a.263.263,0,0,1,.3.222h0a.263.263,0,0,1-.158.281c-5.458,1.536-7.959,2.379-9.553,3.222A.264.264,0,0,1,2006.029,1532.329Z" transform="translate(-2005.773 -1528.571)" fill="#313131"/>
    </g>
    <path id="Path_2481" data-name="Path 2481" d="M1851.5,1299.822a.657.657,0,0,1-.838-.4h0a.672.672,0,0,1-.024-.082l-1.526-7.525c1.475-1.542,2.969-3.072,4.425-4.648q-.821-1.364-1.569-2.766l.291-.147c.878-.445,1.755-.878,2.661-1.277a.65.65,0,0,1,.853.344h0a.641.641,0,0,1,.049.2l.016.211,1.058,13.4a.648.648,0,0,1-.378.644C1854.873,1298.506,1853.2,1299.2,1851.5,1299.822Z" transform="translate(-76.541 -141.433)" fill="#313131"/>
    <path id="Path_2482" data-name="Path 2482" d="M1843.212,1288.506l-.983,1.033a44.156,44.156,0,0,1-1.358-7.754q1.975-1.88,3.835-3.483.458,1.032.965,2.035c.129.254.263.5.393.755q.745,1.4,1.569,2.766C1846.184,1285.434,1844.687,1286.963,1843.212,1288.506Z" transform="translate(-70.646 -138.127)" fill="#ffc517"/>
    <rect id="Rectangle_1422" data-name="Rectangle 1422" width="6.845" height="17.422" rx="3.423" transform="matrix(0.934, -0.356, 0.356, 0.934, 1791.516, 1096.217)" fill="#ffc517"/>
    <path id="Path_4067" data-name="Path 4067" d="M1905.293,1108.112h0l-.478-1.253a2.95,2.95,0,0,0,.734-.483c.9-.8,1.163-1.963.6-2.6a1.868,1.868,0,0,0-2.482.159,7.013,7.013,0,0,0-12.822,5.643l1.346,3.531h0c.012.032.022.064.034.1a7.013,7.013,0,0,0,13.106-5C1905.319,1108.174,1905.305,1108.143,1905.293,1108.112Z" transform="translate(-106.084 -10.547)" fill="#ffc517"/>
    <path id="Path_4068" data-name="Path 4068" d="M1907.607,1100.9s-5.081,4.768-12.263-.847a2.783,2.783,0,0,1,1.868-3.138S1907,1093.721,1907.607,1100.9Z" transform="translate(-109.6 -7.786)" fill="#313131"/>
    <path id="Path_4069" data-name="Path 4069" d="M1889.553,1105.858c.232-.092-.389,3.044-2.255,5.363-4.209-6.067,2.124-7.745,2.124-7.745" transform="translate(-102.844 -12.989)" fill="#313131"/>
    <circle id="Ellipse_545" data-name="Ellipse 545" cx="0.819" cy="0.819" r="0.819" transform="translate(1786.523 1098.866)" fill="#313131"/>
    <circle id="Ellipse_546" data-name="Ellipse 546" cx="0.819" cy="0.819" r="0.819" transform="translate(1791.039 1097.144)" fill="#313131"/>
    <path id="Path_4070" data-name="Path 4070" d="M1907.7,1131.6l.748,3.032.106.429-.432-.194.776-.252c.408-.133.649.492.239.626l-.775.252a.338.338,0,0,1-.432-.194l-.748-3.032-.106-.429a.346.346,0,0,1,.194-.432.337.337,0,0,1,.432.194Z" transform="translate(-118.023 -32.967)" fill="#313131"/>
    <path id="Path_4071" data-name="Path 4071" d="M1915.6,1147.053l.017,0c.067-.014-.1.025-.039.01s.1-.026.148-.04a3.681,3.681,0,0,0,.482-.177c.047-.021.094-.044.14-.067s.05-.046,0,0a.476.476,0,0,1,.074-.043,2.024,2.024,0,0,0,.255-.18l.057-.049c.044-.039-.052.054.013-.015a1.259,1.259,0,0,0,.1-.113c.007-.009.039-.068.048-.069-.017,0-.037.067,0,0,.013-.025.025-.05.036-.077s.039-.114.01-.018a.344.344,0,0,1,.385-.275.338.338,0,0,1,.275.385,2.369,2.369,0,0,1-1.926,1.4.336.336,0,0,1-.365-.3.345.345,0,0,1,.3-.366Z" transform="translate(-123.919 -43.378)" fill="#313131"/>
    <g id="Group_1805" data-name="Group 1805" transform="translate(1782.068 1085.329)">
      <g id="Group_1804" data-name="Group 1804">
        <path id="Path_2446" data-name="Path 2446" d="M1897.766,1089.767a18.577,18.577,0,0,1,.642,3.195c-5.641.813-10.2,1.291-14.971,1.621l-.9.062a12.421,12.421,0,0,1,8.41-9.051C1893.179,1084.853,1896.347,1085.492,1897.766,1089.767Z" transform="translate(-1882.537 -1085.329)" fill="#019e96"/>
      </g>
    </g>
    <g id="Group_1832" data-name="Group 1832" transform="translate(1768.723 1092.552)">
      <path id="Path_2463" data-name="Path 2463" d="M1864.931,1111.552a.359.359,0,0,1-.068.023c-5.435.782-10.062,1.282-15,1.626l-.9.06c-3.863.246-7.988.413-13,.577a.424.424,0,0,1-.377-.46v0a.415.415,0,0,1,.342-.372c5-.163,9.121-.325,12.971-.577l.9-.061c4.918-.341,9.526-.838,14.939-1.618a.421.421,0,0,1,.45.385v0a.417.417,0,0,1-.257.423Z" transform="translate(-1835.584 -1110.744)" fill="#313131"/>
    </g>
  </g>
</svg>
