<svg xmlns="http://www.w3.org/2000/svg" width="174.879" height="197" viewBox="0 0 174.879 197">
  <g id="Group_2803" data-name="Group 2803" transform="translate(-232.684 -1049.361)">
    <path id="Path_2232" data-name="Path 2232" d="M507.453,1123.821a21.225,21.225,0,0,0,5.609,6.339,36.413,36.413,0,0,1-13.767,5.989c-6.578,2.424-7.24-5.011-7.633-7.234l6.18.607a8.2,8.2,0,0,0,4.121-10.348c-1.4-3.18-5.006-4.093-5.552-4.226a11.711,11.711,0,0,1-2.407,4.464,12.164,12.164,0,0,1-6.754,3.858,8.871,8.871,0,0,0,5.416,6.325c-.411,2.5-.6,4.814-.873,7.232a35.188,35.188,0,0,1-14.431-3.711,70.031,70.031,0,0,0,3.826-8.554c1.954-5.3,1.617-6.351,3.146-8.551a12.947,12.947,0,0,1,11.218-5.61,11,11,0,0,1,6.983,2.95C505.435,1116.207,504.813,1119.214,507.453,1123.821Z" transform="translate(-172.634 -42.357)" fill="#313131"/>
    <g id="shadow-2" transform="translate(291.415 1239.855)">
      <path id="Path_2214" data-name="Path 2214" d="M463.346,1673.2a1.218,1.218,0,0,1-.53,1.639h0a1.241,1.241,0,0,1-.207.083c-3.81,1.316-7.612-.037-11.49-.144a1.239,1.239,0,0,1-1.228-1.249v0a1.283,1.283,0,0,1,.041-.3,12.387,12.387,0,0,1,.485-1.165q-1.927-.054-3.96-.055c-3.645,0-7.078.134-10.1.37a10.293,10.293,0,0,1,.6,2.583,1.235,1.235,0,0,1-1.248,1.222h0a1.241,1.241,0,0,1-.6-.162,9.232,9.232,0,0,1-3-3.212c-4.574.6-7.464,1.473-7.464,2.451,0,1.8,9.764,3.255,21.809,3.255s21.809-1.457,21.809-3.255C468.267,1674.478,466.419,1673.761,463.346,1673.2Z" transform="translate(-424.652 -1672.005)" fill="#fcde95"/>
    </g>
    <g id="back_line-2" data-name="back line-2" transform="translate(247.634 1105.8)">
      <g id="Group_1596" data-name="Group 1596" transform="translate(9.791 0)">
        <g id="Group_1594" data-name="Group 1594">
          <path id="Path_2215" data-name="Path 2215" d="M314.538,1246.987a.361.361,0,0,1-.362-.361.353.353,0,0,1,.055-.194,14.79,14.79,0,0,0,2.274-6.959,2.891,2.891,0,0,1-.45.036,2.414,2.414,0,0,1-2.5-2.32v-.034a3.571,3.571,0,0,1,3.456-3.319c1.776,0,3.574,1.549,3.574,4.509,0,2.781-2.125,5.906-5.83,8.574A.358.358,0,0,1,314.538,1246.987Zm2.348-8.344a.365.365,0,0,1,.364.363v.009a15.169,15.169,0,0,1-1.536,6.235c2.652-2.255,4.142-4.713,4.142-6.9,0-2.6-1.477-3.784-2.85-3.784a2.888,2.888,0,0,0-2.731,2.6,1.7,1.7,0,0,0,1.769,1.63h.012a2.188,2.188,0,0,0,.713-.122.364.364,0,0,1,.118-.023Z" transform="translate(-313.551 -1233.836)" fill="#313131"/>
        </g>
        <g id="Group_1595" data-name="Group 1595" transform="translate(8.807)">
          <path id="Path_2216" data-name="Path 2216" d="M343.324,1246.987a.362.362,0,0,1-.362-.361.358.358,0,0,1,.055-.194,14.79,14.79,0,0,0,2.274-6.959,2.877,2.877,0,0,1-.449.036,2.414,2.414,0,0,1-2.5-2.32v-.034a3.57,3.57,0,0,1,3.456-3.319c1.776,0,3.574,1.549,3.574,4.509,0,2.781-2.125,5.906-5.83,8.574A.36.36,0,0,1,343.324,1246.987Zm2.349-8.344a.365.365,0,0,1,.364.363v.009a15.17,15.17,0,0,1-1.536,6.235c2.652-2.255,4.142-4.713,4.142-6.9,0-2.6-1.477-3.784-2.85-3.784a2.887,2.887,0,0,0-2.731,2.594,1.7,1.7,0,0,0,1.768,1.63h.012a2.2,2.2,0,0,0,.714-.122.351.351,0,0,1,.117-.019Z" transform="translate(-342.339 -1233.836)" fill="#313131"/>
        </g>
      </g>
      <g id="Group_1597" data-name="Group 1597" transform="translate(0 129.751)">
        <path id="Path_2217" data-name="Path 2217" d="M281.9,1660.153a.361.361,0,0,1-.355-.368h0a.362.362,0,0,1,.336-.355c14.324-.764,28.963-1.265,43.513-1.489a.366.366,0,0,1,.368.357.362.362,0,0,1-.354.369h0C310.869,1658.885,296.238,1659.385,281.9,1660.153Z" transform="translate(-281.55 -1657.939)" fill="#313131"/>
      </g>
      <g id="Group_1598" data-name="Group 1598" transform="translate(57.305 129.625)">
        <path id="Path_2218" data-name="Path 2218" d="M479.926,1658.284c-3.58-.033-7.086-.043-10.728-.034a.361.361,0,0,1,0-.721c3.644-.009,7.154,0,10.734.034a.361.361,0,0,1,0,.722Z" transform="translate(-468.855 -1657.526)" fill="#313131"/>
      </g>
      <g id="Group_1599" data-name="Group 1599" transform="translate(80.47 129.855)">
        <path id="Path_2219" data-name="Path 2219" d="M574.453,1659.616l-5.509-.094c-5.53-.105-10.372-.215-14.862-.317-3.188-.073-6.2-.141-9.155-.2a.363.363,0,0,1-.354-.369.367.367,0,0,1,.369-.355c2.955.06,5.967.129,9.158.2,4.489.1,9.33.212,14.859.318,1.928.037,3.758.07,5.5.095a.361.361,0,0,1,.34.382h0a.362.362,0,0,1-.346.341Z" transform="translate(-544.573 -1658.279)" fill="#313131"/>
      </g>
      <g id="Group_1600" data-name="Group 1600" transform="translate(1.863 98.038)">
        <path id="Path_2220" data-name="Path 2220" d="M288.023,1590.813a.364.364,0,0,1-.361-.338q-.023-.344-.023-.683c0-4.708,4.508-13.4,10.934-13.4a12.9,12.9,0,0,1,4.037.8,11.951,11.951,0,0,0,3.712.755c3.179,0,4.606-4.207,6.258-9.078,2.2-6.5,4.947-14.588,13.33-14.588,5.051,0,6.789,4.871,8.63,10.028.43,1.206.875,2.457,1.37,3.663a.362.362,0,0,1-.172.482h0a.363.363,0,0,1-.483-.174h0c-.006-.011-.01-.024-.015-.035-.5-1.228-.945-2.48-1.382-3.693-1.828-5.123-3.408-9.547-7.947-9.547-7.863,0-10.4,7.489-12.644,14.1-1.741,5.136-3.245,9.571-6.944,9.571a12.689,12.689,0,0,1-3.931-.787,12.173,12.173,0,0,0-3.818-.768c-5.9,0-10.2,8.338-10.2,12.677,0,.21.007.42.021.634a.363.363,0,0,1-.337.387Z" transform="translate(-287.639 -1554.28)" fill="#313131"/>
      </g>
      <g id="Group_1601" data-name="Group 1601" transform="translate(58.439 119.727)">
        <path id="Path_2221" data-name="Path 2221" d="M476.69,1627.615a14.924,14.924,0,0,1-3.874-.48.363.363,0,0,1,.189-.7,14.179,14.179,0,0,0,3.685.455c1.237,0,2.762-.762,4.485-1.684a.363.363,0,0,1,.482.174h0a.363.363,0,0,1-.141.464C479.707,1626.815,478.095,1627.615,476.69,1627.615Z" transform="translate(-472.561 -1625.173)" fill="#313131"/>
      </g>
      <g id="Group_1602" data-name="Group 1602" transform="translate(78.034 116.719)">
        <path id="Path_2222" data-name="Path 2222" d="M543.909,1628.223a.364.364,0,0,1-.362-.35c-.31-8.519-3.8-11.13-6.676-11.82a.363.363,0,0,1,.169-.7c3.118.748,6.9,3.525,7.23,12.5a.365.365,0,0,1-.351.378h0Z" transform="translate(-536.61 -1615.342)" fill="#313131"/>
      </g>
      <g id="Group_1603" data-name="Group 1603" transform="translate(11.724 120.187)">
        <path id="Path_2223" data-name="Path 2223" d="M323.724,1639.019a.363.363,0,0,1-.357-.3c-1.281-7.689-2.26-9.409-3.395-11.4l-.056-.094a.362.362,0,0,1,.629-.361l0,0h0l.056.094c1.168,2.052,2.173,3.824,3.479,11.641a.362.362,0,0,1-.3.417h0A.387.387,0,0,1,323.724,1639.019Z" transform="translate(-319.87 -1626.678)" fill="#313131"/>
      </g>
      <g id="Group_1604" data-name="Group 1604" transform="translate(5.391 124.196)">
        <path id="Path_2224" data-name="Path 2224" d="M308.277,1642.63h-.028a30.261,30.261,0,0,1-8.82-2.139.363.363,0,1,1,.208-.7h0a.249.249,0,0,1,.039.014,29.637,29.637,0,0,0,8.63,2.1.363.363,0,0,1-.028.724Z" transform="translate(-299.17 -1639.78)" fill="#313131"/>
      </g>
      <g id="Group_1605" data-name="Group 1605" transform="translate(35.5 98.914)">
        <path id="Path_2225" data-name="Path 2225" d="M404.023,1588.739a.363.363,0,0,1-.36-.328l-.135-1.446c-.405-4.354-.789-8.467-1.6-12.776-.2-1.05-.345-2.079-.488-3.064a32.081,32.081,0,0,0-1.432-6.562q-.289-.807-.586-1.606c-.64-1.741-1.3-3.542-1.828-5.361a.363.363,0,0,1,.7-.2c.521,1.8,1.177,3.583,1.812,5.312.2.537.395,1.075.589,1.613a32.65,32.65,0,0,1,1.467,6.708c.143.983.29,2,.484,3.035.814,4.346,1.2,8.471,1.606,12.842l.135,1.444a.362.362,0,0,1-.325.395h0Z" transform="translate(-397.585 -1557.145)" fill="#313131"/>
      </g>
      <g id="Group_1606" data-name="Group 1606" transform="translate(29.136 106.207)">
        <path id="Path_2226" data-name="Path 2226" d="M387.266,1587.3a.377.377,0,0,1-.124-.022,42.813,42.813,0,0,1-10.222-5.647.362.362,0,0,1-.055-.51h0a.363.363,0,0,1,.477-.079,42.1,42.1,0,0,0,10.048,5.555.361.361,0,0,1,.215.464v0a.364.364,0,0,1-.338.237Z" transform="translate(-376.784 -1580.983)" fill="#313131"/>
      </g>
      <g id="Group_1607" data-name="Group 1607" transform="translate(25.497 115.958)">
        <path id="Path_2227" data-name="Path 2227" d="M380.567,1619.7a.411.411,0,0,1-.095-.011,81.365,81.365,0,0,1-15.37-6.141.363.363,0,0,1,.3-.663h0l.024.012a80.688,80.688,0,0,0,15.231,6.085.363.363,0,0,1-.094.713Z" transform="translate(-364.889 -1612.853)" fill="#313131"/>
      </g>
    </g>
    <path id="Path_2228" data-name="Path 2228" d="M693.226,1113.835l2.131,1.33c-.3,2.77-.675,5.415-1.147,7.965l-1.4-1.43-2.362-2.414-.157-7.289Z" transform="translate(-317.604 -43.473)" fill="#ff957c"/>
    <path id="Path_2229" data-name="Path 2229" d="M632.474,1143.709l1.4,1.43a68.6,68.6,0,0,1-12.755,29.655,4.8,4.8,0,0,1-5.326,1.512c-4.168-1.33-8.195-2.482-12.437-3.555a48.644,48.644,0,0,0,1.953-10.714c3.242,1.011,6.634,2.152,10.4,3.393a1.625,1.625,0,0,0,1.854-.634l12.992-18.386h1.032a.772.772,0,0,0,.775-.733Z" transform="translate(-257.27 -65.483)" fill="#ff957c"/>
    <path id="Path_2230" data-name="Path 2230" d="M462.613,1189.694a86.607,86.607,0,0,1,20.852,4.252,48.585,48.585,0,0,1-1.953,10.714c-3.707-.937-7.572-1.817-11.83-2.707a31.624,31.624,0,0,1,1.7,5.378c1.969,8.965-.8,15.453-1.493,20.318-1.178,8.253,2.163,20.224,22.748,37.767-6.7-1.283-16.841-1.262-27.565-.074-3.822.429-7.719,1-11.558,1.718a125.675,125.675,0,0,0-16.139,4.063c-1.907-5.917-3.577-13.385-3.577-19.685,0-15.982,7.017-21.73,7.017-32.928a26.972,26.972,0,0,0-.592-5.615c-1.095,1.822-2.163,3.508-3.258,5.126a26.612,26.612,0,0,0-9.159-4.251c1.555-3.685,3.153-7.275,4.818-10.662,4.157-8.442,10.159-11.945,16.935-13.123" transform="translate(-135.428 -97.399)" fill="#019e96"/>
    <path id="Path_2230-2" data-name="Path 2230" d="M519.9,1206.16" transform="translate(-199.344 -108.827)" fill="#019e96"/>
    <path id="Path_2231" data-name="Path 2231" d="M549.209,1434.944c10.724-1.189,20.863-1.209,27.565.074-9.62,5.833-16.723,8.284-27.748,9.8C549.152,1441.6,549.214,1438.317,549.209,1434.944Z" transform="translate(-219.559 -266.998)" fill="#313131"/>
    <path id="Path_2233" data-name="Path 2233" d="M517.434,1436.963c.006,3.377-.058,6.656-.182,9.876-.6,15.474-2.675,29.624-6.3,46.727a22.54,22.54,0,0,0,.257,9.373,10.422,10.422,0,0,0,1.482,3.11c-2.43-.021-4.865-.068-7.289-.178l.126-1.058a9.538,9.538,0,0,0-.1-2.561c-2.75-15.543-2.98-29.167-.183-46.632l-.785-3.241h-.005c.628-4.367,1.095-8.9,1.429-13.7C509.719,1437.963,513.615,1437.4,517.434,1436.963Z" transform="translate(-187.787 -269.018)" fill="#ff957c"/>
    <path id="Path_2238" data-name="Path 2238" d="M463.531,1442.577c-.335,4.8-.8,9.332-1.429,13.7-2.173,15.218-6.257,28.4-13.322,43.888a14.73,14.73,0,0,0-1.323,7.122,64.576,64.576,0,0,1-5.226-3.985c.12-.335.235-.676.35-1.021a11.874,11.874,0,0,0,.55-2.943c1.015-17.113,2.943-28.482,9.5-40.657a59.651,59.651,0,0,1-3.293-6.714c-.644-1.534-1.309-3.347-1.953-5.332A125.753,125.753,0,0,1,463.531,1442.577Z" transform="translate(-145.438 -272.914)" fill="#ff957c"/>
    <path id="Path_2239" data-name="Path 2239" d="M383.867,1272.645a114.571,114.571,0,0,1-7.011,9.295,108.623,108.623,0,0,1-14.678,27.231,7.577,7.577,0,0,1,2.021,3.212,3.706,3.706,0,0,1-1.639.67c-.969,0-1.2-1.162-2.393-1.162-1.67,0-3.2,2.331-6.016,2.331a11.925,11.925,0,0,1-2.849-.44c1.561-1.529,3.153-4.7,6.3-5.4,5.729-9.949,11.054-25.638,17.1-39.987A26.617,26.617,0,0,1,383.867,1272.645Z" transform="translate(-82.327 -152.022)" fill="#ff957c"/>
    <g id="Group_1609" data-name="Group 1609" transform="translate(292.006 1116.007)">
      <path id="Path_2241" data-name="Path 2241" d="M436.117,1272.175a.36.36,0,0,1-.215-.071,26.365,26.365,0,0,0-9.028-4.186.364.364,0,0,1-.284-.429h0a.364.364,0,0,1,.429-.284h0l.022.006a27.125,27.125,0,0,1,9.289,4.307.361.361,0,0,1,.077.5l0,0a.366.366,0,0,1-.29.146Z" transform="translate(-426.583 -1267.197)" fill="#fff"/>
    </g>
    <g id="Group_1612" data-name="Group 1612" transform="translate(293.802 1231.364)">
      <path id="Path_2244" data-name="Path 2244" d="M441.45,1657.555a1.458,1.458,0,0,1-.976-.378c-2.619-2.362-5.063-4.791-7.925-7.873a.362.362,0,0,1-.052-.421,40.625,40.625,0,0,0,2.1-4.385.363.363,0,0,1,.46-.228h0a.363.363,0,0,1,.228.46h0a.3.3,0,0,1-.016.038,41.026,41.026,0,0,1-2.009,4.233c2.77,2.975,5.154,5.337,7.7,7.636a.731.731,0,0,0,1.179-.788,37.926,37.926,0,0,1-1.641-6.918.363.363,0,0,1,.3-.419h0a.363.363,0,0,1,.419.3h0v.022a37.326,37.326,0,0,0,1.606,6.787,1.463,1.463,0,0,1-.9,1.859,1.479,1.479,0,0,1-.472.08Z" transform="translate(-432.452 -1644.251)" fill="#313131"/>
    </g>
    <g id="Group_1613" data-name="Group 1613" transform="translate(316.301 1169.283)">
      <path id="Path_2245" data-name="Path 2245" d="M506.357,1455.774H506.3a.362.362,0,0,1-.307-.409h0c.617-4.291,1.084-8.764,1.427-13.673a.363.363,0,0,1,.369-.356h0a.361.361,0,0,1,.356.367h0a.276.276,0,0,1,0,.039c-.344,4.926-.811,9.416-1.432,13.726A.363.363,0,0,1,506.357,1455.774Z" transform="translate(-505.994 -1441.336)" fill="#313131"/>
    </g>
    <g id="Group_1614" data-name="Group 1614" transform="translate(316.583 1237.496)">
      <path id="Path_2246" data-name="Path 2246" d="M519.421,1670.154h-.042l-12.112-.393a.363.363,0,0,1-.351-.375v-.033l.545-4.673a.363.363,0,0,1,.387-.337h0a.362.362,0,0,1,.335.386h0v.033l-.5,4.282,11.715.378a.45.45,0,0,0,.448-.294.472.472,0,0,0-.139-.539c-.354-.3-.692-.586-1.015-.858a27.858,27.858,0,0,1-3.08-2.845.362.362,0,0,1,.051-.509h0a.363.363,0,0,1,.494.033,26.914,26.914,0,0,0,3,2.767l1.018.861a1.193,1.193,0,0,1,.344,1.353A1.175,1.175,0,0,1,519.421,1670.154Z" transform="translate(-506.916 -1664.296)" fill="#313131"/>
    </g>
    <g id="Group_1615" data-name="Group 1615" transform="translate(321.576 1097.948)">
      <path id="Path_2247" data-name="Path 2247" d="M538.406,1277.637a.362.362,0,0,1-.252-.1c-14.514-14.121-13.457-32.288-12.526-48.317l.095-1.572c.695-12.157-2.412-18.873-2.443-18.939a.363.363,0,0,1,.64-.342h0a.246.246,0,0,1,.014.031c.131.278,3.218,6.951,2.512,19.292l-.095,1.572c-.923,15.873-1.968,33.865,12.308,47.755a.363.363,0,0,1,.006.513h0a.36.36,0,0,1-.259.109Z" transform="translate(-523.236 -1208.172)" fill="#fff"/>
    </g>
    <g id="Group_1616" data-name="Group 1616" transform="translate(369.891 1064.841)">
      <path id="Path_2248" data-name="Path 2248" d="M685.591,1116.4h-3.3a1.139,1.139,0,0,1-1.133-1.134V1101.1a1.141,1.141,0,0,1,1.139-1.14,1.129,1.129,0,0,1,.3.042l4,1.105a1.134,1.134,0,0,1,.831,1.156l-.075,1.4a.362.362,0,0,1-.363.361h0a.364.364,0,0,1-.362-.365v-.035l.075-1.4a.405.405,0,0,0-.3-.417l-4-1.105a.414.414,0,0,0-.526.4v14.172a.413.413,0,0,0,.413.413h3.3a.411.411,0,0,0,.413-.39l.054-1.008a.362.362,0,0,1,.365-.361h0a.361.361,0,0,1,.361.363h0a.223.223,0,0,1,0,.036l-.054,1.007A1.134,1.134,0,0,1,685.591,1116.4Z" transform="translate(-681.158 -1099.957)" fill="#313131"/>
    </g>
    <g id="Group_1619" data-name="Group 1619" transform="translate(319.099 1138.26)">
      <path id="Path_2251" data-name="Path 2251" d="M516.549,1342.906a1.322,1.322,0,0,1-1.409-1.228v-.075a1.623,1.623,0,0,1,1.218-1.646,1.1,1.1,0,0,1,.229-.024,1.418,1.418,0,0,1,1.4,1.329A1.55,1.55,0,0,1,516.549,1342.906Zm-.051-2.24a.91.91,0,0,0-.635.935.617.617,0,0,0,.649.583h.037c.527,0,.7-.632.7-.92a.7.7,0,0,0-.671-.6.476.476,0,0,0-.087.009Z" transform="translate(-515.138 -1339.934)" fill="#fff"/>
    </g>
    <g id="Group_1620" data-name="Group 1620" transform="translate(318.755 1128.901)">
      <path id="Path_2252" data-name="Path 2252" d="M515.261,1311.973a1.272,1.272,0,0,1-1.247-1.256c0-.555.388-1.357,1.09-1.357a1,1,0,0,0,.158-.008,1.225,1.225,0,0,1,.189-.01,1.166,1.166,0,0,1,1.133,1.168A1.52,1.52,0,0,1,515.261,1311.973Zm.189-1.905a.931.931,0,0,0-.13.007c-.067,0-.136.01-.213.01-.167,0-.366.343-.366.632a.546.546,0,0,0,.485.532.806.806,0,0,0,.632-.739.439.439,0,0,0-.409-.442Z" transform="translate(-514.014 -1309.343)" fill="#fff"/>
    </g>
    <g id="Group_1621" data-name="Group 1621" transform="translate(319.229 1119.287)">
      <path id="Path_2253" data-name="Path 2253" d="M517.113,1280.9a1.417,1.417,0,0,1-1.544-1.277,1.07,1.07,0,0,1-.006-.114,1.864,1.864,0,0,1,.635-1.358.91.91,0,0,1,.5-.22.692.692,0,0,0,.114-.006c.065,0,.133-.01.2-.01a1.539,1.539,0,0,1,1.4,1.512A1.417,1.417,0,0,1,517.113,1280.9Zm-.437-2.2a1.14,1.14,0,0,0-.388.812c0,.491.426.661.826.661.35,0,.574-.441.574-.744a.815.815,0,0,0-.677-.791.922.922,0,0,0-.146.008,1.031,1.031,0,0,1-.123.007.39.39,0,0,0-.066.047Z" transform="translate(-515.563 -1277.919)" fill="#fff"/>
    </g>
    <g id="symbols-2" transform="translate(232.684 1049.361)">
      <g id="Group_1622" data-name="Group 1622" transform="translate(0 118.957)">
        <path id="Path_2254" data-name="Path 2254" d="M241.912,1441.833a5.687,5.687,0,0,1-3.415-1.275,3.944,3.944,0,0,0-2.28-.945,3.418,3.418,0,0,0-2.645,1.526.482.482,0,0,1-.668.141h0a.484.484,0,0,1-.142-.669l.024-.033a4.392,4.392,0,0,1,3.436-1.931,4.808,4.808,0,0,1,2.824,1.113,4.759,4.759,0,0,0,2.869,1.106,3.768,3.768,0,0,0,2.984-1.349,3.651,3.651,0,0,1,2.74-1.334,5.155,5.155,0,0,1,2.848,1.258,5.384,5.384,0,0,0,3.015,1.313,4.4,4.4,0,0,0,2.275-1.053,6.452,6.452,0,0,1,2.475-1.243.483.483,0,0,1,.56.391h0a.483.483,0,0,1-.39.56h0a5.68,5.68,0,0,0-2.093,1.084,5.125,5.125,0,0,1-2.827,1.228,6.21,6.21,0,0,1-3.571-1.49,4.361,4.361,0,0,0-2.29-1.082,2.755,2.755,0,0,0-2.071,1.064A4.73,4.73,0,0,1,241.912,1441.833Z" transform="translate(-232.684 -1438.183)" fill="#019e96"/>
      </g>
      <g id="Group_1758" data-name="Group 1758" transform="translate(161.873 128.367)">
        <path id="Path_2255-2" data-name="Path 2255-2" d="M767.8,1482.258c-3.26,0-6.015-3.136-6.015-6.851a6.213,6.213,0,0,1,4.212-6.141,6.449,6.449,0,0,1,2.047-.326c3.356,0,6.742,1.7,6.742,5.495,0,.342-.021.682-.041,1.011-.018.283-.035.56-.035.818C774.708,1479.006,770.962,1482.258,767.8,1482.258Zm.245-12.356a5.408,5.408,0,0,0-1.742.277,5.3,5.3,0,0,0-3.552,5.228c0,3.19,2.312,5.884,5.049,5.884,2.813,0,5.944-3,5.944-5.032,0-.276.018-.567.037-.878s.039-.629.039-.951c0-3.343-3.111-4.528-5.776-4.528Z" transform="translate(-761.777 -1468.94)" fill="#ff8e9e"/>
      </g>
      <g id="Group_1624" data-name="Group 1624" transform="translate(37.167 24.779)">
        <path id="Path_2256" data-name="Path 2256" d="M361.961,1140.059a54.232,54.232,0,0,1-7.728-8.975.483.483,0,0,1,.818-.513,53.462,53.462,0,0,0,7.592,8.806Z" transform="translate(-354.166 -1130.353)" fill="#ff8e9e"/>
      </g>
      <g id="Group_1625" data-name="Group 1625" transform="translate(112.132 22.934)">
        <path id="Path_2257" data-name="Path 2257" d="M609.754,1125.693h-.061a17.148,17.148,0,0,0-2.18-.116c-.669,0-1.362.024-2.033.045-.686.024-1.4.047-2.094.047a15.383,15.383,0,0,1-3.808-.389.484.484,0,0,1,.206-.946h0l.028.008a14.494,14.494,0,0,0,3.574.361c.682,0,1.384-.024,2.061-.046s1.381-.046,2.066-.046a18.09,18.09,0,0,1,2.3.124.484.484,0,0,1-.06.963Z" transform="translate(-599.197 -1124.323)" fill="#019e96"/>
      </g>
      <g id="Group_1626" data-name="Group 1626" transform="translate(122.206)">
        <path id="Path_2258" data-name="Path 2258" d="M637.032,1055.558a.486.486,0,0,1-.415-.234,27.443,27.443,0,0,0-4.354-5.138.483.483,0,0,1,.683-.684h0a28.171,28.171,0,0,1,4.5,5.324.483.483,0,0,1-.414.731Z" transform="translate(-632.123 -1049.361)" fill="#fec739"/>
      </g>
    </g>
    <rect id="Rectangle_1420" data-name="Rectangle 1420" width="6.369" height="18.754" rx="3.184" transform="translate(325.027 1098.52) rotate(-180)" fill="#ff957c"/>
    <circle id="Ellipse_540" data-name="Ellipse 540" cx="7.549" cy="7.549" r="7.549" transform="translate(315.175 1072.217)" fill="#ff957c"/>
    <circle id="Ellipse_541" data-name="Ellipse 541" cx="7.549" cy="7.549" r="7.549" transform="translate(315.175 1076.392)" fill="#ff957c"/>
    <rect id="Rectangle_1421" data-name="Rectangle 1421" width="15.099" height="4.067" transform="translate(315.175 1079.766)" fill="#ff957c"/>
    <circle id="Ellipse_542" data-name="Ellipse 542" cx="0.881" cy="0.881" r="0.881" transform="translate(327.046 1080.533)" fill="#313131"/>
    <circle id="Ellipse_543" data-name="Ellipse 543" cx="0.881" cy="0.881" r="0.881" transform="translate(321.843 1080.533)" fill="#313131"/>
    <path id="Path_4060" data-name="Path 4060" d="M543.294,1152.779l.411,3.337.058.472.36-.36-.877.044c-.462.023-.464.744,0,.721l.877-.044c.177-.009.385-.159.36-.36l-.411-3.337-.058-.472a.372.372,0,0,0-.36-.36.363.363,0,0,0-.36.36Z" transform="translate(-218.12 -71.528)" fill="#313131"/>
    <path id="Path_4061" data-name="Path 4061" d="M538.626,1171.518l-.019,0c-.073.011.108-.013.042-.005s-.109.012-.164.016a3.9,3.9,0,0,1-.553.007c-.055,0-.111-.008-.166-.014s-.069-.027.005,0a.521.521,0,0,0-.091-.015,2.176,2.176,0,0,1-.326-.083l-.076-.028c-.06-.022.073.035-.019-.01a1.379,1.379,0,0,1-.14-.078c-.01-.006-.065-.054-.074-.051.018,0,.063.053,0,0-.023-.02-.044-.041-.065-.063s-.083-.1-.018-.014a.37.37,0,0,0-.493-.13.364.364,0,0,0-.129.493,2.552,2.552,0,0,0,2.474.667.362.362,0,0,0,.252-.443.371.371,0,0,0-.444-.252Z" transform="translate(-213.533 -84.426)" fill="#313131"/>
    <ellipse id="Ellipse_544" data-name="Ellipse 544" cx="1.66" cy="2.341" rx="1.66" ry="2.341" transform="translate(312.063 1081.352) rotate(-69.127)" fill="#ff957c"/>
    <path id="Path_4062" data-name="Path 4062" d="M509.26,1127.755s6.94,2.847,12.009-5.555a3,3,0,0,0-3.082-2.44S507.114,1120.3,509.26,1127.755Z" transform="translate(-194.581 -48.86)" fill="#313131"/>
    <path id="Path_4063" data-name="Path 4063" d="M546.722,1126.918s4.03.951,4.325,4.529c0-4.8-.747-5.209-.747-5.209l-3.482-1.087" transform="translate(-220.773 -52.603)" fill="#313131"/>
  </g>
</svg>
